<?xml version="1.0" encoding="utf-8"?>
<!-- Generator: Adobe Illustrator 27.8.0, SVG Export Plug-In . SVG Version: 6.00 Build 0)  -->
<svg version="1.1" id="Layer_1" xmlns="http://www.w3.org/2000/svg" xmlns:xlink="http://www.w3.org/1999/xlink" x="0px" y="0px"
	 viewBox="0 0 136.8 154.4" style="enable-background:new 0 0 136.8 154.4;" xml:space="preserve">
<style type="text/css">
	.st0{fill:#58d38c;}
</style>
<g>
	<path id="Pfad_3320" class="st0" d="M115.9,2.8c-3.9-0.3-6.2,5.4-7.9,7.2c-1.7,1.9-4,1.3-9.2,0S88,3.2,86.3,2.5S84,2.9,77.5,6
		C71.1,9.1,53,3.6,50.3,2.6c-2.6-0.9-5.9-2.1-7.9-1.4c-1.8,0.9-16.2,1.8-18,2.6s-7.2-1-7.2-1s-0.6,1-1.1,2.2c-0.6,1.3-0.3,3-0.4,8.6
		c-0.1,5.6,5.6,6.8,5.6,9.3c-0.1,1.9-0.3,4-0.7,5.9c0,0-7.2,2.1-11.2,3.4s2,10.4,2.5,13.8c0.4,3.5,0.9,3.2,2.6,7.1s1,1.8,4.3,5.2
		c3.3,3.3,4.7,1.7,7.2,1.9c2.5,0.3,10.5,6.2,15,9.3c4.5,3,22.2,8.3,27.6,9.2c5.4,0.9,7.6,0.6,10.7-2.6c3-3.2,4.2-11.4,5.4-15.5
		c1.2-4.1,3.6,2,4.6,3s3.2,4.6,8.1,4.6s3-4.3,2.6-6.6c-0.4-2.3,5.2-3.2,8.5-4.2s4,0.6,5.9,0s5.6-5.4,7.3-7.3
		c1.8-1.9,0-10.7-2.6-12.8c-2.6-2-9.5-4.7-10.5-6.5c-1-1.9,1.3-4.2,2.3-6.6c1.1-2.4,9.2-3.5,10.7-4c1.6-0.5,5.3-1.1,6.2-4.3
		C128.8,12.6,119.8,3.1,115.9,2.8 M51.6,38.3C51.6,38.3,51.6,38.4,51.6,38.3c0,0.2,0,0.4,0,0.5c0,4.8-3.8,8.6-8.6,8.6v-5.9
		c-4.8,0-8.6-3.8-8.6-8.6s3.8-8.6,8.6-8.6h7.5c0.6,0,1.1,0.5,1.1,1.1C51.6,25.4,51.6,38.3,51.6,38.3z M71.3,41
		c-0.3,0.5-0.9,0.7-1.5,0.4c-0.2-0.1-0.3-0.3-0.4-0.4l-3.3-6.1L62.9,41c-0.3,0.5-0.9,0.7-1.5,0.5c-0.2-0.1-0.3-0.3-0.5-0.5L53,25.7
		c-0.3-0.5-0.1-1.2,0.5-1.5c0.2-0.1,0.3-0.1,0.5-0.1h10.4l1.7,3.2l1.7-3.2h10.8c0.6,0,1.1,0.5,1.1,1.1c0,0.2,0,0.4-0.1,0.5L71.3,41z
		 M95.7,38.3C95.7,38.3,95.7,38.4,95.7,38.3c0,0.2,0,0.4,0,0.5c0,4.8-3.8,8.6-8.6,8.6v-5.9c-4.8,0-8.6-3.8-8.6-8.6s3.8-8.6,8.6-8.6
		h7.5c0.6,0,1.1,0.5,1.1,1.1C95.7,25.3,95.7,38.3,95.7,38.3z"/>
</g>
<g>
	<path class="st0" d="M16.9,122.2c-0.8,0-1.5-0.1-2.1-0.4s-1-0.7-1.3-1.2s-0.5-1.2-0.7-1.9c-0.1-0.7-0.2-1.6-0.2-2.5l3-0.3
		c0,0.5,0,0.9,0,1.3s0.1,0.8,0.2,1.1c0.1,0.3,0.2,0.6,0.4,0.8c0.2,0.2,0.4,0.3,0.7,0.3c0.5,0,0.8-0.2,1-0.6s0.3-0.9,0.3-1.5
		s-0.2-1.2-0.5-1.8c-0.3-0.6-0.7-1.2-1.1-1.8c-0.7-1-1.4-1.9-1.9-2.7c-0.6-0.8-1-1.7-1.3-2.5s-0.5-1.7-0.5-2.5
		c0-0.7,0.1-1.3,0.3-1.9s0.4-1.1,0.8-1.5c0.3-0.4,0.8-0.8,1.2-1c0.5-0.2,1.1-0.4,1.7-0.4c0.8,0,1.4,0.1,2,0.4c0.5,0.3,1,0.6,1.3,1.1
		s0.6,1.1,0.7,1.7c0.2,0.7,0.2,1.4,0.2,2.2l-3,0.3c0-0.3,0-0.7,0-1.1s-0.1-0.7-0.2-1s-0.2-0.5-0.4-0.7c-0.2-0.2-0.4-0.3-0.6-0.3
		c-0.4,0-0.7,0.2-0.8,0.5c-0.2,0.3-0.2,0.8-0.2,1.4c0,0.8,0.2,1.6,0.6,2.3c0.4,0.7,1,1.6,1.7,2.6c0.9,1.2,1.6,2.2,2.1,3.2
		s0.8,2,0.8,3.2c0,0.7-0.1,1.4-0.2,2.1c-0.2,0.6-0.4,1.2-0.8,1.7c-0.3,0.5-0.8,0.8-1.3,1.1C18.3,122,17.7,122.2,16.9,122.2z"/>
	<path class="st0" d="M27.6,121.9v-17.6h-2.9v-3.1h8.9v3.1h-2.9v17.6H27.6z"/>
	<path class="st0" d="M35.8,121.9l3.1-20.8h3.7l3.1,20.8h-3l-0.6-4.2h-2.9l-0.6,4.2C38.6,121.9,35.8,121.9,35.8,121.9z M39.7,114.5
		h2.1l-0.9-7l-0.1-1.1h-0.2l-0.1,1.1L39.7,114.5z"/>
	<path class="st0" d="M50.2,121.9v-20.8h3.1c1,0,1.8,0.2,2.5,0.5s1.2,0.9,1.6,1.6c0.4,0.8,0.7,1.8,0.9,3.2c0.2,1.3,0.3,3,0.3,5.1
		s-0.1,3.8-0.3,5.1c-0.2,1.3-0.5,2.4-0.9,3.2s-1,1.3-1.6,1.6c-0.7,0.3-1.5,0.5-2.5,0.5C53.3,121.9,50.2,121.9,50.2,121.9z
		 M53.3,118.9c0.8,0,1.3-0.3,1.6-0.9s0.5-1.4,0.6-2.5s0.1-2.4,0.1-3.9s0-2.8-0.1-3.9s-0.3-1.9-0.6-2.5s-0.8-0.9-1.6-0.9V118.9z"/>
	<path class="st0" d="M65.6,121.9v-17.6h-2.9v-3.1h8.8v3.1h-2.9v17.6H65.6z"/>
	<path class="st0" d="M78,121.9v-17.6h-2.9v-3.1h8.8v3.1H81v17.6H78z"/>
	<path class="st0" d="M88.2,121.9v-20.8h7v3.1h-3.9v5.6h2.8v3.1h-2.8v5.8h3.9v3.1L88.2,121.9L88.2,121.9z"/>
	<path class="st0" d="M100.2,121.9v-20.8h3.1v20.8C103.3,121.9,100.2,121.9,100.2,121.9z"/>
	<path class="st0" d="M108.4,121.9v-20.8h3.1V119h4v2.8L108.4,121.9L108.4,121.9z"/>
	<path class="st0" d="M119.4,115.7V113h4.1v2.7H119.4z"/>
</g>
<g>
	<path class="st0" d="M4.3,153.2v-17.6H1.4v-3.1h8.8v3.1H7.3v17.6H4.3z"/>
	<path class="st0" d="M14.4,153.2v-20.8h3.1c1.8,0,3.2,0.5,4,1.5c0.9,1,1.3,2.5,1.3,4.5c0,1.2-0.2,2.2-0.6,3
		c-0.4,0.9-0.9,1.5-1.5,1.9l2.1,9.9h-3.1l-1.7-8.8h-0.5v8.8L14.4,153.2L14.4,153.2z M17.5,141.6c0.6,0,1-0.1,1.3-0.4
		c0.3-0.2,0.6-0.6,0.7-1.1s0.2-1,0.2-1.6c0-1-0.2-1.7-0.5-2.3c-0.3-0.5-0.9-0.8-1.8-0.8L17.5,141.6L17.5,141.6z"/>
	<path class="st0" d="M27.3,153.2v-20.8h7v3.1h-3.9v5.6h2.8v3.1h-2.8v5.8h3.9v3.1L27.3,153.2L27.3,153.2z"/>
	<path class="st0" d="M39.4,153.2v-20.8h7.3v3.1h-4.2v5.5h2.8v3.1h-2.8v9L39.4,153.2L39.4,153.2z"/>
	<path class="st0" d="M50.7,153.2v-20.8H58v3.1h-4.2v5.5h2.8v3.1h-2.8v9L50.7,153.2L50.7,153.2z"/>
	<path class="st0" d="M62.1,153.2v-20.8h3.1c1.2,0,2.1,0.3,2.9,0.8s1.4,1.2,1.7,2.2s0.6,2,0.6,3.3s-0.2,2.3-0.6,3.3
		c-0.4,0.9-1,1.6-1.8,2.1s-1.7,0.8-2.8,0.8v8.3L62.1,153.2L62.1,153.2z M65.1,141.7c0.5,0,1-0.1,1.3-0.3s0.5-0.5,0.7-1
		c0.1-0.5,0.2-1.1,0.2-1.8s-0.1-1.3-0.2-1.8s-0.4-0.8-0.7-1c-0.3-0.2-0.7-0.3-1.3-0.3V141.7z"/>
	<path class="st0" d="M78.9,153.4c-0.9,0-1.6-0.2-2.2-0.6c-0.6-0.4-1.1-0.9-1.4-1.6c-0.3-0.7-0.5-1.4-0.5-2.3v-16.5h3.1v16.5
		c0,0.4,0.1,0.8,0.2,1.1c0.2,0.3,0.4,0.5,0.8,0.5s0.6-0.2,0.8-0.5c0.2-0.3,0.2-0.7,0.2-1.1v-16.5H83v16.5c0,0.8-0.2,1.6-0.5,2.3
		s-0.8,1.2-1.4,1.6S79.7,153.4,78.9,153.4z"/>
	<path class="st0" d="M88,153.2v-20.8h2.9l2.8,10.8l0.3,1h0.2v-11.8H97v20.8h-2.6l-3.1-10.8l-0.3-1h-0.2v11.8H88z"/>
	<path class="st0" d="M102,153.2v-20.8h3.1v6.9v0.3h0.1l0.1-0.3l2.4-6.9h3.1l-2.8,6.8l3.2,13.9h-3.1l-2-9.5H106l-0.9,2.1v7.3H102
		V153.2z"/>
	<path class="st0" d="M117.5,153.2v-17.6h-2.9v-3.1h8.8v3.1h-2.9v17.6H117.5z"/>
	<path class="st0" d="M127.6,153.2v-20.8h7v3.1h-3.9v5.6h2.8v3.1h-2.8v5.8h3.9v3.1L127.6,153.2L127.6,153.2z"/>
</g>
</svg>
