<?xml version="1.0" encoding="utf-8"?>
<!-- Generator: Adobe Illustrator 27.5.0, SVG Export Plug-In . SVG Version: 6.00 Build 0)  -->
<svg version="1.1" id="Ebene_1" xmlns="http://www.w3.org/2000/svg" xmlns:xlink="http://www.w3.org/1999/xlink" x="0px" y="0px"
	 width="40px" height="52.2px" viewBox="0 0 40 52.2" style="enable-background:new 0 0 40 52.2;" xml:space="preserve">
<style type="text/css">
	.st0{fill:#28347D;}
</style>
<g id="Berichtswesen_00000060718699628962097960000007941342703558964155_">
	<path class="st0" d="M0,0v52.2h40V0H0z M10.6,5.2h2.7c0.2,0,0.4,0.2,0.4,0.4v4.7c0,0,0,0,0,0c0,0,0,0.1,0,0.1
		c0,1.7-1.4,3.1-3.1,3.1v-2.2c-1.7,0-3.1-1.4-3.1-3.1S8.9,5.2,10.6,5.2z M32.1,44.3L32.1,44.3H7.9c-0.7,0-1.3-0.6-1.3-1.3
		s0.6-1.3,1.3-1.3h24.2c0.7,0,1.3,0.6,1.3,1.3S32.8,44.3,32.1,44.3z M32.1,36.6L32.1,36.6H7.9c-0.7,0-1.3-0.6-1.3-1.3
		c0-0.7,0.6-1.3,1.3-1.3h24.2c0.7,0,1.3,0.6,1.3,1.3C33.3,36.1,32.8,36.6,32.1,36.6z M32.4,29.4L32.4,29.4H8.2
		c-0.7,0-1.3-0.6-1.3-1.3c0-0.7,0.6-1.3,1.3-1.3h24.2c0.7,0,1.3,0.6,1.3,1.3C33.6,28.9,33.1,29.4,32.4,29.4z M32.4,22L32.4,22H8.2
		c-0.7,0-1.3-0.6-1.3-1.3c0-0.7,0.6-1.3,1.3-1.3h24.2c0.7,0,1.3,0.6,1.3,1.3C33.6,21.5,33.1,22,32.4,22z"/>
</g>
</svg>
