<?xml version="1.0" encoding="utf-8"?>
<!-- Generator: Adobe Illustrator 27.5.0, SVG Export Plug-In . SVG Version: 6.00 Build 0)  -->
<svg version="1.1" id="Ebene_1" xmlns="http://www.w3.org/2000/svg" xmlns:xlink="http://www.w3.org/1999/xlink" x="0px" y="0px"
	 width="40px" height="41px" viewBox="0 0 40 41" style="enable-background:new 0 0 40 41;" xml:space="preserve">
<style type="text/css">
	.st0{fill:#28347D;}
</style>
<g>
	<path class="st0" d="M36.9,24.2v10.7c0,1.6-1.2,2.9-2.6,2.9H5.7c-1.4,0-2.6-1.3-2.6-2.9V24.2H0v10.7C0,38.3,2.6,41,5.7,41h28.5
		c3.2,0,5.7-2.7,5.7-6.1V24.2H36.9z"/>
	<path class="st0" d="M20,31.4c1,0,2-0.4,2.7-1.1L31,24l-1.9-2.5l-7.6,5.8V0h-3.1v27.3l-7.6-5.8L8.9,24l8.3,6.3
		C18,31,19,31.4,20,31.4z"/>
</g>
</svg>
