<?xml version="1.0" encoding="utf-8"?>
<!-- Generator: Adobe Illustrator 27.5.0, SVG Export Plug-In . SVG Version: 6.00 Build 0)  -->
<svg version="1.1" id="Ebene_1" xmlns="http://www.w3.org/2000/svg" xmlns:xlink="http://www.w3.org/1999/xlink" x="0px" y="0px"
	 width="220px" height="563.2px" viewBox="0 0 220 563.2" style="enable-background:new 0 0 220 563.2;" xml:space="preserve">
<style type="text/css">
	.st0{fill:#FFFFFF;}
	.st1{fill:#C8CBDF;}
</style>
<g>
	<g>
		<path class="st0" d="M114.1,224.8c-0.3,0-0.7-0.1-0.9-0.2l-21.3-9.8v16.6c0,0.8,0.6,1.5,1.3,1.6c6.9,1.5,14,2.2,21,2.2l0,0
			c7,0,14-0.7,21-2.2c0.8-0.2,1.3-0.8,1.3-1.6v-16.6l-21.3,9.8C114.7,224.7,114.4,224.8,114.1,224.8z"/>
		<path class="st0" d="M83.9,232.8C83.9,232.8,83.9,232.7,83.9,232.8c0-0.1,0-0.2-0.1-0.2v0l-3-9.8c1-1,1.6-2.3,1.6-3.8
			c0-2.4-1.6-4.5-3.8-5.2l-0.1-5.4l6.4,0.6l28.2,12.9L150,205l-36.9-16.9l-36.8,16.8c0,0,0,0-0.1,0c0,0,0,0-0.1,0c0,0,0,0-0.1,0
			c0,0,0,0-0.1,0c0,0,0,0-0.1,0c0,0,0,0-0.1,0c0,0,0,0-0.1,0c0,0,0,0-0.1,0c0,0,0,0-0.1,0.1c0,0,0,0-0.1,0.1c0,0,0,0-0.1,0.1
			c0,0,0,0,0,0.1s0,0,0,0.1c0,0,0,0,0,0.1c0,0,0,0,0,0.1c0,0,0,0,0,0.1c0,0,0,0,0,0.1c0,0,0,0,0,0.1c0,0,0,0,0,0.1c0,0,0,0,0,0.1
			c0,0,0,0.1,0,0.1s0,0,0,0.1c0,0,0,0.1,0,0.1v0.1v0.1v0v7.3c-2.2,0.7-3.8,2.7-3.8,5.2c0,1.5,0.6,2.8,1.6,3.8l-3,9.8v0
			c0,0,0,0.1,0,0.1c0,0,0,0.1,0,0.1c0,0,0,0,0,0.1c0,0,0,0.1,0,0.1v0v0v0.1v0c0,0,0,0.1,0,0.1c0,0,0,0.1,0,0.1c0,0,0,0,0,0.1
			c0,0,0,0.1,0,0.1c0,0,0,0,0,0c0,0,0,0.1,0.1,0.1c0,0,0,0,0,0c0,0,0,0.1,0.1,0.1c0,0,0,0,0,0c0,0,0,0,0,0.1s0,0,0,0.1c0,0,0,0,0,0
			c0,0,0,0,0.1,0.1c0,0,0,0,0,0l0.1,0.1c0,0,0.1,0.1,0.1,0.1c0,0,0,0,0.1,0c0,0,0.1,0,0.1,0c0,0,0.1,0,0.1,0.1c0,0,0,0,0.1,0
			c0,0,0.1,0,0.1,0c0,0,0.1,0,0.1,0c0,0,0,0,0,0c0,0,0.1,0,0.1,0h0c0,0,0.1,0,0.1,0h0h10.6h0c0,0,0.1,0,0.1,0h0c0,0,0.1,0,0.1,0
			c0,0,0,0,0,0c0,0,0.1,0,0.1,0c0,0,0.1,0,0.1,0c0,0,0,0,0.1,0c0,0,0.1,0,0.1-0.1c0,0,0.1,0,0.1,0c0,0,0,0,0.1,0c0,0,0.1,0,0.1-0.1
			l0,0c0,0,0.1-0.1,0.1-0.1c0,0,0,0,0,0c0,0,0,0,0.1-0.1c0,0,0,0,0,0c0,0,0,0,0-0.1c0,0,0,0,0-0.1s0,0,0,0c0,0,0-0.1,0.1-0.1
			c0,0,0,0,0,0c0,0,0-0.1,0.1-0.1c0,0,0,0,0,0c0,0,0-0.1,0-0.1c0,0,0,0,0-0.1c0,0,0-0.1,0-0.1c0,0,0-0.1,0-0.1v0v-0.1v0v0
			C83.9,233,83.9,232.9,83.9,232.8C83.9,232.8,83.9,232.8,83.9,232.8z M114.7,204.8c0.1,0.9-0.6,1.7-1.5,1.7l-28.3,2.3l-5.1-2.8
			l33.2-2.7C113.9,203.3,114.7,203.9,114.7,204.8z"/>
	</g>
	<g>
		<path class="st0" d="M28.6,284.2l3.3-22h4l3.3,22h-3.1l-0.6-4.5h-3.1l-0.6,4.5H28.6z M32.8,276.3h2.2l-0.9-7.4l-0.1-1.2h-0.2
			l-0.1,1.2L32.8,276.3z"/>
		<path class="st0" d="M51.3,284.5c-0.9,0-1.7-0.2-2.3-0.6s-1.1-1-1.5-1.7c-0.3-0.7-0.5-1.5-0.5-2.4v-17.5h3.2v17.5
			c0,0.4,0.1,0.8,0.3,1.1s0.4,0.5,0.8,0.5c0.4,0,0.7-0.2,0.8-0.5s0.2-0.7,0.2-1.1v-17.5h3.2v17.5c0,0.9-0.2,1.7-0.5,2.4
			c-0.3,0.7-0.8,1.3-1.5,1.7S52.2,284.5,51.3,284.5z"/>
		<path class="st0" d="M67.9,284.5c-0.9,0-1.6-0.1-2.2-0.4s-1.1-0.7-1.4-1.3c-0.3-0.6-0.6-1.2-0.7-2s-0.2-1.7-0.2-2.7l3.2-0.3
			c0,0.5,0,0.9,0.1,1.4c0,0.4,0.1,0.8,0.2,1.2c0.1,0.4,0.2,0.6,0.4,0.8c0.2,0.2,0.4,0.3,0.7,0.3c0.5,0,0.8-0.2,1-0.7
			c0.2-0.4,0.3-1,0.3-1.6s-0.2-1.3-0.5-2c-0.3-0.7-0.7-1.3-1.2-1.9c-0.8-1-1.5-2-2-2.9c-0.6-0.9-1-1.8-1.4-2.6
			c-0.3-0.9-0.5-1.8-0.5-2.7c0-0.7,0.1-1.4,0.3-2s0.5-1.2,0.8-1.6c0.4-0.5,0.8-0.8,1.3-1.1c0.5-0.3,1.1-0.4,1.8-0.4
			c0.8,0,1.5,0.1,2.1,0.4c0.6,0.3,1,0.7,1.4,1.2s0.6,1.1,0.8,1.9s0.2,1.5,0.2,2.4l-3.2,0.3c0-0.4,0-0.7-0.1-1.1c0-0.4-0.1-0.7-0.2-1
			c-0.1-0.3-0.2-0.6-0.4-0.8c-0.2-0.2-0.4-0.3-0.7-0.3c-0.4,0-0.7,0.2-0.9,0.5c-0.2,0.4-0.2,0.9-0.2,1.5c0,0.8,0.2,1.7,0.7,2.4
			c0.5,0.8,1.1,1.7,1.8,2.7c0.9,1.2,1.7,2.4,2.2,3.4c0.6,1,0.9,2.2,0.9,3.4c0,0.8-0.1,1.5-0.3,2.2c-0.2,0.7-0.4,1.3-0.8,1.8
			c-0.4,0.5-0.8,0.9-1.4,1.2C69.4,284.3,68.7,284.5,67.9,284.5z"/>
		<path class="st0" d="M80.2,284.2v-22h3.3c1.1,0,2.1,0.2,2.9,0.6c0.8,0.4,1.4,1,1.9,1.9c0.4,0.8,0.7,1.9,0.7,3.3
			c0,1.1-0.1,2-0.4,2.8s-0.8,1.4-1.6,1.9c0.8,0.4,1.4,1.1,1.7,2.1c0.4,1,0.5,2.1,0.5,3.3c0,1.2-0.2,2.3-0.6,3.3
			c-0.4,0.9-1,1.7-1.7,2.2c-0.8,0.5-1.7,0.8-2.8,0.8H80.2z M83.4,271.3c0.9,0,1.5-0.2,1.9-0.8c0.3-0.5,0.5-1.2,0.5-2.2
			c0-1-0.2-1.7-0.5-2.2c-0.4-0.5-1-0.7-1.9-0.7V271.3z M83.4,281c1,0,1.6-0.3,1.9-0.9s0.5-1.4,0.5-2.5c0-1.1-0.2-2-0.5-2.5
			c-0.3-0.6-1-0.9-1.9-0.9V281z"/>
		<path class="st0" d="M97.1,284.2v-22h3.2v22H97.1z"/>
		<path class="st0" d="M108.7,284.2v-22h3.2v19h4.3v3H108.7z"/>
		<path class="st0" d="M123.6,284.2v-22h3.3c1,0,1.9,0.2,2.6,0.5c0.7,0.3,1.3,0.9,1.7,1.7s0.8,1.9,1,3.4s0.3,3.2,0.3,5.4
			c0,2.2-0.1,4-0.3,5.4c-0.2,1.4-0.5,2.5-1,3.4c-0.4,0.8-1,1.4-1.7,1.7c-0.7,0.3-1.6,0.5-2.6,0.5H123.6z M126.8,281
			c0.8,0,1.4-0.3,1.7-0.9c0.3-0.6,0.5-1.5,0.6-2.7s0.1-2.6,0.1-4.2c0-1.6,0-3-0.1-4.2s-0.3-2-0.6-2.7s-0.9-0.9-1.7-0.9V281z"/>
		<path class="st0" d="M145.1,284.5c-0.9,0-1.7-0.2-2.3-0.6s-1.1-1-1.5-1.7c-0.3-0.7-0.5-1.5-0.5-2.4v-17.5h3.2v17.5
			c0,0.4,0.1,0.8,0.3,1.1s0.4,0.5,0.8,0.5c0.4,0,0.7-0.2,0.8-0.5s0.2-0.7,0.2-1.1v-17.5h3.2v17.5c0,0.9-0.2,1.7-0.5,2.4
			c-0.3,0.7-0.8,1.3-1.5,1.7S146,284.5,145.1,284.5z"/>
		<path class="st0" d="M157.8,284.2v-22h3l3,11.5l0.3,1h0.2v-12.5h3v22h-2.7l-3.3-11.5l-0.3-1h-0.2v12.5H157.8z"/>
		<path class="st0" d="M179.3,284.5c-0.9,0-1.6-0.2-2.2-0.6s-1-1-1.2-1.7c-0.3-0.7-0.4-1.5-0.4-2.4v-13c0-0.9,0.2-1.7,0.5-2.4
			c0.3-0.7,0.8-1.3,1.5-1.7c0.6-0.4,1.4-0.6,2.3-0.6c0.7,0,1.3,0.1,1.8,0.4c0.5,0.2,1,0.6,1.4,1c0.4,0.4,0.7,0.9,0.9,1.5
			s0.3,1.2,0.3,1.9v3.4h-3.2v-3.4c0-0.4-0.1-0.8-0.2-1.1c-0.2-0.3-0.4-0.5-0.8-0.5c-0.4,0-0.7,0.2-0.8,0.5s-0.2,0.7-0.2,1.1V280
			c0,0.4,0.1,0.8,0.3,1.1c0.2,0.3,0.4,0.5,0.8,0.5c0.4,0,0.7-0.2,0.8-0.5c0.2-0.3,0.2-0.7,0.2-1.1v-3.7h-1.3v-3h4.5v11h-1.9
			l-0.4-1.2c-0.3,0.5-0.6,0.8-1.1,1.1S179.8,284.5,179.3,284.5z"/>
		<path class="st0" d="M29.3,320.2v-22h3.3c1.1,0,2.1,0.2,2.9,0.6c0.8,0.4,1.4,1,1.9,1.9c0.4,0.8,0.7,1.9,0.7,3.3
			c0,1.1-0.1,2-0.4,2.8s-0.8,1.4-1.6,1.9c0.8,0.4,1.4,1.1,1.7,2.1c0.4,1,0.5,2.1,0.5,3.3c0,1.2-0.2,2.3-0.6,3.3
			c-0.4,0.9-1,1.7-1.7,2.2c-0.8,0.5-1.7,0.8-2.8,0.8H29.3z M32.6,307.3c0.9,0,1.5-0.2,1.9-0.8c0.3-0.5,0.5-1.2,0.5-2.2
			c0-1-0.2-1.7-0.5-2.2c-0.4-0.5-1-0.7-1.9-0.7V307.3z M32.6,317c1,0,1.6-0.3,1.9-0.9s0.5-1.4,0.5-2.5c0-1.1-0.2-2-0.5-2.5
			c-0.3-0.6-1-0.9-1.9-0.9V317z"/>
		<path class="st0" d="M46.2,320.2v-22h7.4v3.3h-4.2v5.9h3v3.2h-3v6.2h4.2v3.3H46.2z"/>
		<path class="st0" d="M62.1,320.2v-22h3.2v22H62.1z"/>
		<path class="st0" d="M84.3,320.2v-22h3.3c1,0,1.9,0.2,2.6,0.5c0.7,0.3,1.3,0.9,1.7,1.7s0.8,1.9,1,3.4s0.3,3.2,0.3,5.4
			c0,2.2-0.1,4-0.3,5.4c-0.2,1.4-0.5,2.5-1,3.4c-0.4,0.8-1,1.4-1.7,1.7c-0.7,0.3-1.6,0.5-2.6,0.5H84.3z M87.6,317
			c0.8,0,1.4-0.3,1.7-0.9c0.3-0.6,0.5-1.5,0.6-2.7s0.1-2.6,0.1-4.2c0-1.6,0-3-0.1-4.2s-0.3-2-0.6-2.7s-0.9-0.9-1.7-0.9V317z"/>
		<path class="st0" d="M101.5,320.2v-22h7.4v3.3h-4.2v5.9h3v3.2h-3v6.2h4.2v3.3H101.5z"/>
		<path class="st0" d="M117.3,320.2v-22h3.2c1.9,0,3.4,0.5,4.3,1.6s1.4,2.7,1.4,4.7c0,1.2-0.2,2.3-0.7,3.2c-0.4,0.9-1,1.6-1.6,2
			l2.2,10.5h-3.2l-1.8-9.3h-0.6v9.3H117.3z M120.5,307.9c0.6,0,1.1-0.1,1.4-0.4c0.3-0.3,0.6-0.6,0.8-1.1c0.1-0.5,0.2-1.1,0.2-1.7
			c0-1-0.2-1.9-0.5-2.4c-0.3-0.6-1-0.8-1.9-0.8V307.9z"/>
		<path class="st0" d="M148.3,320.5c-0.9,0-1.6-0.2-2.2-0.6s-1-1-1.2-1.7c-0.3-0.7-0.4-1.5-0.4-2.4v-13c0-0.9,0.2-1.7,0.5-2.4
			c0.3-0.7,0.8-1.3,1.5-1.7c0.6-0.4,1.4-0.6,2.3-0.6c0.7,0,1.3,0.1,1.8,0.4c0.5,0.2,1,0.6,1.4,1c0.4,0.4,0.7,0.9,0.9,1.5
			s0.3,1.2,0.3,1.9v3.4h-3.2v-3.4c0-0.4-0.1-0.8-0.2-1.1c-0.2-0.3-0.4-0.5-0.8-0.5c-0.4,0-0.7,0.2-0.8,0.5s-0.2,0.7-0.2,1.1V316
			c0,0.4,0.1,0.8,0.3,1.1c0.2,0.3,0.4,0.5,0.8,0.5c0.4,0,0.7-0.2,0.8-0.5c0.2-0.3,0.2-0.7,0.2-1.1v-3.7h-1.3v-3h4.5v11h-1.9
			l-0.4-1.2c-0.3,0.5-0.6,0.8-1.1,1.1S148.8,320.5,148.3,320.5z"/>
		<path class="st0" d="M163.7,320.2l-3-22h3l1.3,11.5l0.1,0.7h0.2l0.1-0.7l1.4-11.5h2.3l1.4,11.5l0.1,0.7h0.2l0.1-0.7l1.3-11.5h3
			l-3,22h-2.5l-1.5-10.4l-0.2-1.3h-0.1l-0.2,1.3l-1.5,10.4H163.7z"/>
		<path class="st0" d="M186.5,320.5c-0.9,0-1.6-0.2-2.2-0.6s-1-1-1.2-1.7c-0.3-0.7-0.4-1.5-0.4-2.4v-13c0-0.9,0.2-1.7,0.5-2.4
			c0.3-0.7,0.8-1.3,1.5-1.7c0.6-0.4,1.4-0.6,2.3-0.6c0.7,0,1.3,0.1,1.8,0.4c0.5,0.2,1,0.6,1.4,1c0.4,0.4,0.7,0.9,0.9,1.5
			s0.3,1.2,0.3,1.9v3.4h-3.2v-3.4c0-0.4-0.1-0.8-0.2-1.1c-0.2-0.3-0.4-0.5-0.8-0.5c-0.4,0-0.7,0.2-0.8,0.5s-0.2,0.7-0.2,1.1V316
			c0,0.4,0.1,0.8,0.3,1.1c0.2,0.3,0.4,0.5,0.8,0.5c0.4,0,0.7-0.2,0.8-0.5c0.2-0.3,0.2-0.7,0.2-1.1v-3.7h-1.3v-3h4.5v11h-1.9L189,319
			c-0.3,0.5-0.6,0.8-1.1,1.1S187.1,320.5,186.5,320.5z"/>
	</g>
	<g>
		<path class="st0" d="M114.2,375.1l-4.4-2.8l9.3-14.7l-9.3-14.7l4.4-2.8l10.2,16.1c0.5,0.8,0.5,1.9,0,2.8L114.2,375.1z"/>
	</g>
</g>
<g>
	<g>
		<path class="st1" d="M149.9,563.2H64.7v-89.7h85.2V563.2z M70.7,557.2h73.1v-77.7H70.7V557.2z M145.4,413.9H69.2v-97.3
			c0-23.1,3.6-45.1,10.7-65.3c7.1-20,15.4-39.1,24.9-56.8c9.3-17.3,17.6-33.9,24.6-49.4c6.8-15,10.3-29.2,10.3-42.3
			c0-7.2-2-13.2-6-18.5c-3.8-5-9.2-7.5-16.3-7.5c-11.4,0-20.5,4.8-27.7,14.6c-7.5,10.2-13.5,22.6-17.6,36.8l-1,3.4L0,98.1l0.7-2.5
			C5.8,78,14.4,61.8,26.2,47.5C37.9,33.2,51.8,21.6,67.6,13c15.8-8.6,32.5-13,49.5-13c22.1,0,41,4.7,56.2,14
			c15.2,9.3,27,22.3,34.9,38.6c7.8,16.2,11.8,35,11.8,56c0,18.5-3.9,36.1-11.6,52.6c-7.5,16.1-16.3,32.3-26.2,48.4
			c-9.7,15.8-18.4,32.6-25.8,50.1c-7.3,17.3-11.1,36.5-11.1,57.1V413.9z M75.2,407.9h64.1v-91.2c0-21.4,3.9-41.4,11.6-59.4
			c7.6-17.8,16.4-34.9,26.2-50.9c9.7-15.8,18.4-31.9,25.8-47.8c7.3-15.6,11-32.4,11-50c0-20.1-3.8-38-11.2-53.3
			c-7.4-15.2-18.4-27.4-32.6-36.1C155.9,10.4,138,6,117.1,6c-16,0-31.7,4.1-46.6,12.3c-15.1,8.2-28.4,19.3-39.6,33
			C20.1,64.3,12.2,79,7.2,94.9l60.1,28.3c4.3-13.5,10.2-25.3,17.5-35.3c8.3-11.3,19.3-17.1,32.6-17.1c9,0,16.1,3.3,21.1,9.9
			c4.8,6.3,7.2,13.8,7.2,22.2c0,13.9-3.6,29-10.8,44.8c-7.1,15.6-15.4,32.3-24.8,49.7c-9.3,17.4-17.6,36.2-24.5,55.9
			c-6.9,19.6-10.4,40.8-10.4,63.3V407.9z"/>
	</g>
</g>
</svg>
