<?xml version="1.0" encoding="utf-8"?>
<!-- Generator: Adobe Illustrator 27.5.0, SVG Export Plug-In . SVG Version: 6.00 Build 0)  -->
<svg version="1.1" id="Ebene_1" xmlns="http://www.w3.org/2000/svg" xmlns:xlink="http://www.w3.org/1999/xlink" x="0px" y="0px"
	 width="830px" height="1117.5px" viewBox="0 0 830 1117.5" style="enable-background:new 0 0 830 1117.5;" xml:space="preserve">
<style type="text/css">
	.st0{fill:#29316E;}
</style>
<g>
	<g id="Gruppe_3192" transform="translate(0 -0.002)">
		<g id="Pfad_2993">
			<path class="st0" d="M829.6,685l-2.9-0.4c0.2-1.4,0.3-2.9,0.4-4.4v-9.8h3v9.8C830,681.8,829.8,683.4,829.6,685z"/>
		</g>
		<g id="Pfad_2994">
			<path class="st0" d="M385.1,828.9c-9.9-0.7-20-1.8-29.8-3.2l0.4-2.9c9.8,1.4,19.7,2.5,29.6,3.2L385.1,828.9z M325.8,820.4
				c-9.7-2.1-19.5-4.6-29-7.5l0.8-2.9c9.5,2.8,19.2,5.3,28.8,7.4L325.8,820.4z M268.4,803.3c-9.3-3.5-18.6-7.4-27.6-11.6l1.3-2.7
				c9,4.2,18.2,8,27.4,11.5L268.4,803.3z M214,778.2c-8.7-4.8-17.3-10-25.7-15.5l1.6-2.5c8.3,5.4,16.8,10.6,25.5,15.4L214,778.2z
				 M163.9,745.4c-7.9-6-15.7-12.4-23.2-19l2-2.2c7.4,6.5,15.2,12.9,23,18.9L163.9,745.4z M118.9,705.8c-7-7.1-13.8-14.6-20.2-22.1
				l2.3-1.9c6.4,7.5,13.2,14.9,20.1,22L118.9,705.8z M80.1,660.1c-5.9-8-11.6-16.4-16.9-24.8l2.5-1.6c5.3,8.4,10.9,16.7,16.7,24.6
				L80.1,660.1z M830,641.4h-3v-29.9h3V641.4z M48.2,609.4c-4.7-8.8-9.1-17.9-13.1-27l2.7-1.2c4,9,8.4,18.1,13,26.8L48.2,609.4z
				 M830,581.6h-3v-29.9h3V581.6z M24,554.5c-3.3-9.4-6.4-19-9-28.6l2.9-0.8c2.6,9.5,5.7,19.1,9,28.4L24,554.5z M830,521.8h-3V492h3
				V521.8z M8,496.7C6.1,487,4.5,477,3.2,467.2l3-0.4c1.2,9.8,2.8,19.7,4.8,29.4L8,496.7z M830,462.1h-3v-29.9h3V462.1z M0.6,437.3
				C0.2,429.9,0,422.4,0,415c0-2.6,0-5.1,0.1-7.7l3,0.1c0,2.5-0.1,5.1-0.1,7.6c0,7.4,0.2,14.8,0.6,22.1L0.6,437.3z M830,402.3h-3
				v-29.9h3V402.3z M4.6,377.7l-3-0.3c0.9-9.9,2.2-19.9,3.8-29.7l2.9,0.5C6.8,357.9,5.5,367.8,4.6,377.7z M830,342.5h-3v-29.9h3
				V342.5z M14.2,318.9l-2.9-0.7c2.3-9.7,5-19.4,8-28.9l2.8,0.9C19.2,299.7,16.5,309.3,14.2,318.9z M830,282.7h-3v-29.9h3V282.7z
				 M32.2,262.2l-2.8-1.1c3.7-9.2,7.8-18.4,12.1-27.4l2.7,1.3C39.9,243.9,35.9,253.1,32.2,262.2z M830,223h-3v-29.9h3V223z
				 M58.2,208.8l-2.6-1.5c5-8.6,10.3-17.1,15.9-25.4l2.5,1.7C68.5,191.8,63.1,200.2,58.2,208.8z M830,163.2h-3v-29.9h3V163.2z
				 M91.6,159.6l-2.3-1.8c6.2-7.8,12.7-15.5,19.4-22.8l2.2,2C104.2,144.2,97.8,151.9,91.6,159.6z M131.8,115.7l-2-2.2
				c7.2-6.8,14.8-13.5,22.5-19.8l1.9,2.3C146.5,102.3,139,108.9,131.8,115.7z M830,103.4h-3V73.5h3V103.4z M177.8,78l-1.7-2.4
				c8.1-5.7,16.6-11.3,25.1-16.4l1.5,2.5C194.3,66.8,185.9,72.3,177.8,78z M228.8,47.3l-1.3-2.7c8.9-4.5,18.1-8.7,27.2-12.6l1.1,2.7
				C246.8,38.6,237.7,42.8,228.8,47.3z M826.3,43.9c-1.7-9.6-6.1-18.4-12.9-25.5l2.2-2c7.2,7.5,11.9,16.9,13.6,27.1L826.3,43.9z
				 M283.8,24.3l-0.9-2.8c9.4-3.2,19.1-6,28.7-8.5l0.7,2.9C302.7,18.3,293.1,21.2,283.8,24.3z M341.4,9.5l-0.5-2.9
				c9.8-1.8,19.8-3.2,29.7-4.2l0.3,3C361,6.4,351.1,7.8,341.4,9.5z M788.6,4.2C785,3.4,781.2,3,777.5,3h-18.4V0h18.4
				c4,0,7.9,0.4,11.8,1.3L788.6,4.2z M400.5,3.2l-0.1-3C405.3,0.1,410.2,0,415,0h15.4v3H415C410.2,3,405.3,3.1,400.5,3.2z M729.2,3
				h-29.9V0h29.9V3z M669.5,3h-29.9V0h29.9V3z M609.7,3h-29.9V0h29.9V3z M549.9,3H520V0h29.9V3z M490.1,3h-29.9V0h29.9V3z"/>
		</g>
		<g id="Pfad_2995">
			<path class="st0" d="M416.5,842.9h-3V830c-4.3,0-8.7-0.1-13-0.2l0.1-3c4.7,0.2,9.6,0.2,14.4,0.2h1.5V842.9z"/>
		</g>
		<g id="Linie_99">
			<path class="st0" d="M416.5,1079.4h-3v-29.7h3V1079.4z M416.5,1020h-3v-29.7h3V1020z M416.5,960.7h-3V931h3V960.7z M416.5,901.3
				h-3v-29.7h3V901.3z"/>
		</g>
		<g id="Pfad_2996">
			<path class="st0" d="M415,1117.5h-1.5v-15.9h3v12.9c4.3,0,8.6-0.1,12.9-0.2l0.1,3C424.7,1117.4,419.8,1117.5,415,1117.5z"/>
		</g>
		<g id="Pfad_2997">
			<path class="st0" d="M457.3,1115.4l-0.3-3c9.4-1,19-2.2,28.3-3.9l0.5,2.9C476.3,1113.1,466.8,1114.4,457.3,1115.4z M513.9,1105.7
				l-0.7-2.9c9.2-2.3,18.5-4.9,27.5-7.7l0.9,2.8C532.5,1100.8,523.2,1103.4,513.9,1105.7z M568.6,1088.2l-1.1-2.8
				c8.8-3.5,17.6-7.4,26.2-11.5l1.3,2.7C586.4,1080.7,577.5,1084.6,568.6,1088.2z M620.5,1063.2l-1.5-2.6c8.2-4.7,16.4-9.7,24.3-15
				l1.7,2.5C637,1053.4,628.7,1058.5,620.5,1063.2z M668.3,1031.3l-1.8-2.4c7.5-5.8,14.9-11.9,22-18.2l2,2.2
				C683.3,1019.3,675.8,1025.5,668.3,1031.3z M711.3,993.2l-2.1-2.1c6.6-6.8,13.1-13.9,19.3-21.1l2.3,1.9
				C724.5,979.2,718,986.3,711.3,993.2z M748.6,949.5l-2.4-1.8c5.6-7.6,11.1-15.5,16.2-23.5l2.5,1.6
				C759.8,933.8,754.3,941.8,748.6,949.5z M779.5,901.1l-2.6-1.4c4.5-8.3,8.8-16.9,12.8-25.5l2.7,1.2
				C788.4,884.1,784.1,892.7,779.5,901.1z M803.5,848.9l-2.8-1c3.3-8.9,6.4-18,9.1-27l2.9,0.9C809.9,830.8,806.8,839.9,803.5,848.9z
				 M819.9,793.8l-2.9-0.7c2.1-9.2,3.8-18.7,5.3-28l2.9,0.4C823.8,775,822,784.5,819.9,793.8z M828.6,737l-3-0.2
				c0.6-7.9,1.1-15.9,1.3-23.8l3,0.1C829.7,721,829.2,729.1,828.6,737z"/>
		</g>
		<g id="Pfad_2998">
			<path class="st0" d="M827,699.2c-0.1-4.4-0.2-8.9-0.3-13.3l0-1.1l3-0.1l0,1.1c0.1,4.4,0.3,8.9,0.3,13.4L827,699.2z"/>
		</g>
	</g>
</g>
</svg>
