<?xml version="1.0" encoding="utf-8"?>
<!-- Generator: Adobe Illustrator 27.5.0, SVG Export Plug-In . SVG Version: 6.00 Build 0)  -->
<svg version="1.1" id="Ebene_1" xmlns="http://www.w3.org/2000/svg" xmlns:xlink="http://www.w3.org/1999/xlink" x="0px" y="0px"
	 width="1092.9px" height="477.3px" viewBox="0 0 1092.9 477.3" style="enable-background:new 0 0 1092.9 477.3;"
	 xml:space="preserve">
<style type="text/css">
	.st0{clip-path:url(#SVGID_00000045618441570752338300000010794962726340967570_);}
	.st1{fill:#29347C;}
	.st2{clip-path:url(#SVGID_00000178198436678628546710000011395474759003831180_);}
	.st3{fill-rule:evenodd;clip-rule:evenodd;fill:#29347C;}
	.st4{opacity:0.18;}
	.st5{clip-path:url(#SVGID_00000053506928380580076500000006050653127184954544_);}
	.st6{clip-path:url(#SVGID_00000014605994204468909430000000053800045334744227_);}
	.st7{clip-path:url(#SVGID_00000058591805280028803430000014673792944208714658_);}
</style>
<g id="Gruppe_3469" transform="translate(347 446)">
	<g>
		<defs>
			<rect id="SVGID_1_" x="-347" y="-446" width="1092.9" height="477.3"/>
		</defs>
		<clipPath id="SVGID_00000116925546682498076890000012923068590830888582_">
			<use xlink:href="#SVGID_1_"  style="overflow:visible;"/>
		</clipPath>
		<g id="Gruppe_3468" style="clip-path:url(#SVGID_00000116925546682498076890000012923068590830888582_);">
			<path id="Pfad_3128" class="st1" d="M-290.2-406.9h8.3v8.3h-8.3V-406.9z M-275.9-406.9h8.3v8.3h-8.3V-406.9z M-305-420.7h8.3v8.3
				h-8.3V-420.7z M-290.2-420.7h8.3v8.3h-8.3V-420.7z M-315.7-389.7h10.8v-17.1h8.6v17.1h39.8v-30.1l-59.2-18.2V-389.7z M-318.5-446
				l-1,3.1l68,21.2l1-3.1L-318.5-446z"/>
			<rect id="Rechteck_384" x="-339.6" y="-368" class="st1" width="10.1" height="33.6"/>
			<g id="Gruppe_3467">
				<g>
					<defs>
						<rect id="SVGID_00000054963653793754245160000010322966006628159905_" x="-347" y="-446" width="1092.9" height="477.3"/>
					</defs>
					<clipPath id="SVGID_00000096749606951058506700000010284764598244831664_">
						<use xlink:href="#SVGID_00000054963653793754245160000010322966006628159905_"  style="overflow:visible;"/>
					</clipPath>
					<g id="Gruppe_3466" style="clip-path:url(#SVGID_00000096749606951058506700000010284764598244831664_);">
						<path id="Pfad_3129" class="st3" d="M-235.8-373.2c-2.6,1.2-16.1,7.6-22.7,10.5c-0.4,4-3.8,7-7.8,7h-31.4v-2.2h31.4
							c2.3,0,4.4-1.5,5.2-3.6v-0.8l0,0c0-3.1-2.5-5.6-5.6-5.6h-13.1c-7.9,0-14.3-4.5-22.8-4.5c-10.4,0-13,3.7-23.5,8v25.1
							c7.3-1.9,14.8-2.9,22.4-2.9c9.4-0.1,14,0.4,20.1,2c3,0.8,6.2,0.4,9.1-0.9c11.4-5,30.4-14.9,41.8-21.4
							C-222.9-368.2-229.8-376-235.8-373.2L-235.8-373.2z"/>
						<g id="Gruppe_3459" class="st4">
							<g id="Gruppe_3458">
								<g>
									<defs>
										<rect id="SVGID_00000155844868482739706920000003791253363829485718_" x="-347" y="-312" width="126.5" height="9.2"/>
									</defs>
									<clipPath id="SVGID_00000008840019681180710780000008278145456253105074_">
										<use xlink:href="#SVGID_00000155844868482739706920000003791253363829485718_"  style="overflow:visible;"/>
									</clipPath>
									<g id="Gruppe_3457" style="clip-path:url(#SVGID_00000008840019681180710780000008278145456253105074_);">
										<path id="Pfad_3130" class="st1" d="M-283.7-312c34.9,0,63.3,2.1,63.3,4.6c0,2.5-28.3,4.6-63.3,4.6s-63.3-2.1-63.3-4.6
											C-347-309.9-318.7-312-283.7-312"/>
									</g>
								</g>
							</g>
						</g>
						<path id="Pfad_3131" class="st1" d="M161.9-66.3c-0.4-0.4-0.9-0.6-1.4-0.6h-0.6c-3.4,0-15.1,0.4-20.2,5.2
							c-2.8,2.8-4.4,5.8-4.4,8.9c0.1,2.6,1,5.2,2.8,7.1c-1.2,2.4-2.4,5-3.4,7.5c-1.8-5-4.1-9.8-6.9-14.3l-3,2.8
							c-4.8-6.6-10.3-11.3-13.9-13.1c-1-0.4-1.4-1.6-1-2.6c0.4-1,1.6-1.4,2.6-1c4.2,2,10.3,7.3,15.3,13.9c2.2-2.8,3.4-6.3,3.2-9.9
							c-0.2-4.2-2.6-7.9-6.6-11.3c-5.2-4.2-14.5-5.2-21.6-5.2c-3.8,0-6.4,0.2-6.6,0.2c-0.6,0.1-1.1,0.3-1.4,0.8
							c-0.3,0.4-0.5,0.9-0.4,1.4c0,0.8,2.2,19.9,10.3,26.6c2.9,2.6,6.6,4.1,10.5,4.2c3.6-0.1,7-1.5,9.5-4c3.9,6,6.5,12.7,7.7,19.7
							c0,0.2,0,0.2,0.2,0.4v0.2c0,1.1,0.7,2,1.8,2.2h0.2c0.8,0.3,1.8-0.1,2.1-1c0-0.1,0.1-0.3,0.1-0.4c0.4-4.9,1.8-9.7,4.2-14.1
							l-3-3c3.4-5,6.9-8.7,9.9-10.3c1-0.6,2.2-0.2,2.8,0.8c0.6,1,0.2,2.2-0.8,2.8c0,0,0,0,0,0c-2.6,1.4-5.8,4.8-8.9,9.7
							c1.8,1.4,4.1,2.1,6.4,2.2c3,0,6-1.4,8.7-4c5.8-5.4,6.4-19.1,6.4-20.4C162.5-65.4,162.3-65.9,161.9-66.3"/>
						<path id="Pfad_3132" class="st1" d="M161.2-109.1l-1,9.5c-25.8-17.5-60.9-10.8-78.4,15C71.8-69.7,69.3-50.9,75.3-34l3.4-1.2
							c-9.8-27.5,4.6-57.6,32.1-67.4c15.9-5.6,33.5-3.4,47.4,6.2l-9.5,3.7l1.3,3.4l13.2-5.2l1.5-14.1L161.2-109.1z"/>
						<path id="Pfad_3133" class="st1" d="M181-73.5l-3.4,1.3c10.6,27.1-2.8,57.7-29.9,68.3c-16.9,6.6-36,4.1-50.6-6.7l9.2-4.3
							l-1.5-3.3l-12.9,6L91.2,2.1l3.6,0.2l0.5-9.6c25.2,18.3,60.5,12.8,78.8-12.4C185.4-35.3,188-55.5,181-73.5"/>
						<g id="Gruppe_3462" class="st4">
							<g id="Gruppe_3461">
								<g>
									<defs>
										<rect id="SVGID_00000160156111791262157580000013052054731104285598_" x="73.5" y="22.9" width="116.6" height="8.5"/>
									</defs>
									<clipPath id="SVGID_00000106862502715483661270000007714725230509362858_">
										<use xlink:href="#SVGID_00000160156111791262157580000013052054731104285598_"  style="overflow:visible;"/>
									</clipPath>
									<g id="Gruppe_3460" style="clip-path:url(#SVGID_00000106862502715483661270000007714725230509362858_);">
										<path id="Pfad_3134" class="st1" d="M131.8,22.9c32.2,0,58.3,1.9,58.3,4.2s-26.1,4.2-58.3,4.2s-58.3-1.9-58.3-4.2
											S99.6,22.9,131.8,22.9"/>
									</g>
								</g>
							</g>
						</g>
						<path id="Pfad_3135" class="st1" d="M542.3-416.4c-3.6-0.3-5.7,5-7.3,6.6c-1.5,1.7-3.7,1.1-8.4,0c-4.7-1.2-10-6.3-11.5-6.9
							c-1.5-0.6-2.2,0.4-8,3.2s-22.6-2.3-25-3.1c-2.4-0.8-5.5-2-7.3-1.2s-15.1,1.7-16.7,2.3c-1.7,0.6-6.6-0.9-6.6-0.9s-0.5,0.9-1,2
							s-0.3,2.8-0.4,7.9c-0.1,5.1,5.1,6.3,5.1,8.6c-0.1,1.8-0.3,3.6-0.6,5.4c0,0-6.6,2-10.3,3.1s1.9,9.6,2.3,12.8s0.8,2.9,2.4,6.5
							s0.9,1.7,4,4.7s4.3,1.5,6.6,1.8s9.7,5.7,13.8,8.6c4.1,2.8,20.4,7.7,25.4,8.4c5,0.8,7,0.5,9.8-2.4c2.8-2.9,3.8-10.5,5-14.3
							c1.2-3.8,3.3,1.9,4.2,2.8c0.9,0.9,2.9,4.2,7.4,4.2s2.8-4,2.4-6.1s4.7-2.9,7.8-3.8s3.7,0.5,5.5,0s5.1-5,6.8-6.8s0-9.8-2.4-11.8
							c-2.4-1.9-8.8-4.3-9.7-6c-0.9-1.7,1.2-3.8,2.2-6.1c1-2.3,8.4-3.2,9.8-3.7c1.4-0.5,4.9-1,5.7-4
							C554.1-407.4,545.9-416.1,542.3-416.4 M483.1-383.7C483.1-383.7,483.1-383.7,483.1-383.7c0,0.2,0,0.3,0,0.4
							c0,4.4-3.5,7.9-7.9,7.9l0,0v-5.5c-4.4,0-7.9-3.5-7.9-7.9s3.5-7.9,7.9-7.9h6.9c0.5,0,1,0.4,1,1L483.1-383.7z M501.2-381.2
							c-0.3,0.5-0.8,0.7-1.3,0.4c-0.2-0.1-0.3-0.2-0.4-0.4l-3.1-5.7l-3,5.6c-0.3,0.5-0.8,0.7-1.3,0.4c-0.2-0.1-0.3-0.2-0.4-0.4
							l-7.4-14c-0.3-0.5-0.1-1.1,0.4-1.3c0.1-0.1,0.3-0.1,0.5-0.1h9.6l1.6,3l1.6-3h9.9c0.5,0,1,0.4,1,1c0,0.2,0,0.3-0.1,0.5
							L501.2-381.2z M523.7-383.7C523.7-383.7,523.7-383.7,523.7-383.7c0,0.2,0,0.3,0,0.4c0,4.4-3.5,7.9-7.9,7.9l0,0v-5.5
							c-4.4,0-7.9-3.5-7.9-7.9s3.5-7.9,7.9-7.9h6.9c0.5,0,1,0.4,1,1L523.7-383.7z"/>
						<g id="Gruppe_3465" class="st4">
							<g id="Gruppe_3464">
								<g>
									<defs>
										<rect id="SVGID_00000102504191816275248990000010648880837413368706_" x="439" y="-326.5" width="118" height="8.6"/>
									</defs>
									<clipPath id="SVGID_00000093899519062065835020000014626504248869681070_">
										<use xlink:href="#SVGID_00000102504191816275248990000010648880837413368706_"  style="overflow:visible;"/>
									</clipPath>
									<g id="Gruppe_3463" style="clip-path:url(#SVGID_00000093899519062065835020000014626504248869681070_);">
										<path id="Pfad_3136" class="st1" d="M498-326.5c32.6,0,59,1.9,59,4.3s-26.4,4.3-59,4.3s-59-1.9-59-4.3
											S465.4-326.5,498-326.5"/>
									</g>
								</g>
							</g>
						</g>
						<path id="Pfad_3137" class="st1" d="M686.7-150.6l-0.1-3c6.8-0.2,13.5-0.6,19.8-1.3l0.3,3
							C700.3-151.3,693.6-150.8,686.7-150.6 M666.6-150.9c-1.8-0.1-3.7-0.2-5.6-0.3c-4.9-0.3-9.7-0.8-14.4-1.4l0.4-3
							c4.7,0.6,9.5,1.1,14.3,1.4c1.9,0.1,3.7,0.2,5.5,0.3L666.6-150.9z M726.6-155.4l-0.7-2.9c6.4-1.5,12.7-3.4,18.9-5.8l1.1,2.8
							C739.6-158.9,733.1-156.9,726.6-155.4 M626.7-156.1c-6.5-1.4-13-3.1-19.5-5l0.9-2.9c6.4,1.9,12.8,3.6,19.2,5L626.7-156.1z
							 M235.5-160.9l-1.6-2.5c6.1-4,11.6-7.5,16.9-10.8l1.6,2.5C247.1-168.4,241.6-164.9,235.5-160.9 M588.3-167.7
							c-5.9-2.3-12-4.8-18.5-7.8l1.2-2.7c6.5,2.9,12.5,5.5,18.3,7.7L588.3-167.7z M269.4-182.1l-1.5-2.6c6-3.5,11.9-6.8,17.5-9.8
							l1.4,2.6C281.2-188.9,275.4-185.6,269.4-182.1 M551.7-184c-3.6-1.8-7.1-3.5-10.7-5.3c-2.4-1.2-4.8-2.4-7.2-3.6l1.3-2.7
							c2.4,1.2,4.8,2.4,7.2,3.6c3.5,1.8,7.1,3.5,10.7,5.3L551.7-184z M304.6-200.8l-1.3-2.7c6.3-2.9,12.5-5.6,18.5-8l1.1,2.8
							C316.9-206.4,310.8-203.7,304.6-200.8 M515.8-201.6c-6.6-3-12.5-5.6-18.3-7.9l1.1-2.8c5.8,2.3,11.8,4.9,18.4,7.9L515.8-201.6z
							 M341.6-215.2l-0.9-2.9c6.6-2,13.1-3.6,19.5-4.9l0.6,2.9C354.6-218.8,348.1-217.2,341.6-215.2 M478.8-216
							c-6.4-1.9-12.9-3.6-19.2-4.9l0.6-2.9c6.5,1.3,13,3,19.5,5L478.8-216z M380.5-223.1l-0.4-3c6.8-0.9,13.5-1.5,20-1.9l0.2,3
							C393.9-224.6,387.2-224,380.5-223.1 M440-224.1c-6.4-0.7-13.1-1.1-19.8-1.3l0.1-3c6.8,0.1,13.5,0.6,20.1,1.3L440-224.1z"/>
						<path id="Pfad_3138" class="st1" d="M-56.8-33.2l0-3c6.6,0,13.3-0.3,19.9-0.7l0.2,3C-43.4-33.5-50.1-33.2-56.8-33.2
							 M-76.9-33.8c-6.7-0.4-13.5-1.1-20-2.1l0.4-3c6.5,0.9,13.1,1.6,19.8,2L-76.9-33.8z M-16.7-36l-0.4-3
							c6.5-0.9,13.1-2.1,19.6-3.4l0.6,2.9C-3.5-38.1-10.2-37-16.7-36 M-116.6-39.5c-6.6-1.5-13.1-3.2-19.4-5.2l0.9-2.9
							c6.2,2,12.7,3.7,19.2,5.1L-116.6-39.5z M-154.9-51.5c-6.2-2.5-12.3-5.4-18.2-8.5l1.4-2.7c5.8,3,11.9,5.8,18,8.3L-154.9-51.5z
							 M-190.6-70c-5.6-3.6-11.2-7.4-16.5-11.5l1.8-2.4c5.3,4,10.7,7.8,16.3,11.4L-190.6-70z M-222.6-94.4
							c-4.9-4.4-9.7-9.2-14.4-14.1l2.2-2.1c4.6,4.8,9.3,9.5,14.2,13.9L-222.6-94.4z M-250.1-123.7c-4.2-5.2-8.2-10.6-12.1-16.1
							l2.5-1.7c3.8,5.5,7.8,10.8,11.9,15.9L-250.1-123.7z M-273.1-156.7c-3.4-5.7-6.7-11.7-9.7-17.6l2.7-1.4
							c3,5.9,6.2,11.8,9.6,17.5L-273.1-156.7z M-291.2-192.6c-2.7-6.2-5-12.6-7-19l2.9-0.8c2,6.4,4.3,12.6,6.9,18.7L-291.2-192.6z"
							/>
					</g>
				</g>
			</g>
		</g>
	</g>
</g>
</svg>
