<?xml version="1.0" encoding="utf-8"?>
<!-- Generator: Adobe Illustrator 27.5.0, SVG Export Plug-In . SVG Version: 6.00 Build 0)  -->
<svg version="1.1" id="Ebene_1" xmlns="http://www.w3.org/2000/svg" xmlns:xlink="http://www.w3.org/1999/xlink" x="0px" y="0px"
	 width="1100px" height="135px" viewBox="0 0 1100 135" style="enable-background:new 0 0 1100 135;" xml:space="preserve">
<style type="text/css">
	.st0{fill:#29347C;}
	.st1{fill-rule:evenodd;clip-rule:evenodd;fill:#29347C;}
</style>
<g id="Grafik" transform="translate(-394 -877)">
	<g id="über_uns" transform="translate(394 877)">
		<path id="Pfad_3309" class="st0" d="M26,25.6c7.1,0,12.8-5.7,12.8-12.8S33,0,26,0S13.2,5.7,13.2,12.8c0,0,0,0,0,0
			C13.2,19.8,18.9,25.6,26,25.6"/>
		<path id="Pfad_3310" class="st0" d="M97,25.6c7.1,0,12.8-5.7,12.8-12.8C109.8,5.7,104.1,0,97,0S84.3,5.7,84.3,12.8c0,0,0,0,0,0
			C84.3,19.8,90,25.6,97,25.6"/>
		<path id="Pfad_3311" class="st0" d="M123,56.3C123,43.4,111.4,33,97,33c-11.2,0-20.8,6.4-24.4,15.4c-7.1-3-15.1-3-22.2,0
			C46.8,39.4,37.2,33,26,33C11.6,33,0,43.4,0,56.3v9.2h35.9c-0.3,1.3-0.4,2.6-0.4,4v9.2h51.9v-9.2c0-1.3-0.1-2.7-0.4-4H123V56.3z"/>
		<path id="Pfad_3312" class="st0" d="M61.5,38.7c7.1,0,12.8-5.7,12.8-12.8s-5.7-12.8-12.8-12.8c-7.1,0-12.8,5.7-12.8,12.8
			C48.7,33,54.4,38.7,61.5,38.7C61.5,38.7,61.5,38.7,61.5,38.7"/>
		<path id="Pfad_3313" class="st0" d="M4.9,135c-0.8,0-1.6-0.2-2.3-0.6c-0.6-0.4-1.1-1-1.5-1.7c-0.3-0.8-0.5-1.6-0.5-2.4v-17.4h3.2
			v17.4c0,0.4,0.1,0.8,0.3,1.1c0.2,0.3,0.5,0.5,0.8,0.5c0.4,0,0.7-0.2,0.8-0.5c0.2-0.4,0.2-0.7,0.2-1.1v-17.4h3.2v17.4
			c0,0.8-0.2,1.7-0.5,2.4C8,134.2,6.5,135.1,4.9,135 M1.4,108.2h2.8v2.9H1.4V108.2z M5.6,108.2h2.8v2.9H5.6L5.6,108.2z"/>
		<path id="Pfad_3314" class="st0" d="M17.5,134.8v-21.9h3.3c1,0,2,0.2,2.9,0.6c0.8,0.4,1.5,1,1.9,1.8c0.5,1,0.7,2.1,0.7,3.2
			c0,0.9-0.1,1.9-0.4,2.8c-0.3,0.8-0.9,1.5-1.6,1.9c0.8,0.5,1.4,1.2,1.7,2.1c0.4,1.1,0.5,2.2,0.5,3.3c0,1.1-0.2,2.2-0.6,3.2
			c-0.7,1.9-2.5,3.1-4.5,3L17.5,134.8z M20.7,121.9c0.7,0.1,1.4-0.2,1.9-0.7c0.4-0.7,0.6-1.4,0.5-2.2c0.1-0.8-0.1-1.5-0.5-2.2
			c-0.5-0.5-1.2-0.8-1.9-0.7V121.9z M20.7,131.6c0.8,0.1,1.5-0.2,1.9-0.9c0.6-1.6,0.6-3.4,0-5c-0.4-0.6-1.2-1-1.9-0.9V131.6z"/>
		<path id="Pfad_3315" class="st0" d="M34.3,134.8v-21.9h7.4v3.3h-4.1v5.9h3v3.2h-3v6.2h4.1v3.3L34.3,134.8z"/>
		<path id="Pfad_3316" class="st0" d="M50,134.8v-21.9h3.2c1.6-0.1,3.2,0.5,4.3,1.6c1,1.4,1.5,3,1.4,4.7c0,1.1-0.2,2.2-0.6,3.2
			c-0.3,0.8-0.9,1.5-1.6,2l2.2,10.4h-3.2l-1.8-9.2h-0.6v9.2L50,134.8z M53.2,122.6c0.5,0,1-0.1,1.4-0.4c0.4-0.3,0.6-0.7,0.7-1.1
			c0.2-0.6,0.2-1.1,0.2-1.7c0-0.8-0.1-1.7-0.5-2.4c-0.4-0.6-1.1-0.9-1.9-0.8L53.2,122.6z"/>
		<path id="Pfad_3317" class="st0" d="M81.5,135c-0.8,0-1.6-0.2-2.3-0.6c-0.6-0.4-1.2-1-1.5-1.7c-0.3-0.8-0.5-1.6-0.5-2.4v-17.4h3.2
			v17.4c0,0.4,0.1,0.8,0.3,1.1c0.3,0.5,0.8,0.6,1.3,0.4c0.2-0.1,0.3-0.2,0.4-0.4c0.2-0.4,0.2-0.7,0.2-1.1v-17.4h3.2v17.4
			c0,0.8-0.2,1.7-0.5,2.4C84.6,134.2,83.1,135.1,81.5,135"/>
		<path id="Pfad_3318" class="st0" d="M94.1,134.8v-21.9h3l3,11.4l0.3,1h0.2v-12.4h3v21.9h-2.7l-3.3-11.4l-0.3-1h-0.2v12.4H94.1z"/>
		<path id="Pfad_3319" class="st0" d="M115.7,135c-0.8,0-1.5-0.1-2.2-0.4c-0.6-0.3-1.1-0.7-1.4-1.3c-0.4-0.6-0.6-1.3-0.7-2
			c-0.2-0.9-0.2-1.8-0.2-2.7l3.2-0.3c0,0.5,0,0.9,0.1,1.4c0,0.4,0.1,0.8,0.2,1.2c0.1,0.3,0.2,0.6,0.4,0.8c0.2,0.2,0.4,0.3,0.7,0.3
			c0.4,0,0.9-0.2,1-0.7c0.2-0.5,0.3-1.1,0.3-1.6c0-0.7-0.2-1.3-0.5-2c-0.3-0.7-0.7-1.3-1.2-1.9c-0.8-1-1.5-2-2-2.9
			c-0.5-0.8-1-1.7-1.4-2.6c-0.3-0.9-0.5-1.8-0.5-2.7c0-0.7,0.1-1.4,0.3-2c0.2-0.6,0.5-1.1,0.8-1.6c0.4-0.5,0.8-0.8,1.3-1.1
			c0.6-0.3,1.2-0.4,1.8-0.4c0.7,0,1.4,0.1,2.1,0.4c0.6,0.3,1,0.7,1.4,1.2c0.4,0.6,0.6,1.2,0.8,1.8c0.2,0.8,0.3,1.6,0.2,2.4l-3.2,0.3
			c0-0.4,0-0.7-0.1-1.1c0-0.3-0.1-0.7-0.2-1c-0.1-0.3-0.2-0.5-0.4-0.7c-0.2-0.2-0.4-0.3-0.7-0.3c-0.4,0-0.7,0.2-0.9,0.5
			c-0.2,0.5-0.3,1-0.2,1.5c0,0.9,0.2,1.7,0.7,2.4c0.6,0.9,1.2,1.8,1.8,2.7c0.8,1.1,1.5,2.2,2.2,3.4c0.6,1,0.9,2.2,0.9,3.4
			c0,0.7-0.1,1.5-0.3,2.2c-0.2,0.6-0.4,1.2-0.8,1.8c-0.4,0.5-0.8,0.9-1.4,1.2C117.1,134.9,116.4,135.1,115.7,135"/>
	</g>
	<g id="quartiere" transform="translate(869.07 885.794)">
		<path id="Pfad_3320" class="st0" d="M116.5,1.8c-4-0.3-6.4,5.5-8.1,7.4c-1.7,1.9-4.1,1.3-9.4,0c-5.3-1.3-11.1-7-12.8-7.7
			s-2.4,0.4-9,3.6S52,2.6,49.3,1.6c-2.7-0.9-6.1-2.2-8.1-1.4c-2,0.9-16.8,1.8-18.6,2.6s-7.4-1-7.4-1s-0.6,1-1.1,2.3
			c-0.6,1.3-0.3,3.1-0.4,8.8s5.7,7,5.7,9.5c-0.1,2-0.3,4.1-0.7,6.1c0,0-7.4,2.2-11.5,3.5c-4.1,1.3,2.1,10.7,2.6,14.2
			c0.4,3.6,0.9,3.3,2.7,7.3s1,1.8,4.4,5.3c3.4,3.4,4.8,1.7,7.4,2s10.8,6.4,15.4,9.5c4.6,3.1,22.8,8.5,28.3,9.4
			c5.5,0.9,7.8,0.6,11-2.7c3.1-3.3,4.3-11.7,5.5-15.9s3.7,2.1,4.7,3.1c1,1,3.3,4.7,8.3,4.7c5,0,3.1-4.4,2.7-6.8
			c-0.4-2.4,5.3-3.3,8.7-4.3c3.4-1,4.1,0.6,6.1,0c2-0.6,5.7-5.5,7.5-7.5c1.8-2,0-11-2.7-13.1c-2.7-2.1-9.8-4.8-10.8-6.7
			s1.3-4.3,2.4-6.8s9.4-3.6,11-4.1s5.4-1.1,6.4-4.4S120.5,2.1,116.5,1.8 M50.5,38.2C50.5,38.2,50.5,38.3,50.5,38.2
			c0,0.2,0,0.4,0,0.5c0,4.9-3.9,8.8-8.8,8.8v-6.1c-4.9,0-8.8-3.9-8.8-8.8c0-4.9,3.9-8.8,8.8-8.8h7.7c0.6,0,1.1,0.5,1.1,1.1
			L50.5,38.2z M70.7,41c-0.3,0.5-0.9,0.7-1.5,0.4c-0.2-0.1-0.3-0.3-0.4-0.4l-3.4-6.3l-3.3,6.3c-0.3,0.5-0.9,0.7-1.5,0.5
			c-0.2-0.1-0.3-0.3-0.5-0.5L52,25.3c-0.3-0.5-0.1-1.2,0.5-1.5c0.2-0.1,0.3-0.1,0.5-0.1h10.7l1.7,3.3l1.7-3.3h11.1
			c0.6,0,1.1,0.5,1.1,1.1c0,0.2,0,0.4-0.1,0.5L70.7,41z M95.8,38.2C95.8,38.2,95.8,38.3,95.8,38.2c0,0.2,0,0.4,0,0.5
			c0,4.9-3.9,8.8-8.8,8.8v-6.1c-4.9,0-8.8-3.9-8.8-8.8c0-4.9,3.9-8.8,8.8-8.8h7.7c0.6,0,1.1,0.5,1.1,1.1L95.8,38.2z"/>
		<path id="Pfad_3321" class="st0" d="M9.2,126.2c-0.8,0-1.5-0.2-2.2-0.6c-0.5-0.3-0.9-0.8-1.3-1.3c-0.2,0.1-0.4,0.2-0.7,0.3
			c-0.3,0.1-0.6,0.1-0.9,0.1c-0.8,0-1.6-0.2-2.3-0.6c-0.6-0.4-1.1-1-1.4-1.7c-0.3-0.8-0.5-1.6-0.5-2.4v-12.8c0-0.8,0.2-1.6,0.5-2.4
			c0.3-0.7,0.8-1.3,1.5-1.7c1.4-0.8,3.2-0.8,4.6,0c0.6,0.4,1.1,1,1.5,1.7c0.3,0.8,0.5,1.6,0.5,2.4v12.8c0,0.5-0.1,1.1-0.2,1.6
			c-0.1,0.4-0.3,0.8-0.5,1.1c0.1,0.2,0.3,0.4,0.5,0.5c0.3,0.1,0.5,0.2,0.8,0.2L9.2,126.2z M4.3,121.7c0.4,0,0.7-0.2,0.8-0.5
			c0.2-0.4,0.2-0.7,0.2-1.1v-12.8c0-0.4-0.1-0.8-0.2-1.1c-0.2-0.5-0.8-0.6-1.3-0.4c-0.2,0.1-0.3,0.2-0.4,0.4
			c-0.2,0.3-0.3,0.7-0.2,1.1v12.8c0,0.4,0.1,0.8,0.3,1.1C3.6,121.5,3.9,121.7,4.3,121.7"/>
		<path id="Pfad_3322" class="st0" d="M21,124.8c-0.8,0-1.6-0.2-2.3-0.6c-0.6-0.4-1.1-1-1.5-1.7c-0.3-0.8-0.5-1.6-0.5-2.4v-17.3h3.2
			v17.3c0,0.4,0.1,0.8,0.3,1.1c0.3,0.5,0.8,0.6,1.3,0.4c0.2-0.1,0.3-0.2,0.4-0.4c0.2-0.4,0.2-0.7,0.2-1.1v-17.3h3.2v17.3
			c0,0.8-0.2,1.6-0.5,2.4C24.1,124,22.6,124.9,21,124.8"/>
		<path id="Pfad_3323" class="st0" d="M32.9,124.6l3.3-21.8h3.9l3.3,21.8h-3.1l-0.6-4.4h-3.1l-0.6,4.4L32.9,124.6z M37,116.8h2.2
			l-0.9-7.3l-0.1-1.2H38l-0.1,1.2L37,116.8z"/>
		<path id="Pfad_3324" class="st0" d="M51,124.6v-21.8h3.2c1.6-0.1,3.1,0.5,4.2,1.6c1,1.4,1.5,3,1.4,4.7c0,1.1-0.2,2.2-0.6,3.2
			c-0.3,0.8-0.9,1.5-1.6,2l2.2,10.4h-3.2l-1.8-9.2h-0.6v9.2L51,124.6z M54.2,112.4c0.5,0,1-0.1,1.4-0.4c0.4-0.3,0.6-0.7,0.7-1.1
			c0.2-0.6,0.2-1.1,0.2-1.7c0-0.8-0.1-1.7-0.5-2.4c-0.4-0.6-1.1-0.9-1.9-0.8V112.4z"/>
		<path id="Pfad_3325" class="st0" d="M69.7,124.6v-18.5h-3v-3.3h9.3v3.3h-3v18.5L69.7,124.6z"/>
		<rect id="Rechteck_425" x="83.3" y="102.8" class="st0" width="3.2" height="21.8"/>
		<path id="Pfad_3326" class="st0" d="M94.8,124.6v-21.8h7.3v3.3H98v5.9h3v3.2h-3v6.1h4.1v3.3L94.8,124.6z"/>
		<path id="Pfad_3327" class="st0" d="M110.5,124.6v-21.8h3.2c1.6-0.1,3.1,0.5,4.2,1.6c1,1.4,1.5,3,1.4,4.7c0,1.1-0.2,2.2-0.6,3.2
			c-0.3,0.8-0.9,1.5-1.6,2l2.2,10.4H116l-1.8-9.2h-0.6v9.2L110.5,124.6z M113.7,112.4c0.5,0,1-0.1,1.4-0.4c0.4-0.3,0.6-0.7,0.7-1.1
			c0.2-0.6,0.2-1.1,0.2-1.7c0-0.8-0.1-1.7-0.5-2.4c-0.4-0.6-1.1-0.9-1.9-0.8V112.4z"/>
		<path id="Pfad_3328" class="st0" d="M127,124.6v-21.8h7.3v3.3h-4.1v5.9h3v3.2h-3v6.1h4.1v3.3L127,124.6z"/>
	</g>
	<g id="gwg_in_kassel" transform="translate(1372.992 878.446)">
		<rect id="Rechteck_426" x="94.4" y="12.2" class="st0" width="3.2" height="21.5"/>
		<path id="Pfad_3329" class="st0" d="M105.8,33.7V12.2h3l2.9,11.2l0.3,1h0.2V12.2h2.9v21.5h-2.7l-3.2-11.2l-0.3-1h-0.2v12.2H105.8z
			"/>
		<path id="Pfad_3330" class="st1" d="M54.3,52.2h-0.2l-0.1,1.1l-0.9,7.2h2.2l-0.9-7.2L54.3,52.2z"/>
		<path id="Pfad_3331" class="st1" d="M81.7,5c0-2.8-2.3-5-5-5l0,0H40.8C18.3,0,0,18.3,0,40.9c0,22.5,18.3,40.8,40.8,40.8v28.4
			c22.6,0,40.8-18.3,40.8-40.8c0,0,0,0,0,0c0-0.6,0-1.2,0-1.8c0-0.1,0-0.3,0-0.4L81.7,5z M32.7,16.6c0-0.8,0.2-1.6,0.5-2.4
			c0.3-0.7,0.8-1.3,1.5-1.7c0.7-0.4,1.4-0.6,2.2-0.6c0.6,0,1.2,0.1,1.8,0.4c0.5,0.2,1,0.6,1.3,1c0.4,0.4,0.7,0.9,0.8,1.5
			c0.2,0.6,0.3,1.2,0.3,1.8v3.3H38v-3.3c0-0.4-0.1-0.8-0.2-1.1c-0.3-0.4-0.8-0.6-1.3-0.3c-0.2,0.1-0.3,0.2-0.4,0.4
			c-0.2,0.3-0.2,0.7-0.2,1.1v13c0,0.4,0.1,0.8,0.2,1.1c0.3,0.4,0.8,0.6,1.3,0.4c0.2-0.1,0.3-0.2,0.4-0.4c0.2-0.3,0.2-0.7,0.2-1.1
			v-3.6h-1.3v-3h4.4v10.7h-1.9l-0.4-1.2c-0.3,0.4-0.6,0.8-1,1c-0.4,0.2-0.9,0.4-1.4,0.4c-0.8,0-1.5-0.2-2.1-0.6
			c-0.6-0.4-1-1-1.2-1.7c-0.3-0.8-0.4-1.6-0.4-2.4L32.7,16.6z M39.1,68.3L37,58.5h-0.1L36,60.7v7.6h-3.2V46.8H36v7.5h0.1l0.1-0.4
			l2.5-7.2H42l-2.9,7.1l3.3,14.4L39.1,68.3z M56.4,68.3l-0.6-4.4h-3l-0.6,4.4h-3.1l3.3-21.5h3.9l3.3,21.5L56.4,68.3z M59.9,33.7
			h-2.5l-1.5-10.2l-0.2-1.3h-0.1l-0.2,1.3L54,33.7h-2.5l-2.9-21.5h2.9l1.3,11.2l0.1,0.7h0.2l0.1-0.7l1.3-11.2h2.3l1.3,11.2l0.1,0.7
			h0.2l0.1-0.7l1.3-11.2h2.9L59.9,33.7z M70.1,53.8c0.5,0.9,1.1,1.8,1.8,2.7c0.8,1.1,1.5,2.2,2.2,3.3c0.6,1,0.9,2.2,0.8,3.3
			c0,0.7-0.1,1.4-0.2,2.1c-0.1,0.6-0.4,1.2-0.8,1.7c-0.4,0.5-0.8,0.9-1.4,1.1c-0.6,0.3-1.3,0.4-2,0.4c-0.7,0-1.5-0.1-2.2-0.4
			c-0.6-0.3-1-0.7-1.4-1.3c-0.4-0.6-0.6-1.3-0.7-2C66.1,64,66,63.2,66,62.3l3.1-0.3c0,0.5,0,0.9,0.1,1.4c0,0.4,0.1,0.8,0.2,1.2
			c0.1,0.3,0.2,0.6,0.4,0.8c0.2,0.2,0.4,0.3,0.7,0.3c0.4,0,0.8-0.2,1-0.7c0.2-0.5,0.3-1,0.3-1.6c0-0.7-0.2-1.3-0.5-1.9
			c-0.3-0.7-0.7-1.3-1.2-1.9c-0.8-1-1.4-2-2-2.8c-0.5-0.8-1-1.7-1.3-2.6c-0.3-0.8-0.5-1.7-0.5-2.6c0-0.7,0.1-1.4,0.3-2
			c0.2-0.6,0.4-1.1,0.8-1.6c0.3-0.4,0.8-0.8,1.3-1.1c0.5-0.3,1.1-0.4,1.7-0.4c0.7,0,1.4,0.1,2.1,0.4c0.5,0.3,1,0.7,1.4,1.2
			c0.4,0.6,0.6,1.2,0.8,1.8c0.2,0.8,0.2,1.5,0.2,2.3l-3.1,0.3c0-0.4,0-0.7-0.1-1.1c0-0.3-0.1-0.7-0.2-1c-0.1-0.3-0.2-0.5-0.4-0.7
			c-0.2-0.2-0.4-0.3-0.6-0.3c-0.4,0-0.7,0.2-0.8,0.5c-0.2,0.5-0.3,1-0.2,1.5C69.5,52.3,69.7,53.1,70.1,53.8 M78.5,19.9h-3.2v-3.3
			c0-0.4-0.1-0.8-0.2-1.1c-0.3-0.4-0.8-0.6-1.3-0.3c-0.2,0.1-0.3,0.2-0.4,0.4c-0.2,0.3-0.2,0.7-0.2,1.1v13c0,0.4,0.1,0.8,0.2,1.1
			c0.3,0.4,0.8,0.6,1.3,0.4c0.2-0.1,0.3-0.2,0.4-0.4c0.2-0.3,0.2-0.7,0.2-1.1v-3.6h-1.3v-3h4.4v10.7h-1.9l-0.4-1.2
			c-0.3,0.4-0.6,0.8-1.1,1c-0.4,0.2-0.9,0.4-1.4,0.4c-0.8,0-1.5-0.2-2.1-0.6c-0.6-0.4-1-1-1.2-1.7c-0.3-0.8-0.4-1.6-0.4-2.4V16.6
			c0-0.8,0.2-1.6,0.5-2.4c0.3-0.7,0.8-1.3,1.5-1.7c0.7-0.4,1.4-0.6,2.2-0.6c0.6,0,1.2,0.1,1.8,0.4c0.5,0.2,1,0.6,1.3,1
			c0.4,0.4,0.7,0.9,0.8,1.5c0.2,0.6,0.3,1.2,0.3,1.8L78.5,19.9z"/>
		<path id="Pfad_3332" class="st0" d="M86.3,68.6c-0.7,0-1.5-0.1-2.2-0.4c-0.6-0.3-1-0.7-1.4-1.3c-0.4-0.6-0.6-1.3-0.7-2
			c-0.1-0.9-0.2-1.7-0.2-2.6l3.1-0.3c0,0.5,0,0.9,0.1,1.4c0,0.4,0.1,0.8,0.2,1.2c0.1,0.3,0.2,0.6,0.4,0.8c0.2,0.2,0.4,0.3,0.7,0.3
			c0.4,0,0.8-0.2,1-0.7c0.2-0.5,0.3-1,0.3-1.6c0-0.7-0.2-1.3-0.5-1.9c-0.3-0.7-0.7-1.3-1.2-1.9c-0.8-1-1.4-2-2-2.8
			c-0.5-0.8-1-1.7-1.3-2.6c-0.3-0.8-0.5-1.7-0.5-2.6c0-0.7,0.1-1.4,0.3-2c0.2-0.6,0.4-1.1,0.8-1.6c0.3-0.4,0.8-0.8,1.3-1.1
			c0.5-0.3,1.1-0.4,1.7-0.4c0.7,0,1.4,0.1,2.1,0.4c0.5,0.3,1,0.7,1.4,1.2c0.4,0.6,0.6,1.2,0.8,1.8c0.2,0.8,0.2,1.5,0.2,2.3l-3.1,0.3
			c0-0.4,0-0.7-0.1-1.1c0-0.3-0.1-0.7-0.2-1c-0.1-0.3-0.2-0.5-0.4-0.7c-0.2-0.2-0.4-0.3-0.6-0.3c-0.4,0-0.7,0.2-0.8,0.5
			c-0.2,0.5-0.3,1-0.2,1.5c0,0.8,0.2,1.7,0.7,2.4c0.5,0.9,1.1,1.8,1.8,2.7c0.8,1.1,1.5,2.2,2.2,3.3c0.6,1,0.9,2.2,0.8,3.3
			c0,0.7-0.1,1.4-0.2,2.1c-0.1,0.6-0.4,1.2-0.8,1.7c-0.4,0.5-0.8,0.9-1.4,1.1C87.6,68.4,87,68.6,86.3,68.6"/>
		<path id="Pfad_3333" class="st0" d="M98.2,68.3V46.8h7.2V50h-4.1v5.8h2.9V59h-2.9v6.1h4.1v3.3H98.2z"/>
		<path id="Pfad_3334" class="st0" d="M113.7,68.3V46.8h3.2v18.6h4.2v2.9L113.7,68.3z"/>
	</g>
	<path id="Pfad_3335" class="st0" d="M1217.4,988.7c-2.3,0-4.5,0-6.8-0.1l0-3.2c7.5,0.1,15.1,0,22.4-0.2l0.1,3.2
		C1228,988.6,1222.7,988.7,1217.4,988.7 M1188.1,987.8c-7.3-0.5-14.8-1.1-22.4-1.9l0.3-3.2c7.6,0.8,15.1,1.4,22.3,1.9L1188.1,987.8z
		 M1255.7,986.9l-0.3-3.2c7.5-0.7,14.9-1.7,22.2-2.9l0.5,3.2C1270.8,985.2,1263.3,986.2,1255.7,986.9 M1143.3,983.1
		c-7.2-1-14.7-2.2-22.2-3.5l0.6-3.2c7.5,1.3,15,2.5,22.1,3.5L1143.3,983.1z M1300.2,979.6l-0.7-3.1c7.3-1.7,14.5-3.7,21.5-5.9l1,3.1
		C1314.9,975.9,1307.6,977.9,1300.2,979.6 M1099,975.4c-7.1-1.4-14.5-3-22-4.8l0.7-3.1c7.5,1.7,14.8,3.3,21.9,4.7L1099,975.4z
		 M1343.2,966l-1.2-3c5-2,10-4.2,14.9-6.5l1.4,2.9C1353.4,961.7,1348.3,963.9,1343.2,966 M1055.1,965.4c-7-1.7-14.3-3.6-21.8-5.6
		l0.8-3.1c7.5,2,14.8,3.9,21.7,5.6L1055.1,965.4z"/>
	<path id="Pfad_3336" class="st0" d="M545,940.1l-2.3-2.2c0.2-0.3,6-6.2,19.3-14.2l1.7,2.7C550.8,934.2,545.1,940.1,545,940.1
		 M584.3,915.8l-1.3-2.9c6.9-3.1,14.3-6,22.1-8.6l1,3C598.5,909.9,591.2,912.7,584.3,915.8 M837.2,904.5c-7.9-1.9-15.6-3.6-22.9-5.2
		l0.7-3.1c7.3,1.5,15,3.3,23,5.2L837.2,904.5z M628.6,900.7l-0.8-3.1c7.4-1.9,15.2-3.6,23.1-5l0.6,3.2
		C643.6,897.1,635.9,898.8,628.6,900.7 M791.3,894.9c-8-1.4-15.8-2.5-23.2-3.4l0.4-3.2c7.5,0.9,15.3,2.1,23.4,3.5L791.3,894.9z
		 M674.6,892.2l-0.4-3.2c7.6-1,15.5-1.7,23.5-2.3l0.2,3.2C690,890.4,682.2,891.2,674.6,892.2 M744.7,889.3c-6.5-0.4-12.9-0.6-19-0.6
		c-1.5,0-3,0-4.4,0l-0.1-3.2c1.5,0,3,0,4.5,0c6.2,0,12.6,0.2,19.2,0.6L744.7,889.3z"/>
</g>
</svg>
