<?xml version="1.0" encoding="utf-8"?>
<!-- Generator: Adobe Illustrator 27.5.0, SVG Export Plug-In . SVG Version: 6.00 Build 0)  -->
<svg version="1.1" id="Ebene_1" xmlns="http://www.w3.org/2000/svg" xmlns:xlink="http://www.w3.org/1999/xlink" x="0px" y="0px"
	 width="40px" height="40px" viewBox="0 0 40 40" style="enable-background:new 0 0 40 40;" xml:space="preserve">
<style type="text/css">
	.st0{fill:#28347D;}
</style>
<g>
	<path class="st0" d="M40,8.8v-4C40,2.1,37.9,0,35.3,0H4.7C2.1,0,0,2.1,0,4.7v30.5C0,37.9,2.1,40,4.7,40h30.5c2.5,0,4.7-2.1,4.7-4.5
		V14.9h-2.6v4.4h-9.2v2.6h9.2v13.6c0,0.9-0.9,1.9-2.2,1.9h-14v-9.6h-2.6v9.6h-14c-1.2,0-2.2-1-2.2-2.2V21.9H22v-2.6H2.6V4.7
		c0-1.2,1-2.2,2.2-2.2h30.5c1.2,0,2.2,1,2.2,2.2v4H40z"/>
</g>
</svg>
