<?xml version="1.0" encoding="utf-8"?>
<!-- Generator: Adobe Illustrator 27.5.0, SVG Export Plug-In . SVG Version: 6.00 Build 0)  -->
<svg version="1.1" id="Ebene_1" xmlns="http://www.w3.org/2000/svg" xmlns:xlink="http://www.w3.org/1999/xlink" x="0px" y="0px"
	 width="1001.4px" height="783.8px" viewBox="0 0 1001.4 783.8" style="enable-background:new 0 0 1001.4 783.8;"
	 xml:space="preserve">
<style type="text/css">
	.st0{fill:#9297C0;}
	.st1{fill:#FFFFFF;}
	.st2{fill:#58D38C;}
	.st3{fill:#253081;}
	.st4{fill:#123378;}
	.st5{clip-path:url(#stripes3_00000148645864223490421220000010380397626246571666_);}
	.st6{clip-path:url(#stripes3-2_00000127017320520212004380000016997907051212658616_);}
	.st7{clip-path:url(#stripe1_00000095315496996583707990000014609446985533524661_);}
	.st8{clip-path:url(#stripe1-2_00000117642525744213304300000017020046983634023561_);}
	.st9{clip-path:url(#stripe1-3_00000163760620665246614850000007729610808288552084_);}
	.st10{clip-path:url(#stripe1-4_00000018925977630410889260000008543778448174070181_);}
</style>
<path id="Pfad_104" class="st0" d="M824.2,16.9L787,30.8v33.7l83.9,39.7l25.9-34.6l-13.1-9.1l-7.6,5.6L851,46.3l-1.7-12.1
	L824.2,16.9z"/>
<path id="Pfad_105" class="st0" d="M878.6,136.2L848.3,227h-34.5l-4.3-5.2l0-18.2h-38.9v65l16.4,20.5v26.1l30.2,20.6h28.5l-13-16.4
	v-7.8l64-21.8h64.6V227l-23.1-64l-15.1-26.8H878.6z"/>
<path id="Pfad_107" class="st0" d="M787,318.8l-5.1,7.1l-11.3,46.6l-49.4,9.2L688.5,446v21.9l7.8,8.9h7.3l7.4-17.3l3.5-0.9l5.2,11.2
	l-0.5,6.9l9.2,32.9l7,2.8l11.2-18.3l12.1-35.4l-5.2-20.7l-6.9-8.6l14.3-33h34.6v-21.6l12.4-4.2l18.2-23.3l-5.1-5.6h-9.2L787,318.8z"
	/>
<path id="Pfad_108" class="st0" d="M800,376.5h13.7v10.1l12.2-4.9l40.1,19.8v7.8l12.7,13.1h7.1l5-6.9l29,0.2l9.9-8.8l15.6,19v9.6
	h-12.8l18,63L934,539.9l-24.2-13.8l-13,4l-16.4-1.4l-25.7-16.3l-12.8,8.5l-16-8.5l-10.4,11.1l-11.2-0.9l-4.3,11l-49.3-29.1
	l15.7-46.3l-4.4-22l-8.6-7.8l12.1-25.1H800L800,376.5z"/>
<path id="Pfad_109" class="st0" d="M808.6,530.4l-4.1,9.5l6.7,19l30.3,13.8l24.5,23l61.9-49.8l-19-12.1l-14.7,2.6l-19.9-0.9
	l-23.8-15.4l-7.3,9.3l-17.3-9.3l-6.9,9.3L808.6,530.4z"/>
<path id="Pfad_110" class="st0" d="M688.5,479.2l11.2,4.5h9.4v-6.6h4.9l4.6,18.7l3.9,24.4h12.6l10.3-10.5l51.2,30.3l7.8,26.2
	l17.1,6.6v5.4l-51,22.6l23.3,42l5.2,4.3h8.2l-2.8,4.5L767.1,686l-9.9-2.6l-22-0.7l-4.4-13.1h-31.1l-30.3-4.3l-9.5-22.5l11.2-32
	l-34.6-10.4l-8.7-18.9v-35.2l56.2-30.6l7.8-12.1L688.5,479.2z"/>
<path id="Pfad_111" class="st1" d="M296.9,629.8V653l-13.8,6.2l36.3,32h9.7v8.5l29.2,18.3l6.9-13v-19l-2.6-16.4l27.7-21.6l8.6,1.7
	l9.5-11.2l8.6-4.3V617h-6l-3.5-10.5l-13.8-6.1h-15.9l-7.4,4.3L350,592.3l-14.3,14.2l10.4,13.8l-5.2,6.9L296.9,629.8z"/>
<path id="Pfad_113" class="st1" d="M332.3,497.6h15.1l2.6,14.9l22,4.1l16.3-9.5l12.7,9.5l-2.8,12.8l2.8,5.7l3,15.3l8.6,17.3L430,571
	l14.7,10.5l6.9,18.9l-34.6,7.4l-4.6-12l-29-3.5l-11.3,3.5l-19.1-14.2l1.7-8.8l-9.5-7.8l4.8-12.3l-4-12.8v-19.7l-21.5-12.3
	L332.3,497.6z"/>
<path id="Pfad_114" class="st2" d="M391.2,655.1l-22.6,17l4.2,13.8l-0.8,12.1l-3.5,12.1l3.5,12.9h33.3l36.8,12.1h12.7l7.2-3.5
	l14.7,3.5l22.4-72.6v-18.8l-5.2-24.4l-9.5-12.1h-9.9l-13.5-3.5l-17.3,3.5l-19,6.9v25.1l-7.8,2.4l-11.7,13.4H391.2z"/>
<path id="Pfad_115" class="st2" d="M501.7,530.4l4.6,27.6h-38.9l8.3,17.4v10.4l-6.9,2.6l-13.8-2.6v10.1l28,8.1h8.5l7.6,11.7
	l6.9,35.9v15l-18.2,61.9l29,26.4l90.3,9v-20.3l16.4-16l-3.5-19l15.6-14.7l-7.8-15.3v-71.4l-9.2-25.5l-30.5,3.3l-14.7-15.6l-4.2-29.4
	L521.6,520L501.7,530.4z"/>
<path id="Pfad_116" class="st2" d="M534.6,517.4l33.7,13.9l7.3,8.6V552l6.5,19l6.1,5.2l33.7-3.5v-32.9l54.7-27.5l8.4-12.3l-5.2-48.4
	l17.3-36.1v-9.2l-14.7,4.7l-27.7,27.7l-70.9,1.7l-6.9,27.7l-13,0.9l26.5,22.3l7.2,12.3l0.5,8.8l-9.2,4.1l-7.8,10.4L534.6,517.4z"/>
<path id="Pfad_117" class="st2" d="M390.2,487.2h60.3l8.5-10.1h31.8l4.2,10.1V499l4.1,13.4l4.3,3.3l-10.4,11.2l6.1,15.9l-5.2,7.5
	h-35.6l-3.3,7.7l14.6,18.2l-0.7,5.3h-13.9L433.9,564l-16.9-1.4l-6.9-14l1.7-13.8l-7.2-5.4l7.8-16.9L385.9,495L390.2,487.2z"/>
<path id="Pfad_118" class="st2" d="M88.8,512.4v21.9l-2.1,18.4H98l14.7-6.7l6.1,3.5v16.7l-8.6,33.4l29.4,32.9l25.9-20.7l3.5-11.2
	l29.4,3.5l-6.1,7.8v9.5l20.7,6.1l17.8,5.2l8.5,9.5h19.8l7.5,8.6l20.7-5.2l3.5-24.2l40.6-0.9l4.3-6.9l-6.7-5.6l-1.1-7.4l18.1-15.6
	v-8.6l-9.5-11.2l2.3-7l7.2-8.1l-9.3-10l1.6-13.8l-17.8-13.7l4-14.9l6.6-6.2h21.9l5.2,15.7l14.7,0.9l7.8-7.8l-8.6-8.8l13.8-10
	l-3.5-14.9H375l-21,10.4l-29.4,6.6l-6.1,3.7l-7.1,25.2L88.8,512.4z"/>
<path id="Pfad_121" class="st1" d="M301.2,322.1l-7.8-12.1h38l18.2-13h11.9l2.8,15.6l24.1-11.2l4.2-11.2l29.6,13l7.8-4.3l38.9,2.6
	l9.5-13.8l34.8,13.8v9l-33.1,40.2l-6.5,2.6l-29,28.5l-34.6-11.2l-14.7-13l-40.6,0.9l-16.8,7.8l-7.4-10.4l10.2-2.6l4.5-7.8l-3-9.5
	h-10.4l-29.8,10.4L301.2,322.1z"/>
<path id="Pfad_122" class="st3" d="M611.5,176.8l50.1-38l32.9,34.6v23.9h-6.1l-8.6-5.8L653,221.8l-28.5-11.2l-13-21.7V176.8z"/>
<path id="Pfad_123" class="st3" d="M563.6,227l43.6,5.2l15.7,3.9l-7.1,11.2v12.2l7.1,4.8v9.9l-14,8.2l14,30.9l-14.9,31.4h-61
	l-7.3,8.6h-51.1l28.2-31.5L532,329l29.4-58.8L563.6,227z"/>
<path id="Pfad_124" class="st4" d="M439.7,180.3l5-2.8l24.7,4.5l23.7,16.4h7.9l6.1-20.9h6.1V188l44.7-6v77.4l-23.3-2.7l-17.8-3.8
	l-18-18.8l-4.9-12.2l-31.9-6.1l1.7-12.1l-6.1-4.3l-16.4,5.2l-4.3-5.2L439.7,180.3z"/>
<path id="Pfad_125" class="st3" d="M155.2,290.1c-0.1-1.7-16.6-39.8-16.6-39.8l-15.6-13.8l8.1-14.7l-8.1-10.8l-10.4-48l7.8-11.2
	h19.2l8.5,18.2l0.5,24.2l6.6,2.7L175,163l20.3-11.2l7.4,2.6l21.6-18.2l7.8,10.4l4.3,11.2l7,2.7l7.8-6.1l89.9-24.2l37.2,26.8
	l34.6,4.3l4.3,6.9l13.8,3.5v38.5h22.1v11.7l35.8,5.2l14.8,25.4l18.2,10.9l36.3,2.3l-26.4,53.2l-12.5-8l0.9-12.1l-46.7-18.2
	l-10.4,14.7l-31.6-5.2l-10.8,6l-32-13.8l-2.6,2.6v11.3l-16.4,7.7l-7.9-13.8h-21.2L329,301.3l-29.6,1.7l-13,3.5l6.9,14.7v23.5
	l-26.8,2.4l-20.9,19l-0.5-76.1L155.2,290.1z"/>
<path id="Pfad_126" class="st3" d="M477.5,358.4l-25.9,23.3l-6.9,20.7h10.4l13.4-6.2l112.1,19.4l4.7-13.2l8.1-11.7v-9.1l-6.1-9.5
	l1.7-6.1l-38.6-7.8H477.5z"/>
<g>
	<defs>
		<path id="stripes3" d="M726.5,301.3h55.4v9l-6.1,9.1L764.5,367l-43.2,6.1l-8.6,8.6l-24.2-11.2l2.6-19l19.9,10.4l4.3-28.5l11.2-8.6
			V301.3z"/>
	</defs>
	<clipPath id="stripes3_00000060028404869953100670000014362038417367583890_">
		<use xlink:href="#stripes3"  style="overflow:visible;"/>
	</clipPath>
	<g style="clip-path:url(#stripes3_00000060028404869953100670000014362038417367583890_);">
		
			<rect x="24.9" y="120.8" transform="matrix(0.9125 -0.4091 0.4091 0.9125 -112.1178 204.1311)" class="st0" width="792.5" height="486.7"/>
		<g>
			
				<rect x="-51.2" y="154.1" transform="matrix(0.9125 -0.4091 0.4091 0.9125 -35.6501 148.9754)" class="st2" width="763.2" height="7.4"/>
		</g>
		<g>
			
				<rect x="-42.3" y="173.8" transform="matrix(0.9125 -0.4091 0.4091 0.9125 -42.929 154.3067)" class="st2" width="763.2" height="7.4"/>
		</g>
		<g>
			
				<rect x="-33.5" y="193.5" transform="matrix(0.9125 -0.4091 0.4091 0.9125 -50.2084 159.6384)" class="st2" width="763.2" height="7.4"/>
		</g>
		<g>
			
				<rect x="-24.7" y="213.2" transform="matrix(0.9125 -0.4091 0.4091 0.9125 -57.4877 164.9701)" class="st2" width="763.2" height="7.4"/>
		</g>
		<g>
			
				<rect x="-15.9" y="232.9" transform="matrix(0.9125 -0.4091 0.4091 0.9125 -64.7667 170.3015)" class="st2" width="763.2" height="7.4"/>
		</g>
		<g>
			
				<rect x="-7" y="252.6" transform="matrix(0.9125 -0.4091 0.4091 0.9125 -72.046 175.6332)" class="st2" width="763.2" height="7.4"/>
		</g>
		<g>
			
				<rect x="1.8" y="272.2" transform="matrix(0.9125 -0.4091 0.4091 0.9125 -79.3254 180.9649)" class="st2" width="763.2" height="7.4"/>
		</g>
		<g>
			
				<rect x="10.6" y="291.9" transform="matrix(0.9125 -0.4091 0.4091 0.9125 -86.6043 186.2963)" class="st2" width="763.2" height="7.4"/>
		</g>
		<g>
			
				<rect x="19.4" y="311.6" transform="matrix(0.9125 -0.4091 0.4091 0.9125 -93.8836 191.628)" class="st2" width="763.2" height="7.4"/>
		</g>
		<g>
			
				<rect x="37.1" y="351" transform="matrix(0.9125 -0.4091 0.4091 0.9125 -108.4419 202.2911)" class="st2" width="763.2" height="7.4"/>
		</g>
		<g>
			
				<rect x="28.5" y="331.1" transform="matrix(0.9125 -0.4091 0.4091 0.9125 -101.0856 197.0653)" class="st2" width="763.2" height="7.4"/>
		</g>
		<g>
			
				<rect x="46.2" y="370.5" transform="matrix(0.9125 -0.4091 0.4091 0.9125 -115.6439 207.7284)" class="st2" width="763.2" height="7.4"/>
		</g>
		<g>
			
				<rect x="55" y="390.2" transform="matrix(0.9125 -0.4091 0.4091 0.9125 -122.9232 213.0601)" class="st2" width="763.2" height="7.4"/>
		</g>
		<g>
			
				<rect x="63.8" y="409.9" transform="matrix(0.9125 -0.4091 0.4091 0.9125 -130.2022 218.3915)" class="st2" width="763.2" height="7.4"/>
		</g>
		<g>
			
				<rect x="72.6" y="429.6" transform="matrix(0.9125 -0.4091 0.4091 0.9125 -137.4815 223.7232)" class="st2" width="763.2" height="7.4"/>
		</g>
		<g>
			
				<rect x="81.5" y="449.2" transform="matrix(0.9125 -0.4091 0.4091 0.9125 -144.7609 229.0549)" class="st2" width="763.2" height="7.4"/>
		</g>
		<g>
			
				<rect x="90.4" y="468.9" transform="matrix(0.9125 -0.4091 0.4091 0.9125 -152.0236 234.4084)" class="st2" width="763.2" height="7.4"/>
		</g>
		<g>
			
				<rect x="99.5" y="488.4" transform="matrix(0.9125 -0.4091 0.4091 0.9125 -159.2256 239.8457)" class="st2" width="763.2" height="7.4"/>
		</g>
		<g>
			
				<rect x="108.3" y="508.1" transform="matrix(0.9125 -0.4091 0.4091 0.9125 -166.5049 245.1774)" class="st2" width="763.2" height="7.4"/>
		</g>
		<g>
			
				<rect x="117.1" y="527.8" transform="matrix(0.9125 -0.4091 0.4091 0.9125 -173.7843 250.5091)" class="st2" width="763.2" height="7.4"/>
		</g>
		<g>
			
				<rect x="125.9" y="547.5" transform="matrix(0.9125 -0.4091 0.4091 0.9125 -181.0632 255.8405)" class="st2" width="763.2" height="7.4"/>
		</g>
		<g>
			
				<rect x="134.8" y="567.2" transform="matrix(0.9125 -0.4091 0.4091 0.9125 -188.3426 261.1722)" class="st2" width="763.2" height="7.4"/>
		</g>
	</g>
</g>
<g>
	<defs>
		<path id="stripes3-2" d="M709.2,194.1l-9.5,10.4l9.5,33.3l-20.7,24v12.2l13,13.4l11.5,31.3l3.2,5.8l4.3-6.1v-23.3l58.8,1.7v-6.4
			l-15.6-17.8l0.9-68.3l-13.8,6.9l-31.1-7.8L709.2,194.1z"/>
	</defs>
	<clipPath id="stripes3-2_00000140708010754163772250000003404502163464052411_">
		<use xlink:href="#stripes3_x002D_2"  style="overflow:visible;"/>
	</clipPath>
	<g style="clip-path:url(#stripes3-2_00000140708010754163772250000003404502163464052411_);">
		
			<rect x="24.9" y="120.8" transform="matrix(0.9125 -0.4091 0.4091 0.9125 -112.1178 204.1311)" class="st0" width="792.5" height="486.7"/>
		<g>
			
				<rect x="-51.2" y="154.1" transform="matrix(0.9125 -0.4091 0.4091 0.9125 -35.6501 148.9754)" class="st2" width="763.2" height="7.4"/>
		</g>
		<g>
			
				<rect x="-42.3" y="173.8" transform="matrix(0.9125 -0.4091 0.4091 0.9125 -42.929 154.3067)" class="st2" width="763.2" height="7.4"/>
		</g>
		<g>
			
				<rect x="-33.5" y="193.5" transform="matrix(0.9125 -0.4091 0.4091 0.9125 -50.2084 159.6384)" class="st2" width="763.2" height="7.4"/>
		</g>
		<g>
			
				<rect x="-24.7" y="213.2" transform="matrix(0.9125 -0.4091 0.4091 0.9125 -57.4877 164.9701)" class="st2" width="763.2" height="7.4"/>
		</g>
		<g>
			
				<rect x="-15.9" y="232.9" transform="matrix(0.9125 -0.4091 0.4091 0.9125 -64.7667 170.3015)" class="st2" width="763.2" height="7.4"/>
		</g>
		<g>
			
				<rect x="-7" y="252.6" transform="matrix(0.9125 -0.4091 0.4091 0.9125 -72.046 175.6332)" class="st2" width="763.2" height="7.4"/>
		</g>
		<g>
			
				<rect x="1.8" y="272.2" transform="matrix(0.9125 -0.4091 0.4091 0.9125 -79.3254 180.9649)" class="st2" width="763.2" height="7.4"/>
		</g>
		<g>
			
				<rect x="10.6" y="291.9" transform="matrix(0.9125 -0.4091 0.4091 0.9125 -86.6043 186.2963)" class="st2" width="763.2" height="7.4"/>
		</g>
		<g>
			
				<rect x="19.4" y="311.6" transform="matrix(0.9125 -0.4091 0.4091 0.9125 -93.8836 191.628)" class="st2" width="763.2" height="7.4"/>
		</g>
		<g>
			
				<rect x="37.1" y="351" transform="matrix(0.9125 -0.4091 0.4091 0.9125 -108.4419 202.2911)" class="st2" width="763.2" height="7.4"/>
		</g>
		<g>
			
				<rect x="28.5" y="331.1" transform="matrix(0.9125 -0.4091 0.4091 0.9125 -101.0856 197.0653)" class="st2" width="763.2" height="7.4"/>
		</g>
		<g>
			
				<rect x="46.2" y="370.5" transform="matrix(0.9125 -0.4091 0.4091 0.9125 -115.6439 207.7284)" class="st2" width="763.2" height="7.4"/>
		</g>
		<g>
			
				<rect x="55" y="390.2" transform="matrix(0.9125 -0.4091 0.4091 0.9125 -122.9232 213.0601)" class="st2" width="763.2" height="7.4"/>
		</g>
		<g>
			
				<rect x="63.8" y="409.9" transform="matrix(0.9125 -0.4091 0.4091 0.9125 -130.2022 218.3915)" class="st2" width="763.2" height="7.4"/>
		</g>
		<g>
			
				<rect x="72.6" y="429.6" transform="matrix(0.9125 -0.4091 0.4091 0.9125 -137.4815 223.7232)" class="st2" width="763.2" height="7.4"/>
		</g>
		<g>
			
				<rect x="81.5" y="449.2" transform="matrix(0.9125 -0.4091 0.4091 0.9125 -144.7609 229.0549)" class="st2" width="763.2" height="7.4"/>
		</g>
		<g>
			
				<rect x="90.4" y="468.9" transform="matrix(0.9125 -0.4091 0.4091 0.9125 -152.0236 234.4084)" class="st2" width="763.2" height="7.4"/>
		</g>
		<g>
			
				<rect x="99.5" y="488.4" transform="matrix(0.9125 -0.4091 0.4091 0.9125 -159.2256 239.8457)" class="st2" width="763.2" height="7.4"/>
		</g>
		<g>
			
				<rect x="108.3" y="508.1" transform="matrix(0.9125 -0.4091 0.4091 0.9125 -166.5049 245.1774)" class="st2" width="763.2" height="7.4"/>
		</g>
		<g>
			
				<rect x="117.1" y="527.8" transform="matrix(0.9125 -0.4091 0.4091 0.9125 -173.7843 250.5091)" class="st2" width="763.2" height="7.4"/>
		</g>
		<g>
			
				<rect x="125.9" y="547.5" transform="matrix(0.9125 -0.4091 0.4091 0.9125 -181.0632 255.8405)" class="st2" width="763.2" height="7.4"/>
		</g>
		<g>
			
				<rect x="134.8" y="567.2" transform="matrix(0.9125 -0.4091 0.4091 0.9125 -188.3426 261.1722)" class="st2" width="763.2" height="7.4"/>
		</g>
	</g>
</g>
<g>
	<defs>
		<path id="stripe1" d="M509.9,512.4h29l37.4,7.8l10.6-7.8l6.5-3.6l-41.7-40.2l6.3-3.9h15.6l3.5-24.2l-6.1-6.9l2.6-14.7l-56.6-8.2
			l-42.8-8.2l-19,8.9v4.2l7.8,17.1l31.1,34.6l5.2,9.8L509.9,512.4z"/>
	</defs>
	<clipPath id="stripe1_00000147197134465178335710000011745232699398418080_">
		<use xlink:href="#stripe1"  style="overflow:visible;"/>
	</clipPath>
	<g style="clip-path:url(#stripe1_00000147197134465178335710000011745232699398418080_);">
		
			<rect x="24.9" y="120.8" transform="matrix(0.9125 -0.4091 0.4091 0.9125 -112.1178 204.1311)" class="st3" width="792.5" height="486.7"/>
		<g>
			
				<rect x="-51.2" y="154.1" transform="matrix(0.9125 -0.4091 0.4091 0.9125 -35.6501 148.9754)" class="st2" width="763.2" height="7.4"/>
		</g>
		<g>
			
				<rect x="-42.3" y="173.8" transform="matrix(0.9125 -0.4091 0.4091 0.9125 -42.929 154.3067)" class="st2" width="763.2" height="7.4"/>
		</g>
		<g>
			
				<rect x="-33.5" y="193.5" transform="matrix(0.9125 -0.4091 0.4091 0.9125 -50.2084 159.6384)" class="st2" width="763.2" height="7.4"/>
		</g>
		<g>
			
				<rect x="-24.7" y="213.2" transform="matrix(0.9125 -0.4091 0.4091 0.9125 -57.4877 164.9701)" class="st2" width="763.2" height="7.4"/>
		</g>
		<g>
			
				<rect x="-15.9" y="232.9" transform="matrix(0.9125 -0.4091 0.4091 0.9125 -64.7667 170.3015)" class="st2" width="763.2" height="7.4"/>
		</g>
		<g>
			
				<rect x="-7" y="252.6" transform="matrix(0.9125 -0.4091 0.4091 0.9125 -72.046 175.6332)" class="st2" width="763.2" height="7.4"/>
		</g>
		<g>
			
				<rect x="1.8" y="272.2" transform="matrix(0.9125 -0.4091 0.4091 0.9125 -79.3254 180.9649)" class="st2" width="763.2" height="7.4"/>
		</g>
		<g>
			
				<rect x="10.6" y="291.9" transform="matrix(0.9125 -0.4091 0.4091 0.9125 -86.6043 186.2963)" class="st2" width="763.2" height="7.4"/>
		</g>
		<g>
			
				<rect x="19.4" y="311.6" transform="matrix(0.9125 -0.4091 0.4091 0.9125 -93.8836 191.628)" class="st2" width="763.2" height="7.4"/>
		</g>
		<g>
			
				<rect x="37.1" y="351" transform="matrix(0.9125 -0.4091 0.4091 0.9125 -108.4419 202.2911)" class="st2" width="763.2" height="7.4"/>
		</g>
		<g>
			
				<rect x="28.5" y="331.1" transform="matrix(0.9125 -0.4091 0.4091 0.9125 -101.0856 197.0653)" class="st2" width="763.2" height="7.4"/>
		</g>
		<g>
			
				<rect x="46.2" y="370.5" transform="matrix(0.9125 -0.4091 0.4091 0.9125 -115.6439 207.7284)" class="st2" width="763.2" height="7.4"/>
		</g>
		<g>
			
				<rect x="55" y="390.2" transform="matrix(0.9125 -0.4091 0.4091 0.9125 -122.9232 213.0601)" class="st2" width="763.2" height="7.4"/>
		</g>
		<g>
			
				<rect x="63.8" y="409.9" transform="matrix(0.9125 -0.4091 0.4091 0.9125 -130.2022 218.3915)" class="st2" width="763.2" height="7.4"/>
		</g>
		<g>
			
				<rect x="72.6" y="429.6" transform="matrix(0.9125 -0.4091 0.4091 0.9125 -137.4815 223.7232)" class="st2" width="763.2" height="7.4"/>
		</g>
		<g>
			
				<rect x="81.5" y="449.2" transform="matrix(0.9125 -0.4091 0.4091 0.9125 -144.7609 229.0549)" class="st2" width="763.2" height="7.4"/>
		</g>
		<g>
			
				<rect x="90.4" y="468.9" transform="matrix(0.9125 -0.4091 0.4091 0.9125 -152.0236 234.4084)" class="st2" width="763.2" height="7.4"/>
		</g>
		<g>
			
				<rect x="99.5" y="488.4" transform="matrix(0.9125 -0.4091 0.4091 0.9125 -159.2256 239.8457)" class="st2" width="763.2" height="7.4"/>
		</g>
		<g>
			
				<rect x="108.3" y="508.1" transform="matrix(0.9125 -0.4091 0.4091 0.9125 -166.5049 245.1774)" class="st2" width="763.2" height="7.4"/>
		</g>
		<g>
			
				<rect x="117.1" y="527.8" transform="matrix(0.9125 -0.4091 0.4091 0.9125 -173.7843 250.5091)" class="st2" width="763.2" height="7.4"/>
		</g>
		<g>
			
				<rect x="125.9" y="547.5" transform="matrix(0.9125 -0.4091 0.4091 0.9125 -181.0632 255.8405)" class="st2" width="763.2" height="7.4"/>
		</g>
		<g>
			
				<rect x="134.8" y="567.2" transform="matrix(0.9125 -0.4091 0.4091 0.9125 -188.3426 261.1722)" class="st2" width="763.2" height="7.4"/>
		</g>
	</g>
</g>
<g>
	<defs>
		<path id="stripe1-2" d="M679,198.5L653,228.4l-37.1-17l-13-29.4h-39.3v39.8l52.3,6.6l14.7,4.6l-9.3,15.1v6.1l6.6,5.1v18l-12,7.5
			l12,29.7l-12,26.9l12,13.1l53.6,11.5l6.9-22.4l6.1-0.5l12.1,13.3l4.3-29.4L697.1,291l-15.6-12.2l2.6-23.3l18.2-17.3l-5.2-25.8
			L679,198.5z"/>
	</defs>
	<clipPath id="stripe1-2_00000054268182273038148900000007500819813491588993_">
		<use xlink:href="#stripe1_x002D_2"  style="overflow:visible;"/>
	</clipPath>
	<g style="clip-path:url(#stripe1-2_00000054268182273038148900000007500819813491588993_);">
		
			<rect x="24.9" y="120.8" transform="matrix(0.9125 -0.4091 0.4091 0.9125 -112.1178 204.1311)" class="st3" width="792.5" height="486.7"/>
		<g>
			
				<rect x="-51.2" y="154.1" transform="matrix(0.9125 -0.4091 0.4091 0.9125 -35.6501 148.9754)" class="st2" width="763.2" height="7.4"/>
		</g>
		<g>
			
				<rect x="-42.3" y="173.8" transform="matrix(0.9125 -0.4091 0.4091 0.9125 -42.929 154.3067)" class="st2" width="763.2" height="7.4"/>
		</g>
		<g>
			
				<rect x="-33.5" y="193.5" transform="matrix(0.9125 -0.4091 0.4091 0.9125 -50.2084 159.6384)" class="st2" width="763.2" height="7.4"/>
		</g>
		<g>
			
				<rect x="-24.7" y="213.2" transform="matrix(0.9125 -0.4091 0.4091 0.9125 -57.4877 164.9701)" class="st2" width="763.2" height="7.4"/>
		</g>
		<g>
			
				<rect x="-15.9" y="232.9" transform="matrix(0.9125 -0.4091 0.4091 0.9125 -64.7667 170.3015)" class="st2" width="763.2" height="7.4"/>
		</g>
		<g>
			
				<rect x="-7" y="252.6" transform="matrix(0.9125 -0.4091 0.4091 0.9125 -72.046 175.6332)" class="st2" width="763.2" height="7.4"/>
		</g>
		<g>
			
				<rect x="1.8" y="272.2" transform="matrix(0.9125 -0.4091 0.4091 0.9125 -79.3254 180.9649)" class="st2" width="763.2" height="7.4"/>
		</g>
		<g>
			
				<rect x="10.6" y="291.9" transform="matrix(0.9125 -0.4091 0.4091 0.9125 -86.6043 186.2963)" class="st2" width="763.2" height="7.4"/>
		</g>
		<g>
			
				<rect x="19.4" y="311.6" transform="matrix(0.9125 -0.4091 0.4091 0.9125 -93.8836 191.628)" class="st2" width="763.2" height="7.4"/>
		</g>
		<g>
			
				<rect x="37.1" y="351" transform="matrix(0.9125 -0.4091 0.4091 0.9125 -108.4419 202.2911)" class="st2" width="763.2" height="7.4"/>
		</g>
		<g>
			
				<rect x="28.5" y="331.1" transform="matrix(0.9125 -0.4091 0.4091 0.9125 -101.0856 197.0653)" class="st2" width="763.2" height="7.4"/>
		</g>
		<g>
			
				<rect x="46.2" y="370.5" transform="matrix(0.9125 -0.4091 0.4091 0.9125 -115.6439 207.7284)" class="st2" width="763.2" height="7.4"/>
		</g>
		<g>
			
				<rect x="55" y="390.2" transform="matrix(0.9125 -0.4091 0.4091 0.9125 -122.9232 213.0601)" class="st2" width="763.2" height="7.4"/>
		</g>
		<g>
			
				<rect x="63.8" y="409.9" transform="matrix(0.9125 -0.4091 0.4091 0.9125 -130.2022 218.3915)" class="st2" width="763.2" height="7.4"/>
		</g>
		<g>
			
				<rect x="72.6" y="429.6" transform="matrix(0.9125 -0.4091 0.4091 0.9125 -137.4815 223.7232)" class="st2" width="763.2" height="7.4"/>
		</g>
		<g>
			
				<rect x="81.5" y="449.2" transform="matrix(0.9125 -0.4091 0.4091 0.9125 -144.7609 229.0549)" class="st2" width="763.2" height="7.4"/>
		</g>
		<g>
			
				<rect x="90.4" y="468.9" transform="matrix(0.9125 -0.4091 0.4091 0.9125 -152.0236 234.4084)" class="st2" width="763.2" height="7.4"/>
		</g>
		<g>
			
				<rect x="99.5" y="488.4" transform="matrix(0.9125 -0.4091 0.4091 0.9125 -159.2256 239.8457)" class="st2" width="763.2" height="7.4"/>
		</g>
		<g>
			
				<rect x="108.3" y="508.1" transform="matrix(0.9125 -0.4091 0.4091 0.9125 -166.5049 245.1774)" class="st2" width="763.2" height="7.4"/>
		</g>
		<g>
			
				<rect x="117.1" y="527.8" transform="matrix(0.9125 -0.4091 0.4091 0.9125 -173.7843 250.5091)" class="st2" width="763.2" height="7.4"/>
		</g>
		<g>
			
				<rect x="125.9" y="547.5" transform="matrix(0.9125 -0.4091 0.4091 0.9125 -181.0632 255.8405)" class="st2" width="763.2" height="7.4"/>
		</g>
		<g>
			
				<rect x="134.8" y="567.2" transform="matrix(0.9125 -0.4091 0.4091 0.9125 -188.3426 261.1722)" class="st2" width="763.2" height="7.4"/>
		</g>
	</g>
</g>
<g>
	<defs>
		<path id="stripe1-3" d="M151.9,301.3v51.9l15.1,13l-7.5,10.4l-79.1,19.7H58.7v34.7l-7.3,11.3l10.1,19.1v15.8l25.2,28.3h216
			l12.2-28.3l71-18.9l6.9,18.6l44.1,5l14.7-15.4l37.1,4.1l-33.7-36.7l-10.4-22.6l-7.8-4.7V387l-33.6-10.5l-15.2-10.4h-30.8l-22,10.4
			l-10.8-18.2v-16.9l-17.2,11.7h-33l-34.9,23.3l-3.2-75.2H151.9z"/>
	</defs>
	<clipPath id="stripe1-3_00000000939930697625310020000015470952722618514321_">
		<use xlink:href="#stripe1_x002D_3"  style="overflow:visible;"/>
	</clipPath>
	<g style="clip-path:url(#stripe1-3_00000000939930697625310020000015470952722618514321_);">
		
			<rect x="24.9" y="120.8" transform="matrix(0.9125 -0.4091 0.4091 0.9125 -112.1178 204.1311)" class="st3" width="792.5" height="486.7"/>
		<g>
			
				<rect x="-51.2" y="154.1" transform="matrix(0.9125 -0.4091 0.4091 0.9125 -35.6501 148.9754)" class="st2" width="763.2" height="7.4"/>
		</g>
		<g>
			
				<rect x="-42.3" y="173.8" transform="matrix(0.9125 -0.4091 0.4091 0.9125 -42.929 154.3067)" class="st2" width="763.2" height="7.4"/>
		</g>
		<g>
			
				<rect x="-33.5" y="193.5" transform="matrix(0.9125 -0.4091 0.4091 0.9125 -50.2084 159.6384)" class="st2" width="763.2" height="7.4"/>
		</g>
		<g>
			
				<rect x="-24.7" y="213.2" transform="matrix(0.9125 -0.4091 0.4091 0.9125 -57.4877 164.9701)" class="st2" width="763.2" height="7.4"/>
		</g>
		<g>
			
				<rect x="-15.9" y="232.9" transform="matrix(0.9125 -0.4091 0.4091 0.9125 -64.7667 170.3015)" class="st2" width="763.2" height="7.4"/>
		</g>
		<g>
			
				<rect x="-7" y="252.6" transform="matrix(0.9125 -0.4091 0.4091 0.9125 -72.046 175.6332)" class="st2" width="763.2" height="7.4"/>
		</g>
		<g>
			
				<rect x="1.8" y="272.2" transform="matrix(0.9125 -0.4091 0.4091 0.9125 -79.3254 180.9649)" class="st2" width="763.2" height="7.4"/>
		</g>
		<g>
			
				<rect x="10.6" y="291.9" transform="matrix(0.9125 -0.4091 0.4091 0.9125 -86.6043 186.2963)" class="st2" width="763.2" height="7.4"/>
		</g>
		<g>
			
				<rect x="19.4" y="311.6" transform="matrix(0.9125 -0.4091 0.4091 0.9125 -93.8836 191.628)" class="st2" width="763.2" height="7.4"/>
		</g>
		<g>
			
				<rect x="37.1" y="351" transform="matrix(0.9125 -0.4091 0.4091 0.9125 -108.4419 202.2911)" class="st2" width="763.2" height="7.4"/>
		</g>
		<g>
			
				<rect x="28.5" y="331.1" transform="matrix(0.9125 -0.4091 0.4091 0.9125 -101.0856 197.0653)" class="st2" width="763.2" height="7.4"/>
		</g>
		<g>
			
				<rect x="46.2" y="370.5" transform="matrix(0.9125 -0.4091 0.4091 0.9125 -115.6439 207.7284)" class="st2" width="763.2" height="7.4"/>
		</g>
		<g>
			
				<rect x="55" y="390.2" transform="matrix(0.9125 -0.4091 0.4091 0.9125 -122.9232 213.0601)" class="st2" width="763.2" height="7.4"/>
		</g>
		<g>
			
				<rect x="63.8" y="409.9" transform="matrix(0.9125 -0.4091 0.4091 0.9125 -130.2022 218.3915)" class="st2" width="763.2" height="7.4"/>
		</g>
		<g>
			
				<rect x="72.6" y="429.6" transform="matrix(0.9125 -0.4091 0.4091 0.9125 -137.4815 223.7232)" class="st2" width="763.2" height="7.4"/>
		</g>
		<g>
			
				<rect x="81.5" y="449.2" transform="matrix(0.9125 -0.4091 0.4091 0.9125 -144.7609 229.0549)" class="st2" width="763.2" height="7.4"/>
		</g>
		<g>
			
				<rect x="90.4" y="468.9" transform="matrix(0.9125 -0.4091 0.4091 0.9125 -152.0236 234.4084)" class="st2" width="763.2" height="7.4"/>
		</g>
		<g>
			
				<rect x="99.5" y="488.4" transform="matrix(0.9125 -0.4091 0.4091 0.9125 -159.2256 239.8457)" class="st2" width="763.2" height="7.4"/>
		</g>
		<g>
			
				<rect x="108.3" y="508.1" transform="matrix(0.9125 -0.4091 0.4091 0.9125 -166.5049 245.1774)" class="st2" width="763.2" height="7.4"/>
		</g>
		<g>
			
				<rect x="117.1" y="527.8" transform="matrix(0.9125 -0.4091 0.4091 0.9125 -173.7843 250.5091)" class="st2" width="763.2" height="7.4"/>
		</g>
		<g>
			
				<rect x="125.9" y="547.5" transform="matrix(0.9125 -0.4091 0.4091 0.9125 -181.0632 255.8405)" class="st2" width="763.2" height="7.4"/>
		</g>
		<g>
			
				<rect x="134.8" y="567.2" transform="matrix(0.9125 -0.4091 0.4091 0.9125 -188.3426 261.1722)" class="st2" width="763.2" height="7.4"/>
		</g>
	</g>
</g>
<g>
	<defs>
		<path id="stripe1-4" d="M558,353.2h57.9l12,9l51.6,14.4L703,387l-5.9,9.3l-17.7,7.1L653,431.9l-70,0l-3.5-11.2l13.8-5v-12.3
			l8.9-7.1l-1.9-19.7l-0.9-18.2L558,353.2z"/>
	</defs>
	<clipPath id="stripe1-4_00000036250945157451362390000013894610423086626953_">
		<use xlink:href="#stripe1_x002D_4"  style="overflow:visible;"/>
	</clipPath>
	<g style="clip-path:url(#stripe1-4_00000036250945157451362390000013894610423086626953_);">
		
			<rect x="24.9" y="120.8" transform="matrix(0.9125 -0.4091 0.4091 0.9125 -112.1178 204.1311)" class="st3" width="792.5" height="486.7"/>
		<g>
			
				<rect x="-51.2" y="154.1" transform="matrix(0.9125 -0.4091 0.4091 0.9125 -35.6501 148.9754)" class="st2" width="763.2" height="7.4"/>
		</g>
		<g>
			
				<rect x="-42.3" y="173.8" transform="matrix(0.9125 -0.4091 0.4091 0.9125 -42.929 154.3067)" class="st2" width="763.2" height="7.4"/>
		</g>
		<g>
			
				<rect x="-33.5" y="193.5" transform="matrix(0.9125 -0.4091 0.4091 0.9125 -50.2084 159.6384)" class="st2" width="763.2" height="7.4"/>
		</g>
		<g>
			
				<rect x="-24.7" y="213.2" transform="matrix(0.9125 -0.4091 0.4091 0.9125 -57.4877 164.9701)" class="st2" width="763.2" height="7.4"/>
		</g>
		<g>
			
				<rect x="-15.9" y="232.9" transform="matrix(0.9125 -0.4091 0.4091 0.9125 -64.7667 170.3015)" class="st2" width="763.2" height="7.4"/>
		</g>
		<g>
			
				<rect x="-7" y="252.6" transform="matrix(0.9125 -0.4091 0.4091 0.9125 -72.046 175.6332)" class="st2" width="763.2" height="7.4"/>
		</g>
		<g>
			
				<rect x="1.8" y="272.2" transform="matrix(0.9125 -0.4091 0.4091 0.9125 -79.3254 180.9649)" class="st2" width="763.2" height="7.4"/>
		</g>
		<g>
			
				<rect x="10.6" y="291.9" transform="matrix(0.9125 -0.4091 0.4091 0.9125 -86.6043 186.2963)" class="st2" width="763.2" height="7.4"/>
		</g>
		<g>
			
				<rect x="19.4" y="311.6" transform="matrix(0.9125 -0.4091 0.4091 0.9125 -93.8836 191.628)" class="st2" width="763.2" height="7.4"/>
		</g>
		<g>
			
				<rect x="37.1" y="351" transform="matrix(0.9125 -0.4091 0.4091 0.9125 -108.4419 202.2911)" class="st2" width="763.2" height="7.4"/>
		</g>
		<g>
			
				<rect x="28.5" y="331.1" transform="matrix(0.9125 -0.4091 0.4091 0.9125 -101.0856 197.0653)" class="st2" width="763.2" height="7.4"/>
		</g>
		<g>
			
				<rect x="46.2" y="370.5" transform="matrix(0.9125 -0.4091 0.4091 0.9125 -115.6439 207.7284)" class="st2" width="763.2" height="7.4"/>
		</g>
		<g>
			
				<rect x="55" y="390.2" transform="matrix(0.9125 -0.4091 0.4091 0.9125 -122.9232 213.0601)" class="st2" width="763.2" height="7.4"/>
		</g>
		<g>
			
				<rect x="63.8" y="409.9" transform="matrix(0.9125 -0.4091 0.4091 0.9125 -130.2022 218.3915)" class="st2" width="763.2" height="7.4"/>
		</g>
		<g>
			
				<rect x="72.6" y="429.6" transform="matrix(0.9125 -0.4091 0.4091 0.9125 -137.4815 223.7232)" class="st2" width="763.2" height="7.4"/>
		</g>
		<g>
			
				<rect x="81.5" y="449.2" transform="matrix(0.9125 -0.4091 0.4091 0.9125 -144.7609 229.0549)" class="st2" width="763.2" height="7.4"/>
		</g>
		<g>
			
				<rect x="90.4" y="468.9" transform="matrix(0.9125 -0.4091 0.4091 0.9125 -152.0236 234.4084)" class="st2" width="763.2" height="7.4"/>
		</g>
		<g>
			
				<rect x="99.5" y="488.4" transform="matrix(0.9125 -0.4091 0.4091 0.9125 -159.2256 239.8457)" class="st2" width="763.2" height="7.4"/>
		</g>
		<g>
			
				<rect x="108.3" y="508.1" transform="matrix(0.9125 -0.4091 0.4091 0.9125 -166.5049 245.1774)" class="st2" width="763.2" height="7.4"/>
		</g>
		<g>
			
				<rect x="117.1" y="527.8" transform="matrix(0.9125 -0.4091 0.4091 0.9125 -173.7843 250.5091)" class="st2" width="763.2" height="7.4"/>
		</g>
		<g>
			
				<rect x="125.9" y="547.5" transform="matrix(0.9125 -0.4091 0.4091 0.9125 -181.0632 255.8405)" class="st2" width="763.2" height="7.4"/>
		</g>
		<g>
			
				<rect x="134.8" y="567.2" transform="matrix(0.9125 -0.4091 0.4091 0.9125 -188.3426 261.1722)" class="st2" width="763.2" height="7.4"/>
		</g>
	</g>
</g>
</svg>
