<?xml version="1.0" encoding="utf-8"?>
<!-- Generator: Adobe Illustrator 27.5.0, SVG Export Plug-In . SVG Version: 6.00 Build 0)  -->
<svg version="1.1" id="Ebene_1" xmlns="http://www.w3.org/2000/svg" xmlns:xlink="http://www.w3.org/1999/xlink" x="0px" y="0px"
	 width="40px" height="37.3px" viewBox="0 0 40 37.3" style="enable-background:new 0 0 40 37.3;" xml:space="preserve">
<style type="text/css">
	.st0{fill:#28347D;}
</style>
<path class="st0" d="M11.2,31.2L7,35.4c-0.6,0.6-1.6,0.6-2.3,0c-0.3-0.3-0.5-0.7-0.5-1.1c0-0.4,0.1-0.8,0.5-1.1l4.2-4.2L11.2,31.2z
	 M8,14.9c-0.3,0.3-0.5,0.7-0.5,1.1c0,0.4,0.1,0.8,0.5,1.1c0.6,0.6,1.7,0.6,2.3,0l4.1-4.1c0.2-0.2,0.6-0.3,0.9-0.2
	c2.5,0.6,5.2-0.2,8.1-2.4c0.4-0.3,1-0.2,1.4,0.2c0.3,0.4,0.2,1-0.2,1.4c0,0,0,0-0.1,0l9.9,9.9c1.1-2.1,1.4-4.2,0.8-6.8
	c0-0.3,0-0.6,0.2-0.9L40,9.7L30.4,0l-4.5,4.5c-0.2,0.2-0.4,0.3-0.7,0.3c-2,0-3.6,0-4.9,0.2c-2.7,0.5-4.2,1.8-6.6,4.3L8,14.9z
	 M22.9,13.2c-2.5,1.5-5,2.1-7.5,1.7l-3.7,3.8c-0.7,0.7-1.6,1-2.5,1c-0.9,0-1.9-0.4-2.6-1c-0.7-0.7-1-1.6-1-2.5c0-0.9,0.4-1.9,1-2.5
	l5.6-5.6c1.3-1.3,2.4-2.3,3.5-3.1H15c-0.3,0-0.5-0.1-0.7-0.3L9.7,0L0,9.7l4.5,4.5c0.2,0.2,0.3,0.6,0.2,0.9c-0.6,3-0.2,5.3,1.5,7.8v0
	c0.6,0.9,1.4,1.9,2.5,2.9l2,2l8.2,8.1c0.6,0.6,1.7,0.6,2.3,0c0.3-0.3,0.4-0.7,0.4-1.1c0-0.4-0.1-0.8-0.4-1.1l-5.5-5.5
	c-0.4-0.4-0.4-1,0-1.4c0.4-0.4,1-0.4,1.4,0l9.9,9.9c0.6,0.6,1.6,0.6,2.3,0c0.3-0.3,0.5-0.7,0.5-1.1c0-0.4-0.1-0.8-0.5-1.1L20.2,25
	c-0.4-0.4-0.4-1,0-1.4c0.4-0.4,1-0.4,1.4,0l9.3,9.5l2.2,2.2c0.6,0.6,1.7,0.6,2.3,0c0.6-0.6,0.6-1.6,0-2.3l-2.2-2.2l-5.9-5.9
	l-3.7-3.7c-0.4-0.4-0.4-1,0-1.4c0.4-0.4,1-0.4,1.4,0l9.6,9.6c0.6,0.6,1.6,0.6,2.3,0c0.6-0.6,0.6-1.6,0-2.3L22.9,13.2z M5.5,29.4l2-2
	l-0.1-0.1c-0.7-0.8-1.4-1.5-2-2.3l-2.1,2.1c-0.6,0.6-0.6,1.6,0,2.3C3.8,30.1,4.9,30.1,5.5,29.4L5.5,29.4z M10.7,34.6
	c-0.6,0.6-0.6,1.6,0,2.3c0.6,0.6,1.6,0.6,2.3,0l2-2l-2.3-2.3L10.7,34.6z"/>
</svg>
