<?xml version="1.0" encoding="utf-8"?>
<!-- Generator: Adobe Illustrator 27.5.0, SVG Export Plug-In . SVG Version: 6.00 Build 0)  -->
<svg version="1.1" id="Ebene_1" xmlns="http://www.w3.org/2000/svg" xmlns:xlink="http://www.w3.org/1999/xlink" x="0px" y="0px"
	 width="40px" height="26px" viewBox="0 0 40 26" style="enable-background:new 0 0 40 26;" xml:space="preserve">
<style type="text/css">
	.st0{fill:#28347D;}
</style>
<path class="st0" d="M36,0.6C34.7,0.5,34,2.4,33.4,3c-0.6,0.6-1.3,0.4-3.1,0c-1.7-0.4-3.6-2.3-4.2-2.5c-0.6-0.2-0.8,0.1-2.9,1.2
	c-2.1,1-8.2-0.8-9.1-1.1c-0.9-0.3-2-0.7-2.6-0.4c-0.6,0.3-5.5,0.6-6.1,0.8C4.9,1.2,3.1,0.6,3.1,0.6S2.9,0.9,2.7,1.3
	c-0.2,0.4-0.1,1-0.1,2.9c0,1.9,1.9,2.3,1.9,3.1s-0.2,2-0.2,2S1.8,10,0.5,10.4c-1.3,0.4,0.7,3.5,0.8,4.6c0.1,1.2,0.3,1.1,0.9,2.4
	c0.6,1.3,0.3,0.6,1.4,1.7c1.1,1.1,1.6,0.6,2.4,0.6c0.8,0.1,3.5,2.1,5,3.1c1.5,1,7.4,2.8,9.2,3.1c1.8,0.3,2.5,0.2,3.6-0.9
	c1-1.1,1.4-3.8,1.8-5.2c0.4-1.4,1.2,0.7,1.5,1c0.3,0.3,1.1,1.5,2.7,1.5c1.6,0,1-1.4,0.9-2.2c-0.1-0.8,1.7-1.1,2.8-1.4
	c1.1-0.3,1.3,0.2,2,0c0.6-0.2,1.9-1.8,2.5-2.5c0.6-0.6,0-3.6-0.9-4.3c-0.9-0.7-3.2-1.6-3.5-2.2c-0.3-0.6,0.4-1.4,0.8-2.2
	c0.4-0.8,3.1-1.2,3.6-1.3C38.4,6.2,39.7,6,40,4.9C40.3,3.8,37.3,0.7,36,0.6z M14.6,12.4C14.6,12.4,14.6,12.4,14.6,12.4
	c0,0.1,0,0.1,0,0.2c0,1.6-1.3,2.9-2.9,2.9v-2c-1.6,0-2.9-1.3-2.9-2.9c0-1.6,1.3-2.9,2.9-2.9h2.5c0.2,0,0.4,0.2,0.4,0.4V12.4z
	 M21.2,13.3c-0.1,0.2-0.5,0.2-0.6,0l-1.1-2.1l-1.1,2c-0.1,0.3-0.5,0.3-0.6,0l-2.7-5.1c-0.1-0.2,0-0.5,0.3-0.5h2.7h0.8l0.6,1.1
	L20,7.7h0.7h2.9c0.3,0,0.4,0.3,0.3,0.5L21.2,13.3z M29.3,12.4C29.3,12.4,29.3,12.4,29.3,12.4c0,0.1,0,0.1,0,0.2
	c0,1.6-1.3,2.9-2.9,2.9v-2c-1.6,0-2.9-1.3-2.9-2.9c0-1.6,1.3-2.9,2.9-2.9h2.5c0.2,0,0.4,0.2,0.4,0.4V12.4z"/>
</svg>
