<?xml version="1.0" encoding="utf-8"?>
<!-- Generator: Adobe Illustrator 27.5.0, SVG Export Plug-In . SVG Version: 6.00 Build 0)  -->
<svg version="1.1" id="Ebene_1" xmlns="http://www.w3.org/2000/svg" xmlns:xlink="http://www.w3.org/1999/xlink" x="0px" y="0px"
	 width="40px" height="22.4px" viewBox="0 0 40 22.4" style="enable-background:new 0 0 40 22.4;" xml:space="preserve">
<style type="text/css">
	.st0{fill:#28347D;}
</style>
<g>
	<path class="st0" d="M28.7,6.7v8.2l11.3,6V1.4L28.7,6.7z"/>
	<path class="st0" d="M22.3,0H3.2C2.4,0,1.5,0.3,0.9,0.9C0.3,1.5,0,2.4,0,3.2v16c0,0.8,0.3,1.7,0.9,2.3c0.6,0.6,1.4,0.9,2.3,0.9
		h19.1c0.8,0,1.7-0.3,2.3-0.9c0.6-0.6,0.9-1.4,0.9-2.3v-16c0-0.8-0.3-1.7-0.9-2.2C24,0.3,23.2,0,22.3,0L22.3,0z"/>
</g>
</svg>
