<?xml version="1.0" encoding="utf-8"?>
<!-- Generator: Adobe Illustrator 27.5.0, SVG Export Plug-In . SVG Version: 6.00 Build 0)  -->
<svg version="1.1" id="Ebene_1" xmlns="http://www.w3.org/2000/svg" xmlns:xlink="http://www.w3.org/1999/xlink" x="0px" y="0px"
	 width="40px" height="60.1px" viewBox="0 0 40 60.1" style="enable-background:new 0 0 40 60.1;" xml:space="preserve">
<style type="text/css">
	.st0{fill:#28347D;}
</style>
<g id="viocemail">
	<path class="st0" d="M20,0c6.4,0,11.7,6.4,11.7,11.7v17.1c0,6.4-5.2,11.7-11.7,11.7c-6.4,0-11.7-6.4-11.7-11.7V11.7
		C8.3,5.2,13.6,0,20,0z"/>
	<path class="st0" d="M1.9,26.3c-0.5,0-1,0.2-1.4,0.6C0.2,27.2,0,27.7,0,28.2c0,10.4,7.9,18.9,18.1,19.9v8.1h-7.8
		c-0.5,0-1,0.2-1.4,0.6c-0.4,0.4-0.6,0.9-0.6,1.4c0,0.5,0.2,1,0.6,1.4c0.4,0.4,0.9,0.6,1.4,0.6h19.4c0.7,0,1.3-0.4,1.6-1
		c0.3-0.6,0.3-1.3,0-1.9c-0.3-0.6-1-1-1.6-1h-7.8v-8.1c10.1-1,18.1-9.5,18.1-19.9c0-0.7-0.4-1.3-1-1.6c-0.6-0.3-1.3-0.3-1.9,0
		c-0.6,0.3-1,1-1,1.6c0,8.9-7.2,16.1-16.1,16.1c-8.9,0-16.1-7.2-16.1-16.1c0-0.5-0.2-1-0.6-1.4C3,26.5,2.5,26.3,1.9,26.3L1.9,26.3z"
		/>
</g>
</svg>
