<svg xmlns="http://www.w3.org/2000/svg" width="1100.001" height="135.038" viewBox="0 0 1100.001 135.038">
  <g id="Grafik" transform="translate(-394 -877)">
    <g id="über_uns" data-name="über uns" transform="translate(394 877)">
      <path id="Path_3309" data-name="Path 3309" d="M25.1,25.573A12.787,12.787,0,1,0,12.316,12.786,12.786,12.786,0,0,0,25.1,25.573" transform="translate(0.857)" fill="#253081"/>
      <path id="Path_3310" data-name="Path 3310" d="M91.561,25.573A12.787,12.787,0,1,0,78.774,12.786,12.787,12.787,0,0,0,91.561,25.573" transform="translate(5.482)" fill="#253081"/>
      <path id="Path_3311" data-name="Path 3311" d="M123,54.135c0-12.865-11.622-23.295-25.96-23.295-11.249,0-20.825,6.422-24.429,15.4a28.691,28.691,0,0,0-22.226,0c-3.6-8.981-13.18-15.4-24.429-15.4C11.622,30.84,0,41.27,0,54.135v9.2H35.925a21.046,21.046,0,0,0-.383,3.966v9.2H87.463V67.3a21.047,21.047,0,0,0-.383-3.966H123Z" transform="translate(0 2.146)" fill="#253081"/>
      <path id="Path_3312" data-name="Path 3312" d="M58.332,37.88A12.787,12.787,0,1,0,45.545,25.093,12.786,12.786,0,0,0,58.332,37.88" transform="translate(3.17 0.857)" fill="#253081"/>
      <path id="Path_3313" data-name="Path 3313" d="M4.83,128a4.145,4.145,0,0,1-2.317-.626,4.039,4.039,0,0,1-1.467-1.7,5.569,5.569,0,0,1-.507-2.415v-17.4H3.757v17.4a2.4,2.4,0,0,0,.253,1.126.858.858,0,0,0,.819.485.853.853,0,0,0,.835-.485A2.53,2.53,0,0,0,5.9,123.26v-17.4h3.22v17.4a5.51,5.51,0,0,1-.514,2.415A3.984,3.984,0,0,1,4.83,128M1.343,101.116H4.115v2.921H1.343Zm4.2,0H8.317v2.921H5.546Z" transform="translate(0.037 7.038)" fill="#253081"/>
      <path id="Path_3314" data-name="Path 3314" d="M16.366,127.453V105.546h3.278a6.535,6.535,0,0,1,2.884.589,4.13,4.13,0,0,1,1.877,1.84,6.9,6.9,0,0,1,.664,3.233,8.375,8.375,0,0,1-.411,2.757,3.687,3.687,0,0,1-1.587,1.922,3.736,3.736,0,0,1,1.715,2.078,9.54,9.54,0,0,1,.521,3.287,8.281,8.281,0,0,1-.588,3.233,4.6,4.6,0,0,1-4.538,2.966Zm3.218-12.876a2.119,2.119,0,0,0,1.871-.744,3.9,3.9,0,0,0,.514-2.206,3.661,3.661,0,0,0-.529-2.184,2.179,2.179,0,0,0-1.856-.708Zm0,9.687a1.971,1.971,0,0,0,1.922-.872,7,7,0,0,0,0-5.008,1.982,1.982,0,0,0-1.922-.857Z" transform="translate(1.139 7.347)" fill="#253081"/>
      <path id="Path_3315" data-name="Path 3315" d="M32.081,127.453V105.546h7.362v3.309H35.3v5.9h2.981v3.22H35.3v6.168h4.144v3.309Z" transform="translate(2.232 7.347)" fill="#253081"/>
      <path id="Path_3316" data-name="Path 3316" d="M46.767,127.453V105.546h3.218a5.312,5.312,0,0,1,4.262,1.6,7.08,7.08,0,0,1,1.371,4.717,7.314,7.314,0,0,1-.648,3.2,4.842,4.842,0,0,1-1.572,1.974l2.191,10.417H52.371l-1.819-9.239h-.566v9.239Zm3.218-12.219a2.29,2.29,0,0,0,1.415-.4,2.141,2.141,0,0,0,.746-1.124,5.917,5.917,0,0,0,.225-1.73,4.65,4.65,0,0,0-.514-2.407,2.015,2.015,0,0,0-1.871-.843Z" transform="translate(3.256 7.347)" fill="#253081"/>
      <path id="Path_3317" data-name="Path 3317" d="M76.442,127.691a4.145,4.145,0,0,1-2.317-.626,4.034,4.034,0,0,1-1.469-1.7,5.584,5.584,0,0,1-.507-2.415v-17.4h3.22v17.4a2.4,2.4,0,0,0,.253,1.126.948.948,0,0,0,1.654,0,2.515,2.515,0,0,0,.239-1.126v-17.4h3.22v17.4a5.525,5.525,0,0,1-.514,2.415,3.984,3.984,0,0,1-3.778,2.324" transform="translate(5.021 7.347)" fill="#253081"/>
      <path id="Path_3318" data-name="Path 3318" d="M87.978,127.453V105.546h3.011l2.98,11.415.268,1.014h.179V105.546h2.951v21.907H94.654l-3.278-11.415-.268-1.014h-.179v12.429Z" transform="translate(6.123 7.347)" fill="#253081"/>
      <path id="Path_3319" data-name="Path 3319" d="M108.475,127.707a4.916,4.916,0,0,1-2.207-.44,3.324,3.324,0,0,1-1.385-1.274,5.9,5.9,0,0,1-.723-2.012,14.837,14.837,0,0,1-.216-2.653l3.16-.3q0,.714.052,1.378a6.6,6.6,0,0,0,.194,1.193,2.052,2.052,0,0,0,.417.842.9.9,0,0,0,.708.313,1.035,1.035,0,0,0,1.013-.663,3.888,3.888,0,0,0,.3-1.6,4.479,4.479,0,0,0-.492-1.953,11.662,11.662,0,0,0-1.178-1.922q-1.162-1.55-2.033-2.876a13.335,13.335,0,0,1-1.356-2.608,7.523,7.523,0,0,1-.485-2.682,6.944,6.944,0,0,1,.283-2.034,4.885,4.885,0,0,1,.827-1.625,3.85,3.85,0,0,1,1.319-1.08,3.9,3.9,0,0,1,1.773-.387,4.759,4.759,0,0,1,2.094.417,3.512,3.512,0,0,1,1.385,1.192,5.383,5.383,0,0,1,.774,1.841,10.468,10.468,0,0,1,.247,2.363l-3.16.3q0-.552-.052-1.11a5.518,5.518,0,0,0-.186-1.021,1.916,1.916,0,0,0-.387-.744.84.84,0,0,0-.656-.283.866.866,0,0,0-.864.529,3.741,3.741,0,0,0-.239,1.5,4.768,4.768,0,0,0,.67,2.415,31.422,31.422,0,0,0,1.8,2.711,32,32,0,0,1,2.214,3.367,6.87,6.87,0,0,1,.857,3.4,8.975,8.975,0,0,1-.253,2.183,5.023,5.023,0,0,1-.8,1.75,3.738,3.738,0,0,1-1.385,1.163,4.545,4.545,0,0,1-2.034.417" transform="translate(7.234 7.331)" fill="#253081"/>
    </g>
    <g id="quartiere" transform="translate(869.07 885.794)">
      <path id="Path_3320" data-name="Path 3320" d="M560.278,10.064c-3.985-.285-6.4,5.549-8.112,7.4s-4.127,1.28-9.392,0-11.1-6.973-12.807-7.684-2.419.427-8.965,3.558-25.187-2.562-27.891-3.471S486.99,7.644,485,8.5s-16.792,1.85-18.641,2.562-7.4-1-7.4-1-.569,1-1.138,2.276-.285,3.131-.427,8.823,5.692,6.973,5.692,9.534a37.367,37.367,0,0,1-.712,6.053s-7.4,2.2-11.526,3.482,2.135,10.673,2.562,14.23.854,3.273,2.7,7.258,1,1.849,4.411,5.265,4.838,1.708,7.4,1.993,10.815,6.4,15.369,9.534,22.769,8.538,28.319,9.392,7.826.569,10.957-2.7,4.269-11.669,5.55-15.938,3.7,2.135,4.7,3.131,3.273,4.7,8.254,4.7,3.131-4.411,2.7-6.83,5.266-3.273,8.681-4.269,4.127.569,6.119,0,5.692-5.55,7.542-7.542,0-10.958-2.7-13.092-9.819-4.839-10.816-6.689,1.281-4.269,2.419-6.83,9.392-3.558,10.957-4.127,5.408-1.138,6.4-4.411-8.111-12.95-12.1-13.234M494.284,46.422a.765.765,0,0,1-.009.1c0,.126.009.252.009.379a8.8,8.8,0,0,1-8.8,8.8V49.579a8.8,8.8,0,0,1,0-17.608H493.2a1.089,1.089,0,0,1,1.087,1.086Zm20.243,2.783a1.084,1.084,0,0,1-1.911,0l-3.41-6.312L505.9,49.155a1.087,1.087,0,0,1-1.92,0l-8.227-15.592a1.085,1.085,0,0,1,.96-1.592h10.741l1.739,3.3,1.738-3.3h11.082a1.086,1.086,0,0,1,.956,1.6Zm25.023-2.783a.777.777,0,0,1-.009.1c0,.126.009.252.009.379a8.8,8.8,0,0,1-8.8,8.8V49.579a8.8,8.8,0,1,1,0-17.608h7.717a1.087,1.087,0,0,1,1.087,1.086Z" transform="translate(-443.787 -8.221)" fill="#253081"/>
      <path id="Path_3321" data-name="Path 3321" d="M453.32,127.792a3.808,3.808,0,0,1-2.195-.58,4.433,4.433,0,0,1-1.276-1.26,2.1,2.1,0,0,1-.66.288,3.263,3.263,0,0,1-.911.127,3.976,3.976,0,0,1-2.285-.624,3.8,3.8,0,0,1-1.38-1.69,6.037,6.037,0,0,1-.46-2.4V108.806a5.49,5.49,0,0,1,.512-2.4,4.037,4.037,0,0,1,1.476-1.691,4.516,4.516,0,0,1,4.576,0,4.062,4.062,0,0,1,1.467,1.691,5.489,5.489,0,0,1,.512,2.4v12.845a5.368,5.368,0,0,1-.23,1.609,3.253,3.253,0,0,1-.527,1.091,1.318,1.318,0,0,0,.55.489,2.348,2.348,0,0,0,.83.224Zm-4.895-4.539a.849.849,0,0,0,.831-.482,2.5,2.5,0,0,0,.236-1.12V108.806a2.538,2.538,0,0,0-.236-1.106.937.937,0,0,0-1.654,0,2.469,2.469,0,0,0-.245,1.106v12.845a2.384,2.384,0,0,0,.251,1.12.854.854,0,0,0,.816.482" transform="translate(-444.154 -1.549)" fill="#253081"/>
      <path id="Path_3322" data-name="Path 3322" d="M464.04,126.352a4.133,4.133,0,0,1-2.307-.623,4.008,4.008,0,0,1-1.46-1.691,5.537,5.537,0,0,1-.5-2.4V104.312h3.2v17.323a2.376,2.376,0,0,0,.251,1.121.945.945,0,0,0,1.647,0,2.524,2.524,0,0,0,.235-1.121V104.312h3.2v17.323a5.494,5.494,0,0,1-.511,2.4,3.962,3.962,0,0,1-3.76,2.314" transform="translate(-443.068 -1.533)" fill="#253081"/>
      <path id="Path_3323" data-name="Path 3323" d="M474.9,126.115l3.293-21.8h3.916l3.292,21.8h-3.115l-.594-4.45H478.6l-.594,4.45Zm4.153-7.831h2.195l-.919-7.328-.089-1.156h-.179l-.089,1.156Z" transform="translate(-442.015 -1.533)" fill="#253081"/>
      <path id="Path_3324" data-name="Path 3324" d="M491.856,126.115v-21.8h3.2a5.283,5.283,0,0,1,4.242,1.595,7.039,7.039,0,0,1,1.365,4.694,7.279,7.279,0,0,1-.645,3.181,4.81,4.81,0,0,1-1.565,1.965l2.18,10.368h-3.2l-1.81-9.2h-.564v9.2Zm3.2-12.161a2.278,2.278,0,0,0,1.409-.394,2.141,2.141,0,0,0,.742-1.12,5.9,5.9,0,0,0,.222-1.721,4.622,4.622,0,0,0-.511-2.395,2.005,2.005,0,0,0-1.862-.839Z" transform="translate(-440.834 -1.533)" fill="#253081"/>
      <path id="Path_3325" data-name="Path 3325" d="M509.5,126.115V107.6h-3.025v-3.293h9.254V107.6H512.7v18.511Z" transform="translate(-439.816 -1.533)" fill="#253081"/>
      <rect id="Rectangle_425" data-name="Rectangle 425" width="3.203" height="21.804" transform="translate(83.326 102.779)" fill="#253081"/>
      <path id="Path_3326" data-name="Path 3326" d="M532.819,126.115v-21.8h7.328V107.6h-4.124v5.873h2.967v3.2h-2.967v6.141h4.124v3.293Z" transform="translate(-437.984 -1.533)" fill="#253081"/>
      <path id="Path_3327" data-name="Path 3327" d="M547.435,126.115v-21.8h3.2a5.283,5.283,0,0,1,4.242,1.595,7.039,7.039,0,0,1,1.365,4.694,7.278,7.278,0,0,1-.645,3.181,4.81,4.81,0,0,1-1.565,1.965l2.18,10.368h-3.2l-1.81-9.2h-.564v9.2Zm3.2-12.161a2.278,2.278,0,0,0,1.409-.394,2.141,2.141,0,0,0,.742-1.12,5.9,5.9,0,0,0,.222-1.721,4.622,4.622,0,0,0-.511-2.395,2.005,2.005,0,0,0-1.862-.839Z" transform="translate(-436.966 -1.533)" fill="#253081"/>
      <path id="Path_3328" data-name="Path 3328" d="M562.883,126.115v-21.8h7.328V107.6h-4.124v5.873h2.967v3.2h-2.967v6.141h4.124v3.293Z" transform="translate(-435.89 -1.533)" fill="#253081"/>
    </g>
    <g id="gwg_in_kassel" data-name="gwg in kassel" transform="translate(1372.992 878.446)">
      <rect id="Rectangle_426" data-name="Rectangle 426" width="3.164" height="21.535" transform="translate(94.433 12.153)" fill="#253081"/>
      <path id="Path_3329" data-name="Path 3329" d="M1014.2,34.25V12.715h2.96l2.93,11.221.264,1h.175V12.715h2.9V34.25h-2.667l-3.223-11.222-.264-1h-.175V34.25Z" transform="translate(-908.399 -0.561)" fill="#253081"/>
      <path id="Path_3330" data-name="Path 3330" d="M966.159,50.157h-.177L965.9,51.3l-.908,7.238h2.168l-.908-7.238Z" transform="translate(-911.825 2.045)" fill="#253081" fill-rule="evenodd"/>
      <path id="Path_3331" data-name="Path 3331" d="M996.957,6.391a5.039,5.039,0,0,0-5.039-5.039h-35.8a40.837,40.837,0,0,0,0,81.674v28.4a40.832,40.832,0,0,0,40.836-40.836c0-.586-.019-1.172-.039-1.757a3.53,3.53,0,0,0,.039-.449ZM948.01,17.93a5.337,5.337,0,0,1,.512-2.36,4.116,4.116,0,0,1,1.465-1.677,4,4,0,0,1,2.241-.621,4.191,4.191,0,0,1,1.766.358,3.829,3.829,0,0,1,1.334,1,4.5,4.5,0,0,1,.834,1.488,5.591,5.591,0,0,1,.286,1.809v3.31h-3.164V17.93a2.464,2.464,0,0,0-.234-1.113.935.935,0,0,0-1.634.021,2.45,2.45,0,0,0-.242,1.092V30.881a2.339,2.339,0,0,0,.249,1.106.932.932,0,0,0,1.627,0,2.473,2.473,0,0,0,.234-1.106v-3.6h-1.26V24.317h4.424V35.041h-1.875l-.381-1.172a3.017,3.017,0,0,1-1.048,1.033,2.748,2.748,0,0,1-1.413.373,3.443,3.443,0,0,1-2.124-.615A3.562,3.562,0,0,1,948.4,32.99a6.836,6.836,0,0,1-.388-2.373Zm6.417,51.739-2.109-9.816h-.089l-.908,2.2v7.618h-3.164V48.133h3.164v7.531h.118l.147-.353,2.461-7.178H957.3l-2.9,7.091,3.281,14.444Zm17.213,0-.585-4.394h-3.047l-.586,4.394h-3.077L967.6,48.133h3.867l3.253,21.535Zm3.5-34.627H972.68l-1.465-10.2-.175-1.26h-.118l-.175,1.26-1.465,10.2H966.82l-2.9-21.535h2.93L968.11,24.7l.058.7h.234l.089-.7,1.348-11.192h2.286L973.472,24.7l.088.7h.234l.059-.7,1.26-11.192h2.93Zm10.242,20.125a30.668,30.668,0,0,0,1.772,2.667,31.294,31.294,0,0,1,2.176,3.309,6.744,6.744,0,0,1,.843,3.341,8.8,8.8,0,0,1-.249,2.147,4.937,4.937,0,0,1-.784,1.72,3.677,3.677,0,0,1-1.362,1.143,4.468,4.468,0,0,1-2,.41,4.854,4.854,0,0,1-2.169-.431,3.277,3.277,0,0,1-1.363-1.253,5.784,5.784,0,0,1-.709-1.979,14.442,14.442,0,0,1-.213-2.608l3.106-.293c0,.468.016.921.051,1.355a6.389,6.389,0,0,0,.19,1.172,1.993,1.993,0,0,0,.41.827.883.883,0,0,0,.7.309,1.016,1.016,0,0,0,1-.652,3.816,3.816,0,0,0,.293-1.574,4.4,4.4,0,0,0-.484-1.92,11.414,11.414,0,0,0-1.157-1.89q-1.144-1.523-2-2.827a13.209,13.209,0,0,1-1.333-2.564,7.4,7.4,0,0,1-.476-2.637,6.831,6.831,0,0,1,.278-2,4.812,4.812,0,0,1,.813-1.6,3.781,3.781,0,0,1,1.3-1.062,3.831,3.831,0,0,1,1.742-.381,4.686,4.686,0,0,1,2.059.41,3.465,3.465,0,0,1,1.363,1.172,5.3,5.3,0,0,1,.761,1.809,10.383,10.383,0,0,1,.242,2.323l-3.106.293c0-.362-.017-.726-.051-1.092a5.411,5.411,0,0,0-.183-1,1.885,1.885,0,0,0-.381-.733.826.826,0,0,0-.645-.278.852.852,0,0,0-.849.52,3.69,3.69,0,0,0-.234,1.473,4.687,4.687,0,0,0,.659,2.373m8.423-33.926h-3.164V17.93a2.463,2.463,0,0,0-.234-1.113.935.935,0,0,0-1.634.021,2.451,2.451,0,0,0-.242,1.092V30.881a2.339,2.339,0,0,0,.249,1.106.932.932,0,0,0,1.627,0,2.471,2.471,0,0,0,.234-1.106v-3.6h-1.26V24.317h4.424V35.041h-1.875l-.381-1.172A3.025,3.025,0,0,1,990.5,34.9a2.749,2.749,0,0,1-1.413.373,3.442,3.442,0,0,1-2.124-.615,3.562,3.562,0,0,1-1.209-1.671,6.835,6.835,0,0,1-.388-2.373V17.93a5.337,5.337,0,0,1,.512-2.36,4.117,4.117,0,0,1,1.465-1.677,4,4,0,0,1,2.241-.621,4.191,4.191,0,0,1,1.766.358,3.825,3.825,0,0,1,1.333,1,4.486,4.486,0,0,1,.835,1.488,5.591,5.591,0,0,1,.286,1.809Z" transform="translate(-915.284 -1.352)" fill="#253081" fill-rule="evenodd"/>
      <path id="Path_3332" data-name="Path 3332" d="M996.219,66.874a4.839,4.839,0,0,1-2.169-.432,3.261,3.261,0,0,1-1.362-1.253,5.781,5.781,0,0,1-.71-1.978,14.462,14.462,0,0,1-.213-2.608l3.106-.293c0,.468.016.921.051,1.355a6.43,6.43,0,0,0,.19,1.172,2.006,2.006,0,0,0,.41.827.886.886,0,0,0,.7.308,1.017,1.017,0,0,0,1-.651,3.816,3.816,0,0,0,.293-1.574,4.4,4.4,0,0,0-.483-1.92,11.406,11.406,0,0,0-1.157-1.89q-1.144-1.524-2-2.828a13.172,13.172,0,0,1-1.333-2.563,7.4,7.4,0,0,1-.476-2.637,6.831,6.831,0,0,1,.278-2,4.836,4.836,0,0,1,.813-1.6,3.778,3.778,0,0,1,1.3-1.061,3.831,3.831,0,0,1,1.742-.381,4.685,4.685,0,0,1,2.059.41,3.447,3.447,0,0,1,1.363,1.172,5.3,5.3,0,0,1,.762,1.809,10.383,10.383,0,0,1,.242,2.323l-3.106.292q0-.542-.051-1.091a5.44,5.44,0,0,0-.183-1,1.883,1.883,0,0,0-.381-.732.824.824,0,0,0-.645-.278.851.851,0,0,0-.849.52,3.685,3.685,0,0,0-.234,1.472,4.688,4.688,0,0,0,.659,2.375A30.508,30.508,0,0,0,997.6,54.8a31.409,31.409,0,0,1,2.176,3.31,6.739,6.739,0,0,1,.843,3.341,8.774,8.774,0,0,1-.249,2.146,4.916,4.916,0,0,1-.784,1.721,3.681,3.681,0,0,1-1.362,1.143,4.483,4.483,0,0,1-2,.41" transform="translate(-909.962 1.677)" fill="#253081"/>
      <path id="Path_3333" data-name="Path 3333" d="M1007.1,66.625V45.089h7.237v3.253h-4.073v5.8h2.931v3.165h-2.931v6.065h4.073v3.253Z" transform="translate(-908.893 1.692)" fill="#253081"/>
      <path id="Path_3334" data-name="Path 3334" d="M1021.541,66.625V45.089h3.164v18.6h4.191v2.931Z" transform="translate(-907.887 1.692)" fill="#253081"/>
    </g>
    <path id="Path_3335" data-name="Path 3335" d="M781.817,106.563q-3.376,0-6.757-.052l.049-3.209c7.518.117,15.074.035,22.373-.241l.123,3.207c-5.167.2-10.479.3-15.788.3m-29.276-.944c-7.292-.458-14.845-1.1-22.448-1.9l.336-3.192c7.559.795,15.067,1.429,22.314,1.885Zm67.569-.862-.311-3.195c7.489-.728,14.948-1.7,22.167-2.877l.519,3.167c-7.289,1.19-14.817,2.168-22.375,2.905m-112.365-3.812c-7.207-1.027-14.688-2.218-22.235-3.541l.555-3.161c7.512,1.318,14.958,2.5,22.131,3.525Zm156.869-3.5-.737-3.123c7.272-1.72,14.516-3.717,21.529-5.935l.967,3.058c-7.087,2.244-14.409,4.262-21.759,6M663.4,93.2c-7.1-1.447-14.5-3.048-21.992-4.759l.714-3.128c7.47,1.7,14.844,3.3,21.919,4.743Zm244.216-9.4-1.2-2.975c5.022-2.03,10.04-4.228,14.919-6.533l1.37,2.9c-4.932,2.332-10.008,4.554-15.086,6.606m-288.087-.588c-6.955-1.731-14.282-3.618-21.777-5.61l.824-3.1c7.479,1.987,14.789,3.871,21.729,5.6Z" transform="translate(435.605 882.171)" fill="#253081"/>
    <path id="Path_3336" data-name="Path 3336" d="M141.37,62.587l-2.319-2.218c.241-.251,6.035-6.249,19.252-14.2l1.655,2.749c-12.8,7.7-18.531,13.611-18.588,13.67m39.3-24.384-1.308-2.931c6.925-3.09,14.344-5.978,22.056-8.585l1.028,3.04C194.827,32.3,187.5,35.154,180.668,38.2m252.861-11.26c-7.931-1.9-15.639-3.643-22.909-5.17l.661-3.14c7.3,1.535,15.036,3.28,23,5.191ZM224.887,23.131l-.787-3.11c7.413-1.878,15.181-3.567,23.086-5.022l.581,3.157c-7.837,1.44-15.534,3.115-22.88,4.975m162.688-5.779c-7.989-1.373-15.794-2.533-23.2-3.446l.393-3.184c7.455.919,15.311,2.086,23.351,3.468ZM270.923,14.6l-.4-3.183c7.619-.952,15.522-1.731,23.489-2.317l.235,3.2c-7.913.582-15.761,1.356-23.327,2.3m70.126-2.875c-6.5-.4-12.882-.6-18.976-.6q-2.217,0-4.419.035L317.6,7.946q2.227-.037,4.47-.035c6.16,0,12.611.2,19.174.61Z" transform="translate(403.678 877.551)" fill="#253081"/>
  </g>
</svg>
