<svg xmlns="http://www.w3.org/2000/svg" width="2322.721" height="1269.524" viewBox="0 0 2322.721 1269.524">
  <g id="Group_3789" data-name="Group 3789" transform="translate(296.342 -4404.18)">
    <g id="Group_3788" data-name="Group 3788">
      <g id="gestrichelte_Linie" data-name="gestrichelte Linie" transform="translate(-296.342 4806.787) rotate(-11)" fill="none" stroke-dasharray="25">
        <path d="M40,0H2070c22.091,0,40,10.892,40,24.328V858.682c0,13.436-17.909,24.328-40,24.328H40c-22.091,0-40-10.892-40-24.328V24.328C0,10.892,17.909,0,40,0Z" stroke="none"/>
        <path d="M 40 6.103515625e-05 L 65 6.103515625e-05 L 65 3.00006103515625 L 40 3.00006103515625 L 40 6.103515625e-05 C 40 6.103515625e-05 40 6.103515625e-05 40 6.103515625e-05 Z M 90 6.103515625e-05 L 115 6.103515625e-05 L 115 3.00006103515625 L 90 3.00006103515625 L 90 6.103515625e-05 Z M 140 6.103515625e-05 L 165 6.103515625e-05 L 165 3.00006103515625 L 140 3.00006103515625 L 140 6.103515625e-05 Z M 190 6.103515625e-05 L 215 6.103515625e-05 L 215 3.00006103515625 L 190 3.00006103515625 L 190 6.103515625e-05 Z M 240 6.103515625e-05 L 265 6.103515625e-05 L 265 3.00006103515625 L 240 3.00006103515625 L 240 6.103515625e-05 Z M 290 6.103515625e-05 L 315 6.103515625e-05 L 315 3.00006103515625 L 290 3.00006103515625 L 290 6.103515625e-05 Z M 340 6.103515625e-05 L 365 6.103515625e-05 L 365 3.00006103515625 L 340 3.00006103515625 L 340 6.103515625e-05 Z M 390 6.103515625e-05 L 415 6.103515625e-05 L 415 3.00006103515625 L 390 3.00006103515625 L 390 6.103515625e-05 Z M 440 6.103515625e-05 L 465 6.103515625e-05 L 465 3.00006103515625 L 440 3.00006103515625 L 440 6.103515625e-05 Z M 490 6.103515625e-05 L 515 6.103515625e-05 L 515 3.00006103515625 L 490 3.00006103515625 L 490 6.103515625e-05 Z M 540 6.103515625e-05 L 565 6.103515625e-05 L 565 3.00006103515625 L 540 3.00006103515625 L 540 6.103515625e-05 Z M 590 6.103515625e-05 L 615 6.103515625e-05 L 615 3.00006103515625 L 590 3.00006103515625 L 590 6.103515625e-05 Z M 640 6.103515625e-05 L 665 6.103515625e-05 L 665 3.00006103515625 L 640 3.00006103515625 L 640 6.103515625e-05 Z M 690 6.103515625e-05 L 715 6.103515625e-05 L 715 3.00006103515625 L 690 3.00006103515625 L 690 6.103515625e-05 Z M 740 6.103515625e-05 L 765 6.103515625e-05 L 765 3.00006103515625 L 740 3.00006103515625 L 740 6.103515625e-05 Z M 790 6.103515625e-05 L 815 6.103515625e-05 L 815 3.00006103515625 L 790 3.00006103515625 L 790 6.103515625e-05 Z M 840 6.103515625e-05 L 865 6.103515625e-05 L 865 3.00006103515625 L 840 3.00006103515625 L 840 6.103515625e-05 Z M 890 6.103515625e-05 L 915 6.103515625e-05 L 915 3.00006103515625 L 890 3.00006103515625 L 890 6.103515625e-05 Z M 940 6.103515625e-05 L 965 6.103515625e-05 L 965 3.00006103515625 L 940 3.00006103515625 L 940 6.103515625e-05 Z M 990 6.103515625e-05 L 1015 6.103515625e-05 L 1015 3.00006103515625 L 990 3.00006103515625 L 990 6.103515625e-05 Z M 1040 6.103515625e-05 L 1065 6.103515625e-05 L 1065 3.00006103515625 L 1040 3.00006103515625 L 1040 6.103515625e-05 Z M 1090 6.103515625e-05 L 1115 6.103515625e-05 L 1115 3.00006103515625 L 1090 3.00006103515625 L 1090 6.103515625e-05 Z M 1140 6.103515625e-05 L 1165 6.103515625e-05 L 1165 3.00006103515625 L 1140 3.00006103515625 L 1140 6.103515625e-05 Z M 1190 6.103515625e-05 L 1215 6.103515625e-05 L 1215 3.00006103515625 L 1190 3.00006103515625 L 1190 6.103515625e-05 Z M 1240 6.103515625e-05 L 1265 6.103515625e-05 L 1265 3.00006103515625 L 1240 3.00006103515625 L 1240 6.103515625e-05 Z M 1290 6.103515625e-05 L 1315 6.103515625e-05 L 1315 3.00006103515625 L 1290 3.00006103515625 L 1290 6.103515625e-05 Z M 1340 6.103515625e-05 L 1365 6.103515625e-05 L 1365 3.00006103515625 L 1340 3.00006103515625 L 1340 6.103515625e-05 Z M 1390 6.103515625e-05 L 1415 6.103515625e-05 L 1415 3.00006103515625 L 1390 3.00006103515625 L 1390 6.103515625e-05 Z M 1440 6.103515625e-05 L 1465 6.103515625e-05 L 1465 3.00006103515625 L 1440 3.00006103515625 L 1440 6.103515625e-05 Z M 1490 6.103515625e-05 L 1515 6.103515625e-05 L 1515 3.00006103515625 L 1490 3.00006103515625 L 1490 6.103515625e-05 Z M 1540 6.103515625e-05 L 1565 6.103515625e-05 L 1565 3.00006103515625 L 1540 3.00006103515625 L 1540 6.103515625e-05 Z M 1590 6.103515625e-05 L 1615 6.103515625e-05 L 1615 3.00006103515625 L 1590 3.00006103515625 L 1590 6.103515625e-05 Z M 1640 6.103515625e-05 L 1665 6.103515625e-05 L 1665 3.00006103515625 L 1640 3.00006103515625 L 1640 6.103515625e-05 Z M 1690 6.103515625e-05 L 1715 6.103515625e-05 L 1715 3.00006103515625 L 1690 3.00006103515625 L 1690 6.103515625e-05 Z M 1740 6.103515625e-05 L 1765 6.103515625e-05 L 1765 3.00006103515625 L 1740 3.00006103515625 L 1740 6.103515625e-05 Z M 1790 6.103515625e-05 L 1815 6.103515625e-05 L 1815 3.00006103515625 L 1790 3.00006103515625 L 1790 6.103515625e-05 Z M 1840 6.103515625e-05 L 1865 6.103515625e-05 L 1865 3.00006103515625 L 1840 3.00006103515625 L 1840 6.103515625e-05 Z M 1890 6.103515625e-05 L 1915 6.103515625e-05 L 1915 3.00006103515625 L 1890 3.00006103515625 L 1890 6.103515625e-05 Z M 1940 6.103515625e-05 L 1965 6.103515625e-05 L 1965 3.00006103515625 L 1940 3.00006103515625 L 1940 6.103515625e-05 Z M 1990 6.103515625e-05 L 2015 6.103515625e-05 L 2015 3.00006103515625 L 1990 3.00006103515625 L 1990 6.103515625e-05 Z M 2040 6.103515625e-05 L 2065 6.103515625e-05 L 2065 3.00006103515625 L 2040 3.00006103515625 L 2040 6.103515625e-05 Z M 2089.66162109375 3.13702392578125 C 2093.49462890625 4.45538330078125 2096.93505859375 6.1478271484375 2099.84814453125 8.13214111328125 C 2099.848876953125 8.13275146484375 2099.850341796875 8.13360595703125 2099.85107421875 8.13421630859375 C 2099.863525390625 8.1427001953125 2099.8759765625 8.151123046875 2099.888427734375 8.15966796875 C 2099.88916015625 8.16021728515625 2099.889892578125 8.16070556640625 2099.890869140625 8.1612548828125 C 2099.9033203125 8.1697998046875 2099.91357421875 8.17694091796875 2099.926025390625 8.1854248046875 C 2099.9287109375 8.18719482421875 2099.931396484375 8.18914794921875 2099.93408203125 8.19091796875 C 2099.944091796875 8.19775390625 2099.955322265625 8.2054443359375 2099.965087890625 8.2122802734375 C 2099.968505859375 8.21466064453125 2099.97119140625 8.2164306640625 2099.974609375 8.21881103515625 C 2099.9853515625 8.2261962890625 2099.99462890625 8.23260498046875 2100.00537109375 8.239990234375 C 2100.008544921875 8.2420654296875 2100.01171875 8.24432373046875 2100.0146484375 8.24639892578125 C 2100.025390625 8.2537841796875 2100.035400390625 8.2606201171875 2100.046142578125 8.26806640625 C 2100.048583984375 8.26983642578125 2100.050537109375 8.2711181640625 2100.052978515625 8.27288818359375 C 2100.063720703125 8.28033447265625 2100.075439453125 8.28839111328125 2100.086181640625 8.29583740234375 C 2100.0888671875 8.297607421875 2100.090576171875 8.29888916015625 2100.093017578125 8.3006591796875 C 2100.103759765625 8.30810546875 2100.11572265625 8.3162841796875 2100.12646484375 8.32373046875 C 2100.127685546875 8.32464599609375 2100.130126953125 8.3262939453125 2100.13134765625 8.32720947265625 C 2100.1435546875 8.3358154296875 2100.15380859375 8.34283447265625 2100.166015625 8.3514404296875 C 2100.167724609375 8.35260009765625 2100.169921875 8.35406494140625 2100.171630859375 8.35528564453125 C 2100.182373046875 8.36273193359375 2100.1943359375 8.37115478515625 2100.205078125 8.37860107421875 C 2100.2080078125 8.38067626953125 2100.21044921875 8.38238525390625 2100.21337890625 8.38446044921875 C 2100.22412109375 8.3919677734375 2100.234130859375 8.3990478515625 2100.244873046875 8.406494140625 C 2100.247314453125 8.4083251953125 2100.24951171875 8.4097900390625 2100.251953125 8.41156005859375 C 2100.3271484375 8.46441650390625 2100.401123046875 8.5167236328125 2100.4755859375 8.57000732421875 C 2100.477294921875 8.57122802734375 2100.47900390625 8.57244873046875 2100.480712890625 8.57366943359375 C 2100.488037109375 8.578857421875 2100.495361328125 8.58404541015625 2100.50244140625 8.58929443359375 C 2100.5087890625 8.59381103515625 2100.51513671875 8.59832763671875 2100.521484375 8.60284423828125 C 2100.5263671875 8.6063232421875 2100.5302734375 8.6092529296875 2100.53515625 8.61273193359375 C 2100.5439453125 8.61907958984375 2100.552978515625 8.62554931640625 2100.561767578125 8.6318359375 C 2100.565185546875 8.6341552734375 2100.5703125 8.63787841796875 2100.573486328125 8.6402587890625 C 2100.582763671875 8.6468505859375 2100.5927734375 8.6541748046875 2100.60205078125 8.66082763671875 C 2100.605224609375 8.66314697265625 2100.608642578125 8.66552734375 2100.61181640625 8.6678466796875 C 2100.621826171875 8.67510986328125 2100.631591796875 8.68212890625 2100.6416015625 8.68939208984375 C 2100.644775390625 8.69171142578125 2100.6484375 8.69439697265625 2100.651611328125 8.69671630859375 C 2100.66162109375 8.7039794921875 2100.672119140625 8.7115478515625 2100.68212890625 8.71881103515625 C 2100.685302734375 8.72113037109375 2100.6865234375 8.7220458984375 2100.689697265625 8.724365234375 C 2100.7001953125 8.73193359375 2100.710693359375 8.73956298828125 2100.720947265625 8.74713134765625 C 2100.724365234375 8.74945068359375 2100.727783203125 8.7520751953125 2100.73095703125 8.75439453125 C 2100.741455078125 8.761962890625 2100.751220703125 8.7691650390625 2100.76171875 8.77679443359375 C 2100.76416015625 8.778564453125 2100.765869140625 8.7799072265625 2100.768310546875 8.78167724609375 C 2100.779541015625 8.78985595703125 2100.790771484375 8.798095703125 2100.802001953125 8.8062744140625 C 2100.803466796875 8.80743408203125 2100.80517578125 8.8087158203125 2100.806884765625 8.80987548828125 C 2100.8193359375 8.8189697265625 2100.831298828125 8.82769775390625 2100.843505859375 8.83685302734375 C 2100.843505859375 8.83685302734375 2100.843994140625 8.837158203125 2100.843994140625 8.837158203125 C 2100.85693359375 8.8465576171875 2100.86962890625 8.85595703125 2100.88232421875 8.86541748046875 C 2100.883056640625 8.865966796875 2100.88427734375 8.86669921875 2100.885009765625 8.8673095703125 C 2100.897705078125 8.87677001953125 2100.909912109375 8.88580322265625 2100.9228515625 8.895263671875 C 2100.9228515625 8.895263671875 2100.92333984375 8.895751953125 2100.92333984375 8.895751953125 C 2100.935791015625 8.9049072265625 2100.948486328125 8.914306640625 2100.960693359375 8.9234619140625 C 2100.961669921875 8.924072265625 2100.963623046875 8.925537109375 2100.96435546875 8.9261474609375 C 2100.989990234375 8.945068359375 2101.014892578125 8.9637451171875 2101.04052734375 8.9827880859375 C 2101.041259765625 8.9833984375 2101.04150390625 8.983642578125 2101.042236328125 8.9842529296875 C 2104.611572265625 11.6522216796875 2107.270263671875 14.78955078125 2108.728759765625 18.2200927734375 L 2105.9677734375 19.39373779296875 C 2103.60205078125 13.82904052734375 2097.302978515625 8.93768310546875 2088.685791015625 5.9739990234375 L 2089.66162109375 3.13702392578125 Z M 2107 43.04638671875 L 2110 43.04638671875 C 2110 43.04638671875 2110 68.04638671875 2110 68.04638671875 L 2107 68.04638671875 L 2107 43.04638671875 Z M 2107 93.04638671875 L 2110 93.04638671875 C 2110 93.04638671875 2110 118.04638671875 2110 118.04638671875 L 2107 118.04638671875 L 2107 93.04638671875 Z M 2107 143.04638671875 L 2110 143.04638671875 C 2110 143.04638671875 2110 168.04638671875 2110 168.04638671875 L 2107 168.04638671875 L 2107 143.04638671875 Z M 2107 193.04638671875 L 2110 193.04638671875 C 2110 193.04638671875 2110 218.04638671875 2110 218.04638671875 L 2107 218.04638671875 L 2107 193.04638671875 Z M 2107 243.04638671875 L 2110 243.04638671875 C 2110 243.04638671875 2110 268.04638671875 2110 268.04638671875 L 2107 268.04638671875 L 2107 243.04638671875 Z M 2107 293.04638671875 L 2110 293.04638671875 C 2110 293.04638671875 2110 318.04638671875 2110 318.04638671875 L 2107 318.04638671875 L 2107 293.04638671875 Z M 2107 343.04638671875 L 2110 343.04638671875 C 2110 343.04638671875 2110 368.04638671875 2110 368.04638671875 L 2107 368.04638671875 L 2107 343.04638671875 Z M 2107 393.04638671875 L 2110 393.04638671875 C 2110 393.04638671875 2110 418.04638671875 2110 418.04638671875 L 2107 418.04638671875 L 2107 393.04638671875 Z M 2107 443.04638671875 L 2110 443.04638671875 C 2110 443.04638671875 2110 468.04638671875 2110 468.04638671875 L 2107 468.04638671875 L 2107 443.04638671875 Z M 2107 493.04638671875 L 2110 493.04638671875 C 2110 493.04638671875 2110 518.04638671875 2110 518.04638671875 L 2107 518.04638671875 L 2107 493.04638671875 Z M 2107 543.04638671875 L 2110 543.04638671875 C 2110 543.04638671875 2110 568.04638671875 2110 568.04638671875 L 2107 568.04638671875 L 2107 543.04638671875 Z M 2107 593.04638671875 L 2110 593.04638671875 C 2110 593.04638671875 2110 618.04638671875 2110 618.04638671875 L 2107 618.04638671875 L 2107 593.04638671875 Z M 2107 643.04638671875 L 2110 643.04638671875 C 2110 643.04638671875 2110 668.04638671875 2110 668.04638671875 L 2107 668.04638671875 L 2107 643.04638671875 Z M 2107 693.04638671875 L 2110 693.04638671875 C 2110 693.04638671875 2110 718.04638671875 2110 718.04638671875 L 2107 718.04638671875 L 2107 693.04638671875 Z M 2107 743.04638671875 L 2110 743.04638671875 C 2110 743.04638671875 2110 768.04638671875 2110 768.04638671875 L 2107 768.04638671875 L 2107 743.04638671875 Z M 2107 793.04638671875 L 2110 793.04638671875 C 2110 793.04638671875 2110 818.04638671875 2110 818.04638671875 L 2107 818.04638671875 L 2107 793.04638671875 Z M 2107 843.04638671875 L 2110 843.04638671875 C 2110 843.04638671875 2110 858.681640625 2110 858.681640625 C 2110 858.681640625 2110 858.681640625 2110 858.681640625 C 2110 858.6939697265625 2110 858.707275390625 2110 858.7196044921875 C 2110 858.7241821289062 2110 858.72900390625 2110 858.7335815429688 C 2109.999755859375 858.7417602539062 2109.999755859375 858.7489013671875 2109.999755859375 858.757080078125 C 2109.999755859375 858.76318359375 2109.999755859375 858.7691040039062 2109.999755859375 858.775146484375 C 2109.999755859375 858.78173828125 2109.99951171875 858.78857421875 2109.99951171875 858.7951049804688 C 2109.99951171875 858.80078125 2109.99951171875 858.8062744140625 2109.99951171875 858.8119506835938 C 2109.999267578125 858.8193359375 2109.999267578125 858.826171875 2109.999267578125 858.8335571289062 C 2109.999267578125 858.8390502929688 2109.9990234375 858.8447875976562 2109.9990234375 858.850341796875 C 2109.9990234375 858.8568725585938 2109.998779296875 858.865234375 2109.998779296875 858.8717651367188 C 2109.998779296875 858.8768920898438 2109.998779296875 858.8821411132812 2109.99853515625 858.8872680664062 C 2109.99853515625 858.8945922851562 2109.998291015625 858.903076171875 2109.998291015625 858.910400390625 C 2109.998291015625 858.91552734375 2109.998046875 858.9209594726562 2109.998046875 858.9260864257812 C 2109.997802734375 858.9334106445312 2109.997802734375 858.940673828125 2109.99755859375 858.947998046875 C 2109.99755859375 858.953125 2109.99755859375 858.9585571289062 2109.997314453125 858.9636840820312 C 2109.997314453125 858.9710083007812 2109.9970703125 858.97900390625 2109.996826171875 858.9863891601562 C 2109.996826171875 858.9918823242188 2109.99658203125 858.9970092773438 2109.99658203125 859.0025024414062 C 2109.996337890625 859.0098876953125 2109.996337890625 859.0171508789062 2109.99609375 859.0244750976562 C 2109.99609375 859.0296020507812 2109.995849609375 859.0347900390625 2109.995849609375 859.0399169921875 C 2109.99560546875 859.0472412109375 2109.995361328125 859.055419921875 2109.9951171875 859.0628051757812 C 2109.9951171875 859.0679321289062 2109.994873046875 859.0732421875 2109.994873046875 859.078369140625 C 2109.99462890625 859.0865478515625 2109.994384765625 859.095458984375 2109.994140625 859.1035766601562 C 2109.993896484375 859.1076049804688 2109.993896484375 859.1114501953125 2109.99365234375 859.115478515625 C 2109.993408203125 859.1244506835938 2109.9931640625 859.1341552734375 2109.992919921875 859.1431274414062 C 2109.992919921875 859.1469116210938 2109.99267578125 859.150390625 2109.99267578125 859.1541748046875 C 2109.99169921875 859.1795043945312 2109.990966796875 859.2041015625 2109.989990234375 859.2294311523438 C 2109.989990234375 859.2337646484375 2109.98974609375 859.23828125 2109.989501953125 859.24267578125 C 2109.9892578125 859.2507934570312 2109.989013671875 859.2595825195312 2109.988525390625 859.2677612304688 C 2109.988525390625 859.2728271484375 2109.98828125 859.27783203125 2109.988037109375 859.282958984375 C 2109.98779296875 859.290283203125 2109.987548828125 859.2969970703125 2109.987060546875 859.3043212890625 C 2109.98681640625 859.310546875 2109.986572265625 859.31640625 2109.986328125 859.3226928710938 C 2109.986083984375 859.3300170898438 2109.98583984375 859.3353881835938 2109.985595703125 859.3427124023438 C 2109.9853515625 859.3485717773438 2109.985107421875 859.3544311523438 2109.984619140625 859.3602905273438 C 2109.984375 859.3668212890625 2109.984130859375 859.3734741210938 2109.98388671875 859.3800048828125 C 2109.983642578125 859.3860473632812 2109.983154296875 859.3920288085938 2109.98291015625 859.3980712890625 C 2109.982666015625 859.4046020507812 2109.982421875 859.4114990234375 2109.98193359375 859.4180297851562 C 2109.981689453125 859.4242553710938 2109.9814453125 859.4306030273438 2109.981201171875 859.4368286132812 C 2109.980712890625 859.4425048828125 2109.98046875 859.44873046875 2109.980224609375 859.4544067382812 C 2109.979736328125 859.4609985351562 2109.9794921875 859.4674682617188 2109.979248046875 859.4740600585938 C 2109.978759765625 859.4813842773438 2109.978515625 859.4867553710938 2109.97802734375 859.4940795898438 C 2109.977783203125 859.4999389648438 2109.9775390625 859.50537109375 2109.97705078125 859.51123046875 C 2109.976806640625 859.5177612304688 2109.976318359375 859.5255126953125 2109.97607421875 859.5320434570312 C 2109.9755859375 859.5376586914062 2109.975341796875 859.5427856445312 2109.97509765625 859.5484619140625 C 2109.974609375 859.5565795898438 2109.97412109375 859.564453125 2109.9736328125 859.5725708007812 C 2109.973388671875 859.5770874023438 2109.97314453125 859.5814819335938 2109.972900390625 859.5859985351562 C 2109.972412109375 859.5933227539062 2109.971923828125 859.6007690429688 2109.971435546875 859.6080932617188 C 2109.97119140625 859.61376953125 2109.970947265625 859.619140625 2109.970458984375 859.624755859375 C 2109.969970703125 859.632080078125 2109.969482421875 859.6390991210938 2109.968994140625 859.6464233398438 C 2109.96875 859.6514892578125 2109.968505859375 859.6569213867188 2109.968017578125 859.6619873046875 C 2109.96728515625 859.6749877929688 2109.966552734375 859.6864013671875 2109.965576171875 859.6993408203125 C 2109.96533203125 859.7022094726562 2109.96533203125 859.7052612304688 2109.965087890625 859.7080688476562 C 2109.96435546875 859.7178344726562 2109.963623046875 859.727294921875 2109.963134765625 859.737060546875 C 2109.962646484375 859.7417602539062 2109.96240234375 859.7464599609375 2109.9619140625 859.7511596679688 C 2109.96142578125 859.7584838867188 2109.9609375 859.7667236328125 2109.96044921875 859.7740478515625 C 2109.9599609375 859.780029296875 2109.95947265625 859.7860717773438 2109.958984375 859.7921142578125 C 2109.95849609375 859.798583984375 2109.9580078125 859.8050537109375 2109.95751953125 859.8115234375 C 2109.957275390625 859.8175659179688 2109.956787109375 859.8230590820312 2109.956298828125 859.8291015625 C 2109.955810546875 859.8355712890625 2109.955322265625 859.8427124023438 2109.954833984375 859.8491821289062 C 2109.954345703125 859.8554077148438 2109.953857421875 859.861572265625 2109.953369140625 859.8677368164062 C 2109.952880859375 859.8734130859375 2109.952392578125 859.88037109375 2109.951904296875 859.8860473632812 C 2109.951171875 859.892822265625 2109.95068359375 859.899658203125 2109.9501953125 859.9064331054688 C 2109.94970703125 859.9112548828125 2109.94921875 859.9171142578125 2109.948974609375 859.9219970703125 C 2109.9482421875 859.9298706054688 2109.94775390625 859.937255859375 2109.947021484375 859.9451293945312 C 2109.946533203125 859.94921875 2109.946044921875 859.9549560546875 2109.94580078125 859.958984375 C 2109.945068359375 859.96630859375 2109.944580078125 859.9737548828125 2109.94384765625 859.9810180664062 C 2109.943603515625 859.9859008789062 2109.94287109375 859.9921264648438 2109.942626953125 859.9970092773438 C 2109.94189453125 860.0043334960938 2109.941162109375 860.0117797851562 2109.940673828125 860.0191040039062 C 2109.940185546875 860.0239868164062 2109.939697265625 860.028564453125 2109.939208984375 860.033447265625 C 2109.938720703125 860.0408935546875 2109.93798828125 860.0484008789062 2109.937255859375 860.055908203125 C 2109.936767578125 860.0607299804688 2109.936279296875 860.0653076171875 2109.93603515625 860.0701904296875 C 2109.935302734375 860.0780639648438 2109.9345703125 860.0858154296875 2109.933837890625 860.0936889648438 C 2109.933349609375 860.0985107421875 2109.932861328125 860.1033935546875 2109.932373046875 860.1082763671875 C 2109.931640625 860.1153564453125 2109.930908203125 860.1224975585938 2109.930419921875 860.129638671875 C 2109.9296875 860.13525390625 2109.92919921875 860.1414184570312 2109.9287109375 860.1470336914062 C 2109.92578125 860.1764526367188 2109.9228515625 860.2059326171875 2109.919677734375 860.2353515625 C 2109.919677734375 860.2369384765625 2109.91943359375 860.237548828125 2109.91943359375 860.2391967773438 C 2109.91845703125 860.2474365234375 2109.91748046875 860.255859375 2109.916748046875 860.2640991210938 C 2109.916259765625 860.2689208984375 2109.915771484375 860.2728271484375 2109.915283203125 860.2776489257812 C 2109.91455078125 860.28515625 2109.913818359375 860.29248046875 2109.912841796875 860.2999877929688 C 2109.912353515625 860.3048095703125 2109.911865234375 860.3092651367188 2109.911376953125 860.3141479492188 C 2109.91064453125 860.32177734375 2109.90966796875 860.3295288085938 2109.908935546875 860.3372192382812 C 2109.908203125 860.342041015625 2109.90771484375 860.3467407226562 2109.9072265625 860.3515625 C 2109.906494140625 860.3592529296875 2109.905517578125 860.36669921875 2109.90478515625 860.3743896484375 C 2109.904296875 860.37841796875 2109.903564453125 860.3838500976562 2109.903076171875 860.3878784179688 C 2109.90234375 860.3955078125 2109.9013671875 860.4035034179688 2109.900390625 860.4111328125 C 2109.89990234375 860.416015625 2109.8994140625 860.4210205078125 2109.898681640625 860.4258422851562 C 2109.89794921875 860.43310546875 2109.89697265625 860.44091796875 2109.896240234375 860.4481811523438 C 2109.8955078125 860.4530029296875 2109.89501953125 860.456787109375 2109.89453125 860.4616088867188 C 2109.8935546875 860.4697875976562 2109.892578125 860.47802734375 2109.8916015625 860.4862670898438 C 2109.89111328125 860.4894409179688 2109.890625 860.4934692382812 2109.890380859375 860.4966430664062 C 2109.88916015625 860.505615234375 2109.88818359375 860.5147705078125 2109.886962890625 860.5237426757812 C 2109.88671875 860.526123046875 2109.886474609375 860.5286254882812 2109.88623046875 860.5310668945312 C 2109.885009765625 860.5411376953125 2109.8837890625 860.5509033203125 2109.88232421875 860.5609130859375 C 2109.88232421875 860.5625610351562 2109.882080078125 860.5629272460938 2109.882080078125 860.5645141601562 C 2109.874755859375 860.6226806640625 2109.866943359375 860.6807861328125 2109.85888671875 860.7388305664062 C 2109.85888671875 860.7396850585938 2109.85888671875 860.73974609375 2109.858642578125 860.7405395507812 C 2109.857421875 860.7511596679688 2109.85595703125 860.7613525390625 2109.8544921875 860.77197265625 C 2109.854248046875 860.7735595703125 2109.85400390625 860.7754516601562 2109.853759765625 860.7770385742188 C 2109.852294921875 860.787109375 2109.850830078125 860.7973022460938 2109.849365234375 860.807373046875 C 2109.84912109375 860.8097534179688 2109.848876953125 860.8110961914062 2109.8486328125 860.8134765625 C 2109.84716796875 860.8231811523438 2109.845703125 860.8326416015625 2109.844482421875 860.8423461914062 C 2109.843994140625 860.8447265625 2109.843505859375 860.847900390625 2109.84326171875 860.8502807617188 C 2109.841796875 860.8599243164062 2109.84033203125 860.8695678710938 2109.839111328125 860.8792114257812 C 2109.838623046875 860.881591796875 2109.83837890625 860.8838500976562 2109.837890625 860.88623046875 C 2109.83642578125 860.8958740234375 2109.835205078125 860.9056396484375 2109.833740234375 860.915283203125 C 2109.833251953125 860.9176635742188 2109.8330078125 860.9200439453125 2109.83251953125 860.9224853515625 C 2109.8310546875 860.9323120117188 2109.82958984375 860.942138671875 2109.828125 860.9520263671875 C 2109.827880859375 860.95361328125 2109.827392578125 860.9564819335938 2109.8271484375 860.9581298828125 C 2109.82568359375 860.9679565429688 2109.82421875 860.9781494140625 2109.822509765625 860.9879760742188 C 2109.822265625 860.9903564453125 2109.822021484375 860.9917602539062 2109.821533203125 860.994140625 C 2109.820068359375 861.0046997070312 2109.818359375 861.0149536132812 2109.816650390625 861.0255126953125 C 2109.816650390625 861.0255126953125 2109.816650390625 861.0260009765625 2109.816650390625 861.0260009765625 C 2109.4736328125 863.2071533203125 2108.6572265625 865.3046264648438 2107.430419921875 867.2794189453125 C 2107.428955078125 867.2815551757812 2107.427490234375 867.2839965820312 2107.42626953125 867.2861328125 C 2107.42138671875 867.2938842773438 2107.416748046875 867.301513671875 2107.411865234375 867.3092041015625 C 2107.41015625 867.3121337890625 2107.4072265625 867.316650390625 2107.405517578125 867.3195190429688 C 2107.4013671875 867.3260498046875 2107.397216796875 867.3324584960938 2107.393310546875 867.3390502929688 C 2107.3896484375 867.3447875976562 2107.38671875 867.3492431640625 2107.38330078125 867.3550415039062 C 2107.38037109375 867.3595581054688 2107.37744140625 867.3640747070312 2107.374755859375 867.3685913085938 C 2107.3701171875 867.3757934570312 2107.365966796875 867.3823852539062 2107.361328125 867.3896484375 C 2107.35888671875 867.393798828125 2107.356201171875 867.3978271484375 2107.353515625 867.4019775390625 C 2107.3486328125 867.409912109375 2107.344482421875 867.4163208007812 2107.339599609375 867.42431640625 C 2107.33740234375 867.4276123046875 2107.33544921875 867.430908203125 2107.333251953125 867.4342041015625 C 2107.32763671875 867.44287109375 2107.322509765625 867.4512329101562 2107.31689453125 867.4598999023438 C 2107.3154296875 867.46240234375 2107.31396484375 867.4644775390625 2107.3125 867.467041015625 C 2107.30322265625 867.4814453125 2107.2939453125 867.4959106445312 2107.28466796875 867.5103149414062 L 2104.7587890625 865.8919067382812 C 2106.245849609375 863.5703125 2107 861.144287109375 2107 858.681640625 L 2107 843.04638671875 Z M 2085.90966796875 877.9005737304688 L 2086.71923828125 880.789306640625 C 2085.448486328125 881.1454467773438 2084.14111328125 881.4623413085938 2082.802734375 881.7372436523438 C 2082.80029296875 881.7377319335938 2082.799560546875 881.7378540039062 2082.797119140625 881.7383422851562 C 2082.7783203125 881.7422485351562 2082.75927734375 881.7461547851562 2082.740234375 881.75 C 2082.738037109375 881.75048828125 2082.7373046875 881.7506713867188 2082.73486328125 881.7511596679688 C 2082.717529296875 881.7546997070312 2082.700439453125 881.7581176757812 2082.68310546875 881.7616577148438 C 2082.67822265625 881.7626342773438 2082.674072265625 881.7634887695312 2082.669189453125 881.7644653320312 C 2082.6513671875 881.76806640625 2082.63427734375 881.7716064453125 2082.616455078125 881.775146484375 C 2082.615234375 881.775390625 2082.61083984375 881.7763061523438 2082.609619140625 881.7765502929688 C 2082.593017578125 881.7799072265625 2082.57568359375 881.7833862304688 2082.558837890625 881.7867431640625 C 2082.553955078125 881.7877197265625 2082.550048828125 881.7885131835938 2082.54541015625 881.7894897460938 C 2082.4638671875 881.8058471679688 2082.382568359375 881.8219604492188 2082.301025390625 881.8380126953125 C 2082.291259765625 881.8399047851562 2082.2822265625 881.8416748046875 2082.2724609375 881.8436279296875 C 2082.261474609375 881.8457641601562 2082.2509765625 881.8477783203125 2082.240234375 881.8499145507812 C 2082.23046875 881.851806640625 2082.21923828125 881.85400390625 2082.20947265625 881.8558959960938 C 2082.199951171875 881.8577270507812 2082.18994140625 881.8596801757812 2082.180419921875 881.861572265625 C 2082.16943359375 881.8636474609375 2082.157958984375 881.8659057617188 2082.14697265625 881.8680419921875 C 2082.13818359375 881.8697509765625 2082.129150390625 881.8714599609375 2082.120361328125 881.8731689453125 C 2082.10693359375 881.8757934570312 2082.09423828125 881.8782348632812 2082.080810546875 881.8807983398438 C 2082.0751953125 881.8818969726562 2082.070068359375 881.8828735351562 2082.064453125 881.8839721679688 C 2082.0498046875 881.8867797851562 2082.034423828125 881.8897094726562 2082.019775390625 881.8925170898438 C 2082.014404296875 881.8935546875 2082.0087890625 881.8946533203125 2082.00341796875 881.8956298828125 C 2081.98876953125 881.8984375 2081.974365234375 881.9011840820312 2081.959716796875 881.9039916992188 C 2081.954833984375 881.9049072265625 2081.9501953125 881.9058227539062 2081.9453125 881.90673828125 C 2081.929443359375 881.9097290039062 2081.9140625 881.9126586914062 2081.898193359375 881.9156494140625 C 2081.89453125 881.9163208007812 2081.891357421875 881.9169311523438 2081.8876953125 881.9176635742188 C 2079.07177734375 882.449951171875 2076.1240234375 882.7981567382812 2073.079345703125 882.9390258789062 C 2073.05712890625 882.9400634765625 2073.03759765625 882.9409790039062 2073.015380859375 882.9419555664062 C 2072.9931640625 882.9429931640625 2072.974609375 882.94384765625 2072.9521484375 882.94482421875 C 2072.950927734375 882.9448852539062 2072.949951171875 882.9448852539062 2072.948486328125 882.9449462890625 C 2072.74072265625 882.9541625976562 2072.529052734375 882.9625244140625 2072.3203125 882.9697875976562 C 2072.2998046875 882.9705200195312 2072.279052734375 882.9712524414062 2072.258544921875 882.971923828125 C 2072.23681640625 882.97265625 2072.216552734375 882.9733276367188 2072.19482421875 882.9740600585938 C 2072.173095703125 882.9747924804688 2072.15380859375 882.9754028320312 2072.132080078125 882.97607421875 C 2072.1103515625 882.976806640625 2072.089599609375 882.9774169921875 2072.06787109375 882.9780883789062 C 2072.0458984375 882.9788208007812 2072.022705078125 882.9794921875 2072.000732421875 882.9801635742188 C 2071.978271484375 882.9808349609375 2071.9560546875 882.9815063476562 2071.93359375 882.9821166992188 C 2071.911376953125 882.9827880859375 2071.890625 882.9833984375 2071.8681640625 882.9840087890625 C 2071.846435546875 882.984619140625 2071.824462890625 882.9852294921875 2071.802978515625 882.9857788085938 C 2071.80029296875 882.98583984375 2071.798828125 882.9859008789062 2071.796142578125 882.9859619140625 C 2071.736083984375 882.9876098632812 2071.6728515625 882.9891967773438 2071.61279296875 882.9906616210938 C 2071.595458984375 882.9910888671875 2071.58056640625 882.9913940429688 2071.5634765625 882.9918212890625 C 2071.54296875 882.9923095703125 2071.5224609375 882.9927368164062 2071.501708984375 882.9932250976562 C 2071.480712890625 882.9937133789062 2071.458251953125 882.9942016601562 2071.437255859375 882.99462890625 C 2071.4140625 882.9951171875 2071.392578125 882.99560546875 2071.36962890625 882.99609375 C 2071.34814453125 882.9965209960938 2071.326416015625 882.9969482421875 2071.30517578125 882.9973754882812 C 2071.282470703125 882.997802734375 2071.25927734375 882.9982299804688 2071.23681640625 882.9986572265625 C 2071.215087890625 882.9990234375 2071.193359375 882.9994506835938 2071.171630859375 882.9998168945312 C 2071.148193359375 883.000244140625 2071.1259765625 883.0006103515625 2071.1025390625 883.0009765625 C 2071.082275390625 883.0013427734375 2071.059814453125 883.001708984375 2071.03955078125 883.0020141601562 C 2071.017578125 883.0023193359375 2070.9931640625 883.002685546875 2070.97119140625 883.0030517578125 C 2070.94873046875 883.0033569335938 2070.9267578125 883.003662109375 2070.904296875 883.0039672851562 C 2070.87109375 883.00439453125 2070.837158203125 883.0048217773438 2070.8037109375 883.0052490234375 C 2070.782470703125 883.0054931640625 2070.75927734375 883.0057373046875 2070.738037109375 883.0059814453125 C 2070.71533203125 883.0062255859375 2070.69384765625 883.0064697265625 2070.67138671875 883.0067138671875 C 2070.649169921875 883.0068969726562 2070.626220703125 883.0071411132812 2070.604248046875 883.00732421875 C 2070.58251953125 883.0075073242188 2070.560791015625 883.0076904296875 2070.539306640625 883.0078735351562 C 2070.51806640625 883.008056640625 2070.496337890625 883.0082397460938 2070.475341796875 883.0083618164062 C 2070.453125 883.008544921875 2070.428955078125 883.0086669921875 2070.40673828125 883.0088500976562 C 2070.384521484375 883.0089721679688 2070.360595703125 883.0090942382812 2070.33837890625 883.0092163085938 C 2070.315185546875 883.0093383789062 2070.2939453125 883.0093994140625 2070.2705078125 883.009521484375 C 2070.247802734375 883.0095825195312 2070.224365234375 883.0097045898438 2070.201416015625 883.009765625 C 2070.178955078125 883.0098266601562 2070.157958984375 883.0098876953125 2070.135498046875 883.0099487304688 C 2070.11181640625 883.0099487304688 2070.08984375 883.010009765625 2070.066162109375 883.010009765625 C 2070.0439453125 883.0100708007812 2070.022216796875 883.0100708007812 2070 883.0100708007812 C 2070 883.0100708007812 2061.9169921875 883.0100708007812 2061.9169921875 883.0100708007812 L 2061.9169921875 880.0100708007812 L 2070 880.0100708007812 C 2075.56201171875 880.0100708007812 2080.914794921875 879.3003540039062 2085.90966796875 877.9005737304688 Z M 2011.917114257812 880.0100708007812 L 2036.917114257812 880.0100708007812 L 2036.917114257812 883.0100708007812 C 2036.917114257812 883.0100708007812 2011.917114257812 883.0100708007812 2011.917114257812 883.0100708007812 L 2011.917114257812 880.0100708007812 Z M 1961.917114257812 880.0100708007812 L 1986.917114257812 880.0100708007812 L 1986.917114257812 883.0100708007812 C 1986.917114257812 883.0100708007812 1961.917114257812 883.0100708007812 1961.917114257812 883.0100708007812 L 1961.917114257812 880.0100708007812 Z M 1911.917114257812 880.0100708007812 L 1936.917114257812 880.0100708007812 L 1936.917114257812 883.0100708007812 C 1936.917114257812 883.0100708007812 1911.917114257812 883.0100708007812 1911.917114257812 883.0100708007812 L 1911.917114257812 880.0100708007812 Z M 1861.917114257812 880.0100708007812 L 1886.917114257812 880.0100708007812 L 1886.917114257812 883.0100708007812 C 1886.917114257812 883.0100708007812 1861.917114257812 883.0100708007812 1861.917114257812 883.0100708007812 L 1861.917114257812 880.0100708007812 Z M 1811.917114257812 880.0100708007812 L 1836.917114257812 880.0100708007812 L 1836.917114257812 883.0100708007812 C 1836.917114257812 883.0100708007812 1811.917114257812 883.0100708007812 1811.917114257812 883.0100708007812 L 1811.917114257812 880.0100708007812 Z M 1761.917114257812 880.0100708007812 L 1786.917114257812 880.0100708007812 L 1786.917114257812 883.0100708007812 C 1786.917114257812 883.0100708007812 1761.917114257812 883.0100708007812 1761.917114257812 883.0100708007812 L 1761.917114257812 880.0100708007812 Z M 1711.917114257812 880.0100708007812 L 1736.917114257812 880.0100708007812 L 1736.917114257812 883.0100708007812 C 1736.917114257812 883.0100708007812 1711.917114257812 883.0100708007812 1711.917114257812 883.0100708007812 L 1711.917114257812 880.0100708007812 Z M 1661.917114257812 880.0100708007812 L 1686.917114257812 880.0100708007812 L 1686.917114257812 883.0100708007812 C 1686.917114257812 883.0100708007812 1661.917114257812 883.0100708007812 1661.917114257812 883.0100708007812 L 1661.917114257812 880.0100708007812 Z M 1611.917114257812 880.0100708007812 L 1636.917114257812 880.0100708007812 L 1636.917114257812 883.0100708007812 C 1636.917114257812 883.0100708007812 1611.917114257812 883.0100708007812 1611.917114257812 883.0100708007812 L 1611.917114257812 880.0100708007812 Z M 1561.917114257812 880.0100708007812 L 1586.917114257812 880.0100708007812 L 1586.917114257812 883.0100708007812 C 1586.917114257812 883.0100708007812 1561.917114257812 883.0100708007812 1561.917114257812 883.0100708007812 L 1561.917114257812 880.0100708007812 Z M 1511.917114257812 880.0100708007812 L 1536.917114257812 880.0100708007812 L 1536.917114257812 883.0100708007812 C 1536.917114257812 883.0100708007812 1511.917114257812 883.0100708007812 1511.917114257812 883.0100708007812 L 1511.917114257812 880.0100708007812 Z M 1461.917114257812 880.0100708007812 L 1486.917114257812 880.0100708007812 L 1486.917114257812 883.0100708007812 C 1486.917114257812 883.0100708007812 1461.917114257812 883.0100708007812 1461.917114257812 883.0100708007812 L 1461.917114257812 880.0100708007812 Z M 1411.917114257812 880.0100708007812 L 1436.917114257812 880.0100708007812 L 1436.917114257812 883.0100708007812 C 1436.917114257812 883.0100708007812 1411.917114257812 883.0100708007812 1411.917114257812 883.0100708007812 L 1411.917114257812 880.0100708007812 Z M 1361.917114257812 880.0100708007812 L 1386.917114257812 880.0100708007812 L 1386.917114257812 883.0100708007812 C 1386.917114257812 883.0100708007812 1361.917114257812 883.0100708007812 1361.917114257812 883.0100708007812 L 1361.917114257812 880.0100708007812 Z M 1311.917114257812 880.0100708007812 L 1336.917114257812 880.0100708007812 L 1336.917114257812 883.0100708007812 C 1336.917114257812 883.0100708007812 1311.917114257812 883.0100708007812 1311.917114257812 883.0100708007812 L 1311.917114257812 880.0100708007812 Z M 1261.917114257812 880.0100708007812 L 1286.917114257812 880.0100708007812 L 1286.917114257812 883.0100708007812 C 1286.917114257812 883.0100708007812 1261.917114257812 883.0100708007812 1261.917114257812 883.0100708007812 L 1261.917114257812 880.0100708007812 Z M 1211.917114257812 880.0100708007812 L 1236.917114257812 880.0100708007812 L 1236.917114257812 883.0100708007812 C 1236.917114257812 883.0100708007812 1211.917114257812 883.0100708007812 1211.917114257812 883.0100708007812 L 1211.917114257812 880.0100708007812 Z M 1161.917114257812 880.0100708007812 L 1186.917114257812 880.0100708007812 L 1186.917114257812 883.0100708007812 C 1186.917114257812 883.0100708007812 1161.917114257812 883.0100708007812 1161.917114257812 883.0100708007812 L 1161.917114257812 880.0100708007812 Z M 1111.917114257812 880.0100708007812 L 1136.917114257812 880.0100708007812 L 1136.917114257812 883.0100708007812 C 1136.917114257812 883.0100708007812 1111.917114257812 883.0100708007812 1111.917114257812 883.0100708007812 L 1111.917114257812 880.0100708007812 Z M 1061.917114257812 880.0100708007812 L 1086.917114257812 880.0100708007812 L 1086.917114257812 883.0100708007812 C 1086.917114257812 883.0100708007812 1061.917114257812 883.0100708007812 1061.917114257812 883.0100708007812 L 1061.917114257812 880.0100708007812 Z M 1011.917114257812 880.0100708007812 L 1036.917114257812 880.0100708007812 L 1036.917114257812 883.0100708007812 C 1036.917114257812 883.0100708007812 1011.917114257812 883.0100708007812 1011.917114257812 883.0100708007812 L 1011.917114257812 880.0100708007812 Z M 961.9171142578125 880.0100708007812 L 986.9171142578125 880.0100708007812 L 986.9171142578125 883.0100708007812 C 986.9171142578125 883.0100708007812 961.9171142578125 883.0100708007812 961.9171142578125 883.0100708007812 L 961.9171142578125 880.0100708007812 Z M 911.9171142578125 880.0100708007812 L 936.9171142578125 880.0100708007812 L 936.9171142578125 883.0100708007812 C 936.9171142578125 883.0100708007812 911.9171142578125 883.0100708007812 911.9171142578125 883.0100708007812 L 911.9171142578125 880.0100708007812 Z M 861.9171142578125 880.0100708007812 L 886.9171142578125 880.0100708007812 L 886.9171142578125 883.0100708007812 C 886.9171142578125 883.0100708007812 861.9171142578125 883.0100708007812 861.9171142578125 883.0100708007812 L 861.9171142578125 880.0100708007812 Z M 811.9171142578125 880.0100708007812 L 836.9171142578125 880.0100708007812 L 836.9171142578125 883.0100708007812 C 836.9171142578125 883.0100708007812 811.9171142578125 883.0100708007812 811.9171142578125 883.0100708007812 L 811.9171142578125 880.0100708007812 Z M 761.9171142578125 880.0100708007812 L 786.9171142578125 880.0100708007812 L 786.9171142578125 883.0100708007812 C 786.9171142578125 883.0100708007812 761.9171142578125 883.0100708007812 761.9171142578125 883.0100708007812 L 761.9171142578125 880.0100708007812 Z M 711.9171142578125 880.0100708007812 L 736.9171142578125 880.0100708007812 L 736.9171142578125 883.0100708007812 C 736.9171142578125 883.0100708007812 711.9171142578125 883.0100708007812 711.9171142578125 883.0100708007812 L 711.9171142578125 880.0100708007812 Z M 661.9171142578125 880.0100708007812 L 686.9171142578125 880.0100708007812 L 686.9171142578125 883.0100708007812 C 686.9171142578125 883.0100708007812 661.9171142578125 883.0100708007812 661.9171142578125 883.0100708007812 L 661.9171142578125 880.0100708007812 Z M 611.9171142578125 880.0100708007812 L 636.9171142578125 880.0100708007812 L 636.9171142578125 883.0100708007812 C 636.9171142578125 883.0100708007812 611.9171142578125 883.0100708007812 611.9171142578125 883.0100708007812 L 611.9171142578125 880.0100708007812 Z M 561.9171142578125 880.0100708007812 L 586.9171142578125 880.0100708007812 L 586.9171142578125 883.0100708007812 C 586.9171142578125 883.0100708007812 561.9171142578125 883.0100708007812 561.9171142578125 883.0100708007812 L 561.9171142578125 880.0100708007812 Z M 511.9171142578125 880.0100708007812 L 536.9171142578125 880.0100708007812 L 536.9171142578125 883.0100708007812 C 536.9171142578125 883.0100708007812 511.9171142578125 883.0100708007812 511.9171142578125 883.0100708007812 L 511.9171142578125 880.0100708007812 Z M 461.9171142578125 880.0100708007812 L 486.9171142578125 880.0100708007812 L 486.9171142578125 883.0100708007812 C 486.9171142578125 883.0100708007812 461.9171142578125 883.0100708007812 461.9171142578125 883.0100708007812 L 461.9171142578125 880.0100708007812 Z M 411.9171142578125 880.0100708007812 L 436.9171142578125 880.0100708007812 L 436.9171142578125 883.0100708007812 C 436.9171142578125 883.0100708007812 411.9171142578125 883.0100708007812 411.9171142578125 883.0100708007812 L 411.9171142578125 880.0100708007812 Z M 361.9171142578125 880.0100708007812 L 386.9171142578125 880.0100708007812 L 386.9171142578125 883.0100708007812 C 386.9171142578125 883.0100708007812 361.9171142578125 883.0100708007812 361.9171142578125 883.0100708007812 L 361.9171142578125 880.0100708007812 Z M 311.9171142578125 880.0100708007812 L 336.9171142578125 880.0100708007812 L 336.9171142578125 883.0100708007812 C 336.9171142578125 883.0100708007812 311.9171142578125 883.0100708007812 311.9171142578125 883.0100708007812 L 311.9171142578125 880.0100708007812 Z M 261.9171142578125 880.0100708007812 L 286.9171142578125 880.0100708007812 L 286.9171142578125 883.0100708007812 C 286.9171142578125 883.0100708007812 261.9171142578125 883.0100708007812 261.9171142578125 883.0100708007812 L 261.9171142578125 880.0100708007812 Z M 211.9171142578125 880.0100708007812 L 236.9171142578125 880.0100708007812 L 236.9171142578125 883.0100708007812 C 236.9171142578125 883.0100708007812 211.9171142578125 883.0100708007812 211.9171142578125 883.0100708007812 L 211.9171142578125 880.0100708007812 Z M 161.9171142578125 880.0100708007812 L 186.9171142578125 880.0100708007812 L 186.9171142578125 883.0100708007812 C 186.9171142578125 883.0100708007812 161.9171142578125 883.0100708007812 161.9171142578125 883.0100708007812 L 161.9171142578125 880.0100708007812 Z M 111.9171142578125 880.0100708007812 L 136.9171142578125 880.0100708007812 L 136.9171142578125 883.0100708007812 C 136.9171142578125 883.0100708007812 111.9171142578125 883.0100708007812 111.9171142578125 883.0100708007812 L 111.9171142578125 880.0100708007812 Z M 61.9169921875 880.0100708007812 L 86.9171142578125 880.0100708007812 L 86.9171142578125 883.0100708007812 C 86.9171142578125 883.0100708007812 61.9169921875 883.0100708007812 61.9169921875 883.0100708007812 L 61.9169921875 880.0100708007812 Z M 14.418212890625 873.9876708984375 C 17.444091796875 875.6774291992188 20.891357421875 877.0469360351562 24.66357421875 878.0579833984375 C 28.585205078125 879.1087646484375 32.7548828125 879.74267578125 37.056884765625 879.9421997070312 L 36.918212890625 882.9390258789062 C 33.04833984375 882.7595825195312 29.334228515625 882.2457275390625 25.8505859375 881.4441528320312 C 25.84814453125 881.443603515625 25.84521484375 881.4429321289062 25.8427734375 881.4423828125 C 25.787841796875 881.4297485351562 25.73388671875 881.417236328125 25.67919921875 881.4044799804688 C 25.672607421875 881.4029541015625 25.665771484375 881.4013061523438 25.6591796875 881.3997802734375 C 25.630615234375 881.3931274414062 25.604248046875 881.3869018554688 25.57568359375 881.3801879882812 C 25.565673828125 881.3778686523438 25.555908203125 881.3755493164062 25.5458984375 881.3732299804688 C 25.522216796875 881.3676147460938 25.49853515625 881.3619995117188 25.474853515625 881.3563842773438 C 25.46337890625 881.3536987304688 25.451904296875 881.3509521484375 25.440673828125 881.3482666015625 C 25.426513671875 881.3449096679688 25.409912109375 881.3409423828125 25.395751953125 881.3375244140625 C 25.37451171875 881.33251953125 25.353271484375 881.327392578125 25.33203125 881.3223266601562 C 25.3203125 881.3195190429688 25.30859375 881.316650390625 25.296630859375 881.3138427734375 C 25.28125 881.3101806640625 25.265869140625 881.306396484375 25.25048828125 881.302734375 C 25.23388671875 881.2987060546875 25.21826171875 881.294921875 25.201904296875 881.2909545898438 C 25.183837890625 881.2865600585938 25.165771484375 881.2821655273438 25.147705078125 881.2777709960938 C 25.1357421875 881.27490234375 25.126220703125 881.2725830078125 25.114501953125 881.2697143554688 C 25.0908203125 881.2639770507812 25.067626953125 881.2582397460938 25.0439453125 881.25244140625 C 25.03466796875 881.2501220703125 25.024169921875 881.24755859375 25.0146484375 881.2452392578125 C 24.9921875 881.23974609375 24.96923828125 881.2340087890625 24.946533203125 881.2284545898438 C 24.939453125 881.2267456054688 24.93212890625 881.224853515625 24.925048828125 881.22314453125 C 24.900146484375 881.2169799804688 24.876220703125 881.2109985351562 24.851318359375 881.204833984375 C 24.84423828125 881.2030639648438 24.839599609375 881.201904296875 24.832763671875 881.2001953125 C 24.8056640625 881.1934204101562 24.778564453125 881.1866455078125 24.751708984375 881.179931640625 C 24.745849609375 881.1784057617188 24.740234375 881.177001953125 24.734375 881.175537109375 C 24.706298828125 881.1685180664062 24.67822265625 881.1614379882812 24.650390625 881.1543579101562 C 24.64794921875 881.1537475585938 24.645263671875 881.153076171875 24.642822265625 881.1524658203125 C 24.61376953125 881.1451416015625 24.584716796875 881.1377563476562 24.5556640625 881.1303100585938 C 24.554443359375 881.1300048828125 24.552490234375 881.1295776367188 24.551513671875 881.1292724609375 C 24.52099609375 881.1215209960938 24.490478515625 881.1137084960938 24.460205078125 881.1058959960938 C 24.457763671875 881.1052856445312 24.45703125 881.1051635742188 24.454833984375 881.1045532226562 C 24.2646484375 881.0557250976562 24.07568359375 881.006103515625 23.88720703125 880.95556640625 C 19.849365234375 879.8734741210938 16.16162109375 878.3971557617188 12.95556640625 876.60693359375 L 14.418212890625 873.9876708984375 Z M 0 831.880859375 L 3 831.880859375 L 3 856.880859375 L 0 856.880859375 L 0 831.880859375 Z M 0 781.880859375 L 3 781.880859375 L 3 806.880859375 L 0 806.880859375 L 0 781.880859375 Z M 0 731.880859375 L 3 731.880859375 L 3 756.880859375 L 0 756.880859375 L 0 731.880859375 Z M 0 681.880859375 L 3 681.880859375 L 3 706.880859375 L 0 706.880859375 L 0 681.880859375 Z M 0 631.880859375 L 3 631.880859375 L 3 656.880859375 L 0 656.880859375 L 0 631.880859375 Z M 0 581.880859375 L 3 581.880859375 L 3 606.880859375 L 0 606.880859375 L 0 581.880859375 Z M 0 531.880859375 L 3 531.880859375 L 3 556.880859375 L 0 556.880859375 L 0 531.880859375 Z M 0 481.880859375 L 3 481.880859375 L 3 506.880859375 L 0 506.880859375 L 0 481.880859375 Z M 0 431.880859375 L 3 431.880859375 L 3 456.880859375 L 0 456.880859375 L 0 431.880859375 Z M 0 381.880859375 L 3 381.880859375 L 3 406.880859375 L 0 406.880859375 L 0 381.880859375 Z M 0 331.880859375 L 3 331.880859375 L 3 356.880859375 L 0 356.880859375 L 0 331.880859375 Z M 0 281.880859375 L 3 281.880859375 L 3 306.880859375 L 0 306.880859375 L 0 281.880859375 Z M 0 231.880859375 L 3 231.880859375 L 3 256.880859375 L 0 256.880859375 L 0 231.880859375 Z M 0 181.880859375 L 3 181.880859375 L 3 206.880859375 L 0 206.880859375 L 0 181.880859375 Z M 0 131.880859375 L 3 131.880859375 L 3 156.880859375 L 0 156.880859375 L 0 131.880859375 Z M 0 81.880859375 L 3 81.880859375 L 3 106.880859375 L 0 106.880859375 L 0 81.880859375 Z M 0 31.880859375 L 3 31.880859375 L 3 56.880859375 L 0 56.880859375 L 0 31.880859375 Z M 31.192138671875 0.5919189453125 L 31.59814453125 3.56427001953125 C 22.992919921875 4.7403564453125 15.33837890625 7.71295166015625 10.045166015625 11.93402099609375 L 8.1748046875 9.5887451171875 C 10.9111328125 7.406494140625 14.240234375 5.51409912109375 18.016357421875 4.00048828125 C 18.016357421875 4.00048828125 18.016357421875 4.00042724609375 18.016357421875 4.00042724609375 C 18.046142578125 3.98846435546875 18.076416015625 3.97637939453125 18.106201171875 3.9644775390625 C 18.107421875 3.964111328125 18.10693359375 3.96417236328125 18.108154296875 3.96380615234375 C 18.228271484375 3.9158935546875 18.349853515625 3.8680419921875 18.470703125 3.8209228515625 C 18.470703125 3.8209228515625 18.472412109375 3.82037353515625 18.472412109375 3.82037353515625 C 18.502197265625 3.80865478515625 18.531494140625 3.79730224609375 18.561767578125 3.78570556640625 C 18.562744140625 3.7852783203125 18.56396484375 3.78472900390625 18.565185546875 3.78436279296875 C 18.59521484375 3.772705078125 18.624267578125 3.761474609375 18.654541015625 3.7498779296875 C 18.655517578125 3.74945068359375 18.65478515625 3.74981689453125 18.65576171875 3.7493896484375 C 18.74609375 3.71466064453125 18.838134765625 3.67962646484375 18.928955078125 3.64532470703125 C 18.93115234375 3.64453125 18.9306640625 3.6446533203125 18.932861328125 3.64385986328125 C 18.962158203125 3.63275146484375 18.990966796875 3.62188720703125 19.0205078125 3.61083984375 C 19.022705078125 3.61004638671875 19.02490234375 3.60919189453125 19.02685546875 3.6083984375 C 19.056884765625 3.59722900390625 19.0859375 3.5863037109375 19.115966796875 3.57513427734375 C 19.115966796875 3.57513427734375 19.116455078125 3.574951171875 19.116455078125 3.574951171875 C 19.207763671875 3.5408935546875 19.299072265625 3.50714111328125 19.390625 3.4735107421875 C 19.392822265625 3.47271728515625 19.395751953125 3.4716796875 19.39794921875 3.47088623046875 C 19.427001953125 3.460205078125 19.455810546875 3.44970703125 19.485107421875 3.4390869140625 C 19.487060546875 3.43829345703125 19.489501953125 3.43743896484375 19.49169921875 3.43670654296875 C 19.521240234375 3.4259033203125 19.5498046875 3.41558837890625 19.579345703125 3.40484619140625 C 19.58154296875 3.404052734375 19.5830078125 3.403564453125 19.585205078125 3.40277099609375 C 19.64501953125 3.381103515625 19.70556640625 3.35931396484375 19.765625 3.337890625 C 19.766845703125 3.33746337890625 19.76904296875 3.336669921875 19.77001953125 3.3363037109375 C 19.7998046875 3.32562255859375 19.82958984375 3.3150634765625 19.859375 3.304443359375 C 19.861572265625 3.30364990234375 19.862548828125 3.30340576171875 19.86474609375 3.3026123046875 C 19.89453125 3.2919921875 19.923828125 3.28167724609375 19.95361328125 3.2711181640625 C 19.955810546875 3.27032470703125 19.957763671875 3.26971435546875 19.959716796875 3.2689208984375 C 19.990234375 3.2581787109375 20.020263671875 3.24761962890625 20.05078125 3.2369384765625 C 20.05078125 3.2369384765625 20.051025390625 3.23687744140625 20.051025390625 3.23687744140625 C 20.144287109375 3.20416259765625 20.238525390625 3.17144775390625 20.332275390625 3.13916015625 C 20.333251953125 3.1387939453125 20.3349609375 3.13824462890625 20.3359375 3.13787841796875 C 20.36669921875 3.1273193359375 20.396728515625 3.1170654296875 20.42724609375 3.1065673828125 C 20.428466796875 3.106201171875 20.430419921875 3.10546875 20.431396484375 3.1051025390625 C 20.462646484375 3.094482421875 20.492919921875 3.08416748046875 20.524169921875 3.07354736328125 C 20.524169921875 3.07354736328125 20.524658203125 3.0733642578125 20.524658203125 3.0733642578125 C 20.77734375 2.987548828125 21.031494140625 2.90338134765625 21.28759765625 2.82086181640625 C 21.289794921875 2.82012939453125 21.28955078125 2.8201904296875 21.291748046875 2.8194580078125 C 24.374755859375 1.82550048828125 27.69677734375 1.069580078125 31.192138671875 0.5919189453125 Z" stroke="none" fill="#202974"/>
      </g>
    </g>
    <rect id="Rectangle_327" data-name="Rectangle 327" width="2110" height="855.821" rx="40" transform="translate(-208.152 4833.607) rotate(-11)" fill="#253081"/>
  </g>
</svg>
