<svg xmlns="http://www.w3.org/2000/svg" xmlns:xlink="http://www.w3.org/1999/xlink" width="339.556" height="60.26" viewBox="0 0 339.556 60.26">
  <defs>
    <clipPath id="clip-path">
      <rect id="Rectangle_326" data-name="Rectangle 326" width="150" height="56.521" fill="none"/>
    </clipPath>
  </defs>
  <g id="logo" transform="translate(0 3.739)">
    <g id="Group_3183" data-name="Group 3183" clip-path="url(#clip-path)">
      <path id="Path_2989" data-name="Path 2989" d="M39.233,1.21H20.907a20.906,20.906,0,1,0,0,41.812V57.565A20.906,20.906,0,0,0,41.812,36.659c0-.3-.01-.6-.023-.9.007-.077.023-.153.023-.232V3.789A2.579,2.579,0,0,0,39.233,1.21" transform="translate(0 -1.045)" fill="#58d38c" fill-rule="evenodd"/>
      <path id="Path_2990" data-name="Path 2990" d="M828.772,35.758c.007-.077.023-.152.023-.23V3.787a2.579,2.579,0,0,0-2.579-2.579H807.888a20.906,20.906,0,1,0,0,41.812V57.564a20.906,20.906,0,0,0,20.906-20.907c0-.3-.01-.6-.023-.9" transform="translate(-679.467 -1.043)" fill="#253081" fill-rule="evenodd"/>
      <path id="Path_2991" data-name="Path 2991" d="M357.536,1.21l4.131,7.829L365.8,1.21h26.316a2.579,2.579,0,0,1,2.27,3.8L374.337,42.14a2.579,2.579,0,0,1-4.539,0l-8.1-14.992-7.848,14.872a2.579,2.579,0,0,1-4.562,0L329.753,4.992a2.579,2.579,0,0,1,2.281-3.782h25.5Z" transform="translate(-284.442 -1.045)" fill="#253081" fill-rule="evenodd"/>
    </g>
    <text id="Gemeinnützige_Wohnungsbaugesellschaft_der_Stadt_Kassel" data-name="Gemeinnützige 
Wohnungsbaugesellschaft 
der Stadt Kassel" transform="translate(169.556 11.261)" fill="#253081" font-size="16" font-family="LeagueGothic-Regular, League Gothic" letter-spacing="0.1em"><tspan x="0" y="0">GEMEINNÜTZIGE </tspan><tspan x="0" y="20">WOHNUNGSBAUGESELLSCHAFT </tspan><tspan x="0" y="40">DER STADT KASSEL</tspan></text>
  </g>
</svg>
