<?xml version="1.0" encoding="utf-8"?>
<!-- Generator: Adobe Illustrator 16.0.0, SVG Export Plug-In . SVG Version: 6.00 Build 0)  -->
<!DOCTYPE svg PUBLIC "-//W3C//DTD SVG 1.1//EN" "http://www.w3.org/Graphics/SVG/1.1/DTD/svg11.dtd">
<svg version="1.1" id="Layer_1" xmlns="http://www.w3.org/2000/svg" xmlns:xlink="http://www.w3.org/1999/xlink" x="0px" y="0px"
	 width="1920px" height="965px" viewBox="0 0 1920 965" enable-background="new 0 0 1920 965" xml:space="preserve">
<rect x="-1" fill="none" width="1920" height="965"/>
<g>
	<defs>
		<rect id="SVGID_1_" width="1920" height="965"/>
	</defs>
	<clipPath id="SVGID_2_">
		<use xlink:href="#SVGID_1_"  overflow="visible"/>
	</clipPath>
	<g id="Group_3787" transform="translate(148.531 778.531)" clip-path="url(#SVGID_2_)">
		<g id="gestrichelte_Linie" transform="translate(-63.723 -342.744) rotate(-11)">
			<path fill="none" d="M67.763-900.288l2030.001,0.001c22.09,0,40,17.909,39.999,40l0,1371.821c0,22.091-17.909,40-40,40l-2030,0
				c-22.091,0-40-17.909-40-40l0-1371.822C27.762-882.379,45.671-900.287,67.763-900.288z"/>
			<path fill="#202974" d="M67.763-900.288l25,0.001l0,3l-25,0L67.763-900.288L67.763-900.288z M117.762-900.288l25,0l0,3l-25-0.001
				L117.762-900.288z M167.762-900.288l25,0.001l0,2.999l-25,0L167.762-900.288z M217.763-900.288l25,0l0,3l-25,0L217.763-900.288z
				 M267.762-900.287l25,0l0,3l-25,0L267.762-900.287z M317.762-900.288l25,0l0,3l-25,0L317.762-900.288z M367.763-900.287l24.999,0
				l0,3l-24.999,0L367.763-900.287z M417.762-900.288l25,0.001l0,2.999l-25,0L417.762-900.288z M467.762-900.288l25,0l0,3
				l-24.999-0.001L467.762-900.288z M517.763-900.288l24.999,0.001l0,2.999l-24.999,0L517.763-900.288z M567.763-900.288l25,0l0,3
				l-25,0L567.763-900.288z M617.762-900.287l25,0l0,2.999l-25,0L617.762-900.287z M667.762-900.288l25,0l0,3l-24.999,0
				L667.762-900.288z M717.763-900.288l25,0l0,3l-25,0L717.763-900.288z M767.762-900.288l25,0l0,3l-25,0L767.762-900.288z
				 M817.762-900.288l25,0l0,3l-24.999,0L817.762-900.288z M867.763-900.288l25,0l0,3l-25,0L867.763-900.288z M917.762-900.288l25,0
				l0,3l-25,0L917.762-900.288z M967.762-900.288l25,0l0,3l-25,0L967.762-900.288z M1017.763-900.288l24.999,0l0.001,3l-25,0
				L1017.763-900.288z M1067.763-900.287l25,0l0,3l-25,0L1067.763-900.287z M1117.762-900.288l25,0l0,3l-25,0L1117.762-900.288z
				 M1167.762-900.288l24.999,0l0.001,3.001l-25,0L1167.762-900.288z M1217.762-900.288l25,0l0,3l-25,0L1217.762-900.288z
				 M1267.762-900.288l25,0l0,3l-25,0L1267.762-900.288z M1317.762-900.287l25,0l0,3l-25,0L1317.762-900.287z M1367.763-900.287
				l25,0l0,3l-25,0L1367.763-900.287z M1417.762-900.288l25,0l0,3l-25,0L1417.762-900.288z M1467.763-900.288l25,0l0,3l-25,0
				L1467.763-900.288z M1517.763-900.288l24.998,0l0,3l-24.998,0L1517.763-900.288z M1567.762-900.288l25,0l0,3l-25,0
				L1567.762-900.288z M1617.763-900.288l25,0l0,3l-25,0L1617.763-900.288z M1667.763-900.287l24.999-0.001l0,3l-24.999,0.001
				L1667.763-900.287z M1717.762-900.288l25,0l0,3l-25,0L1717.762-900.288z M1767.763-900.288l25,0l0,3l-25,0L1767.763-900.288z
				 M1817.763-900.288l24.998,0l0,3l-24.998,0L1817.763-900.288z M1867.762-900.288l25,0l0,3l-25,0L1867.762-900.288z
				 M1917.763-900.288l25,0l0,3l-25,0L1917.763-900.288z M1967.762-900.288l25,0l0,3l-24.999,0.001L1967.762-900.288z
				 M2017.762-900.288l25,0l0,3l-25,0L2017.762-900.288z M2067.763-900.288l25,0v2.999l-25,0V-900.288z M2116.941-895.399
				c0.572,0.314,1.137,0.641,1.691,0.981c0.002,0.001,0.004,0.002,0.005,0.003c0.055,0.034,0.108,0.067,0.164,0.1
				c0,0,0.002,0.001,0.002,0.001c0.026,0.017,0.051,0.032,0.078,0.049c0.003,0.003,0.005,0.003,0.01,0.007
				c0.025,0.016,0.05,0.031,0.076,0.048c0,0,0.002,0.001,0.004,0.002c0.023,0.015,0.048,0.03,0.071,0.045
				c0.005,0.003,0.009,0.005,0.014,0.009c0.025,0.015,0.048,0.03,0.073,0.045c0.005,0.004,0.009,0.006,0.014,0.009
				c0.021,0.014,0.044,0.029,0.067,0.043c0.002,0.001,0.005,0.003,0.007,0.004c0.025,0.016,0.048,0.031,0.071,0.046
				c0.005,0.004,0.014,0.008,0.02,0.012c0.023,0.014,0.046,0.03,0.067,0.044c0.007,0.004,0.012,0.007,0.018,0.011
				c0.02,0.013,0.039,0.025,0.058,0.038c0.005,0.003,0.012,0.008,0.018,0.011c0.023,0.015,0.044,0.029,0.067,0.043
				c0.007,0.005,0.014,0.01,0.021,0.015c0.02,0.012,0.039,0.025,0.058,0.038c0.009,0.005,0.018,0.011,0.025,0.016
				c0.02,0.012,0.037,0.024,0.055,0.036c0.007,0.005,0.016,0.01,0.023,0.015c0.021,0.014,0.042,0.028,0.063,0.042
				c0.009,0.005,0.016,0.011,0.025,0.016c0.016,0.011,0.033,0.023,0.051,0.034c0.007,0.004,0.014,0.01,0.021,0.014
				c0.021,0.014,0.04,0.027,0.062,0.041c0.009,0.006,0.018,0.011,0.027,0.017c0.019,0.014,0.04,0.028,0.062,0.042
				c0.007,0.004,0.014,0.009,0.021,0.014c0.018,0.012,0.035,0.024,0.053,0.036c0.007,0.004,0.012,0.008,0.019,0.013
				c0.023,0.015,0.042,0.029,0.063,0.043c0.009,0.006,0.018,0.012,0.026,0.018c0.016,0.01,0.033,0.022,0.049,0.033
				c0.01,0.007,0.023,0.016,0.035,0.024c0.016,0.01,0.032,0.022,0.048,0.032c0.009,0.006,0.018,0.012,0.026,0.018
				c0.02,0.013,0.041,0.027,0.06,0.041c0.009,0.006,0.017,0.012,0.028,0.019c0.014,0.01,0.028,0.02,0.042,0.03
				c0.01,0.007,0.021,0.014,0.031,0.022c0.018,0.012,0.035,0.024,0.053,0.036c0.01,0.007,0.021,0.015,0.031,0.022
				c0.016,0.011,0.031,0.022,0.047,0.033c0.012,0.009,0.024,0.018,0.038,0.027c0.012,0.008,0.025,0.017,0.037,0.026
				c0.012,0.008,0.021,0.015,0.033,0.022c0.017,0.013,0.037,0.026,0.054,0.038c0.01,0.008,0.023,0.016,0.033,0.024
				c0.012,0.008,0.024,0.017,0.037,0.026c0.016,0.011,0.031,0.023,0.047,0.034c0.012,0.008,0.024,0.017,0.037,0.026
				c0.01,0.008,0.021,0.016,0.033,0.023c0.017,0.013,0.035,0.026,0.052,0.039c0.012,0.008,0.023,0.016,0.033,0.024
				c0.012,0.008,0.024,0.017,0.037,0.026c0.014,0.01,0.028,0.02,0.044,0.031c0.014,0.01,0.026,0.019,0.04,0.03
				c0.012,0.009,0.023,0.016,0.035,0.025c0.014,0.011,0.03,0.022,0.045,0.033c0.012,0.009,0.024,0.019,0.037,0.027
				c0.014,0.009,0.026,0.018,0.038,0.027c0.01,0.008,0.021,0.016,0.031,0.023c0.017,0.013,0.034,0.027,0.054,0.04
				c0.01,0.008,0.021,0.016,0.031,0.024c0.012,0.009,0.024,0.017,0.035,0.026c0.018,0.012,0.035,0.025,0.05,0.037
				c0.012,0.009,0.023,0.017,0.035,0.026c0.01,0.008,0.022,0.017,0.033,0.024c0.017,0.013,0.036,0.027,0.054,0.04
				c0.009,0.007,0.021,0.016,0.03,0.022c0.012,0.01,0.026,0.02,0.038,0.029c0.01,0.008,0.023,0.017,0.033,0.025
				c0.017,0.013,0.033,0.024,0.049,0.037c0.012,0.008,0.023,0.016,0.033,0.025c0.014,0.01,0.026,0.019,0.04,0.03
				c0.016,0.012,0.03,0.022,0.043,0.033c0.012,0.009,0.022,0.017,0.035,0.026c0.01,0.008,0.023,0.017,0.033,0.025
				c0.017,0.014,0.035,0.027,0.052,0.04c0.012,0.008,0.022,0.017,0.035,0.026c0.009,0.007,0.019,0.016,0.029,0.023
				c0.017,0.013,0.036,0.028,0.054,0.041c0.01,0.008,0.021,0.016,0.031,0.025c0.01,0.008,0.023,0.017,0.033,0.025
				c0.016,0.012,0.031,0.024,0.047,0.036c0.012,0.009,0.026,0.02,0.038,0.029c0.012,0.01,0.022,0.019,0.034,0.028
				c0.012,0.009,0.023,0.017,0.033,0.025c0.017,0.013,0.035,0.027,0.05,0.04c0.01,0.008,0.021,0.016,0.031,0.024
				c0.014,0.011,0.028,0.022,0.042,0.032c0.012,0.01,0.026,0.021,0.04,0.032c0.012,0.01,0.024,0.019,0.036,0.029
				c0.01,0.008,0.021,0.016,0.029,0.024c0.019,0.014,0.036,0.028,0.053,0.043c0.01,0.008,0.021,0.016,0.031,0.024
				c0.012,0.01,0.024,0.02,0.036,0.029c0.014,0.011,0.028,0.022,0.042,0.033c0.014,0.011,0.027,0.022,0.041,0.033
				c0.01,0.008,0.017,0.014,0.027,0.022c0.019,0.015,0.036,0.029,0.055,0.044c0.009,0.007,0.017,0.014,0.026,0.021
				c0.014,0.011,0.028,0.022,0.041,0.033c0.009,0.007,0.016,0.013,0.024,0.02c0.017,0.015,0.036,0.03,0.055,0.045
				c0.008,0.008,0.019,0.015,0.027,0.023c0.017,0.014,0.033,0.027,0.048,0.04c0.009,0.007,0.019,0.016,0.027,0.023
				c0.015,0.013,0.031,0.025,0.046,0.038c0.009,0.007,0.015,0.013,0.024,0.02c0.019,0.016,0.038,0.031,0.056,0.047
				c0.007,0.007,0.017,0.014,0.026,0.021c0.012,0.011,0.026,0.022,0.04,0.033c0.01,0.009,0.024,0.02,0.034,0.029
				c0.015,0.013,0.031,0.025,0.044,0.038c0.009,0.007,0.017,0.014,0.026,0.021c0.019,0.016,0.038,0.031,0.057,0.047
				c0.008,0.007,0.015,0.013,0.024,0.02c0.013,0.012,0.027,0.024,0.041,0.035c0.009,0.007,0.015,0.013,0.024,0.02
				c0.019,0.016,0.036,0.03,0.053,0.046c0.01,0.008,0.021,0.016,0.029,0.025c0.016,0.012,0.029,0.024,0.043,0.036
				c0.012,0.01,0.022,0.019,0.034,0.029c0.014,0.012,0.025,0.023,0.039,0.034c0.009,0.007,0.019,0.016,0.027,0.023
				c0.017,0.016,0.036,0.031,0.054,0.047c0.009,0.007,0.015,0.014,0.024,0.021c0.014,0.012,0.027,0.024,0.041,0.035
				c0.01,0.009,0.022,0.02,0.034,0.03c0.014,0.012,0.029,0.025,0.042,0.038c0.009,0.007,0.019,0.016,0.027,0.023
				c0.017,0.016,0.036,0.031,0.054,0.047c0.009,0.007,0.015,0.013,0.024,0.021c0.012,0.011,0.025,0.023,0.039,0.034
				c0.007,0.006,0.017,0.015,0.024,0.022c0.019,0.016,0.036,0.031,0.053,0.047c0.01,0.008,0.019,0.016,0.027,0.024
				c0.015,0.013,0.029,0.026,0.042,0.038c0.012,0.01,0.022,0.019,0.034,0.03c0.012,0.011,0.025,0.023,0.039,0.035
				c0.008,0.008,0.019,0.017,0.027,0.024c0.017,0.016,0.034,0.031,0.052,0.048c0.008,0.008,0.017,0.015,0.025,0.023
				c0.012,0.011,0.025,0.022,0.037,0.033c0.01,0.01,0.022,0.021,0.034,0.031c0.015,0.013,0.029,0.026,0.044,0.039
				c0.008,0.008,0.015,0.015,0.025,0.023c0.017,0.016,0.034,0.031,0.051,0.046c0.009,0.008,0.017,0.016,0.027,0.025
				c0.012,0.011,0.023,0.022,0.037,0.034c0.009,0.008,0.017,0.015,0.025,0.023c0.017,0.016,0.034,0.031,0.051,0.047
				c0.01,0.009,0.019,0.017,0.027,0.025c0.014,0.013,0.027,0.025,0.041,0.037c0.01,0.01,0.022,0.02,0.032,0.03
				c0.013,0.012,0.027,0.025,0.041,0.037c0.008,0.008,0.017,0.016,0.025,0.024c0.017,0.016,0.034,0.031,0.052,0.048
				c0.009,0.008,0.017,0.016,0.027,0.025c0.01,0.01,0.022,0.02,0.032,0.031c0.013,0.012,0.027,0.026,0.041,0.037
				c0.012,0.012,0.025,0.024,0.037,0.036c0.01,0.008,0.02,0.018,0.029,0.026c0.014,0.013,0.025,0.024,0.039,0.037
				c0.013,0.012,0.025,0.024,0.039,0.036c0.01,0.01,0.022,0.021,0.032,0.031c0.009,0.008,0.019,0.018,0.027,0.025
				c0.015,0.015,0.032,0.031,0.049,0.047c0.01,0.009,0.02,0.019,0.03,0.029c0.01,0.01,0.02,0.02,0.032,0.03
				c0.013,0.013,0.028,0.028,0.043,0.042c0.01,0.01,0.02,0.019,0.03,0.029c0.01,0.009,0.022,0.021,0.032,0.031
				c0.011,0.012,0.025,0.025,0.039,0.037c0.011,0.012,0.027,0.026,0.038,0.038c0.008,0.008,0.015,0.014,0.023,0.023
				c0.019,0.017,0.037,0.035,0.055,0.053c0.007,0.007,0.015,0.015,0.022,0.022c0.012,0.011,0.023,0.022,0.035,0.034
				c0.007,0.007,0.013,0.014,0.022,0.022c0.018,0.018,0.037,0.036,0.055,0.054c0.006,0.008,0.015,0.015,0.023,0.023
				c0.017,0.017,0.033,0.033,0.05,0.05c0.008,0.009,0.017,0.017,0.025,0.025c0.014,0.013,0.023,0.023,0.035,0.035
				c0.007,0.007,0.013,0.014,0.022,0.021c0.018,0.019,0.037,0.037,0.056,0.057c0.007,0.006,0.012,0.012,0.019,0.018
				c0.011,0.012,0.025,0.025,0.037,0.037c0.002,0.001,0.001,0.001,0.003,0.002c0.025,0.026,0.052,0.053,0.076,0.078
				c0.003,0.004,0.006,0.007,0.012,0.011c0.066,0.068,0.135,0.138,0.203,0.207c0,0.001,0.001,0.002,0.001,0.003
				c0.222,0.228,0.442,0.459,0.659,0.693c0.002,0.002,0.003,0.004,0.005,0.006c0.025,0.026,0.048,0.052,0.073,0.077
				c0.001,0.003,0.005,0.006,0.008,0.01c0.013,0.013,0.025,0.027,0.038,0.04c0.003,0.004,0.007,0.007,0.01,0.011
				c0.02,0.022,0.041,0.046,0.063,0.068c0.007,0.008,0.013,0.015,0.02,0.023c0.015,0.016,0.03,0.032,0.044,0.049
				c0.012,0.011,0.021,0.023,0.031,0.034c0.01,0.01,0.018,0.019,0.028,0.03c0.011,0.013,0.023,0.025,0.034,0.039
				c0.012,0.012,0.021,0.024,0.033,0.036c0.011,0.013,0.023,0.025,0.034,0.039c0.007,0.007,0.015,0.017,0.021,0.024
				c0.016,0.018,0.033,0.036,0.049,0.054c0.008,0.008,0.015,0.016,0.021,0.023c0.015,0.015,0.028,0.031,0.041,0.046
				c0.005,0.005,0.011,0.013,0.016,0.019c0.018,0.019,0.034,0.038,0.051,0.057c0.007,0.007,0.012,0.012,0.016,0.019
				c0.018,0.02,0.036,0.04,0.054,0.06c0.003,0.004,0.008,0.01,0.011,0.013c0.016,0.018,0.032,0.037,0.049,0.055
				c0.003,0.004,0.008,0.009,0.011,0.013c0.018,0.021,0.036,0.042,0.055,0.063c0.003,0.004,0.008,0.009,0.011,0.013
				c0.039,0.046,0.08,0.092,0.119,0.137c0.002,0.001,0.003,0.004,0.005,0.005c0.019,0.023,0.041,0.047,0.06,0.07
				c0.002,0.002,0.002,0.003,0.003,0.005c0.042,0.048,0.083,0.096,0.123,0.144c0.002,0.001,0.002,0.001,0.001,0.002
				c1.517,1.779,2.878,3.692,4.068,5.719c0,0.001,0.001,0.003,0.001,0.004c0.031,0.054,0.063,0.107,0.094,0.161
				c0.003,0.005,0.005,0.006,0.006,0.011c0.015,0.026,0.03,0.052,0.045,0.078c0.003,0.003,0.003,0.005,0.004,0.008
				c0.015,0.025,0.03,0.051,0.045,0.076c0.001,0.002,0.001,0.004,0.003,0.005c0.015,0.025,0.028,0.05,0.043,0.076
				c0.003,0.005,0.006,0.011,0.009,0.017c0.015,0.025,0.028,0.049,0.042,0.073c0.003,0.004,0.006,0.009,0.009,0.014
				c0.012,0.021,0.024,0.042,0.035,0.063c0.003,0.007,0.006,0.012,0.01,0.018c0.011,0.023,0.025,0.047,0.038,0.07
				c0.005,0.007,0.009,0.015,0.013,0.023c0.012,0.021,0.024,0.041,0.034,0.062c0.004,0.008,0.009,0.015,0.013,0.023
				c0.01,0.019,0.021,0.038,0.031,0.057c0.006,0.01,0.012,0.02,0.016,0.029c0.012,0.021,0.023,0.043,0.035,0.065
				c0.006,0.01,0.01,0.018,0.017,0.028c0.009,0.016,0.016,0.03,0.025,0.046c0.006,0.011,0.013,0.025,0.019,0.036
				c0.01,0.018,0.021,0.037,0.031,0.055c0.006,0.011,0.012,0.022,0.018,0.033c0.009,0.015,0.016,0.029,0.025,0.045
				c0.01,0.018,0.019,0.036,0.029,0.055c0.004,0.01,0.01,0.02,0.016,0.031c0.011,0.022,0.025,0.046,0.036,0.068
				c0.004,0.009,0.011,0.017,0.015,0.026c0.009,0.016,0.016,0.031,0.025,0.047c0.003,0.005,0.006,0.011,0.009,0.017
				c0.016,0.03,0.032,0.059,0.048,0.09c0.001,0.003,0.003,0.006,0.004,0.008c0.026,0.051,0.055,0.105,0.083,0.156
				c0,0.001,0.001,0.003,0.001,0.004c0.221,0.42,0.434,0.847,0.639,1.275l-2.707,1.295c-1.668-3.484-3.867-6.678-6.537-9.494
				c-2.663-2.809-5.731-5.174-9.116-7.026L2116.941-895.399z M2134.763-853.127l3,0l-0.001,25l-3,0L2134.763-853.127z
				 M2134.761-803.127l3,0l0.001,25l-3,0L2134.761-803.127z M2134.762-753.127l3,0l-0.001,25l-2.998,0L2134.762-753.127z
				 M2134.763-703.127l3,0l-0.001,25l-3,0L2134.763-703.127z M2134.763-653.127l2.999,0l0.001,25l-3,0L2134.763-653.127z
				 M2134.762-603.127l3,0l0.001,25.001l-3,0L2134.762-603.127z M2134.762-553.127l3.001-0.001l-0.001,25l-3,0L2134.762-553.127z
				 M2134.763-503.127l3,0l0,24.999l-3.001,0.001L2134.763-503.127z M2134.761-453.127l3.001,0l0.001,25.001l-3.001,0
				L2134.761-453.127z M2134.762-403.127l3.001-0.001l-0.001,25l-2.999,0L2134.762-403.127z M2134.763-353.127l3,0l0,24.999
				l-3.001,0.001L2134.763-353.127z M2134.763-303.127l2.999,0l0.001,25.001l-3,0L2134.763-303.127z M2134.762-253.127l3,0
				l0.001,25.001l-3,0L2134.762-253.127z M2134.762-203.127l3.001,0l-0.001,24.999l-3,0L2134.762-203.127z M2134.763-153.127l3,0
				l-0.001,25l-3,0L2134.763-153.127z M2134.762-103.127l3,0l0.001,25.001l-3,0L2134.762-103.127z M2134.762-53.127l3,0l0,24.999
				l-3,0L2134.762-53.127z M2134.763-3.127l3,0l-0.001,25l-3,0L2134.763-3.127z M2134.763,46.873l2.998,0l0.001,25.001l-3,0
				L2134.763,46.873z M2134.762,96.873l3-0.001l-0.001,25l-2.998,0L2134.762,96.873z M2134.762,146.873l3,0l-0.001,24.999l-3,0.001
				L2134.762,146.873z M2134.763,196.873l3,0l-0.001,25l-3,0L2134.763,196.873z M2134.762,246.873l3-0.001l0.001,25.001l-3,0
				L2134.762,246.873z M2134.762,296.873l3,0l0,24.999l-3,0.001L2134.762,296.873z M2134.763,346.873l3,0l-0.001,25l-3,0
				L2134.763,346.873z M2134.763,396.873l2.998,0l0.001,25.001l-3,0L2134.763,396.873z M2134.762,446.873l3,0l0,24.999l-2.999,0.001
				L2134.762,446.873z M2134.762,496.873l3,0l0,14.661c0.001,0.025,0,0.05,0,0.075c0,0.007,0.001,0.016,0.001,0.023
				c-0.001,0.018-0.001,0.036,0,0.054c0,0.009-0.001,0.017-0.001,0.026c0,0.019,0.001,0.038,0.001,0.057
				c-0.001,0.005-0.001,0.013-0.002,0.019c0.001,0.024,0,0.05,0,0.074c0,0.007,0.001,0.014,0,0.021c0,0.018,0,0.037-0.001,0.056
				c0,0.008,0.001,0.016,0.001,0.024c-0.001,0.018-0.001,0.036-0.001,0.054c-0.001,0.008-0.001,0.015,0,0.024
				c0,0.022,0,0.044-0.001,0.066c-0.001,0.004-0.001,0.006,0,0.01c0,0.024-0.001,0.049-0.002,0.072c0,0.01,0,0.019,0,0.029
				c-0.001,0.016-0.002,0.03-0.001,0.047c0,0.011,0,0.019,0,0.03c-0.001,0.017-0.002,0.032-0.001,0.048
				c0,0.01-0.001,0.018-0.001,0.027c-0.001,0.025-0.002,0.048-0.002,0.072c0.001,0.006,0,0.012,0,0.017
				c0,0.02-0.001,0.038-0.001,0.057c0,0.009-0.002,0.019-0.002,0.028c0.001,0.017,0,0.033-0.001,0.049c0,0.009,0,0.018,0,0.027
				c-0.001,0.018-0.001,0.037-0.002,0.054c0,0.008,0,0.013,0,0.021c0,0.024-0.001,0.047-0.002,0.071c0,0.01-0.002,0.02-0.002,0.029
				c-0.001,0.015,0,0.03,0,0.045c0,0.011-0.001,0.025-0.001,0.036c0,0.013-0.001,0.026-0.001,0.039c0,0.012,0,0.023-0.001,0.035
				c-0.001,0.016-0.002,0.032-0.001,0.049c-0.001,0.016-0.002,0.033-0.002,0.05c-0.001,0.014-0.001,0.029-0.002,0.043
				c0,0.012,0,0.022-0.001,0.035s-0.001,0.026-0.001,0.039c0,0.012-0.001,0.025-0.001,0.037c0,0.013-0.003,0.026-0.001,0.039
				c-0.002,0.012-0.002,0.022-0.003,0.034c0,0.022-0.001,0.045-0.003,0.066c-0.001,0.014,0,0.023-0.001,0.036
				c0,0.012-0.001,0.025-0.001,0.037c0,0.012-0.001,0.026-0.003,0.037c0,0.013-0.001,0.025-0.001,0.037
				c0,0.014-0.001,0.025-0.001,0.038c-0.001,0.014-0.001,0.028-0.002,0.041c-0.002,0.019-0.001,0.037-0.003,0.055
				c-0.001,0.014-0.001,0.028-0.002,0.041c0,0.013-0.001,0.026-0.001,0.038c-0.002,0.012-0.002,0.023-0.003,0.034
				c0,0.013-0.001,0.027-0.002,0.04c0,0.01-0.002,0.021-0.002,0.031c-0.001,0.015-0.001,0.028-0.002,0.042
				c-0.001,0.006,0,0.012-0.001,0.018c-0.002,0.031-0.004,0.06-0.005,0.09c0,0.009,0,0.018-0.001,0.027
				c-0.001,0.015-0.002,0.031-0.003,0.045c0,0.009-0.001,0.017-0.001,0.026c-0.001,0.015-0.002,0.03-0.003,0.045
				c-0.001,0.007-0.001,0.015-0.002,0.021c-0.001,0.036-0.004,0.07-0.007,0.105c0,0.002-0.001,0.004-0.001,0.006
				c0,0.018-0.001,0.034-0.002,0.05c-0.001,0.007-0.001,0.014-0.002,0.021c-0.001,0.016-0.002,0.032-0.003,0.048
				c0,0.008-0.001,0.015-0.002,0.022c-0.003,0.055-0.008,0.11-0.01,0.166c-0.001,0.005-0.002,0.009-0.002,0.012
				c-0.001,0.016-0.003,0.034-0.004,0.05c0,0.007-0.001,0.014,0,0.021c-0.001,0.019-0.002,0.033-0.004,0.052
				c0,0.002-0.001,0.005-0.001,0.007c-0.004,0.06-0.009,0.117-0.014,0.176c-0.001,0.005,0,0.009-0.001,0.014
				c-0.001,0.019-0.003,0.035-0.004,0.054c-0.001,0.004-0.001,0.008,0,0.011c-0.008,0.08-0.016,0.162-0.021,0.243
				c0,0.002-0.001,0.004-0.001,0.007c-0.203,2.251-0.594,4.447-1.155,6.575l-2.902-0.765c0.81-3.07,1.221-6.254,1.22-9.462
				L2134.762,496.873z M2121.24,540.134l1.903,2.317c-0.54,0.445-1.094,0.876-1.658,1.292c0,0.001-0.002,0.001-0.004,0.002
				c-0.047,0.037-0.097,0.072-0.145,0.108c-0.004,0.003-0.009,0.005-0.011,0.008c-0.025,0.017-0.049,0.034-0.072,0.051
				c-0.002,0.002-0.005,0.004-0.007,0.006c-0.021,0.016-0.042,0.031-0.063,0.046c-0.005,0.004-0.009,0.007-0.014,0.011
				c-0.023,0.016-0.044,0.031-0.067,0.047c-0.005,0.005-0.012,0.01-0.019,0.013c-0.017,0.014-0.035,0.026-0.053,0.038
				c-0.007,0.005-0.012,0.01-0.019,0.013c-0.019,0.015-0.04,0.029-0.06,0.043c-0.007,0.006-0.016,0.011-0.023,0.016
				c-0.019,0.014-0.039,0.028-0.06,0.042c-0.009,0.007-0.016,0.012-0.025,0.018c-0.014,0.01-0.028,0.02-0.042,0.03
				c-0.01,0.008-0.019,0.014-0.03,0.021c-0.016,0.013-0.037,0.026-0.053,0.038c-0.011,0.008-0.023,0.016-0.034,0.024
				c-0.011,0.007-0.021,0.015-0.032,0.022c-0.019,0.013-0.037,0.027-0.055,0.039c-0.009,0.007-0.021,0.014-0.03,0.021
				c-0.011,0.008-0.025,0.018-0.037,0.027c-0.009,0.006-0.018,0.012-0.027,0.018c-0.021,0.016-0.044,0.03-0.066,0.046
				c-0.005,0.005-0.012,0.01-0.019,0.014c-0.046,0.03-0.09,0.06-0.133,0.091c-0.007,0.005-0.014,0.008-0.019,0.013
				c-0.028,0.019-0.055,0.037-0.082,0.055c-0.002,0.003-0.007,0.005-0.009,0.007c-0.014,0.009-0.03,0.02-0.044,0.03
				c-0.005,0.002-0.011,0.006-0.014,0.009c-0.03,0.019-0.057,0.038-0.087,0.057c-0.002,0.002-0.005,0.003-0.007,0.005
				c-0.048,0.033-0.098,0.065-0.147,0.099l-0.002,0.001c-1.887,1.255-3.888,2.353-5.981,3.277c-0.002,0.001-0.006,0.002-0.009,0.003
				c-0.033,0.015-0.065,0.029-0.1,0.044c-0.002,0.002-0.007,0.003-0.009,0.003c-0.017,0.008-0.035,0.016-0.052,0.024
				c-0.002,0.001-0.002,0.001-0.004,0.001c-0.033,0.015-0.067,0.03-0.1,0.044c-0.004,0.002-0.009,0.003-0.013,0.005
				c-0.05,0.022-0.104,0.044-0.154,0.066c-0.007,0.004-0.015,0.007-0.022,0.011c-0.026,0.011-0.05,0.021-0.076,0.032
				c-0.01,0.003-0.019,0.007-0.028,0.011c-0.015,0.006-0.03,0.013-0.045,0.019c-0.009,0.004-0.02,0.008-0.03,0.012
				c-0.022,0.01-0.045,0.019-0.067,0.029c-0.01,0.004-0.021,0.009-0.032,0.014c-0.013,0.006-0.026,0.012-0.041,0.017
				c-0.02,0.009-0.039,0.017-0.06,0.025c-0.013,0.005-0.026,0.012-0.039,0.016c-0.013,0.005-0.024,0.01-0.035,0.015
				c-0.019,0.007-0.037,0.014-0.054,0.021c-0.015,0.007-0.032,0.014-0.048,0.021c-0.013,0.005-0.026,0.009-0.039,0.014
				c-0.013,0.005-0.028,0.011-0.041,0.018c-0.017,0.007-0.037,0.015-0.054,0.021c-0.015,0.006-0.028,0.011-0.043,0.017
				c-0.011,0.005-0.023,0.009-0.034,0.014c-0.022,0.009-0.043,0.017-0.065,0.026c-0.013,0.005-0.021,0.008-0.032,0.013
				c-0.017,0.007-0.032,0.013-0.049,0.019c-0.009,0.003-0.02,0.007-0.028,0.011c-0.024,0.009-0.048,0.019-0.071,0.028
				c-0.009,0.003-0.017,0.007-0.026,0.01c-0.021,0.009-0.045,0.018-0.067,0.027c-0.005,0.002-0.013,0.004-0.017,0.006
				c-0.022,0.01-0.045,0.018-0.069,0.027c-0.009,0.003-0.015,0.006-0.024,0.009c-0.026,0.01-0.049,0.019-0.075,0.029
				c-0.006,0.002-0.011,0.004-0.017,0.007c-0.022,0.009-0.045,0.017-0.067,0.026c-0.006,0.002-0.011,0.005-0.017,0.007
				c-0.026,0.01-0.053,0.019-0.079,0.029c-0.004,0.002-0.011,0.005-0.015,0.007c-0.026,0.01-0.053,0.019-0.079,0.029
				c-0.002,0.001-0.002,0.001-0.004,0.001c-0.026,0.011-0.054,0.02-0.082,0.031c-0.006,0.002-0.009,0.003-0.015,0.006
				c-0.028,0.01-0.056,0.02-0.083,0.031c-0.002,0.001-0.002,0.002-0.004,0.002c-0.028,0.01-0.056,0.02-0.083,0.031
				c0,0.001-0.005,0.002-0.007,0.003c-0.03,0.01-0.058,0.021-0.088,0.032c0,0.001-0.004,0.002-0.004,0.002
				c-0.06,0.021-0.118,0.043-0.176,0.064c-0.004,0-0.006,0.001-0.009,0.002c-0.058,0.022-0.117,0.042-0.177,0.063
				c-0.002,0.001-0.002,0.001-0.005,0.002c-0.03,0.01-0.06,0.021-0.09,0.031l0,0.001c-0.062,0.021-0.122,0.042-0.183,0.063
				c-0.002,0.001,0,0.001-0.002,0.001c-0.154,0.053-0.305,0.106-0.46,0.156c0,0.001-0.002,0.001-0.004,0.001
				c-0.06,0.02-0.122,0.041-0.183,0.061l0,0c-0.31,0.101-0.62,0.199-0.933,0.292l-0.002,0.001c-0.313,0.093-0.627,0.184-0.944,0.27
				l0,0c-0.063,0.018-0.126,0.034-0.189,0.051c0,0.001,0,0.001-0.002,0.001c-0.095,0.025-0.189,0.051-0.283,0.075l-0.002,0
				c-0.063,0.017-0.126,0.033-0.189,0.05l-0.002,0c-0.094,0.024-0.188,0.048-0.282,0.071c-0.004,0-0.006,0.001-0.008,0.001
				c-0.061,0.015-0.123,0.03-0.184,0.045c-0.002,0.001-0.004,0.001-0.006,0.002c-0.063,0.016-0.125,0.03-0.188,0.045
				c-0.002,0.001,0,0-0.002,0.001c-0.031,0.007-0.063,0.015-0.094,0.022c0,0.001-0.004,0.001-0.004,0.001
				c-0.063,0.015-0.125,0.029-0.186,0.044c-0.004,0-0.006,0.001-0.008,0.001c-0.031,0.007-0.063,0.014-0.094,0.021l0,0
				c-0.031,0.007-0.062,0.015-0.093,0.021c0,0.001-0.002,0.002-0.004,0.001c-0.031,0.007-0.06,0.014-0.092,0.021
				c-0.004,0-0.004,0.001-0.006,0.002c-0.062,0.014-0.125,0.027-0.187,0.039c-0.002,0.002-0.004,0.002-0.008,0.002
				c-0.063,0.014-0.125,0.026-0.185,0.04c-0.002,0.001-0.006,0.001-0.006,0.001c-0.031,0.007-0.062,0.014-0.093,0.02
				c-0.002,0.001-0.004,0.001-0.004,0.001c-0.064,0.013-0.126,0.026-0.19,0.039c-0.002,0-0.002,0-0.004,0.001
				c-0.062,0.013-0.126,0.025-0.19,0.038c0,0.001-0.002,0.001-0.004,0.001c-0.031,0.006-0.062,0.013-0.093,0.019
				c-0.002,0-0.004,0-0.004,0.001c-0.064,0.011-0.126,0.023-0.188,0.035c-0.004,0.001-0.006,0.001-0.01,0.002
				c-0.062,0.012-0.124,0.024-0.186,0.034c-0.002,0.001-0.006,0.002-0.008,0.002c-0.031,0.005-0.062,0.011-0.095,0.016l0,0
				c-0.064,0.012-0.13,0.023-0.194,0.035c0,0.001-0.002,0.001-0.004,0.001c-0.064,0.01-0.128,0.022-0.192,0.033
				c-0.002,0-0.004,0-0.004,0c-0.097,0.017-0.193,0.033-0.29,0.049c-0.004,0-0.004,0-0.006,0.001
				c-0.065,0.01-0.129,0.021-0.193,0.031l-0.002,0.001c-1.25,0.198-2.519,0.337-3.806,0.416l-0.184-2.994
				c3.929-0.242,7.763-1.101,11.397-2.552C2115.005,544.502,2118.29,542.558,2121.24,540.134z M2050.263,548.534l25.001,0l0,3l-25,0
				L2050.263,548.534z M2000.262,548.533l25,0.001v2.999l-25,0L2000.262,548.533z M1950.261,548.534l25,0l0,3l-25-0.001V548.534z
				 M1900.263,548.534l25,0.001l0,2.999l-25,0L1900.263,548.534z M1850.262,548.534l25,0v2.999l-25,0V548.534z M1800.261,548.534
				l25,0l0,3l-24.999,0.001L1800.261,548.534z M1750.263,548.533l25,0.001v2.999l-25,0L1750.263,548.533z M1700.262,548.534l25,0
				l0,3l-25-0.001V548.534z M1650.261,548.533l25,0.001l0,2.999l-24.998,0.001L1650.261,548.533z M1600.262,548.534l25,0l0,3
				l-25-0.001L1600.262,548.534z M1550.262,548.534l25,0.001l0,2.999l-25,0L1550.262,548.534z M1500.263,548.534l24.999-0.001
				l0,2.999l-24.999,0.001L1500.263,548.534z M1450.262,548.534l25,0l0,3l-25-0.001L1450.262,548.534z M1400.262,548.533l25,0.001
				v2.999l-25,0L1400.262,548.533z M1350.263,548.534l24.998-0.001l0,3l-24.998,0V548.534z M1300.262,548.534l25,0.001v2.999l-25,0
				L1300.262,548.534z M1250.261,548.534l25,0l0,3l-25-0.001V548.534z M1200.263,548.534l24.999-0.001l0,3l-24.999,0.001
				L1200.263,548.534z M1150.262,548.534l25,0v2.999l-25,0L1150.262,548.534z M1100.261,548.534l25,0l0,3l-25-0.001V548.534z
				 M1050.263,548.534l25,0.001l0,2.999l-25,0L1050.263,548.534z M1000.262,548.534l25,0l0,3l-25-0.001L1000.262,548.534z
				 M950.261,548.534l25,0l0,3l-25,0L950.261,548.534z M900.262,548.534l25,0l0,3l-25-0.001L900.262,548.534z M850.262,548.534l25,0
				l0,3l-25,0L850.262,548.534z M800.261,548.534l25,0l0,2.999l-25,0L800.261,548.534z M750.262,548.534l25.001,0l0,3l-25.001-0.001
				L750.262,548.534z M700.263,548.534l24.999,0l0.001,3l-25,0L700.263,548.534z M650.262,548.534l25,0l0,2.999l-24.999,0
				L650.262,548.534z M600.262,548.534l25,0l0,3l-25,0L600.262,548.534z M550.262,548.534l25,0l0,2.999l-25,0L550.262,548.534z
				 M500.262,548.534l25,0l0,3l-24.999,0L500.262,548.534z M450.262,548.534l25,0l0,2.999l-25,0L450.262,548.534z M400.262,548.534
				l25,0l0,3l-25-0.001L400.262,548.534z M350.262,548.534l25,0.001l0,2.999l-24.999,0L350.262,548.534z M300.262,548.534l25,0
				l0,2.999l-25,0L300.262,548.534z M250.262,548.534l25,0l0,3l-25,0L250.262,548.534z M200.262,548.533l24.999,0.001l0,2.999
				l-24.999,0L200.262,548.533z M150.262,548.534l25,0l0,3l-24.999,0L150.262,548.534z M100.262,548.534l25,0.001l0,2.999l-25,0
				L100.262,548.534z M52.086,545.059c4.921,2.306,10.196,3.474,15.677,3.475l7.499-0.001l0,3l-7.499,0
				c-0.031,0-0.064,0.001-0.094,0c-0.023,0.001-0.049,0-0.071,0c-0.024-0.001-0.046,0-0.07-0.001c-0.023,0-0.046,0-0.069,0
				c-0.023,0-0.045,0-0.069,0c-0.022,0-0.044-0.001-0.067-0.001c-0.022,0-0.045-0.001-0.068,0c-0.022,0-0.046-0.001-0.068-0.001
				c-0.023-0.001-0.044-0.001-0.066-0.001c-0.02,0-0.039-0.001-0.059,0c-0.004-0.001-0.005,0-0.009-0.001
				c-0.029-0.001-0.059-0.001-0.087-0.001c-0.026-0.001-0.051-0.001-0.076-0.002c-0.023,0-0.045-0.001-0.067-0.001
				c-0.023,0-0.046-0.001-0.068-0.001c-0.023-0.001-0.047-0.002-0.069-0.003c-0.013-0.001-0.026-0.001-0.038,0
				c-0.009-0.001-0.022-0.001-0.032-0.001c-0.022,0-0.044-0.002-0.066-0.002c-0.023,0-0.044-0.002-0.067-0.002
				c-0.023-0.001-0.046-0.002-0.068-0.002c-0.022,0-0.044-0.002-0.067-0.002c-0.026-0.001-0.05-0.002-0.075-0.003
				c-0.026-0.001-0.051-0.002-0.077-0.003c-0.026-0.001-0.05-0.002-0.075-0.003c-0.024-0.002-0.046-0.002-0.071-0.003
				c-0.022-0.001-0.043-0.002-0.065-0.003c-0.024-0.002-0.044-0.003-0.067-0.003c-0.023-0.001-0.045-0.003-0.067-0.003
				c-0.024-0.002-0.046-0.003-0.069-0.003c-0.022-0.001-0.043-0.002-0.066-0.004c-0.023,0-0.045-0.002-0.068-0.003
				c-0.001,0,0.001,0-0.001,0c-0.045-0.002-0.092-0.005-0.138-0.007c-0.004-0.001-0.008-0.001-0.013-0.001
				c-0.018,0-0.038-0.001-0.055-0.003c-0.023-0.001-0.045-0.003-0.067-0.004c-0.023-0.001-0.047-0.002-0.069-0.003
				c-0.007,0-0.013-0.001-0.02-0.002c-0.016-0.001-0.033-0.001-0.048-0.002c-0.007,0-0.013-0.001-0.02-0.002
				c-0.017-0.001-0.034-0.002-0.051-0.003c-0.005,0-0.011-0.001-0.016-0.001c-0.018,0-0.035-0.002-0.052-0.003
				c-0.006-0.001-0.012-0.001-0.017-0.001c-0.019-0.002-0.038-0.003-0.057-0.004c-0.003,0-0.007,0-0.01,0
				c-0.022-0.002-0.044-0.004-0.066-0.005l-0.002,0c-0.092-0.006-0.185-0.013-0.277-0.02c-0.003-0.001-0.004-0.001-0.007,0
				c-0.021-0.002-0.041-0.004-0.062-0.005c-0.002,0-0.005,0-0.008-0.001c-0.02-0.002-0.04-0.004-0.06-0.005
				c-0.004-0.001-0.007-0.001-0.011-0.001c-0.02-0.002-0.038-0.003-0.058-0.005c-0.004,0-0.007,0-0.011,0
				c-0.019-0.002-0.038-0.003-0.058-0.005c-0.004,0-0.007,0-0.011,0c-0.183-0.016-0.367-0.033-0.548-0.05
				c-0.003-0.001-0.003-0.001-0.005-0.001c-4.615-0.45-8.999-1.684-13.018-3.567L52.086,545.059z M27.762,506.873l3,0l0,4.661
				c0,3.208,0.41,6.392,1.22,9.462c0.785,2.978,1.947,5.854,3.452,8.549l-2.619,1.463c-1.61-2.882-2.873-5.982-3.733-9.247
				c-0.107-0.407-0.208-0.816-0.303-1.228c-0.001-0.002-0.001-0.005-0.002-0.007c-0.011-0.05-0.023-0.099-0.034-0.149
				c-0.001-0.004-0.002-0.009-0.003-0.015c-0.005-0.018-0.009-0.037-0.013-0.055c-0.001-0.008-0.004-0.017-0.005-0.025
				c-0.004-0.015-0.007-0.029-0.01-0.045c-0.002-0.008-0.004-0.019-0.006-0.028c-0.004-0.018-0.008-0.035-0.012-0.054
				c-0.003-0.012-0.005-0.025-0.008-0.037c-0.003-0.014-0.006-0.028-0.009-0.043c-0.003-0.013-0.006-0.025-0.008-0.037
				c-0.003-0.009-0.005-0.02-0.007-0.03c-0.003-0.013-0.006-0.028-0.009-0.042c-0.002-0.006-0.003-0.013-0.004-0.02
				c-0.012-0.057-0.024-0.11-0.036-0.167c0-0.001,0-0.002,0-0.002c-0.004-0.02-0.008-0.039-0.012-0.058
				c-0.001-0.002-0.001-0.004-0.001-0.006c-0.384-1.846-0.64-3.742-0.76-5.673c0-0.001,0-0.002,0-0.004
				c-0.005-0.081-0.01-0.165-0.015-0.247c0-0.003,0-0.006,0-0.009c-0.001-0.017-0.002-0.036-0.003-0.054
				c0-0.005-0.001-0.012-0.001-0.017c-0.001-0.017-0.001-0.036-0.003-0.053c0-0.002,0-0.003-0.001-0.005
				c-0.002-0.038-0.004-0.075-0.006-0.114c0-0.004,0-0.007,0-0.011c-0.001-0.016-0.002-0.033-0.003-0.048
				c0-0.009-0.001-0.017-0.001-0.025c-0.001-0.014-0.001-0.031-0.002-0.046c0-0.008-0.001-0.016-0.001-0.024
				c-0.002-0.052-0.005-0.103-0.007-0.156c0-0.009,0-0.018-0.001-0.026c-0.001-0.015-0.001-0.029-0.001-0.044
				c-0.001-0.01-0.001-0.02-0.001-0.03c-0.001-0.013-0.001-0.028-0.002-0.041c0-0.011-0.001-0.022-0.001-0.032
				c-0.001-0.025-0.002-0.05-0.003-0.076c0-0.01-0.001-0.02-0.001-0.03c0-0.013-0.001-0.028-0.001-0.042
				c-0.001-0.01-0.001-0.02-0.001-0.03c0-0.013-0.001-0.028-0.001-0.041c0-0.012-0.001-0.024-0.001-0.037
				c0-0.011-0.001-0.023-0.001-0.035c-0.001-0.022-0.001-0.044-0.002-0.065c0-0.011-0.001-0.022-0.001-0.032
				c0-0.016-0.001-0.031-0.002-0.046c0-0.009,0-0.022,0-0.031c-0.001-0.015-0.001-0.03-0.001-0.045c0-0.009-0.001-0.022-0.001-0.031
				c-0.001-0.017-0.001-0.034-0.001-0.051c0-0.008-0.001-0.015-0.001-0.023c-0.001-0.024-0.001-0.047-0.002-0.071
				c0-0.011,0-0.018-0.001-0.029c0-0.015,0-0.031-0.001-0.046c0-0.011,0-0.021-0.001-0.032c0-0.015-0.001-0.03-0.001-0.045
				c0-0.009-0.001-0.02-0.001-0.03c0-0.024-0.001-0.048-0.001-0.072c0-0.004,0-0.008,0-0.012c0-0.021-0.001-0.042-0.001-0.064
				c0-0.008,0-0.016,0-0.024c-0.001-0.018-0.001-0.035-0.001-0.053c0-0.008,0-0.017-0.001-0.025c0-0.019,0-0.037-0.001-0.056
				c0-0.007,0-0.014,0-0.021c0-0.025,0-0.049-0.001-0.074c0-0.007,0-0.012,0-0.019c0-0.019,0-0.038,0-0.056c0-0.01,0-0.017,0-0.027
				c0-0.018,0-0.035,0-0.053c0-0.007,0-0.016,0-0.023c0-0.025,0-0.051,0-0.076L27.762,506.873z M27.763,456.872l3,0l0,25l-3,0
				L27.763,456.872z M27.762,406.872l3,0l0,25l-3,0L27.762,406.872z M27.762,356.873l3,0l0,25l-3,0L27.762,356.873z M27.762,306.873
				l3-0.001l0,25l-3,0L27.762,306.873z M27.762,256.872l3,0l0,25l-3,0L27.762,256.872z M27.762,206.873l3,0l0,25l-3,0
				L27.762,206.873z M27.762,156.873l3,0l0,24.999l-3,0L27.762,156.873z M27.763,106.872l3,0l0,25l-3,0L27.763,106.872z
				 M27.762,56.873l3,0l0,25l-3,0L27.762,56.873z M27.762,6.873l3-0.001l0,25l-3,0L27.762,6.873z M27.762-43.128l3,0l0,25l-3,0
				L27.762-43.128z M27.762-93.128l3,0l0,25l-3,0L27.762-93.128z M27.762-143.127l3,0l0,24.999l-3,0L27.762-143.127z
				 M27.762-193.128l3,0l0,25l-3,0L27.762-193.128z M27.762-243.128l3,0l0,25l-3,0L27.762-243.128z M27.762-293.127l3,0l0,24.999
				l-3,0.001L27.762-293.127z M27.762-343.127l3-0.001l0,25l-3,0L27.762-343.127z M27.762-393.128l3,0l0,25l-3,0L27.762-393.128z
				 M27.762-443.127l3,0l0,24.999l-3,0.001L27.762-443.127z M27.762-493.127l3,0l0,24.999l-3,0L27.762-493.127z M27.762-543.128l3,0
				l0,25l-3,0L27.762-543.128z M27.762-593.128l3,0l0,25l-3,0L27.762-593.128z M27.762-643.127l3,0l0,24.999l-3,0L27.762-643.127z
				 M27.762-693.128l3,0l0,25l-3,0L27.762-693.128z M27.762-743.128l3,0l0,25l-3,0L27.762-743.128z M27.762-793.127l3,0l0,24.999
				l-3,0L27.762-793.127z M27.763-843.128l3,0l0,25l-3,0L27.763-843.128z M40.5-889.558l2.045,2.195
				c-2.808,2.616-5.183,5.634-7.059,8.97c-1.914,3.404-3.267,7.07-4.023,10.896l-2.943-0.581c0.138-0.701,0.295-1.395,0.469-2.081
				c0.001-0.005,0.002-0.01,0.003-0.013c0.008-0.033,0.016-0.063,0.025-0.096c0.002-0.008,0.004-0.015,0.006-0.023
				c0.004-0.017,0.009-0.034,0.013-0.051c0.001-0.005,0.003-0.008,0.003-0.012c0.008-0.033,0.017-0.064,0.025-0.097
				c0.002-0.008,0.004-0.016,0.006-0.025c0.007-0.026,0.014-0.053,0.021-0.08c0.003-0.009,0.005-0.02,0.008-0.03
				c0.004-0.016,0.008-0.031,0.013-0.047c0.003-0.011,0.006-0.025,0.01-0.037c0.006-0.022,0.011-0.041,0.017-0.063
				c0.004-0.014,0.008-0.028,0.011-0.043c0.004-0.014,0.007-0.026,0.011-0.04c0.006-0.023,0.012-0.045,0.019-0.068
				c0.003-0.011,0.007-0.024,0.01-0.035c0.004-0.017,0.009-0.033,0.014-0.049c0.003-0.011,0.006-0.023,0.009-0.034
				c0.006-0.023,0.013-0.046,0.019-0.069c0.003-0.011,0.006-0.023,0.01-0.034c0.006-0.022,0.012-0.043,0.018-0.064
				c0.003-0.01,0.006-0.023,0.009-0.033c0.005-0.02,0.011-0.04,0.017-0.059c0.002-0.009,0.005-0.019,0.008-0.027
				c0.007-0.026,0.014-0.05,0.022-0.075c0.002-0.009,0.005-0.017,0.007-0.026c0.007-0.023,0.013-0.045,0.02-0.068
				c0.002-0.005,0.003-0.009,0.004-0.014c0.008-0.026,0.015-0.053,0.023-0.079c0.002-0.009,0.005-0.016,0.007-0.024
				c0.008-0.026,0.015-0.054,0.023-0.08c0.001-0.005,0.002-0.008,0.004-0.013c0.008-0.024,0.015-0.05,0.023-0.075
				c0.001-0.005,0.003-0.01,0.005-0.016c0.008-0.027,0.017-0.055,0.025-0.083c0.001-0.005,0.003-0.011,0.005-0.016
				c0.008-0.028,0.017-0.056,0.026-0.084l0-0.001c0.009-0.029,0.018-0.058,0.026-0.087c0.002-0.005,0.002-0.007,0.005-0.013
				c0.009-0.029,0.017-0.058,0.026-0.087c0.001-0.001,0.001-0.003,0.001-0.004c0.009-0.03,0.018-0.059,0.028-0.089
				c0.001-0.001,0.001-0.003,0.001-0.005c0.009-0.029,0.018-0.058,0.028-0.088c0.001-0.004,0.002-0.007,0.004-0.011
				c0.018-0.058,0.037-0.117,0.056-0.175c0.001-0.004,0.002-0.007,0.003-0.011c0.01-0.029,0.019-0.058,0.029-0.088
				c0.001-0.002,0.001-0.003,0.002-0.006c0.009-0.028,0.019-0.057,0.028-0.086c0.001-0.003,0.001-0.003,0.002-0.006
				c0.01-0.029,0.019-0.058,0.029-0.088c0.001-0.004,0.002-0.006,0.003-0.009c0.019-0.059,0.039-0.119,0.059-0.178
				c0-0.001,0.002-0.006,0.002-0.007c0.01-0.029,0.019-0.059,0.03-0.088c0.001-0.003,0.001-0.005,0.002-0.007
				c0.02-0.059,0.04-0.118,0.06-0.177c0.001-0.005,0.002-0.007,0.004-0.011c0.02-0.058,0.04-0.117,0.06-0.175
				c0.001-0.002,0.002-0.006,0.003-0.008c0.01-0.029,0.02-0.058,0.03-0.088c0.001-0.002,0.001-0.004,0.002-0.007
				c0.021-0.059,0.042-0.117,0.063-0.176c0.001-0.004,0.002-0.008,0.003-0.01c0.011-0.03,0.021-0.059,0.031-0.087
				c0-0.001,0.001-0.003,0.001-0.004c0.01-0.028,0.02-0.056,0.03-0.084c0.001-0.003,0.002-0.007,0.003-0.009
				c0.01-0.028,0.02-0.056,0.031-0.084c0.001-0.004,0.003-0.007,0.004-0.011c0.02-0.057,0.041-0.112,0.062-0.169
				c0.002-0.006,0.004-0.011,0.006-0.017c0.01-0.027,0.02-0.055,0.03-0.082c0.001-0.004,0.003-0.007,0.004-0.011
				c0.009-0.025,0.019-0.05,0.028-0.075c0.002-0.005,0.003-0.008,0.005-0.013c0.01-0.027,0.02-0.054,0.03-0.081
				c0.002-0.005,0.005-0.012,0.007-0.017c0.01-0.027,0.02-0.054,0.031-0.081c0.001-0.004,0.003-0.006,0.003-0.01
				c0.01-0.024,0.019-0.049,0.029-0.073c0.002-0.007,0.004-0.012,0.006-0.018c0.01-0.027,0.02-0.053,0.031-0.079
				c0.002-0.008,0.004-0.011,0.007-0.018c0.009-0.022,0.018-0.045,0.027-0.068c0.001-0.005,0.004-0.01,0.005-0.015
				c0.01-0.026,0.02-0.051,0.03-0.077c0.003-0.008,0.006-0.014,0.009-0.022c0.01-0.026,0.02-0.051,0.03-0.077
				c0.001-0.005,0.003-0.009,0.006-0.014c0.008-0.022,0.017-0.044,0.026-0.067c0.003-0.007,0.006-0.015,0.009-0.023
				c0.01-0.025,0.02-0.05,0.03-0.074c0.003-0.007,0.006-0.016,0.009-0.023c0.008-0.019,0.016-0.041,0.024-0.06
				c0.004-0.008,0.007-0.016,0.01-0.025c0.009-0.023,0.019-0.045,0.028-0.069c0.004-0.008,0.007-0.017,0.01-0.026
				c0.01-0.024,0.02-0.048,0.03-0.072c0.003-0.008,0.006-0.015,0.009-0.023c0.008-0.018,0.015-0.038,0.023-0.057
				c0.004-0.009,0.007-0.018,0.011-0.027c0.009-0.023,0.019-0.045,0.028-0.068c0.005-0.011,0.009-0.021,0.014-0.032
				c0.007-0.017,0.014-0.034,0.021-0.052c0.005-0.011,0.01-0.025,0.016-0.037c0.008-0.018,0.016-0.038,0.023-0.056
				c0.004-0.01,0.008-0.02,0.013-0.03c0.009-0.023,0.019-0.045,0.028-0.067c0.005-0.011,0.009-0.021,0.014-0.031
				c0.007-0.016,0.013-0.031,0.02-0.047c0.005-0.011,0.009-0.021,0.014-0.033c0.009-0.021,0.018-0.042,0.027-0.064
				c0.005-0.011,0.01-0.023,0.015-0.035c0.006-0.015,0.013-0.029,0.019-0.044c0.007-0.017,0.015-0.035,0.023-0.052
				c0.006-0.014,0.012-0.027,0.018-0.041c0.005-0.012,0.011-0.026,0.016-0.037c0.008-0.018,0.016-0.036,0.023-0.053
				c0.007-0.017,0.014-0.032,0.021-0.049c0.005-0.011,0.01-0.023,0.015-0.034c0.009-0.021,0.018-0.04,0.027-0.06
				c0.006-0.013,0.011-0.026,0.017-0.039c0.006-0.014,0.012-0.028,0.019-0.042c0.004-0.01,0.009-0.02,0.013-0.03
				c0.011-0.024,0.021-0.048,0.032-0.071c0.004-0.009,0.007-0.017,0.012-0.027c0.007-0.015,0.013-0.029,0.02-0.044
				c0.005-0.013,0.011-0.025,0.016-0.037c0.01-0.022,0.02-0.043,0.03-0.065c0.004-0.008,0.008-0.017,0.012-0.026
				c0.012-0.027,0.024-0.053,0.036-0.079c0.003-0.007,0.007-0.015,0.01-0.022c0.007-0.016,0.015-0.032,0.022-0.048
				c0.002-0.004,0.003-0.007,0.005-0.011c0.014-0.03,0.028-0.061,0.042-0.091c0.003-0.006,0.006-0.012,0.009-0.018
				c0.024-0.05,0.048-0.101,0.071-0.151c0.002-0.006,0.004-0.01,0.007-0.015c0.014-0.03,0.029-0.061,0.042-0.09
				c0.002-0.005,0.004-0.009,0.007-0.014c0.008-0.017,0.016-0.035,0.025-0.052l0,0c0.017-0.035,0.032-0.066,0.048-0.101
				c0.003-0.005,0.005-0.01,0.008-0.015c0.025-0.052,0.049-0.102,0.074-0.154c0.001-0.003,0.003-0.006,0.004-0.009
				c0.016-0.032,0.031-0.065,0.047-0.096c0.002-0.004,0.003-0.006,0.004-0.009c0.026-0.053,0.051-0.104,0.077-0.156
				c0.002-0.003,0.003-0.006,0.004-0.01c0.026-0.052,0.052-0.104,0.078-0.156c0.001-0.002,0.001-0.002,0.002-0.004
				c0.017-0.034,0.034-0.067,0.051-0.102c0.001-0.002,0.002-0.005,0.003-0.006c0.027-0.053,0.053-0.106,0.081-0.158
				c0-0.001,0.001-0.003,0.002-0.004c0.044-0.086,0.09-0.176,0.134-0.261c0.002-0.004,0.004-0.006,0.005-0.009
				c0.027-0.052,0.054-0.104,0.081-0.154c0.001-0.003,0.003-0.005,0.004-0.008c0.017-0.033,0.035-0.067,0.053-0.1
				c0-0.001,0.001-0.002,0.001-0.003c0.027-0.051,0.055-0.102,0.082-0.152c0.002-0.005,0.004-0.008,0.006-0.013
				c0.026-0.049,0.054-0.1,0.08-0.15c0.003-0.004,0.006-0.01,0.008-0.015c0.015-0.028,0.03-0.056,0.046-0.084
				c0.003-0.005,0.006-0.011,0.009-0.016c0.009-0.016,0.018-0.031,0.026-0.048c0.002-0.003,0.002-0.005,0.004-0.007
				c0.016-0.03,0.033-0.06,0.049-0.09c0.004-0.007,0.008-0.013,0.011-0.021c0.016-0.028,0.032-0.057,0.048-0.085
				c0.002-0.004,0.004-0.007,0.006-0.011c0.008-0.015,0.018-0.031,0.026-0.047c0.004-0.006,0.007-0.013,0.011-0.02
				c0.015-0.026,0.029-0.051,0.044-0.078c0.003-0.006,0.007-0.013,0.011-0.019c0.008-0.015,0.017-0.031,0.026-0.046
				c0.004-0.007,0.008-0.014,0.012-0.022c0.013-0.022,0.026-0.045,0.039-0.068c0.007-0.013,0.014-0.025,0.021-0.038
				c0.007-0.012,0.014-0.025,0.021-0.037c0.011-0.019,0.022-0.04,0.033-0.059c0.004-0.007,0.01-0.017,0.015-0.025
				c0.013-0.022,0.026-0.046,0.039-0.069c0.002-0.004,0.004-0.006,0.006-0.01c0.013-0.023,0.026-0.046,0.04-0.068
				c0.002-0.005,0.005-0.009,0.007-0.014c0.015-0.026,0.03-0.051,0.045-0.077c0.001-0.002,0.003-0.004,0.004-0.007
				c0.032-0.053,0.063-0.108,0.095-0.162l0.002-0.003C35.23-883.888,37.674-886.925,40.5-889.558z M67.763-900.288l0,3
				c-1.543,0-3.097,0.095-4.617,0.284l-0.37-2.977c1.225-0.152,2.467-0.249,3.723-0.288c0.002-0.001,0.003-0.001,0.004,0
				c0.026-0.001,0.053,0,0.078-0.003c0.077-0.002,0.154-0.004,0.231-0.006c0.027-0.001,0.05-0.001,0.075-0.001
				c0.025-0.001,0.052-0.001,0.077-0.002c0.004,0,0.008,0,0.012,0c0.057-0.002,0.112-0.002,0.168-0.003
				c0.027-0.001,0.052-0.001,0.078-0.002c0.025,0,0.049,0,0.074,0c0.025,0,0.049,0,0.074-0.001c0.031-0.001,0.061-0.001,0.092-0.001
				c0.026,0,0.054,0,0.08,0c0.025,0,0.05,0,0.075,0c0.024,0,0.049,0.001,0.074-0.001C67.714-900.287,67.738-900.288,67.763-900.288
				L67.763-900.288z"/>
		</g>
		<g id="Rectangle_327" transform="translate(-148.531 -375.924) rotate(-11)">
			<path fill="#253081" d="M67.762-900.288l2030,0c22.092,0,40,17.908,39.999,40l0,1371.821c0.002,22.092-17.908,40-40,40l-2030,0
				c-22.092,0-40-17.908-40-39.999l0-1371.822C27.762-882.379,45.671-900.288,67.762-900.288z"/>
			<path fill="none" stroke="#707070" d="M67.762-899.787l2030.001,0c21.815,0,39.5,17.685,39.499,39.5V511.534
				c0,21.815-17.684,39.5-39.499,39.499l-2030.001,0c-21.815,0-39.5-17.685-39.5-39.5l0-1371.822
				C28.262-882.103,45.947-899.788,67.762-899.787z"/>
		</g>
	</g>
</g>
</svg>
