<?xml version="1.0" encoding="utf-8"?>
<!-- Generator: Adobe Illustrator 16.0.0, SVG Export Plug-In . SVG Version: 6.00 Build 0)  -->
<!DOCTYPE svg PUBLIC "-//W3C//DTD SVG 1.1//EN" "http://www.w3.org/Graphics/SVG/1.1/DTD/svg11.dtd">
<svg version="1.1" id="Layer_1" xmlns="http://www.w3.org/2000/svg" xmlns:xlink="http://www.w3.org/1999/xlink" x="0px" y="0px"
	 width="123px" height="135.03px" viewBox="0 0 123 135.03" enable-background="new 0 0 123 135.03" xml:space="preserve">
<g>
	<g>
		<path id="Pfad_3309" fill="#58d38c" d="M26,25.6c7.1,0,12.8-5.7,12.8-12.8C38.8,5.7,33,0,26,0S13.2,5.7,13.2,12.8l0,0
			C13.2,19.8,18.9,25.6,26,25.6"/>
		<path id="Pfad_3310" fill="#58d38c" d="M97,25.6c7.1,0,12.8-5.7,12.8-12.8C109.8,5.7,104.1,0,97,0S84.3,5.7,84.3,12.8l0,0
			C84.3,19.8,90,25.6,97,25.6"/>
		<path id="Pfad_3311" fill="#58d38c" d="M123,56.3C123,43.4,111.4,33,97,33c-11.2,0-20.8,6.4-24.4,15.4c-7.1-3-15.1-3-22.2,0
			C46.8,39.4,37.2,33,26,33C11.6,33,0,43.4,0,56.3v9.2h35.9c-0.3,1.3-0.4,2.6-0.4,4v9.2h51.9v-9.2c0-1.3-0.101-2.7-0.4-4h36V56.3z"
			/>
		<path id="Pfad_3312" fill="#58d38c" d="M61.5,38.7c7.1,0,12.8-5.7,12.8-12.8s-5.7-12.8-12.8-12.8c-7.1,0-12.8,5.7-12.8,12.8
			S54.4,38.7,61.5,38.7L61.5,38.7"/>
	</g>
	<path id="Pfad_3313" fill="#58d38c" d="M4.9,135c-0.8,0-1.6-0.2-2.3-0.6c-0.6-0.4-1.1-1-1.5-1.7c-0.3-0.8-0.5-1.601-0.5-2.4V112.9
		h3.2V130.3c0,0.4,0.1,0.8,0.3,1.101c0.2,0.3,0.5,0.5,0.8,0.5c0.4,0,0.7-0.2,0.8-0.5c0.2-0.4,0.2-0.7,0.2-1.101V112.9h3.2V130.3
		c0,0.8-0.2,1.7-0.5,2.4C8,134.2,6.5,135.1,4.9,135 M1.4,108.2h2.8v2.899H1.4V108.2z M5.6,108.2h2.8v2.899H5.6V108.2z"/>
	<path id="Pfad_3314" fill="#58d38c" d="M17.5,134.8V112.9h3.3c1,0,2,0.199,2.9,0.6c0.8,0.4,1.5,1,1.9,1.8c0.5,1,0.7,2.101,0.7,3.2
		c0,0.9-0.1,1.9-0.4,2.8c-0.3,0.8-0.9,1.5-1.6,1.9c0.8,0.5,1.4,1.2,1.7,2.1c0.4,1.101,0.5,2.2,0.5,3.3c0,1.101-0.2,2.2-0.6,3.2
		c-0.7,1.9-2.5,3.101-4.5,3H17.5z M20.7,121.9c0.7,0.1,1.4-0.2,1.9-0.7c0.4-0.7,0.6-1.4,0.5-2.2c0.1-0.8-0.1-1.5-0.5-2.2
		c-0.5-0.5-1.2-0.8-1.9-0.7V121.9z M20.7,131.6c0.8,0.101,1.5-0.199,1.9-0.899c0.6-1.601,0.6-3.4,0-5c-0.4-0.601-1.2-1-1.9-0.9
		V131.6z"/>
	<path id="Pfad_3315" fill="#58d38c" d="M34.3,134.8V112.9h7.4v3.3h-4.1v5.899h3v3.2h-3v6.2h4.1v3.3H34.3z"/>
	<path id="Pfad_3316" fill="#58d38c" d="M50,134.8V112.9h3.2c1.6-0.101,3.2,0.5,4.3,1.6c1,1.4,1.5,3,1.4,4.7c0,1.1-0.2,2.2-0.6,3.2
		c-0.3,0.8-0.9,1.5-1.6,2l2.2,10.399h-3.2l-1.8-9.2h-0.6v9.2H50z M53.2,122.6c0.5,0,1-0.1,1.4-0.399s0.6-0.7,0.7-1.101
		c0.2-0.6,0.2-1.1,0.2-1.699c0-0.801-0.1-1.7-0.5-2.4c-0.4-0.6-1.1-0.9-1.9-0.8L53.2,122.6z"/>
	<path id="Pfad_3317" fill="#58d38c" d="M81.5,135c-0.8,0-1.6-0.2-2.3-0.6c-0.601-0.4-1.2-1-1.5-1.7c-0.3-0.8-0.5-1.601-0.5-2.4
		V112.9h3.2V130.3c0,0.4,0.1,0.8,0.3,1.101c0.3,0.5,0.8,0.6,1.3,0.399c0.2-0.1,0.3-0.2,0.4-0.399C82.6,131,82.6,130.7,82.6,130.3
		V112.9h3.2V130.3c0,0.8-0.2,1.7-0.5,2.4C84.6,134.2,83.1,135.1,81.5,135"/>
	<path id="Pfad_3318" fill="#58d38c" d="M94.1,134.8V112.9h3l3,11.399l0.301,1h0.199V112.9h3V134.8H100.9L97.6,123.4l-0.3-1h-0.2
		V134.8H94.1z"/>
	<path id="Pfad_3319" fill="#58d38c" d="M115.7,135c-0.8,0-1.5-0.1-2.2-0.4c-0.6-0.3-1.1-0.699-1.4-1.3c-0.399-0.6-0.6-1.3-0.699-2
		c-0.2-0.899-0.2-1.8-0.2-2.7l3.2-0.3c0,0.5,0,0.9,0.1,1.4c0,0.399,0.1,0.8,0.2,1.2c0.1,0.3,0.2,0.6,0.399,0.8
		c0.2,0.2,0.4,0.3,0.7,0.3c0.4,0,0.9-0.2,1-0.7c0.2-0.5,0.3-1.1,0.3-1.6c0-0.7-0.199-1.3-0.5-2c-0.3-0.7-0.699-1.3-1.199-1.9
		c-0.801-1-1.5-2-2-2.899c-0.5-0.801-1-1.7-1.4-2.601c-0.3-0.899-0.5-1.8-0.5-2.7c0-0.699,0.1-1.399,0.3-2c0.2-0.6,0.5-1.1,0.8-1.6
		c0.4-0.5,0.801-0.8,1.301-1.1c0.6-0.301,1.199-0.4,1.8-0.4c0.7,0,1.399,0.1,2.1,0.4c0.601,0.3,1,0.699,1.4,1.199
		c0.399,0.601,0.6,1.2,0.8,1.801c0.2,0.8,0.3,1.6,0.2,2.399l-3.2,0.3c0-0.399,0-0.699-0.1-1.1c0-0.3-0.101-0.7-0.2-1
		c-0.101-0.3-0.2-0.5-0.4-0.7s-0.399-0.3-0.7-0.3c-0.399,0-0.699,0.2-0.899,0.5c-0.2,0.5-0.3,1-0.2,1.5c0,0.9,0.2,1.7,0.7,2.4
		c0.6,0.899,1.2,1.8,1.8,2.699c0.8,1.101,1.5,2.2,2.2,3.4c0.6,1,0.899,2.2,0.899,3.4c0,0.699-0.1,1.5-0.3,2.199
		c-0.2,0.601-0.399,1.2-0.8,1.801c-0.4,0.5-0.8,0.899-1.4,1.199C117.1,134.9,116.4,135.1,115.7,135"/>
</g>
</svg>
