<?xml version="1.0" encoding="utf-8"?>
<!-- Generator: Adobe Illustrator 16.0.0, SVG Export Plug-In . SVG Version: 6.00 Build 0)  -->
<!DOCTYPE svg PUBLIC "-//W3C//DTD SVG 1.1//EN" "http://www.w3.org/Graphics/SVG/1.1/DTD/svg11.dtd">
<svg version="1.1" id="Layer_1" xmlns="http://www.w3.org/2000/svg" xmlns:xlink="http://www.w3.org/1999/xlink" x="0px" y="0px"
	 width="325px" height="32.2px" viewBox="0 0 325 32.2" enable-background="new 0 0 325 32.2" xml:space="preserve">
<path id="Pfad_3335" fill="#29347C" d="M184.101,32.2c-2.301,0-4.5,0-6.801-0.101V28.9c7.5,0.1,15.101,0,22.4-0.2l0.1,3.2
	C194.7,32.1,189.4,32.2,184.101,32.2 M154.8,31.3c-7.3-0.5-14.8-1.1-22.399-1.899l0.3-3.201c7.6,0.801,15.1,1.4,22.3,1.9L154.8,31.3
	z M222.4,30.4l-0.301-3.2c7.5-0.7,14.9-1.7,22.2-2.9l0.5,3.2C237.5,28.7,230,29.7,222.4,30.4 M110,26.6
	c-7.199-1-14.699-2.199-22.199-3.5l0.6-3.199c7.5,1.299,15,2.5,22.1,3.5L110,26.6z M266.9,23.1l-0.7-3.1c7.3-1.7,14.5-3.7,21.5-5.9
	l1,3.1C281.601,19.4,274.3,21.4,266.9,23.1 M65.7,18.9c-7.1-1.4-14.5-3-22-4.801l0.7-3.1c7.5,1.7,14.8,3.301,21.899,4.7L65.7,18.9z
	 M309.9,9.5l-1.2-3c5-2,10-4.2,14.9-6.5L325,2.9C320.101,5.2,315,7.4,309.9,9.5 M21.8,8.9c-7-1.7-14.3-3.6-21.8-5.6L0.8,0.2
	c7.5,2,14.801,3.899,21.7,5.601L21.8,8.9z"/>
</svg>
