<?xml version="1.0" encoding="utf-8"?>
<!-- Generator: Adobe Illustrator 16.0.0, SVG Export Plug-In . SVG Version: 6.00 Build 0)  -->
<!DOCTYPE svg PUBLIC "-//W3C//DTD SVG 1.1//EN" "http://www.w3.org/Graphics/SVG/1.1/DTD/svg11.dtd">
<svg version="1.1" id="Layer_1" xmlns="http://www.w3.org/2000/svg" xmlns:xlink="http://www.w3.org/1999/xlink" x="0px" y="0px"
	 width="121.1px" height="110.1px" viewBox="0 0 121.1 110.1" enable-background="new 0 0 121.1 110.1" xml:space="preserve">
<g id="gwg_in_kassel" transform="translate(1372.992 878.446)">
	<rect id="Rechteck_426" x="-1278.593" y="-866.246" fill="#58d38c" width="3.2" height="21.5"/>
	<path id="Pfad_3329" fill="#58d38c" d="M-1267.192-844.746v-21.5h3l2.9,11.2l0.3,1h0.2v-12.2h2.899v21.5h-2.7l-3.199-11.2l-0.301-1
		h-0.199v12.2H-1267.192z"/>
	<path id="Pfad_3330" fill="#58d38c" d="M-1318.692-826.246h-0.2l-0.1,1.1l-0.9,7.2h2.2l-0.9-7.2L-1318.692-826.246z"/>
	<path id="Pfad_3331" fill="#58d38c" d="M-1291.292-873.446c0-2.8-2.301-5-5-5l0,0h-35.9c-22.5,0-40.8,18.3-40.8,40.9
		c0,22.5,18.3,40.801,40.8,40.801v28.398c22.6,0,40.8-18.299,40.8-40.799l0,0c0-0.6,0-1.201,0-1.801c0-0.1,0-0.299,0-0.4
		L-1291.292-873.446z M-1340.292-861.846c0-0.8,0.199-1.6,0.5-2.4c0.3-0.7,0.8-1.3,1.5-1.7c0.699-0.4,1.399-0.6,2.199-0.6
		c0.601,0,1.2,0.1,1.801,0.4c0.5,0.2,1,0.6,1.3,1c0.399,0.4,0.7,0.9,0.8,1.5c0.2,0.6,0.3,1.2,0.3,1.8v3.3h-3.1v-3.3
		c0-0.4-0.101-0.8-0.2-1.1c-0.3-0.4-0.8-0.6-1.3-0.3c-0.2,0.1-0.3,0.2-0.4,0.4c-0.2,0.3-0.2,0.7-0.2,1.1v13c0,0.4,0.101,0.8,0.2,1.1
		c0.3,0.4,0.8,0.6,1.3,0.4c0.2-0.1,0.301-0.2,0.4-0.4c0.2-0.3,0.2-0.7,0.2-1.1v-3.6h-1.3v-3h4.399v10.7h-1.899l-0.4-1.2
		c-0.3,0.4-0.6,0.8-1,1c-0.4,0.2-0.9,0.4-1.4,0.4c-0.8,0-1.5-0.2-2.1-0.6c-0.6-0.4-1-1-1.2-1.7c-0.3-0.8-0.399-1.6-0.399-2.4
		V-861.846z M-1333.892-810.145l-2.1-9.801h-0.101l-0.899,2.201v7.6h-3.2v-21.5h3.2v7.5h0.1l0.101-0.4l2.5-7.2h3.3l-2.9,7.1
		l3.3,14.401L-1333.892-810.145z M-1316.593-810.145l-0.6-4.4h-3l-0.6,4.4h-3.101l3.3-21.5h3.9l3.3,21.5H-1316.593z
		 M-1313.093-844.746h-2.5l-1.5-10.2l-0.199-1.3h-0.101l-0.2,1.3l-1.399,10.2h-2.5l-2.9-21.5h2.9l1.3,11.2l0.1,0.7h0.2l0.101-0.7
		l1.3-11.2h2.3l1.3,11.2l0.101,0.7h0.199l0.101-0.7l1.3-11.2h2.9L-1313.093-844.746z M-1302.892-824.646c0.5,0.9,1.101,1.8,1.8,2.7
		c0.801,1.1,1.5,2.201,2.2,3.301c0.601,1,0.9,2.199,0.8,3.299c0,0.701-0.1,1.4-0.199,2.102c-0.101,0.6-0.4,1.199-0.801,1.699
		c-0.399,0.5-0.8,0.9-1.399,1.1c-0.601,0.301-1.3,0.4-2,0.4s-1.5-0.1-2.2-0.4c-0.6-0.299-1-0.699-1.4-1.299
		c-0.399-0.602-0.6-1.301-0.699-2c-0.101-0.701-0.2-1.5-0.2-2.4l3.1-0.301c0,0.5,0,0.9,0.101,1.4c0,0.4,0.1,0.801,0.199,1.199
		c0.101,0.301,0.2,0.602,0.4,0.801s0.4,0.301,0.7,0.301c0.399,0,0.8-0.201,1-0.701s0.3-1,0.3-1.6c0-0.699-0.2-1.301-0.5-1.9
		c-0.3-0.699-0.7-1.299-1.2-1.9c-0.8-1-1.399-2-2-2.799c-0.5-0.801-1-1.701-1.3-2.601c-0.3-0.8-0.5-1.7-0.5-2.6c0-0.7,0.1-1.4,0.3-2
		s0.4-1.1,0.8-1.6c0.301-0.4,0.801-0.8,1.301-1.1c0.5-0.3,1.1-0.4,1.699-0.4c0.7,0,1.4,0.1,2.101,0.4c0.5,0.3,1,0.7,1.399,1.2
		c0.4,0.6,0.601,1.2,0.801,1.8c0.199,0.8,0.199,1.5,0.199,2.3l-3.1,0.3c0-0.4,0-0.7-0.1-1.1c0-0.3-0.101-0.7-0.2-1
		c-0.101-0.3-0.2-0.5-0.4-0.7s-0.399-0.3-0.6-0.3c-0.4,0-0.7,0.2-0.8,0.5c-0.2,0.5-0.301,1-0.2,1.5
		C-1303.492-826.146-1303.292-825.346-1302.892-824.646 M-1294.492-858.546h-3.2v-3.3c0-0.4-0.1-0.8-0.2-1.1
		c-0.3-0.4-0.8-0.6-1.3-0.3c-0.2,0.1-0.3,0.2-0.4,0.4c-0.199,0.3-0.199,0.7-0.199,1.1v13c0,0.4,0.1,0.8,0.199,1.1
		c0.301,0.4,0.801,0.6,1.301,0.4c0.199-0.1,0.3-0.2,0.399-0.4c0.2-0.3,0.2-0.7,0.2-1.1v-3.6h-1.3v-3h4.399v10.7h-1.899l-0.4-1.2
		c-0.3,0.4-0.6,0.8-1.1,1c-0.4,0.2-0.9,0.4-1.4,0.4c-0.8,0-1.5-0.2-2.1-0.6c-0.601-0.4-1-1-1.2-1.7c-0.3-0.8-0.4-1.6-0.4-2.4v-12.7
		c0-0.8,0.2-1.6,0.5-2.4c0.301-0.7,0.801-1.3,1.5-1.7c0.7-0.4,1.4-0.6,2.2-0.6c0.601,0,1.2,0.1,1.8,0.4c0.5,0.2,1,0.6,1.301,1
		c0.399,0.4,0.699,0.9,0.8,1.5c0.2,0.6,0.3,1.2,0.3,1.8L-1294.492-858.546z"/>
	<path id="Pfad_3332" fill="#58d38c" d="M-1286.692-809.846c-0.7,0-1.5-0.1-2.2-0.398c-0.6-0.301-1-0.701-1.399-1.301
		c-0.4-0.6-0.601-1.301-0.7-2c-0.101-0.9-0.2-1.699-0.2-2.6l3.1-0.301c0,0.5,0,0.9,0.101,1.4c0,0.4,0.1,0.801,0.2,1.199
		c0.1,0.301,0.199,0.602,0.399,0.801s0.4,0.301,0.7,0.301c0.4,0,0.8-0.201,1-0.701s0.3-1,0.3-1.6c0-0.699-0.2-1.301-0.5-1.9
		c-0.3-0.699-0.7-1.299-1.2-1.9c-0.8-1-1.399-2-2-2.799c-0.5-0.801-1-1.701-1.3-2.601c-0.3-0.8-0.5-1.7-0.5-2.6
		c0-0.7,0.101-1.4,0.3-2c0.2-0.6,0.4-1.1,0.801-1.6c0.3-0.4,0.8-0.8,1.3-1.1c0.5-0.3,1.1-0.4,1.7-0.4c0.699,0,1.399,0.1,2.1,0.4
		c0.5,0.3,1,0.7,1.4,1.2c0.399,0.6,0.6,1.2,0.8,1.8c0.2,0.8,0.2,1.5,0.2,2.3l-3.101,0.3c0-0.4,0-0.7-0.1-1.1c0-0.3-0.101-0.7-0.2-1
		c-0.1-0.3-0.2-0.5-0.4-0.7c-0.199-0.2-0.399-0.3-0.6-0.3c-0.4,0-0.7,0.2-0.8,0.5c-0.2,0.5-0.3,1-0.2,1.5c0,0.8,0.2,1.7,0.7,2.4
		c0.5,0.9,1.1,1.8,1.8,2.7c0.8,1.1,1.5,2.201,2.2,3.301c0.6,1,0.899,2.199,0.8,3.299c0,0.701-0.1,1.4-0.2,2.102
		c-0.1,0.6-0.399,1.199-0.8,1.699s-0.8,0.9-1.4,1.1C-1285.392-810.046-1285.992-809.846-1286.692-809.846"/>
	<path id="Pfad_3333" fill="#58d38c" d="M-1274.792-810.145v-21.5h7.199v3.2h-4.1v5.8h2.9v3.2h-2.9v6.1h4.1v3.301h-7.199V-810.145z"
		/>
	<path id="Pfad_3334" fill="#58d38c" d="M-1259.292-810.145v-21.5h3.199v18.6h4.2v2.9H-1259.292z"/>
</g>
</svg>
