<?xml version="1.0" encoding="utf-8"?>
<!-- Generator: Adobe Illustrator 27.5.0, SVG Export Plug-In . SVG Version: 6.00 Build 0)  -->
<svg version="1.1" id="Ebene_1" xmlns="http://www.w3.org/2000/svg" xmlns:xlink="http://www.w3.org/1999/xlink" x="0px" y="0px"
	 width="40px" height="31.3px" viewBox="0 0 40 31.3" style="enable-background:new 0 0 40 31.3;" xml:space="preserve">
<style type="text/css">
	.st0{fill:#58d38c;}
</style>
<g id="kommunkation">
	<path class="st0" d="M16.3,8.4v4.1l0,13.4l10.5,0h4.8l5.3,5.5v-5.5H40V8.4H16.3z M24.5,18.4h-1.9v-2h1.9V18.4z M29,18.5H27v-2H29
		V18.5z M33.8,18.5h-1.9v-2h1.9V18.5z"/>
	<g>
		<path class="st0" d="M15,11.7V7.2h8.7l0-3V0H0v17.5h3.1v5.5l5.3-5.5h4.8l1.8,0L15,11.7z M8.2,10H6.2V8h1.9V10z M13,10H11V8H13V10z
			"/>
	</g>
</g>
</svg>
