<?xml version="1.0" encoding="utf-8"?>
<!-- Generator: Adobe Illustrator 27.5.0, SVG Export Plug-In . SVG Version: 6.00 Build 0)  -->
<svg version="1.1" id="Ebene_1" xmlns="http://www.w3.org/2000/svg" xmlns:xlink="http://www.w3.org/1999/xlink" x="0px" y="0px"
	 width="40px" height="23.9px" viewBox="0 0 40 23.9" style="enable-background:new 0 0 40 23.9;" xml:space="preserve">
<style type="text/css">
	.st0{fill-rule:evenodd;clip-rule:evenodd;fill:#58d38c;}
</style>
<g>
	<path class="st0" d="M40,6v16.6c0,0.7-0.5,1.3-1.2,1.3h-33c-0.7,0-1.2-0.6-1.2-1.3v-2h31.1c0.7,0,1.2-0.6,1.2-1.3V4.8h1.9
		C39.5,4.8,40,5.3,40,6z"/>
	<path class="st0" d="M34.2,0h-33C0.5,0,0,0.6,0,1.3v16.6c0,0.7,0.5,1.3,1.2,1.3h33c0.7,0,1.2-0.6,1.2-1.3V1.3
		C35.4,0.6,34.9,0,34.2,0z M21.2,7.7L20.7,9h-4.6c0,0.2,0,0.4,0,0.6c0,0.2,0,0.4,0,0.6h4.1l-0.6,1.3h-3.3c0.1,0.3,0.1,0.5,0.2,0.7
		c0.3,0.7,0.7,1.2,1.2,1.6c0.5,0.3,1.1,0.5,1.7,0.5c0.4,0,0.7,0,1-0.1c0.3-0.1,0.6-0.2,0.8-0.4c0.3-0.2,0.5-0.3,0.7-0.5l0.7,1.5
		c-0.4,0.4-0.9,0.7-1.5,0.9c-0.6,0.2-1.2,0.3-1.8,0.3c-1,0-1.9-0.3-2.7-0.8c-0.8-0.5-1.4-1.2-1.8-2.2c-0.2-0.5-0.4-1-0.5-1.5h-1.7
		l0.5-1.3h1.1c0-0.2,0-0.4,0-0.6c0-0.2,0-0.4,0-0.6h-1.5l0.5-1.2h1.2c0.1-0.6,0.3-1.1,0.5-1.6c0.4-1,1.1-1.7,1.8-2.2
		c0.8-0.5,1.7-0.8,2.7-0.8c0.6,0,1.2,0.1,1.8,0.3c0.6,0.2,1.1,0.5,1.5,0.9L22,5.9c-0.2-0.2-0.5-0.4-0.7-0.5C21,5.3,20.7,5.1,20.4,5
		c-0.3-0.1-0.6-0.1-1-0.1c-0.6,0-1.2,0.2-1.7,0.5c-0.5,0.3-0.9,0.9-1.2,1.6c-0.1,0.2-0.2,0.5-0.2,0.7H21.2z"/>
</g>
</svg>
