<?xml version="1.0" encoding="utf-8"?>
<!-- Generator: Adobe Illustrator 27.8.1, SVG Export Plug-In . SVG Version: 6.00 Build 0)  -->
<svg version="1.1"
	 id="svg2" xmlns:rdf="http://www.w3.org/1999/02/22-rdf-syntax-ns#" xmlns:svg="http://www.w3.org/2000/svg" xmlns:cc="http://creativecommons.org/ns#" xmlns:dc="http://purl.org/dc/elements/1.1/"
	 xmlns="http://www.w3.org/2000/svg" xmlns:xlink="http://www.w3.org/1999/xlink" x="0px" y="0px" viewBox="0 0 290 150.4"
	 style="enable-background:new 0 0 290 150.4;" xml:space="preserve">
<style type="text/css">
	.st0{fill:#FFFFFF;}
	.st1{fill:#040606;}
	.st2{fill:#FBC617;}
	.st3{fill:#EE252C;}
	.st4{clip-path:url(#SVGID_00000062903999021697187210000005954471962688459957_);}
	.st5{fill:url(#path166_00000048487123727658270640000002456752420962701456_);}
</style>
<g id="g10" transform="matrix(1.3333333,0,0,-1.3333333,0,233.88)">
	<g id="g12" transform="scale(0.1)">
		<path id="path14" class="st0" d="M2175,626.1H0v1128h2175V626.1"/>
		<path id="path18" class="st1" d="M857.2,1248.2l-14.8-27.3v-0.2h15.8l-0.5-5.3h-23.3v4l15.3,27.5v0.2h-14.5v5h22L857.2,1248.2z
			 M829.7,1247.1h-8v-20.4c0-2.6,0.3-4.4,1-5.3c0.7-0.9,1.8-1.4,3.4-1.4c0.9,0,1.7,0.1,2.4,0.4c0.7,0.3,1.1,0.5,1.5,0.7l0.8-5
			c-0.3-0.2-0.9-0.5-1.8-1c-1-0.4-2.3-0.7-3.9-0.7c-3.2,0-5.5,0.9-7.1,2.6c-1.6,1.8-2.4,4.7-2.4,8.8v21.2H811v4.1l4.4,0.9l0.7,10.3
			h5.5v-10.3h8.8L829.7,1247.1z M804.5,1215.5h-5.7v4.1h-0.2c-0.1-0.3-0.5-0.8-1-1.3c-0.5-0.6-1.2-1.1-2-1.7c-0.8-0.5-1.7-1-2.9-1.4
			c-1.1-0.4-2.4-0.6-3.7-0.6c-1.6,0-3.1,0.2-4.4,0.7c-1.3,0.5-2.4,1.3-3.3,2.3c-0.9,1.1-1.6,2.5-2.1,4.2c-0.5,1.7-0.7,3.8-0.7,6.3
			v24.1h6.2v-23.6c0-3.1,0.5-5.2,1.5-6.5c1-1.3,2.5-2,4.6-2c1.8,0,3.3,0.4,4.5,1.3c1.2,0.9,2.2,1.8,2.9,2.6v28.2h6.2L804.5,1215.5z
			 M763.3,1215.5v23.6c0,3.1-0.5,5.3-1.6,6.7c-1,1.4-2.6,2-4.8,2c-1.8,0-3.4-0.5-4.6-1.4c-1.2-0.9-2.2-1.8-2.9-2.7v-28.3h-6.2v54.1
			l6.2,0.7v-21.8h0.2c0.2,0.3,0.5,0.7,1,1.2c0.4,0.5,1,1,1.8,1.5c0.8,0.5,1.7,1,2.8,1.3c1.1,0.4,2.4,0.6,3.9,0.6
			c3.2,0,5.8-1,7.7-3.1c1.9-2.1,2.8-5.6,2.8-10.4v-24.1H763.3z M734.2,1245.1c-0.2,0.2-0.4,0.4-0.7,0.7c-0.3,0.3-0.8,0.6-1.3,0.9
			c-0.5,0.3-1.1,0.6-1.8,0.8c-0.7,0.2-1.5,0.3-2.5,0.3c-1.3,0-2.6-0.2-3.7-0.7c-1.2-0.5-2.1-1.3-3-2.3c-0.8-1.1-1.5-2.5-2-4.2
			c-0.5-1.7-0.7-3.8-0.7-6.2c0-2.7,0.2-5,0.6-6.8c0.4-1.8,1-3.3,1.8-4.4c0.8-1.1,1.7-1.9,2.8-2.4c1.1-0.5,2.3-0.7,3.6-0.7
			c1.9,0,3.3,0.3,4.3,1c1,0.7,1.7,1.2,2.1,1.6l2.5-4.3c-0.3-0.3-0.6-0.7-1.1-1.1c-0.5-0.4-1.1-0.9-1.9-1.3c-0.8-0.4-1.7-0.8-2.8-1
			c-1.1-0.3-2.4-0.4-3.8-0.4c-2,0-3.9,0.3-5.7,1c-1.8,0.7-3.3,1.8-4.7,3.3s-2.4,3.5-3.1,6c-0.8,2.4-1.1,5.5-1.1,9.1
			c0,3.5,0.5,6.5,1.4,9c0.9,2.4,2.1,4.4,3.6,5.9c1.5,1.5,3.1,2.6,4.9,3.3c1.8,0.7,3.6,1,5.5,1c1.4,0,2.6-0.1,3.6-0.4
			c1-0.3,1.9-0.6,2.7-1c0.7-0.4,1.4-0.8,1.8-1.2s0.9-0.8,1.2-1.1L734.2,1245.1z M702.8,1244.8c-0.4,0.5-1.2,1.1-2.2,1.9
			c-1.1,0.8-2.5,1.2-4.2,1.2c-1.6,0-2.9-0.4-3.7-1.1c-0.9-0.8-1.3-1.7-1.3-2.8c0-1.4,0.4-2.5,1.2-3.4c0.8-0.9,2-1.8,3.6-2.9l2.3-1.4
			c2.5-1.5,4.5-3.1,5.9-4.8c1.4-1.7,2.1-3.9,2.1-6.6c0-2.9-1-5.4-3-7.3c-2-2-4.9-3-8.7-3c-1.5,0-2.8,0.2-3.9,0.5
			c-1.1,0.3-2.1,0.7-2.9,1.1c-0.8,0.4-1.5,0.9-2.1,1.3c-0.6,0.5-1,0.9-1.4,1.3l3,4.9c0.3-0.3,0.7-0.7,1.1-1.1c0.4-0.4,1-0.8,1.6-1.2
			c0.6-0.4,1.3-0.7,2.1-1c0.8-0.3,1.7-0.4,2.7-0.4c1.8,0,3.2,0.4,4.2,1.2c1,0.8,1.5,1.8,1.5,3c0,0.9-0.1,1.6-0.3,2.3
			c-0.2,0.6-0.6,1.2-1,1.7c-0.5,0.5-1,1-1.7,1.5c-0.7,0.5-1.4,1-2.3,1.5l-2.3,1.5c-2.3,1.5-4.1,3-5.4,4.7s-2,3.7-2,6.3
			c0,1.4,0.3,2.6,0.8,3.8c0.5,1.1,1.3,2.1,2.3,3c1,0.8,2.1,1.5,3.4,2c1.3,0.5,2.7,0.7,4.2,0.7c1.4,0,2.6-0.1,3.7-0.4
			c1-0.3,1.9-0.6,2.6-1.1c0.7-0.4,1.4-0.9,1.8-1.3c0.5-0.4,0.9-0.8,1.2-1.1L702.8,1244.8z M665.4,1219.8c0.9,0,1.6,0.1,2.3,0.4
			c0.7,0.3,1.2,0.6,1.7,0.9c0.5,0.4,0.9,0.8,1.2,1.2c0.3,0.4,0.6,0.8,0.9,1.1v8.1l-2-0.1c-3-0.1-5.2-0.6-6.7-1.5
			c-1.5-0.9-2.3-2.4-2.3-4.4c0-1.9,0.4-3.3,1.3-4.2C662.6,1220.3,663.8,1219.8,665.4,1219.8L665.4,1219.8z M654.3,1224.8
			c0,2.1,0.4,3.9,1.2,5.4c0.8,1.4,1.9,2.6,3.3,3.5c1.4,0.9,3,1.5,4.9,1.9c1.9,0.4,3.8,0.6,5.9,0.6h1.9v3.5c0,3.1-0.6,5.3-1.6,6.4
			c-1.1,1.2-2.6,1.8-4.6,1.8c-1.8,0-3.4-0.4-4.6-1.2c-1.2-0.8-2.2-1.5-2.9-2.1l-2.6,4.1c0.4,0.4,0.9,0.9,1.6,1.4s1.4,1,2.3,1.5
			c0.9,0.5,2,0.8,3.1,1.1c1.2,0.3,2.5,0.5,4,0.5c3.8,0,6.6-1,8.6-3.1c1.9-2.1,2.9-5.5,2.9-10.1v-16.8c0-1.6,0.1-3.1,0.1-4.6
			c0.1-1.5,0.2-2.5,0.3-3h-5.9l-0.2,4.1h-0.2c-0.2-0.5-0.5-1-0.9-1.6c-0.4-0.6-0.9-1.1-1.5-1.6c-0.6-0.5-1.4-0.9-2.2-1.3
			c-0.9-0.4-1.9-0.5-3.1-0.5c-1.4,0-2.7,0.3-3.9,0.8c-1.2,0.5-2.2,1.2-3.1,2.1c-0.9,0.9-1.6,2-2.1,3.3
			C654.5,1222,654.3,1223.3,654.3,1224.8L654.3,1224.8z M621.7,1215.5v23.6c0,3-0.4,5.2-1.3,6.5c-0.9,1.3-2.3,2-4.2,2
			c-1,0-1.9-0.1-2.7-0.4c-0.8-0.3-1.5-0.6-2.1-1c-0.6-0.4-1.1-0.8-1.6-1.3c-0.5-0.5-0.8-0.9-1.1-1.2v-28.3h-6.2v36.7h5.7v-4.1h0.2
			c0.3,0.4,0.6,0.9,1.1,1.5c0.5,0.6,1.1,1.1,1.9,1.7c0.8,0.5,1.7,1,2.7,1.3c1,0.4,2.2,0.5,3.4,0.5c4.2,0,7.1-1.6,8.9-4.9
			c0.4,0.5,0.8,1.1,1.5,1.6c0.6,0.6,1.3,1.1,2.1,1.6s1.7,0.9,2.8,1.2c1,0.3,2.1,0.5,3.4,0.5c7.4,0,11.2-4.3,11.2-13v-24.6H641v23.6
			c0,3-0.5,5.2-1.6,6.5c-1.1,1.3-2.7,2-4.7,2c-1.7,0-3.2-0.4-4.3-1.3c-1.1-0.8-2.1-1.6-2.7-2.4c0.1-0.6,0.2-1.2,0.2-1.8
			c0.1-0.6,0.1-1.3,0.1-2v-24.6H621.7z M589.8,1261.1c-1.3,0-2.3,0.4-3.1,1.2c-0.8,0.8-1.1,1.9-1.1,3.2c0,1.3,0.4,2.3,1.1,3.1
			c0.8,0.8,1.8,1.2,3.1,1.2c1.2,0,2.2-0.4,3-1.2c0.8-0.8,1.1-1.9,1.1-3.1c0-1.3-0.4-2.4-1.1-3.2
			C592.1,1261.5,591.1,1261.1,589.8,1261.1z M592.9,1215.5h-6.2v36.7h6.2V1215.5z M575.4,1224c0-1.5,0.2-2.6,0.7-3.2
			c0.4-0.6,1.2-0.9,2.3-0.9c0.6,0,1,0.1,1.4,0.2c0.4,0.1,0.7,0.2,0.9,0.3l0.5-4.6c-0.3-0.2-0.9-0.4-1.7-0.6
			c-0.8-0.3-1.9-0.4-3.3-0.4c-2.1,0-3.8,0.6-5.1,1.9c-1.3,1.3-1.9,3.5-1.9,6.8v46.1l6.2,0.7L575.4,1224z M546.5,1242.5l17.9-27h-8.2
			l-15.3,24h-4v-24h-6.7v52.8h6.7v-23.5h4.1l14.8,23.5h7.4L546.5,1242.5z M490.2,1220.1c1,0,1.8,0.1,2.6,0.4c0.8,0.3,1.4,0.6,2,1
			c0.6,0.4,1,0.8,1.4,1.2c0.4,0.4,0.7,0.8,0.9,1.1v22.7c-0.6,0.4-1.2,0.7-1.9,0.9c-0.7,0.3-1.7,0.4-2.8,0.4c-1.4,0-2.8-0.2-4-0.7
			c-1.2-0.5-2.3-1.3-3.3-2.4c-0.9-1.1-1.6-2.6-2.2-4.4c-0.5-1.8-0.8-4-0.8-6.6c0-2.6,0.2-4.7,0.7-6.4c0.4-1.7,1-3.1,1.8-4.1
			c0.8-1,1.6-1.8,2.6-2.3C488.1,1220.3,489.1,1220.1,490.2,1220.1z M475.7,1233.3c0,3.7,0.5,6.8,1.5,9.3c1,2.5,2.2,4.5,3.8,6
			c1.5,1.5,3.3,2.6,5.2,3.3c1.9,0.6,3.9,1,5.8,1c1.2,0,2.2-0.1,3.1-0.3c0.9-0.2,1.6-0.4,2.1-0.7v17.6l6.2,0.7v-54.8h-5.7v3.9h-0.2
			c-0.2-0.3-0.4-0.7-0.8-1.3c-0.4-0.5-1-1.1-1.7-1.6c-0.7-0.5-1.6-1-2.7-1.4c-1.1-0.4-2.3-0.6-3.8-0.6c-1.7,0-3.4,0.3-4.9,1
			c-1.6,0.7-2.9,1.8-4.1,3.3c-1.2,1.5-2.1,3.4-2.8,5.8C476,1227.1,475.7,1229.9,475.7,1233.3L475.7,1233.3z M461.9,1215.5v23.6
			c0,3.1-0.5,5.3-1.6,6.7c-1,1.4-2.6,2-4.8,2c-1.8,0-3.4-0.5-4.6-1.4c-1.2-0.9-2.2-1.8-2.9-2.7v-28.3h-6.2v36.7h5.7v-4.1h0.2
			c0.2,0.3,0.5,0.8,1,1.3c0.5,0.6,1.2,1.1,2,1.7c0.8,0.5,1.8,1,2.9,1.4c1.1,0.4,2.4,0.6,3.8,0.6c1.6,0,3.1-0.2,4.4-0.7
			c1.3-0.5,2.4-1.3,3.4-2.3c0.9-1.1,1.6-2.5,2.1-4.2c0.5-1.7,0.8-3.8,0.8-6.3v-24.1H461.9z M432.4,1215.5h-5.7v4.1h-0.2
			c-0.2-0.3-0.5-0.8-1-1.3c-0.5-0.6-1.2-1.1-1.9-1.7c-0.8-0.5-1.7-1-2.9-1.4c-1.1-0.4-2.4-0.6-3.8-0.6c-1.6,0-3.1,0.2-4.4,0.7
			c-1.3,0.5-2.4,1.3-3.3,2.3c-0.9,1.1-1.6,2.5-2.1,4.2c-0.5,1.7-0.7,3.8-0.7,6.3v24.1h6.2v-23.6c0-3.1,0.5-5.2,1.5-6.5
			c1-1.3,2.5-2,4.6-2c1.8,0,3.3,0.4,4.5,1.3c1.2,0.9,2.2,1.8,2.9,2.6v28.2h6.2V1215.5z M779.1,1324.3h-8v-20.4c0-2.6,0.3-4.4,1-5.3
			c0.7-0.9,1.8-1.4,3.4-1.4c0.9,0,1.7,0.1,2.4,0.4c0.7,0.3,1.1,0.5,1.5,0.7l0.8-5c-0.3-0.2-0.9-0.5-1.8-1c-1-0.4-2.3-0.7-3.9-0.7
			c-3.2,0-5.5,0.9-7.1,2.6c-1.6,1.8-2.4,4.7-2.4,8.8v21.2h-4.4v4.1l4.4,0.9l0.7,10.3h5.5v-10.3h8.8L779.1,1324.3z M757.3,1324.3
			h-7.5v-31.7h-6.2v31.7h-4.4v4.1l4.4,0.8v7.4c0,2,0.3,3.7,0.8,5.1c0.6,1.4,1.3,2.6,2.2,3.5c0.9,0.9,2,1.6,3.2,2
			c1.2,0.4,2.5,0.6,3.9,0.6c1.3,0,2.5-0.2,3.4-0.5c0.9-0.4,1.5-0.6,1.8-0.8l-1.3-5.1c-0.3,0.2-0.7,0.4-1.3,0.6
			c-0.6,0.2-1.3,0.3-2.1,0.3c-1.5,0-2.6-0.5-3.4-1.4c-0.8-0.9-1.2-2.6-1.2-5v-6.6h8.3L757.3,1324.3z M720.2,1297
			c0.9,0,1.6,0.1,2.3,0.4c0.7,0.3,1.2,0.6,1.7,0.9c0.5,0.4,0.9,0.8,1.2,1.2c0.3,0.4,0.6,0.8,0.9,1.1v8.1l-2-0.1
			c-3-0.1-5.2-0.6-6.7-1.5c-1.5-0.9-2.3-2.4-2.3-4.4c0-1.9,0.4-3.3,1.3-4.2C717.5,1297.5,718.7,1297,720.2,1297L720.2,1297z
			 M709.1,1302c0,2.1,0.4,3.9,1.2,5.4c0.8,1.4,1.9,2.6,3.3,3.5c1.4,0.9,3,1.5,4.9,1.9c1.9,0.4,3.8,0.6,5.9,0.6h1.9v3.5
			c0,3.1-0.5,5.3-1.6,6.4c-1.1,1.2-2.6,1.8-4.6,1.8c-1.8,0-3.4-0.4-4.6-1.2c-1.2-0.8-2.2-1.5-2.9-2.1l-2.6,4.1
			c0.4,0.4,0.9,0.9,1.6,1.4c0.6,0.5,1.4,1,2.3,1.5c0.9,0.5,2,0.8,3.1,1.2c1.2,0.3,2.5,0.5,4,0.5c3.8,0,6.6-1,8.6-3.1
			c1.9-2.1,2.9-5.5,2.9-10.1v-16.8c0-1.6,0.1-3.1,0.2-4.6c0.1-1.5,0.2-2.5,0.3-3H727l-0.2,4.1h-0.1c-0.2-0.5-0.5-1-0.9-1.6
			c-0.4-0.6-0.9-1.1-1.5-1.6c-0.6-0.5-1.4-0.9-2.2-1.3c-0.9-0.4-1.9-0.5-3.1-0.5c-1.4,0-2.7,0.3-3.9,0.8c-1.2,0.5-2.2,1.2-3.1,2.1
			c-0.9,0.9-1.6,2-2.1,3.3C709.4,1299.1,709.1,1300.5,709.1,1302L709.1,1302z M695.8,1292.6v23.6c0,3.1-0.5,5.3-1.6,6.7
			c-1,1.4-2.6,2-4.8,2c-1.8,0-3.4-0.5-4.6-1.4c-1.2-0.9-2.2-1.8-2.9-2.7v-28.3h-6.2v54.1l6.2,0.7v-21.8h0.2c0.2,0.3,0.5,0.7,1,1.2
			c0.4,0.5,1,1,1.8,1.5c0.8,0.5,1.7,1,2.8,1.3c1.1,0.4,2.4,0.6,3.9,0.6c3.2,0,5.8-1,7.7-3.1c1.9-2.1,2.8-5.6,2.8-10.4v-24.1
			L695.8,1292.6z M666.7,1322.2c-0.2,0.1-0.4,0.4-0.7,0.7c-0.3,0.3-0.8,0.6-1.3,0.9c-0.5,0.3-1.1,0.6-1.8,0.8
			c-0.7,0.2-1.5,0.3-2.5,0.3c-1.3,0-2.6-0.2-3.7-0.7c-1.1-0.5-2.1-1.3-3-2.3c-0.8-1.1-1.5-2.5-2-4.2c-0.5-1.7-0.7-3.8-0.7-6.2
			c0-2.7,0.2-5,0.7-6.8c0.4-1.8,1-3.3,1.8-4.4c0.8-1.1,1.7-1.9,2.8-2.4c1.1-0.5,2.3-0.7,3.6-0.7c1.9,0,3.3,0.3,4.3,1
			c1,0.7,1.7,1.2,2.1,1.6l2.5-4.3c-0.3-0.3-0.6-0.7-1.1-1.1c-0.5-0.4-1.1-0.9-1.9-1.3c-0.8-0.4-1.7-0.8-2.8-1
			c-1.1-0.3-2.4-0.4-3.8-0.4c-2,0-4,0.3-5.7,1s-3.3,1.8-4.7,3.3c-1.3,1.5-2.4,3.5-3.1,6s-1.1,5.5-1.1,9.1c0,3.5,0.5,6.5,1.4,9
			c0.9,2.4,2.1,4.4,3.6,5.9c1.5,1.5,3.1,2.6,4.9,3.3c1.8,0.7,3.6,1,5.5,1c1.4,0,2.6-0.1,3.6-0.4c1-0.3,1.9-0.6,2.7-1
			c0.7-0.4,1.4-0.8,1.8-1.2c0.5-0.4,0.9-0.8,1.2-1.1L666.7,1322.2z M635.3,1321.9c-0.4,0.5-1.1,1.1-2.2,1.9
			c-1.1,0.8-2.5,1.2-4.2,1.2c-1.6,0-2.9-0.4-3.7-1.1c-0.9-0.8-1.3-1.7-1.3-2.8c0-1.4,0.4-2.5,1.2-3.4c0.8-0.9,2-1.8,3.6-2.9l2.3-1.4
			c2.5-1.5,4.5-3.1,5.9-4.8c1.4-1.7,2.1-3.9,2.1-6.6c0-2.9-1-5.4-3-7.3c-2-2-4.9-3-8.7-3c-1.5,0-2.8,0.2-3.9,0.5
			c-1.1,0.3-2.1,0.7-2.9,1.1c-0.8,0.4-1.5,0.9-2.1,1.3c-0.6,0.5-1,0.9-1.4,1.3l3,4.9c0.3-0.3,0.7-0.7,1.1-1.1c0.4-0.4,1-0.8,1.6-1.2
			c0.6-0.4,1.3-0.7,2.1-1c0.8-0.3,1.7-0.4,2.7-0.4c1.8,0,3.2,0.4,4.2,1.2c1,0.8,1.5,1.8,1.5,3c0,0.9-0.1,1.6-0.3,2.3
			c-0.2,0.6-0.6,1.2-1,1.7c-0.5,0.5-1,1-1.7,1.5c-0.7,0.5-1.4,1-2.3,1.5l-2.3,1.5c-2.3,1.5-4.1,3-5.4,4.7c-1.3,1.6-2,3.7-2,6.3
			c0,1.4,0.3,2.6,0.8,3.8c0.5,1.2,1.3,2.1,2.3,3c1,0.8,2.1,1.5,3.4,2c1.3,0.5,2.7,0.7,4.2,0.7c1.4,0,2.7-0.1,3.7-0.4
			c1-0.3,1.9-0.6,2.6-1.1c0.7-0.4,1.4-0.9,1.8-1.3c0.5-0.4,0.9-0.8,1.2-1.1L635.3,1321.9z M612.4,1324.3h-8v-20.4
			c0-2.6,0.3-4.4,1-5.3c0.7-0.9,1.8-1.4,3.4-1.4c0.9,0,1.7,0.1,2.4,0.4c0.7,0.3,1.1,0.5,1.5,0.7l0.8-5c-0.3-0.2-0.9-0.5-1.8-1
			c-1-0.4-2.3-0.7-3.9-0.7c-3.2,0-5.5,0.9-7.1,2.6c-1.6,1.8-2.4,4.7-2.4,8.8v21.2h-4.4v4.1l4.4,0.9l0.7,10.3h5.5v-10.3h8.8
			L612.4,1324.3z M590.6,1323.9c-0.2,0.1-0.5,0.2-1,0.4c-0.5,0.1-1.2,0.2-2.1,0.2c-1.9,0-3.5-0.5-4.6-1.6c-1.1-1-1.9-2.2-2.3-3.4
			v-26.9h-6.2v36.7h5.7v-5h0.2c0.3,0.7,0.6,1.4,1,2.1c0.4,0.7,0.9,1.3,1.5,1.8c0.6,0.5,1.3,1,2.2,1.3c0.8,0.3,1.8,0.5,3,0.5
			c0.9,0,1.6-0.1,2.1-0.2c0.5-0.2,1-0.3,1.3-0.4L590.6,1323.9z M561.9,1338.2c-1.3,0-2.3,0.4-3.1,1.2c-0.8,0.8-1.1,1.9-1.1,3.2
			c0,1.3,0.4,2.3,1.1,3.1c0.8,0.8,1.8,1.2,3.1,1.2c1.2,0,2.2-0.4,3-1.2c0.8-0.8,1.1-1.9,1.1-3.1c0-1.3-0.4-2.4-1.1-3.2
			C564.1,1338.6,563.1,1338.2,561.9,1338.2z M565,1292.6h-6.2v36.7h6.2V1292.6z M553,1345.4l-12.9-52.8h-6l-8,33.2
			c-0.6,2.3-1,4.4-1.5,6.4c-0.4,2-0.6,3.6-0.7,4.7h-0.2c0-1.2-0.2-2.7-0.6-4.7c-0.4-1.9-0.9-4.1-1.5-6.3l-8.2-33.4h-6l-12.5,52.8
			h7.1l6.6-32.1c0.5-2.4,1-4.8,1.3-6.9c0.4-2.2,0.6-3.8,0.7-5h0.2c0.1,1.2,0.3,2.9,0.8,5.1c0.5,2.2,1,4.6,1.6,7l7.8,32h6.4l7.7-32.1
			c0.6-2.5,1.1-4.8,1.5-6.9c0.5-2.2,0.7-3.8,0.8-5h0.2c0.1,1.2,0.3,2.9,0.7,5.2c0.4,2.3,0.9,4.6,1.4,7.1l6.7,31.8L553,1345.4z
			 M479.6,1323.9c-0.2,0.1-0.5,0.2-1,0.4c-0.5,0.1-1.2,0.2-2.1,0.2c-1.9,0-3.5-0.5-4.6-1.6c-1.1-1-1.9-2.2-2.3-3.4v-26.9h-6.2v36.7
			h5.7v-5h0.2c0.3,0.7,0.6,1.4,1,2.1c0.4,0.7,0.9,1.3,1.5,1.8c0.6,0.5,1.3,1,2.2,1.3c0.8,0.3,1.8,0.5,3,0.5c0.9,0,1.6-0.1,2.1-0.2
			c0.5-0.2,1-0.3,1.3-0.4L479.6,1323.9z M450.5,1339.9c0-1.2-0.4-2.1-1.1-2.8c-0.7-0.7-1.6-1.1-2.6-1.1c-1,0-1.9,0.4-2.6,1.1
			c-0.7,0.7-1.1,1.7-1.1,2.8c0,1.2,0.4,2.1,1.1,2.8c0.7,0.7,1.6,1.1,2.6,1.1c1,0,1.9-0.4,2.6-1.1
			C450.1,1342,450.5,1341.1,450.5,1339.9z M438.7,1339.9c0-1.2-0.4-2.1-1.1-2.8c-0.7-0.7-1.6-1.1-2.6-1.1c-1,0-1.9,0.4-2.6,1.1
			c-0.7,0.7-1.1,1.7-1.1,2.8c0,1.2,0.4,2.1,1.1,2.8c0.7,0.7,1.6,1.1,2.6,1.1c1,0,1.9-0.4,2.6-1.1
			C438.4,1342,438.7,1341.1,438.7,1339.9z M453.9,1292.6h-5.7v4.1h-0.2c-0.2-0.3-0.5-0.8-1-1.3c-0.5-0.6-1.2-1.1-1.9-1.7
			c-0.8-0.5-1.7-1-2.9-1.4c-1.1-0.4-2.4-0.6-3.8-0.6c-1.6,0-3.1,0.2-4.4,0.7c-1.3,0.5-2.4,1.3-3.3,2.3c-0.9,1.1-1.6,2.5-2.1,4.2
			c-0.5,1.7-0.7,3.8-0.7,6.3v24.1h6.2v-23.6c0-3.1,0.5-5.2,1.5-6.5c1-1.3,2.5-2,4.6-2c1.8,0,3.3,0.5,4.5,1.3
			c1.2,0.9,2.2,1.8,2.9,2.6v28.2h6.2V1292.6z M422.1,1324.3h-7.5v-31.7h-6.2v31.7H404v4.1l4.4,0.8v7.4c0,2,0.3,3.7,0.8,5.1
			c0.6,1.4,1.3,2.6,2.2,3.5c0.9,0.9,2,1.6,3.2,2c1.2,0.4,2.5,0.6,3.9,0.6c1.3,0,2.4-0.2,3.4-0.5c0.9-0.4,1.5-0.6,1.8-0.8l-1.3-5.1
			c-0.3,0.2-0.7,0.4-1.3,0.6c-0.6,0.2-1.3,0.3-2.1,0.3c-1.5,0-2.6-0.5-3.4-1.4c-0.8-0.9-1.1-2.6-1.1-5v-6.6h8.3L422.1,1324.3z
			 M904.1,1369.8v23.6c0,3-0.4,5.2-1.3,6.5c-0.9,1.3-2.3,2-4.2,2c-1,0-1.9-0.1-2.7-0.4c-0.8-0.3-1.5-0.6-2.1-1
			c-0.6-0.4-1.1-0.8-1.6-1.3c-0.5-0.5-0.8-0.9-1.1-1.2v-28.3h-6.2v36.7h5.7v-4.1h0.2c0.3,0.4,0.6,0.9,1.2,1.5
			c0.5,0.6,1.1,1.1,1.9,1.7c0.8,0.5,1.7,1,2.7,1.3c1,0.4,2.2,0.5,3.4,0.5c4.2,0,7.1-1.6,8.9-4.9c0.4,0.5,0.8,1.1,1.5,1.6
			c0.6,0.6,1.3,1.1,2.1,1.6c0.8,0.5,1.7,0.9,2.8,1.2c1,0.3,2.1,0.5,3.4,0.5c7.4,0,11.2-4.3,11.2-13v-24.6h-6.2v23.6
			c0,3-0.5,5.2-1.6,6.5c-1.1,1.3-2.7,2-4.7,2c-1.7,0-3.2-0.4-4.3-1.3c-1.1-0.8-2.1-1.6-2.7-2.4c0.1-0.6,0.2-1.2,0.2-1.8
			c0.1-0.6,0.1-1.3,0.1-2v-24.6L904.1,1369.8z M875.3,1369.8h-5.7v4.1h-0.2c-0.2-0.3-0.5-0.8-1-1.3c-0.5-0.6-1.2-1.1-1.9-1.7
			c-0.8-0.5-1.7-1-2.9-1.4c-1.1-0.4-2.4-0.6-3.7-0.6c-1.6,0-3.1,0.2-4.4,0.7c-1.3,0.5-2.4,1.3-3.3,2.3c-0.9,1.1-1.6,2.5-2.1,4.2
			c-0.5,1.7-0.7,3.8-0.7,6.3v24.1h6.2v-23.6c0-3.1,0.5-5.2,1.5-6.5c1-1.3,2.5-2,4.6-2c1.8,0,3.3,0.5,4.5,1.3
			c1.2,0.9,2.2,1.8,2.9,2.6v28.2h6.2L875.3,1369.8z M837.1,1415.4c-1.3,0-2.3,0.4-3.1,1.2c-0.8,0.8-1.1,1.9-1.1,3.2
			c0,1.3,0.4,2.3,1.1,3.1c0.8,0.8,1.8,1.2,3.1,1.2c1.2,0,2.2-0.4,3-1.2c0.8-0.8,1.2-1.9,1.2-3.1c0-1.3-0.4-2.4-1.2-3.2
			C839.3,1415.8,838.3,1415.4,837.1,1415.4z M840.1,1369.8h-6.2v36.7h6.2V1369.8z M827.8,1401.1c-0.1,0.1-0.5,0.2-1,0.4
			c-0.5,0.1-1.2,0.2-2.1,0.2c-1.9,0-3.5-0.5-4.6-1.6c-1.1-1-1.9-2.2-2.3-3.4v-26.9h-6.2v36.7h5.7v-5h0.2c0.3,0.7,0.6,1.4,1,2.1
			c0.4,0.7,0.9,1.3,1.5,1.8c0.6,0.5,1.3,1,2.2,1.3c0.8,0.3,1.8,0.5,3,0.5c0.9,0,1.6-0.1,2.1-0.2c0.5-0.2,1-0.3,1.3-0.4L827.8,1401.1
			z M791.8,1402.4c-2.2,0-3.9-0.9-5.3-2.8c-1.3-1.8-2.1-4.5-2.3-8h13.4c0.1,0.3,0.1,0.6,0.1,1.1c0,0.5,0,1,0,1.6
			c0,2.6-0.5,4.5-1.5,5.9C795.2,1401.7,793.7,1402.4,791.8,1402.4L791.8,1402.4z M803.4,1394.1c0-1.6-0.1-2.9-0.2-4.1
			c-0.1-1.2-0.2-2.2-0.3-3h-18.8c0.2-4.3,1.1-7.5,2.8-9.6c1.7-2,4-3.1,7.2-3.1c1.1,0,2,0.1,2.9,0.4c0.9,0.3,1.6,0.6,2.3,0.9
			c0.6,0.4,1.2,0.7,1.6,1.1c0.4,0.4,0.8,0.6,1,0.8l2.3-4.4c-0.3-0.3-0.6-0.6-1.1-1.1c-0.5-0.5-1.2-1-2.1-1.5
			c-0.9-0.5-1.9-0.9-3.2-1.3c-1.3-0.4-2.8-0.5-4.5-0.5c-2.3,0-4.4,0.4-6.2,1.2c-1.9,0.8-3.4,2-4.7,3.6c-1.3,1.6-2.3,3.6-3,6.1
			c-0.7,2.5-1.1,5.4-1.1,8.9c0,3.3,0.4,6.1,1.1,8.5c0.7,2.4,1.7,4.3,3,5.9c1.3,1.5,2.8,2.7,4.4,3.4c1.7,0.7,3.5,1.1,5.4,1.1
			c3.5,0,6.3-1.1,8.3-3.3C802.4,1401.9,803.4,1398.6,803.4,1394.1L803.4,1394.1z M773.3,1401.5h-8v-20.4c0-2.6,0.3-4.4,1-5.3
			c0.7-0.9,1.8-1.4,3.4-1.4c0.9,0,1.7,0.1,2.4,0.4c0.7,0.3,1.2,0.5,1.5,0.7l0.8-5c-0.3-0.2-0.9-0.5-1.8-1c-1-0.4-2.3-0.7-3.9-0.7
			c-3.2,0-5.5,0.9-7.1,2.6c-1.6,1.8-2.4,4.7-2.4,8.8v21.2h-4.4v4.1l4.4,0.9l0.7,10.3h5.5v-10.3h8.8L773.3,1401.5z M746.7,1399.1
			c-0.4,0.5-1.1,1.1-2.2,1.9c-1.1,0.8-2.5,1.2-4.2,1.2c-1.6,0-2.9-0.4-3.7-1.1c-0.9-0.8-1.3-1.7-1.3-2.8c0-1.4,0.4-2.5,1.2-3.4
			c0.8-0.9,2-1.8,3.6-2.9l2.3-1.4c2.5-1.5,4.5-3.1,5.9-4.8c1.4-1.7,2.1-3.9,2.1-6.6c0-2.9-1-5.4-3-7.3c-2-2-4.9-3-8.7-3
			c-1.5,0-2.8,0.2-3.9,0.5c-1.1,0.3-2.1,0.7-2.9,1.1c-0.8,0.4-1.5,0.9-2.1,1.3c-0.6,0.5-1,0.9-1.4,1.3l3,4.9
			c0.3-0.3,0.7-0.7,1.1-1.1c0.4-0.4,1-0.8,1.6-1.2c0.6-0.4,1.3-0.7,2.1-1c0.8-0.3,1.7-0.4,2.7-0.4c1.8,0,3.2,0.4,4.2,1.2
			c1,0.8,1.5,1.8,1.5,3c0,0.9-0.1,1.6-0.3,2.3c-0.2,0.6-0.6,1.2-1,1.7c-0.5,0.5-1,1-1.7,1.5c-0.7,0.5-1.4,1-2.3,1.5l-2.3,1.5
			c-2.3,1.5-4.1,3-5.4,4.7c-1.3,1.6-1.9,3.7-1.9,6.3c0,1.4,0.3,2.6,0.8,3.8c0.5,1.2,1.3,2.1,2.3,3c1,0.8,2.1,1.5,3.4,2
			c1.3,0.5,2.7,0.7,4.2,0.7c1.4,0,2.7-0.1,3.7-0.4c1-0.3,1.9-0.6,2.6-1.1c0.7-0.4,1.4-0.9,1.8-1.3c0.5-0.4,0.9-0.8,1.2-1.1
			L746.7,1399.1z M718.3,1415.4c-1.3,0-2.3,0.4-3.1,1.2c-0.8,0.8-1.1,1.9-1.1,3.2c0,1.3,0.4,2.3,1.1,3.1c0.8,0.8,1.8,1.2,3.1,1.2
			c1.2,0,2.2-0.4,3-1.2c0.8-0.8,1.1-1.9,1.1-3.1c0-1.3-0.4-2.4-1.1-3.2C720.5,1415.8,719.5,1415.4,718.3,1415.4z M721.4,1369.8h-6.2
			v36.7h6.2V1369.8z M699.7,1369.8v23.6c0,3.1-0.5,5.3-1.6,6.7c-1,1.4-2.6,2-4.8,2c-1.8,0-3.4-0.5-4.6-1.4c-1.2-0.9-2.2-1.8-2.9-2.7
			v-28.3h-6.2v36.7h5.7v-4.1h0.1c0.2,0.3,0.5,0.8,1,1.3c0.5,0.6,1.2,1.1,2,1.7c0.8,0.5,1.8,1,2.9,1.4c1.1,0.4,2.4,0.6,3.8,0.6
			c1.6,0,3.1-0.2,4.4-0.7c1.3-0.5,2.5-1.3,3.4-2.3c0.9-1.1,1.6-2.5,2.1-4.2c0.5-1.7,0.8-3.8,0.8-6.3v-24.1L699.7,1369.8z
			 M667.1,1415.4c-1.3,0-2.3,0.4-3.1,1.2c-0.8,0.8-1.1,1.9-1.1,3.2c0,1.3,0.4,2.3,1.1,3.1c0.8,0.8,1.8,1.2,3.1,1.2
			c1.2,0,2.2-0.4,3-1.2c0.8-0.8,1.2-1.9,1.2-3.1c0-1.3-0.4-2.4-1.2-3.2C669.3,1415.8,668.4,1415.4,667.1,1415.4z M670.2,1369.8H664
			v36.7h6.2V1369.8z M629.3,1369.8v23.6c0,3-0.4,5.2-1.3,6.5c-0.9,1.3-2.3,2-4.2,2c-1,0-1.9-0.1-2.7-0.4c-0.8-0.3-1.5-0.6-2.1-1
			c-0.6-0.4-1.1-0.8-1.6-1.3c-0.5-0.5-0.8-0.9-1.1-1.2v-28.3H610v36.7h5.7v-4.1h0.2c0.3,0.4,0.6,0.9,1.1,1.5s1.1,1.1,1.9,1.7
			c0.8,0.5,1.7,1,2.7,1.3c1,0.4,2.2,0.5,3.4,0.5c4.2,0,7.1-1.6,8.9-4.9c0.4,0.5,0.8,1.1,1.5,1.6c0.6,0.6,1.3,1.1,2.1,1.6
			c0.8,0.5,1.7,0.9,2.8,1.2c1,0.3,2.1,0.5,3.4,0.5c7.4,0,11.2-4.3,11.2-13v-24.6h-6.2v23.6c0,3-0.5,5.2-1.6,6.5
			c-1.1,1.3-2.7,2-4.7,2c-1.7,0-3.2-0.4-4.3-1.3c-1.1-0.8-2.1-1.6-2.7-2.4c0.1-0.6,0.2-1.2,0.2-1.8c0.1-0.6,0.1-1.3,0.1-2v-24.6
			L629.3,1369.8z M599,1399.1c-0.4,0.5-1.1,1.1-2.2,1.9c-1.1,0.8-2.5,1.2-4.2,1.2c-1.6,0-2.9-0.4-3.7-1.1c-0.9-0.8-1.3-1.7-1.3-2.8
			c0-1.4,0.4-2.5,1.2-3.4c0.8-0.9,2-1.8,3.6-2.9l2.3-1.4c2.5-1.5,4.5-3.1,5.9-4.8c1.4-1.7,2.1-3.9,2.1-6.6c0-2.9-1-5.4-3-7.3
			c-2-2-4.9-3-8.7-3c-1.5,0-2.8,0.2-3.9,0.5c-1.1,0.3-2.1,0.7-2.9,1.1c-0.8,0.4-1.5,0.9-2.1,1.3c-0.6,0.5-1,0.9-1.4,1.3l3,4.9
			c0.3-0.3,0.7-0.7,1.1-1.1c0.4-0.4,1-0.8,1.6-1.2c0.6-0.4,1.3-0.7,2.1-1c0.8-0.3,1.7-0.4,2.7-0.4c1.8,0,3.2,0.4,4.2,1.2
			c1,0.8,1.5,1.8,1.5,3c0,0.9-0.1,1.6-0.3,2.3c-0.2,0.6-0.6,1.2-1,1.7c-0.5,0.5-1,1-1.7,1.5c-0.7,0.5-1.4,1-2.3,1.5l-2.3,1.5
			c-2.3,1.5-4.1,3-5.4,4.7c-1.3,1.6-2,3.7-2,6.3c0,1.4,0.3,2.6,0.8,3.8c0.5,1.2,1.3,2.1,2.3,3c1,0.8,2.1,1.5,3.4,2
			c1.3,0.5,2.7,0.7,4.2,0.7c1.4,0,2.7-0.1,3.7-0.4c1-0.3,1.9-0.6,2.6-1.1c0.7-0.4,1.4-0.9,1.8-1.3c0.5-0.4,0.9-0.8,1.2-1.1
			L599,1399.1z M563.3,1402.4c-2.2,0-4-0.9-5.3-2.8c-1.3-1.8-2.1-4.5-2.3-8h13.4c0.1,0.3,0.1,0.6,0.1,1.1c0,0.5,0,1,0,1.6
			c0,2.6-0.5,4.5-1.5,5.9C566.7,1401.7,565.2,1402.4,563.3,1402.4L563.3,1402.4z M574.9,1394.1c0-1.6-0.1-2.9-0.2-4.1
			c-0.1-1.2-0.2-2.2-0.3-3h-18.7c0.2-4.3,1.1-7.5,2.8-9.6c1.7-2,4-3.1,7.2-3.1c1.1,0,2,0.1,2.9,0.4c0.9,0.3,1.6,0.6,2.3,0.9
			c0.6,0.4,1.2,0.7,1.6,1.1c0.4,0.4,0.8,0.6,1,0.8l2.3-4.4c-0.3-0.3-0.6-0.6-1.1-1.1c-0.5-0.5-1.2-1-2.1-1.5
			c-0.9-0.5-1.9-0.9-3.2-1.3c-1.3-0.4-2.8-0.5-4.5-0.5c-2.3,0-4.4,0.4-6.2,1.2c-1.9,0.8-3.4,2-4.7,3.6c-1.3,1.6-2.3,3.6-3,6.1
			c-0.7,2.5-1.1,5.4-1.1,8.9c0,3.3,0.4,6.1,1.1,8.5c0.7,2.4,1.7,4.3,3,5.9c1.3,1.5,2.8,2.7,4.4,3.4c1.7,0.7,3.5,1.1,5.4,1.1
			c3.5,0,6.3-1.1,8.3-3.3C573.9,1401.9,574.9,1398.6,574.9,1394.1L574.9,1394.1z M528.8,1374.4c1,0,1.8,0.1,2.6,0.4
			c0.8,0.3,1.4,0.6,2,1c0.6,0.4,1,0.8,1.4,1.2c0.4,0.4,0.7,0.8,0.9,1.1v22.7c-0.6,0.4-1.2,0.7-2,0.9c-0.7,0.3-1.7,0.4-2.8,0.4
			c-1.4,0-2.8-0.2-4-0.7c-1.3-0.5-2.3-1.3-3.3-2.4c-0.9-1.1-1.6-2.6-2.2-4.4c-0.5-1.8-0.8-4-0.8-6.6c0-2.6,0.2-4.7,0.7-6.4
			c0.4-1.7,1-3.1,1.8-4.1c0.8-1,1.6-1.8,2.6-2.3C526.7,1374.6,527.7,1374.4,528.8,1374.4z M514.2,1387.6c0,3.7,0.5,6.8,1.5,9.3
			c1,2.5,2.2,4.5,3.8,6c1.5,1.5,3.3,2.6,5.2,3.3c1.9,0.6,3.9,1,5.8,1c1.2,0,2.2-0.1,3.1-0.3c0.9-0.2,1.6-0.4,2.1-0.6v17.6l6.2,0.7
			v-54.8h-5.7v3.9H536c-0.2-0.3-0.4-0.7-0.8-1.3c-0.4-0.5-1-1.1-1.7-1.6c-0.7-0.5-1.6-1-2.7-1.4c-1.1-0.4-2.3-0.6-3.8-0.6
			c-1.7,0-3.4,0.3-4.9,1c-1.6,0.7-2.9,1.8-4.1,3.3c-1.2,1.5-2.1,3.4-2.8,5.8C514.6,1381.4,514.2,1384.3,514.2,1387.6z M500.5,1369.8
			v23.6c0,3.1-0.5,5.3-1.6,6.7c-1,1.4-2.6,2-4.8,2c-1.8,0-3.4-0.5-4.6-1.4c-1.2-0.9-2.2-1.8-2.9-2.7v-28.3h-6.2v36.7h5.7v-4.1h0.2
			c0.2,0.3,0.5,0.8,1,1.3c0.5,0.6,1.2,1.1,2,1.7c0.8,0.5,1.8,1,2.9,1.4c1.1,0.4,2.4,0.6,3.8,0.6c1.6,0,3.1-0.2,4.4-0.7
			c1.3-0.5,2.4-1.3,3.4-2.3c0.9-1.1,1.6-2.5,2.1-4.2c0.5-1.7,0.8-3.8,0.8-6.3v-24.1L500.5,1369.8z M470.9,1369.8h-5.7v4.1h-0.2
			c-0.2-0.3-0.5-0.8-1-1.3c-0.5-0.6-1.2-1.1-1.9-1.7c-0.8-0.5-1.7-1-2.9-1.4c-1.1-0.4-2.4-0.6-3.8-0.6c-1.6,0-3.1,0.2-4.4,0.7
			c-1.3,0.5-2.4,1.3-3.3,2.3c-0.9,1.1-1.6,2.5-2.1,4.2c-0.5,1.7-0.7,3.8-0.7,6.3v24.1h6.2v-23.6c0-3.1,0.5-5.2,1.5-6.5
			c1-1.3,2.5-2,4.6-2c1.8,0,3.3,0.5,4.5,1.3c1.2,0.9,2.2,1.8,2.9,2.6v28.2h6.2V1369.8z M429.9,1384.6c0,2.9-0.9,5.1-2.8,6.8
			c-1.9,1.7-4.5,2.5-8,2.5h-4.5v-18.5h4.1c3.9,0,6.8,0.8,8.5,2.3C429,1379.2,429.9,1381.5,429.9,1384.6z M428.9,1408.9
			c0,2.5-0.9,4.5-2.6,6s-4.5,2.4-8.2,2.4h-3.5v-18.2h3.4c3.6,0,6.3,0.9,8.1,2.6C428,1403.4,428.9,1405.8,428.9,1408.9L428.9,1408.9z
			 M435.7,1409.1c0-1.8-0.2-3.4-0.7-4.8c-0.5-1.4-1.1-2.6-1.9-3.6c-0.8-1-1.7-1.8-2.8-2.4c-1-0.6-2.1-1.1-3.3-1.4v-0.2
			c1.4-0.3,2.7-0.7,3.9-1.5c1.2-0.7,2.2-1.6,3.1-2.7c0.9-1.1,1.6-2.3,2.1-3.8c0.5-1.5,0.8-3,0.8-4.8c0-2.1-0.4-4-1.1-5.7
			c-0.7-1.7-1.8-3.2-3.3-4.5c-1.5-1.3-3.4-2.3-5.7-3c-2.3-0.7-5-1.1-8.2-1.1h-10.8v52.8h10.2c3.1,0,5.8-0.3,8-1
			c2.2-0.6,4-1.5,5.5-2.7c1.4-1.2,2.5-2.6,3.1-4.2C435.3,1413,435.7,1411.2,435.7,1409.1"/>
		<path id="path20" class="st2" d="M350.5,1164h9.6v-128.6h-22.5V1164H350.5"/>
		<path id="path22" class="st3" d="M350.5,1293.3h9.6V1164h-22.5v129.3H350.5"/>
		<path id="path24" class="st1" d="M239,1374c0.2,1.4,0.3,2.9,0.3,4.4c0,0.8,0,1.8-0.1,2.9c12.8,0.2,24.1,9.4,24.1,20
			c0,5.4-3.5,9.5-5.5,11.9c0.4,0.1,0.9,0.2,1.4,0.3c1.9-1.6,7.2-7.4,7.2-14.8C266.3,1386.1,253.6,1374.3,239,1374L239,1374z
			 M226.1,1418.4c-0.2,1.4-0.8,2.7-1.6,3.8c0,1.3,0.6,2.5,2.7,1.5c-1.1-1.2-0.3-3.2-0.3-3.2s2.3,1.1,1.8,2.6
			C232.2,1422.3,229.7,1417.7,226.1,1418.4L226.1,1418.4z M223.1,1411.9c-0.5,1.9-1.4,3.9-2.7,5.3c-1.1,1.3-3,2.9-5.5,2.9
			c-1.2,0-3.1-0.5-4.3-1.1c-0.5,0.8-1.4,2.8-1.4,3.8c0,0.9,1.6,1.9,4.6,1.9c6.6,0,10.6-3,10.6-8
			C224.5,1414.9,223.8,1413.3,223.1,1411.9L223.1,1411.9z M240.2,1326.3c0.8,0,1.1-0.1,1.6-0.3c1.9-5.2,9.3-15,9.6-15.4l0.1-0.1
			l0.1,0c1.8,0.3,6.4,1,10.3,1h0.1c0.4,0,0.9,0,1.2-0.3c0.2-0.3,0.4-0.7,0.4-1.3c0-1-0.4-2.6-0.9-3.3c-1.4,1.5-3.5,2.1-7.1,2.1
			c-1.1,0-2.3-0.3-3-0.5l-0.3-0.1l-0.3-0.1l2-2c3.1-3.1,5.8-5.8,5.8-7.6c0-1.1-1.1-2.5-2-3.1c-0.2,3.3-3.5,7.7-6.8,10.1l-0.3,0.2
			l-0.1-1.2c0-0.8-0.1-2-0.1-3.2c0-6.3-0.6-7.2-2.8-7.2c-0.3,0-0.8,0.1-1.2,0.2c1.2,1.5,1.7,3.5,1.7,7l0,1.6l0,1.3
			c0,1.4,0.1,2.5,0.3,3.3l0.1,0.5l-0.3,0c-1,0.1-2.9,0.4-4.3,0.4c-3.1,0-5.2-0.3-6.7-1.7c-1,0.8-2,2.2-2,3.1c0,1.3,0.8,1.4,1.9,1.4
			c0.5,0,1-0.1,1.7-0.2c1.3-0.2,3.3-0.5,7.5-0.5h0.3l-0.1,0.3c-1,3-3.9,7.3-8.5,12.9C238.3,1325.4,238.7,1326.3,240.2,1326.3z
			 M200.5,1310.9l-0.1-0.3h0.3c4.1,0,6.1,0.3,7.5,0.5c0.7,0.1,1.2,0.2,1.7,0.2c1.1,0,1.9-0.1,1.9-1.4c0-0.9-1-2.3-2-3.1
			c-1.5,1.4-3.6,1.7-6.7,1.7c-1.4,0-3.3-0.3-4.3-0.4l-0.2,0l-0.2,0l0.1-0.5c0.1-0.9,0.3-1.9,0.3-3.3l0-1.3l0-1.6
			c0-3.5,0.5-5.5,1.7-7c-0.3-0.1-0.8-0.2-1.2-0.2c-2.2,0-2.8,1-2.8,7.2c0,1.3-0.1,2.4-0.1,3.2l-0.1,1.2l-0.3-0.2
			c-3.2-2.5-6.6-6.9-6.8-10.1c-1,0.6-2,2-2,3.1c0,1.8,2.7,4.5,5.8,7.6l1.8,1.8l0.2,0.2l-0.6,0.1c-0.7,0.2-1.9,0.5-3,0.5
			c-3.5,0-5.7-0.7-7.1-2.1c-0.5,0.7-0.9,2.3-0.9,3.3c0,0.6,0.1,1.1,0.4,1.3c0.3,0.3,0.8,0.3,1.2,0.3h0.1c3.9,0,8.5-0.7,10.3-1l0.1,0
			l0.1,0.1c0.3,0.4,7.7,10.2,9.6,15.4c0.4,0.2,0.8,0.3,1.6,0.3c1.4,0,1.9-1,2.3-2.5C204.4,1318.3,201.5,1313.9,200.5,1310.9
			L200.5,1310.9z M180.6,1398.9c0,7.3,5.3,13.1,7.2,14.8c0.5-0.1,0.9-0.2,1.3-0.3c-2-2.4-5.5-6.5-5.5-11.9c0-10.7,11.5-20,24.4-20
			c-0.1-0.9-0.1-1.9-0.1-2.9c0-1.6,0.1-3.1,0.2-4.4C193.5,1374.1,180.6,1386,180.6,1398.9L180.6,1398.9z M279,1376.3
			c6.6-10.4,11.7-10.2,19.5-10.2c-6.4,4.9-10.7,11.3-12.7,14.5l-12,19.2c-1.2,5.9-4.2,11.5-8.8,15.6c1.5,0.6,2.8,1.2,3.6,1.8
			c-7.9,0-15.6,4-19.9,4c-2.8,0-4.5-1.6-4.5-3.8c0.2-2.4,2.7-4.9,7.3-4.9c1,0,2.4,0.1,3.8,0.4c2.5-3.5,4.5-6.6,4.5-11.1
			c0-8.4-10.1-15-20.2-15c-0.6,0-1.1,0-1.7,0.1c-0.9,2.1-4,5.6-4,9.6c0,6.7,4.4,12.2,4.4,18.8c0,4.1-2,6.7-2.8,7.7
			c1.2,1.2,2.6,2.6,2.9,3.6c-0.7-0.3-1.6-0.4-2.8-0.4c-4.9,0-8.8,1.3-12.7,1.3c-2.2,0-2.8-0.7-2.8-1.3c0-0.2,0-0.5,0.1-0.6
			c-0.8,0.3-1.6,0.5-2.5,0.7c-1.1,0.2-2.4,0.3-3.7,0.3c-4.7,0-6.4-2-6.4-3.7c0-1.4,1.1-4,2.4-6c1.8,0.9,4,1.5,5,1.5
			c2.5,0,4.7-2.4,5.9-5.2c-1.7-0.2-2-0.3-3.7-0.3c-4.6,0-7.7,1.6-8.3,1.6c-0.1,0-0.2,0-0.2-0.1c0-0.6,1.3-2.3,3.9-3.3
			c3.4-1.2,8.4-1.7,9.3-1.9c0-0.1-0.9-1.7-1.8-2.1c-0.2-0.1-0.4-0.1-0.6,0c-3.5,0.7-4.5,1-9,2.7c-0.1,0.1-0.2,0-0.2-0.2
			c0-1.8,4.6-5.7,8.7-7.2c-3.4-4.4-7.7-8.8-9.7-15.7c-0.6,0-1.1-0.1-1.7-0.1c-10.2,0-20.2,6.6-20.2,15c0,4.5,2,7.6,4.5,11.1
			c1.5-0.2,2.8-0.4,3.8-0.4c4.6,0,7.1,2.5,7.3,4.9c0,2.2-1.8,3.8-4.5,3.8c-4.3,0-12.1-4-19.9-4c0.8-0.6,2.1-1.2,3.6-1.8
			c-4.6-4.1-7.7-9.7-8.8-15.6l-12-19.2c-2-3.2-6.3-9.5-12.7-14.5c7.8,0,12.9-0.2,19.5,10.2l6.2,9.9c0.5-1.3,1-2.5,1.7-3.7
			l-12.3-19.6c-2-3.2-6.3-9.5-12.7-14.5c7.8,0,12.9-0.2,19.5,10.2l10.6,16.9c0.8-0.8,1.6-1.7,2.5-2.5l-14.9-23.8
			c-2-3.3-6.3-9.5-12.7-14.5c7.8,0,12.9-0.2,19.5,10.2l14.5,23.2c1-0.6,1.9-1.2,2.9-1.7L175,1338c-2-3.3-6.3-9.5-12.7-14.5
			c7.8,0,12.9-0.2,19.5,10.2L200,1363c1.1-0.4,2.2-0.8,3.3-1.2l-20.6-33c-2-3.2-6.3-9.6-12.7-14.5c7.8,0,12.9-0.2,19.5,10.2l22,35.2
			c0.2,0,0.4-0.1,0.7-0.1c0.6-1.9,1-3.7,1-5.4c0-11-7.3-20.8-16-28.3c0.6-0.3,1.5-0.3,2.4-0.3c1.8,0,3,0.1,3.8,0.2
			c-2-4.6-6.3-10.5-8.5-13.6c-2.9,0.5-7,0.9-9.7,0.9c-2.8,0-3.2-1.7-3.2-3.1c0-2.6,1.2-4.6,2.6-5.8c0.5,1.3,1.6,3.1,6.8,3.1
			c0.1,0,0.3,0,0.5,0c-1.5-1.7-6.3-5.6-6.3-8.7c0-2.1,2.3-5.2,5.3-5.2c-0.2,0.7-0.2,1.3-0.2,1.7c0,2.5,2.2,5.5,4.1,7.6
			c-0.1-0.6,0-0.6,0-1.3c0-6,0.5-8.7,4.3-8.7c1.9,0,3.2,1,3.6,1.3c-2.5,2.3-2.6,4.1-2.6,7.4c0,0.9,0,1.7,0,2.9c0,0.8,0,1.8-0.1,2.5
			c1.4,0.2,1.9,0.2,3,0.2c0,0,5.4,0.4,6.7-2.4c1.5,1.4,3.6,3.2,3.6,5.3c0,1.4-0.7,2.9-3.4,2.9c-1.1,0-4.4-0.6-7.1-0.6
			c0.7,1.7,4.1,6.5,6.9,10c0.4-1.4,1.1-2.8,2.6-4c0.2,2.3,1.5,9.4,5.1,13.6c0.4-2.8,1-5.7,1-11.8c0-14.9-3.6-25.9-11.2-28
			c1-1.7,3.1-3.3,5.2-3.3c2.8,0,4.3,3.1,5.8,6.1c0.8-2.2,3-7.5,5.2-7.5c2.2,0,4.4,5.4,5.2,7.5c1.5-3,3.1-6.1,5.8-6.1
			c2.2,0,4.3,1.5,5.2,3.3c-7.6,2.1-11.2,13.1-11.2,28c0,6.1,0.6,9,1,11.8c3.5-4.2,4.9-11.3,5.1-13.6c1.5,1.2,2.2,2.7,2.6,4
			c2.9-3.5,6.2-8.4,6.9-10c-2.8,0-6.1,0.6-7.1,0.6c-2.8,0-3.4-1.6-3.4-2.9c0-2.1,2.1-4,3.6-5.3c1.3,2.8,6.7,2.4,6.7,2.4
			c1,0,1.6,0,3-0.2c-0.1-0.7-0.1-1.7-0.1-2.5c0-1.2,0-2,0-2.9c0-3.4-0.1-5.1-2.6-7.4c0.4-0.3,1.7-1.3,3.6-1.3c3.8,0,4.3,2.8,4.3,8.7
			c0,0.7,0,0.7,0,1.3c1.9-2.1,4.1-5,4.1-7.6c0-0.5,0-1.1-0.2-1.7c3,0,5.3,3.1,5.3,5.2c0,3.1-4.8,7-6.3,8.7c0.2,0,0.4,0,0.5,0
			c5.3,0,6.3-1.8,6.8-3.1c1.4,1.1,2.6,3.2,2.6,5.8c0,1.5-0.3,3.1-3.2,3.1c-2.7,0-6.9-0.4-9.7-0.9c-2.2,3.1-6.5,9-8.5,13.6
			c0.8-0.1,2-0.2,3.8-0.2c0.9,0,1.9,0.1,2.4,0.3c-8.7,7.5-16,17.3-16,28.3c0,1.8,0.4,3.5,1,5.4c0.2,0,0.4,0.1,0.7,0.1l22-35.2
			c6.6-10.4,11.7-10.2,19.5-10.2c-6.4,4.9-10.7,11.3-12.7,14.5l-20.6,33c1.1,0.4,2.2,0.8,3.3,1.2l18.2-29.2
			c6.6-10.4,11.7-10.2,19.5-10.2c-6.5,5-10.7,11.2-12.7,14.5l-17.7,28.4c1,0.6,2,1.1,2.9,1.7l14.5-23.2
			c6.6-10.4,11.7-10.2,19.5-10.2c-6.5,5-10.7,11.2-12.7,14.5l-14.9,23.8c0.9,0.8,1.7,1.6,2.5,2.5l10.6-16.9
			c6.6-10.4,11.7-10.2,19.5-10.2c-6.5,5-10.7,11.2-12.7,14.5l-12.3,19.6c0.7,1.2,1.2,2.5,1.7,3.7L279,1376.3"/>
		<path id="path26" class="st1" d="M360.1,1421.2v-128.6h-22.5v128.6H360.1"/>
		<path id="path28" class="st1" d="M182.4,1605.6c-1.4,0.9-4.5,2.1-8.2,2.1c-8.2,0-16.3-5.4-16.3-19.4c0-13.5,6.3-20.2,15.2-20.2
			c3.2,0,5.8,0.6,7.8,1.3v13.4l-4.1,0.9c-0.7,0.1-0.9,0.3-0.9,0.7c0,0.6,0.5,1.4,0.7,2h15.4c0,0,0.1-0.4,0.1-0.7
			c0-1.1-0.6-1.9-2.3-2.4l-1.6-0.4v-14.1c-1.8-1.6-6.8-5.3-16.7-5.3c-11.9,0-21.2,7.4-21.2,23.8c0,17.5,13,24.4,24.2,24.4
			c7.2,0,10.7-2,13-3c0.2-2,0.4-6.2,0.4-6.7c0-2.1-0.6-3.4-2.4-3.4c-0.5,0-1.1,0.1-1.5,0.3L182.4,1605.6"/>
		<path id="path30" class="st1" d="M215.3,1584.4c0.1,0.6,0.3,1.8,0.3,2.9c0,3.7-1.4,6.9-5.3,6.9c-4,0-6.4-3.2-6.8-9.8H215.3z
			 M203.5,1580.8c0.1-8.4,4.1-12.3,9.9-12.3c4.3,0,6.8,1.7,8.4,3.1c0.7-0.5,1-1.7,1-2.3c0-1.7-4.5-5.5-12-5.5
			c-8.3,0-14.5,4.7-14.5,16.5s7.1,17.8,14.8,17.8c7.6,0,11.5-4.7,11.5-11.4c0-1.7-0.3-4.1-0.8-5.8H203.5"/>
		<path id="path32" class="st1" d="M247.3,1593.5H239v-25.3l4.6-0.9c0.7-0.1,0.9-0.3,0.9-0.9c0-0.7-0.5-1.7-0.7-1.9h-16.1
			c0,0-0.1,0.4-0.1,0.6c0,1.2,0.8,1.8,2.1,2.2l2.3,0.8v25.3h-5c0,0-0.1,0.4-0.1,0.6c0,1.3,0.8,2,2.1,2.3l3,0.8v0.7
			c0,10.9,6.6,16.1,12.4,16.1c3.4,0,4.7-1.5,4.7-3.6c0-1.7-1-2.6-2-3.2c-0.6,0.7-2.4,2-4.5,2c-2.9,0-3.9-1.6-3.9-5.6
			c0-2.1,0.1-6.4,0.1-6.4h9L247.3,1593.5"/>
		<path id="path34" class="st1" d="M272.3,1602.7c-2.2,0-3.7,1.5-3.7,3.6c0,2.3,1.5,3.8,3.7,3.8c2,0,3.6-1.5,3.6-3.8
			C275.9,1604.2,274.3,1602.7,272.3,1602.7z M257.5,1580.9c0-9,3.6-13.1,8.6-13.1c5,0,8.7,3.9,8.7,13c0,9-3.7,13.2-8.7,13.2
			C261.1,1594,257.5,1590,257.5,1580.9z M260.1,1602.7c-2,0-3.6,1.5-3.6,3.6c0,2.3,1.6,3.8,3.6,3.8c2.1,0,3.6-1.5,3.6-3.8
			C263.7,1604.2,262.2,1602.7,260.1,1602.7z M282,1581.2c0-11.7-8.2-17.4-16.4-17.4c-8.4,0-15.4,5.4-15.4,16.7
			c0,11.4,8.1,17.5,16.7,17.5C275.4,1598,282,1593,282,1581.2"/>
		<path id="path36" class="st1" d="M297.7,1591.8h0.2c1.4,2.3,3.9,6.2,8.3,6.2c3.2,0,4.7-1.5,4.7-3.6c0-1.5-0.7-2.8-1.2-3.4
			c-0.5,0.3-2.2,1-4.5,1c-3.7,0-5.6-1.5-7-3.4v-20.3l4.9-0.9c0.7-0.1,0.9-0.3,0.9-0.9c0-0.7-0.5-1.7-0.7-1.9h-16.3
			c0,0-0.1,0.4-0.1,0.6c0,1.2,0.8,1.8,2.1,2.2l2.4,0.8v25l-4.8,0.7c0,0-0.1,0.4-0.1,0.7c0,1.1,0.9,2,2.5,2.1l9.2,0.9L297.7,1591.8"
			/>
		<path id="path38" class="st1" d="M335.6,1591.9c-1,0.9-2.8,2-5.7,2c-5.5,0-9.5-3.9-9.5-12.8c0-8.7,3.8-12.2,8.3-12.2
			c3.9,0,6,1.8,6.9,2.8V1591.9z M342.4,1568.4l4.9-0.7c0,0,0.1-0.3,0.1-0.5c0-1.2-0.9-2-2.5-2.2l-8.9-0.8v4.4h-0.2
			c-1.5-2.1-4.3-4.8-9.6-4.8c-6.6,0-12.8,4.3-12.8,16c0,12.6,8.8,18.2,17.4,18.2c2,0,3.6-0.3,4.8-0.6v11.8l-4.8,0.7
			c0,0-0.1,0.5-0.1,0.7c0,1.1,0.9,2,2.5,2.1l9.2,0.9V1568.4"/>
		<path id="path40" class="st1" d="M370.2,1584.4c0.1,0.6,0.3,1.8,0.3,2.9c0,3.7-1.3,6.9-5.3,6.9c-4,0-6.3-3.2-6.8-9.8H370.2z
			 M358.4,1580.8c0.1-8.4,4-12.3,9.9-12.3c4.3,0,6.7,1.7,8.4,3.1c0.7-0.5,1-1.7,1-2.3c0-1.7-4.5-5.5-11.9-5.5
			c-8.3,0-14.5,4.7-14.5,16.5s7.1,17.8,14.8,17.8c7.6,0,11.5-4.7,11.5-11.4c0-1.7-0.3-4.1-0.8-5.8H358.4"/>
		<path id="path42" class="st1" d="M393.5,1591.8h0.2c1.4,2.3,3.9,6.2,8.3,6.2c3.2,0,4.7-1.5,4.7-3.6c0-1.5-0.7-2.8-1.2-3.4
			c-0.5,0.3-2.2,1-4.5,1c-3.7,0-5.6-1.5-7-3.4v-20.3l4.9-0.9c0.7-0.1,0.9-0.3,0.9-0.9c0-0.7-0.5-1.7-0.7-1.9h-16.3
			c0,0-0.1,0.4-0.1,0.6c0,1.2,0.8,1.8,2.1,2.2l2.4,0.8v25l-4.8,0.7c0,0-0.1,0.4-0.1,0.7c0,1.1,0.9,2,2.5,2.1l9.2,0.9L393.5,1591.8"
			/>
		<path id="path44" class="st1" d="M429.3,1593.5h-9.2v-19.7c0-3,0.9-5.5,4.3-5.5c2.6,0,4.8,1.2,5.3,1.6c0.3-0.5,0.6-1.5,0.6-2.2
			c0-0.7-2.4-3.9-8.5-3.9c-6.1,0-8.6,3.6-8.6,8.8v20.9h-5.1c0,0-0.1,0.4-0.1,0.6c0,1.3,0.8,2,2.1,2.3l3.3,0.8l1.5,9.1h5v-9.1h10
			L429.3,1593.5"/>
		<path id="path46" class="st1" d="M469.9,1591.9c-1,0.9-2.8,2-5.7,2c-5.5,0-9.5-3.9-9.5-12.8c0-8.7,3.8-12.2,8.3-12.2
			c3.9,0,6,1.8,6.9,2.8V1591.9z M476.7,1568.4l4.9-0.7c0,0,0.1-0.3,0.1-0.5c0-1.2-0.9-2-2.5-2.2l-8.9-0.8v4.4h-0.2
			c-1.5-2.1-4.3-4.8-9.6-4.8c-6.6,0-12.8,4.3-12.8,16c0,12.6,8.8,18.2,17.4,18.2c2,0,3.6-0.3,4.8-0.6v11.8l-4.8,0.7
			c0,0-0.1,0.5-0.1,0.7c0,1.1,0.9,2,2.5,2.1l9.2,0.9L476.7,1568.4"/>
		<path id="path48" class="st1" d="M515.7,1568.4l4.9-0.7c0,0,0.1-0.3,0.1-0.5c0-1.2-0.9-2-2.5-2.2l-8.9-0.8v4.4h-0.1
			c-1.1-1.4-4-4.9-10-4.9c-7.2,0-10.6,4.3-10.6,12.2v17.2l-4.8,0.7c0,0-0.1,0.4-0.1,0.7c0,1.1,0.9,2,2.5,2.1l9.2,0.9v-21.3
			c0-6.1,3.2-7.6,6.2-7.6c3.4,0,5.7,1.5,7.3,3.2v21.2l-4.8,0.7c0,0-0.1,0.4-0.1,0.7c0,1.1,0.9,2,2.5,2.1l9.2,0.9V1568.4"/>
		<path id="path50" class="st1" d="M534.8,1591.8h0.2c1.4,2.3,3.9,6.2,8.3,6.2c3.2,0,4.7-1.5,4.7-3.6c0-1.5-0.7-2.8-1.2-3.4
			c-0.5,0.3-2.2,1-4.5,1c-3.7,0-5.6-1.5-7-3.4v-20.3l4.9-0.9c0.7-0.1,0.9-0.3,0.9-0.9c0-0.7-0.5-1.7-0.7-1.9H524
			c0,0-0.1,0.4-0.1,0.6c0,1.2,0.8,1.8,2.1,2.2l2.4,0.8v25l-4.8,0.7c0,0-0.1,0.4-0.1,0.7c0,1.1,0.9,2,2.5,2.1l9.2,0.9L534.8,1591.8"
			/>
		<path id="path52" class="st1" d="M566.2,1594c-4.5,0-8.4-3.2-8.4-12.1c0-8.5,3.3-13.4,9.7-13.4c4.2,0,6.6,2.2,7.7,3.2
			c0.6-0.6,1.1-1.7,1.1-2.3c0-1.7-3.7-5.6-11.1-5.6c-8.8,0-14.5,5.5-14.5,16.7c0,11.4,7.6,17.6,16.7,17.6c7.4,0,9.3-3.7,9.3-5.6
			c0-1.8-0.9-3.5-3.4-4.1C572.2,1590.7,570.6,1594,566.2,1594"/>
		<path id="path54" class="st1" d="M591.2,1593.2h0.1c1.4,1.6,4.6,4.9,10.4,4.9c6.8,0,10.6-4,10.6-11.9v-17.9l3.9-0.9
			c0.7-0.1,0.9-0.3,0.9-0.9c0-0.7-0.5-1.7-0.7-1.9h-15.3c0,0-0.1,0.4-0.1,0.6c0,1.2,0.8,1.8,2.1,2.2l2.2,0.8v17.1
			c0,5.7-3.1,7.5-6.6,7.5c-4.2,0-6.4-1.8-7.7-3.1v-21.5l3.8-0.9c0.7-0.1,0.9-0.3,0.9-0.9c0-0.7-0.5-1.7-0.7-1.9h-15.3
			c0,0-0.1,0.4-0.1,0.6c0,1.2,0.8,1.8,2.1,2.2l2.4,0.8v41l-4.8,0.7c0,0-0.1,0.5-0.1,0.7c0,1.1,0.9,2,2.5,2.1l9.2,0.9L591.2,1593.2"
			/>
		<path id="path56" class="st1" d="M625.9,1563.7c-2.4,0-4.2,1.6-4.2,4.1c0,2.6,1.8,4.2,4.2,4.2c2.4,0,4.3-1.6,4.3-4.2
			C630.2,1565.3,628.3,1563.7,625.9,1563.7z M625.9,1589.7c-2.4,0-4.2,1.6-4.2,4.1c0,2.6,1.8,4.2,4.2,4.2c2.4,0,4.3-1.6,4.3-4.2
			C630.2,1591.3,628.3,1589.7,625.9,1589.7"/>
		<path id="path58" class="st1" d="M165.8,858c-5.5-0.3-8.6-2.2-8.6-5.8c0-2.8,1.6-4.7,4.4-4.7c2.8,0,4.9,1.8,5.7,2.9v7.7L165.8,858
			z M174.2,850.6c0-2.7,1-3.5,2.2-3.5c1.5,0,2.4,0.8,2.6,1.2c0.3-0.5,0.8-1.4,0.8-2c0-0.9-1.8-3.5-6.1-3.5c-3.1,0-5.1,1.4-5.7,4.7
			h-0.1c-0.7-1.3-3.2-4.9-8.8-4.9c-5.1,0-8.8,3.5-8.8,8.8c0,7.2,7.9,9.9,15.5,9.9h1.8v3c0,6.1-1.6,8.6-5.8,8.6
			c-1.5,0-2.9-0.5-3.4-0.7c-0.6-1.3-1.1-3.6-1.5-5.9c0,0-1-0.1-1.6-0.1c-2.3,0-3.6,1.1-3.6,3.2c0,4.2,5.5,7.4,11.8,7.4
			c7.4,0,10.9-4.1,10.9-11.7L174.2,850.6"/>
		<path id="path60" class="st1" d="M212.8,847.2l4.9-0.7c0,0,0.1-0.3,0.1-0.5c0-1.2-0.9-2-2.5-2.2l-8.9-0.8v4.5h-0.1
			c-1.1-1.4-4.1-4.9-10-4.9c-7.2,0-10.6,4.2-10.6,12.2V872l-4.8,0.7c0,0-0.1,0.4-0.1,0.7c0,1.2,0.9,2,2.5,2.1l9.2,0.9v-21.3
			c0-6.1,3.2-7.6,6.2-7.6c3.4,0,5.7,1.5,7.3,3.2V872l-4.8,0.7c0,0-0.1,0.4-0.1,0.7c0,1.2,0.9,2,2.5,2.1l9.2,0.9V847.2"/>
		<path id="path62" class="st1" d="M240.7,872.3h-8.2V847l4.6-0.9c0.7-0.1,0.9-0.3,0.9-0.9c0-0.7-0.5-1.7-0.7-1.9h-16.1
			c0,0-0.1,0.4-0.1,0.6c0,1.2,0.8,1.8,2.1,2.2l2.3,0.8v25.3h-5c0,0-0.1,0.4-0.1,0.6c0,1.3,0.8,2,2.1,2.3l3,0.8v0.7
			c0,10.9,6.6,16.1,12.4,16.1c3.4,0,4.7-1.5,4.7-3.6c0-1.7-1-2.6-2-3.2c-0.6,0.7-2.4,2-4.5,2c-2.9,0-3.9-1.6-3.9-5.6
			c0-2.1,0.1-6.4,0.1-6.4h9L240.7,872.3"/>
		<path id="path64" class="st1" d="M251.9,865.9c0-5.3,2.7-7.4,6.1-7.4c3.6,0,6.3,2.1,6.3,7.4c0,4.8-2.6,7.2-6.1,7.2
			C254.6,873.1,251.9,871.1,251.9,865.9z M254.9,843.7c-0.9,0-1.8,0.1-2.5,0.1c-1.8-1-2.9-2.7-2.9-5c0-3.5,2.2-5.7,7.1-5.7
			c6.6,0,10.6,3,10.6,6.6c0,2.8-1.5,4-5,4H254.9z M274.3,872.1h-5.5c1.3-1.7,2.1-3.7,2.1-6.1c0-7.2-5.9-11.2-13.3-11.2
			c-1.1,0-2.2,0.1-3.2,0.3c-0.9-0.5-1.9-1.5-1.9-3c0-1.6,1.1-2.4,3.4-2.4h7.8c6.2,0,9.7-2.8,9.7-7.7c0-6.8-6.6-13-18-13
			c-8.3,0-12.4,2.9-12.4,7.8c0,4.7,3.7,7,6.1,7.7v0.1c-1.8,0.9-2.8,2.6-2.8,4.7c0,3.9,3.6,5.7,4.9,6.4v0.1c-3.8,1.7-6.2,5.1-6.2,10
			c0,7.1,5.9,10.8,12.8,10.8c1.8,0,3.6-0.3,5.3-0.8h11.8L274.3,872.1"/>
		<path id="path66" class="st1" d="M288.7,870.6h0.2c1.4,2.3,3.9,6.2,8.3,6.2c3.2,0,4.7-1.5,4.7-3.6c0-1.5-0.7-2.8-1.2-3.4
			c-0.5,0.3-2.2,1-4.5,1c-3.7,0-5.6-1.5-7-3.4V847l4.9-0.9c0.7-0.1,0.9-0.3,0.9-0.9c0-0.7-0.5-1.7-0.7-1.9h-16.3
			c0,0-0.1,0.4-0.1,0.6c0,1.2,0.8,1.8,2.1,2.2l2.4,0.8v25l-4.8,0.7c0,0-0.1,0.4-0.1,0.7c0,1.2,0.9,2,2.5,2.1l9.2,0.9L288.7,870.6"/>
		<path id="path68" class="st1" d="M335.3,847.2l4.9-0.7c0,0,0.1-0.3,0.1-0.5c0-1.2-0.9-2-2.5-2.2l-8.9-0.8v4.5h-0.1
			c-1.1-1.4-4-4.9-10-4.9c-7.2,0-10.6,4.2-10.6,12.2V872l-4.8,0.7c0,0-0.1,0.4-0.1,0.7c0,1.2,0.9,2,2.5,2.1l9.2,0.9v-21.3
			c0-6.1,3.2-7.6,6.2-7.6c3.4,0,5.7,1.5,7.3,3.2V872l-4.8,0.7c0,0-0.1,0.4-0.1,0.7c0,1.2,0.9,2,2.5,2.1l9.2,0.9V847.2"/>
		<path id="path70" class="st1" d="M376,847l4-0.9c0.7-0.1,0.9-0.3,0.9-0.9c0-0.7-0.5-1.7-0.7-1.9h-15.3c0,0-0.1,0.4-0.1,0.6
			c0,1.2,0.8,1.8,2.1,2.2l2.2,0.8v17.1c0,5.7-3.2,7.5-6.5,7.5c-3.9,0-6.4-1.8-7.8-3V847l3.8-0.9c0.7-0.1,0.9-0.3,0.9-0.9
			c0-0.7-0.5-1.7-0.7-1.9h-15.3c0,0-0.1,0.4-0.1,0.6c0,1.2,0.8,1.8,2.1,2.2l2.4,0.8v25l-4.8,0.7c0,0-0.1,0.4-0.1,0.7
			c0,1.2,0.9,2,2.5,2.1l9.2,0.9l-0.4-4.7h0.2c1.8,2,4.9,5.1,11.1,5.1c6.6,0,10.3-4.2,10.3-11.9L376,847"/>
		<path id="path72" class="st1" d="M406.6,870.7c-1,0.9-2.8,2-5.7,2c-5.5,0-9.5-3.9-9.5-12.8c0-8.7,3.8-12.2,8.3-12.2
			c3.9,0,6,1.8,6.9,2.8V870.7z M413.4,847.2l4.9-0.7c0,0,0.1-0.3,0.1-0.5c0-1.2-0.9-2-2.5-2.2L407,843v4.4h-0.2
			c-1.5-2.1-4.3-4.8-9.6-4.8c-6.6,0-12.8,4.2-12.8,16c0,12.6,8.8,18.2,17.4,18.2c2,0,3.6-0.3,4.8-0.6V888l-4.8,0.7
			c0,0-0.1,0.5-0.1,0.7c0,1.2,0.9,2,2.5,2.1l9.2,0.9V847.2"/>
		<path id="path74" class="st1" d="M455.2,863.2c0.1,0.6,0.3,1.8,0.3,2.9c0,3.7-1.3,6.9-5.3,6.9c-4,0-6.3-3.2-6.8-9.8H455.2z
			 M443.4,859.6c0.1-8.4,4-12.3,9.9-12.3c4.3,0,6.8,1.7,8.4,3.1c0.7-0.5,1-1.7,1-2.3c0-1.7-4.5-5.5-12-5.5
			c-8.3,0-14.5,4.7-14.5,16.5c0,11.7,7.1,17.7,14.8,17.7c7.6,0,11.5-4.7,11.5-11.4c0-1.8-0.3-4.1-0.8-5.8H443.4"/>
		<path id="path76" class="st1" d="M475.4,883.1c-2.5,0-4.4,1.7-4.4,4.3c0,2.6,1.9,4.3,4.4,4.3c2.4,0,4.5-1.8,4.5-4.3
			C479.9,884.8,477.8,883.1,475.4,883.1z M478.9,847l4-0.9c0.7-0.1,0.9-0.3,0.9-0.9c0-0.7-0.5-1.7-0.7-1.9h-15.5
			c0,0-0.1,0.4-0.1,0.6c0,1.2,0.8,1.8,2.1,2.2l2.4,0.8v25l-4.8,0.7c0,0-0.1,0.4-0.1,0.7c0,1.2,0.9,2,2.5,2.1l9.2,0.9V847"/>
		<path id="path78" class="st1" d="M519.6,847l4-0.9c0.7-0.1,0.9-0.3,0.9-0.9c0-0.7-0.5-1.7-0.7-1.9h-15.3c0,0-0.1,0.4-0.1,0.6
			c0,1.2,0.8,1.8,2.1,2.2l2.2,0.8v17.1c0,5.7-3.2,7.5-6.5,7.5c-3.9,0-6.4-1.8-7.8-3V847l3.8-0.9c0.7-0.1,0.9-0.3,0.9-0.9
			c0-0.7-0.5-1.7-0.7-1.9h-15.3c0,0-0.1,0.4-0.1,0.6c0,1.2,0.8,1.8,2.1,2.2l2.4,0.8v25l-4.8,0.7c0,0-0.1,0.4-0.1,0.7
			c0,1.2,0.9,2,2.5,2.1l9.2,0.9l-0.4-4.7h0.2c1.8,2,4.9,5.1,11.1,5.1c6.6,0,10.3-4.2,10.3-11.9L519.6,847"/>
		<path id="path80" class="st1" d="M546.9,863.2c0.1,0.6,0.3,1.8,0.3,2.9c0,3.7-1.4,6.9-5.3,6.9c-4,0-6.3-3.2-6.8-9.8H546.9z
			 M535.1,859.6c0.1-8.4,4.1-12.3,9.9-12.3c4.3,0,6.7,1.7,8.4,3.1c0.7-0.5,1-1.7,1-2.3c0-1.7-4.5-5.5-11.9-5.5
			c-8.3,0-14.5,4.7-14.5,16.5c0,11.7,7.1,17.7,14.8,17.7c7.6,0,11.5-4.7,11.5-11.4c0-1.8-0.3-4.1-0.8-5.8H535.1"/>
		<path id="path82" class="st1" d="M575.3,871.8c-0.7,0.5-2.4,1.3-4.5,1.3c-2.2,0-4.5-0.9-4.5-3.8c0-3,3.2-4.7,6.4-6.6
			c4.1-2.4,8.4-5.1,8.4-10.5c0-5.5-4.6-9.7-12-9.7c-3.8,0-7.2,1.1-8.6,2c-0.3,1.7-0.5,3.4-0.5,5.2c0,2.7,0.7,3.8,2.8,3.8
			c0.3,0,0.9-0.1,0.9-0.1l1.4-5.7c0.7-0.5,2.6-1.4,4.6-1.4c3.3,0,5.4,1.3,5.4,4.1c0,2.9-3.2,4.5-6.3,6.4c-4.1,2.6-8.2,5.3-8.2,11.1
			c0,5.3,4.6,8.8,11.1,8.8c3.9,0,6.7-1.4,7.9-2.5c0.1-0.9,0.3-2.4,0.3-3.7c0-2.4-0.5-3.9-2.9-3.9c-0.3,0-0.8,0.1-0.8,0.1
			L575.3,871.8"/>
		<path id="path84" class="st1" d="M617.5,864.9h-4.5v-17.4h4.1c7.9,0,11.4,3.7,11.4,9C628.5,861.5,624.8,864.9,617.5,864.9z
			 M616.7,885.8h-3.6v-17h3.6c7.7,0,10.9,3.8,10.9,8.6C627.6,882.9,624.2,885.8,616.7,885.8z M625.4,867.5v-0.1
			c6.6-1.1,10.9-4.8,10.9-10.9c0-7.6-6.2-13-18.4-13h-17.2c0,0-0.1,0.4-0.1,0.7c0,1.1,0.5,2,2.3,2.4l2.8,0.7v39l-4.1,0.9
			c-0.7,0.1-0.9,0.3-0.9,0.7c0,0.6,0.5,1.4,0.7,2h15.9c12,0,17.8-4.2,17.8-11.7C635.1,871.8,631.2,868.8,625.4,867.5"/>
		<path id="path86" class="st1" d="M661.4,863.2c0.1,0.6,0.3,1.8,0.3,2.9c0,3.7-1.4,6.9-5.3,6.9c-4,0-6.3-3.2-6.8-9.8H661.4z
			 M649.5,859.6c0.1-8.4,4.1-12.3,9.9-12.3c4.3,0,6.8,1.7,8.4,3.1c0.7-0.5,1-1.7,1-2.3c0-1.7-4.5-5.5-12-5.5
			c-8.3,0-14.5,4.7-14.5,16.5c0,11.7,7.1,17.7,14.8,17.7c7.6,0,11.5-4.7,11.5-11.4c0-1.8-0.3-4.1-0.8-5.8H649.5"/>
		<path id="path88" class="st1" d="M689.8,871.8c-0.8,0.5-2.4,1.3-4.5,1.3c-2.2,0-4.5-0.9-4.5-3.8c0-3,3.2-4.7,6.4-6.6
			c4.1-2.4,8.4-5.1,8.4-10.5c0-5.5-4.6-9.7-12-9.7c-3.8,0-7.2,1.1-8.6,2c-0.3,1.7-0.5,3.4-0.5,5.2c0,2.7,0.7,3.8,2.8,3.8
			c0.3,0,0.9-0.1,0.9-0.1l1.4-5.7c0.7-0.5,2.6-1.4,4.6-1.4c3.3,0,5.4,1.3,5.4,4.1c0,2.9-3.2,4.5-6.3,6.4c-4.1,2.6-8.2,5.3-8.2,11.1
			c0,5.3,4.6,8.8,11.1,8.8c3.9,0,6.7-1.4,7.9-2.5c0.1-0.9,0.3-2.4,0.3-3.7c0-2.4-0.5-3.9-2.9-3.9c-0.3,0-0.8,0.1-0.8,0.1
			L689.8,871.8"/>
		<path id="path90" class="st1" d="M716.5,872.7c-4.5,0-8.4-3.2-8.4-12.1c0-8.5,3.3-13.4,9.7-13.4c4.2,0,6.6,2.2,7.7,3.2
			c0.6-0.6,1.1-1.7,1.1-2.3c0-1.7-3.7-5.6-11.1-5.6c-8.8,0-14.4,5.5-14.4,16.7c0,11.4,7.6,17.5,16.7,17.5c7.4,0,9.3-3.6,9.3-5.6
			c0-1.8-0.9-3.5-3.4-4.1C722.5,869.5,721,872.7,716.5,872.7"/>
		<path id="path92" class="st1" d="M741.6,871.9h0.1c1.4,1.6,4.6,4.9,10.4,4.9c6.8,0,10.6-4,10.6-11.9V847l3.9-0.9
			c0.7-0.1,0.9-0.3,0.9-0.9c0-0.7-0.5-1.7-0.7-1.9h-15.3c0,0-0.1,0.4-0.1,0.6c0,1.2,0.8,1.8,2.1,2.2l2.2,0.8v17.1
			c0,5.7-3.1,7.5-6.5,7.5c-4.2,0-6.4-1.8-7.7-3.1V847l3.8-0.9c0.7-0.1,0.9-0.3,0.9-0.9c0-0.7-0.5-1.7-0.7-1.9h-15.3
			c0,0-0.1,0.4-0.1,0.6c0,1.2,0.8,1.8,2.1,2.2l2.4,0.8v41l-4.8,0.7c0,0-0.1,0.5-0.1,0.7c0,1.2,0.9,2,2.5,2.1l9.2,0.9V871.9"/>
		<path id="path94" class="st1" d="M781.3,847l3.9-0.9c0.7-0.1,0.9-0.3,0.9-0.9c0-0.7-0.5-1.7-0.7-1.9h-15.4c0,0-0.1,0.4-0.1,0.6
			c0,1.2,0.8,1.8,2.1,2.2l2.4,0.8v41l-4.8,0.7c0,0-0.1,0.5-0.1,0.7c0,1.2,0.9,2,2.5,2.1l9.2,0.9L781.3,847"/>
		<path id="path96" class="st1" d="M820.5,847.2l4.9-0.7c0,0,0.1-0.3,0.1-0.5c0-1.2-0.9-2-2.5-2.2l-8.9-0.8v4.5H814
			c-1.1-1.4-4.1-4.9-10-4.9c-7.2,0-10.6,4.2-10.6,12.2V872l-4.8,0.7c0,0-0.1,0.4-0.1,0.7c0,1.2,0.9,2,2.5,2.1l9.2,0.9v-21.3
			c0-6.1,3.2-7.6,6.2-7.6c3.4,0,5.7,1.5,7.3,3.2V872l-4.8,0.7c0,0-0.1,0.4-0.1,0.7c0,1.2,0.9,2,2.5,2.1l9.2,0.9L820.5,847.2"/>
		<path id="path98" class="st1" d="M844.8,871.8c-0.7,0.5-2.4,1.3-4.5,1.3c-2.2,0-4.5-0.9-4.5-3.8c0-3,3.2-4.7,6.4-6.6
			c4.1-2.4,8.4-5.1,8.4-10.5c0-5.5-4.6-9.7-12-9.7c-3.8,0-7.2,1.1-8.6,2c-0.3,1.7-0.5,3.4-0.5,5.2c0,2.7,0.7,3.8,2.8,3.8
			c0.3,0,0.9-0.1,0.9-0.1l1.4-5.7c0.7-0.5,2.6-1.4,4.6-1.4c3.3,0,5.4,1.3,5.4,4.1c0,2.9-3.2,4.5-6.3,6.4c-4.1,2.6-8.2,5.3-8.2,11.1
			c0,5.3,4.6,8.8,11.1,8.8c3.9,0,6.7-1.4,7.9-2.5c0.1-0.9,0.3-2.4,0.3-3.7c0-2.4-0.5-3.9-2.9-3.9c-0.3,0-0.8,0.1-0.8,0.1
			L844.8,871.8"/>
		<path id="path100" class="st1" d="M871.4,871.8c-0.7,0.5-2.4,1.3-4.5,1.3c-2.2,0-4.5-0.9-4.5-3.8c0-3,3.2-4.7,6.4-6.6
			c4.1-2.4,8.4-5.1,8.4-10.5c0-5.5-4.6-9.7-12-9.7c-3.8,0-7.2,1.1-8.6,2c-0.3,1.7-0.5,3.4-0.5,5.2c0,2.7,0.7,3.8,2.8,3.8
			c0.3,0,0.9-0.1,0.9-0.1l1.4-5.7c0.7-0.5,2.6-1.4,4.6-1.4c3.3,0,5.4,1.3,5.4,4.1c0,2.9-3.2,4.5-6.3,6.4c-4.1,2.6-8.2,5.3-8.2,11.1
			c0,5.3,4.6,8.8,11.1,8.8c3.9,0,6.7-1.4,7.9-2.5c0.1-0.9,0.3-2.4,0.3-3.7c0-2.4-0.5-3.9-2.9-3.9c-0.3,0-0.8,0.1-0.8,0.1
			L871.4,871.8"/>
		<path id="path102" class="st1" d="M901.5,863.2c0.1,0.6,0.3,1.8,0.3,2.9c0,3.7-1.4,6.9-5.3,6.9c-4,0-6.3-3.2-6.8-9.8H901.5z
			 M889.7,859.6c0.1-8.4,4.1-12.3,9.9-12.3c4.3,0,6.8,1.7,8.4,3.1c0.7-0.5,1-1.7,1-2.3c0-1.7-4.4-5.5-11.9-5.5
			c-8.3,0-14.5,4.7-14.5,16.5c0,11.7,7.1,17.7,14.8,17.7c7.6,0,11.5-4.7,11.5-11.4c0-1.8-0.3-4.1-0.8-5.8H889.7"/>
		<path id="path104" class="st1" d="M930,871.8c-0.7,0.5-2.4,1.3-4.5,1.3c-2.2,0-4.5-0.9-4.5-3.8c0-3,3.2-4.7,6.4-6.6
			c4.1-2.4,8.4-5.1,8.4-10.5c0-5.5-4.6-9.7-12-9.7c-3.8,0-7.2,1.1-8.6,2c-0.3,1.7-0.5,3.4-0.5,5.2c0,2.7,0.7,3.8,2.8,3.8
			c0.3,0,0.9-0.1,0.9-0.1l1.4-5.7c0.7-0.5,2.6-1.4,4.6-1.4c3.3,0,5.4,1.3,5.4,4.1c0,2.9-3.2,4.5-6.3,6.4c-4.1,2.6-8.2,5.3-8.2,11.1
			c0,5.3,4.6,8.8,11.1,8.8c3.9,0,6.7-1.4,7.9-2.5c0.1-0.9,0.3-2.4,0.3-3.7c0-2.4-0.5-3.9-2.9-3.9c-0.3,0-0.8,0.1-0.8,0.1L930,871.8"
			/>
		<path id="path106" class="st1" d="M172.8,793.6c-1,0.9-2.8,2-5.7,2c-5.5,0-9.5-3.9-9.5-12.8c0-8.7,3.8-12.2,8.3-12.2
			c3.9,0,6,1.8,6.9,2.8L172.8,793.6z M179.6,770l4.9-0.7c0,0,0.1-0.3,0.1-0.5c0-1.2-0.9-2-2.5-2.2l-8.9-0.8v4.4H173
			c-1.5-2.1-4.3-4.8-9.6-4.8c-6.6,0-12.8,4.2-12.8,16c0,12.6,8.8,18.2,17.4,18.2c2,0,3.6-0.3,4.8-0.6v11.8l-4.8,0.7
			c0,0-0.1,0.5-0.1,0.7c0,1.1,0.9,2,2.5,2.1l9.2,0.9V770"/>
		<path id="path108" class="st1" d="M207.4,786c0.1,0.6,0.3,1.8,0.3,2.9c0,3.7-1.4,6.9-5.3,6.9c-4,0-6.3-3.2-6.8-9.8L207.4,786z
			 M195.6,782.4c0.1-8.4,4.1-12.3,9.9-12.3c4.3,0,6.7,1.7,8.4,3.1c0.7-0.5,1-1.7,1-2.3c0-1.7-4.5-5.5-11.9-5.5
			c-8.3,0-14.5,4.7-14.5,16.5c0,11.7,7.1,17.7,14.8,17.7c7.6,0,11.5-4.6,11.5-11.4c0-1.8-0.3-4.1-0.8-5.8H195.6"/>
		<path id="path110" class="st1" d="M235.9,794.6c-0.7,0.5-2.4,1.3-4.5,1.3c-2.2,0-4.5-0.9-4.5-3.8c0-3,3.2-4.7,6.4-6.6
			c4.1-2.4,8.4-5.1,8.4-10.5c0-5.5-4.6-9.7-12-9.7c-3.8,0-7.2,1.2-8.6,2c-0.3,1.7-0.5,3.4-0.5,5.2c0,2.7,0.7,3.8,2.8,3.8
			c0.3,0,0.9-0.1,0.9-0.1l1.4-5.7c0.7-0.5,2.6-1.4,4.6-1.4c3.3,0,5.4,1.3,5.4,4.1c0,2.9-3.2,4.5-6.3,6.4c-4.1,2.6-8.2,5.3-8.2,11.1
			c0,5.3,4.6,8.8,11.1,8.8c3.9,0,6.7-1.3,7.9-2.5c0.1-1,0.3-2.4,0.3-3.7c0-2.4-0.5-3.9-2.9-3.9c-0.3,0-0.8,0.1-0.8,0.1L235.9,794.6"
			/>
		<path id="path112" class="st1" d="M276.3,808.7h-2.7v-38.3h2.7c12.5,0,19.6,6.5,19.6,19.6C296,802.6,288.7,808.7,276.3,808.7z
			 M276.5,766.2h-15.3c0,0-0.1,0.4-0.1,0.7c0,1.1,0.5,2,2.3,2.4l2.8,0.7v39l-4.1,0.9c-0.7,0.1-0.9,0.3-0.9,0.7c0,0.6,0.5,1.4,0.7,2
			h14.5c17,0,27.2-6.3,27.2-22.6C303.7,773.8,293.6,766.2,276.5,766.2"/>
		<path id="path114" class="st1" d="M328.7,786c0.1,0.6,0.3,1.8,0.3,2.9c0,3.7-1.4,6.9-5.3,6.9c-4,0-6.3-3.2-6.8-9.8L328.7,786z
			 M316.9,782.4c0.1-8.4,4.1-12.3,9.9-12.3c4.3,0,6.7,1.7,8.4,3.1c0.7-0.5,1-1.7,1-2.3c0-1.7-4.5-5.5-11.9-5.5
			c-8.3,0-14.5,4.7-14.5,16.5c0,11.7,7.1,17.7,14.8,17.7c7.6,0,11.5-4.6,11.5-11.4c0-1.8-0.3-4.1-0.8-5.8H316.9"/>
		<path id="path116" class="st1" d="M371.8,770l4.9-0.7c0,0,0.1-0.3,0.1-0.5c0-1.2-0.9-2-2.5-2.2l-8.9-0.8v4.4h-0.1
			c-1.1-1.4-4-4.9-10-4.9c-7.2,0-10.6,4.2-10.6,12.2v17.2l-4.8,0.7c0,0-0.1,0.4-0.1,0.7c0,1.1,0.9,2,2.5,2.1l9.2,0.9v-21.3
			c0-6.1,3.2-7.6,6.2-7.6c3.4,0,5.7,1.5,7.3,3.2v21.2l-4.8,0.7c0,0-0.1,0.4-0.1,0.7c0,1.1,0.9,2,2.5,2.1l9.2,0.9L371.8,770"/>
		<path id="path118" class="st1" d="M399.9,795.1h-9.3v-19.7c0-3,0.9-5.5,4.3-5.5c2.6,0,4.8,1.2,5.3,1.6c0.3-0.5,0.6-1.5,0.6-2.2
			c0-0.7-2.4-3.9-8.5-3.9s-8.6,3.6-8.6,8.8v20.9h-5.1c0,0-0.1,0.4-0.1,0.6c0,1.3,0.8,2,2.1,2.3l3.3,0.8l1.5,9.1h5v-9.1h10
			L399.9,795.1"/>
		<path id="path120" class="st1" d="M419.7,794.6c-0.7,0.5-2.4,1.3-4.5,1.3c-2.2,0-4.5-0.9-4.5-3.8c0-3,3.2-4.7,6.4-6.6
			c4.1-2.4,8.4-5.1,8.4-10.5c0-5.5-4.6-9.7-12-9.7c-3.8,0-7.2,1.2-8.6,2c-0.3,1.7-0.5,3.4-0.5,5.2c0,2.7,0.7,3.8,2.8,3.8
			c0.3,0,0.9-0.1,0.9-0.1l1.4-5.7c0.7-0.5,2.6-1.4,4.6-1.4c3.3,0,5.4,1.3,5.4,4.1c0,2.9-3.2,4.5-6.3,6.4c-4.1,2.6-8.2,5.3-8.2,11.1
			c0,5.3,4.6,8.8,11.1,8.8c3.9,0,6.7-1.3,7.9-2.5c0.1-1,0.3-2.4,0.3-3.7c0-2.4-0.5-3.9-2.9-3.9c-0.3,0-0.8,0.1-0.8,0.1L419.7,794.6"
			/>
		<path id="path122" class="st1" d="M446.5,795.6c-4.5,0-8.4-3.2-8.4-12.1c0-8.5,3.3-13.4,9.7-13.4c4.2,0,6.6,2.2,7.7,3.2
			c0.6-0.6,1.1-1.7,1.1-2.3c0-1.7-3.7-5.6-11.1-5.6c-8.8,0-14.4,5.5-14.4,16.7c0,11.4,7.6,17.5,16.7,17.5c7.4,0,9.3-3.6,9.3-5.6
			c0-1.8-0.9-3.5-3.4-4.1C452.5,792.3,450.9,795.6,446.5,795.6"/>
		<path id="path124" class="st1" d="M471.5,794.8h0.1c1.4,1.6,4.6,4.9,10.4,4.9c6.8,0,10.6-4,10.6-11.9v-17.9l3.9-0.9
			c0.7-0.1,0.9-0.3,0.9-0.9c0-0.7-0.5-1.7-0.7-1.9h-15.3c0,0-0.1,0.4-0.1,0.6c0,1.2,0.8,1.8,2.1,2.2l2.2,0.8v17.1
			c0,5.7-3.1,7.5-6.6,7.5c-4.2,0-6.4-1.8-7.7-3.1v-21.5l3.8-0.9c0.7-0.1,0.9-0.3,0.9-0.9c0-0.7-0.5-1.7-0.7-1.9h-15.3
			c0,0-0.1,0.4-0.1,0.6c0,1.2,0.8,1.8,2.1,2.2l2.4,0.8v41l-4.8,0.7c0,0-0.1,0.5-0.1,0.7c0,1.1,0.9,2,2.5,2.1l9.3,0.9L471.5,794.8"/>
		<path id="path126" class="st1" d="M519.9,786c0.1,0.6,0.3,1.8,0.3,2.9c0,3.7-1.3,6.9-5.3,6.9c-4,0-6.3-3.2-6.8-9.8L519.9,786z
			 M508.1,782.4c0.1-8.4,4-12.3,9.9-12.3c4.3,0,6.8,1.7,8.4,3.1c0.7-0.5,1-1.7,1-2.3c0-1.7-4.5-5.5-12-5.5
			c-8.3,0-14.5,4.7-14.5,16.5c0,11.7,7.1,17.7,14.8,17.7c7.6,0,11.5-4.6,11.5-11.4c0-1.8-0.3-4.1-0.8-5.8H508.1"/>
		<path id="path128" class="st1" d="M564.7,769.8l4-0.9c0.7-0.1,0.9-0.3,0.9-0.9c0-0.7-0.5-1.7-0.7-1.9h-15.3c0,0-0.1,0.4-0.1,0.6
			c0,1.2,0.8,1.8,2.1,2.2l2.2,0.8v17.1c0,5.7-3.2,7.5-6.6,7.5c-3.8,0-6.3-1.8-7.8-3v-21.6l3.8-0.9c0.7-0.1,0.9-0.3,0.9-0.9
			c0-0.7-0.5-1.7-0.7-1.9h-15.3c0,0-0.1,0.4-0.1,0.6c0,1.2,0.8,1.7,2.1,2.2l2.4,0.8v25l-4.8,0.7c0,0-0.1,0.4-0.1,0.7
			c0,1.1,0.9,2,2.5,2.1l9.2,0.9l-0.4-4.7h0.2c1.8,2,4.9,5.1,11.1,5.1c6.6,0,10.3-4.3,10.3-11.9L564.7,769.8"/>
		<path id="path130" class="st1" d="M604.1,787.7h-4.5v-17.4h4.1c7.9,0,11.4,3.7,11.4,9C615.1,784.3,611.4,787.7,604.1,787.7z
			 M603.3,808.7h-3.6v-17h3.6c7.7,0,10.9,3.8,10.9,8.6C614.2,805.8,610.7,808.7,603.3,808.7z M611.9,790.3v-0.1
			c6.6-1.1,10.9-4.8,10.9-10.9c0-7.6-6.2-13-18.4-13h-17.2c0,0-0.1,0.4-0.1,0.7c0,1.1,0.5,2,2.3,2.4l2.8,0.7v39l-4.1,0.9
			c-0.7,0.1-0.9,0.3-0.9,0.7c0,0.6,0.5,1.4,0.7,2h15.9c12,0,17.8-4.3,17.8-11.7C621.7,794.6,617.7,791.6,611.9,790.3"/>
		<path id="path132" class="st1" d="M659.1,770l4.9-0.7c0,0,0.1-0.3,0.1-0.5c0-1.2-0.9-2-2.5-2.2l-8.9-0.8v4.4h-0.1
			c-1.1-1.4-4.1-4.9-10-4.9c-7.2,0-10.6,4.2-10.6,12.2v17.2l-4.8,0.7c0,0-0.1,0.4-0.1,0.7c0,1.1,0.9,2,2.5,2.1l9.2,0.9v-21.3
			c0-6.1,3.2-7.6,6.2-7.6c3.4,0,5.7,1.5,7.3,3.2v21.2l-4.8,0.7c0,0-0.1,0.4-0.1,0.7c0,1.1,0.9,2,2.5,2.1l9.2,0.9V770"/>
		<path id="path134" class="st1" d="M699.7,769.8l4-0.9c0.7-0.1,0.9-0.3,0.9-0.9c0-0.7-0.5-1.7-0.7-1.9h-15.3c0,0-0.1,0.4-0.1,0.6
			c0,1.2,0.8,1.8,2.1,2.2l2.2,0.8v17.1c0,5.7-3.2,7.5-6.5,7.5c-3.9,0-6.4-1.8-7.8-3v-21.6l3.8-0.9c0.7-0.1,1-0.3,1-0.9
			c0-0.7-0.5-1.7-0.7-1.9h-15.3c0,0-0.1,0.4-0.1,0.6c0,1.2,0.8,1.7,2.1,2.2l2.4,0.8v25l-4.8,0.7c0,0-0.1,0.4-0.1,0.7
			c0,1.1,0.9,2,2.5,2.1l9.2,0.9l-0.4-4.7h0.2c1.8,2,4.9,5.1,11.1,5.1c6.6,0,10.3-4.3,10.3-11.9V769.8"/>
		<path id="path136" class="st1" d="M730.3,793.6c-1,0.9-2.8,2-5.7,2c-5.5,0-9.5-3.9-9.5-12.8c0-8.7,3.8-12.2,8.3-12.2
			c3.9,0,6,1.8,6.9,2.8L730.3,793.6z M737.1,770l4.9-0.7c0,0,0.1-0.3,0.1-0.5c0-1.2-0.9-2-2.5-2.2l-8.9-0.8v4.4h-0.2
			c-1.5-2.1-4.3-4.8-9.6-4.8c-6.6,0-12.8,4.2-12.8,16c0,12.6,8.8,18.2,17.4,18.2c2,0,3.7-0.3,4.8-0.6v11.8l-4.8,0.7
			c0,0-0.1,0.5-0.1,0.7c0,1.1,0.9,2,2.5,2.1l9.2,0.9V770"/>
		<path id="path138" class="st1" d="M764.9,786c0.1,0.6,0.3,1.8,0.3,2.9c0,3.7-1.3,6.9-5.3,6.9c-4,0-6.3-3.2-6.8-9.8L764.9,786z
			 M753.1,782.4c0.1-8.4,4-12.3,9.9-12.3c4.3,0,6.7,1.7,8.4,3.1c0.7-0.5,1-1.7,1-2.3c0-1.7-4.5-5.5-11.9-5.5
			c-8.3,0-14.5,4.7-14.5,16.5c0,11.7,7.1,17.7,14.8,17.7c7.6,0,11.5-4.6,11.5-11.4c0-1.8-0.3-4.1-0.8-5.8H753.1"/>
		<path id="path140" class="st1" d="M793.4,794.6c-0.7,0.5-2.4,1.3-4.5,1.3c-2.2,0-4.5-0.9-4.5-3.8c0-3,3.2-4.7,6.4-6.6
			c4.1-2.4,8.4-5.1,8.4-10.5c0-5.5-4.6-9.7-12-9.7c-3.8,0-7.2,1.2-8.6,2c-0.3,1.7-0.5,3.4-0.5,5.2c0,2.7,0.7,3.8,2.8,3.8
			c0.3,0,0.9-0.1,0.9-0.1l1.4-5.7c0.7-0.5,2.6-1.4,4.6-1.4c3.3,0,5.4,1.3,5.4,4.1c0,2.9-3.2,4.5-6.3,6.4c-4.1,2.6-8.2,5.3-8.2,11.1
			c0,5.3,4.6,8.8,11.1,8.8c3.9,0,6.7-1.3,7.9-2.5c0.1-1,0.3-2.4,0.3-3.7c0-2.4-0.5-3.9-2.9-3.9c-0.3,0-0.8,0.1-0.8,0.1L793.4,794.6"
			/>
		<path id="path142" class="st1" d="M823.8,795.1h-9.2v-19.7c0-3,0.9-5.5,4.3-5.5c2.6,0,4.8,1.2,5.3,1.6c0.3-0.5,0.6-1.5,0.6-2.2
			c0-0.7-2.4-3.9-8.5-3.9c-6.1,0-8.6,3.6-8.6,8.8v20.9h-5.1c0,0-0.1,0.4-0.1,0.6c0,1.3,0.8,2,2.1,2.3l3.3,0.8l1.6,9.1h5v-9.1h10
			L823.8,795.1"/>
		<path id="path144" class="st1" d="M843.4,780.8c-5.5-0.3-8.6-2.2-8.6-5.8c0-2.8,1.6-4.7,4.4-4.7c2.8,0,4.9,1.8,5.7,2.9v7.7
			L843.4,780.8z M851.8,773.4c0-2.7,1-3.5,2.2-3.5c1.5,0,2.4,0.8,2.6,1.2c0.3-0.5,0.8-1.4,0.8-2c0-0.9-1.7-3.5-6.1-3.5
			c-3.1,0-5.1,1.4-5.7,4.7h-0.1c-0.7-1.3-3.2-4.9-8.8-4.9c-5.1,0-8.8,3.5-8.8,8.8c0,7.2,7.9,9.9,15.5,9.9h1.8v3
			c0,6.1-1.6,8.6-5.8,8.6c-1.5,0-2.9-0.5-3.4-0.7c-0.6-1.3-1.2-3.6-1.5-5.9c0,0-1-0.1-1.6-0.1c-2.3,0-3.6,1.1-3.6,3.2
			c0,4.2,5.5,7.4,11.8,7.4c7.4,0,10.9-4,10.9-11.7L851.8,773.4"/>
		<path id="path146" class="st1" d="M867.7,788.8c0-5.3,2.7-7.4,6.1-7.4c3.6,0,6.3,2.1,6.3,7.4c0,4.8-2.6,7.2-6.2,7.2
			C870.4,796,867.7,794,867.7,788.8z M870.7,766.5c-0.9,0-1.8,0.1-2.5,0.1c-1.8-1-2.9-2.7-2.9-5c0-3.5,2.2-5.7,7.1-5.7
			c6.6,0,10.6,3,10.6,6.6c0,2.8-1.6,4-5,4H870.7z M890.1,795h-5.5c1.3-1.7,2.1-3.7,2.1-6.1c0-7.2-5.9-11.2-13.3-11.2
			c-1.1,0-2.2,0.1-3.2,0.3c-0.9-0.5-1.9-1.5-1.9-3c0-1.6,1.1-2.4,3.4-2.4h7.8c6.2,0,9.7-2.8,9.7-7.7c0-6.8-6.6-13-18-13
			c-8.3,0-12.4,2.9-12.4,7.8c0,4.7,3.7,7,6.1,7.7v0.1c-1.7,0.9-2.8,2.6-2.8,4.7c0,3.9,3.6,5.7,4.9,6.4v0.1c-3.8,1.7-6.2,5.1-6.2,10
			c0,7.1,5.9,10.8,12.8,10.8c1.8,0,3.6-0.3,5.3-0.8h11.8L890.1,795"/>
		<path id="path148" class="st1" d="M913.1,786c0.1,0.6,0.3,1.8,0.3,2.9c0,3.7-1.4,6.9-5.3,6.9c-4,0-6.3-3.2-6.8-9.8L913.1,786z
			 M901.3,782.4c0.1-8.4,4.1-12.3,9.9-12.3c4.3,0,6.8,1.7,8.4,3.1c0.7-0.5,1-1.7,1-2.3c0-1.7-4.4-5.5-11.9-5.5
			c-8.3,0-14.5,4.7-14.5,16.5c0,11.7,7.1,17.7,14.8,17.7c7.6,0,11.5-4.6,11.5-11.4c0-1.8-0.3-4.1-0.8-5.8H901.3"/>
		<path id="path150" class="st1" d="M941.6,794.6c-0.7,0.5-2.4,1.3-4.5,1.3c-2.2,0-4.5-0.9-4.5-3.8c0-3,3.2-4.7,6.4-6.6
			c4-2.4,8.4-5.1,8.4-10.5c0-5.5-4.6-9.7-12-9.7c-3.8,0-7.2,1.2-8.6,2c-0.3,1.7-0.5,3.4-0.5,5.2c0,2.7,0.7,3.8,2.8,3.8
			c0.3,0,0.9-0.1,0.9-0.1l1.4-5.7c0.7-0.5,2.6-1.4,4.6-1.4c3.3,0,5.4,1.3,5.4,4.1c0,2.9-3.2,4.5-6.3,6.4c-4.1,2.6-8.2,5.3-8.2,11.1
			c0,5.3,4.6,8.8,11.1,8.8c3.9,0,6.7-1.3,7.9-2.5c0.1-1,0.3-2.4,0.3-3.7c0-2.4-0.5-3.9-2.9-3.9c-0.3,0-0.8,0.1-0.8,0.1L941.6,794.6"
			/>
		<g id="g152">
			<g>
				<defs>
					<path id="SVGID_1_" d="M1326.7,1456.1c0.5,0.1,1.1,0.3,1.9,0.6c3.6,1.1,6.1,1.2,7.1,1.2c0.4,0,0.5,0,0.5,0s-4.9-1.5-5.3-2.4
						c-0.1-0.3-0.1-0.4,0.2-0.4c0.5,0,1.8,0.5,4,1.3c3.7,1.3,24.6,4.2,32.1,4.5c4.2,0,6.1,0.2,7.2,0.2h0.2c0.8,0,1.2-0.1,2-0.4
						c1.8-0.6-0.3-0.8,1.5-0.8c0.3,0,0.6,0,1.1,0c3.1,0,4.5,0.1,5.7,0.1c0.2,0,0.3,0,0.5,0c1.4-0.1,2-0.8-1.7-1.1
						c-3.8-0.4-4-1-4.3-1.7c-0.1-0.7-1.7-1.5-4.7-2.5c-3.1-1-4.8-1.3-3.9-2.1c1.1-0.8-0.7-1.4-1.7-2.1c-1.1-0.6-0.2-1.7-6-2
						c-5.8-0.4-9.5-0.8-10.4-2c-1-1.3-3.5-0.6-6.4-1.5c-2.8-0.8-8.4-6.2-10.3-7.1c-1-0.5-2.8-1.3-4.4-1.3c-1.3,0-2.5,0.5-3.2,1.9
						c-1.6,3.1-2.3,5.5,1.3,7c3.6,1.5,5.5,1.5,3.3,2.8c-2.1,1.1-2,0.1-1,1.7c0.8,1.2,1.4,2-0.1,2c-0.4,0-1,0-1.7-0.2
						c-2.5-0.4-5.8-1.4-7.4-1.4c-0.5,0-0.8,0.1-0.9,0.4c-0.1,1,0.3,1.1,0.4,1.8c0.1,0.3,0,0.6-0.3,0.6c-0.3,0-0.8-0.2-1.6-0.7
						c-1.6-1-5.5-3.2-8.6-4.5c-3.1-1.3-5.7-2.2-4.7-2.5c0.8-0.2,0.4-1.4,2.2-1.4c0.4,0,0.8,0.1,1.4,0.2c1.3,0.2,2.2,0.3,2.9,0.3
						c1.1,0,1.3-0.3,0.5-1.1c-1.1-1-1.2-1.8,0.3-1.8c0.2,0,0.4,0,0.6,0c0.3,0,0.6,0.1,0.8,0.1c1.2,0,1-0.4,1-0.4s-1.3-1.5-3.9-2.1
						c-0.5-0.1-0.9-0.2-1.2-0.2c-0.5,0-0.9,0.1-1.1,0.2c-0.2,0.1-0.4,0.3-0.5,0.3c-0.1,0-0.2-0.1-0.3-0.3c-0.5-1-1.8-3.2-1.8-3.2
						c-1.3-0.8-1.3-0.8-2.7-1.7c-0.1-0.7-0.1-0.7-0.1-1.3c0,0-1.8-0.4-3.4-0.4c-1.1,0-2.1,0.2-2.1,1c0,1.6-0.1,2.3,2.6,3.8
						c2.9,1.5,4.5,1.9,2.7,2.3c-1.5,0.5-0.4,1.4-1.6,1.4h0c-1.4-0.1-3.9,0-6.2-2.4c-2.3-2.6-2.3-2.8-4.9-4.1c-2.8-1.4-4.3-1.9-3.2-2
						c1-0.2,2-0.7,2-0.7s-1.3-0.7-4.1-1.7c-2.7-1.1-3.1-0.3-5.9-2.4c-2.6-2.1-4.9-3.8-7.1-5.8c-2.1-1.9-2.9-2.8-1.7-3.3
						c1.4-0.5,3.3-1.5,3.3-2.3c0.1-0.6-0.1-3.7,0.3-3.7c0,0,0.1,0.2,0.3,0.5c0.6,2,3.3,5.2,5.4,6.6c2.1,1.3,4.7,2.8,4.6,4
						c-0.1,1.1-0.9,0.5,1,2.5c2,2,1.5,2.7,3.7,3.8c1.7,0.9,3.3,1.9,4.5,1.9c0.5,0,0.8-0.1,1.2-0.5c1.1-1.1,0.1-3,0.9-3
						c0.2,0,0.4,0.1,0.7,0.3c1.9,1,2.8,2.3,3.8,2.3c0.1,0,0.1,0,0.1,0c1.2-0.1,3.2,0.3,2.6-1.7c-0.5-2-1.7-3.9,1.4-4.9
						c3.2-1-0.1-4.4-0.5-5.4c-0.4-1-1.7-2.3-0.3-2.3c0,0,0.1,0,0.2,0c0,0,0.1,0,0.1,0c1.7,0,1.9-1.8,0.6-2.7c-1.3-0.9-3-2.1-5.3-2.1
						c-0.1,0-0.2,0-0.3,0c-2.5,0-3.3,1.2-1.1,3c1.9,1.5,4,4,3.1,4c-0.1,0-0.4-0.1-0.7-0.2c-2.3-1.1-2.5-3-7.3-3.5
						c-4.6-0.5-7.5-0.7-6.2-1.6c1.3-1,3.9-0.2,2.8-1.7c-0.8-1.3-2.2-4.3-0.9-4.3c0.3,0,0.6,0.1,1.2,0.4c0.8,0.4,1.4,0.6,1.7,0.6
						c1.1,0,0.6-1.4-1.3-2.2c-2.5-1-3.1-1-4.8-2.8c-0.6-0.7-1.1-0.9-1.5-0.9c-0.6,0-0.9,0.7-1.2,1.2c-0.1,0.2-0.3,0.4-0.7,0.4
						c-1.1,0-3.2-1.2-5.1-3.2c-2.3-2.6-1-3.5-3.3-5.3c-0.5-0.4-0.8-0.5-1.1-0.5c-0.4,0-0.6,0.2-0.8,0.4c-0.2,0.2-0.4,0.4-0.7,0.4
						c-0.2,0-0.6-0.2-1-0.7c-1.7-2-2.5-4.4-4.4-5.5c-1.8-1.2-2.1-2.7-1.6-3.7c0.6-0.9-1.4-2.7-4.1-5.2c-2.6-2.4-6.1-4.4-7-9.3
						c-0.9-5-1.7-9.2-1.7-9.2s-0.2-0.2-0.5-0.2c-0.5,0-1.2,0.5-1.3,3c-0.2,3.5-0.2,5.1-1.5,5.1c-0.2,0-0.3,0-0.5-0.1
						c-1.7-0.3-2.1-1.9-2.1-1.9c-0.8-0.6-0.8-0.6-1.6-1.1c0,0,0.4,1,0,1c-0.1,0-0.3-0.1-0.6-0.3c-1.2-0.8-2.4-1.7-3.6-3.2
						c-1.2-1.5-2.3-3.1-3.3-8.7c-0.8-5.5-1.2-7.5,0-7.5h0c1.3,0,2.5,3.5,4,4.3c0.8,0.3,1.3,0.4,1.7,0.4c0.5,0,0.7-0.1,0.7-0.1
						s-2.2-4.7-2.5-7.1c-0.1-1.8-0.1-3,0.6-3c0.2,0,0.5,0.1,0.8,0.3c0.4,0.2,0.7,0.3,1,0.3c0.9,0,1.3-1.2,1-3.8
						c-0.3-3.6-1.3-5.1,0.1-6.4c1.2-1.2,2.4-4.2,3.3-4.4l-0.2,0.5c0,0,0.7,0.9,1.3,0.9c0.2,0,0.4-0.1,0.6-0.4
						c0.3-0.5,0.5-0.7,0.7-0.7c0.2,0,0.3,0.5,0.3,1.5c0.1,1.8,0.5,1.1,2.6,2.2c2.2,1,2.8,3.1,4,3.2c1.2,0,0.7-4.9,0.7-4.9
						s1.3,2.6,2,3.7c0.1,0.2,0.3,0.2,0.4,0.2c0.7,0,1.7-1.8,3.5-3.5c0.8-0.7,1.2-1,1.6-1c0.7,0,1,1,2.2,2.2c0.8,0.7,1.7,1.1,2.5,1.1
						c1.1,0,2.1-0.7,2.5-2.2c0.8-2.6,1.1-3.2,3.4-6.2c2.4-3.2,4.3-2,9.2-3.6c5.1-1.7,5-5.8,6.5-9c1.6-3.2-0.6-4.6,1.5-6.3
						c2.1-1.8,4.1,0.3,8.4-3.6c4.2-3.9,12.1-2.9,17.8-8c5.8-5.1-1.2-13.5-3.2-17.3c-2-3.8,1.2-9.2-0.6-13.3c-1.7-4-1.2-7.2-3.2-8.8
						c-2-1.4-6.3-1.2-8.6-2.8c-2.1-1.5-1.9-4.1-3.7-10.3c-1.3-4.4-3.8-6.1-5.5-6.1c-0.5,0-1,0.2-1.3,0.5c-0.2,0.2-0.4,0.3-0.5,0.3
						c-0.4,0,0.1-1.6,1.3-3.9c1.2-2.3,0.7-3.4-0.8-3.4c-0.4,0-0.9,0.1-1.5,0.3c-0.4,0.1-0.6,0.2-0.9,0.2c-1.5,0-1.2-2-0.9-2.8
						c0.1-0.2,0-0.3-0.1-0.3c-0.2,0-0.5,0.1-0.8,0.3c-0.3,0.1-0.7,0.3-0.9,0.3c-0.1,0-0.2,0-0.3-0.1c-0.8-0.2,1.2-2.2,1.8-3.3
						c0.6-1.1-0.3-3,0.7-4.1c1-1.1,3.5-3.8,2.7-4.2c-0.8-0.4-1-0.4,0.2-2c1.2-1.6,8.7-6.4,9-6.6l0,0c-0.3,0.1-5.1,1.5-7.9,3.6
						c-2.9,2.1-6,4.1-8.1,5.7c-2.1,1.6-5.4,6.1-5.3,7.8c0.2,1.7-0.9,2-3.8,5.4c-2.9,3.4-8.3,19.4-10.8,29.5
						c-2.2,10.6-1.2,10.6-4.7,14c-3.4,3.4-4.4,4.7-8.3,11.3c-3.7,6.5-6.3,17.5-6.1,18.5c0.1,1.1,0.2,2-0.5,3.9
						c-0.6,1.9,0,3.2,0.6,4.3c0.5,1.1,2,6.6,2.3,10.3c0.2,2.5-0.6,4.9-1.2,6.3c-0.1-1.5-0.2-4.3-0.6-4.3c-0.1,0-0.2,0.1-0.3,0.3
						c-0.7,1.5-1.6,2-3.4,4.2c-1.8,2.2-1.3,1.6-2.1,4.9c-0.7,3.2-1.7,2-3.5,3.8c-1.6,1.7-1.2,2.1-1.7,3.5c-0.5,1.3-4.8,0.7-4.9,4.3
						c0,0,0,0.1,0,0.1c-1.6-8.7-2.5-17.7-2.5-26.9c0-81,65.6-146.6,146.6-146.6s146.6,65.6,146.6,146.6c0,21.8-4.7,42.4-13.2,61
						c0.1-0.2,0.1-0.3,0.2-0.5l0.3-0.7c0.3-0.7,0.6-1.5,0.9-2.3l0.4-0.9c0.3-0.8,0.6-1.5,0.8-2.3l0.4-1.2c0.3-0.6,0.5-1.3,0.7-2
						l0.3-1c0.2-0.7,0.4-1.4,0.7-2.1c0.2-0.5,0.3-1,0.4-1.4c0.2-0.6,0.4-1.4,0.6-2c0.1-0.4,0.2-0.9,0.4-1.3c0.2-0.6,0.3-1.2,0.5-1.8
						c0.2-0.6,0.3-1.2,0.5-1.7c0.1-0.5,0.2-0.9,0.3-1.3c0.2-0.7,0.3-1.4,0.5-2.1l0.2-0.9c0.2-1,0.4-2,0.6-3l0.1-0.6
						c0.2-0.8,0.3-1.7,0.5-2.5l0.1-0.9l0.1-0.7l0-0.2c0.1-0.4,0.1-0.8,0.2-1.2v0l0-0.1v0l0.1-0.3c-0.1-0.7-0.1-1.6-0.2-2.6
						c-0.2-4-0.1-5.5,0.1-8.1c0.2-2.9,0-4.2,0.5-5.1c0.2-0.6,0.4-1.2,0.4-1.9v-0.3c0-0.3,0-0.6-0.1-0.8c-0.1-0.4-0.2-0.8-0.4-0.8
						c-0.2,0-0.5,0.6-0.8,2.3c-0.7,3.4-1.8,9-2.6,11.6c-0.8,2.6-2.2,6.7-2.4,10.5c-0.3,3-0.5,4.4-0.8,4.4c0,0-0.1-0.1-0.1-0.2
						c-0.3-0.6-0.4-2.1-0.4-2.1s-1.5,2.2-3.5,6c-2.2,3.7-1.2,3.3-3.4,4.3c-2.3,0.8-3.6,0.5-8.3,4.4c-5.1,4-6.1,5.3-7.9,6.6
						c-1.2,0.8-2.7,2.2-3.1,2.2c-0.2,0-0.1-0.4,0.6-1.6c1.9-3.2,3.8-4.9,5.1-7.5c0.9-2,1.7-3.3,2.2-3.3c0.2,0,0.4,0.2,0.5,0.7
						c0.2,0.7,0.8,1.1,1.6,1.1c1,0,2.3-0.7,3.4-2.3c1.7-2.8,2.6-4.6,1.4-7.4c-1.3-2.9-0.5-4.4-2.5-6.6c-2.1-2.1-4.2-3.6-4.2-3.6
						s-0.1,0.1-0.4,0.1c-0.6,0-1.7-0.2-3.4-1.4c-1.2-0.8-2.2-1.6-3.3-1.6c-1.4,0-2.9,1.5-4.9,6.3c-3.7,8.6-3,3-5.8,9
						c-2.9,5.9-3.7,9.4-5.9,12.5c-1.8,2.5-2.7,4.9-3.5,4.9c-0.2,0-0.4-0.2-0.7-0.6c-1.1-2,2.1-6.1,3.4-8.9c1.3-2.9,2.1-4,3.2-7.7
						c1.1-3.8,7.7-14.3,9.2-16.5c1.2-2,2.2-4.5,4.6-4.5c0.4,0,0.8,0.1,1.2,0.2c1.8,0.5,3.5,1.4,4.7,1.4c1,0,1.6-0.6,1.6-2.3
						c0-4-1.7-10-5.4-19c-4.1-9.5-8.3-16.8-8.8-22.3c-0.6-5.3-0.3-12.7-2.4-15.9c-2.1-3-5.9-4.8-8.1-8c-2.1-3.3-1.5-7.8-3.4-11.3
						c-1.9-3.5-2.5-1.5-3.8-4c-1.2-2.4-1.4-5.6-3.6-7.5c-2.3-2-4.8-6.8-10-8.8c-4.3-1.6-8.3-2-10.3-2c-0.5,0-0.9,0-1.1,0.1
						c-1,0.2-3-0.7-3.4,3.4c-0.3,4.3-4.2,9-4.6,12.9c-0.3,4.1-1.1,8.4-2.7,11.5c-1.6,3.1-2.2,9.6,0.5,14.2
						c2.7,4.7,2.7,17.6-1.1,22.9c-3.8,5.4-4.1,6.5-4,11.1c0.1,4.5,0.1,7.9-3.2,9.6c-1.2,0.6-2,0.7-2.8,0.7c-0.2,0-0.4,0-0.6,0
						c-0.2,0-0.4,0-0.6,0c-0.9,0-1.9,0.2-3.3,1.2c-1.9,1.4-3.2,2-4.6,2c-1,0-2-0.4-3.4-1.1c-1.9-1-6.5-2.5-11.6-2.5
						c-3.3,0-6.9,0.6-9.9,2.5c-7.6,4.6-14.5,9.5-15.7,15.6c-1.2,6,0.3,11.1,0.1,15.6c-0.2,4.5-3.1,10.1,3.3,16.7
						c6.3,6.4,11.5,6.8,11.6,11.1c-0.1,4.2-0.8,5.3,2.6,7c3.3,1.7,4.5,1.7,4.9,4c0.4,2.3,0.4,2.6,0.4,2.6s-1.1-0.5-2.3-0.5
						c-1.2,0-2.5,0.6-2.4,3.1c0.2,4.7-1.3,9.3,0.3,10.3c1.6,0.9,3.5,1.4,8.5,1.5c0.3,0,0.6,0,0.8,0h0.5h0.5c3.5,0,4.7,0.2,3.8,3.8
						c-1.1,4.1-3.5,3.1-4.5,4.6c-0.3,0.4-0.3,0.5-0.1,0.5c0.1,0,0.2,0,0.4,0c0.2,0,0.4,0,0.6,0c1,0,2.8,0.3,5.4,2
						c5.3,3.3,8,5.5,11.3,5.8c3.2,0.4,4.9,0.5,3.4,2.5c-1.5,2-2.3,2.1-0.7,2.7c1.5,0.6-1.7-0.4-3.4,2.7c-1.8,3-1.8,4.1,1.2,5.3
						c2.9,1.1,9,5.7,13.1,5.7c0.1,0,0.2,0,0.3,0c4-0.3,11.9-1.8,18-4.8c6.1-3.2,8-4.4,9.2-4.8c0.9-0.3,2.6-1.6,2.9-1.6
						c0.1,0,0.1,0.2-0.3,0.8c-0.9,1.3-1.4,2-1.1,2c0.1,0,0.3-0.1,0.7-0.3c1.2-0.7,1.2-2.1,2-2.1c0,0,0.1,0,0.1,0
						c0.9,0.1,1.7,0.5,1.7,0.5s1.9-0.1,3.4-0.8c1.6-0.8,1.4-0.4,2.4-1.1c0.6-0.4,1.7-0.9,2.5-1.1c-2.2,1.7-4.5,3.4-6.8,5.1
						c0.1-0.4,0.4-0.6,0.8-0.9c0.3-0.4,0.1-0.4,0.1-0.4h0c-0.3,0.1-3.2,1.2-3.7,1.7c-0.4,0.3-1.1,1.6-0.4,2
						c-23.1,15.2-50.8,24.1-80.6,24.1C1359.4,1465,1342.4,1461.8,1326.7,1456.1 M1374.3,1447.3c0.3,0.2,0.9,0.3,1.5,0.3
						c0.7,0,1.6-0.2,2.1-0.6c1-0.7,0.5-0.6,2.6-1.2c2-0.7-1.3-1.1-3.3-1.5c-1.7-0.4-2.8-1.2-5.3-1.2c-0.3,0-0.7,0-1.1,0.1
						c-3.2,0.2-4,2.5-4,2.5c0.2,0.1,0.9,1.5,1.9,1.7c0.1,0,0.2,0,0.3,0c0.7,0,1.2-0.5,3.1-0.9c0.4-0.1,0.8-0.2,1-0.2
						C1373.9,1446.3,1373.7,1446.9,1374.3,1447.3 M1390.4,1423.2c0,0,3,0.3,2.1,2.1c-0.9,1.8-0.7,0.4,0.5,2.5c1.2,2.1,2,1.3,0.7,2.9
						c-1.2,1.6-3.2,4.6-0.5,4.9c0.3,0,0.5,0,0.8,0c2.2,0,3.2-1.2,3.7-2.3c0.4-1.3,2.8-3.1,3.9-4c1-0.9,1.2-2.4,0.8-3.1
						c-0.5-0.7-1.9-2.2-3.9-2.2c-2-0.1-4.3-0.5-4.9-1.1c-0.2-0.2-0.5-0.2-0.8-0.2C1391.8,1422.7,1390.4,1423.2,1390.4,1423.2
						 M1382.3,1426.6c-1,0.3-0.5,1.5,0.5,2.9c0.9,1.3,1.2,0.7,2.4,1.5c0.4,0.3,0.6,0.5,0.9,0.5c0.4,0,1-0.4,2.3-1.2
						c2.2-1.3,0.7-2.1-1.3-3.4c-1.8-1.2-1.8-1.5-1.7-1.5C1385.1,1425.5,1383.3,1426.3,1382.3,1426.6 M1385.3,1425.4
						C1385.3,1425.4,1385.3,1425.4,1385.3,1425.4C1385.3,1425.4,1385.3,1425.4,1385.3,1425.4 M1290.7,1436.8c0-0.1,0-0.1,0-0.1
						c0-0.1,0.1-0.2,0.2-0.2c0.1,0,0.2,0,0.4,0.1c0.1,0,0.3,0.1,0.4,0.1c0.1,0,0.2,0,0.2-0.2c-0.2-0.7-0.2-1-0.2-1s3,1.3,2.8,2
						c0,0.8,0.1,1.6,1.3,2.6c1.2,1,1.4,0.6,2.4,1.7c0.1,0.1,0.3,0.3,0.3,0.4C1295.9,1440.4,1293.3,1438.7,1290.7,1436.8
						 M1431.6,1439.6c-0.6-1.1-2.8-0.2-4-1.1c-1.4-0.9,0.8-1.4,1.8-2.4c0.9-1,0.8-2.5-0.3-2.9c-1.1-0.3-1.9-0.1-2.4-1.3
						c-0.5-1.2-1.5-1.6-3.9-1.9c-0.1,0-0.3,0-0.4,0c-2.1,0-2.3,3.2-3.1,4.2c-0.6,0.9-1.1,0.9-1.8,0.9h-0.2c0,0-0.1,0-0.2,0
						c-0.1,0-0.2,0-0.4,0c-0.1,0-0.1,0-0.2,0c-1,0-1.2-0.6-0.8-1.2c0.2-0.3,0.3-0.4,0.5-0.4c0,0,0.1,0,0.1,0h0.1
						c0.3,0,0.7,0,1.6-0.3c1.9-0.6,1.9-3.7,2.2-4.5c0,0,2.2-0.2,5.2-0.6c3.1-0.4,5.5-0.3,7.9-0.5c0.1,0,0.3,0,0.4,0
						c1.8,0,0.1,1,1.3,2.2c1.1,1.3,1.7,0.5,2.2,1.1c0.5,0.6,0.4,1-0.8,2.7c-1.1,1.6-2.5,2.1-4,3.9c-1.4,1.7,1.3,1.4,2.3,2
						c0.9,0.7-0.2,0.7-1.8,1.4c-0.3,0.1-0.6,0.2-0.7,0.2C1431.8,1441.2,1432.1,1440.4,1431.6,1439.6 M1285.3,1432.6
						c0.3,0.2,0.7,0.4,1,0.8C1285.9,1433.2,1285.6,1432.9,1285.3,1432.6 M1425.8,1411.4c1.8-1.8,3.6-3.7,6.4-6
						c2.7-2.4,3.4-1.9,2.5-3.9c-1.1-2.1-2.1-2.8-1.9-3.3c0-0.1,0-0.1,0-0.1c-0.3,0-2.3,2-3.9,3.9c-1.9,2.2-4.5,5-6.5,5.9
						c-1.9,1-2.2,2.6-3.5,2.6c-0.1,0-0.2,0-0.4-0.1c-1.7-0.3-0.6-0.5-3.2-0.5c-1.7,0.1-3.5,0.8-5,0.8c-0.9,0-1.6-0.2-2-1
						c-1.2-2.1-3.9-3.5-5.4-4.6c-1.5-1.1-1.6-3.8-2-4.7c-0.3-0.9-2.8-2.7-3.6-3c-0.9-0.3-1.9-1.2-1.9-1.2s-0.5,0.4-1.1,0.4
						c-0.4,0-0.8-0.2-1.2-0.7c-0.9-1.3-1.4-2.2,0.2-2.2c0.1,0,0.2,0,0.4,0c0.4,0,0.9,0,1.4,0h0.1c2.1,0,4.6,0,5.9,1.3
						c1.3,1.3,1.5,1.8,5.2,1.8c1.1,0,2.6-0.1,4.4-0.1c0.7,0,1.4-0.1,2-0.1c1.7,0,3.1,0.1,4.3,0.2c1.2,0.1,2.2,0.2,3,0.2
						c1.5,0,2.4-0.4,3-1.8c1.1-3.2-1.3-6.4,2.1-6.9c3.3-0.5,4.5-2.1,7.7-4.1c2.5-1.5,3.6-3.1,5.1-3.1c0.4,0,0.8,0.1,1.3,0.4
						c2.3,1.2,0.8,4.2,2.9,4.2h0c2.1,0,4.1-1.3,7.7-2.7c2.7-1,8.5-2.9,12.1-2.9c1.2,0,2.2,0.2,2.7,0.7c2,1.9,4.2,4.1,2.8,7.4
						c-1,2.4-2.3,3.8-3,3.8c-0.2,0-0.4-0.1-0.5-0.5c-0.2-0.9-0.7-1.7-1.4-1.7c-0.4,0-0.8,0.2-1.4,0.8c-0.8,0.9-1.3,1.2-1.6,1.2
						c-0.3,0-0.5-0.3-0.8-0.5c-0.3-0.3-0.6-0.4-1-0.4c-0.6,0-1.2,0.3-1.7,0.7c-0.8,0.7-3.2,2.9-3.5,4.6c-0.4,1.8-1.6,1.4-2.7,3.1
						c-0.9,1.3-1.1,2.4-1.9,2.4c-0.2,0-0.4-0.1-0.7-0.2c-1.3-0.8-2.8,0.2-1.9-1.7c0.8-1.8,1.8-0.7,1.8-2.4c-0.1-1.7-1.8-2.3-1.7-3.5
						c0-0.2,0-0.2-0.1-0.2c-0.6,0-2.8,2.1-3.5,3.6c-0.9,1.6-4,5.4-4.7,7.1c-0.6,1.7-4.1,5.5-7.7,6.9c-1.8,0.7-3.1,1.1-3.6,1.1
						C1424.9,1412.6,1425,1412.2,1425.8,1411.4 M1451.6,1407.8c-0.6-2.4-0.5-5.9,1.5-5.9c0.1,0,0.2,0,0.3,0c1.4,0.3,2,0.8,3.3,0.8
						c0.8,0,1.8-0.2,3.3-0.9c3.9-1.7,2.6-3.1,6.6-3.3c0.6,0,1.1-0.1,1.6-0.1c2.6,0,3.5,0.6,1.6,3.1c-2.3,3-3.2,1.4-4.8,4.8
						c-1.3,2.5-1,4.1-1.7,4.1c-0.2,0-0.4-0.1-0.8-0.3c-1.7-1.1-0.7-2.3-1.5-3c-0.6-0.4-1-1.1-1.7-1.1c-0.3,0-0.7,0.2-1.2,0.8
						c-1.3,1.8-2,3.6-3.3,4c-1.2,0.3-1.3,0.3-1.3,0.3S1452.3,1410.3,1451.6,1407.8"/>
				</defs>
				<clipPath id="SVGID_00000024709446778146218930000011991306112765584538_">
					<use xlink:href="#SVGID_1_"  style="overflow:visible;"/>
				</clipPath>
				<g id="g154" style="clip-path:url(#SVGID_00000024709446778146218930000011991306112765584538_);">
					
						<radialGradient id="path166_00000154417416888271542080000004566642919751949243_" cx="-5932.8765" cy="-2761.3984" r="0.643" gradientTransform="matrix(30.4004 0 0 -30.4004 181738.9375 -82629.2656)" gradientUnits="userSpaceOnUse">
						<stop  offset="0" style="stop-color:#459DDC"/>
						<stop  offset="1" style="stop-color:#387CC8"/>
					</radialGradient>
					<path id="path166" style="fill:url(#path166_00000154417416888271542080000004566642919751949243_);" d="M1326.7,1456.1
						c0.5,0.1,1.1,0.3,1.9,0.6c3.6,1.1,6.1,1.2,7.1,1.2c0.4,0,0.5,0,0.5,0s-4.9-1.5-5.3-2.4c-0.1-0.3-0.1-0.4,0.2-0.4
						c0.5,0,1.8,0.5,4,1.3c3.7,1.3,24.6,4.2,32.1,4.5c4.2,0,6.1,0.2,7.2,0.2h0.2c0.8,0,1.2-0.1,2-0.4c1.8-0.6-0.3-0.8,1.5-0.8
						c0.3,0,0.6,0,1.1,0c3.1,0,4.5,0.1,5.7,0.1c0.2,0,0.3,0,0.5,0c1.4-0.1,2-0.8-1.7-1.1c-3.8-0.4-4-1-4.3-1.7
						c-0.1-0.7-1.7-1.5-4.7-2.5c-3.1-1-4.8-1.3-3.9-2.1c1.1-0.8-0.7-1.4-1.7-2.1c-1.1-0.6-0.2-1.7-6-2c-5.8-0.4-9.5-0.8-10.4-2
						c-1-1.3-3.5-0.6-6.4-1.5c-2.8-0.8-8.4-6.2-10.3-7.1c-1-0.5-2.8-1.3-4.4-1.3c-1.3,0-2.5,0.5-3.2,1.9c-1.6,3.1-2.3,5.5,1.3,7
						c3.6,1.5,5.5,1.5,3.3,2.8c-2.1,1.1-2,0.1-1,1.7c0.8,1.2,1.4,2-0.1,2c-0.4,0-1,0-1.7-0.2c-2.5-0.4-5.8-1.4-7.4-1.4
						c-0.5,0-0.8,0.1-0.9,0.4c-0.1,1,0.3,1.1,0.4,1.8c0.1,0.3,0,0.6-0.3,0.6c-0.3,0-0.8-0.2-1.6-0.7c-1.6-1-5.5-3.2-8.6-4.5
						c-3.1-1.3-5.7-2.2-4.7-2.5c0.8-0.2,0.4-1.4,2.2-1.4c0.4,0,0.8,0.1,1.4,0.2c1.3,0.2,2.2,0.3,2.9,0.3c1.1,0,1.3-0.3,0.5-1.1
						c-1.1-1-1.2-1.8,0.3-1.8c0.2,0,0.4,0,0.6,0c0.3,0,0.6,0.1,0.8,0.1c1.2,0,1-0.4,1-0.4s-1.3-1.5-3.9-2.1
						c-0.5-0.1-0.9-0.2-1.2-0.2c-0.5,0-0.9,0.1-1.1,0.2c-0.2,0.1-0.4,0.3-0.5,0.3c-0.1,0-0.2-0.1-0.3-0.3c-0.5-1-1.8-3.2-1.8-3.2
						c-1.3-0.8-1.3-0.8-2.7-1.7c-0.1-0.7-0.1-0.7-0.1-1.3c0,0-1.8-0.4-3.4-0.4c-1.1,0-2.1,0.2-2.1,1c0,1.6-0.1,2.3,2.6,3.8
						c2.9,1.5,4.5,1.9,2.7,2.3c-1.5,0.5-0.4,1.4-1.6,1.4h0c-1.4-0.1-3.9,0-6.2-2.4c-2.3-2.6-2.3-2.8-4.9-4.1c-2.8-1.4-4.3-1.9-3.2-2
						c1-0.2,2-0.7,2-0.7s-1.3-0.7-4.1-1.7c-2.7-1.1-3.1-0.3-5.9-2.4c-2.6-2.1-4.9-3.8-7.1-5.8c-2.1-1.9-2.9-2.8-1.7-3.3
						c1.4-0.5,3.3-1.5,3.3-2.3c0.1-0.6-0.1-3.7,0.3-3.7c0,0,0.1,0.2,0.3,0.5c0.6,2,3.3,5.2,5.4,6.6c2.1,1.3,4.7,2.8,4.6,4
						c-0.1,1.1-0.9,0.5,1,2.5c2,2,1.5,2.7,3.7,3.8c1.7,0.9,3.3,1.9,4.5,1.9c0.5,0,0.8-0.1,1.2-0.5c1.1-1.1,0.1-3,0.9-3
						c0.2,0,0.4,0.1,0.7,0.3c1.9,1,2.8,2.3,3.8,2.3c0.1,0,0.1,0,0.1,0c1.2-0.1,3.2,0.3,2.6-1.7c-0.5-2-1.7-3.9,1.4-4.9
						c3.2-1-0.1-4.4-0.5-5.4c-0.4-1-1.7-2.3-0.3-2.3c0,0,0.1,0,0.2,0c0,0,0.1,0,0.1,0c1.7,0,1.9-1.8,0.6-2.7c-1.3-0.9-3-2.1-5.3-2.1
						c-0.1,0-0.2,0-0.3,0c-2.5,0-3.3,1.2-1.1,3c1.9,1.5,4,4,3.1,4c-0.1,0-0.4-0.1-0.7-0.2c-2.3-1.1-2.5-3-7.3-3.5
						c-4.6-0.5-7.5-0.7-6.2-1.6c1.3-1,3.9-0.2,2.8-1.7c-0.8-1.3-2.2-4.3-0.9-4.3c0.3,0,0.6,0.1,1.2,0.4c0.8,0.4,1.4,0.6,1.7,0.6
						c1.1,0,0.6-1.4-1.3-2.2c-2.5-1-3.1-1-4.8-2.8c-0.6-0.7-1.1-0.9-1.5-0.9c-0.6,0-0.9,0.7-1.2,1.2c-0.1,0.2-0.3,0.4-0.7,0.4
						c-1.1,0-3.2-1.2-5.1-3.2c-2.3-2.6-1-3.5-3.3-5.3c-0.5-0.4-0.8-0.5-1.1-0.5c-0.4,0-0.6,0.2-0.8,0.4c-0.2,0.2-0.4,0.4-0.7,0.4
						c-0.2,0-0.6-0.2-1-0.7c-1.7-2-2.5-4.4-4.4-5.5c-1.8-1.2-2.1-2.7-1.6-3.7c0.6-0.9-1.4-2.7-4.1-5.2c-2.6-2.4-6.1-4.4-7-9.3
						c-0.9-5-1.7-9.2-1.7-9.2s-0.2-0.2-0.5-0.2c-0.5,0-1.2,0.5-1.3,3c-0.2,3.5-0.2,5.1-1.5,5.1c-0.2,0-0.3,0-0.5-0.1
						c-1.7-0.3-2.1-1.9-2.1-1.9c-0.8-0.6-0.8-0.6-1.6-1.1c0,0,0.4,1,0,1c-0.1,0-0.3-0.1-0.6-0.3c-1.2-0.8-2.4-1.7-3.6-3.2
						c-1.2-1.5-2.3-3.1-3.3-8.7c-0.8-5.5-1.2-7.5,0-7.5h0c1.3,0,2.5,3.5,4,4.3c0.8,0.3,1.3,0.4,1.7,0.4c0.5,0,0.7-0.1,0.7-0.1
						s-2.2-4.7-2.5-7.1c-0.1-1.8-0.1-3,0.6-3c0.2,0,0.5,0.1,0.8,0.3c0.4,0.2,0.7,0.3,1,0.3c0.9,0,1.3-1.2,1-3.8
						c-0.3-3.6-1.3-5.1,0.1-6.4c1.2-1.2,2.4-4.2,3.3-4.4l-0.2,0.5c0,0,0.7,0.9,1.3,0.9c0.2,0,0.4-0.1,0.6-0.4
						c0.3-0.5,0.5-0.7,0.7-0.7c0.2,0,0.3,0.5,0.3,1.5c0.1,1.8,0.5,1.1,2.6,2.2c2.2,1,2.8,3.1,4,3.2c1.2,0,0.7-4.9,0.7-4.9
						s1.3,2.6,2,3.7c0.1,0.2,0.3,0.2,0.4,0.2c0.7,0,1.7-1.8,3.5-3.5c0.8-0.7,1.2-1,1.6-1c0.7,0,1,1,2.2,2.2c0.8,0.7,1.7,1.1,2.5,1.1
						c1.1,0,2.1-0.7,2.5-2.2c0.8-2.6,1.1-3.2,3.4-6.2c2.4-3.2,4.3-2,9.2-3.6c5.1-1.7,5-5.8,6.5-9c1.6-3.2-0.6-4.6,1.5-6.3
						c2.1-1.8,4.1,0.3,8.4-3.6c4.2-3.9,12.1-2.9,17.8-8c5.8-5.1-1.2-13.5-3.2-17.3c-2-3.8,1.2-9.2-0.6-13.3c-1.7-4-1.2-7.2-3.2-8.8
						c-2-1.4-6.3-1.2-8.6-2.8c-2.1-1.5-1.9-4.1-3.7-10.3c-1.3-4.4-3.8-6.1-5.5-6.1c-0.5,0-1,0.2-1.3,0.5c-0.2,0.2-0.4,0.3-0.5,0.3
						c-0.4,0,0.1-1.6,1.3-3.9c1.2-2.3,0.7-3.4-0.8-3.4c-0.4,0-0.9,0.1-1.5,0.3c-0.4,0.1-0.6,0.2-0.9,0.2c-1.5,0-1.2-2-0.9-2.8
						c0.1-0.2,0-0.3-0.1-0.3c-0.2,0-0.5,0.1-0.8,0.3c-0.3,0.1-0.7,0.3-0.9,0.3c-0.1,0-0.2,0-0.3-0.1c-0.8-0.2,1.2-2.2,1.8-3.3
						c0.6-1.1-0.3-3,0.7-4.1c1-1.1,3.5-3.8,2.7-4.2c-0.8-0.4-1-0.4,0.2-2c1.2-1.6,8.7-6.4,9-6.6l0,0c-0.3,0.1-5.1,1.5-7.9,3.6
						c-2.9,2.1-6,4.1-8.1,5.7c-2.1,1.6-5.4,6.1-5.3,7.8c0.2,1.7-0.9,2-3.8,5.4c-2.9,3.4-8.3,19.4-10.8,29.5
						c-2.2,10.6-1.2,10.6-4.7,14c-3.4,3.4-4.4,4.7-8.3,11.3c-3.7,6.5-6.3,17.5-6.1,18.5c0.1,1.1,0.2,2-0.5,3.9
						c-0.6,1.9,0,3.2,0.6,4.3c0.5,1.1,2,6.6,2.3,10.3c0.2,2.5-0.6,4.9-1.2,6.3c-0.1-1.5-0.2-4.3-0.6-4.3c-0.1,0-0.2,0.1-0.3,0.3
						c-0.7,1.5-1.6,2-3.4,4.2c-1.8,2.2-1.3,1.6-2.1,4.9c-0.7,3.2-1.7,2-3.5,3.8c-1.6,1.7-1.2,2.1-1.7,3.5c-0.5,1.3-4.8,0.7-4.9,4.3
						c0,0,0,0.1,0,0.1c-1.6-8.7-2.5-17.7-2.5-26.9c0-81,65.6-146.6,146.6-146.6s146.6,65.6,146.6,146.6c0,21.8-4.7,42.4-13.2,61
						c0.1-0.2,0.1-0.3,0.2-0.5l0.3-0.7c0.3-0.7,0.6-1.5,0.9-2.3l0.4-0.9c0.3-0.8,0.6-1.5,0.8-2.3l0.4-1.2c0.3-0.6,0.5-1.3,0.7-2
						l0.3-1c0.2-0.7,0.4-1.4,0.7-2.1c0.2-0.5,0.3-1,0.4-1.4c0.2-0.6,0.4-1.4,0.6-2c0.1-0.4,0.2-0.9,0.4-1.3c0.2-0.6,0.3-1.2,0.5-1.8
						c0.2-0.6,0.3-1.2,0.5-1.7c0.1-0.5,0.2-0.9,0.3-1.3c0.2-0.7,0.3-1.4,0.5-2.1l0.2-0.9c0.2-1,0.4-2,0.6-3l0.1-0.6
						c0.2-0.8,0.3-1.7,0.5-2.5l0.1-0.9l0.1-0.7l0-0.2c0.1-0.4,0.1-0.8,0.2-1.2v0l0-0.1v0l0.1-0.3c-0.1-0.7-0.1-1.6-0.2-2.6
						c-0.2-4-0.1-5.5,0.1-8.1c0.2-2.9,0-4.2,0.5-5.1c0.2-0.6,0.4-1.2,0.4-1.9v-0.3c0-0.3,0-0.6-0.1-0.8c-0.1-0.4-0.2-0.8-0.4-0.8
						c-0.2,0-0.5,0.6-0.8,2.3c-0.7,3.4-1.8,9-2.6,11.6c-0.8,2.6-2.2,6.7-2.4,10.5c-0.3,3-0.5,4.4-0.8,4.4c0,0-0.1-0.1-0.1-0.2
						c-0.3-0.6-0.4-2.1-0.4-2.1s-1.5,2.2-3.5,6c-2.2,3.7-1.2,3.3-3.4,4.3c-2.3,0.8-3.6,0.5-8.3,4.4c-5.1,4-6.1,5.3-7.9,6.6
						c-1.2,0.8-2.7,2.2-3.1,2.2c-0.2,0-0.1-0.4,0.6-1.6c1.9-3.2,3.8-4.9,5.1-7.5c0.9-2,1.7-3.3,2.2-3.3c0.2,0,0.4,0.2,0.5,0.7
						c0.2,0.7,0.8,1.1,1.6,1.1c1,0,2.3-0.7,3.4-2.3c1.7-2.8,2.6-4.6,1.4-7.4c-1.3-2.9-0.5-4.4-2.5-6.6c-2.1-2.1-4.2-3.6-4.2-3.6
						s-0.1,0.1-0.4,0.1c-0.6,0-1.7-0.2-3.4-1.4c-1.2-0.8-2.2-1.6-3.3-1.6c-1.4,0-2.9,1.5-4.9,6.3c-3.7,8.6-3,3-5.8,9
						c-2.9,5.9-3.7,9.4-5.9,12.5c-1.8,2.5-2.7,4.9-3.5,4.9c-0.2,0-0.4-0.2-0.7-0.6c-1.1-2,2.1-6.1,3.4-8.9c1.3-2.9,2.1-4,3.2-7.7
						c1.1-3.8,7.7-14.3,9.2-16.5c1.2-2,2.2-4.5,4.6-4.5c0.4,0,0.8,0.1,1.2,0.2c1.8,0.5,3.5,1.4,4.7,1.4c1,0,1.6-0.6,1.6-2.3
						c0-4-1.7-10-5.4-19c-4.1-9.5-8.3-16.8-8.8-22.3c-0.6-5.3-0.3-12.7-2.4-15.9c-2.1-3-5.9-4.8-8.1-8c-2.1-3.3-1.5-7.8-3.4-11.3
						c-1.9-3.5-2.5-1.5-3.8-4c-1.2-2.4-1.4-5.6-3.6-7.5c-2.3-2-4.8-6.8-10-8.8c-4.3-1.6-8.3-2-10.3-2c-0.5,0-0.9,0-1.1,0.1
						c-1,0.2-3-0.7-3.4,3.4c-0.3,4.3-4.2,9-4.6,12.9c-0.3,4.1-1.1,8.4-2.7,11.5c-1.6,3.1-2.2,9.6,0.5,14.2
						c2.7,4.7,2.7,17.6-1.1,22.9c-3.8,5.4-4.1,6.5-4,11.1c0.1,4.5,0.1,7.9-3.2,9.6c-1.2,0.6-2,0.7-2.8,0.7c-0.2,0-0.4,0-0.6,0
						c-0.2,0-0.4,0-0.6,0c-0.9,0-1.9,0.2-3.3,1.2c-1.9,1.4-3.2,2-4.6,2c-1,0-2-0.4-3.4-1.1c-1.9-1-6.5-2.5-11.6-2.5
						c-3.3,0-6.9,0.6-9.9,2.5c-7.6,4.6-14.5,9.5-15.7,15.6c-1.2,6,0.3,11.1,0.1,15.6c-0.2,4.5-3.1,10.1,3.3,16.7
						c6.3,6.4,11.5,6.8,11.6,11.1c-0.1,4.2-0.8,5.3,2.6,7c3.3,1.7,4.5,1.7,4.9,4c0.4,2.3,0.4,2.6,0.4,2.6s-1.1-0.5-2.3-0.5
						c-1.2,0-2.5,0.6-2.4,3.1c0.2,4.7-1.3,9.3,0.3,10.3c1.6,0.9,3.5,1.4,8.5,1.5c0.3,0,0.6,0,0.8,0h0.5h0.5c3.5,0,4.7,0.2,3.8,3.8
						c-1.1,4.1-3.5,3.1-4.5,4.6c-0.3,0.4-0.3,0.5-0.1,0.5c0.1,0,0.2,0,0.4,0c0.2,0,0.4,0,0.6,0c1,0,2.8,0.3,5.4,2
						c5.3,3.3,8,5.5,11.3,5.8c3.2,0.4,4.9,0.5,3.4,2.5c-1.5,2-2.3,2.1-0.7,2.7c1.5,0.6-1.7-0.4-3.4,2.7c-1.8,3-1.8,4.1,1.2,5.3
						c2.9,1.1,9,5.7,13.1,5.7c0.1,0,0.2,0,0.3,0c4-0.3,11.9-1.8,18-4.8c6.1-3.2,8-4.4,9.2-4.8c0.9-0.3,2.6-1.6,2.9-1.6
						c0.1,0,0.1,0.2-0.3,0.8c-0.9,1.3-1.4,2-1.1,2c0.1,0,0.3-0.1,0.7-0.3c1.2-0.7,1.2-2.1,2-2.1c0,0,0.1,0,0.1,0
						c0.9,0.1,1.7,0.5,1.7,0.5s1.9-0.1,3.4-0.8c1.6-0.8,1.4-0.4,2.4-1.1c0.6-0.4,1.7-0.9,2.5-1.1c-2.2,1.7-4.5,3.4-6.8,5.1
						c0.1-0.4,0.4-0.6,0.8-0.9c0.3-0.4,0.1-0.4,0.1-0.4h0c-0.3,0.1-3.2,1.2-3.7,1.7c-0.4,0.3-1.1,1.6-0.4,2
						c-23.1,15.2-50.8,24.1-80.6,24.1C1359.4,1465,1342.4,1461.8,1326.7,1456.1 M1374.3,1447.3c0.3,0.2,0.9,0.3,1.5,0.3
						c0.7,0,1.6-0.2,2.1-0.6c1-0.7,0.5-0.6,2.6-1.2c2-0.7-1.3-1.1-3.3-1.5c-1.7-0.4-2.8-1.2-5.3-1.2c-0.3,0-0.7,0-1.1,0.1
						c-3.2,0.2-4,2.5-4,2.5c0.2,0.1,0.9,1.5,1.9,1.7c0.1,0,0.2,0,0.3,0c0.7,0,1.2-0.5,3.1-0.9c0.4-0.1,0.8-0.2,1-0.2
						C1373.9,1446.3,1373.7,1446.9,1374.3,1447.3 M1390.4,1423.2c0,0,3,0.3,2.1,2.1c-0.9,1.8-0.7,0.4,0.5,2.5c1.2,2.1,2,1.3,0.7,2.9
						c-1.2,1.6-3.2,4.6-0.5,4.9c0.3,0,0.5,0,0.8,0c2.2,0,3.2-1.2,3.7-2.3c0.4-1.3,2.8-3.1,3.9-4c1-0.9,1.2-2.4,0.8-3.1
						c-0.5-0.7-1.9-2.2-3.9-2.2c-2-0.1-4.3-0.5-4.9-1.1c-0.2-0.2-0.5-0.2-0.8-0.2C1391.8,1422.7,1390.4,1423.2,1390.4,1423.2
						 M1382.3,1426.6c-1,0.3-0.5,1.5,0.5,2.9c0.9,1.3,1.2,0.7,2.4,1.5c0.4,0.3,0.6,0.5,0.9,0.5c0.4,0,1-0.4,2.3-1.2
						c2.2-1.3,0.7-2.1-1.3-3.4c-1.8-1.2-1.8-1.5-1.7-1.5C1385.1,1425.5,1383.3,1426.3,1382.3,1426.6 M1385.3,1425.4
						C1385.3,1425.4,1385.3,1425.4,1385.3,1425.4C1385.3,1425.4,1385.3,1425.4,1385.3,1425.4 M1290.7,1436.8c0-0.1,0-0.1,0-0.1
						c0-0.1,0.1-0.2,0.2-0.2c0.1,0,0.2,0,0.4,0.1c0.1,0,0.3,0.1,0.4,0.1c0.1,0,0.2,0,0.2-0.2c-0.2-0.7-0.2-1-0.2-1s3,1.3,2.8,2
						c0,0.8,0.1,1.6,1.3,2.6c1.2,1,1.4,0.6,2.4,1.7c0.1,0.1,0.3,0.3,0.3,0.4C1295.9,1440.4,1293.3,1438.7,1290.7,1436.8
						 M1431.6,1439.6c-0.6-1.1-2.8-0.2-4-1.1c-1.4-0.9,0.8-1.4,1.8-2.4c0.9-1,0.8-2.5-0.3-2.9c-1.1-0.3-1.9-0.1-2.4-1.3
						c-0.5-1.2-1.5-1.6-3.9-1.9c-0.1,0-0.3,0-0.4,0c-2.1,0-2.3,3.2-3.1,4.2c-0.6,0.9-1.1,0.9-1.8,0.9h-0.2c0,0-0.1,0-0.2,0
						c-0.1,0-0.2,0-0.4,0c-0.1,0-0.1,0-0.2,0c-1,0-1.2-0.6-0.8-1.2c0.2-0.3,0.3-0.4,0.5-0.4c0,0,0.1,0,0.1,0h0.1
						c0.3,0,0.7,0,1.6-0.3c1.9-0.6,1.9-3.7,2.2-4.5c0,0,2.2-0.2,5.2-0.6c3.1-0.4,5.5-0.3,7.9-0.5c0.1,0,0.3,0,0.4,0
						c1.8,0,0.1,1,1.3,2.2c1.1,1.3,1.7,0.5,2.2,1.1c0.5,0.6,0.4,1-0.8,2.7c-1.1,1.6-2.5,2.1-4,3.9c-1.4,1.7,1.3,1.4,2.3,2
						c0.9,0.7-0.2,0.7-1.8,1.4c-0.3,0.1-0.6,0.2-0.7,0.2C1431.8,1441.2,1432.1,1440.4,1431.6,1439.6 M1285.3,1432.6
						c0.3,0.2,0.7,0.4,1,0.8C1285.9,1433.2,1285.6,1432.9,1285.3,1432.6 M1425.8,1411.4c1.8-1.8,3.6-3.7,6.4-6
						c2.7-2.4,3.4-1.9,2.5-3.9c-1.1-2.1-2.1-2.8-1.9-3.3c0-0.1,0-0.1,0-0.1c-0.3,0-2.3,2-3.9,3.9c-1.9,2.2-4.5,5-6.5,5.9
						c-1.9,1-2.2,2.6-3.5,2.6c-0.1,0-0.2,0-0.4-0.1c-1.7-0.3-0.6-0.5-3.2-0.5c-1.7,0.1-3.5,0.8-5,0.8c-0.9,0-1.6-0.2-2-1
						c-1.2-2.1-3.9-3.5-5.4-4.6c-1.5-1.1-1.6-3.8-2-4.7c-0.3-0.9-2.8-2.7-3.6-3c-0.9-0.3-1.9-1.2-1.9-1.2s-0.5,0.4-1.1,0.4
						c-0.4,0-0.8-0.2-1.2-0.7c-0.9-1.3-1.4-2.2,0.2-2.2c0.1,0,0.2,0,0.4,0c0.4,0,0.9,0,1.4,0h0.1c2.1,0,4.6,0,5.9,1.3
						c1.3,1.3,1.5,1.8,5.2,1.8c1.1,0,2.6-0.1,4.4-0.1c0.7,0,1.4-0.1,2-0.1c1.7,0,3.1,0.1,4.3,0.2c1.2,0.1,2.2,0.2,3,0.2
						c1.5,0,2.4-0.4,3-1.8c1.1-3.2-1.3-6.4,2.1-6.9c3.3-0.5,4.5-2.1,7.7-4.1c2.5-1.5,3.6-3.1,5.1-3.1c0.4,0,0.8,0.1,1.3,0.4
						c2.3,1.2,0.8,4.2,2.9,4.2h0c2.1,0,4.1-1.3,7.7-2.7c2.7-1,8.5-2.9,12.1-2.9c1.2,0,2.2,0.2,2.7,0.7c2,1.9,4.2,4.1,2.8,7.4
						c-1,2.4-2.3,3.8-3,3.8c-0.2,0-0.4-0.1-0.5-0.5c-0.2-0.9-0.7-1.7-1.4-1.7c-0.4,0-0.8,0.2-1.4,0.8c-0.8,0.9-1.3,1.2-1.6,1.2
						c-0.3,0-0.5-0.3-0.8-0.5c-0.3-0.3-0.6-0.4-1-0.4c-0.6,0-1.2,0.3-1.7,0.7c-0.8,0.7-3.2,2.9-3.5,4.6c-0.4,1.8-1.6,1.4-2.7,3.1
						c-0.9,1.3-1.1,2.4-1.9,2.4c-0.2,0-0.4-0.1-0.7-0.2c-1.3-0.8-2.8,0.2-1.9-1.7c0.8-1.8,1.8-0.7,1.8-2.4c-0.1-1.7-1.8-2.3-1.7-3.5
						c0-0.2,0-0.2-0.1-0.2c-0.6,0-2.8,2.1-3.5,3.6c-0.9,1.6-4,5.4-4.7,7.1c-0.6,1.7-4.1,5.5-7.7,6.9c-1.8,0.7-3.1,1.1-3.6,1.1
						C1424.9,1412.6,1425,1412.2,1425.8,1411.4 M1451.6,1407.8c-0.6-2.4-0.5-5.9,1.5-5.9c0.1,0,0.2,0,0.3,0c1.4,0.3,2,0.8,3.3,0.8
						c0.8,0,1.8-0.2,3.3-0.9c3.9-1.7,2.6-3.1,6.6-3.3c0.6,0,1.1-0.1,1.6-0.1c2.6,0,3.5,0.6,1.6,3.1c-2.3,3-3.2,1.4-4.8,4.8
						c-1.3,2.5-1,4.1-1.7,4.1c-0.2,0-0.4-0.1-0.8-0.3c-1.7-1.1-0.7-2.3-1.5-3c-0.6-0.4-1-1.1-1.7-1.1c-0.3,0-0.7,0.2-1.2,0.8
						c-1.3,1.8-2,3.6-3.3,4c-1.2,0.3-1.3,0.3-1.3,0.3S1452.3,1410.3,1451.6,1407.8"/>
				</g>
			</g>
		</g>
		<path id="path168" class="st1" d="M1615.1,1373.8l-21.7,33.1v-33.1h-7.1v47h6.5l21.7-33v33h7.1v-47H1615.1"/>
		<path id="path170" class="st1" d="M1649.8,1410.2l-7.3-20.9h14.5L1649.8,1410.2z M1662.2,1373.8l-3.2,9.4h-18.5l-3.2-9.4h-7.6
			l17.2,47h5.7l17.2-47H1662.2"/>
		<path id="path172" class="st1" d="M1689.2,1414.4v-40.6h-7.1v40.6h-12.9v6.4h33v-6.4H1689.2"/>
		<path id="path174" class="st1" d="M1710.8,1373.8v47h7.1v-47H1710.8"/>
		<path id="path176" class="st1" d="M1752.5,1411.9c-1.7,1.8-4.2,2.9-7,2.9c-2.8,0-5.4-1.1-7-2.9c-2.3-2.5-2.8-5.2-2.8-14.6
			s0.5-12.1,2.8-14.6c1.6-1.8,4.2-2.9,7-2.9c2.8,0,5.3,1.1,7,2.9c2.3,2.5,2.8,5.1,2.8,14.6S1754.8,1409.4,1752.5,1411.9z
			 M1757.9,1378.5c-3.2-3.2-7.4-5-12.4-5c-5,0-9.1,1.8-12.3,5c-4.6,4.6-4.6,9.8-4.6,18.9s-0.1,14.3,4.6,18.9c3.2,3.2,7.3,5,12.3,5
			c5,0,9.2-1.8,12.4-5c4.6-4.6,4.5-9.8,4.5-18.9C1762.4,1388.3,1762.6,1383.1,1757.9,1378.5"/>
		<path id="path178" class="st1" d="M1801.9,1373.8l-21.7,33.1v-33.1h-7.1v47h6.5l21.7-33v33h7.1v-47H1801.9"/>
		<path id="path180" class="st1" d="M1836.7,1410.2l-7.3-20.9h14.5L1836.7,1410.2z M1849,1373.8l-3.2,9.4h-18.5l-3.2-9.4h-7.6
			l17.2,47h5.7l17.2-47H1849"/>
		<path id="path182" class="st1" d="M1864.6,1373.8v47h7.1v-40.6h22.6v-6.4H1864.6"/>
		<path id="path184" class="st1" d="M1903,1373.8v47h30v-6.4h-22.9v-13.7h19.5v-6.3h-19.5v-14.1h22.9v-6.4L1903,1373.8"/>
		<path id="path186" class="st1" d="M1614.5,1294.7l-13.2,23.2l-7.9-9.5v-13.7h-7.1v47h7.1V1318l19.2,23.6h8.7l-15.3-18.4l16.8-28.6
			H1614.5"/>
		<path id="path188" class="st1" d="M1630.9,1294.7v47h7.1v-40.6h22.6v-6.4H1630.9"/>
		<path id="path190" class="st1" d="M1669.3,1294.7v47h7.1v-47H1669.3"/>
		<path id="path192" class="st1" d="M1722.7,1294.7v31.4l-10.8-22.9h-5.3l-11.1,22.9v-31.4h-7.1v47h7.1l13.7-29.2l13.5,29.2h7.1v-47
			H1722.7"/>
		<path id="path194" class="st1" d="M1758.1,1331l-7.3-20.9h14.4L1758.1,1331z M1770.4,1294.7l-3.2,9.4h-18.5l-3.2-9.4h-7.6l17.2,47
			h5.7l17.2-47H1770.4"/>
		<path id="path196" class="st1" d="M1799.6,1294.3c-7.1,0-12.1,1.6-16.6,6.2l4.8,4.7c3.4-3.4,7.2-4.5,12-4.5c6.1,0,9.7,2.6,9.7,7.2
			c0,2-0.6,3.8-1.8,4.9c-1.2,1.1-2.4,1.6-5.2,2l-5.5,0.8c-3.8,0.5-6.9,1.9-8.9,3.8c-2.3,2.2-3.4,5.2-3.4,9c0,8.2,5.9,13.8,15.7,13.8
			c6.2,0,10.6-1.6,14.6-5.3l-4.6-4.5c-2.9,2.8-6.3,3.6-10.2,3.6c-5.5,0-8.6-3.2-8.6-7.3c0-1.7,0.5-3.2,1.8-4.4
			c1.2-1,3.1-1.8,5.3-2.2l5.3-0.8c4.4-0.7,6.8-1.7,8.8-3.5c2.6-2.2,3.8-5.6,3.8-9.6C1816.5,1299.4,1809.5,1294.3,1799.6,1294.3"/>
		<path id="path198" class="st1" d="M1841.9,1294.3c-4.9,0-9.1,1.8-12.3,5c-4.6,4.6-4.6,9.8-4.6,18.9c0,9-0.1,14.3,4.6,18.9
			c3.2,3.2,7.5,5,12.3,5c8.6,0,15.1-5.1,16.8-14.5h-7.3c-1.1,4.8-4.3,8.1-9.5,8.1c-2.8,0-5.3-1.1-6.9-2.8c-2.3-2.5-2.8-5.2-2.8-14.6
			c0-9.4,0.5-12.1,2.8-14.7c1.7-1.8,4.2-2.8,6.9-2.8c5.2,0,8.4,3.3,9.6,8.1h7.2C1857.1,1299.3,1850.4,1294.3,1841.9,1294.3"/>
		<path id="path200" class="st1" d="M1894.2,1294.7v20.5h-19.1v-20.5h-7.1v47h7.1v-20.1h19.1v20.1h7.1v-47H1894.2"/>
		<path id="path202" class="st1" d="M1929.8,1294.3c-9.6,0-16.8,6.5-16.8,16.2v31.1h7.1v-30.8c0-6.3,3.8-10.2,9.7-10.2
			c5.9,0,9.8,3.9,9.8,10.2v30.8h7.1v-31.1C1946.7,1300.8,1939.4,1294.3,1929.8,1294.3"/>
		<path id="path204" class="st1" d="M1975.1,1335.2v-40.6h-7.1v40.6H1955v6.4h33v-6.4H1975.1"/>
		<path id="path206" class="st1" d="M1994.7,1294.7v6.1l21.7,34.5h-20.8v6.4h29.2v-5.8l-21.9-34.8h21.9v-6.4H1994.7"/>
		<path id="path208" class="st1" d="M1586.2,1215.5v47h7.1v-47H1586.2"/>
		<path id="path210" class="st1" d="M1634.2,1215.5l-21.7,33.1v-33.1h-7.1v47h6.5l21.7-33v33h7.1v-47H1634.2"/>
		<path id="path212" class="st1" d="M1652.8,1215.5v47h7.1v-47H1652.8"/>
		<path id="path214" class="st1" d="M1688.6,1256.1v-40.6h-7.1v40.6h-12.9v6.4h33v-6.4H1688.6"/>
		<path id="path216" class="st1" d="M1710.2,1215.5v47h7.1v-47H1710.2"/>
		<path id="path218" class="st1" d="M1745.4,1251.8l-7.3-20.9h14.5L1745.4,1251.8z M1757.8,1215.5l-3.2,9.4H1736l-3.2-9.4h-7.6
			l17.2,47h5.7l17.2-47H1757.8"/>
		<path id="path220" class="st1" d="M1784.9,1256.1v-40.6h-7.1v40.6h-12.9v6.4h33v-6.4H1784.9"/>
		<path id="path222" class="st1" d="M1806.5,1215.5v47h7.1v-47H1806.5"/>
		<path id="path224" class="st1" d="M1842.3,1215.5h-5.5l-15.4,47h7.4l10.8-34.2l10.8,34.2h7.5L1842.3,1215.5"/>
		<path id="path226" class="st1" d="M1865.7,1215.5v47h30v-6.4h-22.9v-13.7h19.5v-6.3h-19.5v-14.1h22.9v-6.4H1865.7"/>
	</g>
</g>
</svg>
