<?xml version="1.0" encoding="utf-8"?>
<!-- Generator: Adobe Illustrator 27.8.0, SVG Export Plug-In . SVG Version: 6.00 Build 0)  -->
<svg version="1.1" id="Ebene_1" xmlns="http://www.w3.org/2000/svg" xmlns:xlink="http://www.w3.org/1999/xlink" x="0px" y="0px"
	 width="390px" height="875px" viewBox="0 0 390 875" style="enable-background:new 0 0 390 875;" xml:space="preserve">
<style type="text/css">
	.st0{clip-path:url(#SVGID_00000020392607418771974050000013142148042028726692_);fill:#253081;}
</style>
<g>
	<defs>
		<rect id="SVGID_1_" width="390" height="875"/>
	</defs>
	<clipPath id="SVGID_00000162333097545870403000000002719636824738055839_">
		<use xlink:href="#SVGID_1_"  style="overflow:visible;"/>
	</clipPath>
	<path style="clip-path:url(#SVGID_00000162333097545870403000000002719636824738055839_);fill:#253081;" d="M-414,135.9l24.5-4.8
		l0.6,2.9l-24.5,4.8L-414,135.9z M-364.9,126.3l24.5-4.8l0.6,2.9l-24.5,4.8L-364.9,126.3z M-315.8,116.8l24.5-4.8l0.6,2.9l-24.5,4.8
		L-315.8,116.8z M-266.8,107.3l24.5-4.8l0.6,2.9l-24.5,4.8L-266.8,107.3z M-217.7,97.7l24.5-4.8l0.6,2.9l-24.5,4.8L-217.7,97.7z
		 M-168.6,88.2l24.5-4.8l0.6,2.9l-24.5,4.8L-168.6,88.2z M-119.5,78.6l24.5-4.8l0.6,2.9l-24.5,4.8L-119.5,78.6z M-70.4,69.1
		l24.5-4.8l0.6,2.9L-69.9,72L-70.4,69.1z M-21.3,59.6l24.5-4.8l0.6,2.9l-24.5,4.8L-21.3,59.6z M27.7,50l24.5-4.8l0.6,2.9L28.3,53
		L27.7,50z M76.8,40.5l24.5-4.8l0.6,2.9l-24.5,4.8L76.8,40.5z M125.9,30.9l24.5-4.8l0.6,2.9l-24.5,4.8L125.9,30.9z M175,21.4
		l24.5-4.8l0.6,2.9l-24.5,4.8L175,21.4z M224.1,11.8l24.5-4.8l0.6,2.9l-24.5,4.8L224.1,11.8z M273.1,2.3c1.9-0.2,3.8,0.3,5.7,1.3
		l0,0l0.2,0.1l0,0l0,0l0,0l0.1,0.1l0,0l0,0l0,0l0,0l0,0l0,0l0,0l0,0l0,0l0,0l0,0l0,0l0,0l0,0l0,0l0,0l0,0l0,0l0,0l0,0l0,0l0,0l0,0
		l0,0l0,0l0,0l0,0l0,0l0,0l0,0l0,0l0,0l0,0l0,0l0,0l0,0l0,0l0,0l0.1,0l0,0l0,0l0,0l0,0l0,0l0.1,0l0,0l0,0l0,0l0,0l0,0l0,0l0,0
		l0.1,0.1l0,0c0.9,0.6,1.8,1.4,2.6,2.2c2.9,3,5.4,7.3,7,12.5l-2.9,0.9c-1.4-4.6-3.7-8.6-6.3-11.3c-2.3-2.4-4.7-3.5-6.8-3.3
		L273.1,2.3z M291.6,44l2.9-0.6l4.8,24.5l-2.9,0.6L291.6,44z M301.1,93.1l2.9-0.6l4.8,24.5l-2.9,0.6L301.1,93.1z M310.7,142.2
		l2.9-0.6l4.8,24.5l-2.9,0.6L310.7,142.2z M320.2,191.3l2.9-0.6l4.8,24.5l-2.9,0.6L320.2,191.3z M329.7,240.3l2.9-0.6l4.8,24.5
		l-2.9,0.6L329.7,240.3z M339.3,289.4l2.9-0.6l4.8,24.5L344,314L339.3,289.4z M348.8,338.5l2.9-0.6l4.8,24.5l-2.9,0.6L348.8,338.5z
		 M358.4,387.6l2.9-0.6l4.8,24.5l-2.9,0.6L358.4,387.6z M367.9,436.7l2.9-0.6l4.8,24.5l-2.9,0.6L367.9,436.7z M377.4,485.7l2.9-0.6
		l4.8,24.5l-2.9,0.6L377.4,485.7z M387,534.8l2.9-0.6l4.8,24.5l-2.9,0.6L387,534.8z M396.5,583.9l2.9-0.6l4.8,24.5l-2.9,0.6
		L396.5,583.9z M406.1,633l2.9-0.6l4.8,24.5l-2.9,0.6L406.1,633z M415.6,682.1l2.9-0.6l4.8,24.5l-2.9,0.6L415.6,682.1z M425.1,731.2
		l2.9-0.6l4.8,24.5l-2.9,0.6L425.1,731.2z M434.7,780.2l2.9-0.6l4.8,24.5l-2.9,0.6L434.7,780.2z M444.2,829.3l2.9-0.6l2.7,14l0,0
		l0,0l0,0l0,0l0,0l0,0l0,0l0,0l0,0l0,0l0,0l0,0l0,0l0,0l0,0l0,0l0,0l0,0l0,0l0,0l0,0l0,0l0,0l0,0l0,0l0,0l0,0l0,0l0,0l0,0l0,0l0,0
		l0,0l0,0l0,0l0,0l0,0l0,0l0,0l0,0l0,0l0,0l0,0l0,0l0,0l0,0l0,0l0,0l0,0l0,0l0,0l0,0l0,0l0,0l0,0l0,0l0,0.1l0,0l0,0l0,0l0,0l0,0l0,0
		l0,0l0,0l0,0l0,0l0,0l0,0l0,0l0,0.1l0,0l0,0l0,0l0,0l0,0l0,0l0,0l0,0l0,0l0,0.1l0,0l0,0l0,0l0,0l0,0l0,0l0,0l0,0l0,0l0,0.2l0,0l0,0
		l0,0l0,0h0l0,0.2l0,0l0,0l0,0l0,0l0,0c0.4,2.8,0.4,5.5,0.2,8l-3-0.2c0.2-3.2,0-6.5-0.6-9.9L444.2,829.3z M410.7,872l24.5-4.8
		l0.6,2.9l-24.5,4.8L410.7,872z M361.6,881.6l24.5-4.8l0.6,2.9l-24.5,4.8L361.6,881.6z M312.6,891.1l24.5-4.8l0.6,2.9l-24.5,4.8
		L312.6,891.1z M263.5,900.7l24.5-4.8l0.6,2.9l-24.5,4.8L263.5,900.7z M214.4,910.2l24.5-4.8l0.6,2.9l-24.5,4.8L214.4,910.2z
		 M165.3,919.7l24.5-4.8l0.6,2.9l-24.5,4.8L165.3,919.7z M116.2,929.3l24.5-4.8l0.6,2.9l-24.5,4.8L116.2,929.3z M67.1,938.8
		l24.5-4.8l0.6,2.9l-24.5,4.8L67.1,938.8z M18.1,948.4l24.5-4.8l0.6,2.9l-24.5,4.8L18.1,948.4z M-31,957.9l24.5-4.8l0.6,2.9
		l-24.5,4.8L-31,957.9z M-80.1,967.5l24.5-4.8l0.6,2.9l-24.5,4.8L-80.1,967.5z M-129.2,977l24.5-4.8l0.6,2.9l-24.5,4.8L-129.2,977z
		 M-178.3,986.5l24.5-4.8l0.6,2.9l-24.5,4.8L-178.3,986.5z M-227.3,996.1l24.5-4.8l0.6,2.9l-24.5,4.8L-227.3,996.1z M-263.8,981
		l2.9-0.6l0.1,0.4c0.9,4.4,2.4,8.5,4.5,11.8c1.9,3,4.1,5.3,6.4,6.4l-1.3,2.7c-0.5-0.2-1-0.5-1.4-0.8l0,0l0,0l0,0l0,0l0,0l0,0l0,0
		l0,0l0,0l0,0l0,0l0,0l0,0l0,0l0,0l0,0l0,0l0,0l0,0l0,0l0,0l0,0l0,0l0,0l0,0l0,0l0,0l0,0l0,0l0,0l0,0l0,0c-2.1-1.5-4-3.7-5.7-6.4
		c-1.5-2.5-2.8-5.4-3.8-8.6l0,0l0-0.1l0,0l0-0.1l0,0l0-0.1l0,0l0-0.1l0,0l0-0.1l0,0l0-0.1l0,0l0-0.1l0,0l0-0.1l0,0l0-0.1l0,0l0-0.1
		l0,0l0-0.1l0,0l0-0.1l0,0l0-0.1l0,0l0-0.1l0,0l0-0.1l0,0l0-0.1l0,0l0-0.1l0,0l0-0.1l0,0l0-0.1l0,0l0,0l0,0l0-0.1l0,0l0,0l0,0l0,0
		l0,0l0,0l0,0l0,0l0,0l0,0l0,0l0,0l0,0l0,0l0,0l0-0.1l0,0l0,0l0,0l0-0.1l0,0l0,0l0,0l0-0.1l0,0l0,0l0,0l0,0l0,0l0,0l0,0l0-0.1l0,0
		l0,0l0,0l0-0.1l0,0l0,0l0,0l0-0.1l0,0l0,0l0,0l0,0l0,0l0,0l0,0l0,0l0,0l0,0l0,0l0,0l0,0l0,0l0,0l0-0.1l0,0l0,0l0,0l0,0l0,0l0,0l0,0
		l0,0l0,0l0,0l0,0l0-0.1l0,0l0,0l0,0l0-0.1l0,0l0,0l0,0l0-0.1L-263.8,981z M-273.3,931.9l2.9-0.6l4.8,24.5l-2.9,0.6L-273.3,931.9z
		 M-282.8,882.9l2.9-0.6l4.8,24.5l-2.9,0.6L-282.8,882.9z M-292.4,833.8l2.9-0.6l4.8,24.5l-2.9,0.6L-292.4,833.8z M-301.9,784.7
		l2.9-0.6l4.8,24.5l-2.9,0.6L-301.9,784.7z M-311.5,735.6l2.9-0.6l4.8,24.5l-2.9,0.6L-311.5,735.6z M-321,686.5l2.9-0.6l4.8,24.5
		l-2.9,0.6L-321,686.5z M-330.5,637.4l2.9-0.6l4.8,24.5l-2.9,0.6L-330.5,637.4z M-340.1,588.4l2.9-0.6l4.8,24.5l-2.9,0.6
		L-340.1,588.4z M-349.6,539.3l2.9-0.6l4.8,24.5l-2.9,0.6L-349.6,539.3z M-359.2,490.2l2.9-0.6l4.8,24.5l-2.9,0.6L-359.2,490.2z
		 M-368.7,441.1l2.9-0.6l4.8,24.5l-2.9,0.6L-368.7,441.1z M-378.2,392l2.9-0.6l4.8,24.5l-2.9,0.6L-378.2,392z M-387.8,343l2.9-0.6
		l4.8,24.5l-2.9,0.6L-387.8,343z M-397.3,293.9l2.9-0.6l4.8,24.5l-2.9,0.6L-397.3,293.9z M-406.9,244.8l2.9-0.6l4.8,24.5l-2.9,0.6
		L-406.9,244.8z M-416.4,195.7l2.9-0.6l4.8,24.5l-2.9,0.6L-416.4,195.7z M-422.7,146.5l2.9,0.7c-1.1,4.3-1.1,9.4-0.1,14.6l1.7,8.8
		l-2.9,0.6l-1.7-8.8l0,0l0,0l0,0l0,0l0,0l0,0l0,0l0,0l0,0l0,0l0,0l0,0l0,0l0,0l0,0l0,0l0,0l0,0l0,0l0,0l0,0l0,0l0,0l0,0l0,0l0,0l0,0
		l0,0l0,0l0,0l0,0l0,0l0,0l0,0l0,0l0,0l0,0l0,0l0,0l0,0l0,0l0,0l0,0l0,0l0,0l0,0l0,0l0,0l0,0l0,0l0,0l0,0l0,0l0,0l0,0l0,0l0,0l0,0
		l0,0l0,0l0,0l0,0l0,0l0,0l0,0l0,0l0,0l0,0l0,0l0,0l0,0l0,0l0,0l0,0l0,0l0,0l0,0l0,0l0,0l0,0l0,0l0,0l0,0l0,0l0,0l0,0l0,0l0,0l0,0
		l0-0.1l0,0l0,0l0,0l0,0l0,0l0,0l0,0l0,0l0,0l0,0l0,0l0-0.1l0,0l0,0l0,0l0,0l0,0l0,0l0,0l0,0l0,0l0,0l0,0l0-0.2l0,0l0,0l0,0l0,0l0,0
		l0-0.2l0,0l0,0l0,0l0,0l0,0l0,0l0,0l0-0.2l0,0l0-0.1l0,0l0,0l0,0l0-0.2l0,0C-423.9,154.5-423.7,150.1-422.7,146.5z"/>
	
		<path id="Rechteck_327_00000122694609678284934440000006746133164459552669_" style="clip-path:url(#SVGID_00000162333097545870403000000002719636824738055839_);fill:#253081;" d="
		M-267.8,151.4l617.4-120c13.6-2.6,26.7,6.2,29.3,19.8l153.8,791c2.6,13.6-6.2,26.7-19.8,29.3l-617.4,120
		c-13.6,2.6-26.7-6.2-29.3-19.8l-153.8-791C-290.2,167.2-281.3,154-267.8,151.4z"/>
</g>
</svg>
