<?xml version="1.0" encoding="utf-8"?>
<!-- Generator: Adobe Illustrator 16.0.0, SVG Export Plug-In . SVG Version: 6.00 Build 0)  -->
<!DOCTYPE svg PUBLIC "-//W3C//DTD SVG 1.1//EN" "http://www.w3.org/Graphics/SVG/1.1/DTD/svg11.dtd">
<svg version="1.1" id="Layer_1" xmlns="http://www.w3.org/2000/svg" xmlns:xlink="http://www.w3.org/1999/xlink" x="0px" y="0px"
	 width="1920px" height="790px" viewBox="0 0 1920 790" enable-background="new 0 0 1920 790" xml:space="preserve">
<g id="Group_3789" transform="translate(296.342 -4404.18)">
	<g id="Group_3788">
		<g id="gestrichelte_Linie" transform="translate(-296.342 4806.787) rotate(-11)">
			<path fill="none" d="M-248.632-62.66l2030.001,0c22.09,0,39.999,10.892,39.999,24.328l0.001,834.353
				c0,13.436-17.91,24.329-40,24.328l-2030.001-0.001c-22.091,0.002-40-10.891-40-24.327l0-834.353
				C-288.632-51.768-270.723-62.661-248.632-62.66z"/>
			<path fill="#202974" d="M-248.632-62.66l25,0l0,3l-25,0L-248.632-62.66L-248.632-62.66z M-198.632-62.66l25,0l0,2.999l-25,0
				L-198.632-62.66z M-148.632-62.66l25,0l0,3l-25,0L-148.632-62.66z M-98.632-62.66l25,0l0,3l-25-0.001L-98.632-62.66z
				 M-48.632-62.661l25,0.001l0,2.999l-25,0L-48.632-62.661z M1.368-62.66l25,0l0,3l-25-0.001L1.368-62.66z M51.368-62.66l25,0
				l0,2.999l-25,0L51.368-62.66z M101.368-62.66l25,0l0,3l-24.999,0L101.368-62.66z M151.368-62.66l25,0l0,3l-25-0.001
				L151.368-62.66z M201.368-62.661l25,0l0,3l-24.999,0L201.368-62.661z M251.367-62.66l25,0l0,3l-24.999,0L251.367-62.66z
				 M301.368-62.66l25,0l0,3l-25,0L301.368-62.66z M351.368-62.66l25,0l0,3l-25,0L351.368-62.66z M401.368-62.66l25,0l0,3l-24.999,0
				L401.368-62.66z M451.368-62.66l25,0l0,3l-25,0L451.368-62.66z M501.368-62.661l25,0l0,3l-25,0L501.368-62.661z M551.368-62.66
				l25,0l0,3l-24.999,0L551.368-62.66z M601.368-62.66l24.999,0l0.001,3.001l-25,0L601.368-62.66z M651.368-62.66l25,0l0,3l-25,0
				L651.368-62.66z M701.368-62.66l25,0l0,3l-25,0L701.368-62.66z M751.368-62.66l24.999,0l0.001,3l-25,0L751.368-62.66z
				 M801.368-62.66l25,0l0,3l-25,0L801.368-62.66z M851.368-62.66l25,0l0,3l-25,0L851.368-62.66z M901.369-62.66l24.999,0l0,3
				l-24.999,0L901.369-62.66z M951.368-62.66l25,0l0,3l-25,0L951.368-62.66z M1001.368-62.66l25,0l0,3l-25,0L1001.368-62.66z
				 M1051.369-62.66l24.999,0l0,3l-24.999,0L1051.369-62.66z M1101.368-62.66l24.999,0l0.001,3l-25,0L1101.368-62.66z
				 M1151.368-62.661l25,0l0,3l-25,0L1151.368-62.661z M1201.369-62.66l24.999,0l0,3l-24.999,0L1201.369-62.66z M1251.369-62.66
				l24.999,0l0,3l-25,0L1251.369-62.66z M1301.368-62.66l25,0l0,3l-25,0L1301.368-62.66z M1351.369-62.66l24.999,0l0,3l-24.999,0
				L1351.369-62.66z M1401.369-62.66l24.999,0l0,3l-24.999,0L1401.369-62.66z M1451.368-62.66l25,0l0,3l-25,0L1451.368-62.66z
				 M1501.369-62.66l24.999,0l0,3l-24.999,0L1501.369-62.66z M1551.368-62.66l25,0l0,3l-24.999,0L1551.368-62.66z M1601.368-62.66
				l25,0l0,3l-25,0L1601.368-62.66z M1651.368-62.66l25,0l0,3l-24.999,0L1651.368-62.66z M1701.368-62.66l25,0l0,3l-24.999,0
				L1701.368-62.66z M1751.369-62.66l25,0l0,3l-25,0L1751.369-62.66z M1801.03-59.523c3.833,1.318,7.274,3.011,10.187,4.996
				c0,0,0.002,0.001,0.002,0.002c0.013,0.009,0.026,0.017,0.038,0.025c0.001,0.001,0.002,0.001,0.002,0.002
				c0.012,0.008,0.023,0.015,0.035,0.024c0.003,0.002,0.005,0.004,0.008,0.006c0.01,0.007,0.022,0.015,0.031,0.021
				c0.003,0.002,0.007,0.004,0.01,0.006c0.011,0.008,0.02,0.014,0.031,0.021c0.004,0.002,0.007,0.004,0.01,0.006
				c0.01,0.008,0.021,0.015,0.031,0.022c0.003,0.001,0.004,0.003,0.007,0.004c0.01,0.008,0.022,0.016,0.033,0.023
				c0.003,0.002,0.005,0.003,0.006,0.005c0.011,0.008,0.023,0.015,0.033,0.023c0.002,0.001,0.003,0.003,0.005,0.004
				c0.012,0.009,0.023,0.016,0.035,0.024c0.002,0.001,0.003,0.003,0.005,0.004c0.01,0.007,0.023,0.016,0.033,0.023
				c0.004,0.002,0.005,0.003,0.009,0.006c0.01,0.008,0.021,0.015,0.031,0.022c0.003,0.002,0.004,0.003,0.007,0.005
				c0.075,0.052,0.149,0.105,0.224,0.158c0.002,0.001,0.004,0.002,0.005,0.003c0.007,0.005,0.014,0.01,0.021,0.016
				c0.007,0.005,0.013,0.009,0.019,0.014c0.005,0.004,0.009,0.006,0.014,0.01c0.009,0.007,0.017,0.013,0.026,0.019
				c0.003,0.003,0.009,0.006,0.012,0.009c0.009,0.006,0.019,0.014,0.028,0.02c0.004,0.002,0.007,0.005,0.011,0.007
				c0.01,0.007,0.019,0.014,0.03,0.022c0.004,0.002,0.007,0.005,0.01,0.007c0.01,0.007,0.021,0.015,0.031,0.022
				c0.003,0.003,0.005,0.003,0.008,0.005c0.01,0.008,0.021,0.016,0.031,0.023c0.004,0.002,0.006,0.005,0.01,0.007
				c0.01,0.008,0.021,0.015,0.031,0.023c0.002,0.001,0.003,0.003,0.006,0.005c0.011,0.008,0.023,0.016,0.034,0.025
				c0.002,0.001,0.003,0.003,0.005,0.004c0.012,0.009,0.025,0.018,0.037,0.027l0,0c0.013,0.01,0.026,0.019,0.038,0.028
				c0.001,0,0.002,0.001,0.003,0.001c0.013,0.01,0.025,0.019,0.038,0.028l0.001,0.001c0.012,0.009,0.024,0.018,0.036,0.027
				c0.002,0,0.004,0.002,0.004,0.003c0.026,0.019,0.051,0.038,0.077,0.057c0.001,0.001,0.001,0.001,0.002,0.001
				c3.569,2.668,6.228,5.805,7.687,9.236l-2.761,1.173c-2.366-5.564-8.665-10.456-17.281-13.419L1801.03-59.523z M1818.368-19.614
				l3.001,0l-0.001,25l-3,0L1818.368-19.614z M1818.369,30.386l3,0l0,25l-3.001,0L1818.369,30.386z M1818.368,80.386l3,0l0,25l-3,0
				L1818.368,80.386z M1818.368,130.386l3,0l0,25l-3.001,0L1818.368,130.386z M1818.369,180.386l3,0l-0.001,25l-3,0
				L1818.369,180.386z M1818.368,230.386l3,0l0,25l-3,0L1818.368,230.386z M1818.368,280.386l3.001-0.001l0,25l-3,0
				L1818.368,280.386z M1818.368,330.386l3,0l0,24.999l-3,0.001L1818.368,330.386z M1818.369,380.386l2.999,0l0,25l-3,0
				L1818.369,380.386z M1818.368,430.387l3-0.001l0,25h-3L1818.368,430.387z M1818.368,480.386l3,0l0,25l-3,0L1818.368,480.386z
				 M1818.369,530.386l3,0l-0.001,25l-3,0L1818.369,530.386z M1818.368,580.387l3.001-0.001l0,24.999l-3,0L1818.368,580.387z
				 M1818.368,630.385l3,0l0,25l-3,0L1818.368,630.385z M1818.368,680.386l3,0l-0.001,25l-3,0L1818.368,680.386z M1818.368,730.385
				l3,0l0,25l-3,0L1818.368,730.385z M1818.369,780.386h2.999l0.001,15.635l0,0c0,0.012-0.001,0.026,0,0.038c0,0.006,0,0.01,0,0.014
				c-0.001,0.008-0.001,0.016-0.001,0.024c0,0.006,0,0.012,0,0.018c-0.001,0.008-0.001,0.014-0.001,0.02c0,0.006,0,0.012,0,0.018
				c0.001,0.006,0,0.014,0,0.022c0.001,0.004,0,0.01,0.001,0.016c0,0.006-0.001,0.016-0.001,0.022c0,0.004,0.001,0.01,0,0.016
				c0.001,0.006,0,0.016,0,0.022c0.001,0.006,0,0.012,0,0.016c-0.001,0.008,0,0.016,0,0.022c0,0.006,0,0.012,0,0.016
				c0,0.008-0.001,0.016,0,0.024c0,0.004,0,0.01,0,0.016c0,0.008-0.001,0.014-0.001,0.022c0.001,0.004,0,0.01,0,0.016
				c0,0.006,0,0.016,0,0.022s0,0.012,0,0.016c0,0.008-0.001,0.018-0.001,0.026c-0.001,0.004,0,0.008,0,0.012
				c-0.001,0.008,0,0.018-0.001,0.028c0,0.004,0,0.008,0,0.01c-0.001,0.026-0.002,0.051-0.003,0.075c0,0.006,0,0.01-0.001,0.014
				c0,0.008,0,0.018-0.001,0.026c0.001,0.004,0,0.01,0,0.016c0,0.006-0.001,0.014-0.001,0.02c-0.001,0.008-0.001,0.014-0.001,0.02
				c0,0.006,0,0.012-0.001,0.02c0,0.006,0,0.012-0.001,0.018c0.001,0.006,0,0.012,0,0.02c-0.001,0.006-0.001,0.012-0.001,0.018
				s-0.001,0.014-0.001,0.02c0,0.006,0,0.012-0.001,0.02c-0.001,0.004,0,0.012-0.001,0.018c0,0.006,0,0.012-0.001,0.02
				c0,0.006,0,0.012-0.001,0.02c0,0.006,0,0.01-0.001,0.016c0,0.008-0.001,0.016-0.001,0.022c0,0.006,0,0.01,0,0.016
				c0,0.008-0.001,0.016-0.002,0.025c0,0.004,0,0.008,0,0.012c0,0.008-0.001,0.016-0.002,0.024c-0.001,0.006,0,0.01-0.001,0.016
				c0,0.008-0.001,0.014-0.001,0.022c0,0.006-0.001,0.01-0.001,0.016c-0.002,0.014-0.002,0.024-0.002,0.037
				c-0.001,0.004-0.001,0.006,0,0.008c-0.001,0.01-0.002,0.02-0.003,0.029c0,0.006,0,0.01-0.001,0.014
				c0,0.008-0.001,0.016-0.001,0.024c0,0.006-0.001,0.012-0.002,0.018c0,0.008-0.001,0.014-0.001,0.02
				c-0.001,0.006-0.001,0.012-0.001,0.018c-0.001,0.006-0.002,0.014-0.002,0.02c0,0.008-0.001,0.014-0.002,0.02
				c0,0.006,0,0.012-0.001,0.018c0,0.008-0.001,0.014-0.002,0.021c0,0.004,0,0.01-0.001,0.016c0,0.008-0.001,0.014-0.001,0.022
				c-0.001,0.006-0.001,0.01-0.002,0.014c-0.001,0.008-0.001,0.016-0.002,0.024c0,0.004-0.001,0.01-0.001,0.016
				c-0.001,0.008-0.002,0.014-0.002,0.021c0,0.006-0.001,0.01-0.002,0.016c0,0.006-0.001,0.014-0.001,0.022
				c-0.001,0.006-0.001,0.01-0.002,0.014c0,0.008-0.001,0.016-0.002,0.024c-0.001,0.006-0.001,0.01-0.002,0.016
				c0,0.006-0.001,0.014-0.002,0.021c0,0.006,0,0.012-0.001,0.018c-0.003,0.029-0.005,0.059-0.009,0.088c0,0.002,0,0.002,0,0.004
				c0,0.008-0.002,0.016-0.003,0.025c-0.001,0.004,0,0.008-0.002,0.014c0,0.006-0.001,0.014-0.002,0.021
				c-0.001,0.006-0.001,0.01-0.002,0.014c0,0.008-0.002,0.016-0.002,0.024c-0.001,0.006-0.002,0.01-0.003,0.015
				c0,0.006-0.001,0.014-0.002,0.021c0,0.004-0.001,0.01-0.002,0.014c-0.001,0.008-0.002,0.016-0.003,0.023
				c0,0.006-0.001,0.01-0.002,0.016c0,0.006-0.001,0.014-0.002,0.021c-0.001,0.006-0.001,0.01-0.002,0.014
				c-0.001,0.008-0.002,0.017-0.003,0.025c0,0.002-0.001,0.008-0.001,0.01c-0.002,0.01-0.002,0.017-0.003,0.027
				c0,0.002-0.001,0.006-0.002,0.008c-0.001,0.01-0.002,0.02-0.004,0.029c0,0.002,0,0.002,0,0.004
				c-0.007,0.058-0.016,0.116-0.023,0.175c0,0,0,0,0,0.002c-0.002,0.01-0.003,0.021-0.004,0.031c0,0.002-0.001,0.004-0.001,0.006
				c-0.002,0.01-0.003,0.019-0.005,0.029c0,0.004,0,0.004,0,0.006c-0.002,0.01-0.004,0.019-0.005,0.029
				c-0.001,0.004-0.001,0.006,0,0.008c-0.002,0.01-0.004,0.019-0.005,0.029c-0.001,0.004-0.001,0.006-0.001,0.008
				c-0.001,0.01-0.003,0.019-0.005,0.029c0,0.002,0,0.006,0,0.008c-0.002,0.01-0.003,0.019-0.005,0.029
				c0,0.002-0.001,0.004-0.001,0.006c-0.001,0.01-0.002,0.021-0.004,0.031c0,0.002-0.001,0.004-0.001,0.006
				c-0.002,0.01-0.004,0.021-0.005,0.031l0,0c-0.344,2.182-1.159,4.279-2.386,6.253c-0.002,0.004-0.003,0.005-0.003,0.007
				c-0.006,0.009-0.01,0.016-0.014,0.023c-0.003,0.004-0.005,0.007-0.007,0.011c-0.004,0.007-0.007,0.012-0.012,0.02
				c-0.004,0.005-0.007,0.011-0.01,0.016c-0.003,0.005-0.006,0.009-0.009,0.014c-0.004,0.007-0.008,0.012-0.014,0.021
				c-0.002,0.004-0.004,0.007-0.007,0.013c-0.004,0.007-0.009,0.014-0.013,0.021c-0.003,0.003-0.005,0.007-0.007,0.01
				c-0.006,0.009-0.01,0.016-0.016,0.025c-0.003,0.004-0.003,0.005-0.005,0.007c-0.009,0.014-0.018,0.03-0.027,0.044l-2.526-1.619
				c1.487-2.321,2.241-4.747,2.241-7.211L1818.369,780.386z M1797.278,815.24l0.81,2.889c-1.271,0.356-2.578,0.673-3.917,0.948
				c-0.002,0-0.003,0-0.006,0.001c-0.019,0.004-0.038,0.009-0.056,0.011c-0.002,0.001-0.003,0.001-0.006,0.001
				c-0.017,0.005-0.034,0.007-0.052,0.012c-0.004,0.001-0.008,0.002-0.014,0.003c-0.017,0.003-0.035,0.007-0.053,0.01
				c-0.001,0-0.006,0.001-0.006,0.001c-0.018,0.005-0.035,0.007-0.052,0.012c-0.004-0.001-0.008,0-0.012,0.002
				c-0.082,0.016-0.163,0.032-0.245,0.048c-0.009,0.002-0.019,0.004-0.028,0.006c-0.011,0.002-0.021,0.004-0.033,0.005
				c-0.009,0.002-0.021,0.006-0.03,0.006c-0.009,0.002-0.02,0.004-0.03,0.006c-0.01,0.002-0.022,0.004-0.033,0.008
				c-0.008,0-0.017,0.002-0.027,0.005c-0.012,0.002-0.026,0.005-0.039,0.006c-0.005,0.003-0.011,0.004-0.017,0.005
				c-0.015,0.003-0.03,0.004-0.044,0.007c-0.005,0.001-0.011,0.002-0.016,0.003c-0.015,0.003-0.029,0.006-0.044,0.009
				c-0.005,0.001-0.009,0.002-0.015,0.003c-0.016,0.003-0.031,0.006-0.047,0.009c-0.004,0.001-0.007,0.001-0.01,0.002
				c-2.816,0.531-5.764,0.881-8.809,1.021c-0.022,0-0.042,0.002-0.064,0.002c-0.022,0.002-0.041,0.002-0.063,0.004
				c-0.001,0-0.002,0-0.004-0.001c-0.207,0.01-0.419,0.018-0.628,0.025c-0.02,0.002-0.041,0.002-0.062,0.002
				c-0.022,0.002-0.042,0.002-0.064,0.003c-0.021,0-0.04,0-0.062,0.002c-0.022,0-0.042,0.002-0.064,0.001
				c-0.022,0.002-0.046,0.001-0.067,0.003c-0.023,0-0.045,0.001-0.067,0.001c-0.023,0.001-0.044,0.001-0.066,0.003
				c-0.022,0-0.044,0.001-0.065,0.001c-0.003-0.001-0.004-0.001-0.007,0.001c-0.06,0-0.123,0.002-0.183,0.004
				c-0.017,0.001-0.033,0-0.049,0c-0.021,0.002-0.042,0.002-0.062,0.002c-0.022,0-0.044,0.001-0.065,0.001
				c-0.023,0.001-0.045,0.001-0.067,0.001c-0.022,0.002-0.044,0.001-0.065,0.001c-0.023,0.001-0.046,0.001-0.069,0.003
				c-0.021,0-0.043,0-0.065,0.001c-0.023,0-0.046,0.001-0.069,0.001c-0.02,0-0.043,0.002-0.063,0.002c-0.022,0-0.047,0.001-0.069,0
				c-0.022,0-0.044,0.001-0.067,0.001c-0.033,0-0.067,0.001-0.101,0c-0.021,0.002-0.044,0.001-0.066,0.001
				c-0.022,0-0.044,0.001-0.066,0.001c-0.023,0-0.046,0.001-0.068,0.001s-0.044,0-0.065,0.001c-0.021,0-0.043,0-0.064,0
				c-0.022,0-0.047,0.001-0.069,0s-0.046,0.001-0.068,0.001c-0.024-0.001-0.045-0.001-0.069,0.001c-0.023,0-0.046-0.001-0.068-0.001
				c-0.023,0.001-0.044,0.001-0.066,0.001c-0.024-0.001-0.046-0.001-0.07,0c-0.022,0-0.044,0-0.065-0.001l-8.084,0l0-3l8.083,0.001
				C1786.93,817.349,1792.283,816.641,1797.278,815.24z M1723.285,817.35l25,0.001l0,2.999l-25.001,0.001L1723.285,817.35z
				 M1673.286,817.35l25-0.001l0,3l-25-0.001L1673.286,817.35z M1623.285,817.349l25,0.001l0,3l-24.999-0.001L1623.285,817.349z
				 M1573.285,817.349l25,0.001v2.998l-25,0.001L1573.285,817.349z M1523.286,817.35l25.001-0.001l0,3l-25.001,0.001
				L1523.286,817.35z M1473.285,817.349l25,0.001l0,3l-24.999-0.001L1473.285,817.349z M1423.285,817.349l25,0.001l0,3l-24.999,0
				L1423.285,817.349z M1373.286,817.35l25-0.001l0,3l-25,0.001L1373.286,817.35z M1323.285,817.35l25-0.001l0,3l-24.999-0.001
				L1323.285,817.35z M1273.285,817.349l25,0.001l0,3l-24.999-0.001L1273.285,817.349z M1223.285,817.35l25,0.001v2.998l-25,0.001
				L1223.285,817.35z M1173.285,817.35l25.001-0.001l0,3l-24.999,0L1173.285,817.35z M1123.286,817.349l24.999,0l0,3l-24.999,0
				L1123.286,817.349z M1073.285,817.349l25,0.001l0,3l-25-0.001L1073.285,817.349z M1023.286,817.35l25-0.001l0,3l-25,0.001
				L1023.286,817.35z M973.286,817.35l25-0.001l0,3l-24.999,0L973.286,817.35z M923.285,817.349l25,0.001l0,3l-25-0.001
				L923.285,817.349z M873.286,817.35l24.999,0.001l0.001,2.999l-25.001,0.001L873.286,817.35z M823.286,817.35l25-0.001l0,3
				l-24.999-0.001L823.286,817.35z M773.285,817.349l25,0.001l0,3l-25-0.001L773.285,817.349z M723.285,817.349l25,0.001l0,3
				l-25-0.001L723.285,817.349z M673.286,817.35l25-0.001l0.001,3l-25.001,0.001L673.286,817.35z M623.285,817.35l25.001-0.001l0,3
				l-25-0.001L623.285,817.35z M573.285,817.349l25,0.001l0,3l-25-0.001L573.285,817.349z M523.286,817.35l24.999,0l0.001,2.999
				l-25.001,0.001L523.286,817.35z M473.285,817.35l25.001-0.001l0,3l-25-0.001L473.285,817.35z M423.285,817.349l25,0.001l0,3
				l-25-0.001L423.285,817.349z M373.286,817.349l24.999,0.001l0.001,2.999l-25.001,0.001L373.286,817.349z M323.285,817.35
				l25.001-0.001l0,3l-25.001,0.001L323.285,817.35z M273.285,817.349l25,0.001l0,3l-25-0.001L273.285,817.349z M223.285,817.349
				l25,0.001l0,3l-25-0.001L223.285,817.349z M173.285,817.35l25,0.001l0,2.999l-25,0.001L173.285,817.35z M123.285,817.35
				l25.001-0.001l0,3l-25-0.001L123.285,817.35z M73.285,817.349l25,0.001l0,3l-25-0.001L73.285,817.349z M23.285,817.349l25,0.001
				l0,2.998l-25,0.001L23.285,817.349z M-26.715,817.35l25.001-0.001l0,3l-25.001,0.001L-26.715,817.35z M-76.715,817.349l25,0.001
				l0,3l-25-0.001L-76.715,817.349z M-126.715,817.349l25,0.001l0,3l-25-0.001L-126.715,817.349z M-176.715,817.35l25,0.001l0,2.999
				l-25,0.001L-176.715,817.35z M-226.715,817.35l25-0.001l0,3.001l-25-0.001L-226.715,817.35z M-274.214,811.327
				c3.026,1.691,6.473,3.059,10.246,4.071c3.921,1.051,8.091,1.684,12.393,1.884l-0.138,2.997c-3.87-0.179-7.584-0.694-11.068-1.495
				c-0.002,0-0.005-0.001-0.008-0.001c-0.055-0.013-0.109-0.025-0.164-0.038c-0.007-0.001-0.013-0.005-0.02-0.006
				c-0.029-0.005-0.055-0.012-0.083-0.018c-0.01-0.004-0.02-0.006-0.03-0.008c-0.024-0.007-0.048-0.011-0.071-0.018
				c-0.011-0.002-0.023-0.005-0.034-0.007c-0.014-0.005-0.031-0.008-0.045-0.011c-0.021-0.006-0.042-0.01-0.063-0.016
				c-0.012-0.002-0.023-0.005-0.035-0.009c-0.016-0.003-0.031-0.006-0.046-0.011c-0.017-0.003-0.033-0.006-0.049-0.012
				c-0.018-0.004-0.036-0.009-0.054-0.013c-0.012-0.002-0.021-0.006-0.033-0.008c-0.023-0.007-0.047-0.011-0.07-0.018
				c-0.01-0.002-0.02-0.004-0.03-0.006c-0.022-0.006-0.045-0.013-0.068-0.017c-0.007-0.001-0.014-0.005-0.022-0.006
				c-0.025-0.005-0.049-0.011-0.074-0.018c-0.007-0.001-0.012-0.002-0.019-0.004c-0.027-0.007-0.054-0.015-0.081-0.022
				c-0.006-0.001-0.012-0.002-0.018-0.004c-0.028-0.007-0.056-0.015-0.084-0.022c-0.002,0-0.005-0.001-0.008-0.001
				c-0.029-0.008-0.058-0.015-0.087-0.021c-0.001,0-0.003-0.001-0.003-0.003c-0.031-0.006-0.061-0.014-0.092-0.022
				c-0.002,0-0.003-0.001-0.005-0.003c-0.19-0.047-0.379-0.097-0.568-0.148c-4.038-1.081-7.726-2.558-10.932-4.349L-274.214,811.327
				z M-288.632,769.22l3,0l0,25l-3,0L-288.632,769.22z M-288.632,719.219l3,0l0,25l-3,0L-288.632,719.219z M-288.632,669.221l3,0
				l0,25l-3,0L-288.632,669.221z M-288.632,619.22l3,0l0,25l-3,0L-288.632,619.22z M-288.632,569.219l3,0l0,25l-3,0
				L-288.632,569.219z M-288.632,519.221l3,0l0,25l-3,0L-288.632,519.221z M-288.632,469.22l3,0l0,25l-3,0L-288.632,469.22z
				 M-288.632,419.221l3-0.002l0,25l-3,0L-288.632,419.221z M-288.632,369.22l3,0l0,25l-3,0L-288.632,369.22z M-288.632,319.22l3,0
				l0,25l-3,0L-288.632,319.22z M-288.632,269.221l3-0.002l0,25l-3,0L-288.632,269.221z M-288.632,219.22l3,0l0,25l-3,0
				L-288.632,219.22z M-288.632,169.221l3,0l0,24.999l-3,0L-288.632,169.221z M-288.632,119.221l3-0.001l0,25l-3,0L-288.632,119.221
				z M-288.632,69.22l3,0l0,25l-3,0L-288.632,69.22z M-288.632,19.22l3,0l0,24.999l-3.001,0.001L-288.632,19.22z M-288.632-30.779
				l3,0l0,24.999l-3,0L-288.632-30.779z M-257.44-62.068l0.406,2.972c-8.605,1.177-16.26,4.149-21.553,8.37l-1.87-2.345
				c2.736-2.183,6.065-4.075,9.841-5.588l0-0.001c0.03-0.011,0.06-0.023,0.089-0.035c0.002-0.001,0.001-0.001,0.002-0.001
				c0.12-0.048,0.242-0.096,0.363-0.143l0.002-0.001c0.03-0.011,0.059-0.022,0.089-0.034c0.001-0.001,0.003-0.001,0.004-0.001
				c0.03-0.012,0.059-0.022,0.089-0.034c0.001-0.001,0,0,0.001-0.001c0.09-0.034,0.183-0.07,0.273-0.104
				c0.002-0.001,0.002-0.001,0.004-0.001c0.03-0.011,0.058-0.022,0.087-0.033c0.003-0.001,0.005-0.002,0.007-0.003
				c0.03-0.011,0.059-0.022,0.089-0.033l0,0c0.091-0.034,0.183-0.068,0.274-0.102c0.002-0.001,0.005-0.002,0.007-0.003
				c0.029-0.01,0.058-0.021,0.087-0.032c0.002-0.001,0.004-0.001,0.006-0.002c0.03-0.011,0.058-0.022,0.088-0.033
				c0.002-0.001,0.004-0.001,0.006-0.002c0.06-0.021,0.12-0.043,0.181-0.064c0.001-0.001,0.003-0.001,0.004-0.002
				c0.029-0.01,0.059-0.021,0.089-0.031c0.002-0.001,0.003-0.001,0.005-0.002c0.03-0.011,0.059-0.021,0.089-0.031
				c0.003,0,0.004-0.001,0.007-0.003c0.03-0.01,0.06-0.021,0.091-0.031l0.001-0.001c0.093-0.033,0.187-0.065,0.281-0.098
				c0.001,0,0.003,0,0.004-0.001c0.031-0.01,0.061-0.021,0.091-0.031c0.002-0.001,0.003-0.001,0.004-0.001
				c0.031-0.011,0.062-0.021,0.093-0.032l0,0c0.253-0.086,0.507-0.17,0.763-0.253c0.002-0.002,0.002-0.001,0.004-0.002
				C-264.257-60.835-260.935-61.591-257.44-62.068z"/>
		</g>
	</g>
	<path id="Rectangle_327" fill="#253081" d="M-464.172,4819.539l1992.703-387.342c21.686-4.215,42.683,9.947,46.897,31.633
		l148.034,761.565c4.215,21.686-9.947,42.684-31.633,46.898l-1992.704,387.342c-21.686,4.215-42.682-9.947-46.897-31.633
		l-148.034-761.566C-500.02,4844.75-485.858,4823.754-464.172,4819.539z"/>
</g>
</svg>
