<svg xmlns="http://www.w3.org/2000/svg" xmlns:xlink="http://www.w3.org/1999/xlink" width="312.701" height="440" viewBox="0 0 312.701 440">
  <defs>
    <clipPath id="clip-path">
      <rect id="Rectangle_591" data-name="Rectangle 591" width="310.074" height="366.972" fill="none"/>
    </clipPath>
  </defs>
  <g id="Grafik" transform="translate(-1366.299 -403)">
    <g id="Group_3674" data-name="Group 3674" transform="translate(-12.701 -67)">
      <g id="Group_3673" data-name="Group 3673" transform="translate(1379 446)">
        <g id="Group_3660" data-name="Group 3660" transform="translate(0 438.984)">
          <ellipse id="Ellipse_6" data-name="Ellipse 6" cx="156.35" cy="12.508" rx="156.35" ry="12.508" fill="#253081" opacity="0.18"/>
        </g>
      </g>
    </g>
    <g id="Group_3766" data-name="Group 3766" transform="translate(1368.926 402.996)">
      <g id="Group_3765" data-name="Group 3765" transform="translate(0 0.004)" clip-path="url(#clip-path)">
        <path id="Path_3526" data-name="Path 3526" d="M154.281,786.236c31.659,1.838,72.1-14.61,100.925-27.324,24.509-10.81,49.934-36.432,56.151-71.531,2.213-12.493,1.474-27.314-1.345-39.672A102.746,102.746,0,0,0,296.7,615.7c-11.635-18.376-30.221-30.633-48.779-41.256-10.818-6.193-23.583-11.781-35.345-17.051-.1-.045-45.655,6.8-54.282,6.732-11.292-.082-43.849-1.7-43.91-1.672-7.46,3.492-37.388,10.87-59.029,24.837-72.671,46.9-62.915,151.05,5.219,178.453,9.3,3.741,30.626,16.831,93.71,20.494" transform="translate(-3.789 -421.486)" fill="#fff"/>
        <path id="Path_3527" data-name="Path 3527" d="M333.037,790.257c47.567,7.869,97.191,13.794,144.758,21.663,7.1-44.867,11.286-72.228,15.627-103.212,2.97-21.2,6.014-44.1,10.119-75.456-48.016-8.02-96.663-13.73-144.679-21.75-11.1,75.909-14.726,102.846-25.824,178.755" transform="translate(-251.834 -462.403)" fill="#fff"/>
        <path id="Path_3528" data-name="Path 3528" d="M474.013,809.358a1.217,1.217,0,0,1-.2-.016c-23.77-3.932-48.467-7.437-72.352-10.827s-48.609-6.9-72.406-10.836a1.219,1.219,0,0,1-1.007-1.379c5.548-37.952,9.291-64.093,12.911-89.374s7.363-51.425,12.913-89.381a1.219,1.219,0,0,1,1.407-1.026c23.993,4.008,48.556,7.5,72.31,10.87s48.346,6.867,72.369,10.88a1.219,1.219,0,0,1,1.008,1.361c-3.859,29.489-7.057,53.607-10.12,75.467-4.108,29.323-8.052,55.372-15.63,103.233a1.219,1.219,0,0,1-1.2,1.028m-143.378-23.89c23.406,3.853,47.681,7.3,71.17,10.632s47.772,6.781,71.2,10.636c7.45-47.074,11.361-72.92,15.432-101.978,3.02-21.562,6.174-45.327,9.964-74.278-23.625-3.927-47.778-7.357-71.149-10.677s-47.51-6.749-71.141-10.675c-5.45,37.288-9.151,63.138-12.732,88.143s-7.285,50.88-12.739,88.2" transform="translate(-248.053 -458.621)" fill="#253081"/>
        <path id="Path_3529" data-name="Path 3529" d="M685.248,934.844c-.035,0-.07,0-.106,0a706.3,706.3,0,0,1-76.557-10.821,1.219,1.219,0,0,1,.473-2.392,703.811,703.811,0,0,0,76.292,10.784,1.219,1.219,0,0,1-.1,2.434" transform="translate(-459.452 -696.893)" fill="#253081"/>
        <path id="Path_3530" data-name="Path 3530" d="M663.186,1060.756c-.036,0-.073,0-.109,0a654.34,654.34,0,0,1-76.742-11.478,1.219,1.219,0,1,1,.5-2.386,651.89,651.89,0,0,0,76.454,11.435,1.219,1.219,0,0,1-.107,2.433" transform="translate(-442.639 -791.61)" fill="#253081"/>
        <path id="Path_3531" data-name="Path 3531" d="M705.65,807.816a1.2,1.2,0,0,1-.167-.012c-25.385-3.485-50.9-7.625-75.833-12.3a1.219,1.219,0,0,1,.449-2.4c24.895,4.672,50.369,8.806,75.715,12.286a1.219,1.219,0,0,1-.164,2.427" transform="translate(-475.373 -599.709)" fill="#253081"/>
        <path id="Path_3532" data-name="Path 3532" d="M499.3,741.027c8.022,1.26,17.545-4.392,18.4-12.888,1.045-10.428-9.971-16.919-19.294-14.615-15.3,3.782-14.767,25.043.9,27.5" transform="translate(-368.429 -539.198)" fill="#bca8ff"/>
        <path id="Path_3533" data-name="Path 3533" d="M513.07,753.18a1.218,1.218,0,0,1-.964-.472l-4.472-5.768a1.219,1.219,0,0,1,1.927-1.494l3.836,4.948,14.937-8.146a1.219,1.219,0,0,1,1.167,2.141l-15.848,8.643a1.216,1.216,0,0,1-.583.149" transform="translate(-383.666 -561.156)" fill="#253081"/>
        <path id="Path_3534" data-name="Path 3534" d="M477.061,885.6c8.022,1.26,17.545-4.392,18.4-12.888,1.045-10.428-9.971-16.919-19.294-14.615-15.3,3.783-14.767,25.043.9,27.5" transform="translate(-351.615 -648.523)" fill="#bca8ff"/>
        <path id="Path_3535" data-name="Path 3535" d="M449,1025.414c8.022,1.26,17.545-4.392,18.4-12.888,1.045-10.428-9.971-16.919-19.294-14.615-15.3,3.782-14.767,25.043.9,27.5" transform="translate(-330.392 -754.244)" fill="#bca8ff"/>
        <path id="Path_3536" data-name="Path 3536" d="M490.836,897.757a1.217,1.217,0,0,1-.964-.472l-4.472-5.767a1.219,1.219,0,0,1,1.927-1.494l3.836,4.948,14.937-8.146a1.219,1.219,0,0,1,1.167,2.141l-15.848,8.644a1.22,1.22,0,0,1-.583.149" transform="translate(-366.853 -670.482)" fill="#253081"/>
        <path id="Path_3537" data-name="Path 3537" d="M506.094,947.89c-3.141,26.261-11.533,36.205-31.143,42.081-22.168,6.643-65.2-12.254-78.872-24.912-5.838-5.407-11.189-8.446-16.5-14.55-4.821-5.544-11.4-10.836-18.684-9.849a13.022,13.022,0,0,0-10.141,7.931c-3.642,9.166,3.877,18.439,8.986,25.166,7.087,9.33,23.981,24.6,32.407,32.747,23.189,22.424,41.013,36.918,73.059,40.606,64.934,7.473,121.877-52.97,105.521-119.3Z" transform="translate(-264.506 -701.585)" fill="#fff"/>
        <path id="Path_3538" data-name="Path 3538" d="M461.417,1084.034a1.194,1.194,0,0,1-.141-.008c-33.115-3.811-51.462-19.372-73.767-40.94-1.76-1.7-3.931-3.754-6.23-5.926-8.709-8.231-20.637-19.5-26.3-26.96l-.632-.829c-5.176-6.79-12.265-16.088-8.516-25.524a14.182,14.182,0,0,1,11.11-8.689c6.437-.871,13.088,2.577,19.767,10.257a67.55,67.55,0,0,0,9.7,8.828c2.16,1.715,4.394,3.488,6.705,5.629,6.928,6.416,21.328,14.229,35.832,19.441,17.36,6.239,32.227,8.086,41.861,5.2,19.68-5.9,27.336-16.36,30.339-41.463a1.219,1.219,0,1,1,2.421.289c-1.634,13.659-4.613,22.749-9.659,29.475-4.9,6.533-11.811,10.862-22.4,14.035-13.668,4.1-33.05-1.524-43.386-5.239-15.015-5.4-29.406-13.225-36.664-19.947-2.243-2.077-4.44-3.821-6.565-5.508a69.5,69.5,0,0,1-10.025-9.137c-6.106-7.02-12.026-10.194-17.6-9.441a11.867,11.867,0,0,0-9.171,7.173c-3.239,8.154,3.366,16.819,8.189,23.145l.634.833c5.542,7.3,17.385,18.49,26.033,26.662,2.3,2.178,4.481,4.235,6.25,5.946,12.255,11.851,22.049,20.528,32.993,27.163,11.916,7.224,24.422,11.389,39.358,13.109a1.219,1.219,0,0,1-.138,2.43" transform="translate(-260.713 -737.29)" fill="#253081"/>
        <path id="Path_3539" data-name="Path 3539" d="M339.943,881.238c-.495-2.342-1.336-4.562-3.978-3.962a4.691,4.691,0,0,0-2.265,1.3c-7.11,7.142.029,18.138,4.5,24.527-1.5-2.143-3.115-4.207-4.518-6.416a70.808,70.808,0,0,1-3.636-7.476,3.454,3.454,0,0,0-.928-1.338,2.163,2.163,0,0,0-2.285-.063c-4.087,2.231-3.954,8.489-3.1,12.34,1.048,4.731,3.388,9.086,5.735,13.281a93.029,93.029,0,0,0,10.4,14.189c7.689,9.138,22.619,23.752,32.206,30.861,0,0,10.794-4.382,17.4-13.455,4.352-5.975,6.27-15.016,6.27-15.016-23.251-13.786-30.651-26.666-34.882-32.2-7.425-9.681-12.4-20.7-17.934-31.526-.492-.962-1.233-2.071-2.309-1.983-1.229.1-1.708,1.633-1.811,2.862-.622,7.474,1.772,17.676,5.242,24.316a22.568,22.568,0,0,0,1.985,3.167,37.281,37.281,0,0,1-5.308-9.748,33.531,33.531,0,0,1-.789-3.657" transform="translate(-244.43 -653.556)" fill="#fff"/>
        <path id="Path_3540" data-name="Path 3540" d="M368.286,955.912a1.218,1.218,0,0,1-.726-.24c-9.844-7.3-24.983-22.224-32.413-31.055a94.347,94.347,0,0,1-10.534-14.378c-2.482-4.439-4.8-8.82-5.861-13.613a20.194,20.194,0,0,1-.316-7.233c.485-3.042,1.876-5.269,4.022-6.44a3.456,3.456,0,0,1,3.249-.068,11.314,11.314,0,0,1,3.341-8.957,5.906,5.906,0,0,1,2.86-1.625,4.189,4.189,0,0,1,2.329.071,40.314,40.314,0,0,1-.427-9.1c.2-2.356,1.29-3.842,2.926-3.976,2.056-.171,3.138,1.948,3.494,2.643.971,1.9,1.939,3.83,2.874,5.7,4.369,8.724,8.887,17.745,14.942,25.64.528.69,1.086,1.467,1.733,2.368,4.4,6.132,12.6,17.547,32.8,29.524a1.219,1.219,0,0,1,.571,1.3c-.081.38-2.023,9.367-6.478,15.481-6.737,9.248-17.477,13.683-17.931,13.867a1.214,1.214,0,0,1-.458.09m-44.1-70.966a1.206,1.206,0,0,0-.564.147c-3.248,1.773-3.374,7.037-2.494,11.006.991,4.469,3.218,8.676,5.609,12.95,2.762,4.94,6.286,9.262,10.271,14,7.2,8.559,21.719,22.9,31.434,30.243,2.347-1.074,10.83-5.319,16.258-12.77,3.389-4.652,5.278-11.369,5.864-13.71-20.078-12.069-28.317-23.54-32.77-29.739-.635-.884-1.184-1.648-1.688-2.307-6.2-8.078-10.766-17.2-15.186-26.031-.934-1.865-1.9-3.792-2.865-5.681-.674-1.318-1.083-1.329-1.124-1.323-.267.022-.611.73-.7,1.748-.577,6.936,1.571,16.882,5.108,23.65a21.419,21.419,0,0,0,1.876,2.995h0a1.219,1.219,0,0,1-1.945,1.471l-.013-.018a38.5,38.5,0,0,1-5.468-10.049A16.311,16.311,0,0,1,335.21,879c-.077-.427-.157-.868-.247-1.3-.219-1.035-.592-2.464-1.307-2.922a1.451,1.451,0,0,0-1.209-.1,3.471,3.471,0,0,0-1.671.967c-2.786,2.8-3.374,6.5-1.8,11.307,1.339,4.089,4,8.19,6.432,11.662a1.219,1.219,0,0,1-2,1.4h0l-.025-.036c-.516-.737-1.058-1.481-1.583-2.2-.99-1.359-2.013-2.764-2.941-4.224a39.168,39.168,0,0,1-2.639-5.25c-.344-.781-.7-1.587-1.067-2.353a2.687,2.687,0,0,0-.562-.89.676.676,0,0,0-.405-.114" transform="translate(-240.642 -649.772)" fill="#253081"/>
        <path id="Path_3541" data-name="Path 3541" d="M10.041,926.286c-14.252,47.077,5.053,99.985,50.848,118.4,9.3,3.741,30.626,16.831,93.71,20.494,4.743-10.993,4.057-34.271,4.14-33.4-36.381-9.458-85.476-23.1-82.748-76.657Z" transform="translate(-4.107 -700.434)" fill="#fff"/>
        <path id="Path_3542" data-name="Path 3542" d="M155.583,783.818q-2.638,0-5.161-.146c-55.674-3.232-78.982-13.79-90.183-18.864-1.507-.683-2.809-1.272-3.911-1.715A86.614,86.614,0,0,1,17.209,731.61,99.77,99.77,0,0,1,.489,684.633a107.865,107.865,0,0,1,25.892-80.972A114.612,114.612,0,0,1,50.9,582.484c15.746-10.163,35.466-16.739,48.516-21.091,4.83-1.611,8.646-2.883,10.658-3.825.284-.134.284-.133,4.423.057,9.312.429,31.118,1.435,40.012,1.5h.117c7.251,0,39.517-4.647,50.159-6.18,1.192-.172,2.145-.309,2.8-.4,1.362-.194,1.362-.194,1.7-.044l2.856,1.278c11.109,4.967,22.6,10.1,32.6,15.827,18.594,10.643,37.423,23.057,49.2,41.662a103.358,103.358,0,0,1,13.474,32.391c2.985,13.088,3.492,28.1,1.357,40.156a97.345,97.345,0,0,1-21.483,45.445,100.258,100.258,0,0,1-35.376,26.989c-13.571,5.986-31.465,13.574-49.531,19.168-18.208,5.638-33.585,8.4-46.8,8.4M110.84,559.9c-2.19.985-5.946,2.238-10.651,3.807-12.933,4.313-32.477,10.831-47.965,20.827a112.166,112.166,0,0,0-24,20.726A105.422,105.422,0,0,0,2.917,684.4a97.327,97.327,0,0,0,16.3,45.828,84.18,84.18,0,0,0,38.019,30.6c1.15.463,2.474,1.062,4.007,1.756,11.067,5.014,34.1,15.445,89.319,18.651,14.032.814,30.746-1.852,51.094-8.152,17.946-5.557,35.757-13.11,49.268-19.07a97.768,97.768,0,0,0,34.493-26.326,94.9,94.9,0,0,0,20.949-44.3c2.082-11.752,1.583-26.4-1.333-39.188a100.918,100.918,0,0,0-13.157-31.629c-11.5-18.156-30.034-30.363-48.355-40.85-9.9-5.664-21.326-10.775-32.38-15.717l-2.546-1.139c-.57.079-1.885.268-3.463.5-18.525,2.668-43.85,6.2-50.511,6.2h-.129c-8.941-.065-30.781-1.072-40.107-1.5-1.638-.075-3-.138-3.547-.161" transform="translate(0 -417.705)" fill="#253081"/>
        <path id="Path_3543" data-name="Path 3543" d="M372.644,1136.821c-.043,0-.086,0-.13-.006a1.219,1.219,0,0,1-1.084-1.341,162.506,162.506,0,0,0,.8-17.1c-16.475-4.285-38.642-10.179-55.5-21.728-9.176-6.285-15.859-13.5-20.432-22.055-5.168-9.67-7.457-21.067-6.8-33.877a1.219,1.219,0,0,1,2.435.124c-1.188,23.32,7.375,40.916,26.179,53.8,16.746,11.47,39.06,17.3,55.427,21.559a1.247,1.247,0,0,1,1.137,1.124,1.214,1.214,0,0,1,0,.258c0,.1,0,.251,0,.454a165.858,165.858,0,0,1-.808,17.7,1.219,1.219,0,0,1-1.211,1.091" transform="translate(-218.82 -786.085)" fill="#253081"/>
        <path id="Path_3544" data-name="Path 3544" d="M619.785,1306.288c34.43,8.362,57.668-3.247,73.077-11.693,6.858-3.76,15.742-7.251,18.036-4,3.778,5.357-26.742,19.777-30.024,22.074l23.16-12.658c2.4-1.312,5.829-2.442,7.49-.269,5.01,6.554-24.325,20.2-28.654,22.438l26.889-13.885c2.068-1.068,5.031-1.946,6.358-.034,1.236,1.781-.3,4.143-1.825,5.682-12.907,13.007-30.6,20.564-48.683,23.542-16.061,2.645-33.807,4.392-49.965,2.206,0,0-1.439-6.239.545-17.51a123,123,0,0,1,3.595-15.894" transform="translate(-465.154 -974.942)" fill="#fff"/>
        <path id="Path_3545" data-name="Path 3545" d="M627.61,1338.151a118.462,118.462,0,0,1-15.919-1.014,1.22,1.22,0,0,1-1.024-.934c-.061-.264-1.472-6.611.532-17.995a123.182,123.182,0,0,1,3.64-16.071,1.219,1.219,0,0,1,1.443-.8c15.106,3.669,29.2,3.818,43.1.456,11.815-2.859,21.219-7.71,29.107-12.034a55.042,55.042,0,0,1,10.989-4.734c4.355-1.212,7.259-.841,8.629,1.1a3.048,3.048,0,0,1,.45,2.526c-.346,1.465-1.692,3.116-3.742,4.888a4.467,4.467,0,0,1,3.891,1.7,3.972,3.972,0,0,1,.7,3.418,9.639,9.639,0,0,1-2.571,4.146c2.924-1.136,5.248-.8,6.495,1,1.345,1.938.612,4.643-1.961,7.236a79.119,79.119,0,0,1-22.749,15.777,101.555,101.555,0,0,1-26.6,8.109,213.018,213.018,0,0,1-34.408,3.226m-14.708-3.315c13.217,1.663,29.167.9,48.719-2.316a99.132,99.132,0,0,0,25.962-7.911,76.685,76.685,0,0,0,22.053-15.287c.447-.451,2.632-2.769,1.689-4.128-1-1.44-4.172.1-4.8.422l-14.893,7.69c-3.371,1.858-6.9,3.659-10.275,5.333-.747.37-1.335.662-1.721.861a1.219,1.219,0,0,1-1.119-2.166h0l12.1-6.246c1.728-.958,3.5-1.98,5.215-3.038,9.019-5.551,10.886-8.614,11.2-9.946a1.529,1.529,0,0,0-.266-1.383c-1.324-1.733-4.879.02-5.937.6l-23.16,12.659a1.219,1.219,0,0,1-1.284-2.069c.753-.527,2.654-1.548,5.284-2.962,4.305-2.314,10.2-5.483,15.242-8.706,7.529-4.814,9.039-7.168,9.269-8.143a.617.617,0,0,0-.069-.561c-.683-.969-2.864-1.026-5.983-.159a52.6,52.6,0,0,0-10.47,4.524c-8.025,4.4-17.6,9.337-29.705,12.266-13.936,3.372-28.056,3.311-43.125-.191a144.632,144.632,0,0,0-3.228,14.654c-1.509,8.574-.988,14.2-.7,16.205" transform="translate(-461.362 -971.179)" fill="#253081"/>
        <path id="Path_3546" data-name="Path 3546" d="M521.278,205.3c14.471-10.55,30.484-23.916,30.484-23.916-8.5-3.826-10.153-7.744-12.524-17.037-4.654-18.241,1.331-37.069-.359-55.49-.463-5.046-.682-10.777-1.728-16.176a32.185,32.185,0,0,0-3.416-9.886c-7.857-13.743-23.29-25.593-40.982-22.006-26.965,5.468-30.255,32.538-30.2,54.243.036,13.459,2.462,27.679,2.385,41.476-.037,6.614-3.159,25.943-11.371,29.935,0,0,5.2,4.823,12.25,10.69,18.437,2.9,36.946,5.537,55.457,8.166" transform="translate(-342.978 -45.48)" fill="#fff"/>
        <path id="Path_3547" data-name="Path 3547" d="M517.5,202.76a1.226,1.226,0,0,1-.171-.012c-17.074-2.425-36.425-5.174-55.475-8.169a1.221,1.221,0,0,1-.59-.267c-7-5.82-12.247-10.684-12.3-10.733a1.219,1.219,0,0,1,.3-1.99c7.414-3.6,10.647-22.1,10.684-28.845.039-7.047-.59-14.329-1.2-21.372-.574-6.644-1.168-13.514-1.186-20.1-.025-9.127.473-22.549,5.056-33.678,4.91-11.923,13.7-19.245,26.117-21.763a34.689,34.689,0,0,1,25.049,4.654A50.074,50.074,0,0,1,531.013,78.43a33.162,33.162,0,0,1,3.555,10.259,108.083,108.083,0,0,1,1.418,12.288c.107,1.4.208,2.715.327,4.008.718,7.826.063,15.8-.57,23.515-.863,10.514-1.756,21.386.9,31.784,2.326,9.117,3.853,12.629,11.843,16.227a1.219,1.219,0,0,1,.281,2.048c-.161.134-16.209,13.513-30.547,23.965a1.219,1.219,0,0,1-.718.234m-54.935-10.538c18.742,2.943,37.771,5.649,54.616,8.042,11.649-8.517,24.328-18.874,28.558-22.363-7.407-3.786-9.191-8.118-11.46-17.012-2.754-10.793-1.844-21.872-.964-32.586.625-7.609,1.271-15.478.572-23.093-.12-1.311-.222-2.639-.33-4.045a106.188,106.188,0,0,0-1.381-12.011A30.8,30.8,0,0,0,528.9,79.64a47.6,47.6,0,0,0-16.372-17.061,32.289,32.289,0,0,0-23.309-4.355c-11.738,2.38-19.7,9.021-24.347,20.3-4.417,10.727-4.9,23.824-4.873,32.743.017,6.479.607,13.3,1.177,19.892.614,7.1,1.248,14.436,1.208,21.595-.034,6.1-2.735,24.388-10.57,30.123,1.894,1.717,5.879,5.281,10.752,9.342" transform="translate(-339.198 -41.718)" fill="#253081"/>
        <path id="Path_3548" data-name="Path 3548" d="M566.046,278.175a1.6,1.6,0,0,0-1.518-2.732c-2.411.356-1.716,4.338,1.036,3.04a2.125,2.125,0,0,0,.482-.308" transform="translate(-425.768 -208.264)" fill="#1a1e22"/>
        <path id="Path_3549" data-name="Path 3549" d="M560.749,276.18a2.594,2.594,0,0,1-1.711-.618,2.971,2.971,0,0,1-.862-3.05,2.846,2.846,0,0,1,2.395-2.057,2.95,2.95,0,0,1,3.223,1.633,2.734,2.734,0,0,1-.731,3.229h0a3.352,3.352,0,0,1-.757.486,3.663,3.663,0,0,1-1.556.376m.339-3.325a1.085,1.085,0,0,0-.162.013.427.427,0,0,0-.407.316.561.561,0,0,0,.1.521c.075.064.305.056.648-.105a.921.921,0,0,0,.207-.129h0a.3.3,0,0,0,.1-.368.5.5,0,0,0-.487-.247" transform="translate(-421.989 -204.483)" fill="#253081"/>
        <path id="Path_3550" data-name="Path 3550" d="M681.909,278.54a1.6,1.6,0,0,0-1.518-2.732c-2.411.356-1.716,4.338,1.036,3.04a2.125,2.125,0,0,0,.482-.308" transform="translate(-513.381 -208.54)" fill="#1a1e22"/>
        <path id="Path_3551" data-name="Path 3551" d="M676.612,276.546a2.594,2.594,0,0,1-1.712-.618,2.972,2.972,0,0,1-.862-3.05,2.846,2.846,0,0,1,2.395-2.057,2.951,2.951,0,0,1,3.223,1.633,2.734,2.734,0,0,1-.731,3.229h0a3.357,3.357,0,0,1-.757.486,3.657,3.657,0,0,1-1.555.376m1.517-1.787h0Zm-1.178-1.539a1.121,1.121,0,0,0-.162.012.427.427,0,0,0-.407.316.561.561,0,0,0,.1.521c.075.064.305.056.648-.105a.919.919,0,0,0,.207-.13.3.3,0,0,0,.1-.367.5.5,0,0,0-.487-.247" transform="translate(-509.6 -204.76)" fill="#253081"/>
        <path id="Path_3552" data-name="Path 3552" d="M773.909,250.61c2.031-2.228,2.4-5.559,7-4.473,3.113.736,5.241,3.457,6.357,6.259a13.244,13.244,0,0,1,.375,9.506,10.169,10.169,0,0,1-7.3,6.35c-5.164,1.044-13.621-3.831-13.647-9.535-.023-5.178,3.832-5.092,6.72-7.622a6.161,6.161,0,0,0,.492-.485" transform="translate(-579.756 -185.963)" fill="#fff"/>
        <path id="Path_3553" data-name="Path 3553" d="M797.475,266.087a10.123,10.123,0,0,1-4.861-1.242,1.219,1.219,0,0,1,1.18-2.134,7.714,7.714,0,0,0,5.11.8,8.954,8.954,0,0,0,6.4-5.584,12,12,0,0,0-.367-8.626c-.558-1.4-2.212-4.745-5.505-5.523a5.388,5.388,0,0,0-4.464,1.207,2.426,2.426,0,0,0-.954,2.017,1.219,1.219,0,0,1-2.422.277,4.755,4.755,0,0,1,1.757-4.118,7.774,7.774,0,0,1,6.644-1.757c3.1.734,5.731,3.283,7.209,6.994a14.419,14.419,0,0,1,.384,10.387,11.443,11.443,0,0,1-8.2,7.115,9.649,9.649,0,0,1-1.913.189" transform="translate(-598.557 -182.415)" fill="#253081"/>
        <path id="Path_3554" data-name="Path 3554" d="M452.828,259.294c-3.036-2.66-6.936-4.468-9.825-3.54-3.05.979-4.973,3.86-5.881,6.742a13.26,13.26,0,0,0,.319,9.511,10.089,10.089,0,0,0,7.736,5.76c6.033.735,12.837-4.746,12.368-10.989-.176-2.339-2.133-5.22-4.716-7.483" transform="translate(-329.991 -193.209)" fill="#fff"/>
        <path id="Path_3555" data-name="Path 3555" d="M442.4,275.034a9.561,9.561,0,0,1-1.151-.069,11.364,11.364,0,0,1-8.694-6.458,14.431,14.431,0,0,1-.375-10.389c1.2-3.815,3.634-6.562,6.671-7.536a7.525,7.525,0,0,1,6.305.715,5.6,5.6,0,0,1,2.5,4.239,1.219,1.219,0,1,1-2.427.229,3.121,3.121,0,0,0-1.415-2.433,5.108,5.108,0,0,0-4.217-.429c-3.23,1.036-4.636,4.5-5.091,5.948a12.011,12.011,0,0,0,.263,8.633,8.875,8.875,0,0,0,6.776,5.062,7.659,7.659,0,0,0,5.6-1.608,1.219,1.219,0,1,1,1.543,1.888,10.049,10.049,0,0,1-6.284,2.21" transform="translate(-326.211 -189.197)" fill="#253081"/>
        <path id="Path_3556" data-name="Path 3556" d="M611.28,382.536q-.2,0-.4-.018c-2.154-.2-6.451-2.572-7.353-6.6a1.219,1.219,0,0,1,2.379-.533c.628,2.8,3.969,4.591,5.2,4.7,1.494.144,4.383-1.47,6.136-5.468a1.219,1.219,0,1,1,2.233.979c-2.118,4.829-5.638,6.935-8.191,6.935" transform="translate(-456.348 -282.728)" fill="#253081"/>
        <path id="Path_3557" data-name="Path 3557" d="M545.035,37.525c1.334-7.626,2.743-15.245,3.483-22.958.377-3.929,1.315-6.187-1.531-9.08-.547-.556-56.34-4.267-79.231-5.469a10.051,10.051,0,0,0-10.556,9.5c-.515,9.346.447,18.65,1.482,28.065.361,3.283,1.4,26.115,6.847,26.06,2.381-.041,7.9-12.693,9.263-14.637,1.8-2.558,3.837-5.5,7.019-6.156,5.171-1.072,11.9,2.666,16.573,4.409s10.178,2.777,14.944.958c2.684-1.024,5.234-2.475,8.056-3.009,5.071-.959,9.392,1.226,12.442,5.011.405.5,3.353,5.272,5.48,8.931a1.433,1.433,0,0,0,2.664-.564c.625-5.642,1.665-12.891,2.551-18.083q.254-1.489.515-2.978" transform="translate(-345.614 -0.004)" fill="#253081"/>
      </g>
    </g>
  </g>
</svg>
