<svg xmlns="http://www.w3.org/2000/svg" xmlns:xlink="http://www.w3.org/1999/xlink" width="410" height="529" viewBox="0 0 410 529">
  <defs>
    <clipPath id="clip-path">
      <rect id="Rectangle_592" data-name="Rectangle 592" width="410" height="465" transform="translate(0 0.194)" fill="none"/>
    </clipPath>
  </defs>
  <g id="Grafik" transform="translate(-1289 -314)">
    <ellipse id="Ellipse_6" data-name="Ellipse 6" cx="150" cy="12" rx="150" ry="12" transform="translate(1329 819)" fill="#253081" opacity="0.18"/>
    <g id="Group_3770" data-name="Group 3770" transform="translate(1289 313.806)">
      <g id="Group_3769" data-name="Group 3769" clip-path="url(#clip-path)">
        <path id="Path_3558" data-name="Path 3558" d="M287.33,1046.63c-7.4-9.34-10.539-13.882-17.3-23.693-2.186-3.172-4.329-7.56-1.927-10.572,1.489-1.867,4.122-2.269,6.5-2.462,15.243-1.238,37.441,2.531,52,7.228Z" transform="translate(-194.183 -734.186)" fill="#fff"/>
        <path id="Path_3559" data-name="Path 3559" d="M284.445,1044.816a1.09,1.09,0,0,1-.856-.414c-7.506-9.477-10.794-14.248-17.345-23.751-2.4-3.483-4.675-8.369-1.882-11.872,1.709-2.142,4.5-2.645,7.264-2.869,15.667-1.271,38.229,2.7,52.42,7.277a1.091,1.091,0,0,1,.32,1.911L285.1,1044.6a1.087,1.087,0,0,1-.655.219m-6.416-36.966c-2.166,0-4.251.075-6.225.236-2.274.185-4.544.561-5.735,2.055-1.081,1.355-1.617,4.064,1.972,9.271,6.327,9.18,9.6,13.925,16.6,22.8l36.713-27.579c-12.143-3.668-29.4-6.783-43.324-6.783" transform="translate(-191.297 -731.281)" fill="#253081"/>
        <path id="Path_3560" data-name="Path 3560" d="M608.865,1416.239c7.159,9.524,10.755,13.715,18.529,22.743,2.514,2.919,6.213,6.1,9.73,4.536,2.18-.971,3.234-3.42,4.021-5.675,5.047-14.453,7.01-36.909,6.145-52.195Z" transform="translate(-442.741 -1007.585)" fill="#fff"/>
        <path id="Path_3561" data-name="Path 3561" d="M632.3,1442.114c-3.279,0-6.412-2.74-8.641-5.328-7.53-8.744-11.309-13.133-18.574-22.8a1.091,1.091,0,0,1,.193-1.51l38.425-30.59a1.091,1.091,0,0,1,1.769.792c.843,14.9-1.018,37.761-6.2,52.616-.915,2.62-2.106,5.2-4.608,6.312a5.743,5.743,0,0,1-2.36.507m-24.832-28.591c6.811,9.025,10.571,13.391,17.845,21.839,4.125,4.791,6.878,4.957,8.459,4.251,1.745-.777,2.682-2.88,3.435-5.037,4.853-13.9,6.738-34.988,6.185-49.652Z" transform="translate(-439.832 -1004.677)" fill="#253081"/>
        <path id="Path_3562" data-name="Path 3562" d="M104,1259.379a389.161,389.161,0,0,1,56.554-19.707L145.79,1259.4l26.28-7.891-9.928,12.99c3.06-.1,9.23-.7,12.291-.8-2.058,4.48-7.225,9.458-9.283,13.938l19.563-8.734a148.85,148.85,0,0,0-18.942,32.193c10.007-5.967,24.545-10.436,34.553-16.4-8.8,8.722-16.391,17.988-22.061,29.21,15.23-3.379,42.911-24.169,53.329-33.582,2.591-2.341-.08-10.986,0-14.582.073-3.289-2.176-6.09-4.323-8.506q-10.732-12.075-22.514-23.061c-6.386-5.955-12.619-11.435-15.157-20.205-.995-3.436-3.062-7.346-6.483-7.41a8.576,8.576,0,0,0-4.368,1.611c-26,15.473-54.357,27.853-74.745,51.208" transform="translate(-75.625 -877.359)" fill="#bca8ff"/>
        <path id="Path_3563" data-name="Path 3563" d="M382.1,993.568c-27.119-10.668-66.373-61.549-71.621-95.486,22.657-24.888,97.377-70.6,124.815-83.3a279.578,279.578,0,0,1,44.913-16.557c13.471-3.61,29.669-7.325,42.42.555,7.076,4.373,12.156,12.164,12.469,20.485,1.186,31.6-27.885,57.842-47.57,79.262-23.39,25.453-47.964,50.054-74.638,72.073-9.876,8.152-30.786,22.97-30.786,22.97" transform="translate(-225.769 -577.446)" fill="#fff"/>
        <path id="Path_3564" data-name="Path 3564" d="M379.194,991.69a1.091,1.091,0,0,1-.4-.076c-13.073-5.142-29.7-19.862-44.483-39.373a187.418,187.418,0,0,1-18.125-28.9c-5.15-10.327-8.411-19.767-9.693-28.057a1.091,1.091,0,0,1,.271-.9c13.618-14.959,43.957-35.494,60.829-46.4,24.017-15.529,49.871-30.46,64.334-37.153A278.215,278.215,0,0,1,477.017,794.2c14.885-3.989,30.487-7.223,43.277.681,7.693,4.754,12.669,12.943,12.985,21.372.474,12.619-3.715,25.468-12.805,39.28-7.867,11.953-18.366,23.051-27.628,32.842-2.6,2.752-5.063,5.352-7.423,7.921-27.2,29.6-50.951,52.533-74.747,72.176-9.794,8.084-30.641,22.87-30.85,23.019a1.09,1.09,0,0,1-.631.2m-70.46-96.228c2.553,15.527,12.732,36.206,27.318,55.461,14.342,18.933,30.363,33.245,43,38.44,3.2-2.275,21.338-15.231,30.237-22.577,23.717-19.578,47.4-42.447,74.53-71.969,2.371-2.58,4.836-5.185,7.445-7.944,9.2-9.725,19.629-20.749,27.391-32.542,8.832-13.419,12.9-25.849,12.447-38-.29-7.711-4.869-15.221-11.952-19.6-12.05-7.446-27.14-4.295-41.564-.429A276.062,276.062,0,0,0,432.845,812.8c-14.38,6.655-40.126,21.526-64.065,37.006-38.328,24.783-54,39.124-60.046,45.655" transform="translate(-222.86 -574.476)" fill="#253081"/>
        <path id="Path_3565" data-name="Path 3565" d="M488.475,1209.941c-2.078.4-16.719,4.228-50.939,30.048,0,0,5.007,7.059,7.563,9.583,24.482-17.43,40.8-31.046,43.375-39.631" transform="translate(-318.158 -879.818)" fill="#fff"/>
        <path id="Path_3566" data-name="Path 3566" d="M442.191,1247.756a1.088,1.088,0,0,1-.767-.315c-2.594-2.562-7.48-9.437-7.687-9.728a1.092,1.092,0,0,1,.233-1.5c35.239-26.589,49.842-29.953,51.391-30.249a1.091,1.091,0,0,1,1.25,1.385c-2.413,8.049-15.508,20.074-43.787,40.207a1.09,1.09,0,0,1-.633.2m-6.055-10.445c1.267,1.75,4.2,5.738,6.19,7.917,17.126-12.219,36.63-27.012,41.412-36.578-5.077,1.607-19.492,7.549-47.6,28.661" transform="translate(-315.249 -876.91)" fill="#253081"/>
        <path id="Path_3567" data-name="Path 3567" d="M646.823,1050.339c.949,11.1,10.94,20.455,22.021,21.5s22.242-5.7,27.289-15.633c2.937-5.781,3.912-12.871,1.2-18.762-11.34-24.64-52.809-14-50.511,12.891" transform="translate(-470.276 -744.311)" fill="#bca8ff"/>
        <path id="Path_3568" data-name="Path 3568" d="M668.218,1070.139q-1.2,0-2.388-.112a26.014,26.014,0,0,1-15.464-7.284,24.177,24.177,0,0,1-7.541-15.215c-1.234-14.446,9.512-23.9,20.709-26.856a30.41,30.41,0,0,1,18.155.643,24.038,24.038,0,0,1,13.727,12.773c2.618,5.688,2.161,13.056-1.22,19.712-5.018,9.876-15.452,16.338-25.976,16.338M645,1047.343a22,22,0,0,0,6.881,13.83,23.825,23.825,0,0,0,14.155,6.682c10.432.989,21.211-5.2,26.212-15.041,3.082-6.066,3.524-12.724,1.183-17.811-4.079-8.862-14.733-16.077-29.341-12.218-10.315,2.725-20.218,11.376-19.091,24.559" transform="translate(-467.364 -741.407)" fill="#253081"/>
        <path id="Path_3569" data-name="Path 3569" d="M1285.768,19.321c.773.037,1.711.2,1.975.929.278.766-.413,1.515-1.037,2.038-4.046,3.395-9.406,7.063-13.451,10.458,2.087,3.657,4.549,7.626,5.21,11.785a3.854,3.854,0,0,1-.454,3.131,2.718,2.718,0,0,1-2.592.729,8.014,8.014,0,0,1-2.55-1.177c-3.048-1.871-8.182-4.956-11.23-6.827-4.06,2.477-14.679,10.372-15.972,10.035-2.758-.719,1.671-14.886,1.934-18.535-4.456-2.839-15.47-12.235-14.6-12.8a6.732,6.732,0,0,1,2.96-.838c4.56-.512,11.624-.968,16.167-.318.2.029.789-17.885,4.523-17.933,2.936-.037,5.177,5.711,6.206,7.955a41.307,41.307,0,0,1,3.734,10.5s12.442.541,19.177.864" transform="translate(-896.551 0)" fill="#bca8ff"/>
        <path id="Path_3570" data-name="Path 3570" d="M1292.205,84.017q-.181,0-.364-.017a4.209,4.209,0,0,1-3.574-2.852,1.091,1.091,0,0,1,2.075-.677,1.974,1.974,0,0,0,3.613.331,1.091,1.091,0,1,1,1.918,1.041,4.215,4.215,0,0,1-3.668,2.174" transform="translate(-936.734 -57.967)" fill="#1a1e22"/>
        <path id="Path_3571" data-name="Path 3571" d="M1340.885,89.824a4.557,4.557,0,0,1-4.112-2.709,1.091,1.091,0,1,1,2.007-.858,2.279,2.279,0,0,0,4.244-.133,1.091,1.091,0,0,1,2.056.731,4.553,4.553,0,0,1-4.065,2.966l-.13,0" transform="translate(-971.981 -62.098)" fill="#1a1e22"/>
        <path id="Path_3572" data-name="Path 3572" d="M792.407,1292.658a37.775,37.775,0,0,1-13.26-9.59c-3.733,6.872-7.95,13.839-16.683,21.688a32.582,32.582,0,0,0,4.085,14.431,79.03,79.03,0,0,0,8.912,12.443q-.023-.289-.045-.578c-.422-5.433-1.295-7.7,1.541-12.349a247.464,247.464,0,0,1,17.412-25.017c-.545-.255-1.41-.791-1.962-1.029" transform="translate(-554.432 -932.993)" fill="#fff"/>
        <path id="Path_3573" data-name="Path 3573" d="M772.553,1329.814a1.09,1.09,0,0,1-.837-.392,80.171,80.171,0,0,1-9.031-12.618,33.663,33.663,0,0,1-4.218-14.911,1.092,1.092,0,0,1,.361-.857,73.19,73.19,0,0,0,16.454-21.4,1.092,1.092,0,0,1,1.776-.2,36.772,36.772,0,0,0,12.875,9.312h0c.351.152.772.384,1.178.609.3.164.6.333.815.433a1.091,1.091,0,0,1,.38,1.682,246.256,246.256,0,0,0-17.323,24.891c-2.182,3.578-1.992,5.47-1.612,9.238.074.731.157,1.559.227,2.459l.045.577a1.092,1.092,0,0,1-1.088,1.176m-11.881-27.5a31.54,31.54,0,0,0,3.925,13.444,67.281,67.281,0,0,0,6.546,9.53c-.352-3.554-.469-6.051,1.974-10.056a256.438,256.438,0,0,1,16.663-24.11c-.268-.147-.525-.283-.714-.365a39,39,0,0,1-12.6-8.737,73.7,73.7,0,0,1-15.8,20.3" transform="translate(-551.524 -930.085)" fill="#253081"/>
        <path id="Path_3574" data-name="Path 3574" d="M537.567,319.713C572.689,304,595.6,283.792,618.1,267.772c13.264-2,11.264,14.747,11.264,14.747-17.509,16.623-51.939,49.565-67.528,73.661-16.71,25.829-27.125,49.816-32.712,76.761,11.08.614,22.248,1.241,32.985,4.046s21.148,7.976,28.428,16.361c14.222,16.38,8.731,41.416.951,59.58a215.615,215.615,0,0,1-29.244,48.59,214.079,214.079,0,0,1-21.025-13.99,249.863,249.863,0,0,0,17.77-34.726c2.187-5.249,4.228-10.991,2.863-16.512-2.1-8.485-11.431-13.125-20.088-14.268-12.888-1.7-25.73-.538-38.472-3.285-13.091-2.823-26.309-6.407-37.646-13.8-27.3-17.814-26.336-51.626-14.391-78.725,7.306-16.575,19.262-41.3,43.757-58.5,9.005-6.324,28.833-1.854,42.559-8" transform="translate(-322.339 -194.592)" fill="#fff"/>
        <path id="Path_3575" data-name="Path 3575" d="M559.352,559.7a1.088,1.088,0,0,1-.55-.149,215.839,215.839,0,0,1-21.132-14.062,1.092,1.092,0,0,1-.272-1.442,249.453,249.453,0,0,0,17.692-34.574c2.042-4.9,4.112-10.569,2.811-15.83-2.06-8.329-11.615-12.45-19.171-13.448-5.395-.713-10.891-.922-16.206-1.125-7.326-.279-14.9-.568-22.353-2.175-12.9-2.781-26.425-6.4-38.012-13.957a49.057,49.057,0,0,1-15.792-16.369,52.207,52.207,0,0,1-6.608-20.3c-1.584-13.275,1.118-28.692,7.607-43.414,8.826-20.025,20.972-42.688,44.129-58.95,4.848-3.4,12.472-3.834,20.543-4.289,7.7-.434,15.655-.883,22.2-3.81,27.257-12.2,47.434-27.335,65.235-40.69,5.21-3.908,10.13-7.6,15.106-11.144a1.091,1.091,0,0,1,.47-.19c3.755-.566,6.761.216,8.935,2.324,4.611,4.471,3.62,13.26,3.575,13.633a1.092,1.092,0,0,1-.332.662c-15.388,14.61-51.423,48.823-67.363,73.462-16.753,25.894-26.745,49.128-32.3,75.149,10.575.589,21.466,1.275,31.931,4.009,12.249,3.2,22.268,8.975,28.976,16.7,15.814,18.214,7.5,45.864,1.13,60.725a215.771,215.771,0,0,1-29.389,48.836,1.091,1.091,0,0,1-.858.417m-19.576-15.358a213.821,213.821,0,0,0,19.307,12.842,213.068,213.068,0,0,0,28.511-47.6c14.362-33.528,5.681-51-.772-58.435-6.418-7.392-16.059-12.932-27.88-16.02-10.672-2.788-21.906-3.41-32.769-4.012a1.092,1.092,0,0,1-1.009-1.311c5.557-26.8,15.692-50.59,32.864-77.132,15.978-24.7,51.787-58.758,67.395-73.577.125-1.64.39-8.182-2.965-11.431-1.612-1.561-3.911-2.154-6.832-1.765-4.881,3.482-9.724,7.115-14.847,10.958C582.885,290.287,562.6,305.5,535.124,317.8l-.446-1,.446,1c-6.909,3.092-15.072,3.552-22.966,4-7.752.437-15.074.85-19.412,3.9-22.719,15.954-34.681,38.294-43.386,58.044-6.334,14.37-8.975,29.384-7.437,42.276a50.045,50.045,0,0,0,6.326,19.454,46.9,46.9,0,0,0,15.1,15.642c11.29,7.367,24.589,10.914,37.279,13.651,7.265,1.567,14.744,1.852,21.977,2.128,5.365.2,10.913.417,16.409,1.142,8.237,1.088,18.681,5.692,21,15.088,1.461,5.906-.739,11.971-2.914,17.193a251.662,251.662,0,0,1-17.329,34.03" transform="translate(-319.451 -191.682)" fill="#253081"/>
        <path id="Path_3576" data-name="Path 3576" d="M746.052,1353.575s1.553,12.708,7.7,20.945c.123-2.366-.184-3.813.276-5.41a2.817,2.817,0,0,1,3.037-2.1c1.86.261,2.474,2.337,2.773,4.078q1.224,7.135,1.854,14.355a31.752,31.752,0,0,1-.39,10.69,13.022,13.022,0,0,1-4.626,7.258,1.46,1.46,0,0,1-2.256-.7c-2.394-7.172-5.747-17.174-8.595-23.616-3.383-7.652-5.656-10.976-8.288-16.434-.066-3.2,8.065-8.559,8.511-9.068" transform="translate(-536.309 -984.263)" fill="#253081"/>
        <path id="Path_3577" data-name="Path 3577" d="M752.889,1401.866a2.545,2.545,0,0,1-.773-.12,2.516,2.516,0,0,1-1.637-1.616c-2.257-6.764-5.669-16.984-8.558-23.52-2.037-4.608-3.659-7.615-5.227-10.523-1.03-1.909-2-3.712-3.046-5.878a1.089,1.089,0,0,1-.108-.451c-.058-2.775,3.806-6.066,7.989-9.21.339-.255.721-.542.823-.632a1.091,1.091,0,0,1,1.874.62c.013.11,1.237,9.719,5.55,17.408a8.185,8.185,0,0,1,.3-2.042,3.924,3.924,0,0,1,4.238-2.877c2.913.408,3.5,3.845,3.7,4.974.818,4.767,1.446,9.627,1.866,14.445a32.624,32.624,0,0,1-.421,11.057,13.981,13.981,0,0,1-5.038,7.866,2.59,2.59,0,0,1-1.526.5m-17.154-42.355c.978,2.012,1.9,3.728,2.881,5.54,1.588,2.945,3.231,5.991,5.3,10.677,2.931,6.629,6.362,16.909,8.632,23.711a.344.344,0,0,0,.229.228.378.378,0,0,0,.347-.06,11.97,11.97,0,0,0,4.214-6.651,30.782,30.782,0,0,0,.359-10.322c-.414-4.759-1.034-9.558-1.842-14.265-.461-2.685-1.275-3.1-1.848-3.182a1.737,1.737,0,0,0-1.837,1.319,9.388,9.388,0,0,0-.212,2.8c.012.683.025,1.456-.022,2.362a1.091,1.091,0,0,1-1.964.6c-4.9-6.564-6.942-15.7-7.625-19.6-4.2,3.2-6.426,5.5-6.613,6.845m6.609-9.586-.021.023.021-.023" transform="translate(-533.399 -981.355)" fill="#253081"/>
        <path id="Path_3578" data-name="Path 3578" d="M675.41,335.651c-.466,10-10.136,18.63-17.657,19.98-10.237,1.838-23.173-1.706-24.9-11.983,4.654-14.647-4.134-50.752,20.74-53.969,9.633-1.246,17.494,5.17,20.375,15.069s1.444,18.519,1.444,30.9" transform="translate(-460.183 -210.53)" fill="#fff"/>
        <path id="Path_3579" data-name="Path 3579" d="M649.493,354.286c-5.524,0-10.824-1.453-14.628-4.13a14.021,14.021,0,0,1-6-9.238,1.094,1.094,0,0,1,.036-.512c1.3-4.1,1.523-10.136,1.755-16.525.58-15.947,1.3-35.792,19.884-38.2a18.057,18.057,0,0,1,13.52,3.569,23.348,23.348,0,0,1,8.043,12.278c2.17,7.456,1.943,14.261,1.682,22.141-.1,2.861-.193,5.82-.193,9.068,0,.017,0,.034,0,.051-.476,10.2-10.188,19.5-18.554,21a31.443,31.443,0,0,1-5.545.492m-18.429-13.48a11.746,11.746,0,0,0,5.057,7.565c4.541,3.2,11.814,4.481,18.531,3.275,7.4-1.328,16.321-9.884,16.758-18.932,0-3.274.1-6.243.195-9.114.266-8.01.476-14.336-1.6-21.458-2.857-9.82-10.392-15.428-19.187-14.292-16.749,2.167-17.4,20.2-17.983,36.111-.233,6.413-.454,12.477-1.775,16.845M672.5,332.74h0Z" transform="translate(-457.275 -207.619)" fill="#253081"/>
        <path id="Path_3580" data-name="Path 3580" d="M703.172,396.4a1.446,1.446,0,0,1,1.23,1.091c.248,1.045-1.02,1.588-1.869,1.35-1.464-.411-.742-2.457.587-2.446-.082,0,.135.006.053.005" transform="translate(-510.264 -288.241)" fill="#253081"/>
        <path id="Path_3581" data-name="Path 3581" d="M760.455,383.571a1.445,1.445,0,0,1-1.346-.943c-.366-1.01.832-1.695,1.7-1.555,1.5.24,1.018,2.356-.3,2.5.081-.009-.135.01-.053,0" transform="translate(-551.943 -277.087)" fill="#253081"/>
        <path id="Path_3582" data-name="Path 3582" d="M731.882,424.64a1.154,1.154,0,0,0-.449-.8c-.536-.4-.958-.361-5,.47-.485.1-.95.2-1.353.274a1.092,1.092,0,0,0-.87.916c-.232,1.622.193,4.527,1.869,5.908a2.953,2.953,0,0,0,1.876.731,2.572,2.572,0,0,0,1.2-.3c1.978-1.039,2.957-4.542,2.729-7.192" transform="translate(-526.569 -308.016)" fill="#253081"/>
        <path id="Path_3583" data-name="Path 3583" d="M654.044,292.2c-3.364-9.617-13.818-11.961-22.482-10.948a31.566,31.566,0,0,0-7.819,1.926c-5,1.974-11.333,6.027-14.115,11.482a39.051,39.051,0,0,0-3.816,12.608,26.11,26.11,0,0,0,.024,4.042c.12,2.116.245,4.3-.454,5.972-.976,2.329-3.9,3.919-6.145,4.233a1.091,1.091,0,0,0-.926,1.262,8.253,8.253,0,0,0,8.16,6.98c3.327,0,6.27-2.044,8.381-5.862,2.013-3.643,3.881-7.425,5.552-11.243,1.117-2.551,3.29-5.035,6.646-7.594.534-.407,1.13-.829,1.763-1.276,2.748-1.945,6.016-4.257,7.295-7.539A21.355,21.355,0,0,0,638,297.906c.13.106.251.2.359.294a19.5,19.5,0,0,0,6.112,3.875,7.843,7.843,0,0,0,8.343-1.721,8.219,8.219,0,0,0,1.234-8.157m-2.85,6.691c-1.507,1.661-4.117,1.758-6.035,1.118a17.583,17.583,0,0,1-5.408-3.483c-.114-.094-.241-.2-.378-.309-.805-.654-2.691-2.185-2.715-3.115h0a1.091,1.091,0,0,0-2.182.055c.1,3.877-3.632,6.516-6.922,8.844-.648.459-1.261.892-1.826,1.323-3.658,2.79-6.052,5.555-7.321,8.454-1.644,3.756-3.483,7.478-5.463,11.062-1.338,2.421-3.7,5.2-7.361,4.671a6.345,6.345,0,0,1-4.848-4.081c2.65-.72,5.533-2.61,6.663-5.3.893-2.132.754-4.576.62-6.94a24.16,24.16,0,0,1-.032-3.7,36.683,36.683,0,0,1,3.589-11.84c2.505-4.912,8.344-8.616,12.972-10.444a29.38,29.38,0,0,1,7.272-1.788c7.824-.915,17.23,1.1,20.168,9.5a6.033,6.033,0,0,1-.79,5.97" transform="translate(-435.056 -204.353)" fill="#253081"/>
        <path id="Path_3584" data-name="Path 3584" d="M634.6,285.23a30.4,30.4,0,0,0-7.545,1.857c-5.075,2-10.964,5.906-13.543,10.963a37.836,37.836,0,0,0-3.7,12.224c-.331,3.22.763,7.292-.509,10.325-1.114,2.656-4.332,4.519-7,4.891a7.416,7.416,0,0,0,6.039,5.995c3.926.563,6.716-2.048,8.471-5.223q3.007-5.44,5.508-11.153c1.423-3.25,4.207-5.906,6.983-8.024,3.465-2.643,9.311-5.763,9.177-11.062.04,1.6,2.411,3.342,3.487,4.237a18.4,18.4,0,0,0,5.76,3.679c2.451.818,5.433.515,7.189-1.419,1.663-1.833,1.836-4.707,1.012-7.064-3.085-8.821-12.718-11.231-21.325-10.225" transform="translate(-437.964 -207.252)" fill="#253081"/>
        <path id="Path_3585" data-name="Path 3585" d="M653.061,394.494a3.012,3.012,0,0,0-2.037-2.687,3.744,3.744,0,0,0-3.332.656,6.24,6.24,0,0,0-2.061,2.964,7.053,7.053,0,0,0,.932,6.706,4.614,4.614,0,0,0,6.084.966s1.855-.658,2.027-4.184c.159-3.264-1.613-4.42-1.613-4.42" transform="translate(-469.155 -284.793)" fill="#fff"/>
        <path id="Path_3586" data-name="Path 3586" d="M647.315,402.029a5.9,5.9,0,0,1-4.508-2.11,8.108,8.108,0,0,1-1.122-7.768,7.27,7.27,0,0,1,2.44-3.478,4.8,4.8,0,0,1,4.322-.816,4.1,4.1,0,0,1,2.788,3.689,1.091,1.091,0,0,1-2.182.07,1.931,1.931,0,0,0-1.287-1.685,2.662,2.662,0,0,0-2.342.5,5.188,5.188,0,0,0-1.682,2.45,5.98,5.98,0,0,0,.742,5.644,3.532,3.532,0,0,0,4.607.778,1.091,1.091,0,1,1,1.276,1.771,5.2,5.2,0,0,1-3.053.958" transform="translate(-466.238 -281.882)" fill="#253081"/>
        <path id="Path_3587" data-name="Path 3587" d="M782.52,370.555a2.677,2.677,0,0,1,1.7-2.435,2.53,2.53,0,0,1,2.5,1.029,7.227,7.227,0,0,1,1.4,3.176,8.514,8.514,0,0,1-1.086,6.549,2.925,2.925,0,0,1-4.685.267s-1.375-.864-1.308-4.383c.063-3.257,1.476-4.2,1.476-4.2" transform="translate(-567.941 -267.636)" fill="#fff"/>
        <path id="Path_3588" data-name="Path 3588" d="M785.123,378.371a3.959,3.959,0,0,1-3.011-1.427,1.091,1.091,0,1,1,1.647-1.432,1.793,1.793,0,0,0,1.416.676,2.121,2.121,0,0,0,1.58-.891,7.43,7.43,0,0,0,.882-5.663,6.163,6.163,0,0,0-1.166-2.69,1.523,1.523,0,0,0-1.38-.682,1.641,1.641,0,0,0-.9,1.471,1.091,1.091,0,1,1-2.175-.177,3.757,3.757,0,0,1,2.5-3.4,3.558,3.558,0,0,1,3.619,1.377,8.381,8.381,0,0,1,1.639,3.661,9.556,9.556,0,0,1-1.289,7.434,4.289,4.289,0,0,1-3.245,1.743l-.118,0" transform="translate(-568.525 -264.724)" fill="#253081"/>
        <path id="Path_3589" data-name="Path 3589" d="M482.1,891.375c-11.411,0-21.369-2.67-28.606-7.761a1.091,1.091,0,1,1,1.256-1.785c8.542,6.008,21.175,8.462,35.572,6.91s30.008-7.043,43.936-15.458a1.091,1.091,0,0,1,1.129,1.868c-14.195,8.577-30.116,14.173-44.831,15.76a78.966,78.966,0,0,1-8.456.465" transform="translate(-329.428 -634.899)" fill="#253081"/>
        <path id="Path_3590" data-name="Path 3590" d="M517.693,588c-19.135,32.841,9.845,62.068,26.839,71.321s44.333,9.909,66.737,6.694c3.9-3.08,3.321-13.092-.746-17.842-20.083-2.753-44.533-6.444-45.845-26.6Z" transform="translate(-371.864 -427.568)" fill="#fff"/>
        <path id="Path_3591" data-name="Path 3591" d="M584.188,665.95c-3.872,0-7.665-.142-11.331-.429-13.019-1.017-23.71-3.76-31.776-8.153-9.342-5.087-26.612-18.918-32.078-38.492-3.265-11.693-1.645-23.246,4.818-34.336a1.091,1.091,0,0,1,1.886,1.1c-6.154,10.562-7.7,21.547-4.6,32.65,2.2,7.863,6.809,15.807,13.34,22.973a71.437,71.437,0,0,0,17.679,14.189c7.795,4.245,18.192,6.9,30.9,7.893a162.581,162.581,0,0,0,34.846-1.276,7.671,7.671,0,0,0,1.94-4.9,16.355,16.355,0,0,0-2.794-10.88c-19.118-2.621-44.979-6.321-46.361-27.551a1.091,1.091,0,1,1,2.178-.142c.556,8.538,5.537,14.718,15.227,18.894,8.939,3.852,20.439,5.428,29.678,6.694a1.092,1.092,0,0,1,.681.371c2.586,3.021,4.018,8.174,3.564,12.825-.289,2.963-1.345,5.3-2.971,6.585a1.09,1.09,0,0,1-.521.223,172.382,172.382,0,0,1-24.307,1.765" transform="translate(-368.934 -424.659)" fill="#253081"/>
        <path id="Path_3592" data-name="Path 3592" d="M1083.986,195.535c20.409-16,30.571-27.565,33.439-27.265,2.562.268,1.622,2.42-.852,6.053a55.588,55.588,0,0,1-8.817,9.389,80.425,80.425,0,0,0,8.575-6.574c2.084-1.822,4.327-3.715,5.153-1.8,1.178,2.739-7.833,11.412-10.457,14.089,2.63-2.683,9.37-8.543,11.024-8.937,3.181-.758,1.085,3.476-.979,5.835-5.565,6.359-12.255,11.308-25.822,23.953a19.3,19.3,0,0,0-4.378-8.3,60.85,60.85,0,0,0-6.886-6.443" transform="translate(-788.229 -122.355)" fill="#fff"/>
        <path id="Path_3593" data-name="Path 3593" d="M1092.341,208.464a1.091,1.091,0,0,1-1.077-.915,18.569,18.569,0,0,0-4.138-7.781,60.14,60.14,0,0,0-6.731-6.291,1.092,1.092,0,0,1,.009-1.711c9.51-7.454,16.813-13.966,22.146-18.721,7.485-6.674,10.175-8.971,12.08-8.771a2.594,2.594,0,0,1,2.291,1.368c.649,1.4-.275,3.29-2.127,6.048,1.185-.861,2.218-1.323,3.21-1.1a2.235,2.235,0,0,1,1.573,1.409c.5,1.165-.008,2.757-1.328,4.77a3.149,3.149,0,0,1,.639-.249c1.682-.4,2.4.321,2.685.787,1.366,2.264-2.551,6.783-2.59,6.828a136.039,136.039,0,0,1-12.524,11.946c-3.535,3.125-7.934,7.015-13.375,12.086a1.093,1.093,0,0,1-.745.293m-9.523-15.819a53.868,53.868,0,0,1,5.982,5.723,22.992,22.992,0,0,1,4.1,6.992c4.864-4.5,8.853-8.031,12.11-10.911a134.688,134.688,0,0,0,12.327-11.748,10.049,10.049,0,0,0,2.338-4.106,2.393,2.393,0,0,0-.285.052c-1.031.255-6.945,5.018-10.5,8.64a1.091,1.091,0,1,1-1.559-1.528l0,0c.236-.241.524-.53.851-.859,1.6-1.613,4.289-4.312,6.379-6.853,3.395-4.127,3.006-5.169,3-5.18a.714.714,0,0,0-.08-.146c-.651-.043-2.607,1.679-3.353,2.331a81.709,81.709,0,0,1-8.681,6.656,1.091,1.091,0,0,1-1.343-1.715,54.962,54.962,0,0,0,8.646-9.192c2.1-3.078,2.237-3.968,2.183-4.219a1.357,1.357,0,0,0-.543-.135h-.022c-1.149,0-5.633,4-10.379,8.229-5.154,4.595-12.141,10.825-21.185,17.97" transform="translate(-785.32 -119.445)" fill="#253081"/>
        <path id="Path_3594" data-name="Path 3594" d="M874.718,790.751c17.555,2.071,35.976-8.175,38.315-6.486,2.089,1.509-.021,3.1-1.295,3.9-3.455,2.166-9.276,3.318-13.108,4.715,3.544-.987,9.554-2.542,13.207-3.869,2.087-.758,5.948-1.022,5.711,1.056-.34,2.962-12.579,6.569-16.185,7.584,3.615-1.017,13.066-3.467,14.742-3.177,2.2.381,2.344,1.392.125,2.948-6.917,4.85-22.116,9.645-40.766,11.169a52.325,52.325,0,0,0,1.569-8.894,17.6,17.6,0,0,0-2.315-8.949" transform="translate(-636.058 -570.147)" fill="#fff"/>
        <path id="Path_3595" data-name="Path 3595" d="M872.557,806.778A1.091,1.091,0,0,1,871.5,805.4a51.537,51.537,0,0,0,1.532-8.664,16.621,16.621,0,0,0-2.156-8.327,1.092,1.092,0,0,1,1.06-1.652c11,1.3,22.35-2.345,29.863-4.756,5.459-1.752,7.724-2.426,8.963-1.531a2.739,2.739,0,0,1,1.334,2.338,2.851,2.851,0,0,1-.669,1.675,5.122,5.122,0,0,1,3.451.719,2.236,2.236,0,0,1,.844,2.082c-.058.511-.181,1.58-2.812,3.175a2.521,2.521,0,0,1,.471.032c.563.1,2.275.394,2.584,1.774.3,1.338-1.009,2.435-2.018,3.143-7.833,5.492-24.045,9.953-41.3,11.363-.03,0-.06,0-.089,0m1.109-17.666a17.738,17.738,0,0,1,1.549,7.735,46.887,46.887,0,0,1-1.23,7.62c19.7-1.808,33.128-6.929,38.71-10.844a5.489,5.489,0,0,0,.97-.818,4.09,4.09,0,0,0-.655-.161c-1.091-.184-8.427,1.511-14.261,3.152a1.091,1.091,0,0,1-.591-2.1h0c2.439-.686,6.017-1.768,9.213-3.026,5.97-2.351,6.181-3.619,6.183-3.631a.279.279,0,0,0,0-.1c-.237-.356-2.357-.5-4.253.191-2.959,1.074-7.356,2.274-10.89,3.237-.873.237-1.685.459-2.4.657a1.091,1.091,0,0,1-.667-2.076c1.285-.469,2.753-.9,4.307-1.357,3-.881,6.4-1.879,8.6-3.258,1.629-1.02,1.665-1.574,1.666-1.6,0-.086-.117-.261-.388-.466-.778-.207-4.115.863-7.061,1.809-7.249,2.326-17.989,5.774-28.8,5.03" transform="translate(-633.151 -567.24)" fill="#253081"/>
        <path id="Path_3596" data-name="Path 3596" d="M496.947,1634.3a1.091,1.091,0,0,1-.7-1.928l28.667-23.97a1.091,1.091,0,1,1,1.4,1.674l-28.667,23.969a1.088,1.088,0,0,1-.7.254" transform="translate(-360.565 -1169.378)" fill="#bca8ff"/>
        <path id="Path_3597" data-name="Path 3597" d="M1.093,1171.564a1.091,1.091,0,0,1-.611-2c21.24-14.318,62.54-39.622,62.954-39.876a1.091,1.091,0,0,1,1.14,1.861c-.414.254-41.674,25.534-62.875,39.824a1.085,1.085,0,0,1-.609.187" transform="translate(0 -821.348)" fill="#bca8ff"/>
        <path id="Path_3598" data-name="Path 3598" d="M92.42,1061.387a1.091,1.091,0,0,1-.56-2.029l25.379-15.142a1.091,1.091,0,1,1,1.118,1.874l-25.38,15.142a1.086,1.086,0,0,1-.558.154" transform="translate(-66.409 -759.198)" fill="#bca8ff"/>
        <path id="Path_3599" data-name="Path 3599" d="M1325.574,349.294c3.608-1.119,8.388,2.208,8.021,6.182-.366,3.959-5.555,6.538-8.931,4.438-2.822-1.754-3.32-7.009-1.058-9.391a4.544,4.544,0,0,1,1.968-1.23" transform="translate(-961.437 -253.833)" fill="#bca8ff"/>
        <path id="Path_3600" data-name="Path 3600" d="M982.688,166.355c1.976-.613,4.6,1.209,4.394,3.387a3.379,3.379,0,0,1-4.892,2.431,3.71,3.71,0,0,1-.58-5.144,2.492,2.492,0,0,1,1.078-.674" transform="translate(-713.219 -120.879)" fill="#bca8ff"/>
        <path id="Path_3601" data-name="Path 3601" d="M1067.911,530.914c1.976-.613,4.6,1.209,4.394,3.386a3.38,3.38,0,0,1-4.892,2.431,3.71,3.71,0,0,1-.58-5.144,2.493,2.493,0,0,1,1.078-.674" transform="translate(-775.19 -385.971)" fill="#bca8ff"/>
        <path id="Path_3602" data-name="Path 3602" d="M1482.907,139.989c1.976-.613,4.595,1.209,4.394,3.387a3.379,3.379,0,0,1-4.892,2.431,3.71,3.71,0,0,1-.58-5.144,2.491,2.491,0,0,1,1.078-.674" transform="translate(-1076.958 -101.706)" fill="#bca8ff"/>
      </g>
    </g>
  </g>
</svg>
