<?xml version="1.0" encoding="utf-8"?>
<!-- Generator: Adobe Illustrator 27.5.0, SVG Export Plug-In . SVG Version: 6.00 Build 0)  -->
<svg version="1.1" id="Ebene_1" xmlns="http://www.w3.org/2000/svg" xmlns:xlink="http://www.w3.org/1999/xlink" x="0px" y="0px"
	 width="40px" height="23.6px" viewBox="0 0 40 23.6" style="enable-background:new 0 0 40 23.6;" xml:space="preserve">
<style type="text/css">
	.st0{fill:#ffffff;}
</style>
<g>
	<path class="st0" d="M22,18.4c-0.2,0-0.3,0-0.5-0.1l-10.7-4.9v8.3c0,0.4,0.3,0.7,0.7,0.8c3.5,0.7,7,1.1,10.5,1.1l0,0
		c3.5,0,7-0.4,10.5-1.1c0.4-0.1,0.7-0.4,0.7-0.8v-8.3l-10.7,4.9C22.4,18.3,22.2,18.4,22,18.4z"/>
	<path class="st0" d="M6.9,22.4C6.9,22.3,6.9,22.3,6.9,22.4c0-0.1,0-0.1,0-0.1v0l-1.5-4.9c0.5-0.5,0.8-1.2,0.8-1.9
		c0-1.2-0.8-2.3-1.9-2.6l0-2.7l3.2,0.3l14.1,6.5L40,8.4L21.6,0L3.2,8.4c0,0,0,0,0,0c0,0,0,0,0,0c0,0,0,0,0,0c0,0,0,0,0,0
		c0,0,0,0,0,0c0,0,0,0,0,0c0,0,0,0,0,0c0,0,0,0,0,0c0,0,0,0,0,0c0,0,0,0,0,0c0,0,0,0,0,0c0,0,0,0,0,0s0,0,0,0c0,0,0,0,0,0
		c0,0,0,0,0,0c0,0,0,0,0,0c0,0,0,0,0,0c0,0,0,0,0,0c0,0,0,0,0,0c0,0,0,0,0,0c0,0,0,0,0,0c0,0,0,0,0,0s0,0,0,0v0v0v0v3.7
		c-1.1,0.3-1.9,1.4-1.9,2.6c0,0.7,0.3,1.4,0.8,1.9L0,22.2v0c0,0,0,0.1,0,0.1c0,0,0,0,0,0c0,0,0,0,0,0c0,0,0,0.1,0,0.1v0v0v0.1v0
		c0,0,0,0.1,0,0.1c0,0,0,0,0,0c0,0,0,0,0,0c0,0,0,0,0,0.1c0,0,0,0,0,0c0,0,0,0,0,0.1c0,0,0,0,0,0c0,0,0,0,0,0c0,0,0,0,0,0
		c0,0,0,0,0,0c0,0,0,0,0,0c0,0,0,0,0,0c0,0,0,0,0,0c0,0,0,0,0,0l0.1,0.1c0,0,0,0,0.1,0c0,0,0,0,0,0c0,0,0,0,0,0c0,0,0.1,0,0.1,0
		c0,0,0,0,0,0c0,0,0,0,0.1,0c0,0,0,0,0.1,0c0,0,0,0,0,0c0,0,0,0,0.1,0h0c0,0,0.1,0,0.1,0h0h5.3h0c0,0,0.1,0,0.1,0h0c0,0,0,0,0.1,0
		c0,0,0,0,0,0c0,0,0,0,0.1,0c0,0,0,0,0.1,0c0,0,0,0,0,0c0,0,0.1,0,0.1,0c0,0,0,0,0,0c0,0,0,0,0,0c0,0,0,0,0.1,0l0,0c0,0,0,0,0,0
		c0,0,0,0,0,0c0,0,0,0,0,0c0,0,0,0,0,0c0,0,0,0,0,0c0,0,0,0,0,0c0,0,0,0,0,0c0,0,0,0,0,0c0,0,0,0,0,0c0,0,0,0,0-0.1c0,0,0,0,0,0
		c0,0,0,0,0-0.1c0,0,0,0,0,0c0,0,0,0,0-0.1c0,0,0-0.1,0-0.1v0v-0.1v0v0C7,22.4,7,22.4,6.9,22.4C6.9,22.4,6.9,22.4,6.9,22.4z
		 M22.4,8.4c0,0.4-0.3,0.8-0.7,0.9L7.4,10.4L4.9,9l16.6-1.3C21.9,7.6,22.3,7.9,22.4,8.4z"/>
</g>
</svg>
