<?xml version="1.0" encoding="utf-8"?>
<!-- Generator: Adobe Illustrator 27.5.0, SVG Export Plug-In . SVG Version: 6.00 Build 0)  -->
<svg version="1.1" id="Ebene_1" xmlns="http://www.w3.org/2000/svg" xmlns:xlink="http://www.w3.org/1999/xlink" x="0px" y="0px"
	 width="40px" height="33.9px" viewBox="0 0 40 33.9" style="enable-background:new 0 0 40 33.9;" xml:space="preserve">
<style type="text/css">
	.st0{fill-rule:evenodd;clip-rule:evenodd;fill:#ffffff;}
	.st1{fill:#ffffff;}
</style>
<g>
	<g>
		<polygon class="st0" points="15.4,10.3 15.3,10.3 15.3,10.8 14.9,14.1 15.8,14.1 15.4,10.8 		"/>
		<path class="st0" d="M25.2,1.6c0-0.9-0.7-1.6-1.6-1.6h-11C5.6,0,0,5.6,0,12.6c0,6.9,5.6,12.6,12.6,12.6v8.7
			c6.9,0,12.6-5.6,12.6-12.6c0-0.2,0-0.4,0-0.5c0,0,0-0.1,0-0.1V1.6z M9.9,17.5L9,13.1h0l-0.4,1v3.4H7.1V7.9h1.4v3.2v0.2h0.1
			l0.1-0.2l1.1-3.2h1.5l-1.3,3.2l1.5,6.5H9.9z M16.3,17.5l-0.3-2h-1.4l-0.3,2H13l1.5-9.6h1.7l1.5,9.6H16.3z M21.1,11
			c0.2,0.3,0.5,0.7,0.8,1.2c0.4,0.5,0.7,1,1,1.5c0.3,0.5,0.4,0.9,0.4,1.5c0,0.3,0,0.7-0.1,1c-0.1,0.3-0.2,0.6-0.4,0.8
			c-0.2,0.2-0.4,0.4-0.6,0.5c-0.2,0.1-0.5,0.2-0.9,0.2c-0.4,0-0.7-0.1-1-0.2c-0.3-0.1-0.5-0.3-0.6-0.6c-0.1-0.2-0.3-0.5-0.3-0.9
			c-0.1-0.3-0.1-0.7-0.1-1.2l1.4-0.1c0,0.2,0,0.4,0,0.6c0,0.2,0,0.4,0.1,0.5c0,0.2,0.1,0.3,0.2,0.4c0.1,0.1,0.2,0.1,0.3,0.1
			c0.2,0,0.4-0.1,0.4-0.3c0.1-0.2,0.1-0.4,0.1-0.7c0-0.3-0.1-0.6-0.2-0.9c-0.1-0.3-0.3-0.6-0.5-0.8c-0.3-0.5-0.6-0.9-0.9-1.3
			c-0.3-0.4-0.5-0.8-0.6-1.1c-0.1-0.4-0.2-0.8-0.2-1.2c0-0.3,0-0.6,0.1-0.9s0.2-0.5,0.4-0.7c0.2-0.2,0.4-0.4,0.6-0.5
			c0.2-0.1,0.5-0.2,0.8-0.2c0.4,0,0.7,0.1,0.9,0.2c0.3,0.1,0.5,0.3,0.6,0.5C23,8.7,23.1,9,23.2,9.3c0.1,0.3,0.1,0.7,0.1,1l-1.4,0.1
			c0-0.2,0-0.3,0-0.5c0-0.2,0-0.3-0.1-0.4c0-0.1-0.1-0.2-0.2-0.3c-0.1-0.1-0.2-0.1-0.3-0.1c-0.2,0-0.3,0.1-0.4,0.2
			c-0.1,0.2-0.1,0.4-0.1,0.7C20.8,10.3,20.9,10.7,21.1,11z"/>
	</g>
	<path class="st1" d="M27.1,17.6c-0.4,0-0.7-0.1-1-0.2c-0.3-0.1-0.5-0.3-0.6-0.6c-0.1-0.2-0.3-0.5-0.3-0.9c-0.1-0.3-0.1-0.7-0.1-1.2
		l1.4-0.1c0,0.2,0,0.4,0,0.6c0,0.2,0,0.4,0.1,0.5c0,0.2,0.1,0.3,0.2,0.4c0.1,0.1,0.2,0.1,0.3,0.1c0.2,0,0.4-0.1,0.4-0.3
		c0.1-0.2,0.1-0.4,0.1-0.7s-0.1-0.6-0.2-0.9c-0.1-0.3-0.3-0.6-0.5-0.8c-0.3-0.5-0.6-0.9-0.9-1.3c-0.3-0.4-0.5-0.8-0.6-1.1
		c-0.1-0.4-0.2-0.8-0.2-1.2c0-0.3,0-0.6,0.1-0.9c0.1-0.3,0.2-0.5,0.4-0.7c0.2-0.2,0.4-0.4,0.6-0.5c0.2-0.1,0.5-0.2,0.8-0.2
		c0.4,0,0.7,0.1,0.9,0.2c0.3,0.1,0.5,0.3,0.6,0.5c0.2,0.2,0.3,0.5,0.3,0.8c0.1,0.3,0.1,0.7,0.1,1l-1.4,0.1c0-0.2,0-0.3,0-0.5
		c0-0.2,0-0.3-0.1-0.4c0-0.1-0.1-0.2-0.2-0.3c-0.1-0.1-0.2-0.1-0.3-0.1c-0.2,0-0.3,0.1-0.4,0.2c-0.1,0.2-0.1,0.4-0.1,0.7
		c0,0.4,0.1,0.7,0.3,1.1c0.2,0.3,0.5,0.7,0.8,1.2c0.4,0.5,0.7,1,1,1.5c0.3,0.5,0.4,0.9,0.4,1.5c0,0.3,0,0.7-0.1,1
		c-0.1,0.3-0.2,0.6-0.4,0.8c-0.2,0.2-0.4,0.4-0.6,0.5C27.7,17.6,27.4,17.6,27.1,17.6z"/>
	<path class="st1" d="M31.1,17.5V7.9h3.2v1.5h-1.8v2.6h1.3v1.4h-1.3v2.7h1.8v1.5H31.1z"/>
	<path class="st1" d="M36.7,17.5V7.9h1.4v8.3H40v1.3H36.7z"/>
</g>
</svg>
