<?xml version="1.0" encoding="utf-8"?>
<!-- Generator: Adobe Illustrator 27.8.0, SVG Export Plug-In . SVG Version: 6.00 Build 0)  -->
<svg version="1.1" id="Ebene_1" xmlns="http://www.w3.org/2000/svg" xmlns:xlink="http://www.w3.org/1999/xlink" x="0px" y="0px"
	 viewBox="0 0 390 842" style="enable-background:new 0 0 390 842;" xml:space="preserve">
<style type="text/css">
	.st0{clip-path:url(#SVGID_00000084510619050382528370000016019548640178536602_);}
	.st1{fill:#202974;}
	.st2{fill:#253081;}
</style>
<g>
	<defs>
		<rect id="SVGID_1_" width="390" height="842"/>
	</defs>
	<clipPath id="SVGID_00000114766669798214591320000009613746385230637491_">
		<use xlink:href="#SVGID_1_"  style="overflow:visible;"/>
	</clipPath>
	<g id="Gruppe_maskieren_16" style="clip-path:url(#SVGID_00000114766669798214591320000009613746385230637491_);">
		<g id="hintergrund_header" transform="translate(0 95)">
			<g>
				<path class="st1" d="M-126.9-759.4l24.5-4.8l-0.6-2.9l-24.5,4.8L-126.9-759.4z M-156.1-730.2c1.6-8,5.7-15.2,11.7-20.5l-2-2.2
					c-6.5,5.8-11,13.6-12.7,22.2L-156.1-730.2L-156.1-730.2z M-149.4-681.5l-4.8-24.5l-2.9,0.6l4.8,24.5L-149.4-681.5z
					 M-139.9-632.4l-4.8-24.5l-2.9,0.6l4.8,24.5L-139.9-632.4z M-130.4-583.3l-4.8-24.5l-2.9,0.6l4.8,24.5L-130.4-583.3z
					 M-120.8-534.3l-4.8-24.5l-2.9,0.6l4.8,24.5L-120.8-534.3z M-111.3-485.2l-4.8-24.5l-2.9,0.6l4.8,24.5L-111.3-485.2z
					 M-101.7-436.1l-4.8-24.5l-2.9,0.6l4.8,24.5L-101.7-436.1z M-92.2-387l-4.8-24.5l-2.9,0.6l4.8,24.5L-92.2-387z M-82.7-337.9
					l-4.8-24.5l-2.9,0.6l4.8,24.5L-82.7-337.9z M-73.1-288.9l-4.8-24.5l-2.9,0.6l4.8,24.5L-73.1-288.9z M-63.6-239.8l-4.8-24.5
					l-2.9,0.6l4.8,24.5L-63.6-239.8z M-54-190.7l-4.8-24.5l-2.9,0.6l4.8,24.5L-54-190.7z M-44.5-141.6l-4.8-24.5l-2.9,0.6l4.8,24.5
					L-44.5-141.6z M-35-92.5l-4.8-24.5l-2.9,0.6l4.8,24.5L-35-92.5z M-25.4-43.5L-30.2-68l-2.9,0.6l4.8,24.5L-25.4-43.5z M-15.9,5.6
					l-4.8-24.5l-2.9,0.6l4.8,24.5L-15.9,5.6z M-6.3,54.7l-4.8-24.5l-2.9,0.6l4.8,24.5L-6.3,54.7z M3.2,103.8l-4.8-24.5l-2.9,0.6
					l4.8,24.5L3.2,103.8z M12.7,152.9L8,128.3L5,128.9l4.8,24.5L12.7,152.9z M22.3,202l-4.8-24.5l-2.9,0.6l4.8,24.5L22.3,202z
					 M31.8,251l-4.8-24.5l-2.9,0.6l4.8,24.5L31.8,251z M41.4,300.1l-4.8-24.5l-2.9,0.6l4.8,24.5L41.4,300.1z M50.9,349.2l-4.8-24.5
					l-2.9,0.6l4.8,24.5L50.9,349.2z M60.4,398.3l-4.8-24.5l-2.9,0.6l4.8,24.5L60.4,398.3z M70,447.4l-4.8-24.5l-2.9,0.6l4.8,24.5
					L70,447.4z M79.5,496.4l-4.8-24.5l-2.9,0.6l4.8,24.5L79.5,496.4z M89.1,545.5L84.3,521l-2.9,0.6l4.8,24.5L89.1,545.5z
					 M98.6,594.6l-4.8-24.5l-2.9,0.6l4.8,24.5L98.6,594.6z M110.1,642.5c-2.1-3.6-3.7-7.6-4.5-11.9l-2.2-11.5l-2.9,0.6l2.2,11.5
					c0.9,4.7,2.6,9,4.9,12.8L110.1,642.5z M151.7,659.4l-2.8,0.5c-2.4,0.5-4.8,0.7-7.1,0.7c-4.8,0-9.5-0.9-13.8-2.7l-1.1,2.8
					c4.7,1.9,9.7,2.9,15,2.9c2.5,0,5.1-0.2,7.7-0.7l2.8-0.5L151.7,659.4L151.7,659.4z M200.8,649.8l-24.5,4.8l0.6,2.9l24.5-4.8
					L200.8,649.8z M249.9,640.3l-24.5,4.8l0.6,2.9l24.5-4.8L249.9,640.3z M299,630.7l-24.5,4.8l0.6,2.9l24.5-4.8L299,630.7z
					 M348.1,621.2l-24.5,4.8l0.6,2.9l24.5-4.8L348.1,621.2z M397.2,611.7l-24.5,4.8l0.6,2.9l24.5-4.8L397.2,611.7z M446.2,602.1
					l-24.5,4.8l0.6,2.9l24.5-4.8L446.2,602.1z M495.3,592.6l-24.5,4.8l0.6,2.9l24.5-4.8L495.3,592.6z M544.4,583l-24.5,4.8l0.6,2.9
					L545,586L544.4,583z M593.5,573.5l-24.5,4.8l0.6,2.9l24.5-4.8L593.5,573.5z M642.6,563.9l-24.5,4.8l0.6,2.9l24.5-4.8
					L642.6,563.9z M691.6,554.4l-24.5,4.8l0.6,2.9l24.5-4.8L691.6,554.4z M740.7,544.9l-24.5,4.8l0.6,2.9l24.5-4.8L740.7,544.9z
					 M789.8,535.3l-24.5,4.8l0.6,2.9l24.5-4.8L789.8,535.3z M838.9,525.8l-24.5,4.8l0.6,2.9l24.5-4.8L838.9,525.8z M888,516.2
					l-24.5,4.8l0.6,2.9l24.5-4.8L888,516.2z M937,506.7l-24.5,4.8l0.6,2.9l24.5-4.8L937,506.7z M986.1,497.2l-24.5,4.8l0.6,2.9
					l24.5-4.8L986.1,497.2z M1035.2,487.6l-24.5,4.8l0.6,2.9l24.5-4.8L1035.2,487.6z M1084.3,478.1l-24.5,4.8l0.6,2.9l24.5-4.8
					L1084.3,478.1z M1133.4,468.5l-24.5,4.8l0.6,2.9l24.5-4.8L1133.4,468.5z M1182.5,459l-24.5,4.8l0.6,2.9l24.5-4.8L1182.5,459z
					 M1231.5,449.5l-24.5,4.8l0.6,2.9l24.5-4.8L1231.5,449.5z M1280.6,439.9l-24.5,4.8l0.6,2.9l24.5-4.8L1280.6,439.9z
					 M1329.7,430.4l-24.5,4.8l0.6,2.9l24.5-4.8L1329.7,430.4z M1378.8,420.8l-24.5,4.8l0.6,2.9l24.5-4.8L1378.8,420.8z
					 M1427.9,411.3l-24.5,4.8l0.6,2.9l24.5-4.8L1427.9,411.3z M1476.9,401.8l-24.5,4.8l0.6,2.9l24.5-4.8L1476.9,401.8z M1526,392.2
					l-24.5,4.8l0.6,2.9l24.5-4.8L1526,392.2z M1575.1,382.7l-24.5,4.8l0.6,2.9l24.5-4.8L1575.1,382.7z M1624.2,373.1l-24.5,4.8
					l0.6,2.9l24.5-4.8L1624.2,373.1z M1673.3,363.6l-24.5,4.8l0.6,2.9l24.5-4.8L1673.3,363.6z M1722.3,354.1l-24.5,4.8l0.6,2.9
					l24.5-4.8L1722.3,354.1z M1771.4,344.5l-24.5,4.8l0.6,2.9l24.5-4.8L1771.4,344.5z M1820.5,335l-24.5,4.8l0.6,2.9l24.5-4.8
					L1820.5,335z M1869.6,325.4l-24.5,4.8l0.6,2.9l24.5-4.8L1869.6,325.4z M1918.7,315.9l-24.5,4.8l0.6,2.9l24.5-4.8L1918.7,315.9z
					 M1967.8,306.4l-24.5,4.8l0.6,2.9l24.5-4.8L1967.8,306.4z M2016.8,296.8l-24.5,4.8l0.6,2.9l24.5-4.8L2016.8,296.8z
					 M2065.9,287.3l-24.5,4.8l0.6,2.9l24.5-4.8L2065.9,287.3z M2115,277.7l-24.5,4.8l0.6,2.9l24.5-4.8L2115,277.7z M2160.8,262.4
					c-5,5-11.6,8.7-19.1,10.1l-2.2,0.4l0.6,2.9l2.2-0.4c8.1-1.6,15.2-5.5,20.6-10.9L2160.8,262.4L2160.8,262.4z M2168.6,217.1
					l2.4,12.1c0.5,2.4,0.7,4.8,0.7,7.1c0,1.7-0.1,3.4-0.3,5l3,0.4c0.2-1.8,0.4-3.6,0.4-5.4c0-2.5-0.2-5.1-0.7-7.7l-2.4-12.1
					L2168.6,217.1L2168.6,217.1z M2159.1,168l4.8,24.5l2.9-0.6l-4.8-24.5L2159.1,168z M2149.5,118.9l4.8,24.5l2.9-0.6l-4.8-24.5
					L2149.5,118.9z M2140,69.8l4.8,24.5l2.9-0.6l-4.8-24.5L2140,69.8z M2130.4,20.8l4.8,24.5l2.9-0.6l-4.8-24.5L2130.4,20.8z
					 M2120.9-28.3l4.8,24.5l2.9-0.6l-4.8-24.5L2120.9-28.3z M2111.4-77.4l4.8,24.5l2.9-0.6l-4.8-24.5L2111.4-77.4z M2101.8-126.5
					l4.8,24.5l2.9-0.6l-4.8-24.5L2101.8-126.5z M2092.3-175.6l4.8,24.5l2.9-0.6l-4.8-24.5L2092.3-175.6z M2082.7-224.7l4.8,24.5
					l2.9-0.6l-4.8-24.5L2082.7-224.7z M2073.2-273.7l4.8,24.5l2.9-0.6l-4.8-24.5L2073.2-273.7z M2063.7-322.8l4.8,24.5l2.9-0.6
					l-4.8-24.5L2063.7-322.8z M2054.1-371.9l4.8,24.5l2.9-0.6l-4.8-24.5L2054.1-371.9z M2044.6-421l4.8,24.5l2.9-0.6l-4.8-24.5
					L2044.6-421z M2035-470.1l4.8,24.5l2.9-0.6l-4.8-24.5L2035-470.1z M2025.5-519.1l4.8,24.5l2.9-0.6l-4.8-24.5L2025.5-519.1z
					 M2016-568.2l4.8,24.5l2.9-0.6l-4.8-24.5L2016-568.2z M2006.4-617.3l4.8,24.5l2.9-0.6l-4.8-24.5L2006.4-617.3z M1996.9-666.4
					l4.8,24.5l2.9-0.6l-4.8-24.5L1996.9-666.4z M1987.3-715.5l4.8,24.5l2.9-0.6l-4.8-24.5L1987.3-715.5z M1977.8-764.5l4.8,24.5
					l2.9-0.6l-4.8-24.5L1977.8-764.5z M1968.3-813.6l4.8,24.5l2.9-0.6l-4.8-24.5L1968.3-813.6z M1958.7-862.7l4.8,24.5l2.9-0.6
					l-4.8-24.5L1958.7-862.7z M1949.2-911.8l4.8,24.5l2.9-0.6l-4.8-24.5L1949.2-911.8z M1939.6-960.9l4.8,24.5l2.9-0.6l-4.8-24.5
					L1939.6-960.9z M1930.1-1010l4.8,24.5l2.9-0.6l-4.8-24.5L1930.1-1010z M1920.6-1059l4.8,24.5l2.9-0.6l-4.8-24.5L1920.6-1059z
					 M1911-1108.1l4.8,24.5l2.9-0.6l-4.8-24.5L1911-1108.1z M1884.8-1145.4c7.6,2.6,14.2,7.6,18.8,14.3l2.5-1.7
					c-4.9-7.3-12.1-12.7-20.3-15.5L1884.8-1145.4L1884.8-1145.4z M1836.4-1141l24.5-4.8l-0.6-2.9l-24.5,4.8L1836.4-1141z
					 M1787.3-1131.4l24.5-4.8l-0.6-2.9l-24.5,4.8L1787.3-1131.4z M1738.2-1121.9l24.5-4.8l-0.6-2.9l-24.5,4.8L1738.2-1121.9z
					 M1689.1-1112.4l24.5-4.8l-0.6-2.9l-24.5,4.8L1689.1-1112.4z M1640-1102.8l24.5-4.8l-0.6-2.9l-24.5,4.8L1640-1102.8z
					 M1591-1093.3l24.5-4.8l-0.6-2.9l-24.5,4.8L1591-1093.3z M1541.9-1083.7l24.5-4.8l-0.6-2.9l-24.5,4.8L1541.9-1083.7z
					 M1492.8-1074.2l24.5-4.8l-0.6-2.9l-24.5,4.8L1492.8-1074.2z M1443.7-1064.7l24.5-4.8l-0.6-2.9l-24.5,4.8L1443.7-1064.7z
					 M1394.6-1055.1l24.5-4.8l-0.6-2.9l-24.5,4.8L1394.6-1055.1z M1345.6-1045.6l24.5-4.8l-0.6-2.9l-24.5,4.8L1345.6-1045.6z
					 M1296.5-1036l24.5-4.8l-0.6-2.9l-24.5,4.8L1296.5-1036z M1247.4-1026.5l24.5-4.8l-0.6-2.9l-24.5,4.8L1247.4-1026.5z
					 M1198.3-1017l24.5-4.8l-0.6-2.9l-24.5,4.8L1198.3-1017z M1149.2-1007.4l24.5-4.8l-0.6-2.9l-24.5,4.8L1149.2-1007.4z
					 M1100.1-997.9l24.5-4.8l-0.6-2.9l-24.5,4.8L1100.1-997.9z M1051.1-988.3l24.5-4.8l-0.6-2.9l-24.5,4.8L1051.1-988.3z
					 M1002-978.8l24.5-4.8l-0.6-2.9l-24.5,4.8L1002-978.8z M952.9-969.3l24.5-4.8l-0.6-2.9l-24.5,4.8L952.9-969.3z M903.8-959.7
					l24.5-4.8l-0.6-2.9l-24.5,4.8L903.8-959.7z M854.7-950.2l24.5-4.8l-0.6-2.9l-24.5,4.8L854.7-950.2z M805.7-940.6l24.5-4.8
					l-0.6-2.9l-24.5,4.8L805.7-940.6z M756.6-931.1l24.5-4.8l-0.6-2.9L756-934L756.6-931.1z M707.5-921.6l24.5-4.8l-0.6-2.9
					l-24.5,4.8L707.5-921.6z M658.4-912l24.5-4.8l-0.6-2.9l-24.5,4.8L658.4-912z M609.3-902.5l24.5-4.8l-0.6-2.9l-24.5,4.8
					L609.3-902.5z M560.3-892.9l24.5-4.8l-0.6-2.9l-24.5,4.8L560.3-892.9z M511.2-883.4l24.5-4.8l-0.6-2.9l-24.5,4.8L511.2-883.4z
					 M462.1-873.9l24.5-4.8l-0.6-2.9l-24.5,4.8L462.1-873.9z M413-864.3l24.5-4.8L437-872l-24.5,4.8L413-864.3z M363.9-854.8
					l24.5-4.8l-0.6-2.9l-24.5,4.8L363.9-854.8z M314.8-845.2l24.5-4.8l-0.6-2.9l-24.5,4.8L314.8-845.2z M265.8-835.7l24.5-4.8
					l-0.6-2.9l-24.5,4.8L265.8-835.7z M216.7-826.2l24.5-4.8l-0.6-2.9l-24.5,4.8L216.7-826.2z M167.6-816.6l24.5-4.8l-0.6-2.9
					l-24.5,4.8L167.6-816.6z M118.5-807.1l24.5-4.8l-0.6-2.9l-24.5,4.8L118.5-807.1z M69.4-797.5l24.5-4.8l-0.6-2.9l-24.5,4.8
					L69.4-797.5z M20.4-788l24.5-4.8l-0.6-2.9l-24.5,4.8L20.4-788z M-28.7-778.4l24.5-4.8l-0.6-2.9l-24.5,4.8L-28.7-778.4z
					 M-77.8-768.9l24.5-4.8l-0.6-2.9l-24.5,4.8L-77.8-768.9z"/>
			</g>
			<g id="Rechteck_328" transform="translate(-247.532 -766.86) rotate(-11)">
				<path class="st2" d="M25,0l2060,0c13.8,0,25,11.2,25,25v1401.8c0,13.8-11.2,25-25,25l-2060,0c-13.8,0-25-11.2-25-25L0,25
					C0,11.2,11.2,0,25,0z"/>
			</g>
		</g>
	</g>
</g>
</svg>
