<?xml version="1.0" encoding="utf-8"?>
<!-- Generator: Adobe Illustrator 27.8.0, SVG Export Plug-In . SVG Version: 6.00 Build 0)  -->
<svg version="1.1" id="Ebene_1" xmlns="http://www.w3.org/2000/svg" xmlns:xlink="http://www.w3.org/1999/xlink" x="0px" y="0px"
	 viewBox="0 0 1920 1080" style="enable-background:new 0 0 1920 1080;" xml:space="preserve">
<style type="text/css">
	.st0{clip-path:url(#SVGID_00000047744685631025443510000017777475913798028676_);}
	.st1{fill:#202974;}
	.st2{clip-path:url(#SVGID_00000047744685631025443510000017777475913798028676_);fill:#253081;}
</style>
<g>
	<defs>
		<rect id="SVGID_1_" width="1920" height="1080"/>
	</defs>
	<clipPath id="SVGID_00000036931824124066947350000015264996405268775606_">
		<use xlink:href="#SVGID_1_"  style="overflow:visible;"/>
	</clipPath>
	<g style="clip-path:url(#SVGID_00000036931824124066947350000015264996405268775606_);">
		<path class="st1" d="M-23-354l24.5-4.8l0.6,2.9l-24.5,4.8L-23-354z M26.1-363.6l24.5-4.8l0.6,2.9l-24.5,4.8L26.1-363.6z
			 M75.2-373.1l24.5-4.8l0.6,2.9l-24.5,4.8L75.2-373.1z M124.2-382.7l24.5-4.8l0.6,2.9l-24.5,4.8L124.2-382.7z M173.3-392.2
			l24.5-4.8l0.6,2.9l-24.5,4.8L173.3-392.2z M222.4-401.7l24.5-4.8l0.6,2.9l-24.5,4.8L222.4-401.7z M271.5-411.3l24.5-4.8l0.6,2.9
			l-24.5,4.8L271.5-411.3z M320.6-420.8l24.5-4.8l0.6,2.9l-24.5,4.8L320.6-420.8z M369.7-430.4l24.5-4.8l0.6,2.9l-24.5,4.8
			L369.7-430.4z M418.7-439.9l24.5-4.8l0.6,2.9l-24.5,4.8L418.7-439.9z M467.8-449.4l24.5-4.8l0.6,2.9l-24.5,4.8L467.8-449.4z
			 M516.9-459l24.5-4.8l0.6,2.9l-24.5,4.8L516.9-459z M566-468.5l24.5-4.8l0.6,2.9l-24.5,4.8L566-468.5z M615.1-478.1l24.5-4.8
			l0.6,2.9l-24.5,4.8L615.1-478.1z M664.1-487.6l24.5-4.8l0.6,2.9l-24.5,4.8L664.1-487.6z M713.2-497.1l24.5-4.8l0.6,2.9l-24.5,4.8
			L713.2-497.1z M762.3-506.7l24.5-4.8l0.6,2.9l-24.5,4.8L762.3-506.7z M811.4-516.2l24.5-4.8l0.6,2.9l-24.5,4.8L811.4-516.2z
			 M860.5-525.8l24.5-4.8l0.6,2.9l-24.5,4.8L860.5-525.8z M909.5-535.3l24.5-4.8l0.6,2.9l-24.5,4.8L909.5-535.3z M958.6-544.9
			l24.5-4.8l0.6,2.9l-24.5,4.8L958.6-544.9z M1007.7-554.4l24.5-4.8l0.6,2.9l-24.5,4.8L1007.7-554.4z M1056.8-563.9l24.5-4.8
			l0.6,2.9l-24.5,4.8L1056.8-563.9z M1105.9-573.5l24.5-4.8l0.6,2.9l-24.5,4.8L1105.9-573.5z M1155-583l24.5-4.8l0.6,2.9l-24.5,4.8
			L1155-583z M1204-592.6l24.5-4.8l0.6,2.9l-24.5,4.8L1204-592.6z M1253.1-602.1l24.5-4.8l0.6,2.9l-24.5,4.8L1253.1-602.1z
			 M1302.2-611.6l24.5-4.8l0.6,2.9l-24.5,4.8L1302.2-611.6z M1351.3-621.2l24.5-4.8l0.6,2.9l-24.5,4.8L1351.3-621.2z M1400.4-630.7
			l24.5-4.8l0.6,2.9l-24.5,4.8L1400.4-630.7z M1449.4-640.3l24.5-4.8l0.6,2.9l-24.5,4.8L1449.4-640.3z M1498.5-649.8l24.5-4.8
			l0.6,2.9l-24.5,4.8L1498.5-649.8z M1547.6-659.3l24.5-4.8l0.6,2.9l-24.5,4.8L1547.6-659.3z M1596.7-668.9l24.5-4.8l0.6,2.9
			l-24.5,4.8L1596.7-668.9z M1645.8-678.4l24.5-4.8l0.6,2.9l-24.5,4.8L1645.8-678.4z M1694.8-688l24.5-4.8l0.6,2.9l-24.5,4.8
			L1694.8-688z M1743.9-697.5l24.5-4.8l0.6,2.9l-24.5,4.8L1743.9-697.5z M1793-707l24.5-4.8l0.6,2.9l-24.5,4.8L1793-707z
			 M1842.1-716.6l24.5-4.8l0.6,2.9l-24.5,4.8L1842.1-716.6z M1891.2-726.1l24.5-4.8l0.6,2.9l-24.5,4.8L1891.2-726.1z M1940.3-735.7
			l24.5-4.8l0.6,2.9l-24.5,4.8L1940.3-735.7z M1989.5-740.2c0.6,0.2,1.2,0.4,1.8,0.6l0,0l0.2,0.1l0,0l0.1,0l0,0l0.1,0l0,0l0.1,0l0,0
			l0.1,0l0,0l0.1,0l0,0l0.1,0l0,0l0.1,0l0,0l0.1,0l0,0l0.1,0l0,0l0.1,0l0,0l0.1,0l0,0l0.1,0l0,0l0.1,0l0,0l0.1,0l0,0l0.1,0l0,0
			l0.1,0l0,0l0.1,0l0,0l0.1,0l0,0l0.1,0l0,0l0.1,0l0,0l0,0l0,0l0.1,0l0,0l0.1,0l0,0l0,0l0,0l0.1,0l0,0l0,0l0.1,0l0,0l0,0l0.1,0l0,0
			l0,0l0,0l0,0l0,0l0.1,0l0,0l0,0l0,0l0.1,0l0,0l0,0l0.1,0l0,0l0,0l0.1,0l0,0l0,0l0,0l0.1,0l0,0l0,0l0,0l0,0l0,0l0.1,0l0,0l0,0
			l0.1,0l0,0l0,0l0.1,0l0,0l0,0l0,0l0.1,0l0,0l0,0l0,0l0,0l0,0l0.1,0l0,0l0,0l0,0l0,0l0,0l0.1,0l0,0l0,0l0,0l0.1,0l0,0l0.1,0l0,0
			l0.1,0l0,0l0.1,0l0,0l0,0l0,0l0.1,0l0,0l0.1,0l0,0l0,0l0,0l0.1,0l0,0l0,0l0,0l0,0l0,0l0.1,0l0,0l0,0l0,0l0,0l0,0l0.1,0l0,0l0,0
			l0,0l0.1,0l0,0l0,0l0,0l0,0l0,0l0.1,0l0,0l0,0l0,0l0,0l0,0l0.1,0l0,0l0,0l0,0l0.1,0l0,0l0,0l0,0l0,0l0,0l0.1,0l0,0l0,0l0,0l0,0
			l0,0l0,0l0,0l0,0l0,0l0.1,0l0,0l0,0l0.1,0l0,0l0,0l0,0l0,0l0,0l0.1,0l0,0l0,0l0,0l0.1,0l0,0l0.1,0l0,0l0,0l0,0l0.1,0l0,0l0,0l0,0
			l0.1,0.1l0,0l0.2,0.2l0,0c0.3,0.2,0.5,0.4,0.8,0.6l0,0l0.1,0.1l0,0l0,0l0,0l0.1,0.1l0,0l0.1,0l0,0l0,0l0,0l0,0l0,0l0,0l0.1,0l0,0
			l0,0l0,0l0.1,0l0,0l0.1,0l0,0l0.1,0l0,0l0.1,0.1l0,0l0.1,0.1l0,0l0.1,0.1l0,0l0.1,0.1l0,0c1.8,1.5,3.5,3.1,5.1,4.8l0,0l0.1,0.1
			l0,0l0.1,0.1l0,0l0.1,0.1l0,0l0.1,0.1l0,0l0.1,0.1l0,0l0,0.1l0,0l0.1,0.1l0,0l0,0.1l0,0l0,0l0,0l0,0.1l0,0l0,0l0,0l0,0l0,0l0,0
			l0,0l0,0l0,0.1l0,0l0,0l0,0l0.1,0.1l0,0l0.1,0.1l0,0c0.3,0.4,0.6,0.7,0.9,1.1l-2.4,1.8c-2.3-3.1-5.1-5.8-8.2-8.1
			c-3.2-2.2-6.6-4-10.3-5.2L1989.5-740.2z M2015-702.2l2.9-0.6l4.8,24.5l-2.9,0.6L2015-702.2z M2024.6-653.1l2.9-0.6l4.8,24.5
			l-2.9,0.6L2024.6-653.1z M2034.1-604l2.9-0.6l4.8,24.5l-2.9,0.6L2034.1-604z M2043.6-554.9l2.9-0.6l4.8,24.5l-2.9,0.6
			L2043.6-554.9z M2053.2-505.8l2.9-0.6l4.8,24.5l-2.9,0.6L2053.2-505.8z M2062.7-456.7l2.9-0.6l4.8,24.5l-2.9,0.6L2062.7-456.7z
			 M2072.3-407.7l2.9-0.6l4.8,24.5l-2.9,0.6L2072.3-407.7z M2081.8-358.6l2.9-0.6l4.8,24.5l-2.9,0.6L2081.8-358.6z M2091.3-309.5
			l2.9-0.6l4.8,24.5l-2.9,0.6L2091.3-309.5z M2100.9-260.4l2.9-0.6l4.8,24.5l-2.9,0.6L2100.9-260.4z M2110.4-211.3l2.9-0.6l4.8,24.5
			l-2.9,0.6L2110.4-211.3z M2120-162.3l2.9-0.6l4.8,24.5l-2.9,0.6L2120-162.3z M2129.5-113.2l2.9-0.6l4.8,24.5l-2.9,0.6
			L2129.5-113.2z M2139-64.1l2.9-0.6l4.8,24.5l-2.9,0.6L2139-64.1z M2148.6-15l2.9-0.6l4.8,24.5l-2.9,0.6L2148.6-15z M2158.1,34.1
			l2.9-0.6l4.8,24.5l-2.9,0.6L2158.1,34.1z M2167.7,83.2l2.9-0.6l4.8,24.5l-2.9,0.6L2167.7,83.2z M2177.2,132.2l2.9-0.6l4.8,24.5
			l-2.9,0.6L2177.2,132.2z M2186.7,181.3l2.9-0.6l4.8,24.5l-2.9,0.6L2186.7,181.3z M2196.3,230.4l2.9-0.6l4.8,24.5l-2.9,0.6
			L2196.3,230.4z M2205.8,279.5l2.9-0.6l4.8,24.5l-2.9,0.6L2205.8,279.5z M2215.4,328.6l2.9-0.6l4.8,24.5l-2.9,0.6L2215.4,328.6z
			 M2224.9,377.6l2.9-0.6l4.8,24.5l-2.9,0.6L2224.9,377.6z M2234.5,426.7l2.9-0.6l4.8,24.5l-2.9,0.6L2234.5,426.7z M2244,475.8
			l2.9-0.6l4.8,24.5l-2.9,0.6L2244,475.8z M2253.5,524.9l2.9-0.6l4.8,24.5l-2.9,0.6L2253.5,524.9z M2263.1,574l2.9-0.6l4.8,24.5
			l-2.9,0.6L2263.1,574z M2272.6,623l2.9-0.6l2.8,14.4l0,0.1l0,0l0,0.1l0,0l0,0.1l0,0l0,0.1l0,0l0,0.1l0,0l0,0.1l0,0l0,0.1l0,0
			l0,0.1l0,0l0,0l0,0l0,0l0,0l0,0.1l0,0l0,0.1l0,0l0,0l0,0l0,0.1l0,0l0,0.1l0,0l0,0l0,0l0,0l0,0l0,0l0,0l0,0l0,0l0,0l0,0l0,0l0,0
			l0,0.1l0,0l0,0l0,0l0,0l0,0l0,0l0,0.1l0,0l0,0l0,0l0,0l0,0l0,0l0,0l0,0.1l0,0l0,0l0,0l0,0l0,0l0,0.1l0,0l0,0.1l0,0l0,0l0,0l0,0.2
			l0,0l0,0l0,0l0,0.1l0,0l0,0.2l0,0l0,0.1l0,0l0,0.2l0,0c0.2,2.2,0.3,4.5,0.1,6.7l-3-0.2c0.2-3.2,0-6.4-0.6-9.5L2272.6,623z
			 M2267.6,668.1l2.3,1.9c-0.4,0.5-0.9,1.1-1.4,1.6l0,0l-0.1,0.1l0,0l-0.1,0.1l0,0l-0.1,0.1l0,0l-0.1,0.1l0,0l0,0l0,0l-0.1,0.1l0,0
			l-0.1,0.1l0,0l0,0l0,0l0,0l0,0l0,0l0,0l0,0l0,0l0,0l-0.1,0.1l0,0l-0.1,0.1l0,0l-0.1,0.1l0,0l0,0l0,0l-0.1,0.1l0,0l-0.1,0.1l0,0
			c-1.6,1.6-3.4,3.1-5.2,4.4l0,0l-0.1,0.1l0,0l0,0l0,0l-0.1,0.1l0,0l-0.1,0.1l0,0l-0.1,0l0,0l0,0l0,0l-0.1,0l0,0l0,0l-0.1,0l0,0l0,0
			l0,0l0,0l0,0l0,0l0,0l0,0l0,0l-0.1,0l0,0l0,0l0,0l-0.1,0l0,0l-0.1,0l0,0l-0.1,0l0,0l-0.1,0l0,0l-0.1,0l0,0l-0.1,0l0,0l-0.1,0l0,0
			l-0.1,0l0,0l-0.1,0l0,0l-0.1,0l0,0l-0.1,0l0,0l-0.2,0.1l0,0l-0.2,0.1l0,0l-0.1,0l0,0l-0.2,0.1l0,0c-0.1,0.1-0.3,0.2-0.4,0.2l0,0
			l-0.2,0.1l0,0c-0.3,0.2-0.6,0.3-0.9,0.5l0,0c-0.3,0.2-0.6,0.3-0.9,0.4l0,0l-0.2,0.1l0,0l-0.3,0.1l0,0l-0.2,0.1l0,0l-0.3,0.1l0,0
			l-0.2,0.1l0,0l-0.2,0.1l0,0l-0.1,0l0,0l-0.2,0.1l0,0l-0.1,0h0l-0.1,0l0,0l-0.1,0l0,0l-0.2,0.1l0,0l-0.2,0.1l0,0l-0.1,0l0,0
			l-0.2,0.1l0,0l-0.2,0.1l0,0l-0.1,0l0,0l-0.2,0.1l0,0l-0.2,0.1l0,0l-0.1,0l0,0l-0.2,0.1l0,0l-0.2,0.1l0,0c-0.1,0-0.2,0.1-0.3,0.1
			l0,0l-0.2,0.1l0,0c-1.2,0.4-2.4,0.8-3.7,1.1l-0.8-2.9c3.8-1,7.4-2.6,10.7-4.7C2262.3,673.6,2265.2,671,2267.6,668.1z
			 M2199.5,689.9l24.5-4.8l0.6,2.9l-24.5,4.8L2199.5,689.9z M2150.4,699.4l24.5-4.8l0.6,2.9l-24.5,4.8L2150.4,699.4z M2101.4,709
			l24.5-4.8l0.6,2.9l-24.5,4.8L2101.4,709z M2052.3,718.5l24.5-4.8l0.6,2.9l-24.5,4.8L2052.3,718.5z M2003.2,728l24.5-4.8l0.6,2.9
			l-24.5,4.8L2003.2,728z M1954.1,737.6l24.5-4.8l0.6,2.9l-24.5,4.8L1954.1,737.6z M1905,747.1l24.5-4.8l0.6,2.9l-24.5,4.8
			L1905,747.1z M1856,756.7l24.5-4.8l0.6,2.9l-24.5,4.8L1856,756.7z M1806.9,766.2l24.5-4.8l0.6,2.9l-24.5,4.8L1806.9,766.2z
			 M1757.8,775.7l24.5-4.8l0.6,2.9l-24.5,4.8L1757.8,775.7z M1708.7,785.3l24.5-4.8l0.6,2.9l-24.5,4.8L1708.7,785.3z M1659.6,794.8
			l24.5-4.8l0.6,2.9l-24.5,4.8L1659.6,794.8z M1610.5,804.4l24.5-4.8l0.6,2.9l-24.5,4.8L1610.5,804.4z M1561.5,813.9l24.5-4.8
			l0.6,2.9l-24.5,4.8L1561.5,813.9z M1512.4,823.4l24.5-4.8l0.6,2.9l-24.5,4.8L1512.4,823.4z M1463.3,833l24.5-4.8l0.6,2.9
			l-24.5,4.8L1463.3,833z M1414.2,842.5l24.5-4.8l0.6,2.9l-24.5,4.8L1414.2,842.5z M1365.1,852.1l24.5-4.8l0.6,2.9l-24.5,4.8
			L1365.1,852.1z M1316.1,861.6l24.5-4.8l0.6,2.9l-24.5,4.8L1316.1,861.6z M1267,871.1l24.5-4.8l0.6,2.9l-24.5,4.8L1267,871.1z
			 M1217.9,880.7l24.5-4.8l0.6,2.9l-24.5,4.8L1217.9,880.7z M1168.8,890.2l24.5-4.8l0.6,2.9l-24.5,4.8L1168.8,890.2z M1119.7,899.8
			l24.5-4.8l0.6,2.9l-24.5,4.8L1119.7,899.8z M1070.7,909.3l24.5-4.8l0.6,2.9l-24.5,4.8L1070.7,909.3z M1021.6,918.9l24.5-4.8
			l0.6,2.9l-24.5,4.8L1021.6,918.9z M972.5,928.4l24.5-4.8l0.6,2.9l-24.5,4.8L972.5,928.4z M923.4,937.9l24.5-4.8l0.6,2.9l-24.5,4.8
			L923.4,937.9z M874.3,947.5l24.5-4.8l0.6,2.9l-24.5,4.8L874.3,947.5z M825.2,957l24.5-4.8l0.6,2.9l-24.5,4.8L825.2,957z
			 M776.2,966.6l24.5-4.8l0.6,2.9l-24.5,4.8L776.2,966.6z M727.1,976.1l24.5-4.8l0.6,2.9l-24.5,4.8L727.1,976.1z M678,985.6
			l24.5-4.8l0.6,2.9l-24.5,4.8L678,985.6z M628.9,995.2l24.5-4.8l0.6,2.9l-24.5,4.8L628.9,995.2z M579.8,1004.7l24.5-4.8l0.6,2.9
			l-24.5,4.8L579.8,1004.7z M530.8,1014.3l24.5-4.8l0.6,2.9l-24.5,4.8L530.8,1014.3z M481.7,1023.8l24.5-4.8l0.6,2.9l-24.5,4.8
			L481.7,1023.8z M432.6,1033.3l24.5-4.8l0.6,2.9l-24.5,4.8L432.6,1033.3z M383.5,1042.9l24.5-4.8l0.6,2.9l-24.5,4.8L383.5,1042.9z
			 M334.4,1052.4l24.5-4.8l0.6,2.9l-24.5,4.8L334.4,1052.4z M285.4,1062l24.5-4.8l0.6,2.9l-24.5,4.8L285.4,1062z M237.4,1067.7
			c5.3,1.3,10.7,1.5,16.1,0.4l7.4-1.4l0.6,2.9l-7.4,1.4l-0.1,0l-0.1,0l-0.1,0l-0.1,0l-0.1,0l-0.1,0l-0.1,0l-0.1,0l-0.1,0l-0.1,0l0,0
			l-0.1,0l-0.1,0l-0.1,0l-0.1,0l-0.1,0l0,0l0,0l-0.1,0l-0.1,0l-0.1,0l-0.1,0l-0.1,0l-0.1,0l-0.1,0l-0.1,0l-0.1,0l-0.1,0l-0.1,0
			l-0.1,0l-0.1,0l-0.1,0l0,0l-0.1,0l0,0l-0.1,0l-0.1,0l-0.1,0l0,0l0,0l0,0l-0.1,0l0,0l-0.1,0l0,0l-0.1,0l0,0l-0.1,0l0,0
			c-0.1,0-0.2,0-0.3,0l0,0l-0.1,0l0,0l-0.1,0l0,0l-0.1,0l0,0l-0.1,0l0,0c-0.2,0-0.4,0-0.5,0.1l0,0c-4.6,0.4-9.2,0.1-13.5-1
			L237.4,1067.7z M206.2,1034.9l2.9-0.6l0.9,4.6c0.6,3.1,1.6,6.2,3,9.1c1.3,2.8,3,5.4,5,7.7l-2.3,1.9c-2.1-2.5-4-5.3-5.4-8.4
			c-0.2-0.4-0.4-0.8-0.5-1.1l0,0l-0.1-0.1l0,0l0-0.1l0,0l0,0l0,0l0-0.1l0,0l0,0l0,0l0,0l0,0l0,0l-0.1-0.2l0,0l0-0.1l0,0
			c-0.7-1.7-1.3-3.6-1.8-5.4l0,0l-0.1-0.2l0,0l0-0.1l0,0l0-0.1l0,0l0-0.1l0,0l0,0l0,0l0,0l0,0l0-0.2l0,0l0,0l0,0l0,0l0,0l0-0.1l0,0
			l0,0l0,0l0,0l0,0l0,0l0-0.1l0,0l0,0l0,0l0,0l0,0l0,0l0,0l0-0.1l0,0l0,0l0,0l0,0l0,0l0-0.1l0,0l0-0.1l0,0l0-0.1l0,0l0-0.1l0,0
			l0-0.1l0,0l0-0.1l0,0l0-0.1l0,0l0-0.1L206.2,1034.9z M196.7,985.8l2.9-0.6l4.8,24.5l-2.9,0.6L196.7,985.8z M187.2,936.7l2.9-0.6
			l4.8,24.5l-2.9,0.6L187.2,936.7z M177.6,887.7l2.9-0.6l4.8,24.5l-2.9,0.6L177.6,887.7z M168.1,838.6l2.9-0.6l4.8,24.5l-2.9,0.6
			L168.1,838.6z M158.5,789.5l2.9-0.6l4.8,24.5l-2.9,0.6L158.5,789.5z M149,740.4l2.9-0.6l4.8,24.5l-2.9,0.6L149,740.4z
			 M139.4,691.3l2.9-0.6l4.8,24.5l-2.9,0.6L139.4,691.3z M129.9,642.2l2.9-0.6l4.8,24.5l-2.9,0.6L129.9,642.2z M120.4,593.2l2.9-0.6
			l4.8,24.5l-2.9,0.6L120.4,593.2z M110.8,544.1l2.9-0.6l4.8,24.5l-2.9,0.6L110.8,544.1z M101.3,495l2.9-0.6L109,519l-2.9,0.6
			L101.3,495z M91.7,445.9l2.9-0.6l4.8,24.5l-2.9,0.6L91.7,445.9z M82.2,396.8l2.9-0.6l4.8,24.5l-2.9,0.6L82.2,396.8z M72.7,347.8
			l2.9-0.6l4.8,24.5l-2.9,0.6L72.7,347.8z M63.1,298.7l2.9-0.6l4.8,24.5l-2.9,0.6L63.1,298.7z M53.6,249.6l2.9-0.6l4.8,24.5
			l-2.9,0.6L53.6,249.6z M44,200.5l2.9-0.6l4.8,24.5l-2.9,0.6L44,200.5z M34.5,151.4l2.9-0.6l4.8,24.5l-2.9,0.6L34.5,151.4z
			 M25,102.4l2.9-0.6l4.8,24.5l-2.9,0.6L25,102.4z M15.4,53.3l2.9-0.6l4.8,24.5l-2.9,0.6L15.4,53.3z M5.9,4.2l2.9-0.6l4.8,24.5
			l-2.9,0.6L5.9,4.2z M-3.7-44.9l2.9-0.6l4.8,24.5l-2.9,0.6L-3.7-44.9z M-13.2-94l2.9-0.6L-5.5-70l-2.9,0.6L-13.2-94z M-22.7-143.1
			l2.9-0.6l4.8,24.5l-2.9,0.6L-22.7-143.1z M-32.3-192.1l2.9-0.6l4.8,24.5l-2.9,0.6L-32.3-192.1z M-41.8-241.2l2.9-0.6l4.8,24.5
			l-2.9,0.6L-41.8-241.2z M-51.4-290.3l2.9-0.6l4.8,24.5l-2.9,0.6L-51.4-290.3z M-47.7-338.3l2.4,1.8c-2.3,3.1-4,6.5-5.2,10.2
			c-1.2,3.7-1.9,7.6-1.9,11.5l-3,0c0-0.7,0-1.4,0.1-2.1l0,0l0-0.1l0,0l0-0.1l0,0l0-0.1l0,0l0-0.1l0,0l0,0l0,0l0-0.1l0,0l0,0l0-0.1
			l0,0l0-0.1l0,0l0-0.1l0,0l0-0.1l0,0l0-0.1l0,0l0-0.1l0,0l0-0.1l0,0l0-0.1l0,0l0-0.1l0,0l0-0.1l0,0l0-0.1l0,0l0-0.1l0,0l0-0.1l0,0
			l0-0.1l0,0l0-0.1l0,0l0-0.1l0,0l0-0.2l0,0l0-0.1l0,0l0-0.1l0,0l0-0.1l0,0l0-0.2l0,0l0-0.1l0,0l0-0.2l0,0l0-0.2l0,0l0-0.1l0,0
			l0-0.2l0,0l0-0.1l0,0l0-0.1l0,0l0-0.1l0,0l0-0.2l0,0l0-0.1l0,0l0-0.1l0,0l0-0.1l0,0l0-0.1l0,0l0-0.1l0,0l0-0.1l0,0l0-0.1l0,0
			l0-0.1l0,0l0-0.1l0,0l0-0.1l0,0l0-0.1l0,0l0-0.1l0,0l0-0.1l0,0l0-0.1l0,0l0-0.1l0,0l0-0.1l0,0l0-0.1l0,0l0-0.1l0,0l0-0.1l0,0l0,0
			l0,0l0-0.1l0,0l0,0l0-0.1l0,0l0,0l0-0.1l0-0.1l0,0l0-0.1l0,0l0,0l0,0l0-0.1l0,0l0,0l0,0l0-0.1l0,0l0-0.1l0,0l0-0.1l0,0l0-0.1l0,0
			l0-0.2l0,0l0-0.1l0,0l0-0.1l0,0l0-0.1l0,0l0-0.2l0,0l0-0.1l0,0l0-0.2l0,0l0-0.2l0,0l0-0.1l0,0l0-0.2l0,0c0-0.1,0.1-0.2,0.1-0.3
			l0,0l0-0.2l0,0l0-0.1l0,0l0.1-0.2l0,0l0.1-0.2l0,0l0-0.1l0,0l0-0.1l0,0l0-0.1l0,0l0-0.1l0,0l0-0.1l0,0l0-0.1l0,0l0-0.1l0,0l0-0.1
			l0,0l0,0l0-0.1l0,0l0-0.1l0,0l0-0.1l0,0l0-0.1l0,0l0.1-0.2l0,0C-51.8-331.7-50-335.2-47.7-338.3z M-23-354l0.6,2.9
			c-1.5,0.3-3,0.7-4.5,1.2l-0.9-2.9c1.2-0.4,2.4-0.7,3.6-1l0,0l0.1,0l0.2,0l0.1,0l0.1,0l0,0l0.2,0l0.1,0l0.1,0l0.1,0l0.1,0l0.1,0
			l0.1,0L-23-354L-23-354z"/>
	</g>
	<path style="clip-path:url(#SVGID_00000036931824124066947350000015264996405268775606_);fill:#253081;" d="M-107.8-387.2
		l1992.7-387.3c21.7-4.2,42.7,9.9,46.9,31.6l261.8,1346.6c4.2,21.7-9.9,42.7-31.6,46.9L169.2,1037.9c-21.7,4.2-42.7-9.9-46.9-31.6
		L-139.4-340.3C-143.7-362-129.5-383-107.8-387.2z"/>
</g>
</svg>
