<?xml version="1.0" encoding="utf-8"?>
<!-- Generator: Adobe Illustrator 27.5.0, SVG Export Plug-In . SVG Version: 6.00 Build 0)  -->
<svg version="1.1" id="Ebene_1" xmlns="http://www.w3.org/2000/svg" xmlns:xlink="http://www.w3.org/1999/xlink" x="0px" y="0px"
	 width="40px" height="40px" viewBox="0 0 40 40" style="enable-background:new 0 0 40 40;" xml:space="preserve">
<g>
	<defs>
		<path id="SVGID_1_" d="M11.7,0.1C9.6,0.2,8.1,0.6,6.9,1.1C5.6,1.6,4.4,2.3,3.3,3.4C2.2,4.5,1.5,5.6,1,6.9
			c-0.5,1.3-0.8,2.7-0.9,4.9C0,13.9,0,14.6,0,20c0,5.4,0,6.1,0.1,8.2c0.1,2.1,0.4,3.6,0.9,4.9c0.5,1.3,1.2,2.4,2.3,3.5
			c1.1,1.1,2.2,1.8,3.5,2.3c1.3,0.5,2.7,0.8,4.9,0.9C13.9,40,14.6,40,20,40c5.4,0,6.1,0,8.2-0.1c2.1-0.1,3.6-0.4,4.9-0.9
			c1.3-0.5,2.4-1.2,3.5-2.3c1.1-1.1,1.8-2.2,2.3-3.5c0.5-1.3,0.8-2.7,0.9-4.9C40,26.1,40,25.4,40,20c0-5.4,0-6.1-0.1-8.2
			c-0.1-2.1-0.4-3.6-0.9-4.9c-0.5-1.3-1.2-2.4-2.3-3.5c-1.1-1.1-2.2-1.8-3.5-2.3c-1.3-0.5-2.7-0.8-4.9-0.9C26.1,0,25.4,0,20,0
			C14.5,0,13.9,0,11.7,0.1 M12,36.3c-1.9-0.1-3-0.4-3.7-0.7c-0.9-0.4-1.6-0.8-2.3-1.5c-0.7-0.7-1.1-1.4-1.5-2.3
			c-0.3-0.7-0.6-1.8-0.7-3.7C3.6,26,3.6,25.4,3.6,20c0-5.3,0-6,0.1-8.1c0.1-1.9,0.4-3,0.7-3.7c0.4-0.9,0.8-1.6,1.5-2.3
			c0.7-0.7,1.4-1.1,2.3-1.5c0.7-0.3,1.8-0.6,3.7-0.7C14,3.6,14.6,3.6,20,3.6c5.3,0,6,0,8.1,0.1c1.9,0.1,3,0.4,3.7,0.7
			c0.9,0.4,1.6,0.8,2.3,1.5c0.7,0.7,1.1,1.4,1.5,2.3c0.3,0.7,0.6,1.8,0.7,3.7c0.1,2.1,0.1,2.7,0.1,8.1c0,5.3,0,6-0.1,8.1
			c-0.1,1.9-0.4,3-0.7,3.7c-0.4,0.9-0.8,1.6-1.5,2.3c-0.7,0.7-1.4,1.1-2.3,1.5c-0.7,0.3-1.8,0.6-3.7,0.7c-2.1,0.1-2.7,0.1-8.1,0.1
			C14.7,36.4,14.1,36.4,12,36.3 M28.3,9.3c0,1.3,1.1,2.4,2.4,2.4c1.3,0,2.4-1.1,2.4-2.4c0-1.3-1.1-2.4-2.4-2.4
			C29.3,6.9,28.3,8,28.3,9.3 M9.7,20c0,5.7,4.6,10.3,10.3,10.2c5.7,0,10.3-4.6,10.3-10.3c0-5.7-4.6-10.3-10.3-10.2
			C14.3,9.7,9.7,14.3,9.7,20 M13.3,20c0-3.7,3-6.7,6.7-6.7c3.7,0,6.7,3,6.7,6.7c0,3.7-3,6.7-6.7,6.7C16.3,26.7,13.3,23.7,13.3,20"/>
	</defs>
	<use xlink:href="#SVGID_1_"  style="overflow:visible;fill:#58d38c;"/>
	<clipPath id="SVGID_00000034801206819647049990000004757422660640327552_">
		<use xlink:href="#SVGID_1_"  style="overflow:visible;"/>
	</clipPath>
</g>
</svg>
