<?xml version="1.0" encoding="utf-8"?>
<!-- Generator: Adobe Illustrator 27.5.0, SVG Export Plug-In . SVG Version: 6.00 Build 0)  -->
<svg version="1.1" id="Ebene_1" xmlns="http://www.w3.org/2000/svg" xmlns:xlink="http://www.w3.org/1999/xlink" x="0px" y="0px"
	 width="40px" height="40px" viewBox="0 0 40 40" style="enable-background:new 0 0 40 40;" xml:space="preserve">
<style type="text/css">
	.st0{fill:#28347D;}
</style>
<g>
	<g>
		<path class="st0" d="M14.7,10.7L8.9,9.8l-6.8,6.9l7.7,1.5C11.2,15.6,12.9,13.1,14.7,10.7z"/>
		<polygon class="st0" points="0,40 0,40 0,40 		"/>
		<polygon class="st0" points="21.8,30.2 21.8,30.2 21.8,30.2 		"/>
		<polygon class="st0" points="14.7,10.7 14.7,10.7 14.7,10.7 		"/>
		<path class="st0" d="M21.8,30.2l1.5,7.7l6.9-6.8l-0.9-5.8C26.9,27.1,24.4,28.8,21.8,30.2z"/>
		<path class="st0" d="M27,2.3c-6.1,2.9-11.4,8.4-16,16.6L7.4,26c-0.1,0.2-0.1,0.5,0.1,0.6l5.8,5.8c0.2,0.2,0.6,0.1,0.6,0.1l7.1-3.5
			c8.2-4.6,13.7-10,16.6-16c-1-2.4-2.4-4.6-4.3-6.4C31.6,4.7,29.4,3.3,27,2.3z M31.9,13.1c-0.5,1.1-1.4,1.9-2.6,2.2
			c-1.2,0.3-2.4,0.1-3.3-0.7c-0.9-0.7-1.5-1.9-1.5-3c0-1,0.4-2,1.1-2.7l0,0v0c0.8-0.8,2-1.2,3.2-1.1c1.2,0.2,2.2,0.9,2.8,1.9
			C32.3,10.7,32.4,12,31.9,13.1z"/>
		<path class="st0" d="M39.9,0.1C39,0,38.1,0,37.3,0v0c-2.9,0-5.8,0.5-8.6,1.6c4.3,2.1,7.7,5.5,9.7,9.7C39.8,7.7,40.3,3.9,39.9,0.1z
			"/>
		<path class="st0" d="M28.4,9.1c-0.7,0-1.3,0.3-1.8,0.7c-0.5,0.5-0.7,1.1-0.7,1.8c0,0.7,0.3,1.3,0.7,1.8c0.5,0.5,1.1,0.7,1.8,0.7
			c0.7,0,1.3-0.3,1.8-0.7h0c0.5-0.5,0.7-1.1,0.7-1.8c0-0.7-0.3-1.3-0.7-1.8C29.7,9.4,29.1,9.1,28.4,9.1z"/>
	</g>
	<g>
		<g>
			<path class="st0" d="M1.6,38.6c-0.2,0-0.4-0.1-0.6-0.2c-0.3-0.3-0.3-0.8,0-1.1l7-6.8c0.3-0.3,0.8-0.3,1.1,0s0.3,0.8,0,1.1l-7,6.8
				C1.9,38.5,1.7,38.5,1.6,38.6z"/>
		</g>
		<g>
			<path class="st0" d="M5.9,38.3c-0.2,0-0.4-0.1-0.6-0.2c-0.3-0.3-0.3-0.8,0-1.1l4.6-4.5c0.3-0.3,0.8-0.3,1.1,0
				c0.3,0.3,0.3,0.8,0,1.1l-4.6,4.5C6.3,38.3,6.1,38.3,5.9,38.3z"/>
		</g>
		<g>
			<path class="st0" d="M1.7,34.5c-0.2,0-0.4-0.1-0.6-0.2c-0.3-0.3-0.3-0.8,0-1.1l4.6-4.5c0.3-0.3,0.8-0.3,1.1,0
				c0.3,0.3,0.3,0.8,0,1.1l-4.6,4.5C2.1,34.4,1.9,34.5,1.7,34.5z"/>
		</g>
	</g>
</g>
</svg>
