<svg xmlns="http://www.w3.org/2000/svg" width="223.305" height="134.052" viewBox="0 0 223.305 134.052">
  <g id="linie_gestrichelt_2" data-name="linie gestrichelt 2" transform="translate(-77.107 -836.212)">
    <path id="Path_3125" data-name="Path 3125" d="M266.8,503.2l-.008.03a67.1,67.1,0,0,1-3.359,9.111l2.746,1.209a68.523,68.523,0,0,0,3.528-9.608Z" transform="translate(30.709 333.009)" fill="#253081"/>
    <path id="Path_3126" data-name="Path 3126" d="M79.49,600.772a98.938,98.938,0,0,0-16.256,11.154l1.953,2.277a95.892,95.892,0,0,1,15.765-10.811Zm36.321-14.623c-6.83,1.979-12.991,4.09-18.547,6.286l1.1,2.79c5.463-2.159,11.533-4.241,18.279-6.195Zm38.176-8.281q-10.239,1.605-19.208,3.539l.629,2.933q8.9-1.907,19.044-3.508ZM192.2,571.66a139.454,139.454,0,0,1-18.883,3.628l.367,2.978a142.6,142.6,0,0,0,19.289-3.707Zm34.834-15.711a107.953,107.953,0,0,1-16.737,9.329l1.226,2.738a111.013,111.013,0,0,0,17.2-9.588Zm27.036-26.9a104.278,104.278,0,0,1-12.273,14.708l2.117,2.126a107.324,107.324,0,0,0,12.626-15.131Z" transform="translate(30.709 333.009)" fill="#253081"/>
    <path id="Path_3127" data-name="Path 3127" d="M50.226,627.071c-3.343,5.787-3.809,9.673-3.828,9.846l2.982.332-.518-.058.517.064v-.006l-.518-.058.517.064c.007-.052.432-3.466,3.445-8.684Z" transform="translate(30.709 333.009)" fill="#253081"/>
  </g>
</svg>
