<svg xmlns="http://www.w3.org/2000/svg" width="223.304" height="134.052" viewBox="0 0 223.304 134.052">
  <g id="linie_gestrichelt_1" data-name="linie gestrichelt 1" transform="translate(-77.145 -497.73)">
    <path id="Path_3122" data-name="Path 3122" d="M46.436,165.463a68.47,68.47,0,0,0,3.528,9.608l2.746-1.208c-1.236-2.808-2.082-5.11-2.617-6.7-.267-.795-.457-1.413-.579-1.829-.061-.207-.1-.364-.133-.467l-.03-.113-.008-.031Z" transform="translate(30.709 333.009)" fill="#253081"/>
    <path id="Path_3123" data-name="Path 3123" d="M235.187,264.91a95.875,95.875,0,0,1,15.765,10.812l1.952-2.278a98.947,98.947,0,0,0-16.255-11.154Zm-35.694-14.362c6.745,1.955,12.816,4.036,18.279,6.2l1.1-2.79c-5.557-2.2-11.717-4.307-18.547-6.286Zm-37.806-8.2q10.161,1.591,19.044,3.508l.628-2.933q-8.982-1.925-19.207-3.539Zm-38.52-6.273a142.471,142.471,0,0,0,19.289,3.707l.368-2.977a139.416,139.416,0,0,1-18.883-3.629Zm-35.75-16.13a111.094,111.094,0,0,0,17.2,9.587l1.226-2.738a108.035,108.035,0,0,1-16.737-9.328ZM59.6,192.265A107.327,107.327,0,0,0,72.227,207.4l2.116-2.126a104.333,104.333,0,0,1-12.272-14.708Z" transform="translate(30.709 333.009)" fill="#253081"/>
    <path id="Path_3124" data-name="Path 3124" d="M263.315,290.09a32.206,32.206,0,0,1,2.895,6.423c.237.759.377,1.344.456,1.729.04.192.064.335.077.423l.014.093,0,.015.516-.063-.516.058v.005l.516-.063-.516.058,2.981-.332c-.018-.173-.484-4.06-3.827-9.846Z" transform="translate(30.709 333.009)" fill="#253081"/>
  </g>
</svg>
