<svg xmlns="http://www.w3.org/2000/svg" width="45.423" height="62.485" viewBox="0 0 45.423 62.485">
  <g id="Group_3788" data-name="Group 3788" transform="translate(-233.339 -1315.848)">
    <path id="Path_3366" data-name="Path 3366" d="M199.729,395.441c0-.169,0-.325,0-.468,0-.439.006-.756.014-.954,0-.1.007-.169.009-.2V393.8l-.733-.058.729.091,0-.033-.733-.058.729.091-1.382-.172,1.364.281.018-.109-1.382-.172,1.364.281-1.455-.3,1.4.51a1.437,1.437,0,0,0,.059-.21l-1.455-.3,1.4.51-1.407-.514,1.238.843a1.484,1.484,0,0,0,.169-.329l-1.407-.514,1.238.843-1.24-.844.909,1.193a1.5,1.5,0,0,0,.331-.349l-1.24-.844.909,1.193-.909-1.193v1.5a1.506,1.506,0,0,0,.909-.307l-.909-1.193v0l-.727,1.312a1.516,1.516,0,0,0,.727.188v-1.5l-.727,1.312.727-1.312-1.295.756a1.467,1.467,0,0,0,.568.556l.727-1.312-1.295.756,1.293-.755-1.458.341a1.418,1.418,0,0,0,.165.414l1.293-.755-1.458.341,1.444-.338-1.477.137a1.535,1.535,0,0,0,.033.2l1.444-.338-1.477.137,1.316-.122h-1.322a1.2,1.2,0,0,0,.006.122l1.316-.122h-.91l-.412-.01v.01h.412l-.412-.01c0,.027-.01.22-.035.505a42.368,42.368,0,0,1-.869,5.262l2.928.652c.413-1.851.655-3.358.795-4.442.07-.542.115-.978.142-1.3.014-.161.023-.294.029-.4s.01-.175.01-.268l0-.11a1.4,1.4,0,0,0-.022-.178,1.444,1.444,0,0,0-.091-.307,1.469,1.469,0,0,0-.258-.415,1.5,1.5,0,0,0-.4-.322,1.506,1.506,0,0,0-1.414-.021,1.47,1.47,0,0,0-.552.488,1.541,1.541,0,0,0-.24.59c-.019.118-.016.13-.021.172-.009.115-.016.259-.023.493s-.011.537-.011.924c0,.153,0,.319,0,.5Z" transform="translate(79 923.708)" fill="#253081"/>
    <path id="Path_3367" data-name="Path 3367" d="M179.209,431.543a90.079,90.079,0,0,1-8.57,8.7l1.992,2.243a93.183,93.183,0,0,0,8.855-8.987Zm12.9-20.587a76.465,76.465,0,0,1-5.653,10.781l2.54,1.6a79.488,79.488,0,0,0,5.874-11.2Z" transform="translate(79 923.708)" fill="#253081"/>
    <path id="Path_3368" data-name="Path 3368" d="M160.991,447.792q-3.138,2.168-6.652,4.251l1.526,2.582q3.607-2.131,6.831-4.364Z" transform="translate(79 923.708)" fill="#253081"/>
  </g>
</svg>
