<svg xmlns="http://www.w3.org/2000/svg" width="50.584" height="60.635" viewBox="0 0 50.584 60.635">
  <g id="Group_3787" data-name="Group 3787" transform="translate(-121.486 -1083.332)">
    <path id="Path_3363" data-name="Path 3363" d="M45.649,162.884c-.04-.652-.081-1.132-.114-1.459-.016-.164-.031-.289-.043-.384l-.019-.134-.019-.1-.04-.146a1.6,1.6,0,0,0-.1-.242,1.492,1.492,0,0,0-.234-.325,1.472,1.472,0,0,0-.352-.275,1.5,1.5,0,0,0-1.423-.029,1.486,1.486,0,0,0-.607.572,1.432,1.432,0,0,0-.178.462,1.412,1.412,0,0,0-.028.218l0,.087.005.126c.007.09.015.156.029.264a42.11,42.11,0,0,0,1.379,6.014l2.877-.85c-.523-1.769-.85-3.192-1.045-4.176-.1-.491-.162-.874-.2-1.132-.019-.129-.032-.227-.04-.288l-.007-.058-.319.031.32-.024v-.007l-.319.031.32-.024-1.266.093h1.269l0-.093-1.266.093h-.2l1.461.186a1.37,1.37,0,0,0,.012-.186H44.013l1.461.186-1.484-.189,1.4.54a1.41,1.41,0,0,0,.088-.351l-1.484-.189,1.4.54-1.4-.541,1.111,1.007a1.477,1.477,0,0,0,.288-.466l-1.4-.541,1.111,1.007-1.111-1.007.685,1.334a1.492,1.492,0,0,0,.426-.327l-1.111-1.007.685,1.334-.685-1.334v1.5a1.5,1.5,0,0,0,.685-.165l-.685-1.334v0l-.739,1.3a1.493,1.493,0,0,0,.739.194v-1.5l-.739,1.3.738-1.3-1.244.836a1.453,1.453,0,0,0,.506.469l.738-1.3-1.244.836,1.241-.833-1.408.5a1.445,1.445,0,0,0,.167.33l1.241-.833-1.408.5,1.376-.492-1.424.328a1.618,1.618,0,0,0,.048.164l1.376-.492-1.424.328,1.157-.267-1.171.2.014.068,1.157-.267-1.171.2.445-.075-.446.07v.005l.445-.075-.446.07c0,.008.025.186.051.462s.059.684.092,1.212Z" transform="translate(79 923.708)" fill="#253081"/>
    <path id="Path_3364" data-name="Path 3364" d="M64.072,200.593a95.355,95.355,0,0,0,9.756,8.569l1.824-2.382a92.285,92.285,0,0,1-9.449-8.3ZM48.78,179.636a81.281,81.281,0,0,0,6.841,11.076l2.42-1.773a78.259,78.259,0,0,1-6.589-10.667Z" transform="translate(79 923.708)" fill="#253081"/>
    <path id="Path_3365" data-name="Path 3365" d="M84.606,216.4q3.382,1.987,7.125,3.86l1.339-2.685q-3.655-1.823-6.944-3.761Z" transform="translate(79 923.708)" fill="#253081"/>
  </g>
</svg>
