<?xml version="1.0" encoding="utf-8"?>
<!-- Generator: Adobe Illustrator 27.5.0, SVG Export Plug-In . SVG Version: 6.00 Build 0)  -->
<svg version="1.1" id="Ebene_1" xmlns="http://www.w3.org/2000/svg" xmlns:xlink="http://www.w3.org/1999/xlink" x="0px" y="0px"
	 width="40px" height="49.2px" viewBox="0 0 40 49.2" style="enable-background:new 0 0 40 49.2;" xml:space="preserve">
<style type="text/css">
	.st0{fill:#28347D;}
</style>
<g id="Berichtswesen">
	<polygon class="st0" points="6.2,43.1 6.2,7.9 0,7.9 0,49.2 31.7,49.2 31.7,43.1 	"/>
	<path class="st0" d="M8.3,0v41.4H40V0H8.3z M27.7,14.7c0-0.3,0.2-0.5,0.5-0.5h2.3c0.3,0,0.5,0.2,0.5,0.5l0,0v7.3
		c0,0.3-0.2,0.5-0.5,0.5l-2.3,0c-0.3,0-0.5-0.2-0.5-0.5V14.7z M22.5,17.1c0-0.3,0.2-0.5,0.5-0.5h2.3c0.3,0,0.5,0.2,0.5,0.5v5
		c0,0.3-0.2,0.5-0.5,0.5H23c-0.3,0-0.5-0.2-0.5-0.5V17.1z M17.9,4.9h2.6c0.2,0,0.4,0.2,0.4,0.4v4.4c0,0,0,0,0,0c0,0,0,0.1,0,0.1
		c0,1.6-1.3,2.9-2.9,2.9v-2c-1.6,0-2.9-1.3-2.9-2.9S16.3,4.9,17.9,4.9z M20.6,19.4v2.7c0,0.3-0.2,0.5-0.5,0.5h-2.3
		c-0.3,0-0.5-0.2-0.5-0.5v-2.7h0c0-0.3,0.2-0.5,0.5-0.5h2.3C20.4,18.9,20.6,19.1,20.6,19.4z M33.8,35.1L33.8,35.1H14.6
		c-0.5,0-1-0.5-1-1s0.5-1,1-1h19.2c0.5,0,1,0.5,1,1S34.3,35.1,33.8,35.1z M33.8,29L33.8,29H14.6c-0.5,0-1-0.5-1-1s0.5-1,1-1h19.2
		c0.5,0,1,0.5,1,1C34.7,28.6,34.3,29,33.8,29z"/>
</g>
</svg>
