<?xml version="1.0" encoding="utf-8"?>
<!-- Generator: Adobe Illustrator 27.5.0, SVG Export Plug-In . SVG Version: 6.00 Build 0)  -->
<svg version="1.1" id="Ebene_1" xmlns="http://www.w3.org/2000/svg" xmlns:xlink="http://www.w3.org/1999/xlink" x="0px" y="0px"
	 width="40px" height="40px" viewBox="0 0 40 40" style="enable-background:new 0 0 40 40;" xml:space="preserve">
<style type="text/css">
	.st0{fill:#ffffff;}
</style>
<g>
	<g>
		<path class="st0" d="M1.9,2.3C0.7,3.4,0,5.4,0,7.9l0,0c0,5.8,3.6,14.4,10.7,21.4l0,0c7,7,15.6,10.7,21.4,10.7l0,0
			c2.5,0,4.5-0.7,5.7-1.9l0,0c0.5-0.5,1.7-2.1,2.3-3l0,0l-9.2-9.2c-1.8,1.2-4.2,1.8-6.6,1.8l0,0c-3,0-6.2-1-8.6-3.4l0,0
			c-2.4-2.4-3.4-5.6-3.4-8.6l0,0c0-2.4,0.6-4.8,1.8-6.6l0,0L4.9,0C4,0.5,2.4,1.7,1.9,2.3L1.9,2.3z"/>
	</g>
</g>
</svg>
