<?xml version="1.0" encoding="utf-8"?>
<!-- Generator: Adobe Illustrator 27.6.1, SVG Export Plug-In . SVG Version: 6.00 Build 0)  -->
<svg version="1.1" id="Ebene_1" xmlns="http://www.w3.org/2000/svg" xmlns:xlink="http://www.w3.org/1999/xlink" x="0px" y="0px"
	 width="342px" height="62.2px" viewBox="0 0 342 62.2" style="enable-background:new 0 0 342 62.2;" xml:space="preserve">
<style type="text/css">
	.st0{fill-rule:evenodd;clip-rule:evenodd;fill:#58D38C;}
	.st1{fill-rule:evenodd;clip-rule:evenodd;fill:#253081;}
	.st2{enable-background:new    ;}
	.st3{fill:#253081;}
</style>
<g>
	<g id="Gruppe_3183">
		<path id="Pfad_2989" class="st0" d="M40.7,4.2H22.2c-11.7,0-21.1,9.4-21.1,21.1s9.4,21.1,21.1,21.1l0,0V61
			c11.6,0,21.1-9.4,21.1-21.1c0-0.3,0-0.6,0-0.9c0-0.1,0-0.2,0-0.2v-32C43.3,5.3,42.1,4.2,40.7,4.2"/>
		<path id="Pfad_2990" class="st1" d="M151.7,39c0-0.1,0-0.2,0-0.2v-32c0-1.4-1.2-2.6-2.6-2.6h-18.5c-11.7,0-21.1,9.4-21.1,21.1
			s9.4,21.1,21.1,21.1l0,0V61c11.7,0,21.1-9.4,21.1-21.1l0,0C151.8,39.6,151.8,39.3,151.7,39"/>
		<path id="Pfad_2991" class="st1" d="M74.8,4.2l4.2,7.9l4.2-7.9h26.6c1.4,0,2.6,1.2,2.6,2.6c0,0.4-0.1,0.9-0.3,1.2L91.8,45.5
			c-0.7,1.3-2.3,1.7-3.5,1.1c-0.4-0.2-0.8-0.6-1.1-1.1L79,30.3l-7.9,15c-0.7,1.3-2.2,1.8-3.5,1.1c-0.5-0.2-0.8-0.6-1.1-1.1L46.8,8
			c-0.7-1.3-0.2-2.8,1.1-3.5c0.4-0.2,0.8-0.3,1.2-0.3H74.8L74.8,4.2z"/>
	</g>
	<g class="st2">
		<path class="st3" d="M174.8,15.5c-0.5,0-0.9-0.1-1.2-0.3s-0.5-0.5-0.7-0.9c-0.1-0.4-0.2-0.8-0.2-1.3V6c0-0.5,0.1-0.9,0.3-1.3
			s0.5-0.7,0.8-0.9s0.8-0.3,1.2-0.3s0.7,0.1,1,0.2c0.3,0.1,0.5,0.3,0.7,0.6c0.2,0.2,0.4,0.5,0.5,0.8s0.2,0.6,0.2,1v1.8h-1.7v-2
			c0-0.2,0-0.4-0.1-0.6S175.4,5,175.1,5c-0.2,0-0.4,0.1-0.4,0.3c-0.1,0.2-0.1,0.4-0.1,0.6V13c0,0.2,0,0.4,0.1,0.6
			c0.1,0.2,0.2,0.3,0.4,0.3s0.4-0.1,0.5-0.3s0.1-0.4,0.1-0.6v-2H175V9.5h2.4v5.9h-1l-0.2-0.6c-0.2,0.2-0.3,0.4-0.6,0.6
			C175.3,15.4,175.1,15.5,174.8,15.5z"/>
		<path class="st3" d="M180.3,15.4V3.5h4v1.8H182v3.2h1.6v1.7H182v3.3h2.2v1.8L180.3,15.4L180.3,15.4z"/>
		<path class="st3" d="M187.2,15.4V3.5h2.2l1,6.2l0.1,0.6l0,0l0.1-0.6l1-6.2h2.2v11.9h-1.6v-8H192l-0.1,0.5l-1,7.5H190l-1-7.5
			l-0.1-0.5h-0.1v8H187.2z"/>
		<path class="st3" d="M196.6,15.4V3.5h4v1.8h-2.2v3.2h1.6v1.7h-1.6v3.3h2.2v1.8L196.6,15.4L196.6,15.4z"/>
		<path class="st3" d="M203.5,15.4V3.5h1.7v11.9H203.5z"/>
		<path class="st3" d="M208.2,15.4V3.5h1.6l1.6,6.2l0.1,0.5h0.1V3.5h1.6v11.9h-1.5L210,9.2l-0.1-0.5h-0.1v6.7H208.2z"/>
		<path class="st3" d="M216.2,15.4V3.5h1.6l1.6,6.2l0.1,0.5h0.1V3.5h1.6v11.9h-1.5L218,9.2l-0.1-0.5h-0.1v6.7H216.2z"/>
		<path class="st3" d="M226.5,15.5c-0.5,0-0.9-0.1-1.3-0.3s-0.6-0.5-0.8-0.9s-0.3-0.8-0.3-1.3V3.5h1.7v9.4c0,0.2,0,0.4,0.1,0.6
			c0.1,0.2,0.2,0.3,0.4,0.3s0.4-0.1,0.5-0.3s0.1-0.4,0.1-0.6V3.5h1.7v9.4c0,0.5-0.1,0.9-0.3,1.3c-0.2,0.4-0.5,0.7-0.8,0.9
			C227.4,15.4,227,15.5,226.5,15.5z M224.6,2.5V0.9h1.5v1.6H224.6z M226.9,2.5V0.9h1.5v1.6H226.9z"/>
		<path class="st3" d="M232.9,15.4V5.3h-1.6V3.5h5v1.8h-1.6v10.1C234.7,15.4,232.9,15.4,232.9,15.4z"/>
		<path class="st3" d="M238.3,15.4v-1.9l2.7-8.3h-2.3V3.5h4.2v1.7l-2.8,8.4h2.8v1.7h-4.6V15.4z"/>
		<path class="st3" d="M245.4,15.4V3.5h1.7v11.9H245.4z"/>
		<path class="st3" d="M252,15.5c-0.5,0-0.9-0.1-1.2-0.3s-0.5-0.5-0.7-0.9c-0.1-0.4-0.2-0.8-0.2-1.3V6c0-0.5,0.1-0.9,0.3-1.3
			s0.5-0.7,0.8-0.9s0.8-0.3,1.2-0.3s0.7,0.1,1,0.2c0.3,0.1,0.5,0.3,0.7,0.6c0.2,0.2,0.4,0.5,0.5,0.8s0.2,0.6,0.2,1v1.8h-1.7v-2
			c0-0.2,0-0.4-0.1-0.6S252.6,5,252.3,5c-0.2,0-0.4,0.1-0.4,0.3c-0.1,0.2-0.1,0.4-0.1,0.6V13c0,0.2,0,0.4,0.1,0.6
			c0.1,0.2,0.2,0.3,0.4,0.3s0.4-0.1,0.5-0.3s0.1-0.4,0.1-0.6v-2h-0.7V9.5h2.4v5.9h-1l-0.2-0.6c-0.2,0.2-0.3,0.4-0.6,0.6
			C252.6,15.4,252.3,15.5,252,15.5z"/>
		<path class="st3" d="M257.5,15.4V3.5h4v1.8h-2.2v3.2h1.6v1.7h-1.6v3.3h2.2v1.8L257.5,15.4L257.5,15.4z"/>
	</g>
	<g class="st2">
		<path class="st3" d="M174,35.6l-1.6-11.9h1.6l0.7,6.2v0.4h0.1v-0.4l0.7-6.2h1.3l0.7,6.2v0.4h0.1v-0.4l0.7-6.2h1.6l-1.6,11.9h-1.4
			l-0.8-5.6l-0.1-0.7h-0.1l-0.1,0.7l-0.8,5.6H174z"/>
		<path class="st3" d="M184.9,35.7c-0.5,0-0.9-0.1-1.2-0.3s-0.6-0.5-0.8-0.9s-0.3-0.8-0.3-1.3v-7c0-0.5,0.1-0.9,0.3-1.3
			s0.5-0.7,0.8-0.9c0.3-0.2,0.8-0.3,1.2-0.3s0.9,0.1,1.2,0.3c0.3,0.2,0.6,0.5,0.8,0.9s0.3,0.8,0.3,1.3v7c0,0.5-0.1,0.9-0.3,1.3
			c-0.2,0.4-0.5,0.7-0.8,0.9C185.8,35.6,185.4,35.7,184.9,35.7z M184.9,34c0.2,0,0.4-0.1,0.5-0.3s0.1-0.4,0.1-0.6v-7
			c0-0.2,0-0.4-0.1-0.6s-0.2-0.3-0.4-0.3s-0.3,0.1-0.4,0.3c-0.1,0.2-0.1,0.4-0.1,0.6v7c0,0.2,0,0.4,0.1,0.6
			C184.6,33.9,184.7,34,184.9,34z"/>
		<path class="st3" d="M190.1,35.6V23.7h1.7v4.9h1.4v-4.9h1.7v11.9h-1.7v-5.2h-1.4v5.2H190.1z"/>
		<path class="st3" d="M197.8,35.6V23.7h1.6l1.6,6.2l0.1,0.5h0.1v-6.7h1.6v11.9h-1.5l-1.8-6.2l-0.1-0.5h-0.1v6.7H197.8z"/>
		<path class="st3" d="M208.2,35.7c-0.5,0-0.9-0.1-1.3-0.3c-0.3-0.2-0.6-0.5-0.8-0.9s-0.3-0.8-0.3-1.3v-9.4h1.7v9.4
			c0,0.2,0,0.4,0.1,0.6c0.1,0.2,0.2,0.3,0.4,0.3s0.4-0.1,0.5-0.3s0.1-0.4,0.1-0.6v-9.4h1.7v9.4c0,0.5-0.1,0.9-0.3,1.3
			c-0.2,0.4-0.5,0.7-0.8,0.9C209.1,35.6,208.6,35.7,208.2,35.7z"/>
		<path class="st3" d="M213.4,35.6V23.7h1.6l1.6,6.2l0.1,0.5h0.1v-6.7h1.6v11.9H217l-1.8-6.2l-0.1-0.5H215v6.7H213.4z"/>
		<path class="st3" d="M223.4,35.7c-0.5,0-0.9-0.1-1.2-0.3s-0.5-0.5-0.7-0.9c-0.1-0.4-0.2-0.8-0.2-1.3v-7c0-0.5,0.1-0.9,0.3-1.3
			s0.5-0.7,0.8-0.9c0.3-0.2,0.8-0.3,1.2-0.3s0.7,0.1,1,0.2s0.5,0.3,0.7,0.6c0.2,0.2,0.4,0.5,0.5,0.8s0.2,0.6,0.2,1v1.8h-1.7v-1.8
			c0-0.2,0-0.4-0.1-0.6s-0.2-0.3-0.5-0.3c-0.2,0-0.4,0.1-0.4,0.3c-0.1,0.2-0.1,0.4-0.1,0.6v7.1c0,0.2,0,0.4,0.1,0.6
			c0.1,0.2,0.2,0.3,0.4,0.3s0.4-0.1,0.5-0.3s0.1-0.4,0.1-0.6v-2h-0.7v-1.6h2.4v5.9h-1l-0.2-0.6c-0.2,0.2-0.3,0.4-0.6,0.6
			C223.9,35.6,223.6,35.7,223.4,35.7z"/>
		<path class="st3" d="M231,35.7c-0.5,0-0.9-0.1-1.2-0.2c-0.3-0.2-0.6-0.4-0.8-0.7s-0.3-0.7-0.4-1.1c-0.1-0.4-0.1-0.9-0.1-1.4
			l1.7-0.2c0,0.3,0,0.5,0,0.7s0.1,0.5,0.1,0.6s0.1,0.3,0.2,0.5s0.2,0.2,0.4,0.2c0.3,0,0.4-0.1,0.5-0.4c0.1-0.2,0.2-0.5,0.2-0.9
			s-0.1-0.7-0.3-1.1c-0.2-0.4-0.4-0.7-0.6-1c-0.4-0.6-0.8-1.1-1.1-1.6s-0.6-0.9-0.7-1.4c-0.2-0.5-0.3-0.9-0.3-1.5
			c0-0.4,0.1-0.8,0.2-1.1c0.1-0.3,0.3-0.6,0.4-0.9c0.2-0.3,0.4-0.4,0.7-0.6c0.3-0.1,0.6-0.2,1-0.2s0.8,0.1,1.1,0.2
			c0.3,0.2,0.6,0.4,0.8,0.6c0.2,0.3,0.3,0.6,0.4,1c0.1,0.4,0.1,0.8,0.1,1.3l-1.7,0.2c0-0.2,0-0.4,0-0.6s-0.1-0.4-0.1-0.6
			s-0.1-0.3-0.2-0.4c-0.1-0.1-0.2-0.2-0.4-0.2s-0.4,0.1-0.5,0.3c-0.1,0.2-0.1,0.5-0.1,0.8c0,0.5,0.1,0.9,0.4,1.3
			c0.2,0.4,0.6,0.9,1,1.5c0.5,0.7,0.9,1.3,1.2,1.8c0.3,0.6,0.5,1.2,0.5,1.8c0,0.4,0,0.8-0.1,1.2s-0.2,0.7-0.4,0.9
			c-0.2,0.3-0.4,0.5-0.8,0.6C231.8,35.6,231.4,35.7,231,35.7z"/>
		<path class="st3" d="M235.9,35.6V23.7h1.8c0.6,0,1.1,0.1,1.6,0.3c0.4,0.2,0.8,0.5,1,1s0.4,1,0.4,1.8c0,0.6-0.1,1.1-0.2,1.5
			c-0.1,0.4-0.4,0.8-0.9,1c0.4,0.2,0.7,0.6,0.9,1.1s0.3,1.1,0.3,1.8c0,0.7-0.1,1.2-0.3,1.8c-0.2,0.5-0.5,0.9-0.9,1.2
			s-0.9,0.4-1.5,0.4C238.1,35.6,235.9,35.6,235.9,35.6z M237.7,28.6c0.5,0,0.8-0.1,1-0.4s0.3-0.7,0.3-1.2s-0.1-0.9-0.3-1.2
			s-0.5-0.4-1-0.4V28.6z M237.7,33.8c0.5,0,0.9-0.2,1-0.5c0.2-0.3,0.3-0.8,0.3-1.4c0-0.6-0.1-1.1-0.3-1.4s-0.5-0.5-1-0.5V33.8z"/>
		<path class="st3" d="M243.1,35.6l1.8-11.9h2.1l1.8,11.9h-1.7l-0.3-2.4h-1.7l-0.3,2.4H243.1z M245.3,31.3h1.2l-0.5-4v-0.6h-0.1v0.6
			L245.3,31.3z"/>
		<path class="st3" d="M253.6,35.7c-0.5,0-0.9-0.1-1.3-0.3c-0.3-0.2-0.6-0.5-0.8-0.9s-0.3-0.8-0.3-1.3v-9.4h1.7v9.4
			c0,0.2,0,0.4,0.1,0.6c0.1,0.2,0.2,0.3,0.4,0.3s0.4-0.1,0.5-0.3s0.1-0.4,0.1-0.6v-9.4h1.7v9.4c0,0.5-0.1,0.9-0.3,1.3
			c-0.2,0.4-0.5,0.7-0.8,0.9C254.5,35.6,254.1,35.7,253.6,35.7z"/>
		<path class="st3" d="M260.8,35.7c-0.5,0-0.9-0.1-1.2-0.3c-0.3-0.2-0.5-0.5-0.7-0.9c-0.1-0.4-0.2-0.8-0.2-1.3v-7
			c0-0.5,0.1-0.9,0.3-1.3c0.2-0.4,0.5-0.7,0.8-0.9c0.3-0.2,0.8-0.3,1.2-0.3c0.4,0,0.7,0.1,1,0.2s0.5,0.3,0.7,0.6
			c0.2,0.2,0.4,0.5,0.5,0.8s0.2,0.6,0.2,1v1.8h-1.7v-1.8c0-0.2,0-0.4-0.1-0.6s-0.2-0.3-0.5-0.3c-0.2,0-0.4,0.1-0.4,0.3
			c-0.1,0.2-0.1,0.4-0.1,0.6v7.1c0,0.2,0,0.4,0.1,0.6c0.1,0.2,0.2,0.3,0.4,0.3c0.2,0,0.4-0.1,0.5-0.3s0.1-0.4,0.1-0.6v-2H261v-1.6
			h2.4v5.9h-1l-0.2-0.6c-0.2,0.2-0.3,0.4-0.6,0.6C261.4,35.6,261.1,35.7,260.8,35.7z"/>
		<path class="st3" d="M266.3,35.6V23.7h4v1.8h-2.2v3.2h1.6v1.7h-1.6v3.3h2.2v1.8L266.3,35.6L266.3,35.6z"/>
		<path class="st3" d="M275.3,35.7c-0.5,0-0.9-0.1-1.2-0.2c-0.3-0.2-0.6-0.4-0.8-0.7c-0.2-0.3-0.3-0.7-0.4-1.1
			c-0.1-0.4-0.1-0.9-0.1-1.4l1.7-0.2c0,0.3,0,0.5,0,0.7s0.1,0.5,0.1,0.6s0.1,0.3,0.2,0.5s0.2,0.2,0.4,0.2c0.3,0,0.4-0.1,0.5-0.4
			c0.1-0.2,0.2-0.5,0.2-0.9s-0.1-0.7-0.3-1.1c-0.2-0.4-0.4-0.7-0.6-1c-0.4-0.6-0.8-1.1-1.1-1.6c-0.3-0.5-0.6-0.9-0.7-1.4
			c-0.2-0.5-0.3-0.9-0.3-1.5c0-0.4,0.1-0.8,0.2-1.1c0.1-0.3,0.3-0.6,0.4-0.9c0.2-0.3,0.4-0.4,0.7-0.6c0.3-0.1,0.6-0.2,1-0.2
			s0.8,0.1,1.1,0.2c0.3,0.2,0.6,0.4,0.8,0.6c0.2,0.3,0.3,0.6,0.4,1s0.1,0.8,0.1,1.3l-1.7,0.2c0-0.2,0-0.4,0-0.6s-0.1-0.4-0.1-0.6
			s-0.1-0.3-0.2-0.4s-0.2-0.2-0.4-0.2c-0.2,0-0.4,0.1-0.5,0.3c-0.1,0.2-0.1,0.5-0.1,0.8c0,0.5,0.1,0.9,0.4,1.3
			c0.2,0.4,0.6,0.9,1,1.5c0.5,0.7,0.9,1.3,1.2,1.8c0.3,0.6,0.5,1.2,0.5,1.8c0,0.4,0,0.8-0.1,1.2s-0.2,0.7-0.4,0.9
			c-0.2,0.3-0.4,0.5-0.8,0.6C276.1,35.6,275.8,35.7,275.3,35.7z"/>
		<path class="st3" d="M280.3,35.6V23.7h4v1.8h-2.2v3.2h1.6v1.7h-1.6v3.3h2.2v1.8L280.3,35.6L280.3,35.6z"/>
		<path class="st3" d="M287.2,35.6V23.7h1.7V34h2.3v1.6H287.2z"/>
		<path class="st3" d="M293.6,35.6V23.7h1.7V34h2.3v1.6H293.6z"/>
		<path class="st3" d="M302.1,35.7c-0.5,0-0.9-0.1-1.2-0.2c-0.3-0.2-0.6-0.4-0.8-0.7c-0.2-0.3-0.3-0.7-0.4-1.1
			c-0.1-0.4-0.1-0.9-0.1-1.4l1.7-0.2c0,0.3,0,0.5,0,0.7s0.1,0.5,0.1,0.6c0.1,0.2,0.1,0.3,0.2,0.5s0.2,0.2,0.4,0.2
			c0.3,0,0.4-0.1,0.5-0.4c0.1-0.2,0.2-0.5,0.2-0.9s-0.1-0.7-0.3-1.1c-0.2-0.4-0.4-0.7-0.6-1c-0.4-0.6-0.8-1.1-1.1-1.6
			c-0.3-0.5-0.6-0.9-0.7-1.4c-0.2-0.5-0.3-0.9-0.3-1.5c0-0.4,0.1-0.8,0.2-1.1c0.1-0.3,0.3-0.6,0.4-0.9c0.2-0.3,0.4-0.4,0.7-0.6
			c0.3-0.1,0.6-0.2,1-0.2s0.8,0.1,1.1,0.2c0.3,0.2,0.6,0.4,0.7,0.6c0.2,0.3,0.3,0.6,0.4,1s0.1,0.8,0.1,1.3l-1.7,0.2
			c0-0.2,0-0.4,0-0.6s-0.1-0.4-0.1-0.6s-0.1-0.3-0.2-0.4s-0.2-0.2-0.4-0.2c-0.2,0-0.4,0.1-0.5,0.3c-0.1,0.2-0.1,0.5-0.1,0.8
			c0,0.5,0.1,0.9,0.4,1.3c0.2,0.4,0.6,0.9,1,1.5c0.5,0.7,0.9,1.3,1.2,1.8c0.3,0.6,0.5,1.2,0.5,1.8c0,0.4,0,0.8-0.1,1.2
			s-0.2,0.7-0.4,0.9c-0.2,0.3-0.4,0.5-0.8,0.6C302.9,35.6,302.5,35.7,302.1,35.7z"/>
		<path class="st3" d="M309.3,35.7c-0.5,0-0.9-0.1-1.3-0.3c-0.3-0.2-0.6-0.5-0.8-0.9c-0.2-0.4-0.3-0.8-0.3-1.3v-7
			c0-0.5,0.1-0.9,0.3-1.3c0.2-0.4,0.5-0.7,0.8-0.9c0.3-0.2,0.8-0.3,1.2-0.3c0.4,0,0.7,0.1,1,0.2s0.5,0.3,0.7,0.6
			c0.2,0.2,0.4,0.5,0.5,0.8s0.2,0.6,0.2,1v1.6H310v-1.6c0-0.2-0.1-0.5-0.2-0.6c-0.1-0.2-0.3-0.3-0.5-0.3s-0.4,0.1-0.5,0.3
			c-0.1,0.2-0.1,0.4-0.1,0.6v7c0,0.2,0.1,0.4,0.2,0.6c0.1,0.2,0.3,0.3,0.5,0.3s0.4-0.1,0.5-0.3s0.1-0.4,0.1-0.6v-1.6h1.6v1.6
			c0,0.5-0.1,0.9-0.3,1.3s-0.5,0.7-0.8,0.9C310.2,35.6,309.7,35.7,309.3,35.7z"/>
		<path class="st3" d="M314.4,35.6V23.7h1.7v4.9h1.4v-4.9h1.7v11.9h-1.7v-5.2h-1.4v5.2H314.4z"/>
		<path class="st3" d="M321.8,35.6l1.8-11.9h2.1l1.8,11.9h-1.7l-0.3-2.4h-1.7l-0.3,2.4H321.8z M324.1,31.3h1.2l-0.5-4v-0.6h-0.1v0.6
			L324.1,31.3z"/>
		<path class="st3" d="M330.1,35.6V23.7h4.1v1.8h-2.4v3.1h1.6v1.8h-1.6v5.2H330.1z"/>
		<path class="st3" d="M337.7,35.6V25.5h-1.6v-1.8h5v1.8h-1.6v10.1H337.7z"/>
	</g>
	<g class="st2">
		<path class="st3" d="M172.8,55.7V43.9h1.8c0.6,0,1,0.1,1.4,0.3s0.7,0.5,0.9,0.9s0.4,1,0.5,1.8s0.2,1.7,0.2,2.9s-0.1,2.2-0.2,2.9
			c-0.1,0.8-0.3,1.4-0.5,1.8c-0.2,0.4-0.5,0.7-0.9,0.9s-0.9,0.3-1.4,0.3C174.6,55.7,172.8,55.7,172.8,55.7z M174.6,54
			c0.4,0,0.7-0.2,0.9-0.5s0.3-0.8,0.3-1.5c0-0.6,0.1-1.4,0.1-2.2c0-0.9,0-1.6-0.1-2.2c0-0.6-0.1-1.1-0.3-1.4
			c-0.2-0.3-0.5-0.5-0.9-0.5V54z"/>
		<path class="st3" d="M180.4,55.7V43.9h4v1.8h-2.2v3.2h1.6v1.7h-1.6v3.3h2.2v1.8H180.4z"/>
		<path class="st3" d="M187.3,55.7V43.9h1.7c1,0,1.8,0.3,2.3,0.9c0.5,0.6,0.7,1.4,0.7,2.6c0,0.7-0.1,1.2-0.4,1.7
			c-0.2,0.5-0.5,0.8-0.9,1.1l1.2,5.6h-1.7l-1-5h-0.3v5L187.3,55.7L187.3,55.7z M189.1,49.1c0.3,0,0.6-0.1,0.8-0.2
			c0.2-0.1,0.3-0.3,0.4-0.6s0.1-0.6,0.1-0.9c0-0.6-0.1-1-0.3-1.3s-0.5-0.5-1-0.5V49.1z"/>
		<path class="st3" d="M200.9,55.9c-0.5,0-0.9-0.1-1.2-0.2c-0.3-0.2-0.6-0.4-0.8-0.7s-0.3-0.7-0.4-1.1c-0.1-0.4-0.1-0.9-0.1-1.4
			l1.7-0.2c0,0.3,0,0.5,0,0.7s0.1,0.5,0.1,0.6s0.1,0.3,0.2,0.5c0.1,0.1,0.2,0.2,0.4,0.2c0.3,0,0.4-0.1,0.5-0.4
			c0.1-0.2,0.2-0.5,0.2-0.9c0-0.3-0.1-0.7-0.3-1.1c-0.2-0.4-0.4-0.7-0.6-1c-0.4-0.6-0.8-1.1-1.1-1.6s-0.6-0.9-0.7-1.4
			c-0.2-0.5-0.3-0.9-0.3-1.5c0-0.4,0.1-0.8,0.2-1.1c0.1-0.3,0.3-0.6,0.4-0.9c0.2-0.3,0.4-0.4,0.7-0.6c0.3-0.1,0.6-0.2,1-0.2
			s0.8,0.1,1.1,0.2s0.6,0.4,0.8,0.6c0.2,0.3,0.3,0.6,0.4,1c0.1,0.4,0.1,0.8,0.1,1.3l-1.7,0.2c0-0.2,0-0.4,0-0.6
			c0-0.2-0.1-0.4-0.1-0.6c0-0.2-0.1-0.3-0.2-0.4c-0.1-0.1-0.2-0.2-0.4-0.2s-0.4,0.1-0.5,0.3s-0.1,0.5-0.1,0.8c0,0.5,0.1,0.9,0.4,1.3
			c0.2,0.4,0.6,0.9,1,1.5c0.5,0.7,0.9,1.3,1.2,1.8c0.3,0.6,0.5,1.2,0.5,1.8c0,0.4,0,0.8-0.1,1.2s-0.2,0.7-0.4,0.9
			c-0.2,0.3-0.4,0.5-0.8,0.6C201.7,55.8,201.3,55.9,200.9,55.9z"/>
		<path class="st3" d="M207,55.7v-10h-1.6v-1.8h5v1.8h-1.6v10.1H207V55.7z"/>
		<path class="st3" d="M211.7,55.7l1.8-11.9h2.1l1.8,11.9h-1.7l-0.3-2.4h-1.7l-0.3,2.4C213.4,55.7,211.7,55.7,211.7,55.7z
			 M213.9,51.5h1.2l-0.5-4v-0.6h-0.1v0.6L213.9,51.5z"/>
		<path class="st3" d="M219.9,55.7V43.9h1.8c0.6,0,1,0.1,1.4,0.3s0.7,0.5,0.9,0.9s0.4,1,0.5,1.8s0.2,1.7,0.2,2.9s-0.1,2.2-0.2,2.9
			c-0.1,0.8-0.3,1.4-0.5,1.8c-0.2,0.4-0.5,0.7-0.9,0.9s-0.9,0.3-1.4,0.3C221.7,55.7,219.9,55.7,219.9,55.7z M221.7,54
			c0.4,0,0.7-0.2,0.9-0.5s0.3-0.8,0.3-1.5c0-0.6,0.1-1.4,0.1-2.2c0-0.9,0-1.6-0.1-2.2c0-0.6-0.1-1.1-0.3-1.4
			c-0.2-0.3-0.5-0.5-0.9-0.5V54z"/>
		<path class="st3" d="M228.7,55.7v-10h-1.6v-1.8h5v1.8h-1.6v10.1h-1.8V55.7z"/>
		<path class="st3" d="M238.6,55.7V43.9h1.7v4V48h0.1l0.1-0.2l1.4-4h1.8l-1.6,3.9l1.8,8h-1.8l-1.2-5.4l0,0l-0.5,1.2v4.2H238.6z"/>
		<path class="st3" d="M245.9,55.7l1.8-11.9h2.1l1.8,11.9H250l-0.3-2.4H248l-0.3,2.4C247.7,55.7,245.9,55.7,245.9,55.7z M248.2,51.5
			h1.2l-0.5-4v-0.6h-0.1v0.6L248.2,51.5z"/>
		<path class="st3" d="M256.1,55.9c-0.5,0-0.9-0.1-1.2-0.2s-0.6-0.4-0.8-0.7s-0.3-0.7-0.4-1.1c-0.1-0.4-0.1-0.9-0.1-1.4l1.7-0.2
			c0,0.3,0,0.5,0,0.7s0.1,0.5,0.1,0.6s0.1,0.3,0.2,0.5s0.2,0.2,0.4,0.2c0.3,0,0.4-0.1,0.5-0.4c0.1-0.2,0.2-0.5,0.2-0.9
			c0-0.3-0.1-0.7-0.3-1.1c-0.2-0.4-0.4-0.7-0.6-1c-0.4-0.6-0.8-1.1-1.1-1.6s-0.6-0.9-0.7-1.4c-0.2-0.5-0.3-0.9-0.3-1.5
			c0-0.4,0.1-0.8,0.2-1.1c0.1-0.3,0.3-0.6,0.4-0.9c0.2-0.3,0.4-0.4,0.7-0.6c0.3-0.1,0.6-0.2,1-0.2s0.8,0.1,1.1,0.2
			c0.3,0.2,0.6,0.4,0.8,0.6c0.2,0.3,0.3,0.6,0.4,1s0.1,0.8,0.1,1.3l-1.7,0.2c0-0.2,0-0.4,0-0.6c0-0.2-0.1-0.4-0.1-0.6
			c0-0.2-0.1-0.3-0.2-0.4c-0.1-0.1-0.2-0.2-0.4-0.2c-0.2,0-0.4,0.1-0.5,0.3s-0.1,0.5-0.1,0.8c0,0.5,0.1,0.9,0.4,1.3
			c0.2,0.4,0.6,0.9,1,1.5c0.5,0.7,0.9,1.3,1.2,1.8c0.3,0.6,0.5,1.2,0.5,1.8c0,0.4,0,0.8-0.1,1.2s-0.2,0.7-0.4,0.9
			c-0.2,0.3-0.4,0.5-0.8,0.6C256.9,55.8,256.6,55.9,256.1,55.9z"/>
		<path class="st3" d="M263.2,55.9c-0.5,0-0.9-0.1-1.2-0.2c-0.3-0.2-0.6-0.4-0.8-0.7c-0.2-0.3-0.3-0.7-0.4-1.1
			c-0.1-0.4-0.1-0.9-0.1-1.4l1.7-0.2c0,0.3,0,0.5,0,0.7s0.1,0.5,0.1,0.6s0.1,0.3,0.2,0.5s0.2,0.2,0.4,0.2c0.3,0,0.4-0.1,0.5-0.4
			c0.1-0.2,0.2-0.5,0.2-0.9c0-0.3-0.1-0.7-0.3-1.1c-0.2-0.4-0.4-0.7-0.6-1c-0.4-0.6-0.8-1.1-1.1-1.6c-0.3-0.5-0.6-0.9-0.7-1.4
			c-0.2-0.5-0.3-0.9-0.3-1.5c0-0.4,0.1-0.8,0.2-1.1s0.3-0.6,0.4-0.9c0.2-0.3,0.4-0.4,0.7-0.6s0.6-0.2,1-0.2s0.8,0.1,1.1,0.2
			c0.3,0.2,0.6,0.4,0.8,0.6c0.2,0.3,0.3,0.6,0.4,1s0.1,0.8,0.1,1.3l-1.7,0.2c0-0.2,0-0.4,0-0.6c0-0.2-0.1-0.4-0.1-0.6
			c0-0.2-0.1-0.3-0.2-0.4c-0.1-0.1-0.2-0.2-0.4-0.2c-0.2,0-0.4,0.1-0.5,0.3s-0.1,0.5-0.1,0.8c0,0.5,0.1,0.9,0.4,1.3
			c0.2,0.4,0.6,0.9,1,1.5c0.5,0.7,0.9,1.3,1.2,1.8c0.3,0.6,0.5,1.2,0.5,1.8c0,0.4,0,0.8-0.1,1.2s-0.2,0.7-0.4,0.9
			c-0.2,0.3-0.4,0.5-0.8,0.6C264,55.8,263.6,55.9,263.2,55.9z"/>
		<path class="st3" d="M268.2,55.7V43.9h4v1.8H270v3.2h1.6v1.7H270v3.3h2.2v1.8H268.2z"/>
		<path class="st3" d="M275.1,55.7V43.9h1.7v10.3h2.3v1.6L275.1,55.7L275.1,55.7z"/>
	</g>
</g>
</svg>
