<svg xmlns="http://www.w3.org/2000/svg" width="1487.302" height="1157.636" viewBox="0 0 1487.302 1157.636">
  <g id="Hintergrund_header" data-name="Hintergrund header" transform="translate(77.437 765.516)">
    <g id="gestrichelte_Linie" data-name="gestrichelte Linie" transform="translate(-77.437 -510.519) rotate(-11)" fill="none" stroke-dasharray="25">
      <path d="M25.335,0H1311.066A25.335,25.335,0,0,1,1336.4,25.335V894.2a25.335,25.335,0,0,1-25.335,25.335H25.335A25.335,25.335,0,0,1,0,894.2V25.335A25.335,25.335,0,0,1,25.335,0Z" stroke="none"/>
      <path d="M 25.3345947265625 -0.0001220703125 L 50.3345947265625 -0.0001220703125 L 50.3345947265625 2.9998779296875 L 25.3345947265625 2.9998779296875 L 25.3345947265625 -0.0001220703125 C 25.3345947265625 -0.0001220703125 25.3345947265625 -0.0001220703125 25.3345947265625 -0.0001220703125 Z M 75.3345947265625 -0.0001220703125 L 100.3345947265625 -0.0001220703125 L 100.3345947265625 2.9998779296875 L 75.3345947265625 2.9998779296875 L 75.3345947265625 -0.0001220703125 Z M 125.3345947265625 -0.0001220703125 L 150.3345947265625 -0.0001220703125 L 150.3345947265625 2.9998779296875 L 125.3345947265625 2.9998779296875 L 125.3345947265625 -0.0001220703125 Z M 175.3345947265625 -0.0001220703125 L 200.3345947265625 -0.0001220703125 L 200.3345947265625 2.9998779296875 L 175.3345947265625 2.9998779296875 L 175.3345947265625 -0.0001220703125 Z M 225.3345947265625 -0.0001220703125 L 250.3345947265625 -0.0001220703125 L 250.3345947265625 2.9998779296875 L 225.3345947265625 2.9998779296875 L 225.3345947265625 -0.0001220703125 Z M 275.3345947265625 -0.0001220703125 L 300.3345947265625 -0.0001220703125 L 300.3345947265625 2.9998779296875 L 275.3345947265625 2.9998779296875 L 275.3345947265625 -0.0001220703125 Z M 325.3346557617188 -0.0001220703125 L 350.3346557617188 -0.0001220703125 L 350.3346557617188 2.9998779296875 L 325.3346557617188 2.9998779296875 L 325.3346557617188 -0.0001220703125 Z M 375.3346557617188 -0.0001220703125 L 400.3346557617188 -0.0001220703125 L 400.3346557617188 2.9998779296875 L 375.3346557617188 2.9998779296875 L 375.3346557617188 -0.0001220703125 Z M 425.3346557617188 -0.0001220703125 L 450.3346557617188 -0.0001220703125 L 450.3346557617188 2.9998779296875 L 425.3346557617188 2.9998779296875 L 425.3346557617188 -0.0001220703125 Z M 475.3346557617188 -0.0001220703125 L 500.3346557617188 -0.0001220703125 L 500.3346557617188 2.9998779296875 L 475.3346557617188 2.9998779296875 L 475.3346557617188 -0.0001220703125 Z M 525.3346557617188 -0.0001220703125 L 550.3346557617188 -0.0001220703125 L 550.3346557617188 2.9998779296875 L 525.3346557617188 2.9998779296875 L 525.3346557617188 -0.0001220703125 Z M 575.3346557617188 -0.0001220703125 L 600.3346557617188 -0.0001220703125 L 600.3346557617188 2.9998779296875 L 575.3346557617188 2.9998779296875 L 575.3346557617188 -0.0001220703125 Z M 625.3346557617188 -0.0001220703125 L 650.3346557617188 -0.0001220703125 L 650.3346557617188 2.9998779296875 L 625.3346557617188 2.9998779296875 L 625.3346557617188 -0.0001220703125 Z M 675.3346557617188 -0.0001220703125 L 700.3346557617188 -0.0001220703125 L 700.3346557617188 2.9998779296875 L 675.3346557617188 2.9998779296875 L 675.3346557617188 -0.0001220703125 Z M 725.3346557617188 -0.0001220703125 L 750.3346557617188 -0.0001220703125 L 750.3346557617188 2.9998779296875 L 725.3346557617188 2.9998779296875 L 725.3346557617188 -0.0001220703125 Z M 775.3346557617188 -0.0001220703125 L 800.3346557617188 -0.0001220703125 L 800.3346557617188 2.9998779296875 L 775.3346557617188 2.9998779296875 L 775.3346557617188 -0.0001220703125 Z M 825.3346557617188 -0.0001220703125 L 850.3346557617188 -0.0001220703125 L 850.3346557617188 2.9998779296875 L 825.3346557617188 2.9998779296875 L 825.3346557617188 -0.0001220703125 Z M 875.3346557617188 -0.0001220703125 L 900.3346557617188 -0.0001220703125 L 900.3346557617188 2.9998779296875 L 875.3346557617188 2.9998779296875 L 875.3346557617188 -0.0001220703125 Z M 925.3346557617188 -0.0001220703125 L 950.3346557617188 -0.0001220703125 L 950.3346557617188 2.9998779296875 L 925.3346557617188 2.9998779296875 L 925.3346557617188 -0.0001220703125 Z M 975.3346557617188 -0.0001220703125 L 1000.334655761719 -0.0001220703125 L 1000.334655761719 2.9998779296875 L 975.3346557617188 2.9998779296875 L 975.3346557617188 -0.0001220703125 Z M 1025.334716796875 -0.0001220703125 L 1050.334716796875 -0.0001220703125 L 1050.334716796875 2.9998779296875 L 1025.334716796875 2.9998779296875 L 1025.334716796875 -0.0001220703125 Z M 1075.334716796875 -0.0001220703125 L 1100.334716796875 -0.0001220703125 L 1100.334716796875 2.9998779296875 L 1075.334716796875 2.9998779296875 L 1075.334716796875 -0.0001220703125 Z M 1125.334716796875 -0.0001220703125 L 1150.334716796875 -0.0001220703125 L 1150.334716796875 2.9998779296875 L 1125.334716796875 2.9998779296875 L 1125.334716796875 -0.0001220703125 Z M 1175.334716796875 -0.0001220703125 L 1200.334716796875 -0.0001220703125 L 1200.334716796875 2.9998779296875 L 1175.334716796875 2.9998779296875 L 1175.334716796875 -0.0001220703125 Z M 1225.334594726562 -0.0001220703125 L 1250.334594726562 -0.0001220703125 L 1250.334594726562 2.9998779296875 L 1225.334594726562 2.9998779296875 L 1225.334594726562 -0.0001220703125 Z M 1275.334594726562 -0.0001220703125 L 1300.334594726562 -0.0001220703125 L 1300.334594726562 2.9998779296875 L 1275.334594726562 2.9998779296875 L 1275.334594726562 -0.0001220703125 Z M 1324.592163085938 3.9090576171875 C 1324.978515625 4.153564453125 1325.3583984375 4.4085693359375 1325.730346679688 4.6729736328125 C 1325.731567382812 4.673828125 1325.732299804688 4.67437744140625 1325.733520507812 4.67529296875 C 1325.82470703125 4.7401123046875 1325.916625976562 4.806396484375 1326.0068359375 4.8724365234375 C 1326.008544921875 4.87359619140625 1326.009643554688 4.87445068359375 1326.011352539062 4.87567138671875 C 1326.020263671875 4.8822021484375 1326.029663085938 4.88909912109375 1326.03857421875 4.8956298828125 C 1326.040649414062 4.89715576171875 1326.041748046875 4.89801025390625 1326.043823242188 4.89947509765625 C 1326.0732421875 4.92108154296875 1326.102416992188 4.94256591796875 1326.131713867188 4.96429443359375 C 1326.132080078125 4.964599609375 1326.132202148438 4.96466064453125 1326.132568359375 4.9649658203125 C 1326.140869140625 4.9710693359375 1326.149780273438 4.97772216796875 1326.158081054688 4.98382568359375 C 1326.160888671875 4.9859619140625 1326.163452148438 4.9879150390625 1326.166381835938 4.989990234375 C 1326.174560546875 4.99615478515625 1326.18310546875 5.00244140625 1326.191284179688 5.00860595703125 C 1326.193725585938 5.0103759765625 1326.19677734375 5.0126953125 1326.19921875 5.01446533203125 C 1326.20751953125 5.0206298828125 1326.215209960938 5.02642822265625 1326.223510742188 5.0325927734375 C 1326.225952148438 5.034423828125 1326.227783203125 5.03582763671875 1326.230224609375 5.03759765625 C 1326.24609375 5.04949951171875 1326.262329101562 5.06170654296875 1326.278198242188 5.07366943359375 C 1326.281005859375 5.07574462890625 1326.283813476562 5.077880859375 1326.28662109375 5.08001708984375 C 1326.294311523438 5.08575439453125 1326.302978515625 5.09228515625 1326.310546875 5.0980224609375 C 1326.313354492188 5.10015869140625 1326.316528320312 5.1025390625 1326.3193359375 5.10467529296875 C 1326.32763671875 5.11090087890625 1326.334716796875 5.11627197265625 1326.343017578125 5.12249755859375 C 1326.346557617188 5.125244140625 1326.349975585938 5.1278076171875 1326.353515625 5.13055419921875 C 1326.378784179688 5.14971923828125 1326.403930664062 5.1688232421875 1326.42919921875 5.18804931640625 C 1326.432373046875 5.19049072265625 1326.43603515625 5.19329833984375 1326.439208984375 5.19573974609375 C 1326.44677734375 5.2015380859375 1326.453002929688 5.206298828125 1326.460571289062 5.21209716796875 C 1326.464965820312 5.2154541015625 1326.46875 5.2183837890625 1326.47314453125 5.2216796875 C 1326.480712890625 5.22747802734375 1326.48779296875 5.23291015625 1326.495239257812 5.23870849609375 C 1326.498413085938 5.24114990234375 1326.500854492188 5.24298095703125 1326.504028320312 5.24542236328125 C 1326.521606445312 5.25897216796875 1326.53955078125 5.2728271484375 1326.55712890625 5.286376953125 C 1326.55712890625 5.286376953125 1326.557250976562 5.2864990234375 1326.557250976562 5.2864990234375 C 1326.564086914062 5.29180908203125 1326.570434570312 5.2967529296875 1326.577270507812 5.30206298828125 C 1326.58251953125 5.30609130859375 1326.5869140625 5.3095703125 1326.592041015625 5.31353759765625 C 1326.598388671875 5.31842041015625 1326.605224609375 5.32373046875 1326.611450195312 5.32861328125 C 1326.615844726562 5.33197021484375 1326.620483398438 5.33563232421875 1326.624877929688 5.33905029296875 C 1326.631713867188 5.34442138671875 1326.638305664062 5.34954833984375 1326.645263671875 5.35491943359375 C 1326.649536132812 5.3582763671875 1326.654541015625 5.3621826171875 1326.658935546875 5.3656005859375 C 1326.66943359375 5.3739013671875 1326.68017578125 5.3822021484375 1326.690795898438 5.39056396484375 C 1326.697021484375 5.3955078125 1326.703247070312 5.40032958984375 1326.70947265625 5.4052734375 C 1326.715698242188 5.41015625 1326.720703125 5.41412353515625 1326.726928710938 5.41900634765625 C 1326.732055664062 5.42303466796875 1326.737548828125 5.4273681640625 1326.74267578125 5.431396484375 C 1326.748901367188 5.436279296875 1326.7548828125 5.4410400390625 1326.761108398438 5.4459228515625 C 1326.766235351562 5.449951171875 1326.771240234375 5.45391845703125 1326.7763671875 5.45794677734375 C 1326.782592773438 5.462890625 1326.789306640625 5.46826171875 1326.795532226562 5.47314453125 C 1326.801391601562 5.47784423828125 1326.807250976562 5.4825439453125 1326.813110351562 5.4871826171875 C 1326.821899414062 5.49407958984375 1326.83056640625 5.5009765625 1326.839233398438 5.5079345703125 C 1326.845825195312 5.51324462890625 1326.852661132812 5.51861572265625 1326.859252929688 5.52392578125 C 1326.8642578125 5.52789306640625 1326.870849609375 5.5330810546875 1326.875732421875 5.53704833984375 C 1326.881958007812 5.54205322265625 1326.887451171875 5.54638671875 1326.893676757812 5.55145263671875 C 1326.899291992188 5.555908203125 1326.904418945312 5.55999755859375 1326.909912109375 5.564453125 C 1326.916137695312 5.5694580078125 1326.92236328125 5.574462890625 1326.9287109375 5.5794677734375 C 1326.93359375 5.58343505859375 1326.938354492188 5.58721923828125 1326.943237304688 5.59124755859375 C 1326.953735351562 5.5997314453125 1326.964721679688 5.60858154296875 1326.975219726562 5.6170654296875 C 1326.97900390625 5.62005615234375 1326.982788085938 5.62310791015625 1326.986450195312 5.6260986328125 C 1326.994262695312 5.6324462890625 1327.001708984375 5.638427734375 1327.009399414062 5.64471435546875 C 1327.013793945312 5.648193359375 1327.019287109375 5.6527099609375 1327.023559570312 5.65618896484375 C 1327.030151367188 5.66156005859375 1327.037475585938 5.66741943359375 1327.044067382812 5.67279052734375 C 1327.04833984375 5.67633056640625 1327.052734375 5.679931640625 1327.05712890625 5.68341064453125 C 1327.064819335938 5.68975830078125 1327.07177734375 5.69537353515625 1327.079467773438 5.70172119140625 C 1327.083740234375 5.7052001953125 1327.087768554688 5.70849609375 1327.092041015625 5.71197509765625 C 1327.1025390625 5.72052001953125 1327.11376953125 5.729736328125 1327.124267578125 5.73834228515625 C 1327.127319335938 5.7408447265625 1327.130615234375 5.74359130859375 1327.133666992188 5.74609375 C 1327.142211914062 5.75311279296875 1327.150268554688 5.75970458984375 1327.158813476562 5.7667236328125 C 1327.162475585938 5.76971435546875 1327.165771484375 5.7724609375 1327.16943359375 5.7755126953125 C 1327.177856445312 5.782470703125 1327.186157226562 5.78936767578125 1327.194702148438 5.79638671875 C 1327.198364257812 5.79937744140625 1327.200439453125 5.8011474609375 1327.2041015625 5.80413818359375 C 1327.214111328125 5.81243896484375 1327.223510742188 5.8201904296875 1327.233520507812 5.8284912109375 C 1327.234741210938 5.82952880859375 1327.237060546875 5.8314208984375 1327.23828125 5.83245849609375 C 1327.249389648438 5.84173583984375 1327.261474609375 5.85174560546875 1327.272583007812 5.86102294921875 C 1327.275024414062 5.863037109375 1327.276977539062 5.86468505859375 1327.279418945312 5.86669921875 C 1327.288696289062 5.8743896484375 1327.297729492188 5.8819580078125 1327.307006835938 5.8896484375 C 1327.309936523438 5.8922119140625 1327.313598632812 5.89520263671875 1327.316650390625 5.89776611328125 C 1327.325073242188 5.90484619140625 1327.334350585938 5.91259765625 1327.3427734375 5.919677734375 C 1327.34521484375 5.9217529296875 1327.348266601562 5.92425537109375 1327.350708007812 5.92633056640625 C 1327.36181640625 5.9356689453125 1327.372192382812 5.94439697265625 1327.38330078125 5.9537353515625 C 1327.383911132812 5.95428466796875 1327.384521484375 5.954833984375 1327.385131835938 5.955322265625 C 1327.39697265625 5.96533203125 1327.408081054688 5.97467041015625 1327.419921875 5.98468017578125 C 1327.421752929688 5.9862060546875 1327.424072265625 5.98822021484375 1327.425903320312 5.98974609375 C 1327.43505859375 5.99749755859375 1327.444213867188 6.00531005859375 1327.453369140625 6.0130615234375 C 1327.45703125 6.01611328125 1327.459228515625 6.01800537109375 1327.462768554688 6.02105712890625 C 1327.471923828125 6.02880859375 1327.481323242188 6.03680419921875 1327.490478515625 6.0445556640625 C 1327.492309570312 6.046142578125 1327.494750976562 6.04827880859375 1327.49658203125 6.0498046875 C 1327.519409179688 6.06927490234375 1327.542724609375 6.08929443359375 1327.565551757812 6.10882568359375 C 1327.5673828125 6.1103515625 1327.570068359375 6.11273193359375 1327.571899414062 6.11431884765625 C 1327.581420898438 6.1224365234375 1327.591064453125 6.13079833984375 1327.6005859375 6.13897705078125 C 1327.602905273438 6.14105224609375 1327.604858398438 6.14263916015625 1327.607177734375 6.14471435546875 C 1327.64208984375 6.1748046875 1327.677001953125 6.20501708984375 1327.711669921875 6.23529052734375 C 1327.712890625 6.236328125 1327.714111328125 6.23748779296875 1327.71533203125 6.238525390625 C 1327.725830078125 6.24774169921875 1327.736572265625 6.257080078125 1327.7470703125 6.26629638671875 C 1327.748291015625 6.267333984375 1327.749389648438 6.26824951171875 1327.750610351562 6.269287109375 C 1327.785888671875 6.30029296875 1327.821411132812 6.33148193359375 1327.856567382812 6.3626708984375 C 1327.857177734375 6.36322021484375 1327.857666015625 6.3636474609375 1327.858276367188 6.36419677734375 C 1327.869873046875 6.37445068359375 1327.88134765625 6.38470458984375 1327.892944335938 6.39501953125 C 1327.892944335938 6.39501953125 1327.893432617188 6.3953857421875 1327.893432617188 6.3953857421875 C 1332.989501953125 10.92657470703125 1336.244384765625 17.4833984375 1336.395141601562 24.80291748046875 L 1333.395874023438 24.86456298828125 C 1333.2412109375 17.35540771484375 1329.350463867188 10.46942138671875 1322.988159179688 6.44439697265625 L 1324.592163085938 3.9090576171875 Z M 1333.400634765625 49.8031005859375 L 1336.400634765625 49.8031005859375 C 1336.400634765625 49.8031005859375 1336.400634765625 74.8031005859375 1336.400634765625 74.8031005859375 L 1333.400634765625 74.8031005859375 L 1333.400634765625 49.8031005859375 Z M 1333.400634765625 99.8031005859375 L 1336.400634765625 99.8031005859375 C 1336.400634765625 99.8031005859375 1336.400634765625 124.8031005859375 1336.400634765625 124.8031005859375 L 1333.400634765625 124.8031005859375 L 1333.400634765625 99.8031005859375 Z M 1333.400634765625 149.8031005859375 L 1336.400634765625 149.8031005859375 C 1336.400634765625 149.8031005859375 1336.400634765625 174.8031005859375 1336.400634765625 174.8031005859375 L 1333.400634765625 174.8031005859375 L 1333.400634765625 149.8031005859375 Z M 1333.400634765625 199.8031005859375 L 1336.400634765625 199.8031005859375 C 1336.400634765625 199.8031005859375 1336.400634765625 224.8031005859375 1336.400634765625 224.8031005859375 L 1333.400634765625 224.8031005859375 L 1333.400634765625 199.8031005859375 Z M 1333.400634765625 249.8031005859375 L 1336.400634765625 249.8031005859375 C 1336.400634765625 249.8031005859375 1336.400634765625 274.8031005859375 1336.400634765625 274.8031005859375 L 1333.400634765625 274.8031005859375 L 1333.400634765625 249.8031005859375 Z M 1333.400634765625 299.8031005859375 L 1336.400634765625 299.8031005859375 C 1336.400634765625 299.8031005859375 1336.400634765625 324.8031005859375 1336.400634765625 324.8031005859375 L 1333.400634765625 324.8031005859375 L 1333.400634765625 299.8031005859375 Z M 1333.400634765625 349.8031005859375 L 1336.400634765625 349.8031005859375 C 1336.400634765625 349.8031005859375 1336.400634765625 374.8031005859375 1336.400634765625 374.8031005859375 L 1333.400634765625 374.8031005859375 L 1333.400634765625 349.8031005859375 Z M 1333.400634765625 399.8031005859375 L 1336.400634765625 399.8031005859375 C 1336.400634765625 399.8031005859375 1336.400634765625 424.8030700683594 1336.400634765625 424.8030700683594 L 1333.400634765625 424.8030700683594 L 1333.400634765625 399.8031005859375 Z M 1333.400634765625 449.8030700683594 L 1336.400634765625 449.8030700683594 C 1336.400634765625 449.8030700683594 1336.400634765625 474.8030700683594 1336.400634765625 474.8030700683594 L 1333.400634765625 474.8030700683594 L 1333.400634765625 449.8030700683594 Z M 1333.400634765625 499.8030700683594 L 1336.400634765625 499.8030700683594 C 1336.400634765625 499.8030700683594 1336.400634765625 524.8031005859375 1336.400634765625 524.8031005859375 L 1333.400634765625 524.8031005859375 L 1333.400634765625 499.8030700683594 Z M 1333.400634765625 549.8031005859375 L 1336.400634765625 549.8031005859375 C 1336.400634765625 549.8031005859375 1336.400634765625 574.8031005859375 1336.400634765625 574.8031005859375 L 1333.400634765625 574.8031005859375 L 1333.400634765625 549.8031005859375 Z M 1333.400634765625 599.8031005859375 L 1336.400634765625 599.8031005859375 C 1336.400634765625 599.8031005859375 1336.400634765625 624.8031005859375 1336.400634765625 624.8031005859375 L 1333.400634765625 624.8031005859375 L 1333.400634765625 599.8031005859375 Z M 1333.400634765625 649.8031005859375 L 1336.400634765625 649.8031005859375 C 1336.400634765625 649.8031005859375 1336.400634765625 674.8031005859375 1336.400634765625 674.8031005859375 L 1333.400634765625 674.8031005859375 L 1333.400634765625 649.8031005859375 Z M 1333.400634765625 699.8031005859375 L 1336.400634765625 699.8031005859375 C 1336.400634765625 699.8031005859375 1336.400634765625 724.8031005859375 1336.400634765625 724.8031005859375 L 1333.400634765625 724.8031005859375 L 1333.400634765625 699.8031005859375 Z M 1333.400634765625 749.8031005859375 L 1336.400634765625 749.8031005859375 C 1336.400634765625 749.8031005859375 1336.400634765625 774.8031005859375 1336.400634765625 774.8031005859375 L 1333.400634765625 774.8031005859375 L 1333.400634765625 749.8031005859375 Z M 1333.400634765625 799.8031005859375 L 1336.400634765625 799.8031005859375 C 1336.400634765625 799.8031005859375 1336.400634765625 824.8031005859375 1336.400634765625 824.8031005859375 L 1333.400634765625 824.8031005859375 L 1333.400634765625 799.8031005859375 Z M 1333.400634765625 849.8031005859375 L 1336.400634765625 849.8031005859375 C 1336.400634765625 849.8031005859375 1336.400634765625 874.8031005859375 1336.400634765625 874.8031005859375 L 1333.400634765625 874.8031005859375 L 1333.400634765625 849.8031005859375 Z M 1332.861206054688 899.1027221679688 L 1335.788696289062 899.7582397460938 C 1335.218994140625 902.30224609375 1334.266845703125 904.7015991210938 1332.995483398438 906.8930053710938 C 1332.995483398438 906.8930053710938 1332.995239257812 906.8934326171875 1332.995239257812 906.8934326171875 C 1332.971069335938 906.9351806640625 1332.94677734375 906.9767456054688 1332.92236328125 907.018310546875 C 1332.921508789062 907.0196533203125 1332.92138671875 907.0199584960938 1332.920654296875 907.0213012695312 C 1332.913452148438 907.0335693359375 1332.906005859375 907.046142578125 1332.898803710938 907.058349609375 C 1332.89794921875 907.0597534179688 1332.896728515625 907.0618896484375 1332.895874023438 907.063232421875 C 1332.8798828125 907.09033203125 1332.863891601562 907.1173095703125 1332.847778320312 907.144287109375 C 1332.847412109375 907.1449584960938 1332.846069335938 907.1471557617188 1332.845703125 907.1478271484375 C 1332.838623046875 907.1597900390625 1332.83154296875 907.1715087890625 1332.824462890625 907.1834716796875 C 1332.8232421875 907.1854858398438 1332.8212890625 907.1886596679688 1332.820068359375 907.190673828125 C 1332.8134765625 907.2017822265625 1332.806640625 907.2132568359375 1332.799926757812 907.224365234375 C 1332.798706054688 907.2263793945312 1332.797241210938 907.2288208007812 1332.796020507812 907.2308349609375 C 1332.780029296875 907.2573852539062 1332.764404296875 907.2833862304688 1332.748291015625 907.3098754882812 C 1332.746704101562 907.3125610351562 1332.74609375 907.3134765625 1332.744506835938 907.316162109375 C 1332.737670898438 907.3274536132812 1332.731079101562 907.3383178710938 1332.724243164062 907.349609375 C 1332.722534179688 907.352294921875 1332.721069335938 907.354736328125 1332.719360351562 907.3574829101562 C 1332.712890625 907.3681030273438 1332.70654296875 907.3785400390625 1332.700073242188 907.38916015625 C 1332.698364257812 907.3919067382812 1332.69677734375 907.39453125 1332.695190429688 907.397216796875 C 1332.6875 907.4097900390625 1332.6796875 907.4225463867188 1332.671997070312 907.43505859375 C 1332.670288085938 907.4378051757812 1332.668823242188 907.4402465820312 1332.667114257812 907.4429931640625 C 1332.660888671875 907.453125 1332.654663085938 907.4632568359375 1332.6484375 907.473388671875 C 1332.645874023438 907.4774780273438 1332.643310546875 907.481689453125 1332.640747070312 907.4857177734375 C 1332.635620117188 907.494140625 1332.63037109375 907.502685546875 1332.625122070312 907.5110473632812 C 1332.622192382812 907.5158081054688 1332.61962890625 907.5199584960938 1332.61669921875 907.524658203125 C 1332.611083984375 907.53369140625 1332.60546875 907.542724609375 1332.599853515625 907.5517578125 C 1332.597412109375 907.5557861328125 1332.595581054688 907.5587768554688 1332.593017578125 907.5628051757812 C 1332.585571289062 907.5748901367188 1332.578002929688 907.5869750976562 1332.570434570312 907.5989990234375 C 1332.567993164062 907.60302734375 1332.564819335938 907.6079711914062 1332.562377929688 907.6119995117188 C 1332.557495117188 907.6197509765625 1332.552612304688 907.6275024414062 1332.5478515625 907.6351928710938 C 1332.54443359375 907.640625 1332.540405273438 907.64697265625 1332.536987304688 907.65234375 C 1332.532836914062 907.6589965820312 1332.52880859375 907.66552734375 1332.524536132812 907.6721801757812 C 1332.520751953125 907.67822265625 1332.516967773438 907.684326171875 1332.513061523438 907.6904296875 C 1332.509521484375 907.6961669921875 1332.505859375 907.7018432617188 1332.502197265625 907.7076416015625 C 1332.494140625 907.7203979492188 1332.486572265625 907.7324829101562 1332.478393554688 907.7452392578125 C 1332.475463867188 907.7499389648438 1332.472412109375 907.7546997070312 1332.469482421875 907.7593994140625 C 1332.465209960938 907.76611328125 1332.460693359375 907.7732543945312 1332.456420898438 907.7799682617188 C 1332.453002929688 907.7852783203125 1332.44921875 907.7911987304688 1332.44580078125 907.7965087890625 C 1332.441528320312 907.80322265625 1332.436889648438 907.8104858398438 1332.4326171875 907.8171997070312 C 1332.429443359375 907.8223266601562 1332.426025390625 907.8275146484375 1332.4228515625 907.8326416015625 C 1332.41845703125 907.8392944335938 1332.4140625 907.8463134765625 1332.409790039062 907.85302734375 C 1332.406860351562 907.8574829101562 1332.403930664062 907.862060546875 1332.401000976562 907.8665161132812 C 1332.39208984375 907.880615234375 1332.38330078125 907.8942260742188 1332.374145507812 907.9082641601562 C 1332.371459960938 907.9125366210938 1332.36865234375 907.9168701171875 1332.365966796875 907.921142578125 C 1332.361206054688 907.928466796875 1332.355712890625 907.9369506835938 1332.350952148438 907.9443359375 C 1332.348388671875 907.9481201171875 1332.345947265625 907.951904296875 1332.343505859375 907.9557495117188 C 1332.33837890625 907.9637451171875 1332.332763671875 907.972412109375 1332.327514648438 907.9804077148438 C 1332.326049804688 907.9827270507812 1332.324584960938 907.98486328125 1332.323120117188 907.9871826171875 C 1332.304077148438 908.0165405273438 1332.284301757812 908.0468139648438 1332.26513671875 908.0760498046875 C 1332.264526367188 908.076904296875 1332.264038085938 908.0777587890625 1332.263427734375 908.07861328125 C 1332.2568359375 908.0885620117188 1332.251098632812 908.097412109375 1332.244506835938 908.1073608398438 C 1332.243286132812 908.1093139648438 1332.242065429688 908.1110229492188 1332.240844726562 908.1129760742188 C 1332.214233398438 908.1534423828125 1332.1865234375 908.1952514648438 1332.15966796875 908.2355346679688 C 1332.1591796875 908.2362060546875 1332.15869140625 908.2369995117188 1332.158203125 908.2376098632812 C 1331.107421875 909.813232421875 1329.8857421875 911.2633056640625 1328.51806640625 912.5633544921875 C 1328.517944335938 912.5635375976562 1328.517700195312 912.563720703125 1328.517578125 912.5639038085938 C 1328.4814453125 912.5982666015625 1328.445678710938 912.6319580078125 1328.409301757812 912.6661376953125 C 1328.408203125 912.6671752929688 1328.407348632812 912.6680297851562 1328.40625 912.6690673828125 C 1328.398071289062 912.6766357421875 1328.3896484375 912.6845703125 1328.381591796875 912.692138671875 C 1328.379760742188 912.69384765625 1328.37841796875 912.6951904296875 1328.37646484375 912.6968994140625 C 1328.34130859375 912.7299194335938 1328.306030273438 912.7626953125 1328.270629882812 912.7954711914062 C 1328.269287109375 912.7966918945312 1328.267822265625 912.798095703125 1328.266479492188 912.7992553710938 C 1328.2578125 912.807373046875 1328.25 912.8145141601562 1328.241333007812 912.8225708007812 C 1328.240356445312 912.8234252929688 1328.2392578125 912.824462890625 1328.238403320312 912.8253173828125 C 1328.212768554688 912.8489379882812 1328.186767578125 912.8727416992188 1328.1611328125 912.896240234375 C 1328.159057617188 912.8981323242188 1328.156982421875 912.9000854492188 1328.154907226562 912.9019165039062 C 1328.147338867188 912.9088745117188 1328.140380859375 912.9152221679688 1328.132690429688 912.9221801757812 C 1328.12939453125 912.9252319335938 1328.126342773438 912.9280395507812 1328.122924804688 912.9310913085938 C 1328.115966796875 912.9375 1328.109497070312 912.943359375 1328.1025390625 912.94970703125 C 1328.098754882812 912.953125 1328.095458984375 912.9561157226562 1328.091674804688 912.9595336914062 C 1328.07763671875 912.9722900390625 1328.06298828125 912.9855346679688 1328.048950195312 912.998291015625 C 1328.046997070312 912.9999389648438 1328.04541015625 913.0014038085938 1328.043579101562 913.0031127929688 C 1328.036010742188 913.010009765625 1328.029418945312 913.015869140625 1328.021728515625 913.0227661132812 C 1328.018798828125 913.0255126953125 1328.015747070312 913.0281372070312 1328.012817382812 913.0308227539062 C 1328.005737304688 913.0372314453125 1327.998046875 913.0441284179688 1327.990966796875 913.0504760742188 C 1327.98779296875 913.0533447265625 1327.984497070312 913.0562744140625 1327.981323242188 913.05908203125 C 1327.974243164062 913.0654296875 1327.966552734375 913.0723876953125 1327.95947265625 913.0787353515625 C 1327.958740234375 913.0794067382812 1327.958129882812 913.0798950195312 1327.957397460938 913.08056640625 C 1327.942138671875 913.0942993164062 1327.92724609375 913.1076049804688 1327.911865234375 913.1212768554688 C 1327.907836914062 913.1248168945312 1327.904296875 913.1280517578125 1327.900268554688 913.1315307617188 C 1327.893798828125 913.1373291015625 1327.888549804688 913.1419677734375 1327.882080078125 913.1477661132812 C 1327.877197265625 913.152099609375 1327.87255859375 913.15625 1327.86767578125 913.1605834960938 C 1327.861694335938 913.1658325195312 1327.855102539062 913.171630859375 1327.849243164062 913.1768798828125 C 1327.8447265625 913.180908203125 1327.840209960938 913.1848754882812 1327.835693359375 913.1889038085938 C 1327.829711914062 913.1941528320312 1327.823364257812 913.1997680664062 1327.8173828125 913.2050170898438 C 1327.8076171875 913.2136840820312 1327.798095703125 913.2220458984375 1327.788208007812 913.230712890625 C 1327.782836914062 913.2354125976562 1327.777954101562 913.2396850585938 1327.772583007812 913.244384765625 C 1327.766723632812 913.2495727539062 1327.761108398438 913.2545166015625 1327.755249023438 913.2597045898438 C 1327.749877929688 913.264404296875 1327.744262695312 913.269287109375 1327.738891601562 913.2739868164062 C 1327.7333984375 913.27880859375 1327.728271484375 913.283203125 1327.722778320312 913.2880249023438 C 1327.717407226562 913.2926635742188 1327.71142578125 913.2979736328125 1327.7060546875 913.3026123046875 C 1327.698852539062 913.3088989257812 1327.691772460938 913.3150634765625 1327.6845703125 913.3213500976562 C 1327.679809570312 913.3255004882812 1327.676391601562 913.3284912109375 1327.671508789062 913.3326416015625 C 1327.66162109375 913.3412475585938 1327.652221679688 913.3494262695312 1327.642333984375 913.3580322265625 C 1327.63818359375 913.3616333007812 1327.6337890625 913.3653564453125 1327.629638671875 913.3689575195312 C 1327.622802734375 913.3749389648438 1327.615844726562 913.3809204101562 1327.60888671875 913.3868408203125 C 1327.604125976562 913.3909912109375 1327.600341796875 913.3942260742188 1327.595581054688 913.3983764648438 C 1327.588500976562 913.4044799804688 1327.58154296875 913.4105224609375 1327.574462890625 913.4165649414062 C 1327.570190429688 913.420166015625 1327.56591796875 913.4238891601562 1327.561767578125 913.427490234375 C 1327.550903320312 913.4368286132812 1327.540283203125 913.4459228515625 1327.529296875 913.4552612304688 C 1327.527587890625 913.456787109375 1327.525512695312 913.4585571289062 1327.523681640625 913.4600830078125 C 1327.514526367188 913.4679565429688 1327.505493164062 913.4755859375 1327.496337890625 913.4834594726562 C 1327.492065429688 913.487060546875 1327.488403320312 913.490234375 1327.484130859375 913.4938354492188 C 1327.476684570312 913.5001831054688 1327.469482421875 913.50634765625 1327.4619140625 913.5126953125 C 1327.457763671875 913.5162963867188 1327.453857421875 913.5195922851562 1327.44970703125 913.5231323242188 C 1327.44140625 913.5301513671875 1327.43310546875 913.5372314453125 1327.4248046875 913.5442504882812 C 1327.421752929688 913.5468139648438 1327.419311523438 913.5488891601562 1327.416259765625 913.5513916015625 C 1327.405151367188 913.5608520507812 1327.393798828125 913.5704345703125 1327.382568359375 913.5798950195312 C 1327.380126953125 913.5819091796875 1327.377685546875 913.5840454101562 1327.375244140625 913.5860595703125 C 1327.366333007812 913.5935668945312 1327.357421875 913.60107421875 1327.348510742188 913.6085205078125 C 1327.344848632812 913.611572265625 1327.341552734375 913.6143188476562 1327.338012695312 913.6173706054688 C 1327.3291015625 913.6248779296875 1327.320190429688 913.6322631835938 1327.311401367188 913.6397094726562 C 1327.308959960938 913.6417236328125 1327.306884765625 913.6433715820312 1327.304443359375 913.6454467773438 C 1327.281127929688 913.6649780273438 1327.25732421875 913.684814453125 1327.233764648438 913.7042846679688 C 1327.23193359375 913.705810546875 1327.230346679688 913.7071533203125 1327.228515625 913.7086791992188 C 1327.218505859375 913.717041015625 1327.208374023438 913.7254028320312 1327.1982421875 913.7337646484375 C 1327.196411132812 913.7352905273438 1327.193969726562 913.7372436523438 1327.192138671875 913.73876953125 C 1327.180908203125 913.7481079101562 1327.169311523438 913.7576293945312 1327.158081054688 913.7669067382812 C 1327.158081054688 913.7669067382812 1327.157348632812 913.7675170898438 1327.157348632812 913.7675170898438 C 1327.133178710938 913.7874145507812 1327.10888671875 913.8073120117188 1327.084594726562 913.8270874023438 C 1327.083374023438 913.828125 1327.080810546875 913.830322265625 1327.07958984375 913.831298828125 C 1327.069213867188 913.8397827148438 1327.058837890625 913.8482055664062 1327.048461914062 913.8566284179688 C 1327.046630859375 913.8580932617188 1327.04443359375 913.85986328125 1327.042602539062 913.8613891601562 C 1327.018676757812 913.8807983398438 1326.99462890625 913.900390625 1326.970581054688 913.9197387695312 C 1326.969360351562 913.9207153320312 1326.968505859375 913.92138671875 1326.96728515625 913.9224243164062 C 1326.956298828125 913.9312744140625 1326.945556640625 913.9400024414062 1326.934448242188 913.9488525390625 C 1326.9326171875 913.9503173828125 1326.930786132812 913.9518432617188 1326.928833007812 913.953369140625 C 1326.91845703125 913.9617309570312 1326.908325195312 913.9699096679688 1326.897827148438 913.978271484375 C 1326.896606445312 913.9793090820312 1326.893798828125 913.9815063476562 1326.892578125 913.9824829101562 C 1326.868530273438 914.0017700195312 1326.844604492188 914.0208740234375 1326.820434570312 914.0400390625 C 1326.817993164062 914.0419921875 1326.816650390625 914.0430297851562 1326.814208984375 914.0449829101562 C 1326.803955078125 914.0531616210938 1326.79345703125 914.0614624023438 1326.783203125 914.0696411132812 C 1326.781372070312 914.0711059570312 1326.7802734375 914.0719604492188 1326.778442382812 914.0734252929688 C 1326.766967773438 914.08251953125 1326.7548828125 914.0919799804688 1326.743408203125 914.10107421875 C 1326.743408203125 914.10107421875 1326.7421875 914.10205078125 1326.7421875 914.10205078125 C 1326.717529296875 914.1214599609375 1326.692504882812 914.1411743164062 1326.667846679688 914.1604614257812 C 1326.66650390625 914.1614379882812 1326.665283203125 914.1624145507812 1326.6640625 914.1633911132812 C 1326.65234375 914.172607421875 1326.640380859375 914.181884765625 1326.628662109375 914.1910400390625 C 1326.628662109375 914.1910400390625 1326.627685546875 914.1918334960938 1326.627685546875 914.1918334960938 C 1326.590209960938 914.2210083007812 1326.552490234375 914.2501831054688 1326.514892578125 914.2791748046875 C 1326.513061523438 914.2806396484375 1326.512939453125 914.28076171875 1326.510986328125 914.2822265625 C 1326.460815429688 914.3208618164062 1326.410766601562 914.359130859375 1326.360229492188 914.3974609375 C 1326.359619140625 914.39794921875 1326.358642578125 914.3986206054688 1326.358032226562 914.3991088867188 C 1326.30712890625 914.4376831054688 1326.255615234375 914.4764404296875 1326.204467773438 914.5146484375 C 1326.203735351562 914.51513671875 1326.204345703125 914.5147094726562 1326.203735351562 914.5151977539062 C 1324.338012695312 915.9075317382812 1322.2744140625 917.0487670898438 1320.062255859375 917.8892211914062 L 1318.996826171875 915.0848999023438 C 1322.413940429688 913.7865600585938 1325.496948242188 911.6350708007812 1327.912109375 908.8634033203125 C 1330.345336914062 906.071044921875 1332.056640625 902.6959228515625 1332.861206054688 899.1027221679688 Z M 1270.261596679688 916.5330810546875 L 1295.261596679688 916.5330810546875 L 1295.261596679688 919.5330810546875 C 1295.261596679688 919.5330810546875 1270.261596679688 919.5330810546875 1270.261596679688 919.5330810546875 L 1270.261596679688 916.5330810546875 Z M 1220.261596679688 916.5330810546875 L 1245.261596679688 916.5330810546875 L 1245.261596679688 919.5330810546875 C 1245.261596679688 919.5330810546875 1220.261596679688 919.5330810546875 1220.261596679688 919.5330810546875 L 1220.261596679688 916.5330810546875 Z M 1170.26171875 916.5330810546875 L 1195.26171875 916.5330810546875 L 1195.26171875 919.5330810546875 C 1195.26171875 919.5330810546875 1170.26171875 919.5330810546875 1170.26171875 919.5330810546875 L 1170.26171875 916.5330810546875 Z M 1120.26171875 916.5330810546875 L 1145.26171875 916.5330810546875 L 1145.26171875 919.5330810546875 C 1145.26171875 919.5330810546875 1120.26171875 919.5330810546875 1120.26171875 919.5330810546875 L 1120.26171875 916.5330810546875 Z M 1070.26171875 916.5330810546875 L 1095.26171875 916.5330810546875 L 1095.26171875 919.5330810546875 C 1095.26171875 919.5330810546875 1070.26171875 919.5330810546875 1070.26171875 919.5330810546875 L 1070.26171875 916.5330810546875 Z M 1020.261657714844 916.5330810546875 L 1045.26171875 916.5330810546875 L 1045.26171875 919.5330810546875 C 1045.26171875 919.5330810546875 1020.261657714844 919.5330810546875 1020.261657714844 919.5330810546875 L 1020.261657714844 916.5330810546875 Z M 970.2616577148438 916.5330810546875 L 995.2616577148438 916.5330810546875 L 995.2616577148438 919.5330810546875 C 995.2616577148438 919.5330810546875 970.2616577148438 919.5330810546875 970.2616577148438 919.5330810546875 L 970.2616577148438 916.5330810546875 Z M 920.2616577148438 916.5330810546875 L 945.2616577148438 916.5330810546875 L 945.2616577148438 919.5330810546875 C 945.2616577148438 919.5330810546875 920.2616577148438 919.5330810546875 920.2616577148438 919.5330810546875 L 920.2616577148438 916.5330810546875 Z M 870.2616577148438 916.5330810546875 L 895.2616577148438 916.5330810546875 L 895.2616577148438 919.5330810546875 C 895.2616577148438 919.5330810546875 870.2616577148438 919.5330810546875 870.2616577148438 919.5330810546875 L 870.2616577148438 916.5330810546875 Z M 820.2616577148438 916.5330810546875 L 845.2616577148438 916.5330810546875 L 845.2616577148438 919.5330810546875 C 845.2616577148438 919.5330810546875 820.2616577148438 919.5330810546875 820.2616577148438 919.5330810546875 L 820.2616577148438 916.5330810546875 Z M 770.2616577148438 916.5330810546875 L 795.2616577148438 916.5330810546875 L 795.2616577148438 919.5330810546875 C 795.2616577148438 919.5330810546875 770.2616577148438 919.5330810546875 770.2616577148438 919.5330810546875 L 770.2616577148438 916.5330810546875 Z M 720.2616577148438 916.5330810546875 L 745.2616577148438 916.5330810546875 L 745.2616577148438 919.5330810546875 C 745.2616577148438 919.5330810546875 720.2616577148438 919.5330810546875 720.2616577148438 919.5330810546875 L 720.2616577148438 916.5330810546875 Z M 670.2616577148438 916.5330810546875 L 695.2616577148438 916.5330810546875 L 695.2616577148438 919.5330810546875 C 695.2616577148438 919.5330810546875 670.2616577148438 919.5330810546875 670.2616577148438 919.5330810546875 L 670.2616577148438 916.5330810546875 Z M 620.2616577148438 916.5330810546875 L 645.2616577148438 916.5330810546875 L 645.2616577148438 919.5330810546875 C 645.2616577148438 919.5330810546875 620.2616577148438 919.5330810546875 620.2616577148438 919.5330810546875 L 620.2616577148438 916.5330810546875 Z M 570.2616577148438 916.5330810546875 L 595.2616577148438 916.5330810546875 L 595.2616577148438 919.5330810546875 C 595.2616577148438 919.5330810546875 570.2616577148438 919.5330810546875 570.2616577148438 919.5330810546875 L 570.2616577148438 916.5330810546875 Z M 520.2616577148438 916.5330810546875 L 545.2616577148438 916.5330810546875 L 545.2616577148438 919.5330810546875 C 545.2616577148438 919.5330810546875 520.2616577148438 919.5330810546875 520.2616577148438 919.5330810546875 L 520.2616577148438 916.5330810546875 Z M 470.2616577148438 916.5330810546875 L 495.2616577148438 916.5330810546875 L 495.2616577148438 919.5330810546875 C 495.2616577148438 919.5330810546875 470.2616577148438 919.5330810546875 470.2616577148438 919.5330810546875 L 470.2616577148438 916.5330810546875 Z M 420.2616577148438 916.5330810546875 L 445.2616577148438 916.5330810546875 L 445.2616577148438 919.5330810546875 C 445.2616577148438 919.5330810546875 420.2616577148438 919.5330810546875 420.2616577148438 919.5330810546875 L 420.2616577148438 916.5330810546875 Z M 370.2616577148438 916.5330810546875 L 395.2616577148438 916.5330810546875 L 395.2616577148438 919.5330810546875 C 395.2616577148438 919.5330810546875 370.2616577148438 919.5330810546875 370.2616577148438 919.5330810546875 L 370.2616577148438 916.5330810546875 Z M 320.2616577148438 916.5330810546875 L 345.2616577148438 916.5330810546875 L 345.2616577148438 919.5330810546875 C 345.2616577148438 919.5330810546875 320.2616577148438 919.5330810546875 320.2616577148438 919.5330810546875 L 320.2616577148438 916.5330810546875 Z M 270.2615966796875 916.5330810546875 L 295.2615966796875 916.5330810546875 L 295.2615966796875 919.5330810546875 C 295.2615966796875 919.5330810546875 270.2615966796875 919.5330810546875 270.2615966796875 919.5330810546875 L 270.2615966796875 916.5330810546875 Z M 220.2615966796875 916.5330810546875 L 245.2615966796875 916.5330810546875 L 245.2615966796875 919.5330810546875 C 245.2615966796875 919.5330810546875 220.2615966796875 919.5330810546875 220.2615966796875 919.5330810546875 L 220.2615966796875 916.5330810546875 Z M 170.2615966796875 916.5330810546875 L 195.2615966796875 916.5330810546875 L 195.2615966796875 919.5330810546875 C 195.2615966796875 919.5330810546875 170.2615966796875 919.5330810546875 170.2615966796875 919.5330810546875 L 170.2615966796875 916.5330810546875 Z M 120.2615966796875 916.5330810546875 L 145.2615966796875 916.5330810546875 L 145.2615966796875 919.5330810546875 C 145.2615966796875 919.5330810546875 120.2615966796875 919.5330810546875 120.2615966796875 919.5330810546875 L 120.2615966796875 916.5330810546875 Z M 70.2615966796875 916.5330810546875 L 95.2615966796875 916.5330810546875 L 95.2615966796875 919.5330810546875 C 95.2615966796875 919.5330810546875 70.2615966796875 919.5330810546875 70.2615966796875 919.5330810546875 L 70.2615966796875 916.5330810546875 Z M 20.88818359375 916.091064453125 C 22.34130859375 916.3843994140625 23.8372802734375 916.5330810546875 25.3345947265625 916.5330810546875 L 45.2615966796875 916.5330810546875 L 45.2615966796875 919.5330810546875 C 45.2615966796875 919.5330810546875 25.3345947265625 919.5330810546875 25.3345947265625 919.5330810546875 C 25.3345947265625 919.5330810546875 25.3345947265625 919.5330810546875 25.3345947265625 919.5330810546875 C 25.314697265625 919.5330810546875 25.294921875 919.5330200195312 25.2747802734375 919.5330200195312 C 25.2613525390625 919.532958984375 25.2496337890625 919.5328979492188 25.2359619140625 919.5328979492188 C 25.22412109375 919.5328369140625 25.21142578125 919.5327758789062 25.19970703125 919.53271484375 C 25.185791015625 919.5326538085938 25.1719970703125 919.5325317382812 25.1585693359375 919.532470703125 C 25.144775390625 919.5323486328125 25.13134765625 919.5322875976562 25.11767578125 919.5321655273438 C 25.1048583984375 919.5320434570312 25.0927734375 919.5319213867188 25.079345703125 919.5317993164062 C 25.0655517578125 919.5316772460938 25.0501708984375 919.531494140625 25.0369873046875 919.5313720703125 C 25.023193359375 919.5311889648438 25.0115966796875 919.5310668945312 24.9976806640625 919.5308837890625 C 24.984619140625 919.5307006835938 24.9698486328125 919.530517578125 24.9566650390625 919.5302734375 C 24.943359375 919.5300903320312 24.928466796875 919.5299072265625 24.9149169921875 919.5296630859375 C 24.9014892578125 919.5294189453125 24.8876953125 919.5291748046875 24.87451171875 919.5289916992188 C 24.8612060546875 919.5287475585938 24.8475341796875 919.5285034179688 24.833740234375 919.5281982421875 C 24.8204345703125 919.5279541015625 24.80712890625 919.5277099609375 24.7933349609375 919.5274047851562 C 24.7802734375 919.527099609375 24.76611328125 919.5267944335938 24.7530517578125 919.5265502929688 C 24.7403564453125 919.5262451171875 24.7257080078125 919.52587890625 24.7135009765625 919.5255737304688 C 24.6995849609375 919.5252685546875 24.686279296875 919.52490234375 24.6722412109375 919.5245971679688 C 24.6591796875 919.5242309570312 24.646240234375 919.52392578125 24.633056640625 919.5235595703125 C 24.620361328125 919.523193359375 24.606201171875 919.5228271484375 24.59326171875 919.5223999023438 C 24.57958984375 919.5220336914062 24.566162109375 919.5216674804688 24.552978515625 919.521240234375 C 24.539306640625 919.5208129882812 24.5257568359375 919.5203857421875 24.5123291015625 919.5199584960938 C 24.49951171875 919.5195922851562 24.486572265625 919.5191040039062 24.4737548828125 919.5187377929688 C 24.4598388671875 919.5182495117188 24.446044921875 919.5177612304688 24.4322509765625 919.5172729492188 C 24.419677734375 919.516845703125 24.408203125 919.5164184570312 24.3939208984375 919.5159301757812 C 24.380615234375 919.5154418945312 24.365478515625 919.514892578125 24.352294921875 919.5143432617188 C 24.3389892578125 919.5138549804688 24.3248291015625 919.5133056640625 24.313720703125 919.5128784179688 C 24.3001708984375 919.5123291015625 24.2879638671875 919.5118408203125 24.2744140625 919.5112915039062 C 24.274169921875 919.5112915039062 24.2738037109375 919.5112915039062 24.273681640625 919.51123046875 C 23.0697021484375 919.461669921875 21.8887939453125 919.3282470703125 20.73388671875 919.1163330078125 C 20.7333984375 919.1162719726562 20.73291015625 919.1161499023438 20.732421875 919.1160888671875 C 20.72021484375 919.1138305664062 20.70947265625 919.1118774414062 20.6973876953125 919.109619140625 C 20.6954345703125 919.1092529296875 20.6934814453125 919.10888671875 20.691650390625 919.1085815429688 C 20.6802978515625 919.1064453125 20.6697998046875 919.1044921875 20.658447265625 919.1024169921875 C 20.6566162109375 919.10205078125 20.65478515625 919.1016845703125 20.65283203125 919.1013793945312 C 20.642333984375 919.099365234375 20.6314697265625 919.0973510742188 20.620849609375 919.0953369140625 C 20.618408203125 919.0949096679688 20.61572265625 919.0943603515625 20.61328125 919.0939331054688 C 20.6026611328125 919.0919189453125 20.59375 919.0902099609375 20.583251953125 919.0882568359375 C 20.579833984375 919.0875854492188 20.5765380859375 919.0869750976562 20.5732421875 919.0863037109375 C 20.5650634765625 919.0847778320312 20.5557861328125 919.0830078125 20.5477294921875 919.0814819335938 C 20.5428466796875 919.0805053710938 20.537841796875 919.07958984375 20.532958984375 919.07861328125 C 20.5247802734375 919.0770874023438 20.5174560546875 919.07568359375 20.5093994140625 919.0740966796875 C 20.5042724609375 919.0731201171875 20.4991455078125 919.0721435546875 20.4940185546875 919.0711669921875 C 20.4866943359375 919.0697021484375 20.4798583984375 919.0684204101562 20.4725341796875 919.0669555664062 C 20.466552734375 919.0657958984375 20.4605712890625 919.0646362304688 20.4544677734375 919.0634765625 C 20.447998046875 919.0621948242188 20.4415283203125 919.0609130859375 20.43505859375 919.0596923828125 C 20.428466796875 919.058349609375 20.421630859375 919.0570678710938 20.4150390625 919.0557250976562 C 20.4093017578125 919.0546264648438 20.4049072265625 919.0537719726562 20.3992919921875 919.0526123046875 C 20.3912353515625 919.051025390625 20.38330078125 919.0494384765625 20.375244140625 919.0478515625 C 20.370361328125 919.046875 20.366943359375 919.0462036132812 20.3621826171875 919.0452880859375 C 20.3536376953125 919.0435791015625 20.344970703125 919.0418701171875 20.33642578125 919.0401611328125 C 20.3323974609375 919.039306640625 20.3297119140625 919.038818359375 20.32568359375 919.0379638671875 C 20.316162109375 919.0360717773438 20.3065185546875 919.0341186523438 20.2969970703125 919.0322265625 C 20.296142578125 919.0320434570312 20.29541015625 919.0319213867188 20.294677734375 919.03173828125 L 20.88818359375 916.091064453125 Z M 0 878.9255981445312 L 3 878.9255981445312 L 3 894.1985473632812 C 3 897.09326171875 3.544677734375 899.9080810546875 4.6190185546875 902.5652465820312 L 1.8377685546875 903.6897583007812 C 0.930419921875 901.4454345703125 0.335205078125 899.0415649414062 0.10595703125 896.5317993164062 C 0.10595703125 896.5317993164062 0.10595703125 896.5315551757812 0.10595703125 896.5315551757812 C 0.101318359375 896.4803466796875 0.0968017578125 896.4293212890625 0.0924072265625 896.3780517578125 C 0.0924072265625 896.3780517578125 0.0924072265625 896.3775634765625 0.0924072265625 896.3775634765625 C 0.0794677734375 896.2252197265625 0.0677490234375 896.0724487304688 0.0574951171875 895.9193725585938 C 0.057373046875 895.917724609375 0.0572509765625 895.9154663085938 0.05712890625 895.9137573242188 C 0.056396484375 895.903076171875 0.0557861328125 895.892578125 0.0550537109375 895.8818969726562 C 0.0548095703125 895.87939453125 0.0546875 895.876953125 0.0545654296875 895.8744506835938 C 0.0538330078125 895.86376953125 0.0531005859375 895.8531494140625 0.052490234375 895.8424682617188 C 0.0523681640625 895.8399658203125 0.05224609375 895.8382568359375 0.052001953125 895.8357543945312 C 0.0513916015625 895.8252563476562 0.05078125 895.81494140625 0.050048828125 895.8045043945312 C 0.0498046875 895.8011474609375 0.0496826171875 895.7991333007812 0.049560546875 895.7957763671875 C 0.0489501953125 895.7864990234375 0.04833984375 895.7771606445312 0.0478515625 895.7678833007812 C 0.047607421875 895.763671875 0.04736328125 895.7596435546875 0.0469970703125 895.7554321289062 C 0.0465087890625 895.74658203125 0.0460205078125 895.7376708984375 0.04541015625 895.728759765625 C 0.045166015625 895.7245483398438 0.044921875 895.72021484375 0.044677734375 895.716064453125 C 0.044189453125 895.7071533203125 0.0435791015625 895.6979370117188 0.0430908203125 895.6890869140625 C 0.0428466796875 895.6848754882812 0.042724609375 895.6818237304688 0.04248046875 895.6776123046875 C 0.0418701171875 895.6681518554688 0.0413818359375 895.6590576171875 0.0408935546875 895.6495971679688 C 0.0406494140625 895.646240234375 0.0404052734375 895.64111328125 0.0401611328125 895.6377563476562 C 0.0396728515625 895.628662109375 0.0391845703125 895.6199340820312 0.0386962890625 895.61083984375 C 0.0384521484375 895.6066284179688 0.0382080078125 895.602783203125 0.0379638671875 895.5985717773438 C 0.0374755859375 895.5894775390625 0.0369873046875 895.5798950195312 0.0364990234375 895.57080078125 C 0.036376953125 895.5674438476562 0.0361328125 895.5628662109375 0.035888671875 895.5595092773438 C 0.035400390625 895.5504150390625 0.034912109375 895.541259765625 0.0345458984375 895.5321655273438 C 0.0343017578125 895.5279541015625 0.0340576171875 895.5239868164062 0.0338134765625 895.519775390625 C 0.033447265625 895.5108642578125 0.032958984375 895.5015258789062 0.032470703125 895.4926147460938 C 0.0322265625 895.4884033203125 0.031982421875 895.4837036132812 0.0318603515625 895.4794921875 C 0.0313720703125 895.47119140625 0.031005859375 895.462646484375 0.030517578125 895.454345703125 C 0.0302734375 895.4493408203125 0.030029296875 895.4437866210938 0.02978515625 895.438720703125 C 0.0294189453125 895.4306030273438 0.029052734375 895.4224243164062 0.0286865234375 895.414306640625 C 0.0284423828125 895.4092407226562 0.0281982421875 895.4044189453125 0.0279541015625 895.3993530273438 C 0.027587890625 895.3914794921875 0.0272216796875 895.3833618164062 0.02685546875 895.3754272460938 C 0.026611328125 895.3695678710938 0.0263671875 895.3650512695312 0.026123046875 895.3591918945312 C 0.0257568359375 895.3512573242188 0.025390625 895.3433837890625 0.0250244140625 895.3355102539062 C 0.0247802734375 895.3304443359375 0.0245361328125 895.3238525390625 0.0242919921875 895.3187866210938 C 0.0240478515625 895.3115234375 0.023681640625 895.3038330078125 0.0233154296875 895.2965087890625 C 0.0230712890625 895.2897338867188 0.0228271484375 895.2841796875 0.0225830078125 895.2774047851562 C 0.022216796875 895.2705078125 0.02197265625 895.2635498046875 0.021728515625 895.2566528320312 C 0.021484375 895.250732421875 0.021240234375 895.2442016601562 0.02099609375 895.23828125 C 0.0206298828125 895.231201171875 0.0203857421875 895.2239990234375 0.02001953125 895.2169189453125 C 0.0198974609375 895.2135009765625 0.019775390625 895.2094116210938 0.0196533203125 895.2059936523438 C 0.0189208984375 895.1873168945312 0.0181884765625 895.1688232421875 0.017578125 895.150146484375 C 0.017333984375 895.1458740234375 0.0172119140625 895.1422119140625 0.01708984375 895.137939453125 C 0.0167236328125 895.1282348632812 0.016357421875 895.1181640625 0.0159912109375 895.1083984375 C 0.015869140625 895.1050415039062 0.015869140625 895.1025390625 0.0157470703125 895.0991821289062 C 0.015380859375 895.0912475585938 0.01513671875 895.083251953125 0.014892578125 895.0753173828125 C 0.0146484375 895.0693969726562 0.0145263671875 895.064453125 0.0142822265625 895.0584716796875 C 0.0140380859375 895.0509643554688 0.0137939453125 895.0437622070312 0.0135498046875 895.0362548828125 C 0.013427734375 895.0311279296875 0.01318359375 895.0244750976562 0.0130615234375 895.0194091796875 C 0.0128173828125 895.0120849609375 0.0125732421875 895.0048828125 0.0123291015625 894.99755859375 C 0.01220703125 894.9916381835938 0.011962890625 894.9845581054688 0.01171875 894.9785766601562 C 0.0115966796875 894.971923828125 0.0113525390625 894.9649658203125 0.0111083984375 894.958251953125 C 0.010986328125 894.9514770507812 0.0108642578125 894.9461669921875 0.0106201171875 894.9393920898438 C 0.0103759765625 894.9320678710938 0.01025390625 894.9252319335938 0.010009765625 894.9179077148438 C 0.009765625 894.9111328125 0.0096435546875 894.906005859375 0.009521484375 894.8992309570312 C 0.00927734375 894.89208984375 0.0091552734375 894.885009765625 0.0089111328125 894.8778686523438 C 0.0087890625 894.8719482421875 0.008544921875 894.86572265625 0.0084228515625 894.8597412109375 C 0.00830078125 894.8528442382812 0.008056640625 894.8460083007812 0.0079345703125 894.839111328125 C 0.0078125 894.8323364257812 0.007568359375 894.8253173828125 0.0074462890625 894.8185424804688 C 0.00732421875 894.81201171875 0.007080078125 894.8059692382812 0.0069580078125 894.7994384765625 C 0.0068359375 894.7926635742188 0.0067138671875 894.7862548828125 0.0064697265625 894.7794189453125 C 0.00634765625 894.772705078125 0.0062255859375 894.7659301757812 0.006103515625 894.7591552734375 C 0.0059814453125 894.7523803710938 0.0057373046875 894.74560546875 0.005615234375 894.73876953125 C 0.0054931640625 894.7324829101562 0.00537109375 894.7261352539062 0.0052490234375 894.7197875976562 C 0.005126953125 894.7130126953125 0.0050048828125 894.7056274414062 0.0048828125 894.6987915039062 C 0.0047607421875 894.6925048828125 0.004638671875 894.6863403320312 0.0045166015625 894.6800537109375 C 0.00439453125 894.6732177734375 0.004150390625 894.6649780273438 0.0040283203125 894.6581420898438 C 0.0040283203125 894.6520385742188 0.00390625 894.6459350585938 0.0037841796875 894.6398315429688 C 0.003662109375 894.6321411132812 0.0035400390625 894.626220703125 0.00341796875 894.6185913085938 C 0.0032958984375 894.6124877929688 0.003173828125 894.6061401367188 0.0030517578125 894.6000366210938 C 0.0029296875 894.5924072265625 0.0029296875 894.5852661132812 0.0028076171875 894.5775756835938 C 0.002685546875 894.5716552734375 0.0025634765625 894.5657958984375 0.0025634765625 894.5598754882812 C 0.00244140625 894.5530395507812 0.0023193359375 894.545166015625 0.002197265625 894.5383911132812 C 0.002197265625 894.5320434570312 0.0020751953125 894.5260620117188 0.001953125 894.5197143554688 C 0.0018310546875 894.5120849609375 0.0018310546875 894.5054321289062 0.001708984375 894.4977416992188 C 0.001708984375 894.4916381835938 0.0015869140625 894.4854736328125 0.00146484375 894.4793701171875 C 0.00146484375 894.4716796875 0.0013427734375 894.4652099609375 0.0013427734375 894.4575805664062 C 0.001220703125 894.45166015625 0.001220703125 894.4457397460938 0.0010986328125 894.4398193359375 C 0.0010986328125 894.43212890625 0.0009765625 894.424072265625 0.0008544921875 894.4163818359375 C 0.0008544921875 894.41064453125 0.0008544921875 894.4051513671875 0.000732421875 894.3994140625 C 0.000732421875 894.3917236328125 0.0006103515625 894.384033203125 0.0006103515625 894.3763427734375 C 0.0006103515625 894.37060546875 0.00048828125 894.365234375 0.00048828125 894.3594970703125 C 0.00048828125 894.351806640625 0.0003662109375 894.343505859375 0.0003662109375 894.3358154296875 C 0.0003662109375 894.3302612304688 0.000244140625 894.3242797851562 0.000244140625 894.3187866210938 C 0.000244140625 894.3119506835938 0.000244140625 894.3049926757812 0.000244140625 894.2982177734375 C 0.0001220703125 894.2916259765625 0.0001220703125 894.2850952148438 0.0001220703125 894.2785034179688 C 0.0001220703125 894.2708129882812 0.0001220703125 894.26171875 0 894.2540893554688 C 0 894.2489624023438 0 894.243896484375 0 894.23876953125 C 0 894.22509765625 0 894.2122192382812 0 894.1985473632812 C 0 894.1985473632812 0 894.1985473632812 0 894.1985473632812 L 0 878.9255981445312 Z M 0 828.925537109375 L 3 828.925537109375 L 3 853.925537109375 L 0 853.925537109375 L 0 828.925537109375 Z M 0 778.925537109375 L 3 778.925537109375 L 3 803.925537109375 L 0 803.925537109375 L 0 778.925537109375 Z M 0 728.925537109375 L 3 728.925537109375 L 3 753.925537109375 L 0 753.925537109375 L 0 728.925537109375 Z M 0 678.925537109375 L 3 678.925537109375 L 3 703.925537109375 L 0 703.925537109375 L 0 678.925537109375 Z M 0 628.925537109375 L 3 628.925537109375 L 3 653.925537109375 L 0 653.925537109375 L 0 628.925537109375 Z M 0 578.925537109375 L 3 578.925537109375 L 3 603.925537109375 L 0 603.925537109375 L 0 578.925537109375 Z M 0 528.925537109375 L 3 528.925537109375 L 3 553.925537109375 L 0 553.925537109375 L 0 528.925537109375 Z M 0 478.9255676269531 L 3 478.9255676269531 L 3 503.9255676269531 L 0 503.9255676269531 L 0 478.9255676269531 Z M 0 428.9255676269531 L 3 428.9255676269531 L 3 453.9255676269531 L 0 453.9255676269531 L 0 428.9255676269531 Z M 0 378.9255981445312 L 3 378.9255981445312 L 3 403.9255981445312 L 0 403.9255981445312 L 0 378.9255981445312 Z M 0 328.9255981445312 L 3 328.9255981445312 L 3 353.9255981445312 L 0 353.9255981445312 L 0 328.9255981445312 Z M 0 278.9255981445312 L 3 278.9255981445312 L 3 303.9255981445312 L 0 303.9255981445312 L 0 278.9255981445312 Z M 0 228.9255981445312 L 3 228.9255981445312 L 3 253.9255981445312 L 0 253.9255981445312 L 0 228.9255981445312 Z M 0 178.9255981445312 L 3 178.9255981445312 L 3 203.9255981445312 L 0 203.9255981445312 L 0 178.9255981445312 Z M 0 128.9255981445312 L 3 128.9255981445312 L 3 153.9255981445312 L 0 153.9255981445312 L 0 128.9255981445312 Z M 0 78.92559814453125 L 3 78.92559814453125 L 3 103.9255981445312 L 0 103.9255981445312 L 0 78.92559814453125 Z M 0 28.92559814453125 L 3 28.92559814453125 L 3 53.92559814453125 L 0 53.92559814453125 L 0 28.92559814453125 Z M 25.3345947265625 -0.0001220703125 L 25.3345947265625 2.9998779296875 C 19.8621826171875 2.9998779296875 14.5972900390625 4.9989013671875 10.5103759765625 8.62860107421875 L 8.5181884765625 6.38555908203125 C 11.4666748046875 3.76678466796875 15.0294189453125 1.82647705078125 18.964599609375 0.80743408203125 C 18.9649658203125 0.807373046875 18.9654541015625 0.8072509765625 18.9658203125 0.80712890625 C 18.9776611328125 0.8040771484375 18.989013671875 0.8011474609375 19.0008544921875 0.798095703125 C 19.0023193359375 0.7977294921875 19.003662109375 0.79736328125 19.005126953125 0.7969970703125 C 19.0162353515625 0.79412841796875 19.02880859375 0.79095458984375 19.039794921875 0.7880859375 C 19.04052734375 0.78790283203125 19.041015625 0.78778076171875 19.041748046875 0.78759765625 C 19.0535888671875 0.7845458984375 19.06591796875 0.78143310546875 19.0777587890625 0.7784423828125 C 19.078125 0.7783203125 19.0792236328125 0.77801513671875 19.07958984375 0.7779541015625 C 19.180908203125 0.752197265625 19.2811279296875 0.7274169921875 19.3829345703125 0.70294189453125 C 19.38330078125 0.70281982421875 19.3843994140625 0.70257568359375 19.384765625 0.7025146484375 C 19.3975830078125 0.69940185546875 19.40869140625 0.69671630859375 19.42138671875 0.6937255859375 C 19.4217529296875 0.693603515625 19.4219970703125 0.69354248046875 19.42236328125 0.6934814453125 C 19.4351806640625 0.6904296875 19.4462890625 0.687744140625 19.458984375 0.68475341796875 C 19.4593505859375 0.68463134765625 19.4605712890625 0.68438720703125 19.4609375 0.684326171875 C 19.5755615234375 0.6571044921875 19.6888427734375 0.6309814453125 19.8040771484375 0.6053466796875 C 19.8048095703125 0.60516357421875 19.805908203125 0.60498046875 19.806640625 0.60479736328125 C 19.81787109375 0.602294921875 19.8302001953125 0.59954833984375 19.8414306640625 0.5970458984375 C 19.8428955078125 0.59674072265625 19.8447265625 0.59637451171875 19.84619140625 0.59600830078125 C 19.857421875 0.59356689453125 19.8685302734375 0.59112548828125 19.8797607421875 0.588623046875 C 19.8812255859375 0.58831787109375 19.8824462890625 0.5880126953125 19.884033203125 0.58770751953125 C 19.8951416015625 0.58526611328125 19.9056396484375 0.58294677734375 19.9168701171875 0.58050537109375 C 19.9190673828125 0.58001708984375 19.9208984375 0.57965087890625 19.923095703125 0.57916259765625 C 19.934326171875 0.57672119140625 19.9454345703125 0.5743408203125 19.9566650390625 0.5718994140625 C 19.957763671875 0.5716552734375 19.9588623046875 0.5714111328125 19.9599609375 0.5711669921875 C 19.971923828125 0.568603515625 19.9830322265625 0.566162109375 19.9951171875 0.5635986328125 C 19.9962158203125 0.5633544921875 19.9970703125 0.56317138671875 19.9981689453125 0.56292724609375 C 20.0623779296875 0.5491943359375 20.12548828125 0.535888671875 20.18994140625 0.5225830078125 C 20.1903076171875 0.52252197265625 20.191162109375 0.5223388671875 20.191650390625 0.52227783203125 C 20.202880859375 0.51995849609375 20.21484375 0.5174560546875 20.22607421875 0.51519775390625 C 20.2294921875 0.51446533203125 20.2325439453125 0.51385498046875 20.23583984375 0.51318359375 C 20.2454833984375 0.51123046875 20.255615234375 0.5091552734375 20.2652587890625 0.5072021484375 C 20.2674560546875 0.5067138671875 20.2694091796875 0.50634765625 20.2716064453125 0.50592041015625 C 20.2821044921875 0.5037841796875 20.292724609375 0.50164794921875 20.30322265625 0.49951171875 C 20.3057861328125 0.4990234375 20.3074951171875 0.4986572265625 20.3101806640625 0.49810791015625 C 20.320556640625 0.49603271484375 20.3323974609375 0.49365234375 20.3428955078125 0.4915771484375 C 20.3443603515625 0.49127197265625 20.3455810546875 0.49102783203125 20.3470458984375 0.49072265625 C 20.3575439453125 0.4886474609375 20.369140625 0.486328125 20.379638671875 0.4842529296875 C 20.3818359375 0.48382568359375 20.384521484375 0.4832763671875 20.38671875 0.48284912109375 C 20.3980712890625 0.4805908203125 20.4080810546875 0.4786376953125 20.4193115234375 0.47637939453125 C 20.4208984375 0.47613525390625 20.4224853515625 0.47576904296875 20.4239501953125 0.47552490234375 C 20.435302734375 0.4732666015625 20.4481201171875 0.47076416015625 20.4593505859375 0.46856689453125 C 20.460205078125 0.4683837890625 20.4610595703125 0.46826171875 20.4617919921875 0.46807861328125 C 20.4747314453125 0.465576171875 20.486572265625 0.4632568359375 20.49951171875 0.46075439453125 C 20.4998779296875 0.460693359375 20.4996337890625 0.46075439453125 20.5 0.460693359375 C 20.564697265625 0.44818115234375 20.6285400390625 0.43609619140625 20.693359375 0.424072265625 C 20.6944580078125 0.42388916015625 20.6953125 0.4237060546875 20.6964111328125 0.42352294921875 C 20.7086181640625 0.4212646484375 20.7198486328125 0.419189453125 20.73193359375 0.4169921875 C 20.7327880859375 0.41680908203125 20.7344970703125 0.41650390625 20.7352294921875 0.4163818359375 C 20.74658203125 0.414306640625 20.7584228515625 0.41217041015625 20.769775390625 0.41009521484375 C 20.7716064453125 0.40972900390625 20.7734375 0.409423828125 20.7752685546875 0.4090576171875 C 20.7867431640625 0.406982421875 20.796875 0.4051513671875 20.8082275390625 0.40313720703125 C 20.8104248046875 0.4027099609375 20.8116455078125 0.4024658203125 20.8138427734375 0.402099609375 C 20.824462890625 0.40020751953125 20.8343505859375 0.39837646484375 20.844970703125 0.39654541015625 C 20.847900390625 0.39599609375 20.8509521484375 0.39544677734375 20.85400390625 0.3948974609375 C 20.864501953125 0.39300537109375 20.875732421875 0.39105224609375 20.88623046875 0.38916015625 C 20.8873291015625 0.38897705078125 20.88916015625 0.388671875 20.8902587890625 0.388427734375 C 20.901611328125 0.38641357421875 20.9139404296875 0.38427734375 20.92529296875 0.38226318359375 C 20.9263916015625 0.382080078125 20.927978515625 0.38177490234375 20.9290771484375 0.381591796875 C 20.994140625 0.37017822265625 21.0579833984375 0.3592529296875 21.123291015625 0.34832763671875 C 21.1236572265625 0.3482666015625 21.1239013671875 0.3482666015625 21.124267578125 0.34820556640625 C 21.136474609375 0.34613037109375 21.14794921875 0.34423828125 21.1602783203125 0.3421630859375 C 21.162841796875 0.34173583984375 21.165283203125 0.34136962890625 21.16796875 0.34088134765625 C 21.1785888671875 0.33917236328125 21.189208984375 0.33740234375 21.1998291015625 0.33563232421875 C 21.2017822265625 0.3353271484375 21.2034912109375 0.3350830078125 21.205322265625 0.33477783203125 C 21.2159423828125 0.3330078125 21.226318359375 0.331298828125 21.2369384765625 0.32958984375 C 21.239990234375 0.3291015625 21.243408203125 0.32855224609375 21.246337890625 0.32806396484375 C 21.2562255859375 0.32647705078125 21.26513671875 0.32501220703125 21.2750244140625 0.32342529296875 C 21.2783203125 0.3228759765625 21.281982421875 0.32232666015625 21.285400390625 0.32177734375 C 21.2943115234375 0.3203125 21.3033447265625 0.31890869140625 21.312255859375 0.31744384765625 C 21.3160400390625 0.31683349609375 21.3204345703125 0.316162109375 21.32421875 0.3155517578125 C 21.333251953125 0.31414794921875 21.3426513671875 0.3126220703125 21.3516845703125 0.31121826171875 C 21.3551025390625 0.3106689453125 21.35888671875 0.31005859375 21.3623046875 0.30950927734375 C 21.371337890625 0.30810546875 21.3817138671875 0.30645751953125 21.3907470703125 0.3050537109375 C 21.393798828125 0.30462646484375 21.397216796875 0.3040771484375 21.400146484375 0.3035888671875 C 21.410888671875 0.30194091796875 21.4205322265625 0.3004150390625 21.4312744140625 0.29876708984375 C 21.4334716796875 0.29840087890625 21.436279296875 0.2979736328125 21.4385986328125 0.297607421875 C 21.4508056640625 0.29571533203125 21.4632568359375 0.2938232421875 21.4755859375 0.29193115234375 C 21.4759521484375 0.2918701171875 21.47607421875 0.2918701171875 21.4765625 0.29180908203125 C 21.502685546875 0.28778076171875 21.528564453125 0.28387451171875 21.5546875 0.27996826171875 C 21.5555419921875 0.27984619140625 21.5567626953125 0.2796630859375 21.5574951171875 0.279541015625 C 21.569091796875 0.27783203125 21.5814208984375 0.2760009765625 21.5928955078125 0.2742919921875 C 21.59521484375 0.27398681640625 21.5975341796875 0.27362060546875 21.599853515625 0.27325439453125 C 21.6104736328125 0.271728515625 21.62060546875 0.27020263671875 21.63134765625 0.2686767578125 C 21.634765625 0.26812744140625 21.6373291015625 0.26776123046875 21.6407470703125 0.26727294921875 C 21.6497802734375 0.26593017578125 21.660400390625 0.264404296875 21.66943359375 0.26312255859375 C 21.6728515625 0.26263427734375 21.676025390625 0.26214599609375 21.679443359375 0.26165771484375 C 21.6884765625 0.26031494140625 21.699462890625 0.2587890625 21.70849609375 0.2574462890625 C 21.7119140625 0.2569580078125 21.714599609375 0.256591796875 21.718017578125 0.256103515625 C 21.7279052734375 0.25469970703125 21.738037109375 0.25323486328125 21.747802734375 0.2518310546875 C 21.75048828125 0.25146484375 21.7532958984375 0.2510986328125 21.7559814453125 0.250732421875 C 21.765869140625 0.24932861328125 21.77587890625 0.2479248046875 21.78564453125 0.24652099609375 C 21.7890625 0.24603271484375 21.79248046875 0.24554443359375 21.7958984375 0.2451171875 C 21.804931640625 0.24383544921875 21.815673828125 0.2423095703125 21.8248291015625 0.2410888671875 C 21.8277587890625 0.24066162109375 21.8309326171875 0.240234375 21.833984375 0.23980712890625 C 21.8438720703125 0.2384033203125 21.854248046875 0.23699951171875 21.8641357421875 0.23565673828125 C 21.8671875 0.2352294921875 21.869873046875 0.23486328125 21.8729248046875 0.23443603515625 C 21.8843994140625 0.23291015625 21.895263671875 0.23138427734375 21.90673828125 0.2298583984375 C 21.908203125 0.22967529296875 21.9091796875 0.2294921875 21.91064453125 0.22930908203125 C 21.923095703125 0.2276611328125 21.9354248046875 0.2259521484375 21.94775390625 0.22430419921875 C 21.9486083984375 0.2242431640625 21.9490966796875 0.22418212890625 21.9498291015625 0.22406005859375 C 21.9761962890625 0.22052001953125 22.001220703125 0.21722412109375 22.0277099609375 0.21380615234375 C 22.0299072265625 0.2135009765625 22.0318603515625 0.2132568359375 22.0341796875 0.21295166015625 C 22.044921875 0.2115478515625 22.0562744140625 0.2100830078125 22.0670166015625 0.20867919921875 C 22.0692138671875 0.2083740234375 22.0718994140625 0.20806884765625 22.07421875 0.207763671875 C 22.0841064453125 0.20648193359375 22.093994140625 0.20526123046875 22.1038818359375 0.2039794921875 C 22.1083984375 0.203369140625 22.113037109375 0.20281982421875 22.1175537109375 0.20220947265625 C 22.1258544921875 0.201171875 22.1346435546875 0.2000732421875 22.142822265625 0.19903564453125 C 22.1474609375 0.198486328125 22.151123046875 0.197998046875 22.1556396484375 0.19744873046875 C 22.164794921875 0.1962890625 22.1722412109375 0.19537353515625 22.1812744140625 0.1942138671875 C 22.1939697265625 0.192626953125 22.2078857421875 0.19085693359375 22.22021484375 0.189453125 C 22.232177734375 0.18792724609375 22.2454833984375 0.18634033203125 22.257568359375 0.18487548828125 C 22.2620849609375 0.184326171875 22.2677001953125 0.18365478515625 22.272216796875 0.18310546875 C 22.2813720703125 0.1820068359375 22.288818359375 0.18115234375 22.2978515625 0.1800537109375 C 22.302001953125 0.1795654296875 22.30615234375 0.1790771484375 22.3104248046875 0.17852783203125 C 22.3194580078125 0.177490234375 22.3291015625 0.17633056640625 22.338134765625 0.17529296875 C 22.341552734375 0.17486572265625 22.3448486328125 0.17449951171875 22.3482666015625 0.174072265625 C 22.3590087890625 0.17279052734375 22.3692626953125 0.171630859375 22.3800048828125 0.17034912109375 C 22.38232421875 0.17010498046875 22.384765625 0.1697998046875 22.3870849609375 0.1695556640625 C 22.3978271484375 0.16827392578125 22.4110107421875 0.16680908203125 22.4217529296875 0.16552734375 C 22.42333984375 0.1654052734375 22.4244384765625 0.16522216796875 22.4259033203125 0.16510009765625 C 22.452392578125 0.16204833984375 22.477783203125 0.1591796875 22.50439453125 0.15625 C 22.5062255859375 0.156005859375 22.5081787109375 0.15582275390625 22.5101318359375 0.15557861328125 C 22.5208740234375 0.1544189453125 22.531494140625 0.1531982421875 22.5423583984375 0.15203857421875 C 22.5545654296875 0.15069580078125 22.568603515625 0.14923095703125 22.58056640625 0.14788818359375 C 22.5941162109375 0.1463623046875 22.6063232421875 0.14520263671875 22.6195068359375 0.1436767578125 C 22.63330078125 0.14227294921875 22.6446533203125 0.14105224609375 22.6583251953125 0.13958740234375 C 22.6715087890625 0.13812255859375 22.6824951171875 0.13702392578125 22.69580078125 0.13568115234375 C 22.708740234375 0.13433837890625 22.72119140625 0.13311767578125 22.73388671875 0.13177490234375 C 22.746337890625 0.1304931640625 22.760498046875 0.12908935546875 22.77294921875 0.1278076171875 C 22.7857666015625 0.12640380859375 22.799560546875 0.125244140625 22.8123779296875 0.1239013671875 C 22.8253173828125 0.12261962890625 22.8387451171875 0.12127685546875 22.8515625 0.12005615234375 C 22.866455078125 0.11859130859375 22.881591796875 0.11712646484375 22.8966064453125 0.11572265625 C 22.8992919921875 0.115478515625 22.902099609375 0.11517333984375 22.90478515625 0.11492919921875 C 22.9306640625 0.11248779296875 22.956787109375 0.11004638671875 22.982666015625 0.10760498046875 C 22.9954833984375 0.1064453125 23.008056640625 0.10528564453125 23.0211181640625 0.1041259765625 C 23.03369140625 0.10302734375 23.0465087890625 0.101806640625 23.05908203125 0.1007080078125 C 23.072509765625 0.099365234375 23.0848388671875 0.098388671875 23.098876953125 0.09722900390625 C 23.111572265625 0.09619140625 23.125244140625 0.09490966796875 23.1376953125 0.0938720703125 C 23.1510009765625 0.0926513671875 23.1644287109375 0.09161376953125 23.1773681640625 0.0904541015625 C 23.1910400390625 0.08935546875 23.202392578125 0.08819580078125 23.2164306640625 0.08721923828125 C 23.2303466796875 0.0860595703125 23.2432861328125 0.08502197265625 23.256591796875 0.08392333984375 C 23.2691650390625 0.08294677734375 23.2816162109375 0.0819091796875 23.2938232421875 0.0809326171875 C 23.30712890625 0.07977294921875 23.3199462890625 0.078857421875 23.333251953125 0.07781982421875 C 23.34716796875 0.07666015625 23.3607177734375 0.07574462890625 23.374755859375 0.0745849609375 C 23.3785400390625 0.07427978515625 23.38232421875 0.07403564453125 23.38623046875 0.07373046875 C 23.399658203125 0.07269287109375 23.4112548828125 0.07183837890625 23.4246826171875 0.07080078125 C 23.437255859375 0.07000732421875 23.45166015625 0.06884765625 23.46435546875 0.06787109375 C 23.4774169921875 0.067138671875 23.4906005859375 0.0660400390625 23.503662109375 0.0650634765625 C 23.5164794921875 0.06427001953125 23.529296875 0.063232421875 23.5421142578125 0.06231689453125 C 23.55517578125 0.0614013671875 23.5682373046875 0.06060791015625 23.5810546875 0.05963134765625 C 23.59375 0.05889892578125 23.607421875 0.05780029296875 23.6202392578125 0.0570068359375 C 23.6341552734375 0.05609130859375 23.6456298828125 0.05535888671875 23.658935546875 0.054443359375 C 23.671875 0.05352783203125 23.683837890625 0.05279541015625 23.69677734375 0.052001953125 C 23.710205078125 0.05120849609375 23.723876953125 0.05035400390625 23.737060546875 0.0494384765625 C 23.75048828125 0.048583984375 23.7652587890625 0.0477294921875 23.7786865234375 0.04693603515625 C 23.793701171875 0.0457763671875 23.8096923828125 0.04498291015625 23.8248291015625 0.04412841796875 C 23.83740234375 0.0433349609375 23.8509521484375 0.0426025390625 23.864501953125 0.0418701171875 C 23.8797607421875 0.0408935546875 23.8934326171875 0.0401611328125 23.9088134765625 0.03936767578125 C 23.9219970703125 0.0384521484375 23.9346923828125 0.03790283203125 23.947509765625 0.0372314453125 C 23.961181640625 0.03656005859375 23.97314453125 0.035888671875 23.9871826171875 0.03515625 C 23.999267578125 0.03448486328125 24.0120849609375 0.03387451171875 24.0242919921875 0.033203125 C 24.0374755859375 0.03253173828125 24.0506591796875 0.0318603515625 24.0640869140625 0.03118896484375 C 24.077392578125 0.03057861328125 24.0906982421875 0.02984619140625 24.104248046875 0.02923583984375 C 24.11767578125 0.02880859375 24.131591796875 0.0279541015625 24.1451416015625 0.02734375 C 24.15771484375 0.02685546875 24.170654296875 0.0262451171875 24.1834716796875 0.02557373046875 C 24.1968994140625 0.0250244140625 24.2115478515625 0.02435302734375 24.224609375 0.0238037109375 C 24.238525390625 0.02313232421875 24.2520751953125 0.0225830078125 24.26611328125 0.02203369140625 C 24.2794189453125 0.02178955078125 24.29443359375 0.02093505859375 24.3082275390625 0.02032470703125 C 24.322021484375 0.01947021484375 24.333740234375 0.019287109375 24.347412109375 0.018798828125 C 24.3638916015625 0.01824951171875 24.379638671875 0.01751708984375 24.3958740234375 0.0169677734375 C 24.4083251953125 0.01751708984375 24.4217529296875 0.01605224609375 24.434814453125 0.01556396484375 C 24.44873046875 0.01544189453125 24.4613037109375 0.01470947265625 24.4744873046875 0.01422119140625 C 24.4871826171875 0.013916015625 24.5001220703125 0.013427734375 24.5123291015625 0.01300048828125 C 24.525146484375 0.01263427734375 24.5386962890625 0.01226806640625 24.5513916015625 0.01177978515625 C 24.5648193359375 0.01129150390625 24.578125 0.0108642578125 24.5911865234375 0.0106201171875 C 24.6036376953125 0.01025390625 24.6180419921875 0.0098876953125 24.6302490234375 0.009521484375 C 24.6439208984375 0.00909423828125 24.656005859375 0.0089111328125 24.6695556640625 0.00848388671875 C 24.68359375 0.00799560546875 24.6961669921875 0.00775146484375 24.7108154296875 0.0074462890625 C 24.7227783203125 0.00714111328125 24.7379150390625 0.0068359375 24.750244140625 0.00653076171875 C 24.7637939453125 0.00628662109375 24.7757568359375 0.00592041015625 24.789306640625 0.00567626953125 C 24.8040771484375 0.00537109375 24.81787109375 0.00506591796875 24.832763671875 0.0047607421875 C 24.8487548828125 0.00445556640625 24.8671875 0.004150390625 24.8831787109375 0.00384521484375 C 24.8968505859375 0.003662109375 24.908447265625 0.00341796875 24.922119140625 0.003173828125 C 24.9356689453125 0.0030517578125 24.948486328125 0.00274658203125 24.9620361328125 0.0025634765625 C 24.9752197265625 0.00238037109375 24.9881591796875 0.00213623046875 25.0013427734375 0.0020751953125 C 25.0147705078125 0.00177001953125 25.02783203125 0.001708984375 25.0413818359375 0.0015869140625 C 25.0545654296875 0.0013427734375 25.067138671875 0.0013427734375 25.080322265625 0.00115966796875 C 25.0933837890625 0.0009765625 25.1065673828125 0.0008544921875 25.119873046875 0.00079345703125 C 25.132568359375 0.00054931640625 25.1461181640625 0.00054931640625 25.158935546875 0.00048828125 C 25.172607421875 0.00054931640625 25.1861572265625 0.0003662109375 25.199462890625 0.000244140625 C 25.2120361328125 0.00018310546875 25.2257080078125 6.103515625e-05 25.238037109375 0.0001220703125 C 25.2529296875 -6.103515625e-05 25.2655029296875 6.103515625e-05 25.2803955078125 -6.103515625e-05 C 25.29833984375 -6.103515625e-05 25.3167724609375 -6.103515625e-05 25.3345947265625 -0.0001220703125 Z" stroke="none" fill="#253081"/>
    </g>
  </g>
</svg>
