<?xml version="1.0" encoding="utf-8"?>
<!-- Generator: Adobe Illustrator 27.5.0, SVG Export Plug-In . SVG Version: 6.00 Build 0)  -->
<svg version="1.1" id="Ebene_1" xmlns="http://www.w3.org/2000/svg" xmlns:xlink="http://www.w3.org/1999/xlink" x="0px" y="0px"
	 width="40px" height="37.6px" viewBox="0 0 40 37.6" style="enable-background:new 0 0 40 37.6;" xml:space="preserve">
<style type="text/css">
	.st0{fill:#28347D;}
</style>
<g>
	<path class="st0" d="M19.6,10.8c-0.2,0-0.3,0.1-0.4,0.3S19,11.4,19,11.6v7c0,0.2,0,0.4,0.1,0.6c0.1,0.2,0.2,0.3,0.4,0.3
		c0.2,0,0.4-0.1,0.5-0.3c0.1-0.2,0.1-0.4,0.1-0.6v-7c0-0.2,0-0.4-0.1-0.6C19.9,10.8,19.8,10.8,19.6,10.8z"/>
	<path class="st0" d="M20,0C9,0,0,6.9,0,15.4c0,8.5,9,15.4,20,15.4c1.3,0,2.6-0.1,3.8-0.3l6.9,7.1v-9.3c5.6-2.7,9.3-7.5,9.3-13
		C40,6.9,31,0,20,0z M12.8,13.1c0.2,0.4,0.6,0.9,1,1.5c0.5,0.7,0.9,1.3,1.2,1.8c0.3,0.6,0.5,1.2,0.5,1.8c0,0.4,0,0.8-0.1,1.2
		c-0.1,0.4-0.2,0.7-0.4,1c-0.2,0.3-0.4,0.5-0.8,0.6c-0.3,0.2-0.7,0.2-1.1,0.2c-0.5,0-0.9-0.1-1.2-0.2c-0.3-0.2-0.6-0.4-0.8-0.7
		c-0.2-0.3-0.3-0.7-0.4-1.1c-0.1-0.4-0.1-0.9-0.1-1.4l1.7-0.2c0,0.3,0,0.5,0,0.7c0,0.2,0.1,0.5,0.1,0.6c0.1,0.2,0.1,0.3,0.2,0.5
		c0.1,0.1,0.2,0.2,0.4,0.2c0.3,0,0.4-0.1,0.6-0.4c0.1-0.2,0.2-0.5,0.2-0.9c0-0.3-0.1-0.7-0.3-1.1c-0.2-0.4-0.4-0.7-0.6-1
		c-0.4-0.6-0.8-1.1-1.1-1.6c-0.3-0.5-0.6-1-0.7-1.4c-0.2-0.5-0.3-0.9-0.3-1.5c0-0.4,0.1-0.8,0.2-1.1c0.1-0.3,0.3-0.6,0.4-0.9
		c0.2-0.3,0.4-0.4,0.7-0.6c0.3-0.1,0.6-0.2,1-0.2c0.4,0,0.8,0.1,1.1,0.2c0.3,0.2,0.6,0.4,0.8,0.6c0.2,0.3,0.3,0.6,0.4,1
		c0.1,0.4,0.1,0.8,0.1,1.3l-1.7,0.2c0-0.2,0-0.4,0-0.6c0-0.2-0.1-0.4-0.1-0.6c0-0.2-0.1-0.3-0.2-0.4c-0.1-0.1-0.2-0.2-0.4-0.2
		c-0.2,0-0.4,0.1-0.5,0.3c-0.1,0.2-0.1,0.5-0.1,0.8C12.4,12.2,12.5,12.7,12.8,13.1z M21.9,18.6c0,0.5-0.1,0.9-0.3,1.3
		c-0.2,0.4-0.5,0.7-0.8,0.9c-0.3,0.2-0.8,0.3-1.3,0.3c-0.5,0-0.9-0.1-1.3-0.3c-0.3-0.2-0.6-0.5-0.8-0.9c-0.2-0.4-0.3-0.8-0.3-1.3v-7
		c0-0.5,0.1-0.9,0.3-1.3c0.2-0.4,0.5-0.7,0.8-0.9c0.3-0.2,0.8-0.3,1.3-0.3c0.5,0,0.9,0.1,1.3,0.3c0.3,0.2,0.6,0.5,0.8,0.9
		c0.2,0.4,0.3,0.8,0.3,1.3V18.6z M26,13.1c0.2,0.4,0.6,0.9,1,1.5c0.5,0.7,0.9,1.3,1.2,1.8c0.3,0.6,0.5,1.2,0.5,1.8
		c0,0.4,0,0.8-0.1,1.2c-0.1,0.4-0.2,0.7-0.4,1c-0.2,0.3-0.4,0.5-0.8,0.6c-0.3,0.2-0.7,0.2-1.1,0.2c-0.5,0-0.9-0.1-1.2-0.2
		c-0.3-0.2-0.6-0.4-0.8-0.7c-0.2-0.3-0.3-0.7-0.4-1.1c-0.1-0.4-0.1-0.9-0.1-1.4l1.7-0.2c0,0.3,0,0.5,0,0.7c0,0.2,0.1,0.5,0.1,0.6
		c0.1,0.2,0.1,0.3,0.2,0.5c0.1,0.1,0.2,0.2,0.4,0.2c0.3,0,0.4-0.1,0.6-0.4c0.1-0.2,0.2-0.5,0.2-0.9c0-0.3-0.1-0.7-0.3-1.1
		c-0.2-0.4-0.4-0.7-0.6-1c-0.4-0.6-0.8-1.1-1.1-1.6c-0.3-0.5-0.6-1-0.7-1.4c-0.2-0.5-0.3-0.9-0.3-1.5c0-0.4,0.1-0.8,0.2-1.1
		c0.1-0.3,0.3-0.6,0.4-0.9c0.2-0.3,0.4-0.4,0.7-0.6c0.3-0.1,0.6-0.2,1-0.2c0.4,0,0.8,0.1,1.1,0.2c0.3,0.2,0.6,0.4,0.8,0.6
		c0.2,0.3,0.3,0.6,0.4,1c0.1,0.4,0.1,0.8,0.1,1.3l-1.7,0.2c0-0.2,0-0.4,0-0.6c0-0.2-0.1-0.4-0.1-0.6c0-0.2-0.1-0.3-0.2-0.4
		c-0.1-0.1-0.2-0.2-0.4-0.2c-0.2,0-0.4,0.1-0.5,0.3c-0.1,0.2-0.1,0.5-0.1,0.8C25.6,12.2,25.7,12.7,26,13.1z"/>
</g>
</svg>
