<?xml version="1.0" encoding="utf-8"?>
<!-- Generator: Adobe Illustrator 27.5.0, SVG Export Plug-In . SVG Version: 6.00 Build 0)  -->
<svg version="1.1" id="Ebene_1" xmlns="http://www.w3.org/2000/svg" xmlns:xlink="http://www.w3.org/1999/xlink" x="0px" y="0px"
	 width="250px" height="244.3px" viewBox="0 0 250 244.3" style="enable-background:new 0 0 250 244.3;" xml:space="preserve">
<style type="text/css">
	.st0{fill:#28347D;}
	.st1{fill:#FFFFFF;}
</style>
<g>
	<path class="st0" d="M250,122.2c0,9.2-11.2,17-13.2,25.5c-2,8.9,4.7,20.7,0.8,28.7c-3.9,8.1-17.4,10.3-23,17.3
		c-5.6,7-4.7,20.6-11.7,26.2c-7,5.6-20,1.7-28.2,5.6c-8,3.9-13.1,16.5-22,18.5c-8.6,1.9-18.6-7.2-27.8-7.2s-19.2,9.2-27.8,7.2
		c-8.9-2-14-14.7-22-18.5c-8.1-3.9-21.2-0.1-28.2-5.6c-7-5.6-6.1-19.2-11.7-26.2c-5.6-7-19-9.1-23-17.3c-3.9-8,2.8-19.9,0.8-28.7
		C11.2,139.1,0,131.3,0,122.2s11.2-17,13.2-25.5c2-8.9-4.7-20.7-0.8-28.7c3.9-8.1,17.4-10.3,23-17.3c5.6-7,4.7-20.6,11.7-26.2
		c7-5.6,20-1.7,28.2-5.6c8-3.9,13.1-16.5,22-18.5c8.6-1.9,18.6,7.2,27.8,7.2s19.2-9.2,27.8-7.2c8.9,2,14,14.7,22,18.5
		c8.1,3.9,21.2,0.1,28.2,5.6c7,5.6,6.1,19.2,11.7,26.2c5.6,7,19,9.1,23,17.3c3.9,8-2.8,19.9-0.8,28.7C238.8,105.2,250,113,250,122.2
		z"/>
</g>
<g>
	<g>
		<path class="st1" d="M129.1,65.4c-0.3,0-0.7-0.1-0.9-0.2l-21.3-9.8V72c0,0.8,0.6,1.5,1.3,1.6c6.9,1.5,14,2.2,21,2.2l0,0
			c7,0,14-0.7,21-2.2c0.8-0.2,1.3-0.8,1.3-1.6V55.4L130,65.1C129.7,65.3,129.4,65.4,129.1,65.4z"/>
		<path class="st1" d="M98.9,73.3C98.9,73.3,98.9,73.3,98.9,73.3c0-0.1,0-0.2-0.1-0.2v0l-3-9.8c1-1,1.6-2.3,1.6-3.8
			c0-2.4-1.6-4.5-3.8-5.2l-0.1-5.4l6.4,0.6l28.2,12.9L165,45.5l-36.9-16.9L91.4,45.5c0,0,0,0-0.1,0c0,0,0,0-0.1,0c0,0,0,0-0.1,0
			c0,0,0,0-0.1,0c0,0,0,0-0.1,0c0,0,0,0-0.1,0c0,0,0,0-0.1,0c0,0,0,0-0.1,0c0,0,0,0-0.1,0.1c0,0,0,0-0.1,0.1c0,0,0,0-0.1,0.1
			c0,0,0,0,0,0.1c0,0,0,0,0,0.1c0,0,0,0,0,0.1c0,0,0,0,0,0.1c0,0,0,0,0,0.1c0,0,0,0,0,0.1c0,0,0,0,0,0.1c0,0,0,0,0,0.1
			c0,0,0,0,0,0.1c0,0,0,0.1,0,0.1c0,0,0,0,0,0.1s0,0.1,0,0.1v0.1v0.1v0v7.3c-2.2,0.7-3.8,2.7-3.8,5.2c0,1.5,0.6,2.8,1.6,3.8l-3,9.8
			v0c0,0,0,0.1,0,0.1c0,0,0,0.1,0,0.1c0,0,0,0,0,0.1c0,0,0,0.1,0,0.1v0v0v0.1v0c0,0,0,0.1,0,0.1c0,0,0,0.1,0,0.1c0,0,0,0,0,0.1
			c0,0,0,0.1,0,0.1c0,0,0,0,0,0c0,0,0,0.1,0.1,0.1c0,0,0,0,0,0c0,0,0,0.1,0.1,0.1c0,0,0,0,0,0c0,0,0,0,0,0.1c0,0,0,0,0,0.1s0,0,0,0
			c0,0,0,0,0.1,0.1c0,0,0,0,0,0l0.1,0.1c0,0,0.1,0.1,0.1,0.1c0,0,0,0,0.1,0c0,0,0.1,0,0.1,0c0,0,0.1,0,0.1,0.1c0,0,0,0,0.1,0
			c0,0,0.1,0,0.1,0c0,0,0.1,0,0.1,0c0,0,0,0,0,0c0,0,0.1,0,0.1,0h0c0,0,0.1,0,0.1,0h0h10.6h0c0,0,0.1,0,0.1,0h0c0,0,0.1,0,0.1,0
			c0,0,0,0,0,0c0,0,0.1,0,0.1,0c0,0,0.1,0,0.1,0c0,0,0,0,0.1,0c0,0,0.1,0,0.1-0.1c0,0,0.1,0,0.1,0c0,0,0,0,0.1,0c0,0,0.1,0,0.1-0.1
			l0,0c0,0,0.1-0.1,0.1-0.1c0,0,0,0,0,0c0,0,0,0,0.1-0.1c0,0,0,0,0,0s0,0,0-0.1c0,0,0,0,0-0.1c0,0,0,0,0,0c0,0,0-0.1,0.1-0.1
			c0,0,0,0,0,0c0,0,0-0.1,0.1-0.1c0,0,0,0,0,0c0,0,0-0.1,0-0.1c0,0,0,0,0-0.1c0,0,0-0.1,0-0.1c0,0,0-0.1,0-0.1v0v-0.1v0v0
			C98.9,73.5,98.9,73.5,98.9,73.3C98.9,73.4,98.9,73.4,98.9,73.3z M129.7,45.4c0.1,0.9-0.6,1.7-1.5,1.7l-28.3,2.3l-5.1-2.8l33.2-2.7
			C128.9,43.8,129.7,44.5,129.7,45.4z"/>
	</g>
	<g>
		<path class="st1" d="M43.6,124.8l3.3-22h4l3.3,22h-3.1l-0.6-4.5h-3.1l-0.6,4.5H43.6z M47.8,116.9h2.2l-0.9-7.4l-0.1-1.2h-0.2
			l-0.1,1.2L47.8,116.9z"/>
		<path class="st1" d="M66.3,125c-0.9,0-1.7-0.2-2.3-0.6s-1.1-1-1.5-1.7c-0.3-0.7-0.5-1.5-0.5-2.4v-17.5h3.2v17.5
			c0,0.4,0.1,0.8,0.3,1.1s0.4,0.5,0.8,0.5c0.4,0,0.7-0.2,0.8-0.5s0.2-0.7,0.2-1.1v-17.5h3.2v17.5c0,0.9-0.2,1.7-0.5,2.4
			c-0.3,0.7-0.8,1.3-1.5,1.7S67.2,125,66.3,125z"/>
		<path class="st1" d="M82.9,125c-0.9,0-1.6-0.1-2.2-0.4s-1.1-0.7-1.4-1.3c-0.3-0.6-0.6-1.2-0.7-2s-0.2-1.7-0.2-2.7l3.2-0.3
			c0,0.5,0,0.9,0.1,1.4c0,0.4,0.1,0.8,0.2,1.2c0.1,0.4,0.2,0.6,0.4,0.8c0.2,0.2,0.4,0.3,0.7,0.3c0.5,0,0.8-0.2,1-0.7
			c0.2-0.4,0.3-1,0.3-1.6s-0.2-1.3-0.5-2c-0.3-0.7-0.7-1.3-1.2-1.9c-0.8-1-1.5-2-2-2.9c-0.6-0.9-1-1.8-1.4-2.6
			c-0.3-0.9-0.5-1.8-0.5-2.7c0-0.7,0.1-1.4,0.3-2s0.5-1.2,0.8-1.6c0.4-0.5,0.8-0.8,1.3-1.1c0.5-0.3,1.1-0.4,1.8-0.4
			c0.8,0,1.5,0.1,2.1,0.4c0.6,0.3,1,0.7,1.4,1.2s0.6,1.1,0.8,1.9s0.2,1.5,0.2,2.4l-3.2,0.3c0-0.4,0-0.7-0.1-1.1c0-0.4-0.1-0.7-0.2-1
			c-0.1-0.3-0.2-0.6-0.4-0.8c-0.2-0.2-0.4-0.3-0.7-0.3c-0.4,0-0.7,0.2-0.9,0.5c-0.2,0.4-0.2,0.9-0.2,1.5c0,0.8,0.2,1.7,0.7,2.4
			c0.5,0.8,1.1,1.7,1.8,2.7c0.9,1.2,1.7,2.4,2.2,3.4c0.6,1,0.9,2.2,0.9,3.4c0,0.8-0.1,1.5-0.3,2.2c-0.2,0.7-0.4,1.3-0.8,1.8
			c-0.4,0.5-0.8,0.9-1.4,1.2C84.4,124.9,83.7,125,82.9,125z"/>
		<path class="st1" d="M95.2,124.8v-22h3.3c1.1,0,2.1,0.2,2.9,0.6c0.8,0.4,1.4,1,1.9,1.9c0.4,0.8,0.7,1.9,0.7,3.3
			c0,1.1-0.1,2-0.4,2.8s-0.8,1.4-1.6,1.9c0.8,0.4,1.4,1.1,1.7,2.1c0.4,1,0.5,2.1,0.5,3.3c0,1.2-0.2,2.3-0.6,3.3
			c-0.4,0.9-1,1.7-1.7,2.2c-0.8,0.5-1.7,0.8-2.8,0.8H95.2z M98.4,111.8c0.9,0,1.5-0.2,1.9-0.8c0.3-0.5,0.5-1.2,0.5-2.2
			c0-1-0.2-1.7-0.5-2.2c-0.4-0.5-1-0.7-1.9-0.7V111.8z M98.4,121.6c1,0,1.6-0.3,1.9-0.9s0.5-1.4,0.5-2.5c0-1.1-0.2-2-0.5-2.5
			c-0.3-0.6-1-0.9-1.9-0.9V121.6z"/>
		<path class="st1" d="M112.1,124.8v-22h3.2v22H112.1z"/>
		<path class="st1" d="M123.7,124.8v-22h3.2v19h4.3v3H123.7z"/>
		<path class="st1" d="M138.6,124.8v-22h3.3c1,0,1.9,0.2,2.6,0.5c0.7,0.3,1.3,0.9,1.7,1.7s0.8,1.9,1,3.4s0.3,3.2,0.3,5.4
			c0,2.2-0.1,4-0.3,5.4c-0.2,1.4-0.5,2.5-1,3.4c-0.4,0.8-1,1.4-1.7,1.7c-0.7,0.3-1.6,0.5-2.6,0.5H138.6z M141.8,121.6
			c0.8,0,1.4-0.3,1.7-0.9c0.3-0.6,0.5-1.5,0.6-2.7s0.1-2.6,0.1-4.2c0-1.6,0-3-0.1-4.2s-0.3-2-0.6-2.7s-0.9-0.9-1.7-0.9V121.6z"/>
		<path class="st1" d="M160.1,125c-0.9,0-1.7-0.2-2.3-0.6s-1.1-1-1.5-1.7c-0.3-0.7-0.5-1.5-0.5-2.4v-17.5h3.2v17.5
			c0,0.4,0.1,0.8,0.3,1.1s0.4,0.5,0.8,0.5c0.4,0,0.7-0.2,0.8-0.5s0.2-0.7,0.2-1.1v-17.5h3.2v17.5c0,0.9-0.2,1.7-0.5,2.4
			c-0.3,0.7-0.8,1.3-1.5,1.7S161,125,160.1,125z"/>
		<path class="st1" d="M172.8,124.8v-22h3l3,11.5l0.3,1h0.2v-12.5h3v22h-2.7l-3.3-11.5l-0.3-1h-0.2v12.5H172.8z"/>
		<path class="st1" d="M194.3,125c-0.9,0-1.6-0.2-2.2-0.6s-1-1-1.2-1.7c-0.3-0.7-0.4-1.5-0.4-2.4v-13c0-0.9,0.2-1.7,0.5-2.4
			c0.3-0.7,0.8-1.3,1.5-1.7c0.6-0.4,1.4-0.6,2.3-0.6c0.7,0,1.3,0.1,1.8,0.4c0.5,0.2,1,0.6,1.4,1c0.4,0.4,0.7,0.9,0.9,1.5
			s0.3,1.2,0.3,1.9v3.4h-3.2v-3.4c0-0.4-0.1-0.8-0.2-1.1c-0.2-0.3-0.4-0.5-0.8-0.5c-0.4,0-0.7,0.2-0.8,0.5s-0.2,0.7-0.2,1.1v13.3
			c0,0.4,0.1,0.8,0.3,1.1c0.2,0.3,0.4,0.5,0.8,0.5c0.4,0,0.7-0.2,0.8-0.5c0.2-0.3,0.2-0.7,0.2-1.1v-3.7h-1.3v-3h4.5v11h-1.9
			l-0.4-1.2c-0.3,0.5-0.6,0.8-1.1,1.1S194.8,125,194.3,125z"/>
		<path class="st1" d="M44.3,160.8v-22h3.3c1.1,0,2.1,0.2,2.9,0.6c0.8,0.4,1.4,1,1.9,1.9c0.4,0.8,0.7,1.9,0.7,3.3
			c0,1.1-0.1,2-0.4,2.8s-0.8,1.4-1.6,1.9c0.8,0.4,1.4,1.1,1.7,2.1c0.4,1,0.5,2.1,0.5,3.3c0,1.2-0.2,2.3-0.6,3.3
			c-0.4,0.9-1,1.7-1.7,2.2c-0.8,0.5-1.7,0.8-2.8,0.8H44.3z M47.6,147.8c0.9,0,1.5-0.2,1.9-0.8c0.3-0.5,0.5-1.2,0.5-2.2
			c0-1-0.2-1.7-0.5-2.2c-0.4-0.5-1-0.7-1.9-0.7V147.8z M47.6,157.6c1,0,1.6-0.3,1.9-0.9s0.5-1.4,0.5-2.5c0-1.1-0.2-2-0.5-2.5
			c-0.3-0.6-1-0.9-1.9-0.9V157.6z"/>
		<path class="st1" d="M61.2,160.8v-22h7.4v3.3h-4.2v5.9h3v3.2h-3v6.2h4.2v3.3H61.2z"/>
		<path class="st1" d="M77.1,160.8v-22h3.2v22H77.1z"/>
		<path class="st1" d="M99.3,160.8v-22h3.3c1,0,1.9,0.2,2.6,0.5c0.7,0.3,1.3,0.9,1.7,1.7s0.8,1.9,1,3.4s0.3,3.2,0.3,5.4
			c0,2.2-0.1,4-0.3,5.4c-0.2,1.4-0.5,2.5-1,3.4c-0.4,0.8-1,1.4-1.7,1.7c-0.7,0.3-1.6,0.5-2.6,0.5H99.3z M102.6,157.6
			c0.8,0,1.4-0.3,1.7-0.9c0.3-0.6,0.5-1.5,0.6-2.7s0.1-2.6,0.1-4.2c0-1.6,0-3-0.1-4.2s-0.3-2-0.6-2.7s-0.9-0.9-1.7-0.9V157.6z"/>
		<path class="st1" d="M116.5,160.8v-22h7.4v3.3h-4.2v5.9h3v3.2h-3v6.2h4.2v3.3H116.5z"/>
		<path class="st1" d="M132.3,160.8v-22h3.2c1.9,0,3.4,0.5,4.3,1.6s1.4,2.7,1.4,4.7c0,1.2-0.2,2.3-0.7,3.2c-0.4,0.9-1,1.6-1.6,2
			l2.2,10.5h-3.2l-1.8-9.3h-0.6v9.3H132.3z M135.5,148.5c0.6,0,1.1-0.1,1.4-0.4c0.3-0.3,0.6-0.6,0.8-1.1c0.1-0.5,0.2-1.1,0.2-1.7
			c0-1-0.2-1.9-0.5-2.4c-0.3-0.6-1-0.8-1.9-0.8V148.5z"/>
		<path class="st1" d="M163.3,161c-0.9,0-1.6-0.2-2.2-0.6s-1-1-1.2-1.7c-0.3-0.7-0.4-1.5-0.4-2.4v-13c0-0.9,0.2-1.7,0.5-2.4
			c0.3-0.7,0.8-1.3,1.5-1.7c0.6-0.4,1.4-0.6,2.3-0.6c0.7,0,1.3,0.1,1.8,0.4c0.5,0.2,1,0.6,1.4,1c0.4,0.4,0.7,0.9,0.9,1.5
			s0.3,1.2,0.3,1.9v3.4h-3.2v-3.4c0-0.4-0.1-0.8-0.2-1.1c-0.2-0.3-0.4-0.5-0.8-0.5c-0.4,0-0.7,0.2-0.8,0.5s-0.2,0.7-0.2,1.1v13.3
			c0,0.4,0.1,0.8,0.3,1.1c0.2,0.3,0.4,0.5,0.8,0.5c0.4,0,0.7-0.2,0.8-0.5c0.2-0.3,0.2-0.7,0.2-1.1v-3.7h-1.3v-3h4.5v11h-1.9
			l-0.4-1.2c-0.3,0.5-0.6,0.8-1.1,1.1S163.8,161,163.3,161z"/>
		<path class="st1" d="M178.7,160.8l-3-22h3l1.3,11.5l0.1,0.7h0.2l0.1-0.7l1.4-11.5h2.3l1.4,11.5l0.1,0.7h0.2l0.1-0.7l1.3-11.5h3
			l-3,22h-2.5l-1.5-10.4l-0.2-1.3h-0.1l-0.2,1.3l-1.5,10.4H178.7z"/>
		<path class="st1" d="M201.5,161c-0.9,0-1.6-0.2-2.2-0.6s-1-1-1.2-1.7c-0.3-0.7-0.4-1.5-0.4-2.4v-13c0-0.9,0.2-1.7,0.5-2.4
			c0.3-0.7,0.8-1.3,1.5-1.7c0.6-0.4,1.4-0.6,2.3-0.6c0.7,0,1.3,0.1,1.8,0.4c0.5,0.2,1,0.6,1.4,1c0.4,0.4,0.7,0.9,0.9,1.5
			s0.3,1.2,0.3,1.9v3.4h-3.2v-3.4c0-0.4-0.1-0.8-0.2-1.1c-0.2-0.3-0.4-0.5-0.8-0.5c-0.4,0-0.7,0.2-0.8,0.5s-0.2,0.7-0.2,1.1v13.3
			c0,0.4,0.1,0.8,0.3,1.1c0.2,0.3,0.4,0.5,0.8,0.5c0.4,0,0.7-0.2,0.8-0.5c0.2-0.3,0.2-0.7,0.2-1.1v-3.7h-1.3v-3h4.5v11h-1.9
			l-0.4-1.2c-0.3,0.5-0.6,0.8-1.1,1.1S202.1,161,201.5,161z"/>
	</g>
	<g>
		<path class="st1" d="M129.2,215.7l-4.4-2.8l9.3-14.7l-9.3-14.7l4.4-2.8l10.2,16.1c0.5,0.8,0.5,1.9,0,2.8L129.2,215.7z"/>
	</g>
</g>
</svg>
