<?xml version="1.0" encoding="utf-8"?>
<!-- Generator: Adobe Illustrator 16.0.0, SVG Export Plug-In . SVG Version: 6.00 Build 0)  -->
<!DOCTYPE svg PUBLIC "-//W3C//DTD SVG 1.1//EN" "http://www.w3.org/Graphics/SVG/1.1/DTD/svg11.dtd">
<svg version="1.1" id="Layer_1" xmlns="http://www.w3.org/2000/svg" xmlns:xlink="http://www.w3.org/1999/xlink" x="0px" y="0px"
	 width="118.02px" height="140.75px" viewBox="0 0 118.02 140.75" enable-background="new 0 0 118.02 140.75" xml:space="preserve">
<g>
	<path id="Pfad_3131" fill="#58d38c" d="M89.821,43.047c-0.4-0.399-0.9-0.6-1.4-0.6h-0.6c-3.4,0-15.1,0.399-20.2,5.2
		c-2.8,2.8-4.399,5.8-4.399,8.899c0.1,2.601,1,5.2,2.8,7.101c-1.2,2.399-2.4,5-3.4,7.5c-1.8-5-4.099-9.801-6.899-14.301l-3,2.801
		c-4.8-6.601-10.3-11.301-13.9-13.101c-1-0.399-1.399-1.6-1-2.6c0.4-1,1.601-1.4,2.601-1c4.199,2,10.3,7.3,15.3,13.899
		c2.2-2.8,3.399-6.3,3.2-9.899c-0.2-4.2-2.601-7.9-6.601-11.3c-5.2-4.2-14.5-5.2-21.6-5.2c-3.8,0-6.4,0.2-6.601,0.2
		c-0.6,0.1-1.1,0.3-1.399,0.8c-0.3,0.399-0.5,0.899-0.4,1.399c0,0.801,2.2,19.9,10.3,26.601c2.9,2.6,6.601,4.1,10.5,4.2
		c3.601-0.101,7-1.5,9.5-4c3.9,6,6.5,12.699,7.7,19.699c0,0.2,0,0.2,0.2,0.4v0.2c0,1.1,0.7,2,1.8,2.2h0.2c0.8,0.3,1.8-0.101,2.1-1
		c0-0.101,0.101-0.301,0.101-0.4c0.399-4.9,1.8-9.7,4.2-14.1l-3-3c3.399-5,6.899-8.7,9.899-10.3c1-0.601,2.2-0.2,2.8,0.8
		c0.601,1,0.2,2.199-0.8,2.8l0,0c-2.6,1.399-5.8,4.8-8.899,9.7c1.8,1.399,4.1,2.1,6.399,2.199c3,0,6-1.399,8.7-4
		c5.8-5.399,6.4-19.1,6.4-20.399C90.421,43.947,90.222,43.447,89.821,43.047"/>
	<path id="Pfad_3132" fill="#58d38c" d="M89.121,0.247l-1,9.5c-25.8-17.5-60.899-10.8-78.399,15c-10,14.9-12.5,33.7-6.5,50.6
		l3.399-1.199c-9.8-27.5,4.601-57.601,32.101-67.4c15.899-5.6,33.5-3.4,47.399,6.2l-9.5,3.7l1.301,3.399l13.199-5.2l1.5-14.1
		L89.121,0.247z"/>
	<path id="Pfad_3133" fill="#58d38c" d="M108.921,35.847l-3.399,1.301c10.6,27.1-2.8,57.699-29.9,68.3
		c-16.899,6.6-36,4.1-50.599-6.7l9.2-4.3l-1.5-3.3l-12.9,6l-0.7,14.3l3.601,0.2l0.5-9.601c25.199,18.3,60.5,12.8,78.799-12.399
		C113.321,74.047,115.921,53.847,108.921,35.847"/>
	<g id="Gruppe_3462" opacity="0.18">
		<g id="Gruppe_3461">
			<g>
				<defs>
					<rect id="SVGID_1_" x="1.421" y="132.247" width="116.6" height="8.5"/>
				</defs>
				<clipPath id="SVGID_2_">
					<use xlink:href="#SVGID_1_"  overflow="visible"/>
				</clipPath>
				<g id="Gruppe_3460" clip-path="url(#SVGID_2_)">
					<path id="Pfad_3134" fill="#58d38c" d="M59.722,132.247c32.199,0,58.299,1.9,58.299,4.2s-26.101,4.2-58.299,4.2
						c-32.2,0-58.301-1.9-58.301-4.2S27.522,132.247,59.722,132.247"/>
				</g>
			</g>
		</g>
	</g>
</g>
</svg>
