<?xml version="1.0" encoding="utf-8"?>
<!-- Generator: Adobe Illustrator 16.0.0, SVG Export Plug-In . SVG Version: 6.00 Build 0)  -->
<!DOCTYPE svg PUBLIC "-//W3C//DTD SVG 1.1//EN" "http://www.w3.org/Graphics/SVG/1.1/DTD/svg11.dtd">
<svg version="1.1" id="Layer_1" xmlns="http://www.w3.org/2000/svg" xmlns:xlink="http://www.w3.org/1999/xlink" x="0px" y="0px"
	 width="1044.1px" height="195.2px" viewBox="0 0 1044.1 195.2" enable-background="new 0 0 1044.1 195.2" xml:space="preserve">
<g>
	<path id="Pfad_3137" fill="#29347C" d="M984.9,77.8l-0.1-3c6.8-0.2,13.5-0.601,19.8-1.3l0.3,3
		C998.501,77.1,991.801,77.6,984.9,77.8 M964.801,77.5c-1.8-0.101-3.7-0.2-5.601-0.301c-4.899-0.3-9.699-0.8-14.399-1.399l0.399-3
		c4.7,0.6,9.5,1.1,14.301,1.399c1.899,0.101,3.699,0.2,5.5,0.301L964.801,77.5z M1024.801,73l-0.7-2.9c6.4-1.5,12.7-3.4,18.9-5.8
		l1.1,2.8C1037.801,69.5,1031.301,71.5,1024.801,73 M924.9,72.3c-6.5-1.4-13-3.101-19.5-5l0.9-2.9c6.4,1.9,12.8,3.601,19.2,5
		L924.9,72.3z M533.7,67.5l-1.6-2.5c6.1-4,11.6-7.5,16.9-10.801l1.6,2.5C545.301,60,539.801,63.5,533.7,67.5 M886.501,60.699
		c-5.9-2.3-12-4.8-18.5-7.8l1.199-2.7c6.5,2.9,12.5,5.5,18.301,7.7L886.501,60.699z M567.601,46.3l-1.5-2.601
		c6-3.5,11.9-6.8,17.5-9.8l1.4,2.601C579.4,39.5,573.601,42.8,567.601,46.3 M849.9,44.399c-3.6-1.8-7.1-3.5-10.7-5.3
		c-2.399-1.2-4.8-2.4-7.199-3.6l1.3-2.7c2.399,1.2,4.8,2.399,7.2,3.6c3.5,1.8,7.1,3.5,10.699,5.3L849.9,44.399z M602.801,27.6
		l-1.3-2.7c6.3-2.899,12.5-5.6,18.5-8l1.1,2.8C615.101,22,609.001,24.699,602.801,27.6 M814.001,26.8
		c-6.601-3-12.5-5.601-18.301-7.9l1.101-2.8c5.8,2.3,11.8,4.9,18.399,7.9L814.001,26.8z M639.801,13.199l-0.9-2.899
		c6.601-2,13.101-3.601,19.5-4.9l0.601,2.9C652.801,9.6,646.301,11.199,639.801,13.199 M777.001,12.399
		c-6.4-1.899-12.9-3.6-19.2-4.899l0.6-2.9c6.5,1.3,13,3,19.5,5L777.001,12.399z M678.7,5.3l-0.399-3c6.8-0.9,13.5-1.5,20-1.9l0.2,3
		C692.101,3.8,685.4,4.399,678.7,5.3 M738.2,4.3c-6.399-0.7-13.1-1.101-19.8-1.3l0.101-3c6.8,0.1,13.5,0.6,20.1,1.3L738.2,4.3z"/>
	<path id="Pfad_3138" fill="#29347C" d="M241.4,195.2v-3c6.6,0,13.3-0.301,19.9-0.7l0.199,3
		C254.801,194.899,248.101,195.2,241.4,195.2 M221.301,194.6c-6.7-0.399-13.5-1.1-20-2.1l0.399-3c6.5,0.899,13.101,1.6,19.8,2
		L221.301,194.6z M281.5,192.399l-0.399-3c6.5-0.899,13.1-2.1,19.6-3.399l0.601,2.899C294.7,190.3,288,191.399,281.5,192.399
		 M181.601,188.899c-6.601-1.5-13.101-3.199-19.4-5.199l0.9-2.9c6.2,2,12.7,3.7,19.2,5.1L181.601,188.899z M143.301,176.899
		c-6.2-2.5-12.301-5.399-18.2-8.5l1.399-2.699c5.801,3,11.9,5.8,18,8.3L143.301,176.899z M107.601,158.399
		c-5.601-3.6-11.2-7.399-16.5-11.5l1.8-2.399c5.3,4,10.7,7.8,16.3,11.399L107.601,158.399z M75.601,134
		c-4.9-4.4-9.7-9.2-14.4-14.101l2.2-2.1c4.6,4.8,9.3,9.5,14.2,13.9L75.601,134z M48.101,104.7C43.9,99.5,39.9,94.1,36,88.6l2.5-1.7
		c3.801,5.5,7.801,10.801,11.9,15.9L48.101,104.7z M25.101,71.699C21.7,66,18.4,60,15.4,54.1l2.7-1.4c3,5.9,6.2,11.801,9.6,17.5
		L25.101,71.699z M7,35.8c-2.699-6.2-5-12.601-7-19L2.9,16c2,6.399,4.3,12.6,6.9,18.699L7,35.8z"/>
</g>
</svg>
