<?xml version="1.0" encoding="utf-8"?>
<!-- Generator: Adobe Illustrator 16.0.0, SVG Export Plug-In . SVG Version: 6.00 Build 0)  -->
<!DOCTYPE svg PUBLIC "-//W3C//DTD SVG 1.1//EN" "http://www.w3.org/Graphics/SVG/1.1/DTD/svg11.dtd">
<svg version="1.1" id="Layer_1" xmlns="http://www.w3.org/2000/svg" xmlns:xlink="http://www.w3.org/1999/xlink" x="0px" y="0px"
	 width="126.5px" height="143.2px" viewBox="0 0 126.5 143.2" enable-background="new 0 0 126.5 143.2" xml:space="preserve">
<g>
	<path id="Pfad_3128" fill="#58d38c" d="M56.8,39.101h8.301v8.3H56.8V39.101z M71.101,39.101h8.3v8.3h-8.3V39.101z M42,25.3h8.3
		v8.301H42V25.3z M56.8,25.3h8.301v8.301H56.8V25.3z M31.3,56.3h10.801V39.2h8.6v17.1h39.8V26.2L31.3,8V56.3L31.3,56.3z M28.5,0
		l-1,3.101l68,21.199l1-3.1L28.5,0z"/>
	<rect id="Rechteck_384" x="7.4" y="78" fill="#58d38c" width="10.1" height="33.601"/>
	<path id="Pfad_3129" fill="#58d38c" d="M111.2,72.8c-2.6,1.2-16.1,7.601-22.7,10.5c-0.399,4-3.8,7-7.8,7H49.3v-2.199h31.4
		c2.3,0,4.4-1.5,5.2-3.601v-0.8l0,0c0-3.1-2.5-5.6-5.601-5.6H67.2c-7.9,0-14.3-4.5-22.8-4.5c-10.4,0-13,3.699-23.5,8v25.1
		c7.3-1.9,14.8-2.9,22.399-2.9c9.4-0.1,14,0.4,20.101,2c3,0.801,6.2,0.4,9.1-0.899c11.4-5,30.4-14.9,41.8-21.4
		C124.101,77.8,117.2,70,111.2,72.8L111.2,72.8z"/>
	<g id="Gruppe_3459" opacity="0.18">
		<g id="Gruppe_3458">
			<g>
				<defs>
					<rect id="SVGID_1_" y="134" width="126.5" height="9.2"/>
				</defs>
				<clipPath id="SVGID_2_">
					<use xlink:href="#SVGID_1_"  overflow="visible"/>
				</clipPath>
				<g id="Gruppe_3457" clip-path="url(#SVGID_2_)">
					<path id="Pfad_3130" fill="#58d38c" d="M63.3,134c34.9,0,63.301,2.101,63.301,4.601S98.3,143.2,63.3,143.2s-63.3-2.1-63.3-4.6
						S28.3,134,63.3,134"/>
				</g>
			</g>
		</g>
	</g>
</g>
</svg>
