<?xml version="1.0" encoding="utf-8"?>
<!-- Generator: Adobe Illustrator 16.0.0, SVG Export Plug-In . SVG Version: 6.00 Build 0)  -->
<!DOCTYPE svg PUBLIC "-//W3C//DTD SVG 1.1//EN" "http://www.w3.org/Graphics/SVG/1.1/DTD/svg11.dtd">
<svg version="1.1" id="Layer_1" xmlns="http://www.w3.org/2000/svg" xmlns:xlink="http://www.w3.org/1999/xlink" x="0px" y="0px"
	 width="118px" height="100.16px" viewBox="0 0 118 100.16" enable-background="new 0 0 118 100.16" xml:space="preserve">
<g>
	<path id="Pfad_3135" fill="#29347C" d="M103.301,1.664c-3.601-0.301-5.7,5-7.301,6.6c-1.5,1.7-3.699,1.1-8.399,0
		c-4.7-1.2-10-6.3-11.5-6.9c-1.5-0.6-2.2,0.4-8,3.2c-5.8,2.801-22.601-2.3-25-3.1c-2.4-0.8-5.5-2-7.3-1.2
		c-1.801,0.8-15.101,1.7-16.7,2.3C17.4,3.164,12.5,1.664,12.5,1.664s-0.5,0.899-1,2c-0.5,1.1-0.3,2.8-0.399,7.899
		c-0.101,5.101,5.1,6.3,5.1,8.601c-0.1,1.8-0.3,3.6-0.6,5.399c0,0-6.601,2-10.3,3.101c-3.7,1.1,1.899,9.6,2.3,12.8
		c0.399,3.2,0.8,2.899,2.399,6.5c1.601,3.6,0.9,1.7,4,4.7c3.101,3,4.301,1.5,6.601,1.8s9.7,5.7,13.8,8.6c4.1,2.8,20.4,7.7,25.4,8.4
		c5,0.8,7,0.5,9.8-2.4c2.8-2.899,3.8-10.5,5-14.3s3.3,1.9,4.2,2.8c0.899,0.9,2.899,4.2,7.399,4.2s2.8-4,2.4-6.1
		c-0.4-2.101,4.7-2.9,7.8-3.801c3.1-0.899,3.7,0.5,5.5,0s5.1-5,6.8-6.8s0-9.8-2.399-11.8c-2.4-1.899-8.801-4.3-9.7-6
		c-0.9-1.7,1.2-3.8,2.2-6.1s8.399-3.2,9.8-3.7c1.399-0.5,4.899-1,5.7-4C115.101,10.664,106.9,1.964,103.301,1.664 M44.101,34.363
		L44.101,34.363c0,0.2,0,0.301,0,0.4c0,4.4-3.5,7.9-7.9,7.9l0,0v-5.5c-4.399,0-7.899-3.5-7.899-7.9s3.5-7.9,7.899-7.9h6.9
		c0.5,0,1,0.4,1,1V34.363z M62.2,36.863c-0.3,0.5-0.8,0.7-1.3,0.4c-0.2-0.1-0.3-0.2-0.399-0.4L57.4,31.164l-3,5.6
		c-0.3,0.5-0.8,0.7-1.3,0.4c-0.2-0.101-0.3-0.2-0.4-0.4l-7.399-14c-0.3-0.5-0.101-1.1,0.399-1.3c0.101-0.101,0.301-0.101,0.5-0.101
		h9.601l1.6,3l1.601-3H68.9c0.5,0,1,0.4,1,1c0,0.2,0,0.301-0.1,0.5L62.2,36.863z M84.7,34.363L84.7,34.363c0,0.2,0,0.301,0,0.4
		c0,4.4-3.5,7.9-7.899,7.9l0,0v-5.5c-4.4,0-7.9-3.5-7.9-7.9s3.5-7.9,7.9-7.9H83.7c0.5,0,1,0.4,1,1V34.363z"/>
	<g id="Gruppe_3465" opacity="0.18">
		<g id="Gruppe_3464">
			<g>
				<defs>
					<rect id="SVGID_1_" y="91.563" width="118" height="8.601"/>
				</defs>
				<clipPath id="SVGID_2_">
					<use xlink:href="#SVGID_1_"  overflow="visible"/>
				</clipPath>
				<g id="Gruppe_3463" clip-path="url(#SVGID_2_)">
					<path id="Pfad_3136" fill="#29347C" d="M59,91.563c32.601,0,59,1.9,59,4.3c0,2.4-26.399,4.301-59,4.301
						c-32.6,0-59-1.9-59-4.301C0,93.464,26.4,91.563,59,91.563"/>
				</g>
			</g>
		</g>
	</g>
</g>
</svg>
