<svg xmlns="http://www.w3.org/2000/svg" xmlns:xlink="http://www.w3.org/1999/xlink" width="241.537" height="411.246" viewBox="0 0 241.537 411.246">
  <defs>
    <clipPath id="clip-path">
      <rect id="Rectangle_449" data-name="Rectangle 449" width="218" height="364" transform="translate(0.341 0)" fill="none"/>
    </clipPath>
  </defs>
  <g id="Grafik" transform="translate(-1239 -144)">
    <g id="Group_3746" data-name="Group 3746" transform="translate(1250.659 144)">
      <g id="Group_3745" data-name="Group 3745" transform="translate(0 0)" clip-path="url(#clip-path)">
        <path id="Path_3430" data-name="Path 3430" d="M218.41,1357.389a1.68,1.68,0,0,0-.311,2.92l7.041,8.626,16.551-13.716c-3.206-2.757-6.333-5.708-9.685-8.276-4.686,3.137-9.119,6.945-13.595,10.445" transform="translate(-167.306 -1036.428)" fill="#bca8ff"/>
        <path id="Path_3431" data-name="Path 3431" d="M223.217,1367.589a.534.534,0,0,1-.056,0,.576.576,0,0,1-.391-.209l-7.041-8.627a2.223,2.223,0,0,1,.4-3.739c1.257-.983,2.536-2.01,3.772-3,3.181-2.556,6.47-5.2,9.858-7.466a.578.578,0,0,1,.672.021c2.32,1.777,4.559,3.76,6.724,5.677.977.865,1.988,1.76,2.987,2.62a.577.577,0,0,1-.008.882l-16.551,13.716a.578.578,0,0,1-.368.133m-6.374-11.669c-.378.3-.751.613-.794.954s.259.761.574,1.147l6.673,8.177,15.578-12.91c-.835-.724-1.67-1.464-2.482-2.184-2.047-1.813-4.16-3.684-6.332-5.372-3.226,2.188-6.379,4.722-9.433,7.175-1.239,1-2.52,2.025-3.784,3.013" transform="translate(-165.383 -1034.505)" fill="#253081"/>
        <path id="Path_3432" data-name="Path 3432" d="M199.794,1413.378c4.708-.848,3.343-8.3,3.379-11.536q.086-7.66-.48-15.308c-.113-1.524.092-3.779-.551-5.176-.61-1.326-2.338-2.675-3.261-3.844-.6-.76-6.758-8.911-6.327-9.258-4.372,3.522-14.047,8.313-13.864,8.164Z" transform="translate(-137.535 -1052.822)" fill="#fff"/>
        <path id="Path_3433" data-name="Path 3433" d="M197.875,1412.031a.577.577,0,0,1-.5-.291l-21.071-36.9a.582.582,0,0,1,.1-.791.573.573,0,0,1,.207-.108c.715-.322,9.577-4.77,13.66-8.058h0a.577.577,0,0,1,.935.52c.422,1.117,5.1,7.426,6.207,8.83a17.1,17.1,0,0,0,1.194,1.292,7.036,7.036,0,0,1,2.7,6.679c.007.493.014.959.044,1.363.377,5.091.539,10.258.482,15.358-.006.537.029,1.221.066,1.945.192,3.727.481,9.36-3.92,10.153a.594.594,0,0,1-.1.009m-20.291-37.275,20.578,36.037c2.992-.9,2.757-5.483,2.583-8.865-.038-.743-.074-1.444-.068-2.017.057-5.067-.1-10.2-.479-15.259-.033-.438-.039-.921-.047-1.432a5.991,5.991,0,0,0-2.364-5.886,17.849,17.849,0,0,1-1.278-1.386c-.306-.387-2.015-2.642-3.566-4.8-.9-1.252-1.6-2.266-2.072-3.014-.2-.317-.379-.6-.517-.848a74.159,74.159,0,0,1-7.983,4.962c-1.672.922-3.078,1.65-3.768,2-.411.21-.757.383-1.02.512M191,1366.782l0,0,0,0" transform="translate(-135.616 -1050.898)" fill="#253081"/>
        <path id="Path_3434" data-name="Path 3434" d="M193.4,1431.288c-1.676-2.878-16.452-28.381-19.179-37.612a.577.577,0,0,0-.686-.4,6.477,6.477,0,0,1-2.322-.1,7.339,7.339,0,0,0-2.763-.081.577.577,0,0,0-.394.8c5.812,13.048,12.793,25.129,22.634,39.172a.577.577,0,0,0,.7.2l1.581-.68a.911.911,0,0,0,.429-1.3" transform="translate(-129.317 -1071.851)" fill="#253081"/>
        <path id="Path_3435" data-name="Path 3435" d="M341.853,763.664l.021.193a110.161,110.161,0,0,1-11.618,62.375,101.788,101.788,0,0,1-17.777,24.454q-.162.164-.325.326a152.556,152.556,0,0,1-18.616,15.472c-3.315,2.387-6.692,4.689-10.1,6.949-.978.649-9.243,6.824-9.846,6.41a48.74,48.74,0,0,1-14.567-15.109c-.01-.013,3.419-3.019,3.731-3.3a150.636,150.636,0,0,0,35.82-50.611c4.337-9.918,3.518-20.573,2.923-31.313a202.889,202.889,0,0,0-5.181-35.67c-1.141-4.8-2.359-10.232.369-14.339,2.383-3.587,6.979-4.892,11.188-5.935,4.374-1.084,8.9-2.176,13.355-1.412,15.812,2.712,19.269,29,20.622,41.516" transform="translate(-199.334 -555.625)" fill="#fff"/>
        <path id="Path_3436" data-name="Path 3436" d="M271.707,878.53a.635.635,0,0,1-.387-.131A49.446,49.446,0,0,1,256.6,863.134c-.285-.412.089-.747.292-.929l.516-.459c.421-.373.973-.859,1.491-1.315.718-.633,1.4-1.231,1.522-1.346A150.786,150.786,0,0,0,296.1,808.667c4.1-9.368,3.541-19.231,2.953-29.672l-.077-1.377a202.71,202.71,0,0,0-5.167-35.568c-1.1-4.631-2.47-10.395.45-14.791a11.834,11.834,0,0,1,5.149-4.127,36.692,36.692,0,0,1,6.381-2.049c4.193-1.039,8.946-2.217,13.591-1.421,7.051,1.209,12.495,7.083,16.179,17.458,2.883,8.118,4.143,17.392,4.919,24.565h0l.021.192a111.212,111.212,0,0,1-11.68,62.7,102.084,102.084,0,0,1-17.879,24.593q-.163.165-.328.329a151.093,151.093,0,0,1-18.686,15.531c-3,2.163-6.217,4.375-10.116,6.961-.191.127-.71.5-1.368.975-6.394,4.609-8.048,5.561-8.737,5.561m-13.884-15.611a48.31,48.31,0,0,0,13.991,14.419c1.142-.394,6.238-4.067,7.955-5.3.694-.5,1.195-.862,1.4-1,3.886-2.578,7.088-4.782,10.079-6.936A150.036,150.036,0,0,0,309.8,848.684l.321-.322A100.924,100.924,0,0,0,327.8,824.046,110.043,110.043,0,0,0,339.353,762l-.021-.192h0c-.769-7.109-2.017-16.3-4.859-24.3-3.534-9.953-8.677-15.574-15.287-16.707-4.408-.755-9.035.391-13.118,1.4-4.456,1.1-8.639,2.371-10.846,5.695-2.643,3.979-1.337,9.473-.288,13.886a203.912,203.912,0,0,1,5.2,35.771l.077,1.376c.57,10.117,1.159,20.579-3.047,30.2A151.946,151.946,0,0,1,261.2,859.935c-.134.123-.785.7-1.54,1.361-.619.545-1.4,1.233-1.838,1.623" transform="translate(-197.386 -553.707)" fill="#253081"/>
        <path id="Path_3437" data-name="Path 3437" d="M279.595,1346.58a.567.567,0,0,1-.238-.052.576.576,0,0,1-.286-.764l3.021-6.643a.577.577,0,0,1,1.053.471l-.318.724a.59.59,0,0,1-.059.1l-2.648,5.823a.577.577,0,0,1-.525.338" transform="translate(-214.711 -1030.15)" fill="#253081"/>
        <path id="Path_3438" data-name="Path 3438" d="M291.75,1368.97a.577.577,0,0,1-.31-1.064l5.3-3.365a.577.577,0,1,1,.618.974l-5.3,3.365a.573.573,0,0,1-.309.09" transform="translate(-224.061 -1049.895)" fill="#253081"/>
        <path id="Path_3439" data-name="Path 3439" d="M446.135,1430.544l12,2.182q1.293-9.475,2.586-18.951c-3.749-.021-10.94-1.8-12.752,2.245-.62,1.385-2.073,14.474-1.831,14.524" transform="translate(-343.24 -1087.521)" fill="#bca8ff"/>
        <path id="Path_3440" data-name="Path 3440" d="M456.252,1431.373a.623.623,0,0,1-.1-.009l-12-2.182-.015,0a.6.6,0,0,1-.4-.311c-.074-.145-.248-.485.558-7.22a59.4,59.4,0,0,1,1.268-7.794c1.592-3.559,6.553-3.119,10.538-2.765,1.011.09,1.966.174,2.744.178a.577.577,0,0,1,.568.655l-2.586,18.951a.578.578,0,0,1-.572.5m-11.44-3.244,10.95,1.992,2.418-17.716c-.67-.031-1.411-.1-2.184-.165-3.621-.322-8.126-.722-9.382,2.086-.517,1.155-1.7,11.611-1.8,13.8" transform="translate(-341.361 -1085.591)" fill="#253081"/>
        <path id="Path_3441" data-name="Path 3441" d="M472.954,1488.6c2.486-4.088-4-8-6.4-10.176q-5.679-5.141-11.782-9.786c-1.216-.925-2.769-2.573-4.241-3.018-1.4-.422-3.553-.022-5.039-.106-.967-.054-11.152-.845-11.126-1.4-.26,5.609-3.084,16.029-3.075,15.792Z" transform="translate(-331.844 -1126.563)" fill="#fff"/>
        <path id="Path_3442" data-name="Path 3442" d="M471.031,1487.257a.607.607,0,0,1-.118-.012l-41.6-8.677a.581.581,0,0,1-.524-.6.575.575,0,0,1,.056-.226c.233-.749,2.776-10.334,3.019-15.571a.581.581,0,0,1,.6-.549.575.575,0,0,1,.406.195c1.117.425,8.941,1.1,10.726,1.2a17.052,17.052,0,0,0,1.759-.038,7.036,7.036,0,0,1,6.788,2.408c.374.321.728.625,1.05.871,4.06,3.089,8.036,6.392,11.82,9.817.4.36.934.787,1.5,1.239,2.918,2.327,7.328,5.843,5,9.664a.577.577,0,0,1-.493.277m-40.929-9.7,40.625,8.474c1.308-2.838-2.279-5.7-4.926-7.809-.582-.463-1.131-.9-1.556-1.286-3.759-3.4-7.711-6.685-11.744-9.755-.35-.266-.716-.581-1.1-.914a5.992,5.992,0,0,0-5.974-2.13,17.964,17.964,0,0,1-1.886.038c-.492-.028-3.311-.242-5.962-.514-1.532-.157-2.754-.307-3.63-.446-.372-.059-.7-.113-.978-.175a74.18,74.18,0,0,1-1.575,9.267c-.418,1.862-.8,3.4-1,4.148-.115.447-.215.821-.292,1.1m2.918-15.331h0m0,0h0Z" transform="translate(-329.921 -1124.639)" fill="#253081"/>
        <path id="Path_3443" data-name="Path 3443" d="M463.364,1526.121a.912.912,0,0,0-.609-.434c-3.265-.652-32.157-6.489-40.876-10.565a.577.577,0,0,0-.753.25,6.46,6.46,0,0,1-1.613,1.673,7.357,7.357,0,0,0-1.892,2.015.577.577,0,0,0,.335.823c13.622,4.295,27.3,7.074,44.335,9.012a.584.584,0,0,0,.065,0,.577.577,0,0,0,.548-.4l.538-1.635a.915.915,0,0,0-.079-.745" transform="translate(-321.275 -1165.752)" fill="#253081"/>
        <path id="Path_3444" data-name="Path 3444" d="M324.2,795.474c-2.574-12.389-5.517-24.714-9.069-36.878-2.542-8.709-4.857-26.9-14.43-30.826-3.978-1.632-8.793-1.213-13.017-1.552-3.49-.28-6.492-1.372-9.916-1.946-7.449-1.248-13.157,3.253-15.705,9.853-11.756,30.449,15.387,57.7,28.119,83.32,5.323,10.713,8.469,23.9,10.265,35.6,1.372,8.936.86,18.018-.272,26.939-.157,1.24-1.378,4.95-.763,6.018.777,1.348,3.932,1.24,5.355,1.463q7.059,1.1,14.179,1.762c.816.067,5.179-18.463,5.541-20.366a193.664,193.664,0,0,0,2.266-57.729c-.591-5.265-1.478-10.477-2.554-15.654" transform="translate(-199.447 -557.296)" fill="#fff"/>
        <path id="Path_3445" data-name="Path 3445" d="M317.1,895.183c-.03,0-.06,0-.091,0-4.741-.438-9.524-1.032-14.221-1.767-.3-.046-.7-.079-1.121-.114-1.733-.143-3.891-.32-4.646-1.63-.514-.892-.151-2.671.377-4.9.146-.619.273-1.153.313-1.474,1.354-10.67,1.441-19.18.275-26.779-2.163-14.085-5.694-26.336-10.211-35.428-3.128-6.3-7.061-12.58-11.225-19.233-6.252-9.989-12.716-20.318-16.5-31.023-4.3-12.161-4.433-23.129-.418-33.529a17,17,0,0,1,6.232-8.141.577.577,0,1,1,.642.958,15.855,15.855,0,0,0-5.8,7.6c-8.752,22.668,4.247,43.438,16.817,63.524,4.18,6.678,8.127,12.986,11.28,19.332,4.57,9.2,8.138,21.565,10.318,35.766,1.184,7.709,1.1,16.32-.27,27.1-.048.382-.181.944-.335,1.594-.289,1.222-.827,3.5-.5,4.062.453.786,2.431.949,3.741,1.057.446.037.867.071,1.2.124,4.577.715,9.236,1.3,13.853,1.731,1.057-2.053,4.755-17.474,5.212-19.872a192.41,192.41,0,0,0,2.259-57.557c-.551-4.908-1.383-10.011-2.545-15.6-2.815-13.55-5.778-25.6-9.058-36.834-.483-1.654-.96-3.659-1.422-5.6a.577.577,0,0,1,1.122-.267c.459,1.925.933,3.916,1.407,5.543,3.289,11.264,6.259,23.342,9.08,36.922,1.169,5.626,2.007,10.764,2.562,15.707a193.559,193.559,0,0,1-2.272,57.9c-.19,1-1.393,6.183-2.608,10.956-.705,2.768-1.307,4.982-1.788,6.582-.871,2.891-1.181,3.3-1.668,3.3m.009-1.153h0Z" transform="translate(-197.565 -562.676)" fill="#253081"/>
        <path id="Path_3446" data-name="Path 3446" d="M464.789,1408.857a.577.577,0,0,1-.576-.554l-.27-6.675a.577.577,0,0,1,1.153-.047l.27,6.675a.577.577,0,0,1-.553.6h-.024" transform="translate(-356.959 -1078.031)" fill="#253081"/>
        <path id="Path_3447" data-name="Path 3447" d="M491.972,1415.987a.577.577,0,0,1-.491-.879l3.544-5.762a.577.577,0,1,1,.983.6l-3.544,5.762a.577.577,0,0,1-.492.274" transform="translate(-378.077 -1084.217)" fill="#253081"/>
        <path id="Path_3448" data-name="Path 3448" d="M352.23,151.8c-1.745-5.051-4.734-9.65-6.028-14.835-1.538-6.165-.255-13.724,4.582-18.292,5.372-5.073,14.682-5.2,19.371.9,3.9,5.076,5.14,13.347,3.991,19.524a23.09,23.09,0,0,1-8.074,13.575c.495,5.895,1.312,11.483,4.364,16.593,3.091,5.176,5.674,9.691,4.246,15.548a16.508,16.508,0,0,1-32.03.183,16.719,16.719,0,0,1,1.15-11.063,17.465,17.465,0,0,1,2.428-3.609c.813-1.023,1.317-.776,2.58-1.382.928-.445,1.026-1.57,1.969-1.98,2-.868,2.426-6.676,2.572-9.39a15.527,15.527,0,0,0-1.12-5.776" transform="translate(-263.296 -88.736)" fill="#fff"/>
        <path id="Path_3449" data-name="Path 3449" d="M356.716,196.071a17.506,17.506,0,0,1-16.56-12.847,16.59,16.59,0,0,1,3.566-15.024l.119-.15a3.065,3.065,0,0,1,1.782-1.165,6.871,6.871,0,0,0,1-.379,2.025,2.025,0,0,0,.736-.785,2.9,2.9,0,0,1,1.252-1.2c.669-.291,1.847-1.832,2.226-8.892a15.041,15.041,0,0,0-1.09-5.557,64.919,64.919,0,0,0-2.65-6.218,48.323,48.323,0,0,1-3.392-8.666c-1.444-5.788-.536-13.862,4.746-18.851a14.693,14.693,0,0,1,11.1-3.859,12.566,12.566,0,0,1,9.122,4.83c4.323,5.631,5.156,14.305,4.1,19.981a23.8,23.8,0,0,1-8.041,13.723c.556,6.442,1.48,11.393,4.258,16.044,3,5.018,5.828,9.758,4.311,15.981a17.5,17.5,0,0,1-16.5,13.037h-.089m-5.877-46.379a16.02,16.02,0,0,1,1.151,6c-.323,6.021-1.25,9.164-2.918,9.888a1.887,1.887,0,0,0-.752.785,3.016,3.016,0,0,1-1.2,1.186,7.938,7.938,0,0,1-1.155.439,1.974,1.974,0,0,0-1.223.781l-.12.151a15.44,15.44,0,0,0-3.351,14.02,16.438,16.438,0,0,0,15.444,11.98h.08a16.433,16.433,0,0,0,15.387-12.156c1.406-5.764-1.308-10.306-4.18-15.116-3.252-5.445-4-11.548-4.443-16.84a.577.577,0,0,1,.211-.5,22.616,22.616,0,0,0,7.871-13.232c1.01-5.433.227-13.716-3.881-19.068a11.426,11.426,0,0,0-8.3-4.383,13.521,13.521,0,0,0-10.219,3.547c-4.944,4.668-5.781,12.27-4.419,17.733a47.474,47.474,0,0,0,3.317,8.456,65.773,65.773,0,0,1,2.7,6.33" transform="translate(-261.36 -86.814)" fill="#253081"/>
        <path id="Path_3450" data-name="Path 3450" d="M292.834,374.007a2.694,2.694,0,0,1-.581,2.5c-1.343,1.461-3.387,2.461-4.811,3.938-1.368,1.419-3.613,3.229-4.422,5.045-.724,1.625-.383,4.1-.561,5.869-1.015,10.105-5.05,42.4-6.039,51.958-22.576,4.832-54.417,7.914-76.874,1.39-.934-9.63-4.707-36.776-6.392-44.177-.675-2.965-1.107-6.069-2.671-8.676s-9.368-10.6-8.606-12.992c5.785-18.148,23.764-31.81,42.181-36.288q1.3-.316,2.617-.567s-4.424,18.051,9.853,18.051c15.653,0,11.644-18.992,11.644-18.992,4.571,1.226,9.246,3.174,13.668,4.838,12.395,4.663,24.333,13.188,30,25.491a12.325,12.325,0,0,1,.993,2.619" transform="translate(-139.948 -262.68)" fill="#bca8ff"/>
        <path id="Path_3451" data-name="Path 3451" d="M228.409,447.079c-11.984,0-22.366-1.255-30.944-3.747a.577.577,0,0,1-.413-.5c-.921-9.495-4.694-36.7-6.38-44.105-.123-.537-.237-1.079-.351-1.622a22.166,22.166,0,0,0-2.252-6.886,41.776,41.776,0,0,0-2.82-3.648c-3.782-4.612-6.415-8.016-5.841-9.815,2.782-8.728,8.5-16.868,16.535-23.539A66.062,66.062,0,0,1,222,340.084c.876-.213,1.765-.406,2.645-.573a.577.577,0,0,1,.668.7,27.237,27.237,0,0,0-.626,5.265c-.054,2.644.3,6.334,2.314,8.9,1.654,2.107,4.213,3.176,7.6,3.176,3.866,0,6.805-1.208,8.737-3.59,4.273-5.269,2.363-14.613,2.343-14.707a.577.577,0,0,1,.714-.676,110.314,110.314,0,0,1,10.841,3.753c.97.374,1.931.744,2.881,1.1a64.27,64.27,0,0,1,17.683,9.972,44.382,44.382,0,0,1,12.639,15.818l.084.182a11.807,11.807,0,0,1,.95,2.566,3.259,3.259,0,0,1-.722,3,16.315,16.315,0,0,1-2.521,2.082,16.887,16.887,0,0,0-2.3,1.866c-.344.356-.734.73-1.148,1.126a14.279,14.279,0,0,0-3.162,3.753,9.96,9.96,0,0,0-.447,3.719c0,.7-.005,1.363-.067,1.973-.537,5.35-1.916,16.875-3.249,28.021-1.2,10-2.325,19.441-2.791,23.939a.576.576,0,0,1-.453.5,236.807,236.807,0,0,1-38.579,4.966q-3.917.161-7.633.161m-30.247-4.747c10.168,2.893,22.894,4.048,37.833,3.433a235.624,235.624,0,0,0,37.975-4.854c.491-4.655,1.589-13.836,2.749-23.54,1.333-11.14,2.71-22.66,3.247-28,.056-.555.058-1.19.061-1.862a10.7,10.7,0,0,1,.547-4.184,15,15,0,0,1,3.418-4.117c.4-.387.787-.753,1.115-1.093a17.79,17.79,0,0,1,2.456-2,15.231,15.231,0,0,0,2.345-1.926,2.117,2.117,0,0,0,.44-1.992h0a10.961,10.961,0,0,0-.866-2.306l-.085-.184a43.24,43.24,0,0,0-12.318-15.4,63.1,63.1,0,0,0-17.363-9.789c-.953-.358-1.917-.73-2.889-1.1-3.235-1.246-6.571-2.532-9.85-3.473.4,2.595,1.1,10.018-2.737,14.752-2.161,2.666-5.4,4.017-9.633,4.017-3.765,0-6.629-1.218-8.513-3.62-3.528-4.5-2.558-11.761-2.084-14.272-.58.121-1.161.252-1.736.391a64.883,64.883,0,0,0-25.6,12.9c-7.865,6.53-13.457,14.484-16.172,23-.428,1.341,3.367,5.968,5.634,8.733a41.742,41.742,0,0,1,2.917,3.787,23.016,23.016,0,0,1,2.392,7.241c.113.536.226,1.072.347,1.6,1.671,7.342,5.38,34.005,6.365,43.859m76.338-.944h0Z" transform="translate(-138.028 -260.757)" fill="#253081"/>
        <path id="Path_3452" data-name="Path 3452" d="M373.96,335.935a.577.577,0,0,0-.349-.32,62.135,62.135,0,0,1-5.888-2.228.577.577,0,0,0-.85.613c.663,3.386,1.635,11.733-3.637,16.092a9.143,9.143,0,0,1-7.5,1.712,4.974,4.974,0,0,1-3.565-2.8,5.393,5.393,0,0,1-.336-1.085l-2.418-12.073a.577.577,0,0,0-.646-.458,33.848,33.848,0,0,0-8.156,2.205.578.578,0,0,0-.358.513,24.221,24.221,0,0,0,2.016,10.516c1.689,3.73,4.246,6.317,7.393,7.479a24.035,24.035,0,0,0,8.267,1.534q.736,0,1.458-.052a15.236,15.236,0,0,0,9.136-3.6c4.783-4.162,5.536-10.669,5.642-16.485a3.734,3.734,0,0,0-.214-1.563" transform="translate(-261.811 -256.721)" fill="#253081"/>
        <path id="Path_3453" data-name="Path 3453" d="M174.554,529.443c-2.779-7.076-3.05-15.659.054-24.605,5.509,2.4,13.416,6.223,19.151,8.042-.17.344-1.632,4.992-1.585,7.215a9.756,9.756,0,0,0,.732,3.644Z" transform="translate(-132.679 -388.662)" fill="#fff"/>
        <path id="Path_3454" data-name="Path 3454" d="M172.683,528.1a.577.577,0,0,1-.537-.366c-2.954-7.523-2.938-16.4.045-25a.577.577,0,0,1,.775-.34c1.406.612,2.96,1.313,4.606,2.054a149.978,149.978,0,0,0,14.489,5.966.577.577,0,0,1,.343.8,28.623,28.623,0,0,0-1.526,6.947,9.174,9.174,0,0,0,.686,3.429.577.577,0,0,1-.359.778l-18.351,5.705a.581.581,0,0,1-.171.026m.4-24.4a35.042,35.042,0,0,0-.053,23.113l17.246-5.361a10.691,10.691,0,0,1-.549-3.264,27.667,27.667,0,0,1,1.42-6.861c-4.214-1.4-9.426-3.747-14.048-5.831-1.42-.64-2.772-1.25-4.016-1.8" transform="translate(-130.808 -386.74)" fill="#253081"/>
        <path id="Path_3455" data-name="Path 3455" d="M198.675,501.734a.578.578,0,0,0-.345-.3l-.509-.159c-6.491-2.023-11.337-3.664-14.4-4.876-.451-.178-2.128-.736-3.474-1.184-.737-.245-1.367-.454-1.612-.541a.577.577,0,0,0-.741.368c-.009.029-.943,2.94-1.348,4.349a.577.577,0,0,0,.365.7c2.785.969,6.319,2.144,9.737,3.28s6.941,2.308,9.717,3.274a.576.576,0,0,0,.73-.344,21.05,21.05,0,0,1,.928-2,21.793,21.793,0,0,0,.979-2.119.577.577,0,0,0-.023-.454" transform="translate(-135.635 -380.821)" fill="#253081"/>
        <path id="Path_3456" data-name="Path 3456" d="M431.821,221.445c.938-.432,1.952-3.073,1.99-5.181a17.325,17.325,0,0,0-3.471.571c-.945.875.077,5.256,1.481,4.61" transform="translate(-330.829 -166.685)" fill="#253081"/>
        <path id="Path_3457" data-name="Path 3457" d="M429.6,220.16a1.554,1.554,0,0,1-1.29-.824c-.816-1.22-1.285-3.933-.3-4.846.126-.117.461-.426,3.813-.723a.577.577,0,0,1,.628.585c-.039,2.155-1.063,5.113-2.325,5.694h0a1.273,1.273,0,0,1-.524.114m.282-.637h0Zm-1.12-4.153a4.335,4.335,0,0,0,.506,3.324c.041.061.25.361.372.3.535-.247,1.412-2.12,1.614-4.017a16.405,16.405,0,0,0-2.492.389m-.037.016h0Z" transform="translate(-328.895 -164.763)" fill="#253081"/>
        <path id="Path_3458" data-name="Path 3458" d="M340.585,93.077l-1.429-8.568c-.358,6.277-.8,12.619-2.509,18.7-.876,3.126-2.508,3.932-3.46.285-.812-3.11-.545-6.053-.673-9.2a44,44,0,0,1-.913,10.865A20.285,20.285,0,0,1,329.768,111c-2.937,5.108-3.3-7.159-3.279-8.367.1-5.937,1.065-11.96,3.765-17.3,3.756-7.436,11.511-13.317,19.825-12.79,5.686.36,10.889,3.61,14.711,7.835,3.769,4.166,7.664,9.569,8.944,15.094,1.051,4.539-2.18,3.974-4.454,1.521a25.254,25.254,0,0,1-4.462-7.111,39.058,39.058,0,0,1,3,12.112c.1,1.237,0,2.746-1.089,3.336-3.55,1.92-6.1-5.3-6.906-7.486a85.04,85.04,0,0,1-2.423-8.629c-.507.646-.227,1.591-1.244,1.859-1.091.287-2.207-.825-2.986-1.459a13.8,13.8,0,0,1-1.418-1.333c-.166-.18-1.13-1.089-1.076-1.32l-1.4,5.9a20.055,20.055,0,0,1-4.53.178c-1.385.05-2.778-.043-4.162.045" transform="translate(-251.227 -56.099)" fill="#253081"/>
        <path id="Path_3459" data-name="Path 3459" d="M326.559,110.888a1.133,1.133,0,0,1-.3-.042c-.656-.181-1.472-.923-1.96-5.086a48.347,48.347,0,0,1-.309-5.067c.12-6.952,1.372-12.694,3.827-17.554a25.8,25.8,0,0,1,8.4-9.6,19.193,19.193,0,0,1,11.982-3.507c5.365.34,10.729,3.189,15.1,8.024,4.926,5.444,7.98,10.609,9.078,15.351.588,2.539-.124,3.514-.825,3.886-1.347.713-3.288-.411-4.614-1.843a20.562,20.562,0,0,1-1.533-1.876,39.548,39.548,0,0,1,1.067,6.438c.164,1.994-.3,3.3-1.39,3.89a2.89,2.89,0,0,1-2.487.2c-2.656-1-4.415-5.769-5.166-7.8l-.069-.186a64.188,64.188,0,0,1-1.993-6.9l-.035-.142a1.606,1.606,0,0,1-.95.631c-1.246.327-2.378-.628-3.2-1.326-.1-.086-.2-.169-.292-.244A14.426,14.426,0,0,1,349.4,86.74c-.026-.028-.074-.076-.135-.138q-.128-.128-.239-.243l-1.114,4.7a.577.577,0,0,1-.413.425,10.728,10.728,0,0,1-3.2.214c-.5-.018-.977-.035-1.456-.017-.625.022-1.254.017-1.863.011-.753-.007-1.531-.015-2.283.033a.579.579,0,0,1-.606-.481l-.609-3.653a71.656,71.656,0,0,1-2.2,13.845c-.566,2.021-1.433,3.122-2.421,3.12-.938-.008-1.663-.965-2.153-2.844q-.047-.179-.089-.358-.164,1-.375,2l-.044.209a19.987,19.987,0,0,1-1.853,5.792c-.228.4-.879,1.529-1.786,1.529m20.56-39.734A18.326,18.326,0,0,0,336.857,74.5a24.624,24.624,0,0,0-8.012,9.164c-2.374,4.7-3.585,10.279-3.7,17.054a47.962,47.962,0,0,0,.295,4.854c.443,3.836,1.109,4.158,1.128,4.166,0,0,.276-.076.779-.95a19.157,19.157,0,0,0,1.723-5.454l.044-.209a43.424,43.424,0,0,0,.931-9.716c-.006-.331-.015-.664-.029-1V92.4a.577.577,0,0,1,1.153-.047q.021.513.03,1.026c.01.5.013,1,.017,1.483a25.934,25.934,0,0,0,.608,6.565c.423,1.622.9,1.981,1.047,1.982h0c.216,0,.815-.555,1.3-2.277,1.657-5.909,2.122-12.159,2.489-18.576a.577.577,0,0,1,.545-.543.583.583,0,0,1,.6.481l1.344,8.062c.621-.022,1.242-.016,1.846-.01s1.212.012,1.81-.01c.519-.019,1.036,0,1.537.017a11.161,11.161,0,0,0,2.535-.1L348.19,84.9a.577.577,0,0,1,1.132.049,7.087,7.087,0,0,0,.764.844c.075.075.133.134.165.168a13.274,13.274,0,0,0,1.359,1.277c.1.08.2.167.308.258.632.534,1.5,1.267,2.167,1.091.309-.081.361-.216.491-.67a2.722,2.722,0,0,1,.446-.987.577.577,0,0,1,1.013.213c.153.6.3,1.2.45,1.792a62.4,62.4,0,0,0,1.955,6.78l.07.188c.636,1.725,2.328,6.309,4.491,7.125a1.757,1.757,0,0,0,1.53-.134c.646-.349.912-1.285.789-2.781a38.323,38.323,0,0,0-2.953-11.933.577.577,0,0,1,1.061-.453,24.715,24.715,0,0,0,4.354,6.945c1.274,1.375,2.666,1.9,3.227,1.608.471-.25.561-1.224.242-2.606-1.038-4.485-4.085-9.616-8.81-14.837-4.172-4.61-9.257-7.326-14.32-7.646-.333-.021-.667-.032-1-.032" transform="translate(-249.303 -54.176)" fill="#253081"/>
        <path id="Path_3460" data-name="Path 3460" d="M268.721,509.144a.569.569,0,0,1-.237-.051.576.576,0,0,1-.288-.763,26.43,26.43,0,0,1,3.638-5.409.577.577,0,1,1,.88.747,24.447,24.447,0,0,0-3.467,5.137.577.577,0,0,1-.526.34" transform="translate(-206.347 -387.03)" fill="#253081"/>
        <path id="Path_3461" data-name="Path 3461" d="M567.546,507.723a.577.577,0,0,1-.534-.359c-.824-2.012-2.68-5.5-4.153-6.3a.577.577,0,0,1,.551-1.014c1.886,1.023,3.88,4.948,4.671,6.88a.577.577,0,0,1-.534.8" transform="translate(-432.815 -384.923)" fill="#253081"/>
        <path id="Path_3462" data-name="Path 3462" d="M203.135,505.839c6.921,1.243,14.058.641,19.375-3.373,5.084-3.838,5.863-10.31,3.981-16.567-.221-.736,1.967-1.706,2.366-2.362a3.1,3.1,0,0,1,1.3-1.013c6.383-3.321,13.2-10.68,13.494-10.138,4.417,8.168,5,19.262,1.774,27.934-3.012,8.107-10.149,14.866-17.848,18.515a44.262,44.262,0,0,1-24.24,3.555c-10.173-1.237-17.89-6.927-26.1-12.55-11.111-7.612-28.733-9.005-40.624-2.5a4.424,4.424,0,0,1-2.463.8c-2.506-.254-1.773-2.486.3-4.271l1.129-1.028c-.636.3-2.519,1.2-3.182,1.443-.585.215-2.326,1.058-2.949.574-1.229-.955.915-3.316,1.663-4a18.86,18.86,0,0,1,3.32-2.275q-6,3.31-12.166,6.288a4.781,4.781,0,0,1-1.774.582c-3.051.165.041-3.09.852-3.917a38.052,38.052,0,0,1,7.363-5.7c9.74-5.973,21.507-8.989,32.844-6.929,9.311,1.692,17.87,5.787,25.778,10.8a45.554,45.554,0,0,0,15.8,6.127" transform="translate(-91.761 -363.677)" fill="#fff"/>
        <path id="Path_3463" data-name="Path 3463" d="M207.429,521.407a50.493,50.493,0,0,1-6.1-.374c-9.687-1.178-17.048-6.244-24.842-11.608q-.753-.518-1.511-1.038a40.046,40.046,0,0,0-19.732-6.444c-7.486-.5-14.69.913-20.289,3.978l-.082.045a4.717,4.717,0,0,1-2.716.827c-1.374-.139-1.86-.8-2.026-1.324a3.111,3.111,0,0,1,.778-2.661c-.093.038-.175.071-.246.1s-.193.076-.32.128c-1.209.494-2.451.929-3.182.361a1.5,1.5,0,0,1-.594-1.16,3.9,3.9,0,0,1,.89-2.215c-2.279,1.187-4.577,2.341-6.874,3.449a5.306,5.306,0,0,1-1.994.638c-.959.052-1.571-.2-1.821-.754s-.287-1.575,2.229-4.143a38.469,38.469,0,0,1,7.474-5.786c10.584-6.49,22.393-8.978,33.249-7.005,8.319,1.512,16.818,5.07,25.983,10.878a45.144,45.144,0,0,0,15.594,6.046c5.38.966,13.031,1.184,18.925-3.265,4.439-3.352,5.815-9.161,3.776-15.94-.254-.844.658-1.49,1.541-2.114a4.822,4.822,0,0,0,.885-.715,3.637,3.637,0,0,1,1.53-1.225c3.953-2.057,8.186-5.784,10.715-8.01,2.284-2.011,2.644-2.293,3.108-2.211a.628.628,0,0,1,.445.321,35.925,35.925,0,0,1,1.807,28.41c-2.89,7.78-9.672,14.821-18.142,18.836a43.011,43.011,0,0,1-18.46,3.98M152.308,500.69q1.5,0,3.015.1a41.215,41.215,0,0,1,20.307,6.643q.759.52,1.513,1.04c7.674,5.281,14.922,10.269,24.327,11.413a43.511,43.511,0,0,0,23.924-3.5c8.2-3.889,14.767-10.69,17.554-18.195a34.814,34.814,0,0,0-1.489-26.984c-.459.352-1.252,1.051-2.026,1.733-2.568,2.261-6.867,6.046-10.944,8.168a2.609,2.609,0,0,0-1.077.8,4.4,4.4,0,0,1-1.2,1.057,5.23,5.23,0,0,0-1.083.9c2.158,7.24.627,13.481-4.205,17.13-3.437,2.595-9.667,5.3-19.824,3.48a46.348,46.348,0,0,1-16.008-6.208c-9.038-5.727-17.4-9.233-25.572-10.717-10.577-1.922-22.1.512-32.439,6.853a37.356,37.356,0,0,0-7.253,5.61c-1.8,1.836-2.054,2.7-2,2.861,0,0,.105.082.521.082.056,0,.118,0,.185-.005a4.365,4.365,0,0,0,1.555-.525c4.081-1.97,8.164-4.08,12.138-6.274a.577.577,0,0,1,.57,1,18.466,18.466,0,0,0-3.221,2.2c-.763.7-1.879,2.085-1.848,2.826a.356.356,0,0,0,.149.3c.138.086.605.067,2.038-.518.142-.058.264-.108.357-.142.572-.211,2.151-.958,2.909-1.317l.226-.107a.577.577,0,0,1,.666.918c-.034.036-1.156,1.054-1.165,1.063-1.31,1.127-1.829,2.232-1.668,2.743.112.356.628.481,1.041.523a3.853,3.853,0,0,0,2.045-.69l.083-.046a37.606,37.606,0,0,1,17.905-4.218" transform="translate(-89.822 -361.747)" fill="#253081"/>
        <path id="Path_3464" data-name="Path 3464" d="M598.157,468.953a16.479,16.479,0,0,0-3.063-6.487.576.576,0,0,0-.789-.086c-4.739,3.6-17.163,12.819-17.288,12.912a.576.576,0,0,0-.176.714,23.41,23.41,0,0,1,1.65,4.543.577.577,0,0,0,.9.367c1.9-1.361,5.536-3.451,9.053-5.472,4.279-2.459,8.321-4.782,9.543-5.944a.576.576,0,0,0,.165-.547" transform="translate(-443.759 -355.912)" fill="#253081"/>
        <path id="Path_3465" data-name="Path 3465" d="M255.147,302.287a1.957,1.957,0,0,0,.883.42,1.12,1.12,0,0,0,1.238-1.661c-.48-.963-1.337-1.846-1.817-2.809,1.255,1.455,2.438,2.889,3.849,4.24,1.055,1.01,3.528,1.166,2.995-.895a26.116,26.116,0,0,0-3.007-6.086c-2.37-4.03-5.544-7.953-9.864-9.978q-.437-.2-.886-.381c-5.363-2.1-12.272-1.709-15.514,3.691-2.333,3.887-2.905,8.632-3.073,13.258l-.1,3.78q.116,7.7-.319,15.4c-.482,8.528-1.067,16.662-4.068,24.759-2.284,6.163-6.546,13.008-14.055,12.315-14.087-1.3-22.391,4.721-22.391,4.721a27.572,27.572,0,0,0,23.725,14.258,22.779,22.779,0,0,0,16.782-6.174c6.881-6.625,10.364-18.546,12.183-27.632a158.789,158.789,0,0,0,2.577-40.945h.019c0-1.482-.41-3.959-.02-5.354a1.72,1.72,0,0,1,2.483-1.112c1.875,1.153,2.254,3.683,4.067,5.049,1.58,1.191,1.877-.82,1.733-1.409-.234-.958-1.041-1.6-1.462-2.491,1.517,2.035,2.884,3.908,3.569,4.6a5.055,5.055,0,0,0,.476.432" transform="translate(-145.478 -218.756)" fill="#fff"/>
        <path id="Path_3466" data-name="Path 3466" d="M211.659,375.988q-.429,0-.861-.014a28.036,28.036,0,0,1-24.211-14.555.577.577,0,0,1,.166-.747c.346-.251,8.644-6.133,22.783-4.829,3.985.367,9.556-1.406,13.461-11.941,2.889-7.8,3.515-15.426,4.033-24.591.288-5.091.395-10.259.318-15.36,0-.008,0-.016,0-.025l.1-3.78c.158-4.361.656-9.376,3.155-13.539a10.462,10.462,0,0,1,7.353-4.928,16.61,16.61,0,0,1,8.866,1c.306.12.616.253.921.4,3.821,1.791,7.13,5.13,10.116,10.208q.192.326.395.666a22.921,22.921,0,0,1,2.673,5.568,1.7,1.7,0,0,1-.666,2.078,3.02,3.02,0,0,1-3.286-.622q-.487-.467-.945-.948a1.68,1.68,0,0,1-.3.709,1.712,1.712,0,0,1-1.72.622,2.507,2.507,0,0,1-1.145-.534,5.517,5.517,0,0,1-.531-.481,17.29,17.29,0,0,1-1.186-1.416,1.772,1.772,0,0,1-.686,1.054c-.373.246-1.006.4-1.906-.283a8.41,8.41,0,0,1-2.09-2.653,6.319,6.319,0,0,0-1.932-2.365.94.94,0,0,0-.861-.07,1.3,1.3,0,0,0-.765.846,12.262,12.262,0,0,0-.046,3.515c.045.613.087,1.193.087,1.683a.578.578,0,0,1-.011.113,159.961,159.961,0,0,1-2.6,40.946c-2.641,13.19-6.8,22.588-12.349,27.934a23.288,23.288,0,0,1-16.339,6.348m-23.8-14.663a26.9,26.9,0,0,0,22.975,13.5,22.261,22.261,0,0,0,16.363-6.012c5.38-5.18,9.424-14.375,12.017-27.33a158.8,158.8,0,0,0,2.566-40.795.578.578,0,0,1,.017-.18c-.008-.422-.045-.926-.083-1.456a12.848,12.848,0,0,1,.086-3.91,2.477,2.477,0,0,1,1.455-1.609,2.079,2.079,0,0,1,1.886.161,7.276,7.276,0,0,1,2.323,2.765,7.425,7.425,0,0,0,1.789,2.315c.3.228.511.284.576.24a1.411,1.411,0,0,0,.249-1.052,3.764,3.764,0,0,0-.713-1.267,6.735,6.735,0,0,1-.71-1.114.577.577,0,0,1,.984-.591l.571.768c1.222,1.644,2.376,3.2,2.945,3.771a4.476,4.476,0,0,0,.421.383,1.393,1.393,0,0,0,.62.306.609.609,0,0,0,.607-.166.668.668,0,0,0,.023-.667,9.879,9.879,0,0,0-.86-1.324,10.91,10.91,0,0,1-.957-1.485.577.577,0,0,1,.953-.634q.294.34.583.678a47.567,47.567,0,0,0,3.229,3.522,1.961,1.961,0,0,0,1.9.46c.072-.042.293-.172.132-.793a22.112,22.112,0,0,0-2.548-5.267c-.136-.228-.269-.452-.4-.671-2.864-4.87-6.008-8.059-9.612-9.748-.282-.132-.568-.256-.851-.366-7.126-2.787-12.573-.275-14.809,3.451-2.364,3.938-2.839,8.772-2.991,12.982l-.1,3.763c.077,5.124-.031,10.316-.32,15.43-.524,9.264-1.158,16.981-4.1,24.927-2.187,5.9-6.289,12.74-13.544,12.741q-.541,0-1.1-.051c-11.922-1.1-19.709,3.175-21.57,4.333" transform="translate(-143.556 -216.831)" fill="#253081"/>
        <path id="Path_3467" data-name="Path 3467" d="M808.591,441.011c-6.435,2.132-10.642,8.943-11.429,15.829a73.374,73.374,0,0,0,8.051,2.731s1.6-8.278,7.835-8.921a32.467,32.467,0,0,0,12.252-3.573c6.529-3.577,8.879-12.688,5.782-19.458s-10.664-10.883-18.108-10.928c-2.878-.017-5.993.629-7.88,2.8s-1.7,6.176.9,7.4c3.067,1.438,6.28-1.638,9.609-2.265a6.755,6.755,0,0,1,7.306,9.632c-1.21,2.446-3.783,3.935-6.384,4.761s-5.346,1.133-7.936,1.991" transform="translate(-613.278 -320.857)" fill="#253081"/>
        <path id="Path_3468" data-name="Path 3468" d="M783.967,618.756c2.273.82,4.078,3,3.282,5.828a5,5,0,0,1-9.74-2.166c.617-3.748,3.847-4.6,6.458-3.661" transform="translate(-598.116 -476.019)" fill="#253081"/>
        <path id="Path_3469" data-name="Path 3469" d="M683.472,196.684c-2.955,1.841-4.234,5.75-3.8,9.283a37.737,37.737,0,0,0,4.35.391s-.2-4.326,2.835-5.4a16.678,16.678,0,0,0,5.686-3.262c2.828-2.574,2.9-7.407.538-10.413a10.34,10.34,0,0,0-10.36-3.271,5.23,5.23,0,0,0-3.6,2.35c-.68,1.313-.105,3.29,1.343,3.585,1.7.348,2.938-1.576,4.524-2.291a3.47,3.47,0,0,1,4.811,3.927,5.3,5.3,0,0,1-2.613,3.148c-1.2.727-2.532,1.211-3.722,1.952" transform="translate(-522.266 -141.656)" fill="#253081"/>
        <path id="Path_3470" data-name="Path 3470" d="M680.933,293.62a2.446,2.446,0,0,1,2.342,2.513,2.567,2.567,0,0,1-5.125.094,2.347,2.347,0,0,1,2.783-2.607" transform="translate(-521.725 -226.175)" fill="#253081"/>
        <path id="Path_3471" data-name="Path 3471" d="M12.486,325.656c-2.2,4.281-.938,9.823,2.089,13.7a52.093,52.093,0,0,0,5.435-2.623s-3.31-4.986-.472-8.415a23.044,23.044,0,0,0,4.426-7.905c1.526-5.059-1.818-10.842-6.754-12.728S6.4,307.481,2.6,311.162c-1.466,1.423-2.721,3.3-2.6,5.34s2.21,3.974,4.137,3.3c2.268-.8,2.365-3.954,3.738-5.928a4.9,4.9,0,0,1,4.63-2.006,4.9,4.9,0,0,1,3.862,3.248,7.33,7.33,0,0,1-.863,5.587c-.906,1.712-2.143,3.233-3.027,4.957" transform="translate(-0.085 -236.408)" fill="#253081"/>
        <path id="Path_3472" data-name="Path 3472" d="M74.83,456.825a3.38,3.38,0,0,1,4.561,1.317,3.547,3.547,0,0,1-6.009,3.749,3.244,3.244,0,0,1,1.448-5.067" transform="translate(-55.983 -351.435)" fill="#253081"/>
        <path id="Path_3473" data-name="Path 3473" d="M321.473,15.746a.577.577,0,0,1-.514-.313A85.333,85.333,0,0,1,315.068.74a.577.577,0,1,1,1.106-.328,84.182,84.182,0,0,0,5.811,14.493.577.577,0,0,1-.513.841" transform="translate(-242.423 -0.33)" fill="#253081"/>
        <path id="Path_3474" data-name="Path 3474" d="M297.206,59.023a.574.574,0,0,1-.376-.139,33.08,33.08,0,0,1-7.187-8.7.577.577,0,0,1,1-.573,31.922,31.922,0,0,0,6.937,8.4.577.577,0,0,1-.376,1.014" transform="translate(-222.826 -38.266)" fill="#253081"/>
        <path id="Path_3475" data-name="Path 3475" d="M274.115,103.891a.574.574,0,0,1-.214-.041,47.031,47.031,0,0,1-9.334-5.016.577.577,0,1,1,.657-.948,45.889,45.889,0,0,0,9.105,4.892.577.577,0,0,1-.214,1.113" transform="translate(-203.404 -75.547)" fill="#253081"/>
      </g>
    </g>
    <g id="Group_3674" data-name="Group 3674" transform="translate(1239 535.923)">
      <g id="Group_3673" data-name="Group 3673" transform="translate(0 0)">
        <g id="Group_3660" data-name="Group 3660" transform="translate(0 0)">
          <ellipse id="Ellipse_6" data-name="Ellipse 6" cx="120.768" cy="9.661" rx="120.768" ry="9.661" fill="#253081" opacity="0.18"/>
        </g>
      </g>
    </g>
  </g>
</svg>
